%TF.GenerationSoftware,KiCad,Pcbnew,10.0.1*%
%TF.CreationDate,2026-06-25T20:54:44+02:00*%
%TF.ProjectId,DMH_Slew_Mk2_PCB_Controls,444d485f-536c-4657-975f-4d6b325f5043,1*%
%TF.SameCoordinates,Original*%
%TF.FileFunction,Soldermask,Bot*%
%TF.FilePolarity,Negative*%
%FSLAX46Y46*%
G04 Gerber Fmt 4.6, Leading zero omitted, Abs format (unit mm)*
G04 Created by KiCad (PCBNEW 10.0.1) date 2026-06-25 20:54:44*
%MOMM*%
%LPD*%
G01*
G04 APERTURE LIST*
%ADD10C,2.800000*%
%ADD11R,1.800000X1.800000*%
%ADD12C,1.800000*%
%ADD13C,1.600000*%
%ADD14O,2.720000X3.240000*%
%ADD15R,1.700000X1.700000*%
%ADD16C,1.700000*%
G04 APERTURE END LIST*
D10*
%TO.C,SW6*%
X58500000Y-139700000D03*
X58500000Y-135000000D03*
X58500000Y-130300000D03*
%TD*%
D11*
%TO.C,D9*%
X67730000Y-135000000D03*
D12*
X70270000Y-135000000D03*
%TD*%
D10*
%TO.C,SW4*%
X56087000Y-180450000D03*
X56087000Y-175750000D03*
X56087000Y-171050000D03*
X60913000Y-180450000D03*
X60913000Y-175750000D03*
X60913000Y-171050000D03*
%TD*%
%TO.C,SW2*%
X89087000Y-87950000D03*
X89087000Y-83250000D03*
X89087000Y-78550000D03*
X93913000Y-87950000D03*
X93913000Y-83250000D03*
X93913000Y-78550000D03*
%TD*%
D13*
%TO.C,R53*%
X62190000Y-102300000D03*
X69810000Y-102300000D03*
%TD*%
%TO.C,R41*%
X80190000Y-128300000D03*
X87810000Y-128300000D03*
%TD*%
%TO.C,R3*%
X71190000Y-54250000D03*
X78810000Y-54250000D03*
%TD*%
D14*
%TO.C,RV4*%
X61200000Y-109000000D03*
X70800000Y-109000000D03*
D11*
X63500000Y-116500000D03*
D12*
X66000000Y-116500000D03*
X68500000Y-116500000D03*
%TD*%
D11*
%TO.C,D5*%
X69730000Y-86000000D03*
D12*
X72270000Y-86000000D03*
%TD*%
D11*
%TO.C,D6*%
X77730000Y-86000000D03*
D12*
X80270000Y-86000000D03*
%TD*%
D10*
%TO.C,SW1*%
X56087000Y-163950000D03*
X56087000Y-159250000D03*
X56087000Y-154550000D03*
X60913000Y-163950000D03*
X60913000Y-159250000D03*
X60913000Y-154550000D03*
%TD*%
D14*
%TO.C,RV1*%
X70250000Y-61000000D03*
X79750000Y-61000000D03*
D11*
X72500000Y-68500000D03*
D12*
X75000000Y-68500000D03*
X77500000Y-68500000D03*
X72500000Y-71000000D03*
X75000000Y-71000000D03*
X77500000Y-71000000D03*
%TD*%
D14*
%TO.C,RV3*%
X79200000Y-135000000D03*
X88800000Y-135000000D03*
D11*
X81500000Y-142500000D03*
D12*
X84000000Y-142500000D03*
X86500000Y-142500000D03*
%TD*%
D10*
%TO.C,SW3*%
X58500000Y-87950000D03*
X58500000Y-83250000D03*
X58500000Y-78550000D03*
%TD*%
D13*
%TO.C,R4*%
X71190000Y-49250000D03*
X78810000Y-49250000D03*
%TD*%
D10*
%TO.C,SW5*%
X89087000Y-113700000D03*
X89087000Y-109000000D03*
X89087000Y-104300000D03*
X93913000Y-113700000D03*
X93913000Y-109000000D03*
X93913000Y-104300000D03*
%TD*%
D11*
%TO.C,D10*%
X79730000Y-109000000D03*
D12*
X82270000Y-109000000D03*
%TD*%
D15*
%TO.C,J29*%
X52750000Y-102000000D03*
D16*
X52750000Y-104540000D03*
X52750000Y-107080000D03*
X52750000Y-109620000D03*
X52750000Y-112160000D03*
X52750000Y-114700000D03*
X52750000Y-117240000D03*
X52750000Y-119780000D03*
%TD*%
D15*
%TO.C,J30*%
X97200000Y-128000000D03*
D16*
X97200000Y-130540000D03*
X97200000Y-133080000D03*
X97200000Y-135620000D03*
X97200000Y-138160000D03*
X97200000Y-140700000D03*
X97200000Y-143240000D03*
X97200000Y-145780000D03*
%TD*%
D15*
%TO.C,J20*%
X97200000Y-50000000D03*
D16*
X97200000Y-52540000D03*
X97200000Y-55080000D03*
X97200000Y-57620000D03*
X97200000Y-60160000D03*
X97200000Y-62700000D03*
X97200000Y-65240000D03*
X97200000Y-67780000D03*
%TD*%
D15*
%TO.C,J19*%
X52750000Y-50000000D03*
D16*
X52750000Y-52540000D03*
X52750000Y-55080000D03*
X52750000Y-57620000D03*
X52750000Y-60160000D03*
X52750000Y-62700000D03*
X52750000Y-65240000D03*
X52750000Y-67780000D03*
%TD*%
M02*
