%TF.GenerationSoftware,KiCad,Pcbnew,10.0.1*%
%TF.CreationDate,2026-06-25T20:54:44+02:00*%
%TF.ProjectId,DMH_Slew_Mk2_PCB_Controls,444d485f-536c-4657-975f-4d6b325f5043,1*%
%TF.SameCoordinates,Original*%
%TF.FileFunction,Legend,Bot*%
%TF.FilePolarity,Positive*%
%FSLAX46Y46*%
G04 Gerber Fmt 4.6, Leading zero omitted, Abs format (unit mm)*
G04 Created by KiCad (PCBNEW 10.0.1) date 2026-06-25 20:54:44*
%MOMM*%
%LPD*%
G01*
G04 APERTURE LIST*
%ADD10C,0.100000*%
%ADD11C,0.250000*%
%ADD12C,0.150000*%
%ADD13C,0.120000*%
%ADD14C,2.800000*%
%ADD15R,1.800000X1.800000*%
%ADD16C,1.800000*%
%ADD17C,1.600000*%
%ADD18O,2.720000X3.240000*%
%ADD19R,1.700000X1.700000*%
%ADD20C,1.700000*%
G04 APERTURE END LIST*
D10*
X77500000Y-145900000D02*
X87500000Y-145900000D01*
X87500000Y-147900000D01*
X77500000Y-147900000D01*
X77500000Y-145900000D01*
G36*
X77500000Y-145900000D02*
G01*
X87500000Y-145900000D01*
X87500000Y-147900000D01*
X77500000Y-147900000D01*
X77500000Y-145900000D01*
G37*
D11*
X89535714Y-149849619D02*
X89535714Y-148849619D01*
X89535714Y-148849619D02*
X89202381Y-149563904D01*
X89202381Y-149563904D02*
X88869048Y-148849619D01*
X88869048Y-148849619D02*
X88869048Y-149849619D01*
X88392857Y-149849619D02*
X88392857Y-148849619D01*
X88297619Y-149468666D02*
X88011905Y-149849619D01*
X88011905Y-149182952D02*
X88392857Y-149563904D01*
X87630952Y-148944857D02*
X87583333Y-148897238D01*
X87583333Y-148897238D02*
X87488095Y-148849619D01*
X87488095Y-148849619D02*
X87250000Y-148849619D01*
X87250000Y-148849619D02*
X87154762Y-148897238D01*
X87154762Y-148897238D02*
X87107143Y-148944857D01*
X87107143Y-148944857D02*
X87059524Y-149040095D01*
X87059524Y-149040095D02*
X87059524Y-149135333D01*
X87059524Y-149135333D02*
X87107143Y-149278190D01*
X87107143Y-149278190D02*
X87678571Y-149849619D01*
X87678571Y-149849619D02*
X87059524Y-149849619D01*
X86630952Y-149754380D02*
X86583333Y-149802000D01*
X86583333Y-149802000D02*
X86630952Y-149849619D01*
X86630952Y-149849619D02*
X86678571Y-149802000D01*
X86678571Y-149802000D02*
X86630952Y-149754380D01*
X86630952Y-149754380D02*
X86630952Y-149849619D01*
X85964286Y-148849619D02*
X85869048Y-148849619D01*
X85869048Y-148849619D02*
X85773810Y-148897238D01*
X85773810Y-148897238D02*
X85726191Y-148944857D01*
X85726191Y-148944857D02*
X85678572Y-149040095D01*
X85678572Y-149040095D02*
X85630953Y-149230571D01*
X85630953Y-149230571D02*
X85630953Y-149468666D01*
X85630953Y-149468666D02*
X85678572Y-149659142D01*
X85678572Y-149659142D02*
X85726191Y-149754380D01*
X85726191Y-149754380D02*
X85773810Y-149802000D01*
X85773810Y-149802000D02*
X85869048Y-149849619D01*
X85869048Y-149849619D02*
X85964286Y-149849619D01*
X85964286Y-149849619D02*
X86059524Y-149802000D01*
X86059524Y-149802000D02*
X86107143Y-149754380D01*
X86107143Y-149754380D02*
X86154762Y-149659142D01*
X86154762Y-149659142D02*
X86202381Y-149468666D01*
X86202381Y-149468666D02*
X86202381Y-149230571D01*
X86202381Y-149230571D02*
X86154762Y-149040095D01*
X86154762Y-149040095D02*
X86107143Y-148944857D01*
X86107143Y-148944857D02*
X86059524Y-148897238D01*
X86059524Y-148897238D02*
X85964286Y-148849619D01*
X84440476Y-149468666D02*
X83678572Y-149468666D01*
X82488095Y-149563904D02*
X82011905Y-149563904D01*
X82583333Y-149849619D02*
X82250000Y-148849619D01*
X82250000Y-148849619D02*
X81916667Y-149849619D01*
X81583333Y-149182952D02*
X81583333Y-150182952D01*
X81583333Y-149230571D02*
X81488095Y-149182952D01*
X81488095Y-149182952D02*
X81297619Y-149182952D01*
X81297619Y-149182952D02*
X81202381Y-149230571D01*
X81202381Y-149230571D02*
X81154762Y-149278190D01*
X81154762Y-149278190D02*
X81107143Y-149373428D01*
X81107143Y-149373428D02*
X81107143Y-149659142D01*
X81107143Y-149659142D02*
X81154762Y-149754380D01*
X81154762Y-149754380D02*
X81202381Y-149802000D01*
X81202381Y-149802000D02*
X81297619Y-149849619D01*
X81297619Y-149849619D02*
X81488095Y-149849619D01*
X81488095Y-149849619D02*
X81583333Y-149802000D01*
X80678571Y-149849619D02*
X80678571Y-149182952D01*
X80678571Y-149373428D02*
X80630952Y-149278190D01*
X80630952Y-149278190D02*
X80583333Y-149230571D01*
X80583333Y-149230571D02*
X80488095Y-149182952D01*
X80488095Y-149182952D02*
X80392857Y-149182952D01*
X80059523Y-149849619D02*
X80059523Y-149182952D01*
X80059523Y-148849619D02*
X80107142Y-148897238D01*
X80107142Y-148897238D02*
X80059523Y-148944857D01*
X80059523Y-148944857D02*
X80011904Y-148897238D01*
X80011904Y-148897238D02*
X80059523Y-148849619D01*
X80059523Y-148849619D02*
X80059523Y-148944857D01*
X79440476Y-149849619D02*
X79535714Y-149802000D01*
X79535714Y-149802000D02*
X79583333Y-149706761D01*
X79583333Y-149706761D02*
X79583333Y-148849619D01*
X78345237Y-148944857D02*
X78297618Y-148897238D01*
X78297618Y-148897238D02*
X78202380Y-148849619D01*
X78202380Y-148849619D02*
X77964285Y-148849619D01*
X77964285Y-148849619D02*
X77869047Y-148897238D01*
X77869047Y-148897238D02*
X77821428Y-148944857D01*
X77821428Y-148944857D02*
X77773809Y-149040095D01*
X77773809Y-149040095D02*
X77773809Y-149135333D01*
X77773809Y-149135333D02*
X77821428Y-149278190D01*
X77821428Y-149278190D02*
X78392856Y-149849619D01*
X78392856Y-149849619D02*
X77773809Y-149849619D01*
X77154761Y-148849619D02*
X77059523Y-148849619D01*
X77059523Y-148849619D02*
X76964285Y-148897238D01*
X76964285Y-148897238D02*
X76916666Y-148944857D01*
X76916666Y-148944857D02*
X76869047Y-149040095D01*
X76869047Y-149040095D02*
X76821428Y-149230571D01*
X76821428Y-149230571D02*
X76821428Y-149468666D01*
X76821428Y-149468666D02*
X76869047Y-149659142D01*
X76869047Y-149659142D02*
X76916666Y-149754380D01*
X76916666Y-149754380D02*
X76964285Y-149802000D01*
X76964285Y-149802000D02*
X77059523Y-149849619D01*
X77059523Y-149849619D02*
X77154761Y-149849619D01*
X77154761Y-149849619D02*
X77249999Y-149802000D01*
X77249999Y-149802000D02*
X77297618Y-149754380D01*
X77297618Y-149754380D02*
X77345237Y-149659142D01*
X77345237Y-149659142D02*
X77392856Y-149468666D01*
X77392856Y-149468666D02*
X77392856Y-149230571D01*
X77392856Y-149230571D02*
X77345237Y-149040095D01*
X77345237Y-149040095D02*
X77297618Y-148944857D01*
X77297618Y-148944857D02*
X77249999Y-148897238D01*
X77249999Y-148897238D02*
X77154761Y-148849619D01*
X76440475Y-148944857D02*
X76392856Y-148897238D01*
X76392856Y-148897238D02*
X76297618Y-148849619D01*
X76297618Y-148849619D02*
X76059523Y-148849619D01*
X76059523Y-148849619D02*
X75964285Y-148897238D01*
X75964285Y-148897238D02*
X75916666Y-148944857D01*
X75916666Y-148944857D02*
X75869047Y-149040095D01*
X75869047Y-149040095D02*
X75869047Y-149135333D01*
X75869047Y-149135333D02*
X75916666Y-149278190D01*
X75916666Y-149278190D02*
X76488094Y-149849619D01*
X76488094Y-149849619D02*
X75869047Y-149849619D01*
X75011904Y-148849619D02*
X75202380Y-148849619D01*
X75202380Y-148849619D02*
X75297618Y-148897238D01*
X75297618Y-148897238D02*
X75345237Y-148944857D01*
X75345237Y-148944857D02*
X75440475Y-149087714D01*
X75440475Y-149087714D02*
X75488094Y-149278190D01*
X75488094Y-149278190D02*
X75488094Y-149659142D01*
X75488094Y-149659142D02*
X75440475Y-149754380D01*
X75440475Y-149754380D02*
X75392856Y-149802000D01*
X75392856Y-149802000D02*
X75297618Y-149849619D01*
X75297618Y-149849619D02*
X75107142Y-149849619D01*
X75107142Y-149849619D02*
X75011904Y-149802000D01*
X75011904Y-149802000D02*
X74964285Y-149754380D01*
X74964285Y-149754380D02*
X74916666Y-149659142D01*
X74916666Y-149659142D02*
X74916666Y-149421047D01*
X74916666Y-149421047D02*
X74964285Y-149325809D01*
X74964285Y-149325809D02*
X75011904Y-149278190D01*
X75011904Y-149278190D02*
X75107142Y-149230571D01*
X75107142Y-149230571D02*
X75297618Y-149230571D01*
X75297618Y-149230571D02*
X75392856Y-149278190D01*
X75392856Y-149278190D02*
X75440475Y-149325809D01*
X75440475Y-149325809D02*
X75488094Y-149421047D01*
D12*
X53559523Y-98684819D02*
X53559523Y-99399104D01*
X53559523Y-99399104D02*
X53607142Y-99541961D01*
X53607142Y-99541961D02*
X53702380Y-99637200D01*
X53702380Y-99637200D02*
X53845237Y-99684819D01*
X53845237Y-99684819D02*
X53940475Y-99684819D01*
X53130951Y-98780057D02*
X53083332Y-98732438D01*
X53083332Y-98732438D02*
X52988094Y-98684819D01*
X52988094Y-98684819D02*
X52749999Y-98684819D01*
X52749999Y-98684819D02*
X52654761Y-98732438D01*
X52654761Y-98732438D02*
X52607142Y-98780057D01*
X52607142Y-98780057D02*
X52559523Y-98875295D01*
X52559523Y-98875295D02*
X52559523Y-98970533D01*
X52559523Y-98970533D02*
X52607142Y-99113390D01*
X52607142Y-99113390D02*
X53178570Y-99684819D01*
X53178570Y-99684819D02*
X52559523Y-99684819D01*
X52083332Y-99684819D02*
X51892856Y-99684819D01*
X51892856Y-99684819D02*
X51797618Y-99637200D01*
X51797618Y-99637200D02*
X51749999Y-99589580D01*
X51749999Y-99589580D02*
X51654761Y-99446723D01*
X51654761Y-99446723D02*
X51607142Y-99256247D01*
X51607142Y-99256247D02*
X51607142Y-98875295D01*
X51607142Y-98875295D02*
X51654761Y-98780057D01*
X51654761Y-98780057D02*
X51702380Y-98732438D01*
X51702380Y-98732438D02*
X51797618Y-98684819D01*
X51797618Y-98684819D02*
X51988094Y-98684819D01*
X51988094Y-98684819D02*
X52083332Y-98732438D01*
X52083332Y-98732438D02*
X52130951Y-98780057D01*
X52130951Y-98780057D02*
X52178570Y-98875295D01*
X52178570Y-98875295D02*
X52178570Y-99113390D01*
X52178570Y-99113390D02*
X52130951Y-99208628D01*
X52130951Y-99208628D02*
X52083332Y-99256247D01*
X52083332Y-99256247D02*
X51988094Y-99303866D01*
X51988094Y-99303866D02*
X51797618Y-99303866D01*
X51797618Y-99303866D02*
X51702380Y-99256247D01*
X51702380Y-99256247D02*
X51654761Y-99208628D01*
X51654761Y-99208628D02*
X51607142Y-99113390D01*
X98009523Y-124684819D02*
X98009523Y-125399104D01*
X98009523Y-125399104D02*
X98057142Y-125541961D01*
X98057142Y-125541961D02*
X98152380Y-125637200D01*
X98152380Y-125637200D02*
X98295237Y-125684819D01*
X98295237Y-125684819D02*
X98390475Y-125684819D01*
X97628570Y-124684819D02*
X97009523Y-124684819D01*
X97009523Y-124684819D02*
X97342856Y-125065771D01*
X97342856Y-125065771D02*
X97199999Y-125065771D01*
X97199999Y-125065771D02*
X97104761Y-125113390D01*
X97104761Y-125113390D02*
X97057142Y-125161009D01*
X97057142Y-125161009D02*
X97009523Y-125256247D01*
X97009523Y-125256247D02*
X97009523Y-125494342D01*
X97009523Y-125494342D02*
X97057142Y-125589580D01*
X97057142Y-125589580D02*
X97104761Y-125637200D01*
X97104761Y-125637200D02*
X97199999Y-125684819D01*
X97199999Y-125684819D02*
X97485713Y-125684819D01*
X97485713Y-125684819D02*
X97580951Y-125637200D01*
X97580951Y-125637200D02*
X97628570Y-125589580D01*
X96390475Y-124684819D02*
X96295237Y-124684819D01*
X96295237Y-124684819D02*
X96199999Y-124732438D01*
X96199999Y-124732438D02*
X96152380Y-124780057D01*
X96152380Y-124780057D02*
X96104761Y-124875295D01*
X96104761Y-124875295D02*
X96057142Y-125065771D01*
X96057142Y-125065771D02*
X96057142Y-125303866D01*
X96057142Y-125303866D02*
X96104761Y-125494342D01*
X96104761Y-125494342D02*
X96152380Y-125589580D01*
X96152380Y-125589580D02*
X96199999Y-125637200D01*
X96199999Y-125637200D02*
X96295237Y-125684819D01*
X96295237Y-125684819D02*
X96390475Y-125684819D01*
X96390475Y-125684819D02*
X96485713Y-125637200D01*
X96485713Y-125637200D02*
X96533332Y-125589580D01*
X96533332Y-125589580D02*
X96580951Y-125494342D01*
X96580951Y-125494342D02*
X96628570Y-125303866D01*
X96628570Y-125303866D02*
X96628570Y-125065771D01*
X96628570Y-125065771D02*
X96580951Y-124875295D01*
X96580951Y-124875295D02*
X96533332Y-124780057D01*
X96533332Y-124780057D02*
X96485713Y-124732438D01*
X96485713Y-124732438D02*
X96390475Y-124684819D01*
X98009523Y-46684819D02*
X98009523Y-47399104D01*
X98009523Y-47399104D02*
X98057142Y-47541961D01*
X98057142Y-47541961D02*
X98152380Y-47637200D01*
X98152380Y-47637200D02*
X98295237Y-47684819D01*
X98295237Y-47684819D02*
X98390475Y-47684819D01*
X97580951Y-46780057D02*
X97533332Y-46732438D01*
X97533332Y-46732438D02*
X97438094Y-46684819D01*
X97438094Y-46684819D02*
X97199999Y-46684819D01*
X97199999Y-46684819D02*
X97104761Y-46732438D01*
X97104761Y-46732438D02*
X97057142Y-46780057D01*
X97057142Y-46780057D02*
X97009523Y-46875295D01*
X97009523Y-46875295D02*
X97009523Y-46970533D01*
X97009523Y-46970533D02*
X97057142Y-47113390D01*
X97057142Y-47113390D02*
X97628570Y-47684819D01*
X97628570Y-47684819D02*
X97009523Y-47684819D01*
X96390475Y-46684819D02*
X96295237Y-46684819D01*
X96295237Y-46684819D02*
X96199999Y-46732438D01*
X96199999Y-46732438D02*
X96152380Y-46780057D01*
X96152380Y-46780057D02*
X96104761Y-46875295D01*
X96104761Y-46875295D02*
X96057142Y-47065771D01*
X96057142Y-47065771D02*
X96057142Y-47303866D01*
X96057142Y-47303866D02*
X96104761Y-47494342D01*
X96104761Y-47494342D02*
X96152380Y-47589580D01*
X96152380Y-47589580D02*
X96199999Y-47637200D01*
X96199999Y-47637200D02*
X96295237Y-47684819D01*
X96295237Y-47684819D02*
X96390475Y-47684819D01*
X96390475Y-47684819D02*
X96485713Y-47637200D01*
X96485713Y-47637200D02*
X96533332Y-47589580D01*
X96533332Y-47589580D02*
X96580951Y-47494342D01*
X96580951Y-47494342D02*
X96628570Y-47303866D01*
X96628570Y-47303866D02*
X96628570Y-47065771D01*
X96628570Y-47065771D02*
X96580951Y-46875295D01*
X96580951Y-46875295D02*
X96533332Y-46780057D01*
X96533332Y-46780057D02*
X96485713Y-46732438D01*
X96485713Y-46732438D02*
X96390475Y-46684819D01*
X53584523Y-46754819D02*
X53584523Y-47469104D01*
X53584523Y-47469104D02*
X53632142Y-47611961D01*
X53632142Y-47611961D02*
X53727380Y-47707200D01*
X53727380Y-47707200D02*
X53870237Y-47754819D01*
X53870237Y-47754819D02*
X53965475Y-47754819D01*
X52584523Y-47754819D02*
X53155951Y-47754819D01*
X52870237Y-47754819D02*
X52870237Y-46754819D01*
X52870237Y-46754819D02*
X52965475Y-46897676D01*
X52965475Y-46897676D02*
X53060713Y-46992914D01*
X53060713Y-46992914D02*
X53155951Y-47040533D01*
X52108332Y-47754819D02*
X51917856Y-47754819D01*
X51917856Y-47754819D02*
X51822618Y-47707200D01*
X51822618Y-47707200D02*
X51774999Y-47659580D01*
X51774999Y-47659580D02*
X51679761Y-47516723D01*
X51679761Y-47516723D02*
X51632142Y-47326247D01*
X51632142Y-47326247D02*
X51632142Y-46945295D01*
X51632142Y-46945295D02*
X51679761Y-46850057D01*
X51679761Y-46850057D02*
X51727380Y-46802438D01*
X51727380Y-46802438D02*
X51822618Y-46754819D01*
X51822618Y-46754819D02*
X52013094Y-46754819D01*
X52013094Y-46754819D02*
X52108332Y-46802438D01*
X52108332Y-46802438D02*
X52155951Y-46850057D01*
X52155951Y-46850057D02*
X52203570Y-46945295D01*
X52203570Y-46945295D02*
X52203570Y-47183390D01*
X52203570Y-47183390D02*
X52155951Y-47278628D01*
X52155951Y-47278628D02*
X52108332Y-47326247D01*
X52108332Y-47326247D02*
X52013094Y-47373866D01*
X52013094Y-47373866D02*
X51822618Y-47373866D01*
X51822618Y-47373866D02*
X51727380Y-47326247D01*
X51727380Y-47326247D02*
X51679761Y-47278628D01*
X51679761Y-47278628D02*
X51632142Y-47183390D01*
%TO.C,J29*%
D13*
X51420000Y-100670000D02*
X51420000Y-102000000D01*
X51420000Y-103270000D02*
X51420000Y-121110000D01*
X52750000Y-100670000D02*
X51420000Y-100670000D01*
X54080000Y-103270000D02*
X51420000Y-103270000D01*
X54080000Y-103270000D02*
X54080000Y-121110000D01*
X54080000Y-121110000D02*
X51420000Y-121110000D01*
%TO.C,J30*%
X95870000Y-126670000D02*
X95870000Y-128000000D01*
X95870000Y-129270000D02*
X95870000Y-147110000D01*
X97200000Y-126670000D02*
X95870000Y-126670000D01*
X98530000Y-129270000D02*
X95870000Y-129270000D01*
X98530000Y-129270000D02*
X98530000Y-147110000D01*
X98530000Y-147110000D02*
X95870000Y-147110000D01*
%TO.C,J20*%
X95870000Y-48670000D02*
X95870000Y-50000000D01*
X95870000Y-51270000D02*
X95870000Y-69110000D01*
X97200000Y-48670000D02*
X95870000Y-48670000D01*
X98530000Y-51270000D02*
X95870000Y-51270000D01*
X98530000Y-51270000D02*
X98530000Y-69110000D01*
X98530000Y-69110000D02*
X95870000Y-69110000D01*
%TO.C,J19*%
X51420000Y-48670000D02*
X51420000Y-50000000D01*
X51420000Y-51270000D02*
X51420000Y-69110000D01*
X52750000Y-48670000D02*
X51420000Y-48670000D01*
X54080000Y-51270000D02*
X51420000Y-51270000D01*
X54080000Y-51270000D02*
X54080000Y-69110000D01*
X54080000Y-69110000D02*
X51420000Y-69110000D01*
%TD*%
%LPC*%
D14*
%TO.C,SW6*%
X58500000Y-139700000D03*
X58500000Y-135000000D03*
X58500000Y-130300000D03*
%TD*%
D15*
%TO.C,D9*%
X67730000Y-135000000D03*
D16*
X70270000Y-135000000D03*
%TD*%
D14*
%TO.C,SW4*%
X56087000Y-180450000D03*
X56087000Y-175750000D03*
X56087000Y-171050000D03*
X60913000Y-180450000D03*
X60913000Y-175750000D03*
X60913000Y-171050000D03*
%TD*%
%TO.C,SW2*%
X89087000Y-87950000D03*
X89087000Y-83250000D03*
X89087000Y-78550000D03*
X93913000Y-87950000D03*
X93913000Y-83250000D03*
X93913000Y-78550000D03*
%TD*%
D17*
%TO.C,R53*%
X62190000Y-102300000D03*
X69810000Y-102300000D03*
%TD*%
%TO.C,R41*%
X80190000Y-128300000D03*
X87810000Y-128300000D03*
%TD*%
%TO.C,R3*%
X71190000Y-54250000D03*
X78810000Y-54250000D03*
%TD*%
D18*
%TO.C,RV4*%
X61200000Y-109000000D03*
X70800000Y-109000000D03*
D15*
X63500000Y-116500000D03*
D16*
X66000000Y-116500000D03*
X68500000Y-116500000D03*
%TD*%
D15*
%TO.C,D5*%
X69730000Y-86000000D03*
D16*
X72270000Y-86000000D03*
%TD*%
D15*
%TO.C,D6*%
X77730000Y-86000000D03*
D16*
X80270000Y-86000000D03*
%TD*%
D14*
%TO.C,SW1*%
X56087000Y-163950000D03*
X56087000Y-159250000D03*
X56087000Y-154550000D03*
X60913000Y-163950000D03*
X60913000Y-159250000D03*
X60913000Y-154550000D03*
%TD*%
D18*
%TO.C,RV1*%
X70250000Y-61000000D03*
X79750000Y-61000000D03*
D15*
X72500000Y-68500000D03*
D16*
X75000000Y-68500000D03*
X77500000Y-68500000D03*
X72500000Y-71000000D03*
X75000000Y-71000000D03*
X77500000Y-71000000D03*
%TD*%
D18*
%TO.C,RV3*%
X79200000Y-135000000D03*
X88800000Y-135000000D03*
D15*
X81500000Y-142500000D03*
D16*
X84000000Y-142500000D03*
X86500000Y-142500000D03*
%TD*%
D14*
%TO.C,SW3*%
X58500000Y-87950000D03*
X58500000Y-83250000D03*
X58500000Y-78550000D03*
%TD*%
D17*
%TO.C,R4*%
X71190000Y-49250000D03*
X78810000Y-49250000D03*
%TD*%
D14*
%TO.C,SW5*%
X89087000Y-113700000D03*
X89087000Y-109000000D03*
X89087000Y-104300000D03*
X93913000Y-113700000D03*
X93913000Y-109000000D03*
X93913000Y-104300000D03*
%TD*%
D15*
%TO.C,D10*%
X79730000Y-109000000D03*
D16*
X82270000Y-109000000D03*
%TD*%
D19*
%TO.C,J29*%
X52750000Y-102000000D03*
D20*
X52750000Y-104540000D03*
X52750000Y-107080000D03*
X52750000Y-109620000D03*
X52750000Y-112160000D03*
X52750000Y-114700000D03*
X52750000Y-117240000D03*
X52750000Y-119780000D03*
%TD*%
D19*
%TO.C,J30*%
X97200000Y-128000000D03*
D20*
X97200000Y-130540000D03*
X97200000Y-133080000D03*
X97200000Y-135620000D03*
X97200000Y-138160000D03*
X97200000Y-140700000D03*
X97200000Y-143240000D03*
X97200000Y-145780000D03*
%TD*%
D19*
%TO.C,J20*%
X97200000Y-50000000D03*
D20*
X97200000Y-52540000D03*
X97200000Y-55080000D03*
X97200000Y-57620000D03*
X97200000Y-60160000D03*
X97200000Y-62700000D03*
X97200000Y-65240000D03*
X97200000Y-67780000D03*
%TD*%
D19*
%TO.C,J19*%
X52750000Y-50000000D03*
D20*
X52750000Y-52540000D03*
X52750000Y-55080000D03*
X52750000Y-57620000D03*
X52750000Y-60160000D03*
X52750000Y-62700000D03*
X52750000Y-65240000D03*
X52750000Y-67780000D03*
%TD*%
%LPD*%
M02*
