%TF.GenerationSoftware,KiCad,Pcbnew,10.0.1*%
%TF.CreationDate,2026-07-10T21:31:30+02:00*%
%TF.ProjectId,DMH_Slew_Mk2_PCB_Controls,444d485f-536c-4657-975f-4d6b325f5043,1*%
%TF.SameCoordinates,Original*%
%TF.FileFunction,Copper,L1,Top*%
%TF.FilePolarity,Positive*%
%FSLAX46Y46*%
G04 Gerber Fmt 4.6, Leading zero omitted, Abs format (unit mm)*
G04 Created by KiCad (PCBNEW 10.0.1) date 2026-07-10 21:31:30*
%MOMM*%
%LPD*%
G01*
G04 APERTURE LIST*
%TA.AperFunction,ComponentPad*%
%ADD10C,2.800000*%
%TD*%
%TA.AperFunction,ComponentPad*%
%ADD11R,1.800000X1.800000*%
%TD*%
%TA.AperFunction,ComponentPad*%
%ADD12C,1.800000*%
%TD*%
%TA.AperFunction,ComponentPad*%
%ADD13C,1.600000*%
%TD*%
%TA.AperFunction,ComponentPad*%
%ADD14O,2.720000X3.240000*%
%TD*%
%TA.AperFunction,ComponentPad*%
%ADD15R,1.700000X1.700000*%
%TD*%
%TA.AperFunction,ComponentPad*%
%ADD16C,1.700000*%
%TD*%
%TA.AperFunction,Conductor*%
%ADD17C,0.200000*%
%TD*%
%TA.AperFunction,Conductor*%
%ADD18C,1.000000*%
%TD*%
G04 APERTURE END LIST*
D10*
%TO.P,SW1,6,C_6*%
%TO.N,+10V*%
X93913000Y-154550000D03*
%TO.P,SW1,5,B_5*%
%TO.N,Net-(R3-Pad2)*%
X93913000Y-159250000D03*
%TO.P,SW1,4,A_4*%
%TO.N,A_CV_Buff_C*%
X93913000Y-163950000D03*
%TO.P,SW1,3,C_3*%
X89087000Y-154550000D03*
%TO.P,SW1,2,B_2*%
%TO.N,Net-(R4-Pad2)*%
X89087000Y-159250000D03*
%TO.P,SW1,1,A_1*%
%TO.N,+10V*%
X89087000Y-163950000D03*
%TD*%
%TO.P,SW4,6,C_6*%
%TO.N,+10V*%
X93913000Y-171050000D03*
%TO.P,SW4,5,B_5*%
%TO.N,Net-(R41-Pad2)*%
X93913000Y-175750000D03*
%TO.P,SW4,4,A_4*%
%TO.N,B_CV_Buff_C*%
X93913000Y-180450000D03*
%TO.P,SW4,3,C_3*%
X89087000Y-171050000D03*
%TO.P,SW4,2,B_2*%
%TO.N,Net-(R53-Pad2)*%
X89087000Y-175750000D03*
%TO.P,SW4,1,A_1*%
%TO.N,+10V*%
X89087000Y-180450000D03*
%TD*%
%TO.P,SW6,1,A_1*%
%TO.N,B_Rng_Sw_p1_C*%
X58500000Y-139700000D03*
%TO.P,SW6,2,B_2*%
%TO.N,B_Out_Jack_C*%
X58500000Y-135000000D03*
%TO.P,SW6,3,C_3*%
%TO.N,B_Rng_Sw_p3_C*%
X58500000Y-130300000D03*
%TD*%
D11*
%TO.P,D9,1,K_1*%
%TO.N,GND*%
X67730000Y-135000000D03*
D12*
%TO.P,D9,2,A_2*%
%TO.N,B_F_LED_C*%
X70270000Y-135000000D03*
%TD*%
D10*
%TO.P,SW2,1,A_1*%
%TO.N,A_Diff_Amp_C*%
X89087000Y-87950000D03*
%TO.P,SW2,2,B_2*%
%TO.N,A_LinLog_Sw_p2_C*%
X89087000Y-83250000D03*
%TO.P,SW2,3,C_3*%
%TO.N,GND*%
X89087000Y-78550000D03*
%TO.P,SW2,4,A_4*%
%TO.N,+10V*%
X93913000Y-87950000D03*
%TO.P,SW2,5,B_5*%
%TO.N,A_LinLog_Sw_p5_C*%
X93913000Y-83250000D03*
%TO.P,SW2,6,C_6*%
%TO.N,GND*%
X93913000Y-78550000D03*
%TD*%
D13*
%TO.P,R53,1*%
%TO.N,B_Rise_CV_C*%
X62190000Y-102300000D03*
%TO.P,R53,2*%
%TO.N,Net-(R53-Pad2)*%
X69810000Y-102300000D03*
%TD*%
%TO.P,R41,1*%
%TO.N,B_Fall_CV_C*%
X80190000Y-128300000D03*
%TO.P,R41,2*%
%TO.N,Net-(R41-Pad2)*%
X87810000Y-128300000D03*
%TD*%
%TO.P,R3,1*%
%TO.N,A_Fall_CV_C*%
X71190000Y-54250000D03*
%TO.P,R3,2*%
%TO.N,Net-(R3-Pad2)*%
X78810000Y-54250000D03*
%TD*%
D14*
%TO.P,RV4,*%
%TO.N,*%
X61200000Y-109000000D03*
X70800000Y-109000000D03*
D11*
%TO.P,RV4,1,1_1*%
%TO.N,GND*%
X63500000Y-116500000D03*
D12*
%TO.P,RV4,2,2_2*%
%TO.N,B_Rise_CV_C*%
X66000000Y-116500000D03*
%TO.P,RV4,3,3_3*%
%TO.N,Net-(R53-Pad2)*%
X68500000Y-116500000D03*
%TD*%
D11*
%TO.P,D5,1,K_1*%
%TO.N,GND*%
X69730000Y-86000000D03*
D12*
%TO.P,D5,2,A_2*%
%TO.N,A_F_LED_C*%
X72270000Y-86000000D03*
%TD*%
D11*
%TO.P,D6,1,K_1*%
%TO.N,GND*%
X77730000Y-86000000D03*
D12*
%TO.P,D6,2,A_2*%
%TO.N,A_R_LED_C*%
X80270000Y-86000000D03*
%TD*%
D14*
%TO.P,RV1,*%
%TO.N,*%
X70250000Y-61000000D03*
X79750000Y-61000000D03*
D11*
%TO.P,RV1,1,1_1*%
%TO.N,GND*%
X72500000Y-68500000D03*
D12*
%TO.P,RV1,2,2_2*%
%TO.N,A_Rise_CV_C*%
X75000000Y-68500000D03*
%TO.P,RV1,3,3_3*%
%TO.N,Net-(R4-Pad2)*%
X77500000Y-68500000D03*
%TO.P,RV1,4,4_4*%
%TO.N,GND*%
X72500000Y-71000000D03*
%TO.P,RV1,5,5_5*%
%TO.N,A_Fall_CV_C*%
X75000000Y-71000000D03*
%TO.P,RV1,6,6_6*%
%TO.N,Net-(R3-Pad2)*%
X77500000Y-71000000D03*
%TD*%
D14*
%TO.P,RV3,*%
%TO.N,*%
X79200000Y-135000000D03*
X88800000Y-135000000D03*
D11*
%TO.P,RV3,1,1_1*%
%TO.N,GND*%
X81500000Y-142500000D03*
D12*
%TO.P,RV3,2,2_2*%
%TO.N,B_Fall_CV_C*%
X84000000Y-142500000D03*
%TO.P,RV3,3,3_3*%
%TO.N,Net-(R41-Pad2)*%
X86500000Y-142500000D03*
%TD*%
D10*
%TO.P,SW3,1,A_1*%
%TO.N,A_Rng_Sw_p1_C*%
X58500000Y-87950000D03*
%TO.P,SW3,2,B_2*%
%TO.N,A_Out_Jack_C*%
X58500000Y-83250000D03*
%TO.P,SW3,3,C_3*%
%TO.N,A_Rng_Sw_p3_C*%
X58500000Y-78550000D03*
%TD*%
D13*
%TO.P,R4,1*%
%TO.N,A_Rise_CV_C*%
X71190000Y-49250000D03*
%TO.P,R4,2*%
%TO.N,Net-(R4-Pad2)*%
X78810000Y-49250000D03*
%TD*%
D10*
%TO.P,SW5,1,A_1*%
%TO.N,B_Diff_Amp_C*%
X89087000Y-113700000D03*
%TO.P,SW5,2,B_2*%
%TO.N,B_LinLog_Sw_p2_C*%
X89087000Y-109000000D03*
%TO.P,SW5,3,C_3*%
%TO.N,GND*%
X89087000Y-104300000D03*
%TO.P,SW5,4,A_4*%
%TO.N,+10V*%
X93913000Y-113700000D03*
%TO.P,SW5,5,B_5*%
%TO.N,B_LinLog_Sw_p5_C*%
X93913000Y-109000000D03*
%TO.P,SW5,6,C_6*%
%TO.N,GND*%
X93913000Y-104300000D03*
%TD*%
D11*
%TO.P,D10,1,K_1*%
%TO.N,GND*%
X79730000Y-109000000D03*
D12*
%TO.P,D10,2,A_2*%
%TO.N,B_R_LED_C*%
X82270000Y-109000000D03*
%TD*%
D15*
%TO.P,J29,1,Pin_1_1*%
%TO.N,GND*%
X52750000Y-102000000D03*
D16*
%TO.P,J29,2,Pin_2_2*%
%TO.N,B_Diff_Amp_C*%
X52750000Y-104540000D03*
%TO.P,J29,3,Pin_3_3*%
%TO.N,B_Rise_CV_C*%
X52750000Y-107080000D03*
%TO.P,J29,4,Pin_4_4*%
%TO.N,B_Fall_CV_C*%
X52750000Y-109620000D03*
%TO.P,J29,5,Pin_5_5*%
%TO.N,+10V*%
X52750000Y-112160000D03*
%TO.P,J29,6,Pin_6_6*%
%TO.N,B_CV_Buff_C*%
X52750000Y-114700000D03*
%TO.P,J29,7,Pin_7_7*%
%TO.N,GND*%
X52750000Y-117240000D03*
%TO.P,J29,8,Pin_8_8*%
X52750000Y-119780000D03*
%TD*%
D15*
%TO.P,J30,1,Pin_1_1*%
%TO.N,B_LinLog_Sw_p5_C*%
X97200000Y-128000000D03*
D16*
%TO.P,J30,2,Pin_2_2*%
%TO.N,B_LinLog_Sw_p2_C*%
X97200000Y-130540000D03*
%TO.P,J30,3,Pin_3_3*%
%TO.N,B_R_LED_C*%
X97200000Y-133080000D03*
%TO.P,J30,4,Pin_4_4*%
%TO.N,B_F_LED_C*%
X97200000Y-135620000D03*
%TO.P,J30,5,Pin_5_5*%
%TO.N,B_Rng_Sw_p3_C*%
X97200000Y-138160000D03*
%TO.P,J30,6,Pin_6_6*%
%TO.N,B_Out_Jack_C*%
X97200000Y-140700000D03*
%TO.P,J30,7,Pin_7_7*%
%TO.N,B_Rng_Sw_p1_C*%
X97200000Y-143240000D03*
%TO.P,J30,8,Pin_8_8*%
%TO.N,GND*%
X97200000Y-145780000D03*
%TD*%
D15*
%TO.P,J20,1,Pin_1_1*%
%TO.N,A_LinLog_Sw_p5_C*%
X97200000Y-50000000D03*
D16*
%TO.P,J20,2,Pin_2_2*%
%TO.N,A_LinLog_Sw_p2_C*%
X97200000Y-52540000D03*
%TO.P,J20,3,Pin_3_3*%
%TO.N,A_R_LED_C*%
X97200000Y-55080000D03*
%TO.P,J20,4,Pin_4_4*%
%TO.N,A_F_LED_C*%
X97200000Y-57620000D03*
%TO.P,J20,5,Pin_5_5*%
%TO.N,A_Rng_Sw_p3_C*%
X97200000Y-60160000D03*
%TO.P,J20,6,Pin_6_6*%
%TO.N,A_Out_Jack_C*%
X97200000Y-62700000D03*
%TO.P,J20,7,Pin_7_7*%
%TO.N,A_Rng_Sw_p1_C*%
X97200000Y-65240000D03*
%TO.P,J20,8,Pin_8_8*%
%TO.N,GND*%
X97200000Y-67780000D03*
%TD*%
D15*
%TO.P,J19,1,Pin_1_1*%
%TO.N,GND*%
X52750000Y-50000000D03*
D16*
%TO.P,J19,2,Pin_2_2*%
%TO.N,A_Diff_Amp_C*%
X52750000Y-52540000D03*
%TO.P,J19,3,Pin_3_3*%
%TO.N,A_Rise_CV_C*%
X52750000Y-55080000D03*
%TO.P,J19,4,Pin_4_4*%
%TO.N,A_Fall_CV_C*%
X52750000Y-57620000D03*
%TO.P,J19,5,Pin_5_5*%
%TO.N,+10V*%
X52750000Y-60160000D03*
%TO.P,J19,6,Pin_6_6*%
%TO.N,A_CV_Buff_C*%
X52750000Y-62700000D03*
%TO.P,J19,7,Pin_7_7*%
%TO.N,GND*%
X52750000Y-65240000D03*
%TO.P,J19,8,Pin_8_8*%
X52750000Y-67780000D03*
%TD*%
%TO.N,Net-(R3-Pad2)*%
D17*
X90900000Y-156237000D02*
X93913000Y-159250000D01*
X90900000Y-151800000D02*
X90900000Y-156237000D01*
X77300000Y-148300000D02*
X87400000Y-148300000D01*
X87400000Y-148300000D02*
X90900000Y-151800000D01*
X75700000Y-146700000D02*
X77300000Y-148300000D01*
X75700000Y-120800000D02*
X75700000Y-146700000D01*
X65501000Y-85064686D02*
X65501000Y-110601000D01*
X65501000Y-110601000D02*
X75700000Y-120800000D01*
X77500000Y-73065686D02*
X65501000Y-85064686D01*
X77500000Y-71000000D02*
X77500000Y-73065686D01*
%TO.N,B_CV_Buff_C*%
X85700000Y-167663000D02*
X89087000Y-171050000D01*
X85700000Y-150851472D02*
X85700000Y-167663000D01*
X84748528Y-149900000D02*
X85700000Y-150851472D01*
X76637260Y-149900000D02*
X84748528Y-149900000D01*
X74100000Y-147362744D02*
X76637260Y-149900000D01*
X74098000Y-146829372D02*
X74100000Y-146831371D01*
X74098000Y-146563686D02*
X74098000Y-146829372D01*
X74100000Y-146831371D02*
X74100000Y-147362744D01*
X74097000Y-145897000D02*
X74097000Y-146562686D01*
X74097000Y-146562686D02*
X74098000Y-146563686D01*
X74096000Y-136046000D02*
X74096000Y-145896000D01*
X52750000Y-114700000D02*
X74096000Y-136046000D01*
X74096000Y-145896000D02*
X74097000Y-145897000D01*
%TO.N,A_CV_Buff_C*%
X91463000Y-166400000D02*
X93913000Y-163950000D01*
X87800000Y-166400000D02*
X91463000Y-166400000D01*
X86100000Y-164700000D02*
X87800000Y-166400000D01*
X86100000Y-150685787D02*
X86100000Y-164700000D01*
X84914214Y-149500000D02*
X86100000Y-150685787D01*
X76802945Y-149500000D02*
X84914214Y-149500000D01*
X74500000Y-147197058D02*
X76802945Y-149500000D01*
X74500000Y-146665686D02*
X74500000Y-147197058D01*
X74498000Y-146663686D02*
X74500000Y-146665686D01*
X74497000Y-127997000D02*
X74497000Y-146397000D01*
X74498000Y-146398000D02*
X74498000Y-146663686D01*
X64701000Y-118201000D02*
X74497000Y-127997000D01*
X64701000Y-74651000D02*
X64701000Y-118201000D01*
X74497000Y-146397000D02*
X74498000Y-146398000D01*
X52750000Y-62700000D02*
X64701000Y-74651000D01*
%TO.N,Net-(R4-Pad2)*%
X86500000Y-156663000D02*
X89087000Y-159250000D01*
X86500000Y-150520102D02*
X86500000Y-156663000D01*
X85079900Y-149100000D02*
X86500000Y-150520102D01*
X76968630Y-149100000D02*
X85079900Y-149100000D01*
X74900000Y-147031372D02*
X76968630Y-149100000D01*
X74900000Y-146500000D02*
X74900000Y-147031372D01*
X74898000Y-146498000D02*
X74900000Y-146500000D01*
X67299000Y-118199000D02*
X74898000Y-125798000D01*
X76300000Y-73700000D02*
X65101000Y-84899000D01*
X76300000Y-69700000D02*
X76300000Y-73700000D01*
X67299000Y-114799000D02*
X67299000Y-118199000D01*
X65101000Y-84899000D02*
X65101000Y-112601000D01*
X65101000Y-112601000D02*
X67299000Y-114799000D01*
X74898000Y-125798000D02*
X74898000Y-146498000D01*
X77500000Y-68500000D02*
X76300000Y-69700000D01*
%TO.N,Net-(R53-Pad2)*%
X91500000Y-173337000D02*
X89087000Y-175750000D01*
X91500000Y-169800000D02*
X91500000Y-173337000D01*
X96300000Y-165000000D02*
X91500000Y-169800000D01*
X96300000Y-162400000D02*
X96300000Y-165000000D01*
X95500000Y-161600000D02*
X96300000Y-162400000D01*
X91500000Y-157900000D02*
X91500000Y-160400000D01*
X90500000Y-156900000D02*
X91500000Y-157900000D01*
X88000000Y-156900000D02*
X90500000Y-156900000D01*
X86900000Y-155800000D02*
X88000000Y-156900000D01*
X75300000Y-146200000D02*
X75300000Y-146865686D01*
X75300000Y-146865686D02*
X77134315Y-148700000D01*
X77134315Y-148700000D02*
X85245586Y-148700000D01*
X75299000Y-146199000D02*
X75300000Y-146200000D01*
X85245586Y-148700000D02*
X86900000Y-150354417D01*
X86900000Y-150354417D02*
X86900000Y-155800000D01*
X75299000Y-123299000D02*
X75299000Y-146199000D01*
X92700000Y-161600000D02*
X95500000Y-161600000D01*
X68500000Y-116500000D02*
X75299000Y-123299000D01*
X91500000Y-160400000D02*
X92700000Y-161600000D01*
%TO.N,B_CV_Buff_C*%
X86800000Y-182900000D02*
X91463000Y-182900000D01*
X85700000Y-181800000D02*
X86800000Y-182900000D01*
X85700000Y-174437000D02*
X85700000Y-181800000D01*
X89087000Y-171050000D02*
X85700000Y-174437000D01*
X91463000Y-182900000D02*
X93913000Y-180450000D01*
%TO.N,+10V*%
D18*
X93913000Y-154550000D02*
X93913000Y-113700000D01*
%TO.N,Net-(R41-Pad2)*%
D17*
X86500000Y-129610000D02*
X87810000Y-128300000D01*
X86500000Y-142500000D02*
X86500000Y-129610000D01*
%TO.N,A_LinLog_Sw_p2_C*%
X92728686Y-81500000D02*
X91300000Y-80071312D01*
X89087000Y-83250000D02*
X90787000Y-84950000D01*
X95613000Y-83954164D02*
X95613000Y-82545836D01*
X94567164Y-81500000D02*
X92728686Y-81500000D01*
X94617164Y-84950000D02*
X95613000Y-83954164D01*
X91300000Y-80071312D02*
X91300000Y-58440000D01*
X90787000Y-84950000D02*
X94617164Y-84950000D01*
X95613000Y-82545836D02*
X94567164Y-81500000D01*
X91300000Y-58440000D02*
X97200000Y-52540000D01*
%TO.N,A_LinLog_Sw_p5_C*%
X90900000Y-56300000D02*
X97200000Y-50000000D01*
X90900000Y-80236997D02*
X90900000Y-56300000D01*
X91100000Y-80437000D02*
X90900000Y-80236997D01*
X93913000Y-83250000D02*
X91100000Y-80437000D01*
%TO.N,B_Rise_CV_C*%
X57410000Y-107080000D02*
X62190000Y-102300000D01*
X52750000Y-107080000D02*
X57410000Y-107080000D01*
%TO.N,B_Fall_CV_C*%
X80190000Y-128300000D02*
X84000000Y-132110000D01*
X84000000Y-132110000D02*
X84000000Y-142500000D01*
%TO.N,A_Fall_CV_C*%
X56120000Y-54250000D02*
X71190000Y-54250000D01*
X52750000Y-57620000D02*
X56120000Y-54250000D01*
X73800000Y-69800000D02*
X73800000Y-56860000D01*
X73800000Y-56860000D02*
X71190000Y-54250000D01*
X75000000Y-71000000D02*
X73800000Y-69800000D01*
%TO.N,Net-(R3-Pad2)*%
X82500000Y-57940000D02*
X82500000Y-66000000D01*
X82500000Y-66000000D02*
X77500000Y-71000000D01*
X78810000Y-54250000D02*
X82500000Y-57940000D01*
%TO.N,A_F_LED_C*%
X92100000Y-62720000D02*
X97200000Y-57620000D01*
X84400000Y-85750000D02*
X94948536Y-85750000D01*
X96413000Y-82214464D02*
X94898534Y-80700000D01*
X93060058Y-80700000D02*
X92100000Y-79739942D01*
X94898534Y-80700000D02*
X93060058Y-80700000D01*
X94948536Y-85750000D02*
X96413000Y-84285534D01*
X81850000Y-88300000D02*
X84400000Y-85750000D01*
X72270000Y-86000000D02*
X74570000Y-88300000D01*
X96413000Y-84285534D02*
X96413000Y-82214464D01*
X92100000Y-79739942D02*
X92100000Y-62720000D01*
X74570000Y-88300000D02*
X81850000Y-88300000D01*
%TO.N,A_R_LED_C*%
X94782850Y-85350000D02*
X96013000Y-84119849D01*
X92894372Y-81100000D02*
X91700000Y-79905627D01*
X94732849Y-81100000D02*
X92894372Y-81100000D01*
X96013000Y-84119849D02*
X96013000Y-82380150D01*
X80270000Y-86000000D02*
X83584314Y-86000000D01*
X96013000Y-82380150D02*
X94732849Y-81100000D01*
X83584314Y-86000000D02*
X84234315Y-85350000D01*
X91700000Y-60580000D02*
X97200000Y-55080000D01*
X91700000Y-79905627D02*
X91700000Y-60580000D01*
X84234315Y-85350000D02*
X94782850Y-85350000D01*
%TO.N,Net-(R4-Pad2)*%
X78810000Y-49250000D02*
X77500000Y-50560000D01*
X77500000Y-50560000D02*
X77500000Y-68500000D01*
%TO.N,A_Rise_CV_C*%
X75000000Y-53060000D02*
X75000000Y-68500000D01*
X58580000Y-49250000D02*
X71190000Y-49250000D01*
X71190000Y-49250000D02*
X75000000Y-53060000D01*
X52750000Y-55080000D02*
X58580000Y-49250000D01*
%TO.N,B_LinLog_Sw_p2_C*%
X96049000Y-129389000D02*
X97200000Y-130540000D01*
X95358900Y-111013000D02*
X96799000Y-112453100D01*
X89087000Y-109000000D02*
X91100000Y-111013000D01*
X96049000Y-126451000D02*
X96049000Y-129389000D01*
X96799000Y-125701000D02*
X96049000Y-126451000D01*
X96799000Y-112453100D02*
X96799000Y-125701000D01*
X91100000Y-111013000D02*
X95358900Y-111013000D01*
%TO.N,B_LinLog_Sw_p5_C*%
X93913000Y-109000000D02*
X97200000Y-112287000D01*
X97200000Y-112287000D02*
X97200000Y-128000000D01*
%TO.N,B_R_LED_C*%
X84684000Y-111414000D02*
X95192800Y-111414000D01*
X96398000Y-112619200D02*
X96398000Y-125534900D01*
X95648000Y-126284900D02*
X95648000Y-131528000D01*
X95192800Y-111414000D02*
X96398000Y-112619200D01*
X96398000Y-125534900D02*
X95648000Y-126284900D01*
X82270000Y-109000000D02*
X84684000Y-111414000D01*
X95648000Y-131528000D02*
X97200000Y-133080000D01*
%TD*%
%TA.AperFunction,Conductor*%
%TO.N,GND*%
G36*
X98942539Y-43020185D02*
G01*
X98988294Y-43072989D01*
X98999500Y-43124500D01*
X98999500Y-182875500D01*
X98979815Y-182942539D01*
X98927011Y-182988294D01*
X98875500Y-182999500D01*
X92512097Y-182999500D01*
X92445058Y-182979815D01*
X92399303Y-182927011D01*
X92389359Y-182857853D01*
X92418384Y-182794297D01*
X92424416Y-182787819D01*
X92533374Y-182678860D01*
X93000334Y-182211899D01*
X93061655Y-182178416D01*
X93131346Y-182183400D01*
X93135455Y-182185016D01*
X93300793Y-182253502D01*
X93541435Y-182317982D01*
X93788435Y-182350500D01*
X93788442Y-182350500D01*
X94037558Y-182350500D01*
X94037565Y-182350500D01*
X94284565Y-182317982D01*
X94525207Y-182253502D01*
X94755373Y-182158164D01*
X94971127Y-182033599D01*
X95168776Y-181881938D01*
X95344938Y-181705776D01*
X95496599Y-181508127D01*
X95621164Y-181292373D01*
X95716502Y-181062207D01*
X95780982Y-180821565D01*
X95813500Y-180574565D01*
X95813500Y-180325435D01*
X95780982Y-180078435D01*
X95716502Y-179837793D01*
X95621164Y-179607627D01*
X95496599Y-179391873D01*
X95344938Y-179194224D01*
X95344933Y-179194218D01*
X95168781Y-179018066D01*
X95168774Y-179018060D01*
X94971126Y-178866400D01*
X94755376Y-178741837D01*
X94755361Y-178741830D01*
X94525207Y-178646498D01*
X94284561Y-178582017D01*
X94037575Y-178549501D01*
X94037570Y-178549500D01*
X94037565Y-178549500D01*
X93788435Y-178549500D01*
X93788429Y-178549500D01*
X93788424Y-178549501D01*
X93541438Y-178582017D01*
X93300792Y-178646498D01*
X93070638Y-178741830D01*
X93070623Y-178741837D01*
X92854873Y-178866400D01*
X92657225Y-179018060D01*
X92657218Y-179018066D01*
X92481066Y-179194218D01*
X92481060Y-179194225D01*
X92329400Y-179391873D01*
X92204837Y-179607623D01*
X92204830Y-179607638D01*
X92109498Y-179837792D01*
X92045017Y-180078438D01*
X92012501Y-180325424D01*
X92012500Y-180325441D01*
X92012500Y-180574558D01*
X92012501Y-180574575D01*
X92045017Y-180821561D01*
X92109497Y-181062204D01*
X92177978Y-181227531D01*
X92185447Y-181297001D01*
X92154172Y-181359480D01*
X92151098Y-181362665D01*
X91250584Y-182263181D01*
X91189261Y-182296666D01*
X91162903Y-182299500D01*
X90147347Y-182299500D01*
X90080308Y-182279815D01*
X90034553Y-182227011D01*
X90024609Y-182157853D01*
X90053634Y-182094297D01*
X90085347Y-182068113D01*
X90099279Y-182060068D01*
X90145127Y-182033599D01*
X90342776Y-181881938D01*
X90518938Y-181705776D01*
X90670599Y-181508127D01*
X90795164Y-181292373D01*
X90890502Y-181062207D01*
X90954982Y-180821565D01*
X90987500Y-180574565D01*
X90987500Y-180325435D01*
X90954982Y-180078435D01*
X90890502Y-179837793D01*
X90795164Y-179607627D01*
X90670599Y-179391873D01*
X90518938Y-179194224D01*
X90518933Y-179194218D01*
X90342781Y-179018066D01*
X90342774Y-179018060D01*
X90145126Y-178866400D01*
X89929376Y-178741837D01*
X89929361Y-178741830D01*
X89699207Y-178646498D01*
X89458561Y-178582017D01*
X89211575Y-178549501D01*
X89211570Y-178549500D01*
X89211565Y-178549500D01*
X88962435Y-178549500D01*
X88962429Y-178549500D01*
X88962424Y-178549501D01*
X88715438Y-178582017D01*
X88474792Y-178646498D01*
X88244638Y-178741830D01*
X88244623Y-178741837D01*
X88028873Y-178866400D01*
X87831225Y-179018060D01*
X87831218Y-179018066D01*
X87655066Y-179194218D01*
X87655060Y-179194225D01*
X87503400Y-179391873D01*
X87378837Y-179607623D01*
X87378830Y-179607638D01*
X87283498Y-179837792D01*
X87219017Y-180078438D01*
X87186501Y-180325424D01*
X87186500Y-180325441D01*
X87186500Y-180574558D01*
X87186501Y-180574575D01*
X87219017Y-180821561D01*
X87283498Y-181062207D01*
X87378830Y-181292361D01*
X87378837Y-181292376D01*
X87503400Y-181508126D01*
X87655060Y-181705774D01*
X87655066Y-181705781D01*
X87831218Y-181881933D01*
X87831225Y-181881939D01*
X88028873Y-182033599D01*
X88088653Y-182068113D01*
X88136868Y-182118679D01*
X88150092Y-182187286D01*
X88124124Y-182252151D01*
X88067210Y-182292680D01*
X88026653Y-182299500D01*
X87100097Y-182299500D01*
X87033058Y-182279815D01*
X87012416Y-182263181D01*
X86336819Y-181587584D01*
X86303334Y-181526261D01*
X86300500Y-181499903D01*
X86300500Y-174737096D01*
X86320185Y-174670057D01*
X86336814Y-174649420D01*
X88174334Y-172811899D01*
X88235655Y-172778416D01*
X88305347Y-172783400D01*
X88309455Y-172785016D01*
X88474793Y-172853502D01*
X88715435Y-172917982D01*
X88962435Y-172950500D01*
X88962442Y-172950500D01*
X89211558Y-172950500D01*
X89211565Y-172950500D01*
X89458565Y-172917982D01*
X89699207Y-172853502D01*
X89929373Y-172758164D01*
X90145127Y-172633599D01*
X90342776Y-172481938D01*
X90518938Y-172305776D01*
X90670599Y-172108127D01*
X90670605Y-172108116D01*
X90672394Y-172105440D01*
X90726003Y-172060632D01*
X90795328Y-172051921D01*
X90858357Y-172082072D01*
X90895080Y-172141512D01*
X90899500Y-172174325D01*
X90899500Y-173036902D01*
X90879815Y-173103941D01*
X90863181Y-173124583D01*
X89999665Y-173988098D01*
X89938342Y-174021583D01*
X89868650Y-174016599D01*
X89864553Y-174014986D01*
X89699207Y-173946498D01*
X89699205Y-173946497D01*
X89699204Y-173946497D01*
X89458561Y-173882017D01*
X89211575Y-173849501D01*
X89211570Y-173849500D01*
X89211565Y-173849500D01*
X88962435Y-173849500D01*
X88962429Y-173849500D01*
X88962424Y-173849501D01*
X88715438Y-173882017D01*
X88474792Y-173946498D01*
X88244638Y-174041830D01*
X88244623Y-174041837D01*
X88028873Y-174166400D01*
X87831225Y-174318060D01*
X87831218Y-174318066D01*
X87655066Y-174494218D01*
X87655060Y-174494225D01*
X87503400Y-174691873D01*
X87378837Y-174907623D01*
X87378830Y-174907638D01*
X87283498Y-175137792D01*
X87219017Y-175378438D01*
X87186501Y-175625424D01*
X87186500Y-175625441D01*
X87186500Y-175874558D01*
X87186501Y-175874575D01*
X87219017Y-176121561D01*
X87283498Y-176362207D01*
X87378830Y-176592361D01*
X87378837Y-176592376D01*
X87503400Y-176808126D01*
X87655060Y-177005774D01*
X87655066Y-177005781D01*
X87831218Y-177181933D01*
X87831225Y-177181939D01*
X88028873Y-177333599D01*
X88244623Y-177458162D01*
X88244638Y-177458169D01*
X88343825Y-177499253D01*
X88474793Y-177553502D01*
X88715435Y-177617982D01*
X88962435Y-177650500D01*
X88962442Y-177650500D01*
X89211558Y-177650500D01*
X89211565Y-177650500D01*
X89458565Y-177617982D01*
X89699207Y-177553502D01*
X89929373Y-177458164D01*
X90145127Y-177333599D01*
X90342776Y-177181938D01*
X90518938Y-177005776D01*
X90670599Y-176808127D01*
X90795164Y-176592373D01*
X90890502Y-176362207D01*
X90954982Y-176121565D01*
X90987500Y-175874565D01*
X90987500Y-175625441D01*
X92012500Y-175625441D01*
X92012500Y-175874558D01*
X92012501Y-175874575D01*
X92045017Y-176121561D01*
X92109498Y-176362207D01*
X92204830Y-176592361D01*
X92204837Y-176592376D01*
X92329400Y-176808126D01*
X92481060Y-177005774D01*
X92481066Y-177005781D01*
X92657218Y-177181933D01*
X92657225Y-177181939D01*
X92854873Y-177333599D01*
X93070623Y-177458162D01*
X93070638Y-177458169D01*
X93169825Y-177499253D01*
X93300793Y-177553502D01*
X93541435Y-177617982D01*
X93788435Y-177650500D01*
X93788442Y-177650500D01*
X94037558Y-177650500D01*
X94037565Y-177650500D01*
X94284565Y-177617982D01*
X94525207Y-177553502D01*
X94755373Y-177458164D01*
X94971127Y-177333599D01*
X95168776Y-177181938D01*
X95344938Y-177005776D01*
X95496599Y-176808127D01*
X95621164Y-176592373D01*
X95716502Y-176362207D01*
X95780982Y-176121565D01*
X95813500Y-175874565D01*
X95813500Y-175625435D01*
X95780982Y-175378435D01*
X95716502Y-175137793D01*
X95621164Y-174907627D01*
X95618490Y-174902996D01*
X95496599Y-174691873D01*
X95344939Y-174494225D01*
X95344933Y-174494218D01*
X95168781Y-174318066D01*
X95168774Y-174318060D01*
X94971126Y-174166400D01*
X94755376Y-174041837D01*
X94755361Y-174041830D01*
X94525207Y-173946498D01*
X94284561Y-173882017D01*
X94037575Y-173849501D01*
X94037570Y-173849500D01*
X94037565Y-173849500D01*
X93788435Y-173849500D01*
X93788429Y-173849500D01*
X93788424Y-173849501D01*
X93541438Y-173882017D01*
X93300792Y-173946498D01*
X93070638Y-174041830D01*
X93070623Y-174041837D01*
X92854873Y-174166400D01*
X92657225Y-174318060D01*
X92657218Y-174318066D01*
X92481066Y-174494218D01*
X92481060Y-174494225D01*
X92329400Y-174691873D01*
X92204837Y-174907623D01*
X92204830Y-174907638D01*
X92109498Y-175137792D01*
X92045017Y-175378438D01*
X92012501Y-175625424D01*
X92012500Y-175625441D01*
X90987500Y-175625441D01*
X90987500Y-175625435D01*
X90954982Y-175378435D01*
X90890502Y-175137793D01*
X90822020Y-174972465D01*
X90814552Y-174902996D01*
X90845827Y-174840517D01*
X90848873Y-174837360D01*
X91858506Y-173827728D01*
X91858511Y-173827724D01*
X91868714Y-173817520D01*
X91868716Y-173817520D01*
X91980520Y-173705716D01*
X92059577Y-173568784D01*
X92100500Y-173416057D01*
X92100500Y-172174325D01*
X92120185Y-172107286D01*
X92172989Y-172061531D01*
X92242147Y-172051587D01*
X92305703Y-172080612D01*
X92327606Y-172105440D01*
X92329403Y-172108130D01*
X92481060Y-172305774D01*
X92481066Y-172305781D01*
X92657218Y-172481933D01*
X92657225Y-172481939D01*
X92854873Y-172633599D01*
X93070623Y-172758162D01*
X93070638Y-172758169D01*
X93131552Y-172783400D01*
X93300793Y-172853502D01*
X93541435Y-172917982D01*
X93788435Y-172950500D01*
X93788442Y-172950500D01*
X94037558Y-172950500D01*
X94037565Y-172950500D01*
X94284565Y-172917982D01*
X94525207Y-172853502D01*
X94755373Y-172758164D01*
X94971127Y-172633599D01*
X95168776Y-172481938D01*
X95344938Y-172305776D01*
X95496599Y-172108127D01*
X95621164Y-171892373D01*
X95716502Y-171662207D01*
X95780982Y-171421565D01*
X95813500Y-171174565D01*
X95813500Y-170925435D01*
X95780982Y-170678435D01*
X95716502Y-170437793D01*
X95648021Y-170272466D01*
X95621169Y-170207638D01*
X95621162Y-170207623D01*
X95496599Y-169991873D01*
X95344939Y-169794225D01*
X95344933Y-169794218D01*
X95168781Y-169618066D01*
X95168774Y-169618060D01*
X94971126Y-169466400D01*
X94755376Y-169341837D01*
X94755361Y-169341830D01*
X94525207Y-169246498D01*
X94525203Y-169246497D01*
X94284565Y-169182018D01*
X94284564Y-169182017D01*
X94284561Y-169182017D01*
X94037575Y-169149501D01*
X94037570Y-169149500D01*
X94037565Y-169149500D01*
X93788435Y-169149500D01*
X93788429Y-169149500D01*
X93788424Y-169149501D01*
X93541438Y-169182017D01*
X93300796Y-169246497D01*
X93300794Y-169246497D01*
X93300793Y-169246498D01*
X93277826Y-169256011D01*
X93197202Y-169289406D01*
X93127733Y-169296873D01*
X93065254Y-169265598D01*
X93029602Y-169205508D01*
X93032097Y-169135683D01*
X93062067Y-169087167D01*
X96658506Y-165490727D01*
X96658511Y-165490724D01*
X96668714Y-165480520D01*
X96668716Y-165480520D01*
X96780520Y-165368716D01*
X96843531Y-165259577D01*
X96859577Y-165231785D01*
X96900500Y-165079057D01*
X96900500Y-164920943D01*
X96900500Y-162489059D01*
X96900501Y-162489046D01*
X96900501Y-162320945D01*
X96900501Y-162320943D01*
X96859577Y-162168215D01*
X96808946Y-162080520D01*
X96780520Y-162031284D01*
X96668716Y-161919480D01*
X96668715Y-161919479D01*
X96664385Y-161915149D01*
X96664374Y-161915139D01*
X95987590Y-161238355D01*
X95987588Y-161238352D01*
X95868717Y-161119481D01*
X95868709Y-161119475D01*
X95754439Y-161053502D01*
X95754438Y-161053501D01*
X95738515Y-161044308D01*
X95731785Y-161040423D01*
X95579057Y-160999499D01*
X95420943Y-160999499D01*
X95413347Y-160999499D01*
X95413331Y-160999500D01*
X95120213Y-160999500D01*
X95053174Y-160979815D01*
X95007419Y-160927011D01*
X94997475Y-160857853D01*
X95026500Y-160794297D01*
X95044727Y-160777124D01*
X95066362Y-160760522D01*
X95168776Y-160681938D01*
X95344938Y-160505776D01*
X95496599Y-160308127D01*
X95621164Y-160092373D01*
X95716502Y-159862207D01*
X95780982Y-159621565D01*
X95813500Y-159374565D01*
X95813500Y-159125435D01*
X95780982Y-158878435D01*
X95716502Y-158637793D01*
X95648021Y-158472466D01*
X95621169Y-158407638D01*
X95621162Y-158407623D01*
X95496599Y-158191873D01*
X95344939Y-157994225D01*
X95344933Y-157994218D01*
X95168781Y-157818066D01*
X95168774Y-157818060D01*
X94971126Y-157666400D01*
X94755376Y-157541837D01*
X94755361Y-157541830D01*
X94525207Y-157446498D01*
X94284561Y-157382017D01*
X94037575Y-157349501D01*
X94037570Y-157349500D01*
X94037565Y-157349500D01*
X93788435Y-157349500D01*
X93788429Y-157349500D01*
X93788424Y-157349501D01*
X93541438Y-157382017D01*
X93300792Y-157446498D01*
X93135466Y-157514978D01*
X93065997Y-157522447D01*
X93003518Y-157491171D01*
X93000333Y-157488098D01*
X91536819Y-156024584D01*
X91503334Y-155963261D01*
X91500500Y-155936903D01*
X91500500Y-151720945D01*
X91500500Y-151720943D01*
X91459577Y-151568216D01*
X91459573Y-151568209D01*
X91380524Y-151431290D01*
X91380521Y-151431286D01*
X91380520Y-151431284D01*
X91268716Y-151319480D01*
X91268715Y-151319479D01*
X91264385Y-151315149D01*
X91264374Y-151315139D01*
X87887590Y-147938355D01*
X87887588Y-147938352D01*
X87768717Y-147819481D01*
X87768716Y-147819480D01*
X87681904Y-147769360D01*
X87681904Y-147769359D01*
X87681900Y-147769358D01*
X87631785Y-147740423D01*
X87479057Y-147699499D01*
X87320943Y-147699499D01*
X87313347Y-147699499D01*
X87313331Y-147699500D01*
X77600098Y-147699500D01*
X77533059Y-147679815D01*
X77512417Y-147663181D01*
X76336819Y-146487583D01*
X76303334Y-146426260D01*
X76300500Y-146399902D01*
X76300500Y-134618048D01*
X77339500Y-134618048D01*
X77339500Y-135381951D01*
X77366013Y-135583333D01*
X77371334Y-135623744D01*
X77429912Y-135842361D01*
X77434456Y-135859320D01*
X77434459Y-135859330D01*
X77527786Y-136084640D01*
X77527791Y-136084651D01*
X77649727Y-136295848D01*
X77649738Y-136295864D01*
X77798199Y-136489343D01*
X77798205Y-136489350D01*
X77970649Y-136661794D01*
X77970656Y-136661800D01*
X78031079Y-136708164D01*
X78164144Y-136810268D01*
X78164151Y-136810272D01*
X78375348Y-136932208D01*
X78375353Y-136932210D01*
X78375356Y-136932212D01*
X78600679Y-137025544D01*
X78836256Y-137088666D01*
X79078056Y-137120500D01*
X79078063Y-137120500D01*
X79321937Y-137120500D01*
X79321944Y-137120500D01*
X79563744Y-137088666D01*
X79799321Y-137025544D01*
X80024644Y-136932212D01*
X80235856Y-136810268D01*
X80429345Y-136661799D01*
X80601799Y-136489345D01*
X80750268Y-136295856D01*
X80872212Y-136084644D01*
X80965544Y-135859321D01*
X81028666Y-135623744D01*
X81060500Y-135381944D01*
X81060500Y-134618056D01*
X81028666Y-134376256D01*
X80965544Y-134140679D01*
X80952881Y-134110109D01*
X80899948Y-133982317D01*
X80872212Y-133915356D01*
X80872210Y-133915353D01*
X80872208Y-133915348D01*
X80750272Y-133704151D01*
X80750268Y-133704144D01*
X80685676Y-133619966D01*
X80601800Y-133510656D01*
X80601794Y-133510649D01*
X80429350Y-133338205D01*
X80429343Y-133338199D01*
X80235864Y-133189738D01*
X80235862Y-133189736D01*
X80235856Y-133189732D01*
X80235851Y-133189729D01*
X80235848Y-133189727D01*
X80024651Y-133067791D01*
X80024640Y-133067786D01*
X79799330Y-132974459D01*
X79799323Y-132974457D01*
X79799321Y-132974456D01*
X79563744Y-132911334D01*
X79523333Y-132906013D01*
X79321951Y-132879500D01*
X79321944Y-132879500D01*
X79078056Y-132879500D01*
X79078048Y-132879500D01*
X78847896Y-132909801D01*
X78836256Y-132911334D01*
X78603452Y-132973713D01*
X78600679Y-132974456D01*
X78600669Y-132974459D01*
X78375359Y-133067786D01*
X78375348Y-133067791D01*
X78164151Y-133189727D01*
X78164135Y-133189738D01*
X77970656Y-133338199D01*
X77970649Y-133338205D01*
X77798205Y-133510649D01*
X77798199Y-133510656D01*
X77649738Y-133704135D01*
X77649727Y-133704151D01*
X77527791Y-133915348D01*
X77527786Y-133915359D01*
X77434459Y-134140669D01*
X77434456Y-134140679D01*
X77373428Y-134368443D01*
X77371335Y-134376253D01*
X77371333Y-134376264D01*
X77339500Y-134618048D01*
X76300500Y-134618048D01*
X76300500Y-128197648D01*
X78889500Y-128197648D01*
X78889500Y-128402351D01*
X78921522Y-128604534D01*
X78984781Y-128799223D01*
X79077715Y-128981613D01*
X79198028Y-129147213D01*
X79342786Y-129291971D01*
X79470762Y-129384949D01*
X79508390Y-129412287D01*
X79624607Y-129471503D01*
X79690776Y-129505218D01*
X79690778Y-129505218D01*
X79690781Y-129505220D01*
X79795137Y-129539127D01*
X79885465Y-129568477D01*
X79986557Y-129584488D01*
X80087648Y-129600500D01*
X80087649Y-129600500D01*
X80292351Y-129600500D01*
X80292352Y-129600500D01*
X80494534Y-129568477D01*
X80508842Y-129563827D01*
X80578682Y-129561831D01*
X80634842Y-129594077D01*
X83363181Y-132322416D01*
X83396666Y-132383739D01*
X83399500Y-132410097D01*
X83399500Y-141158164D01*
X83379815Y-141225203D01*
X83331796Y-141268648D01*
X83265976Y-141302185D01*
X83087641Y-141431752D01*
X83087635Y-141431757D01*
X83066207Y-141453185D01*
X83004884Y-141486669D01*
X82935192Y-141481683D01*
X82879259Y-141439810D01*
X82862346Y-141408834D01*
X82843355Y-141357915D01*
X82843350Y-141357906D01*
X82757190Y-141242812D01*
X82757187Y-141242809D01*
X82642093Y-141156649D01*
X82642086Y-141156645D01*
X82507379Y-141106403D01*
X82507372Y-141106401D01*
X82447844Y-141100000D01*
X81750000Y-141100000D01*
X81750000Y-142066988D01*
X81692993Y-142034075D01*
X81565826Y-142000000D01*
X81434174Y-142000000D01*
X81307007Y-142034075D01*
X81250000Y-142066988D01*
X81250000Y-141100000D01*
X80552155Y-141100000D01*
X80492627Y-141106401D01*
X80492620Y-141106403D01*
X80357913Y-141156645D01*
X80357906Y-141156649D01*
X80242812Y-141242809D01*
X80242809Y-141242812D01*
X80156649Y-141357906D01*
X80156645Y-141357913D01*
X80106403Y-141492620D01*
X80106401Y-141492627D01*
X80100000Y-141552155D01*
X80100000Y-142250000D01*
X81066988Y-142250000D01*
X81034075Y-142307007D01*
X81000000Y-142434174D01*
X81000000Y-142565826D01*
X81034075Y-142692993D01*
X81066988Y-142750000D01*
X80100000Y-142750000D01*
X80100000Y-143447844D01*
X80106401Y-143507372D01*
X80106403Y-143507379D01*
X80156645Y-143642086D01*
X80156649Y-143642093D01*
X80242809Y-143757187D01*
X80242812Y-143757190D01*
X80357906Y-143843350D01*
X80357913Y-143843354D01*
X80492620Y-143893596D01*
X80492627Y-143893598D01*
X80552155Y-143899999D01*
X80552172Y-143900000D01*
X81250000Y-143900000D01*
X81250000Y-142933012D01*
X81307007Y-142965925D01*
X81434174Y-143000000D01*
X81565826Y-143000000D01*
X81692993Y-142965925D01*
X81750000Y-142933012D01*
X81750000Y-143900000D01*
X82447828Y-143900000D01*
X82447844Y-143899999D01*
X82507372Y-143893598D01*
X82507379Y-143893596D01*
X82642086Y-143843354D01*
X82642093Y-143843350D01*
X82757187Y-143757190D01*
X82757190Y-143757187D01*
X82843350Y-143642093D01*
X82843353Y-143642088D01*
X82862345Y-143591166D01*
X82904215Y-143535232D01*
X82969679Y-143510813D01*
X83037952Y-143525663D01*
X83066209Y-143546816D01*
X83087636Y-143568243D01*
X83087641Y-143568247D01*
X83243192Y-143681260D01*
X83265978Y-143697815D01*
X83382501Y-143757187D01*
X83462393Y-143797895D01*
X83462396Y-143797896D01*
X83567221Y-143831955D01*
X83672049Y-143866015D01*
X83889778Y-143900500D01*
X83889779Y-143900500D01*
X84110221Y-143900500D01*
X84110222Y-143900500D01*
X84327951Y-143866015D01*
X84537606Y-143797895D01*
X84734022Y-143697815D01*
X84912365Y-143568242D01*
X85068242Y-143412365D01*
X85149682Y-143300270D01*
X85205011Y-143257606D01*
X85274624Y-143251627D01*
X85336420Y-143284232D01*
X85350313Y-143300265D01*
X85383750Y-143346287D01*
X85431758Y-143412365D01*
X85587636Y-143568243D01*
X85587641Y-143568247D01*
X85743192Y-143681260D01*
X85765978Y-143697815D01*
X85882501Y-143757187D01*
X85962393Y-143797895D01*
X85962396Y-143797896D01*
X86067221Y-143831955D01*
X86172049Y-143866015D01*
X86389778Y-143900500D01*
X86389779Y-143900500D01*
X86610221Y-143900500D01*
X86610222Y-143900500D01*
X86827951Y-143866015D01*
X87037606Y-143797895D01*
X87234022Y-143697815D01*
X87412365Y-143568242D01*
X87568242Y-143412365D01*
X87697815Y-143234022D01*
X87797895Y-143037606D01*
X87866015Y-142827951D01*
X87900500Y-142610222D01*
X87900500Y-142389778D01*
X87866015Y-142172049D01*
X87831955Y-142067221D01*
X87797896Y-141962396D01*
X87797895Y-141962393D01*
X87763237Y-141894375D01*
X87697815Y-141765978D01*
X87649681Y-141699727D01*
X87568247Y-141587641D01*
X87568243Y-141587636D01*
X87412363Y-141431756D01*
X87412358Y-141431752D01*
X87234023Y-141302185D01*
X87168204Y-141268648D01*
X87117409Y-141220674D01*
X87100500Y-141158164D01*
X87100500Y-136466665D01*
X87120185Y-136399626D01*
X87172989Y-136353871D01*
X87242147Y-136343927D01*
X87305703Y-136372952D01*
X87322874Y-136391177D01*
X87330028Y-136400500D01*
X87398199Y-136489343D01*
X87398205Y-136489350D01*
X87570649Y-136661794D01*
X87570656Y-136661800D01*
X87631079Y-136708164D01*
X87764144Y-136810268D01*
X87764151Y-136810272D01*
X87975348Y-136932208D01*
X87975353Y-136932210D01*
X87975356Y-136932212D01*
X88200679Y-137025544D01*
X88436256Y-137088666D01*
X88678056Y-137120500D01*
X88678063Y-137120500D01*
X88921937Y-137120500D01*
X88921944Y-137120500D01*
X89163744Y-137088666D01*
X89399321Y-137025544D01*
X89624644Y-136932212D01*
X89835856Y-136810268D01*
X90029345Y-136661799D01*
X90201799Y-136489345D01*
X90350268Y-136295856D01*
X90472212Y-136084644D01*
X90565544Y-135859321D01*
X90628666Y-135623744D01*
X90660500Y-135381944D01*
X90660500Y-134618056D01*
X90628666Y-134376256D01*
X90565544Y-134140679D01*
X90552881Y-134110109D01*
X90499948Y-133982317D01*
X90472212Y-133915356D01*
X90472210Y-133915353D01*
X90472208Y-133915348D01*
X90350272Y-133704151D01*
X90350268Y-133704144D01*
X90285676Y-133619966D01*
X90201800Y-133510656D01*
X90201794Y-133510649D01*
X90029350Y-133338205D01*
X90029343Y-133338199D01*
X89835864Y-133189738D01*
X89835862Y-133189736D01*
X89835856Y-133189732D01*
X89835851Y-133189729D01*
X89835848Y-133189727D01*
X89624651Y-133067791D01*
X89624640Y-133067786D01*
X89399330Y-132974459D01*
X89399323Y-132974457D01*
X89399321Y-132974456D01*
X89163744Y-132911334D01*
X89123333Y-132906013D01*
X88921951Y-132879500D01*
X88921944Y-132879500D01*
X88678056Y-132879500D01*
X88678048Y-132879500D01*
X88447896Y-132909801D01*
X88436256Y-132911334D01*
X88203452Y-132973713D01*
X88200679Y-132974456D01*
X88200669Y-132974459D01*
X87975359Y-133067786D01*
X87975348Y-133067791D01*
X87764151Y-133189727D01*
X87764135Y-133189738D01*
X87570656Y-133338199D01*
X87570649Y-133338205D01*
X87398205Y-133510649D01*
X87398199Y-133510656D01*
X87322876Y-133608820D01*
X87266448Y-133650023D01*
X87196702Y-133654178D01*
X87135782Y-133619966D01*
X87103029Y-133558249D01*
X87100500Y-133533334D01*
X87100500Y-129910096D01*
X87120185Y-129843057D01*
X87136815Y-129822419D01*
X87365157Y-129594076D01*
X87426480Y-129560592D01*
X87491154Y-129563826D01*
X87505466Y-129568477D01*
X87707648Y-129600500D01*
X87707649Y-129600500D01*
X87912351Y-129600500D01*
X87912352Y-129600500D01*
X88114534Y-129568477D01*
X88309219Y-129505220D01*
X88491610Y-129412287D01*
X88587238Y-129342810D01*
X88657213Y-129291971D01*
X88657215Y-129291968D01*
X88657219Y-129291966D01*
X88801966Y-129147219D01*
X88801968Y-129147215D01*
X88801971Y-129147213D01*
X88876795Y-129044225D01*
X88922287Y-128981610D01*
X89015220Y-128799219D01*
X89078477Y-128604534D01*
X89110500Y-128402352D01*
X89110500Y-128197648D01*
X89078477Y-127995466D01*
X89015220Y-127800781D01*
X89015218Y-127800778D01*
X89015218Y-127800776D01*
X88981503Y-127734607D01*
X88922287Y-127618390D01*
X88914556Y-127607749D01*
X88801971Y-127452786D01*
X88657213Y-127308028D01*
X88491613Y-127187715D01*
X88491612Y-127187714D01*
X88491610Y-127187713D01*
X88434653Y-127158691D01*
X88309223Y-127094781D01*
X88114534Y-127031522D01*
X87939995Y-127003878D01*
X87912352Y-126999500D01*
X87707648Y-126999500D01*
X87683329Y-127003351D01*
X87505465Y-127031522D01*
X87310776Y-127094781D01*
X87128386Y-127187715D01*
X86962786Y-127308028D01*
X86818028Y-127452786D01*
X86697715Y-127618386D01*
X86604781Y-127800776D01*
X86541522Y-127995465D01*
X86509500Y-128197648D01*
X86509500Y-128402351D01*
X86541522Y-128604534D01*
X86546173Y-128618848D01*
X86548165Y-128688690D01*
X86515921Y-128744842D01*
X86131286Y-129129478D01*
X86019481Y-129241282D01*
X86019480Y-129241284D01*
X85979840Y-129309943D01*
X85940423Y-129378215D01*
X85899499Y-129530943D01*
X85899499Y-129530945D01*
X85899499Y-129699046D01*
X85899500Y-129699059D01*
X85899500Y-141158164D01*
X85879815Y-141225203D01*
X85831796Y-141268648D01*
X85765976Y-141302185D01*
X85587641Y-141431752D01*
X85587636Y-141431756D01*
X85431756Y-141587636D01*
X85431752Y-141587641D01*
X85350318Y-141699727D01*
X85294989Y-141742393D01*
X85225375Y-141748372D01*
X85163580Y-141715767D01*
X85149682Y-141699727D01*
X85068247Y-141587641D01*
X85068243Y-141587636D01*
X84912363Y-141431756D01*
X84912358Y-141431752D01*
X84734023Y-141302185D01*
X84668204Y-141268648D01*
X84617409Y-141220674D01*
X84600500Y-141158164D01*
X84600500Y-132199060D01*
X84600501Y-132199047D01*
X84600501Y-132030944D01*
X84594493Y-132008521D01*
X84559577Y-131878216D01*
X84556284Y-131872512D01*
X84480524Y-131741290D01*
X84480518Y-131741282D01*
X83163794Y-130424558D01*
X81484076Y-128744841D01*
X81450592Y-128683519D01*
X81453828Y-128618841D01*
X81458477Y-128604534D01*
X81490500Y-128402352D01*
X81490500Y-128197648D01*
X81458477Y-127995466D01*
X81395220Y-127800781D01*
X81395218Y-127800778D01*
X81395218Y-127800776D01*
X81361503Y-127734607D01*
X81302287Y-127618390D01*
X81294556Y-127607749D01*
X81181971Y-127452786D01*
X81037213Y-127308028D01*
X80871613Y-127187715D01*
X80871612Y-127187714D01*
X80871610Y-127187713D01*
X80814653Y-127158691D01*
X80689223Y-127094781D01*
X80494534Y-127031522D01*
X80319995Y-127003878D01*
X80292352Y-126999500D01*
X80087648Y-126999500D01*
X80063329Y-127003351D01*
X79885465Y-127031522D01*
X79690776Y-127094781D01*
X79508386Y-127187715D01*
X79342786Y-127308028D01*
X79198028Y-127452786D01*
X79077715Y-127618386D01*
X78984781Y-127800776D01*
X78921522Y-127995465D01*
X78889500Y-128197648D01*
X76300500Y-128197648D01*
X76300500Y-120720945D01*
X76300500Y-120720943D01*
X76259577Y-120568216D01*
X76259577Y-120568215D01*
X76259577Y-120568214D01*
X76230639Y-120518095D01*
X76230637Y-120518092D01*
X76180520Y-120431284D01*
X76068716Y-120319480D01*
X76068715Y-120319479D01*
X76064385Y-120315149D01*
X76064374Y-120315139D01*
X66137819Y-110388584D01*
X66104334Y-110327261D01*
X66101500Y-110300903D01*
X66101500Y-108618048D01*
X68939500Y-108618048D01*
X68939500Y-109381951D01*
X68966013Y-109583333D01*
X68971334Y-109623744D01*
X69032727Y-109852869D01*
X69034456Y-109859320D01*
X69034459Y-109859330D01*
X69127786Y-110084640D01*
X69127791Y-110084651D01*
X69249727Y-110295848D01*
X69249738Y-110295864D01*
X69398199Y-110489343D01*
X69398205Y-110489350D01*
X69570649Y-110661794D01*
X69570656Y-110661800D01*
X69631079Y-110708164D01*
X69764144Y-110810268D01*
X69764151Y-110810272D01*
X69975348Y-110932208D01*
X69975353Y-110932210D01*
X69975356Y-110932212D01*
X70200679Y-111025544D01*
X70436256Y-111088666D01*
X70678056Y-111120500D01*
X70678063Y-111120500D01*
X70921937Y-111120500D01*
X70921944Y-111120500D01*
X71163744Y-111088666D01*
X71399321Y-111025544D01*
X71624644Y-110932212D01*
X71835856Y-110810268D01*
X72029345Y-110661799D01*
X72201799Y-110489345D01*
X72350268Y-110295856D01*
X72472212Y-110084644D01*
X72565544Y-109859321D01*
X72628666Y-109623744D01*
X72660500Y-109381944D01*
X72660500Y-108618056D01*
X72628666Y-108376256D01*
X72565544Y-108140679D01*
X72565539Y-108140669D01*
X72565538Y-108140663D01*
X72547164Y-108096303D01*
X72528877Y-108052155D01*
X78330000Y-108052155D01*
X78330000Y-108750000D01*
X79354722Y-108750000D01*
X79310667Y-108826306D01*
X79280000Y-108940756D01*
X79280000Y-109059244D01*
X79310667Y-109173694D01*
X79354722Y-109250000D01*
X78330000Y-109250000D01*
X78330000Y-109947844D01*
X78336401Y-110007372D01*
X78336403Y-110007379D01*
X78386645Y-110142086D01*
X78386649Y-110142093D01*
X78472809Y-110257187D01*
X78472812Y-110257190D01*
X78587906Y-110343350D01*
X78587913Y-110343354D01*
X78722620Y-110393596D01*
X78722627Y-110393598D01*
X78782155Y-110399999D01*
X78782172Y-110400000D01*
X79480000Y-110400000D01*
X79480000Y-109375277D01*
X79556306Y-109419333D01*
X79670756Y-109450000D01*
X79789244Y-109450000D01*
X79903694Y-109419333D01*
X79980000Y-109375277D01*
X79980000Y-110400000D01*
X80677828Y-110400000D01*
X80677844Y-110399999D01*
X80737372Y-110393598D01*
X80737379Y-110393596D01*
X80872086Y-110343354D01*
X80872093Y-110343350D01*
X80987187Y-110257190D01*
X80987190Y-110257187D01*
X81073350Y-110142093D01*
X81073354Y-110142086D01*
X81103213Y-110062031D01*
X81145084Y-110006097D01*
X81210548Y-109981680D01*
X81278821Y-109996531D01*
X81307076Y-110017683D01*
X81357636Y-110068243D01*
X81357641Y-110068247D01*
X81513192Y-110181260D01*
X81535978Y-110197815D01*
X81652501Y-110257187D01*
X81732393Y-110297895D01*
X81732396Y-110297896D01*
X81824483Y-110327816D01*
X81942049Y-110366015D01*
X82159778Y-110400500D01*
X82159779Y-110400500D01*
X82380221Y-110400500D01*
X82380222Y-110400500D01*
X82597951Y-110366015D01*
X82668205Y-110343187D01*
X82738044Y-110341192D01*
X82794202Y-110373437D01*
X84315284Y-111894520D01*
X84315286Y-111894521D01*
X84315290Y-111894524D01*
X84411547Y-111950097D01*
X84452216Y-111973577D01*
X84604943Y-112014501D01*
X84604945Y-112014501D01*
X84770654Y-112014501D01*
X84770670Y-112014500D01*
X87796380Y-112014500D01*
X87863419Y-112034185D01*
X87909174Y-112086989D01*
X87919118Y-112156147D01*
X87890093Y-112219703D01*
X87871866Y-112236876D01*
X87831225Y-112268060D01*
X87831218Y-112268066D01*
X87655066Y-112444218D01*
X87655060Y-112444225D01*
X87503400Y-112641873D01*
X87378837Y-112857623D01*
X87378830Y-112857638D01*
X87283498Y-113087792D01*
X87219017Y-113328438D01*
X87186501Y-113575424D01*
X87186500Y-113575441D01*
X87186500Y-113824558D01*
X87186501Y-113824575D01*
X87219017Y-114071561D01*
X87283498Y-114312207D01*
X87378830Y-114542361D01*
X87378837Y-114542376D01*
X87503400Y-114758126D01*
X87655060Y-114955774D01*
X87655066Y-114955781D01*
X87831218Y-115131933D01*
X87831225Y-115131939D01*
X88028873Y-115283599D01*
X88244623Y-115408162D01*
X88244638Y-115408169D01*
X88343825Y-115449253D01*
X88474793Y-115503502D01*
X88715435Y-115567982D01*
X88962435Y-115600500D01*
X88962442Y-115600500D01*
X89211558Y-115600500D01*
X89211565Y-115600500D01*
X89458565Y-115567982D01*
X89699207Y-115503502D01*
X89929373Y-115408164D01*
X90145127Y-115283599D01*
X90342776Y-115131938D01*
X90518938Y-114955776D01*
X90670599Y-114758127D01*
X90795164Y-114542373D01*
X90890502Y-114312207D01*
X90954982Y-114071565D01*
X90987500Y-113824565D01*
X90987500Y-113575435D01*
X90954982Y-113328435D01*
X90890502Y-113087793D01*
X90799386Y-112867820D01*
X90795169Y-112857638D01*
X90795162Y-112857623D01*
X90670599Y-112641873D01*
X90518939Y-112444225D01*
X90518933Y-112444218D01*
X90342781Y-112268066D01*
X90342774Y-112268060D01*
X90302134Y-112236876D01*
X90260931Y-112180448D01*
X90256776Y-112110702D01*
X90290988Y-112049782D01*
X90352705Y-112017029D01*
X90377620Y-112014500D01*
X92622380Y-112014500D01*
X92689419Y-112034185D01*
X92735174Y-112086989D01*
X92745118Y-112156147D01*
X92716093Y-112219703D01*
X92697866Y-112236876D01*
X92657225Y-112268060D01*
X92657218Y-112268066D01*
X92481066Y-112444218D01*
X92481060Y-112444225D01*
X92329400Y-112641873D01*
X92204837Y-112857623D01*
X92204830Y-112857638D01*
X92109498Y-113087792D01*
X92045017Y-113328438D01*
X92012501Y-113575424D01*
X92012500Y-113575441D01*
X92012500Y-113824558D01*
X92012501Y-113824575D01*
X92045017Y-114071561D01*
X92109498Y-114312207D01*
X92204830Y-114542361D01*
X92204837Y-114542376D01*
X92329400Y-114758126D01*
X92481060Y-114955774D01*
X92481066Y-114955781D01*
X92657218Y-115131933D01*
X92657225Y-115131939D01*
X92750663Y-115203636D01*
X92854873Y-115283599D01*
X92854880Y-115283603D01*
X92857384Y-115285276D01*
X92857966Y-115285972D01*
X92858093Y-115286070D01*
X92858071Y-115286098D01*
X92902192Y-115338885D01*
X92912500Y-115388383D01*
X92912500Y-152861617D01*
X92892815Y-152928656D01*
X92857384Y-152964724D01*
X92854865Y-152966406D01*
X92657225Y-153118060D01*
X92657218Y-153118066D01*
X92481066Y-153294218D01*
X92481060Y-153294225D01*
X92329400Y-153491873D01*
X92204837Y-153707623D01*
X92204830Y-153707638D01*
X92109498Y-153937792D01*
X92045017Y-154178438D01*
X92012501Y-154425424D01*
X92012500Y-154425441D01*
X92012500Y-154674558D01*
X92012501Y-154674575D01*
X92045017Y-154921561D01*
X92109498Y-155162207D01*
X92204830Y-155392361D01*
X92204837Y-155392376D01*
X92329400Y-155608126D01*
X92481060Y-155805774D01*
X92481066Y-155805781D01*
X92657218Y-155981933D01*
X92657225Y-155981939D01*
X92854873Y-156133599D01*
X93070623Y-156258162D01*
X93070638Y-156258169D01*
X93169825Y-156299253D01*
X93300793Y-156353502D01*
X93541435Y-156417982D01*
X93788435Y-156450500D01*
X93788442Y-156450500D01*
X94037558Y-156450500D01*
X94037565Y-156450500D01*
X94284565Y-156417982D01*
X94525207Y-156353502D01*
X94755373Y-156258164D01*
X94971127Y-156133599D01*
X95168776Y-155981938D01*
X95344938Y-155805776D01*
X95496599Y-155608127D01*
X95621164Y-155392373D01*
X95716502Y-155162207D01*
X95780982Y-154921565D01*
X95813500Y-154674565D01*
X95813500Y-154425435D01*
X95780982Y-154178435D01*
X95716502Y-153937793D01*
X95621164Y-153707627D01*
X95496599Y-153491873D01*
X95344938Y-153294224D01*
X95344933Y-153294218D01*
X95168781Y-153118066D01*
X95168774Y-153118060D01*
X94971134Y-152966406D01*
X94968616Y-152964724D01*
X94968033Y-152964027D01*
X94967907Y-152963930D01*
X94967928Y-152963901D01*
X94923808Y-152911115D01*
X94913500Y-152861617D01*
X94913500Y-131919583D01*
X94933185Y-131852544D01*
X94985989Y-131806789D01*
X95055147Y-131796845D01*
X95118703Y-131825870D01*
X95130707Y-131837800D01*
X95138771Y-131846991D01*
X95167480Y-131896716D01*
X95279284Y-132008520D01*
X95279286Y-132008521D01*
X95289217Y-132018452D01*
X95866241Y-132595476D01*
X95899726Y-132656799D01*
X95896492Y-132721473D01*
X95882753Y-132763757D01*
X95849500Y-132973713D01*
X95849500Y-133186286D01*
X95873561Y-133338205D01*
X95882754Y-133396243D01*
X95935393Y-133558249D01*
X95948444Y-133598414D01*
X96044951Y-133787820D01*
X96169890Y-133959786D01*
X96320213Y-134110109D01*
X96492182Y-134235050D01*
X96500946Y-134239516D01*
X96551742Y-134287491D01*
X96568536Y-134355312D01*
X96545998Y-134421447D01*
X96500946Y-134460484D01*
X96492182Y-134464949D01*
X96320213Y-134589890D01*
X96169890Y-134740213D01*
X96044951Y-134912179D01*
X95948444Y-135101585D01*
X95882753Y-135303760D01*
X95849500Y-135513713D01*
X95849500Y-135726286D01*
X95878971Y-135912363D01*
X95882754Y-135936243D01*
X95930971Y-136084640D01*
X95948444Y-136138414D01*
X96044951Y-136327820D01*
X96169890Y-136499786D01*
X96320213Y-136650109D01*
X96492182Y-136775050D01*
X96500946Y-136779516D01*
X96551742Y-136827491D01*
X96568536Y-136895312D01*
X96545998Y-136961447D01*
X96500946Y-137000484D01*
X96492182Y-137004949D01*
X96320213Y-137129890D01*
X96169890Y-137280213D01*
X96044951Y-137452179D01*
X95948444Y-137641585D01*
X95882753Y-137843760D01*
X95849500Y-138053713D01*
X95849500Y-138266286D01*
X95882753Y-138476239D01*
X95948444Y-138678414D01*
X96044951Y-138867820D01*
X96169890Y-139039786D01*
X96320213Y-139190109D01*
X96492182Y-139315050D01*
X96500946Y-139319516D01*
X96551742Y-139367491D01*
X96568536Y-139435312D01*
X96545998Y-139501447D01*
X96500946Y-139540484D01*
X96492182Y-139544949D01*
X96320213Y-139669890D01*
X96169890Y-139820213D01*
X96044951Y-139992179D01*
X95948444Y-140181585D01*
X95882753Y-140383760D01*
X95849500Y-140593713D01*
X95849500Y-140806286D01*
X95873177Y-140955781D01*
X95882754Y-141016243D01*
X95912048Y-141106401D01*
X95948444Y-141218414D01*
X96044951Y-141407820D01*
X96169890Y-141579786D01*
X96320213Y-141730109D01*
X96492182Y-141855050D01*
X96500946Y-141859516D01*
X96551742Y-141907491D01*
X96568536Y-141975312D01*
X96545998Y-142041447D01*
X96500946Y-142080484D01*
X96492182Y-142084949D01*
X96320213Y-142209890D01*
X96169890Y-142360213D01*
X96044951Y-142532179D01*
X95948444Y-142721585D01*
X95882753Y-142923760D01*
X95849500Y-143133713D01*
X95849500Y-143346286D01*
X95877910Y-143525663D01*
X95882754Y-143556243D01*
X95910648Y-143642093D01*
X95948444Y-143758414D01*
X96044951Y-143947820D01*
X96169890Y-144119786D01*
X96320213Y-144270109D01*
X96492179Y-144395048D01*
X96492181Y-144395049D01*
X96492184Y-144395051D01*
X96501493Y-144399794D01*
X96552290Y-144447766D01*
X96569087Y-144515587D01*
X96546552Y-144581722D01*
X96501505Y-144620760D01*
X96492446Y-144625376D01*
X96492440Y-144625380D01*
X96438282Y-144664727D01*
X96438282Y-144664728D01*
X97070591Y-145297037D01*
X97007007Y-145314075D01*
X96892993Y-145379901D01*
X96799901Y-145472993D01*
X96734075Y-145587007D01*
X96717037Y-145650591D01*
X96084728Y-145018282D01*
X96084727Y-145018282D01*
X96045380Y-145072439D01*
X95948904Y-145261782D01*
X95883242Y-145463869D01*
X95883242Y-145463872D01*
X95850000Y-145673753D01*
X95850000Y-145886246D01*
X95883242Y-146096127D01*
X95883242Y-146096130D01*
X95948904Y-146298217D01*
X96045375Y-146487550D01*
X96084728Y-146541716D01*
X96717037Y-145909408D01*
X96734075Y-145972993D01*
X96799901Y-146087007D01*
X96892993Y-146180099D01*
X97007007Y-146245925D01*
X97070590Y-146262962D01*
X96438282Y-146895269D01*
X96438282Y-146895270D01*
X96492449Y-146934624D01*
X96681782Y-147031095D01*
X96883870Y-147096757D01*
X97093754Y-147130000D01*
X97306246Y-147130000D01*
X97516127Y-147096757D01*
X97516130Y-147096757D01*
X97718217Y-147031095D01*
X97907554Y-146934622D01*
X97961716Y-146895270D01*
X97961717Y-146895270D01*
X97329408Y-146262962D01*
X97392993Y-146245925D01*
X97507007Y-146180099D01*
X97600099Y-146087007D01*
X97665925Y-145972993D01*
X97682962Y-145909408D01*
X98315270Y-146541717D01*
X98315270Y-146541716D01*
X98354622Y-146487554D01*
X98451095Y-146298217D01*
X98516757Y-146096130D01*
X98516757Y-146096127D01*
X98550000Y-145886246D01*
X98550000Y-145673753D01*
X98516757Y-145463872D01*
X98516757Y-145463869D01*
X98451095Y-145261782D01*
X98354624Y-145072449D01*
X98315270Y-145018282D01*
X98315269Y-145018282D01*
X97682962Y-145650590D01*
X97665925Y-145587007D01*
X97600099Y-145472993D01*
X97507007Y-145379901D01*
X97392993Y-145314075D01*
X97329409Y-145297037D01*
X97961716Y-144664728D01*
X97907547Y-144625373D01*
X97907547Y-144625372D01*
X97898500Y-144620763D01*
X97847706Y-144572788D01*
X97830912Y-144504966D01*
X97853451Y-144438832D01*
X97898508Y-144399793D01*
X97907816Y-144395051D01*
X97987007Y-144337515D01*
X98079786Y-144270109D01*
X98079788Y-144270106D01*
X98079792Y-144270104D01*
X98230104Y-144119792D01*
X98230106Y-144119788D01*
X98230109Y-144119786D01*
X98355048Y-143947820D01*
X98355047Y-143947820D01*
X98355051Y-143947816D01*
X98451557Y-143758412D01*
X98517246Y-143556243D01*
X98550500Y-143346287D01*
X98550500Y-143133713D01*
X98517246Y-142923757D01*
X98451557Y-142721588D01*
X98355051Y-142532184D01*
X98355049Y-142532181D01*
X98355048Y-142532179D01*
X98230109Y-142360213D01*
X98079786Y-142209890D01*
X97907820Y-142084951D01*
X97907115Y-142084591D01*
X97899054Y-142080485D01*
X97848259Y-142032512D01*
X97831463Y-141964692D01*
X97853999Y-141898556D01*
X97899054Y-141859515D01*
X97907816Y-141855051D01*
X97929789Y-141839086D01*
X98079786Y-141730109D01*
X98079788Y-141730106D01*
X98079792Y-141730104D01*
X98230104Y-141579792D01*
X98230106Y-141579788D01*
X98230109Y-141579786D01*
X98354311Y-141408834D01*
X98355051Y-141407816D01*
X98451557Y-141218412D01*
X98517246Y-141016243D01*
X98550500Y-140806287D01*
X98550500Y-140593713D01*
X98517246Y-140383757D01*
X98451557Y-140181588D01*
X98355051Y-139992184D01*
X98355049Y-139992181D01*
X98355048Y-139992179D01*
X98230109Y-139820213D01*
X98079786Y-139669890D01*
X97907820Y-139544951D01*
X97907115Y-139544591D01*
X97899054Y-139540485D01*
X97848259Y-139492512D01*
X97831463Y-139424692D01*
X97853999Y-139358556D01*
X97899054Y-139319515D01*
X97907816Y-139315051D01*
X97929789Y-139299086D01*
X98079786Y-139190109D01*
X98079788Y-139190106D01*
X98079792Y-139190104D01*
X98230104Y-139039792D01*
X98230106Y-139039788D01*
X98230109Y-139039786D01*
X98355048Y-138867820D01*
X98355047Y-138867820D01*
X98355051Y-138867816D01*
X98451557Y-138678412D01*
X98517246Y-138476243D01*
X98550500Y-138266287D01*
X98550500Y-138053713D01*
X98517246Y-137843757D01*
X98451557Y-137641588D01*
X98355051Y-137452184D01*
X98355049Y-137452181D01*
X98355048Y-137452179D01*
X98230109Y-137280213D01*
X98079786Y-137129890D01*
X97907820Y-137004951D01*
X97907115Y-137004591D01*
X97899054Y-137000485D01*
X97848259Y-136952512D01*
X97831463Y-136884692D01*
X97853999Y-136818556D01*
X97899054Y-136779515D01*
X97907816Y-136775051D01*
X97999879Y-136708164D01*
X98079786Y-136650109D01*
X98079788Y-136650106D01*
X98079792Y-136650104D01*
X98230104Y-136499792D01*
X98230106Y-136499788D01*
X98230109Y-136499786D01*
X98355048Y-136327820D01*
X98355047Y-136327820D01*
X98355051Y-136327816D01*
X98451557Y-136138412D01*
X98517246Y-135936243D01*
X98550500Y-135726287D01*
X98550500Y-135513713D01*
X98517246Y-135303757D01*
X98451557Y-135101588D01*
X98355051Y-134912184D01*
X98355049Y-134912181D01*
X98355048Y-134912179D01*
X98230109Y-134740213D01*
X98079786Y-134589890D01*
X97907820Y-134464951D01*
X97907115Y-134464591D01*
X97899054Y-134460485D01*
X97848259Y-134412512D01*
X97831463Y-134344692D01*
X97853999Y-134278556D01*
X97899054Y-134239515D01*
X97907816Y-134235051D01*
X98014382Y-134157627D01*
X98079786Y-134110109D01*
X98079788Y-134110106D01*
X98079792Y-134110104D01*
X98230104Y-133959792D01*
X98230106Y-133959788D01*
X98230109Y-133959786D01*
X98355048Y-133787820D01*
X98355047Y-133787820D01*
X98355051Y-133787816D01*
X98451557Y-133598412D01*
X98517246Y-133396243D01*
X98550500Y-133186287D01*
X98550500Y-132973713D01*
X98517246Y-132763757D01*
X98451557Y-132561588D01*
X98355051Y-132372184D01*
X98355049Y-132372181D01*
X98355048Y-132372179D01*
X98230109Y-132200213D01*
X98079786Y-132049890D01*
X97907820Y-131924951D01*
X97907115Y-131924591D01*
X97899054Y-131920485D01*
X97848259Y-131872512D01*
X97831463Y-131804692D01*
X97853999Y-131738556D01*
X97899054Y-131699515D01*
X97907816Y-131695051D01*
X97929789Y-131679086D01*
X98079786Y-131570109D01*
X98079788Y-131570106D01*
X98079792Y-131570104D01*
X98230104Y-131419792D01*
X98230106Y-131419788D01*
X98230109Y-131419786D01*
X98355048Y-131247820D01*
X98355047Y-131247820D01*
X98355051Y-131247816D01*
X98451557Y-131058412D01*
X98517246Y-130856243D01*
X98550500Y-130646287D01*
X98550500Y-130433713D01*
X98517246Y-130223757D01*
X98451557Y-130021588D01*
X98355051Y-129832184D01*
X98355049Y-129832181D01*
X98355048Y-129832179D01*
X98230109Y-129660213D01*
X98116569Y-129546673D01*
X98083084Y-129485350D01*
X98088068Y-129415658D01*
X98129940Y-129359725D01*
X98160915Y-129342810D01*
X98292331Y-129293796D01*
X98407546Y-129207546D01*
X98493796Y-129092331D01*
X98544091Y-128957483D01*
X98550500Y-128897873D01*
X98550499Y-127102128D01*
X98544091Y-127042517D01*
X98508937Y-126948265D01*
X98493797Y-126907671D01*
X98493793Y-126907664D01*
X98407547Y-126792455D01*
X98407544Y-126792452D01*
X98292335Y-126706206D01*
X98292328Y-126706202D01*
X98157482Y-126655908D01*
X98157483Y-126655908D01*
X98097883Y-126649501D01*
X98097881Y-126649500D01*
X98097873Y-126649500D01*
X98097865Y-126649500D01*
X97924500Y-126649500D01*
X97857461Y-126629815D01*
X97811706Y-126577011D01*
X97800500Y-126525500D01*
X97800500Y-112376059D01*
X97800501Y-112376046D01*
X97800501Y-112207945D01*
X97800501Y-112207943D01*
X97759577Y-112055215D01*
X97712443Y-111973577D01*
X97680520Y-111918284D01*
X97568716Y-111806480D01*
X97564385Y-111802149D01*
X97564374Y-111802139D01*
X95674901Y-109912666D01*
X95641416Y-109851343D01*
X95646400Y-109781651D01*
X95648000Y-109777583D01*
X95716502Y-109612207D01*
X95780982Y-109371565D01*
X95813500Y-109124565D01*
X95813500Y-108875435D01*
X95780982Y-108628435D01*
X95716502Y-108387793D01*
X95621164Y-108157627D01*
X95611373Y-108140669D01*
X95496599Y-107941873D01*
X95344939Y-107744225D01*
X95344933Y-107744218D01*
X95168781Y-107568066D01*
X95168774Y-107568060D01*
X94971126Y-107416400D01*
X94755376Y-107291837D01*
X94755361Y-107291830D01*
X94525207Y-107196498D01*
X94284561Y-107132017D01*
X94037575Y-107099501D01*
X94037570Y-107099500D01*
X94037565Y-107099500D01*
X93788435Y-107099500D01*
X93788429Y-107099500D01*
X93788424Y-107099501D01*
X93541438Y-107132017D01*
X93300792Y-107196498D01*
X93070638Y-107291830D01*
X93070623Y-107291837D01*
X92854873Y-107416400D01*
X92657225Y-107568060D01*
X92657218Y-107568066D01*
X92481066Y-107744218D01*
X92481060Y-107744225D01*
X92329400Y-107941873D01*
X92204837Y-108157623D01*
X92204830Y-108157638D01*
X92109498Y-108387792D01*
X92045017Y-108628438D01*
X92012501Y-108875424D01*
X92012500Y-108875441D01*
X92012500Y-109124558D01*
X92012501Y-109124575D01*
X92045017Y-109371561D01*
X92109498Y-109612207D01*
X92204830Y-109842361D01*
X92204837Y-109842376D01*
X92329400Y-110058126D01*
X92448249Y-110213014D01*
X92473443Y-110278183D01*
X92459404Y-110346628D01*
X92410590Y-110396618D01*
X92349873Y-110412500D01*
X91400097Y-110412500D01*
X91333058Y-110392815D01*
X91312416Y-110376181D01*
X90848901Y-109912666D01*
X90815416Y-109851343D01*
X90820400Y-109781651D01*
X90822000Y-109777583D01*
X90890502Y-109612207D01*
X90954982Y-109371565D01*
X90987500Y-109124565D01*
X90987500Y-108875435D01*
X90954982Y-108628435D01*
X90890502Y-108387793D01*
X90795164Y-108157627D01*
X90785373Y-108140669D01*
X90670599Y-107941873D01*
X90518939Y-107744225D01*
X90518933Y-107744218D01*
X90342781Y-107568066D01*
X90342774Y-107568060D01*
X90145126Y-107416400D01*
X89929376Y-107291837D01*
X89929361Y-107291830D01*
X89699207Y-107196498D01*
X89458561Y-107132017D01*
X89211575Y-107099501D01*
X89211570Y-107099500D01*
X89211565Y-107099500D01*
X88962435Y-107099500D01*
X88962429Y-107099500D01*
X88962424Y-107099501D01*
X88715438Y-107132017D01*
X88474792Y-107196498D01*
X88244638Y-107291830D01*
X88244623Y-107291837D01*
X88028873Y-107416400D01*
X87831225Y-107568060D01*
X87831218Y-107568066D01*
X87655066Y-107744218D01*
X87655060Y-107744225D01*
X87503400Y-107941873D01*
X87378837Y-108157623D01*
X87378830Y-108157638D01*
X87283498Y-108387792D01*
X87219017Y-108628438D01*
X87186501Y-108875424D01*
X87186500Y-108875441D01*
X87186500Y-109124558D01*
X87186501Y-109124575D01*
X87219017Y-109371561D01*
X87283498Y-109612207D01*
X87378830Y-109842361D01*
X87378837Y-109842376D01*
X87503400Y-110058126D01*
X87655060Y-110255774D01*
X87655066Y-110255781D01*
X87831218Y-110431933D01*
X87831225Y-110431939D01*
X88028875Y-110583601D01*
X88032250Y-110585856D01*
X88031264Y-110587330D01*
X88074502Y-110632655D01*
X88087740Y-110701259D01*
X88061787Y-110766129D01*
X88004882Y-110806671D01*
X87964299Y-110813500D01*
X84984098Y-110813500D01*
X84917059Y-110793815D01*
X84896417Y-110777181D01*
X84317048Y-110197812D01*
X83643437Y-109524202D01*
X83609953Y-109462880D01*
X83613187Y-109398205D01*
X83636015Y-109327951D01*
X83670500Y-109110222D01*
X83670500Y-108889778D01*
X83636015Y-108672049D01*
X83601955Y-108567221D01*
X83567896Y-108462396D01*
X83567895Y-108462393D01*
X83524005Y-108376256D01*
X83467815Y-108265978D01*
X83389091Y-108157623D01*
X83338247Y-108087641D01*
X83338243Y-108087636D01*
X83182363Y-107931756D01*
X83182358Y-107931752D01*
X83004025Y-107802187D01*
X83004024Y-107802186D01*
X83004022Y-107802185D01*
X82941096Y-107770122D01*
X82807606Y-107702104D01*
X82807603Y-107702103D01*
X82597952Y-107633985D01*
X82489086Y-107616742D01*
X82380222Y-107599500D01*
X82159778Y-107599500D01*
X82087201Y-107610995D01*
X81942047Y-107633985D01*
X81732396Y-107702103D01*
X81732393Y-107702104D01*
X81535974Y-107802187D01*
X81357641Y-107931752D01*
X81357636Y-107931756D01*
X81307075Y-107982317D01*
X81245752Y-108015801D01*
X81176060Y-108010816D01*
X81120127Y-107968945D01*
X81103213Y-107937968D01*
X81073354Y-107857913D01*
X81073350Y-107857906D01*
X80987190Y-107742812D01*
X80987187Y-107742809D01*
X80872093Y-107656649D01*
X80872086Y-107656645D01*
X80737379Y-107606403D01*
X80737372Y-107606401D01*
X80677844Y-107600000D01*
X79980000Y-107600000D01*
X79980000Y-108624722D01*
X79903694Y-108580667D01*
X79789244Y-108550000D01*
X79670756Y-108550000D01*
X79556306Y-108580667D01*
X79480000Y-108624722D01*
X79480000Y-107600000D01*
X78782155Y-107600000D01*
X78722627Y-107606401D01*
X78722620Y-107606403D01*
X78587913Y-107656645D01*
X78587906Y-107656649D01*
X78472812Y-107742809D01*
X78472809Y-107742812D01*
X78386649Y-107857906D01*
X78386645Y-107857913D01*
X78336403Y-107992620D01*
X78336401Y-107992627D01*
X78330000Y-108052155D01*
X72528877Y-108052155D01*
X72490618Y-107959792D01*
X72472212Y-107915356D01*
X72472209Y-107915351D01*
X72472208Y-107915348D01*
X72350272Y-107704151D01*
X72350268Y-107704144D01*
X72201799Y-107510655D01*
X72201794Y-107510649D01*
X72029350Y-107338205D01*
X72029343Y-107338199D01*
X71835864Y-107189738D01*
X71835862Y-107189736D01*
X71835856Y-107189732D01*
X71835851Y-107189729D01*
X71835848Y-107189727D01*
X71624651Y-107067791D01*
X71624640Y-107067786D01*
X71399330Y-106974459D01*
X71399323Y-106974457D01*
X71399321Y-106974456D01*
X71163744Y-106911334D01*
X71123333Y-106906013D01*
X70921951Y-106879500D01*
X70921944Y-106879500D01*
X70678056Y-106879500D01*
X70678048Y-106879500D01*
X70447896Y-106909801D01*
X70436256Y-106911334D01*
X70203452Y-106973713D01*
X70200679Y-106974456D01*
X70200669Y-106974459D01*
X69975359Y-107067786D01*
X69975348Y-107067791D01*
X69764151Y-107189727D01*
X69764135Y-107189738D01*
X69570656Y-107338199D01*
X69570649Y-107338205D01*
X69398205Y-107510649D01*
X69398199Y-107510656D01*
X69249738Y-107704135D01*
X69249727Y-107704151D01*
X69127791Y-107915348D01*
X69127786Y-107915359D01*
X69034459Y-108140669D01*
X69034456Y-108140679D01*
X68973428Y-108368443D01*
X68971335Y-108376253D01*
X68971333Y-108376264D01*
X68939500Y-108618048D01*
X66101500Y-108618048D01*
X66101500Y-104175466D01*
X87187000Y-104175466D01*
X87187000Y-104424533D01*
X87219508Y-104671463D01*
X87283973Y-104912049D01*
X87379283Y-105142148D01*
X87379288Y-105142159D01*
X87503813Y-105357841D01*
X87503819Y-105357849D01*
X87578400Y-105455045D01*
X88296521Y-104736923D01*
X88387924Y-104873717D01*
X88513283Y-104999076D01*
X88650074Y-105090477D01*
X87931953Y-105808598D01*
X88029150Y-105883180D01*
X88029158Y-105883186D01*
X88244840Y-106007711D01*
X88244851Y-106007716D01*
X88474950Y-106103026D01*
X88715536Y-106167491D01*
X88962466Y-106200000D01*
X89211534Y-106200000D01*
X89458463Y-106167491D01*
X89699049Y-106103026D01*
X89929148Y-106007716D01*
X89929159Y-106007711D01*
X90144855Y-105883178D01*
X90242045Y-105808600D01*
X90242045Y-105808597D01*
X89523924Y-105090477D01*
X89660717Y-104999076D01*
X89786076Y-104873717D01*
X89877477Y-104736924D01*
X90595597Y-105455045D01*
X90595600Y-105455045D01*
X90670178Y-105357855D01*
X90794711Y-105142159D01*
X90794716Y-105142148D01*
X90890026Y-104912049D01*
X90954491Y-104671463D01*
X90987000Y-104424533D01*
X90987000Y-104175466D01*
X92013000Y-104175466D01*
X92013000Y-104424533D01*
X92045508Y-104671463D01*
X92109973Y-104912049D01*
X92205283Y-105142148D01*
X92205288Y-105142159D01*
X92329813Y-105357841D01*
X92329819Y-105357849D01*
X92404400Y-105455045D01*
X93122521Y-104736923D01*
X93213924Y-104873717D01*
X93339283Y-104999076D01*
X93476074Y-105090477D01*
X92757953Y-105808598D01*
X92855150Y-105883180D01*
X92855158Y-105883186D01*
X93070840Y-106007711D01*
X93070851Y-106007716D01*
X93300950Y-106103026D01*
X93541536Y-106167491D01*
X93788466Y-106200000D01*
X94037534Y-106200000D01*
X94284463Y-106167491D01*
X94525049Y-106103026D01*
X94755148Y-106007716D01*
X94755159Y-106007711D01*
X94970855Y-105883178D01*
X95068045Y-105808600D01*
X95068045Y-105808597D01*
X94349924Y-105090477D01*
X94486717Y-104999076D01*
X94612076Y-104873717D01*
X94703477Y-104736925D01*
X95421597Y-105455045D01*
X95421600Y-105455045D01*
X95496178Y-105357855D01*
X95620711Y-105142159D01*
X95620716Y-105142148D01*
X95716026Y-104912049D01*
X95780491Y-104671463D01*
X95813000Y-104424533D01*
X95813000Y-104175466D01*
X95780491Y-103928536D01*
X95716026Y-103687950D01*
X95620716Y-103457851D01*
X95620711Y-103457840D01*
X95496186Y-103242158D01*
X95496180Y-103242150D01*
X95421598Y-103144953D01*
X94703477Y-103863074D01*
X94612076Y-103726283D01*
X94486717Y-103600924D01*
X94349923Y-103509521D01*
X95068045Y-102791400D01*
X94970849Y-102716819D01*
X94970841Y-102716813D01*
X94755159Y-102592288D01*
X94755148Y-102592283D01*
X94525049Y-102496973D01*
X94284463Y-102432508D01*
X94037534Y-102400000D01*
X93788466Y-102400000D01*
X93541536Y-102432508D01*
X93300950Y-102496973D01*
X93070851Y-102592283D01*
X93070847Y-102592285D01*
X92855143Y-102716823D01*
X92757953Y-102791399D01*
X92757953Y-102791400D01*
X93476075Y-103509522D01*
X93339283Y-103600924D01*
X93213924Y-103726283D01*
X93122522Y-103863075D01*
X92404400Y-103144953D01*
X92404399Y-103144953D01*
X92329823Y-103242143D01*
X92205285Y-103457847D01*
X92205283Y-103457851D01*
X92109973Y-103687950D01*
X92045508Y-103928536D01*
X92013000Y-104175466D01*
X90987000Y-104175466D01*
X90954491Y-103928536D01*
X90890026Y-103687950D01*
X90794716Y-103457851D01*
X90794711Y-103457840D01*
X90670186Y-103242158D01*
X90670180Y-103242150D01*
X90595598Y-103144953D01*
X89877477Y-103863074D01*
X89786076Y-103726283D01*
X89660717Y-103600924D01*
X89523923Y-103509521D01*
X90242045Y-102791400D01*
X90144849Y-102716819D01*
X90144841Y-102716813D01*
X89929159Y-102592288D01*
X89929148Y-102592283D01*
X89699049Y-102496973D01*
X89458463Y-102432508D01*
X89211534Y-102400000D01*
X88962466Y-102400000D01*
X88715536Y-102432508D01*
X88474950Y-102496973D01*
X88244851Y-102592283D01*
X88244847Y-102592285D01*
X88029143Y-102716823D01*
X87931953Y-102791399D01*
X87931953Y-102791400D01*
X88650075Y-103509522D01*
X88513283Y-103600924D01*
X88387924Y-103726283D01*
X88296522Y-103863075D01*
X87578400Y-103144953D01*
X87578399Y-103144953D01*
X87503823Y-103242143D01*
X87379285Y-103457847D01*
X87379283Y-103457851D01*
X87283973Y-103687950D01*
X87219508Y-103928536D01*
X87187000Y-104175466D01*
X66101500Y-104175466D01*
X66101500Y-102197648D01*
X68509500Y-102197648D01*
X68509500Y-102402351D01*
X68541522Y-102604534D01*
X68604781Y-102799223D01*
X68697715Y-102981613D01*
X68818028Y-103147213D01*
X68962786Y-103291971D01*
X69089859Y-103384293D01*
X69128390Y-103412287D01*
X69244607Y-103471503D01*
X69310776Y-103505218D01*
X69310778Y-103505218D01*
X69310781Y-103505220D01*
X69415137Y-103539127D01*
X69505465Y-103568477D01*
X69606557Y-103584488D01*
X69707648Y-103600500D01*
X69707649Y-103600500D01*
X69912351Y-103600500D01*
X69912352Y-103600500D01*
X70114534Y-103568477D01*
X70309219Y-103505220D01*
X70491610Y-103412287D01*
X70655309Y-103293354D01*
X70657213Y-103291971D01*
X70657215Y-103291968D01*
X70657219Y-103291966D01*
X70801966Y-103147219D01*
X70801968Y-103147215D01*
X70801971Y-103147213D01*
X70854732Y-103074590D01*
X70922287Y-102981610D01*
X71015220Y-102799219D01*
X71078477Y-102604534D01*
X71110500Y-102402352D01*
X71110500Y-102197648D01*
X71078477Y-101995466D01*
X71015220Y-101800781D01*
X71015218Y-101800778D01*
X71015218Y-101800776D01*
X70960299Y-101692993D01*
X70922287Y-101618390D01*
X70908854Y-101599901D01*
X70801971Y-101452786D01*
X70657213Y-101308028D01*
X70491613Y-101187715D01*
X70491612Y-101187714D01*
X70491610Y-101187713D01*
X70434653Y-101158691D01*
X70309223Y-101094781D01*
X70114534Y-101031522D01*
X69939995Y-101003878D01*
X69912352Y-100999500D01*
X69707648Y-100999500D01*
X69683329Y-101003351D01*
X69505465Y-101031522D01*
X69310776Y-101094781D01*
X69128386Y-101187715D01*
X68962786Y-101308028D01*
X68818028Y-101452786D01*
X68697715Y-101618386D01*
X68604781Y-101800776D01*
X68541522Y-101995465D01*
X68509500Y-102197648D01*
X66101500Y-102197648D01*
X66101500Y-85364783D01*
X66121185Y-85297744D01*
X66137819Y-85277102D01*
X66362766Y-85052155D01*
X68330000Y-85052155D01*
X68330000Y-85750000D01*
X69354722Y-85750000D01*
X69310667Y-85826306D01*
X69280000Y-85940756D01*
X69280000Y-86059244D01*
X69310667Y-86173694D01*
X69354722Y-86250000D01*
X68330000Y-86250000D01*
X68330000Y-86947844D01*
X68336401Y-87007372D01*
X68336403Y-87007379D01*
X68386645Y-87142086D01*
X68386649Y-87142093D01*
X68472809Y-87257187D01*
X68472812Y-87257190D01*
X68587906Y-87343350D01*
X68587913Y-87343354D01*
X68722620Y-87393596D01*
X68722627Y-87393598D01*
X68782155Y-87399999D01*
X68782172Y-87400000D01*
X69480000Y-87400000D01*
X69480000Y-86375277D01*
X69556306Y-86419333D01*
X69670756Y-86450000D01*
X69789244Y-86450000D01*
X69903694Y-86419333D01*
X69980000Y-86375277D01*
X69980000Y-87400000D01*
X70677828Y-87400000D01*
X70677844Y-87399999D01*
X70737372Y-87393598D01*
X70737379Y-87393596D01*
X70872086Y-87343354D01*
X70872093Y-87343350D01*
X70987187Y-87257190D01*
X70987190Y-87257187D01*
X71073350Y-87142093D01*
X71073354Y-87142086D01*
X71103213Y-87062031D01*
X71145084Y-87006097D01*
X71210548Y-86981680D01*
X71278821Y-86996531D01*
X71307076Y-87017683D01*
X71357636Y-87068243D01*
X71357641Y-87068247D01*
X71513192Y-87181260D01*
X71535978Y-87197815D01*
X71652501Y-87257187D01*
X71732393Y-87297895D01*
X71732396Y-87297896D01*
X71799525Y-87319707D01*
X71942049Y-87366015D01*
X72159778Y-87400500D01*
X72159779Y-87400500D01*
X72380221Y-87400500D01*
X72380222Y-87400500D01*
X72597951Y-87366015D01*
X72668205Y-87343187D01*
X72738044Y-87341192D01*
X72794203Y-87373438D01*
X74085139Y-88664374D01*
X74085149Y-88664385D01*
X74089479Y-88668715D01*
X74089480Y-88668716D01*
X74201284Y-88780520D01*
X74288095Y-88830639D01*
X74288097Y-88830641D01*
X74338213Y-88859576D01*
X74338215Y-88859577D01*
X74490942Y-88900500D01*
X74490943Y-88900500D01*
X81763331Y-88900500D01*
X81763347Y-88900501D01*
X81770943Y-88900501D01*
X81929054Y-88900501D01*
X81929057Y-88900501D01*
X82081785Y-88859577D01*
X82131904Y-88830639D01*
X82218716Y-88780520D01*
X82330520Y-88668716D01*
X82330520Y-88668714D01*
X82340728Y-88658507D01*
X82340729Y-88658504D01*
X84612417Y-86386819D01*
X84673740Y-86353334D01*
X84700098Y-86350500D01*
X87699423Y-86350500D01*
X87766462Y-86370185D01*
X87812217Y-86422989D01*
X87822161Y-86492147D01*
X87793136Y-86555703D01*
X87787104Y-86562181D01*
X87655066Y-86694218D01*
X87655060Y-86694225D01*
X87503400Y-86891873D01*
X87378837Y-87107623D01*
X87378830Y-87107638D01*
X87283498Y-87337792D01*
X87219017Y-87578438D01*
X87186501Y-87825424D01*
X87186500Y-87825441D01*
X87186500Y-88074558D01*
X87186501Y-88074575D01*
X87219017Y-88321561D01*
X87283498Y-88562207D01*
X87378830Y-88792361D01*
X87378837Y-88792376D01*
X87503400Y-89008126D01*
X87655060Y-89205774D01*
X87655066Y-89205781D01*
X87831218Y-89381933D01*
X87831225Y-89381939D01*
X88028873Y-89533599D01*
X88244623Y-89658162D01*
X88244638Y-89658169D01*
X88343825Y-89699253D01*
X88474793Y-89753502D01*
X88715435Y-89817982D01*
X88962435Y-89850500D01*
X88962442Y-89850500D01*
X89211558Y-89850500D01*
X89211565Y-89850500D01*
X89458565Y-89817982D01*
X89699207Y-89753502D01*
X89929373Y-89658164D01*
X90145127Y-89533599D01*
X90342776Y-89381938D01*
X90518938Y-89205776D01*
X90670599Y-89008127D01*
X90795164Y-88792373D01*
X90890502Y-88562207D01*
X90954982Y-88321565D01*
X90987500Y-88074565D01*
X90987500Y-87825435D01*
X90954982Y-87578435D01*
X90890502Y-87337793D01*
X90832520Y-87197812D01*
X90795169Y-87107638D01*
X90795162Y-87107623D01*
X90670599Y-86891873D01*
X90518939Y-86694225D01*
X90518933Y-86694218D01*
X90386896Y-86562181D01*
X90353411Y-86500858D01*
X90358395Y-86431166D01*
X90400267Y-86375233D01*
X90465731Y-86350816D01*
X90474577Y-86350500D01*
X92525423Y-86350500D01*
X92592462Y-86370185D01*
X92638217Y-86422989D01*
X92648161Y-86492147D01*
X92619136Y-86555703D01*
X92613104Y-86562181D01*
X92481066Y-86694218D01*
X92481060Y-86694225D01*
X92329400Y-86891873D01*
X92204837Y-87107623D01*
X92204830Y-87107638D01*
X92109498Y-87337792D01*
X92045017Y-87578438D01*
X92012501Y-87825424D01*
X92012500Y-87825441D01*
X92012500Y-88074558D01*
X92012501Y-88074575D01*
X92045017Y-88321561D01*
X92109498Y-88562207D01*
X92204830Y-88792361D01*
X92204837Y-88792376D01*
X92329400Y-89008126D01*
X92481060Y-89205774D01*
X92481066Y-89205781D01*
X92657218Y-89381933D01*
X92657225Y-89381939D01*
X92854873Y-89533599D01*
X93070623Y-89658162D01*
X93070638Y-89658169D01*
X93169825Y-89699253D01*
X93300793Y-89753502D01*
X93541435Y-89817982D01*
X93788435Y-89850500D01*
X93788442Y-89850500D01*
X94037558Y-89850500D01*
X94037565Y-89850500D01*
X94284565Y-89817982D01*
X94525207Y-89753502D01*
X94755373Y-89658164D01*
X94971127Y-89533599D01*
X95168776Y-89381938D01*
X95344938Y-89205776D01*
X95496599Y-89008127D01*
X95621164Y-88792373D01*
X95716502Y-88562207D01*
X95780982Y-88321565D01*
X95813500Y-88074565D01*
X95813500Y-87825435D01*
X95780982Y-87578435D01*
X95716502Y-87337793D01*
X95658520Y-87197812D01*
X95621169Y-87107638D01*
X95621162Y-87107623D01*
X95496599Y-86891873D01*
X95344939Y-86694225D01*
X95344933Y-86694218D01*
X95168781Y-86518066D01*
X95168769Y-86518055D01*
X95165917Y-86515867D01*
X95146574Y-86489376D01*
X95126288Y-86463580D01*
X95126069Y-86461294D01*
X95124715Y-86459439D01*
X95122764Y-86426683D01*
X95119646Y-86394026D01*
X95120698Y-86391984D01*
X95120562Y-86389693D01*
X95136627Y-86361085D01*
X95151662Y-86331924D01*
X95154068Y-86330031D01*
X95154775Y-86328773D01*
X95179405Y-86310106D01*
X95236311Y-86277251D01*
X95317252Y-86230520D01*
X95429056Y-86118716D01*
X95429056Y-86118714D01*
X95439260Y-86108511D01*
X95439264Y-86108505D01*
X96771506Y-84776261D01*
X96771511Y-84776258D01*
X96781714Y-84766054D01*
X96781716Y-84766054D01*
X96893520Y-84654250D01*
X96972577Y-84517318D01*
X97013500Y-84364591D01*
X97013500Y-82303523D01*
X97013501Y-82303510D01*
X97013501Y-82135407D01*
X97013501Y-82135406D01*
X96972577Y-81982679D01*
X96943639Y-81932559D01*
X96893520Y-81845748D01*
X96781716Y-81733944D01*
X96781715Y-81733943D01*
X96777385Y-81729613D01*
X96777374Y-81729603D01*
X95267251Y-80219481D01*
X95267246Y-80219477D01*
X95131926Y-80141351D01*
X95083711Y-80090785D01*
X95079366Y-80069919D01*
X94349924Y-79340477D01*
X94486717Y-79249076D01*
X94612076Y-79123717D01*
X94703477Y-78986925D01*
X95421597Y-79705045D01*
X95421600Y-79705045D01*
X95496178Y-79607855D01*
X95620711Y-79392159D01*
X95620716Y-79392148D01*
X95716026Y-79162049D01*
X95780491Y-78921463D01*
X95813000Y-78674533D01*
X95813000Y-78425466D01*
X95780491Y-78178536D01*
X95716026Y-77937950D01*
X95620716Y-77707851D01*
X95620711Y-77707840D01*
X95496186Y-77492158D01*
X95496180Y-77492150D01*
X95421598Y-77394953D01*
X94703477Y-78113074D01*
X94612076Y-77976283D01*
X94486717Y-77850924D01*
X94349923Y-77759521D01*
X95068045Y-77041400D01*
X94970849Y-76966819D01*
X94970841Y-76966813D01*
X94755159Y-76842288D01*
X94755148Y-76842283D01*
X94525049Y-76746973D01*
X94284463Y-76682508D01*
X94037534Y-76650000D01*
X93788466Y-76650000D01*
X93541536Y-76682508D01*
X93300950Y-76746973D01*
X93070851Y-76842283D01*
X93070840Y-76842288D01*
X92886500Y-76948718D01*
X92818600Y-76965191D01*
X92752573Y-76942338D01*
X92709382Y-76887417D01*
X92700500Y-76841331D01*
X92700500Y-63020096D01*
X92720185Y-62953057D01*
X92736814Y-62932420D01*
X95637819Y-60031414D01*
X95699142Y-59997930D01*
X95768834Y-60002914D01*
X95824767Y-60044786D01*
X95849184Y-60110250D01*
X95849500Y-60119096D01*
X95849500Y-60266286D01*
X95882753Y-60476239D01*
X95882753Y-60476241D01*
X95882754Y-60476243D01*
X95928829Y-60618048D01*
X95948444Y-60678414D01*
X96044951Y-60867820D01*
X96169890Y-61039786D01*
X96320213Y-61190109D01*
X96492182Y-61315050D01*
X96500946Y-61319516D01*
X96551742Y-61367491D01*
X96568536Y-61435312D01*
X96545998Y-61501447D01*
X96500946Y-61540484D01*
X96492182Y-61544949D01*
X96320213Y-61669890D01*
X96169890Y-61820213D01*
X96044951Y-61992179D01*
X95948444Y-62181585D01*
X95882753Y-62383760D01*
X95859302Y-62531827D01*
X95849500Y-62593713D01*
X95849500Y-62806287D01*
X95850131Y-62810268D01*
X95882753Y-63016239D01*
X95882753Y-63016241D01*
X95882754Y-63016243D01*
X95937431Y-63184522D01*
X95948444Y-63218414D01*
X96044951Y-63407820D01*
X96169890Y-63579786D01*
X96320213Y-63730109D01*
X96492182Y-63855050D01*
X96500946Y-63859516D01*
X96551742Y-63907491D01*
X96568536Y-63975312D01*
X96545998Y-64041447D01*
X96500946Y-64080484D01*
X96492182Y-64084949D01*
X96320213Y-64209890D01*
X96169890Y-64360213D01*
X96044951Y-64532179D01*
X95948444Y-64721585D01*
X95882753Y-64923760D01*
X95849500Y-65133713D01*
X95849500Y-65346286D01*
X95882753Y-65556239D01*
X95948444Y-65758414D01*
X96044951Y-65947820D01*
X96169890Y-66119786D01*
X96320213Y-66270109D01*
X96492179Y-66395048D01*
X96492181Y-66395049D01*
X96492184Y-66395051D01*
X96501493Y-66399794D01*
X96552290Y-66447766D01*
X96569087Y-66515587D01*
X96546552Y-66581722D01*
X96501505Y-66620760D01*
X96492446Y-66625376D01*
X96492440Y-66625380D01*
X96438282Y-66664727D01*
X96438282Y-66664728D01*
X97070591Y-67297037D01*
X97007007Y-67314075D01*
X96892993Y-67379901D01*
X96799901Y-67472993D01*
X96734075Y-67587007D01*
X96717037Y-67650591D01*
X96084728Y-67018282D01*
X96084727Y-67018282D01*
X96045380Y-67072439D01*
X95948904Y-67261782D01*
X95883242Y-67463869D01*
X95883242Y-67463872D01*
X95850000Y-67673753D01*
X95850000Y-67886246D01*
X95883242Y-68096127D01*
X95883242Y-68096130D01*
X95948904Y-68298217D01*
X96045375Y-68487550D01*
X96084728Y-68541716D01*
X96717037Y-67909408D01*
X96734075Y-67972993D01*
X96799901Y-68087007D01*
X96892993Y-68180099D01*
X97007007Y-68245925D01*
X97070590Y-68262962D01*
X96438282Y-68895269D01*
X96438282Y-68895270D01*
X96492449Y-68934624D01*
X96681782Y-69031095D01*
X96883870Y-69096757D01*
X97093754Y-69130000D01*
X97306246Y-69130000D01*
X97516127Y-69096757D01*
X97516130Y-69096757D01*
X97718217Y-69031095D01*
X97907554Y-68934622D01*
X97961716Y-68895270D01*
X97961717Y-68895270D01*
X97329408Y-68262962D01*
X97392993Y-68245925D01*
X97507007Y-68180099D01*
X97600099Y-68087007D01*
X97665925Y-67972993D01*
X97682962Y-67909408D01*
X98315270Y-68541717D01*
X98315270Y-68541716D01*
X98354622Y-68487554D01*
X98451095Y-68298217D01*
X98516757Y-68096130D01*
X98516757Y-68096127D01*
X98550000Y-67886246D01*
X98550000Y-67673753D01*
X98516757Y-67463872D01*
X98516757Y-67463869D01*
X98451095Y-67261782D01*
X98354624Y-67072449D01*
X98315270Y-67018282D01*
X98315269Y-67018282D01*
X97682962Y-67650590D01*
X97665925Y-67587007D01*
X97600099Y-67472993D01*
X97507007Y-67379901D01*
X97392993Y-67314075D01*
X97329409Y-67297037D01*
X97961716Y-66664728D01*
X97907547Y-66625373D01*
X97907547Y-66625372D01*
X97898500Y-66620763D01*
X97847706Y-66572788D01*
X97830912Y-66504966D01*
X97853451Y-66438832D01*
X97898508Y-66399793D01*
X97907816Y-66395051D01*
X97987007Y-66337515D01*
X98079786Y-66270109D01*
X98079788Y-66270106D01*
X98079792Y-66270104D01*
X98230104Y-66119792D01*
X98230106Y-66119788D01*
X98230109Y-66119786D01*
X98355048Y-65947820D01*
X98355047Y-65947820D01*
X98355051Y-65947816D01*
X98451557Y-65758412D01*
X98517246Y-65556243D01*
X98550500Y-65346287D01*
X98550500Y-65133713D01*
X98517246Y-64923757D01*
X98451557Y-64721588D01*
X98355051Y-64532184D01*
X98355049Y-64532181D01*
X98355048Y-64532179D01*
X98230109Y-64360213D01*
X98079786Y-64209890D01*
X97907820Y-64084951D01*
X97907115Y-64084591D01*
X97899054Y-64080485D01*
X97848259Y-64032512D01*
X97831463Y-63964692D01*
X97853999Y-63898556D01*
X97899054Y-63859515D01*
X97907816Y-63855051D01*
X97929789Y-63839086D01*
X98079786Y-63730109D01*
X98079788Y-63730106D01*
X98079792Y-63730104D01*
X98230104Y-63579792D01*
X98230106Y-63579788D01*
X98230109Y-63579786D01*
X98355048Y-63407820D01*
X98355047Y-63407820D01*
X98355051Y-63407816D01*
X98451557Y-63218412D01*
X98517246Y-63016243D01*
X98550500Y-62806287D01*
X98550500Y-62593713D01*
X98517246Y-62383757D01*
X98451557Y-62181588D01*
X98355051Y-61992184D01*
X98355049Y-61992181D01*
X98355048Y-61992179D01*
X98230109Y-61820213D01*
X98079786Y-61669890D01*
X97907820Y-61544951D01*
X97907115Y-61544591D01*
X97899054Y-61540485D01*
X97848259Y-61492512D01*
X97831463Y-61424692D01*
X97853999Y-61358556D01*
X97899054Y-61319515D01*
X97907816Y-61315051D01*
X97929789Y-61299086D01*
X98079786Y-61190109D01*
X98079788Y-61190106D01*
X98079792Y-61190104D01*
X98230104Y-61039792D01*
X98230106Y-61039788D01*
X98230109Y-61039786D01*
X98355048Y-60867820D01*
X98355047Y-60867820D01*
X98355051Y-60867816D01*
X98451557Y-60678412D01*
X98517246Y-60476243D01*
X98550500Y-60266287D01*
X98550500Y-60053713D01*
X98517246Y-59843757D01*
X98451557Y-59641588D01*
X98355051Y-59452184D01*
X98355049Y-59452181D01*
X98355048Y-59452179D01*
X98230109Y-59280213D01*
X98079786Y-59129890D01*
X97907820Y-59004951D01*
X97907115Y-59004591D01*
X97899054Y-59000485D01*
X97848259Y-58952512D01*
X97831463Y-58884692D01*
X97853999Y-58818556D01*
X97899054Y-58779515D01*
X97907816Y-58775051D01*
X98048200Y-58673057D01*
X98079786Y-58650109D01*
X98079788Y-58650106D01*
X98079792Y-58650104D01*
X98230104Y-58499792D01*
X98230106Y-58499788D01*
X98230109Y-58499786D01*
X98355048Y-58327820D01*
X98355047Y-58327820D01*
X98355051Y-58327816D01*
X98451557Y-58138412D01*
X98517246Y-57936243D01*
X98550500Y-57726287D01*
X98550500Y-57513713D01*
X98517246Y-57303757D01*
X98451557Y-57101588D01*
X98355051Y-56912184D01*
X98355049Y-56912181D01*
X98355048Y-56912179D01*
X98230109Y-56740213D01*
X98079786Y-56589890D01*
X97907820Y-56464951D01*
X97907115Y-56464591D01*
X97899054Y-56460485D01*
X97848259Y-56412512D01*
X97831463Y-56344692D01*
X97853999Y-56278556D01*
X97899054Y-56239515D01*
X97907816Y-56235051D01*
X97929789Y-56219086D01*
X98079786Y-56110109D01*
X98079788Y-56110106D01*
X98079792Y-56110104D01*
X98230104Y-55959792D01*
X98230106Y-55959788D01*
X98230109Y-55959786D01*
X98355048Y-55787820D01*
X98355047Y-55787820D01*
X98355051Y-55787816D01*
X98451557Y-55598412D01*
X98517246Y-55396243D01*
X98550500Y-55186287D01*
X98550500Y-54973713D01*
X98517246Y-54763757D01*
X98451557Y-54561588D01*
X98355051Y-54372184D01*
X98355049Y-54372181D01*
X98355048Y-54372179D01*
X98230109Y-54200213D01*
X98079786Y-54049890D01*
X97907820Y-53924951D01*
X97907115Y-53924591D01*
X97899054Y-53920485D01*
X97848259Y-53872512D01*
X97831463Y-53804692D01*
X97853999Y-53738556D01*
X97899054Y-53699515D01*
X97907816Y-53695051D01*
X97970512Y-53649500D01*
X98079786Y-53570109D01*
X98079788Y-53570106D01*
X98079792Y-53570104D01*
X98230104Y-53419792D01*
X98230106Y-53419788D01*
X98230109Y-53419786D01*
X98355048Y-53247820D01*
X98355047Y-53247820D01*
X98355051Y-53247816D01*
X98451557Y-53058412D01*
X98517246Y-52856243D01*
X98550500Y-52646287D01*
X98550500Y-52433713D01*
X98517246Y-52223757D01*
X98451557Y-52021588D01*
X98355051Y-51832184D01*
X98355049Y-51832181D01*
X98355048Y-51832179D01*
X98230109Y-51660213D01*
X98116569Y-51546673D01*
X98083084Y-51485350D01*
X98088068Y-51415658D01*
X98129940Y-51359725D01*
X98160915Y-51342810D01*
X98292331Y-51293796D01*
X98407546Y-51207546D01*
X98493796Y-51092331D01*
X98544091Y-50957483D01*
X98550500Y-50897873D01*
X98550499Y-49102128D01*
X98544091Y-49042517D01*
X98507893Y-48945466D01*
X98493797Y-48907671D01*
X98493793Y-48907664D01*
X98407547Y-48792455D01*
X98407544Y-48792452D01*
X98292335Y-48706206D01*
X98292328Y-48706202D01*
X98157482Y-48655908D01*
X98157483Y-48655908D01*
X98097883Y-48649501D01*
X98097881Y-48649500D01*
X98097873Y-48649500D01*
X98097864Y-48649500D01*
X96302129Y-48649500D01*
X96302123Y-48649501D01*
X96242516Y-48655908D01*
X96107671Y-48706202D01*
X96107664Y-48706206D01*
X95992455Y-48792452D01*
X95992452Y-48792455D01*
X95906206Y-48907664D01*
X95906202Y-48907671D01*
X95855908Y-49042517D01*
X95849501Y-49102116D01*
X95849501Y-49102123D01*
X95849500Y-49102135D01*
X95849500Y-50449902D01*
X95829815Y-50516941D01*
X95813181Y-50537583D01*
X90419481Y-55931282D01*
X90419479Y-55931285D01*
X90369361Y-56018094D01*
X90369359Y-56018096D01*
X90340425Y-56068209D01*
X90340424Y-56068210D01*
X90340423Y-56068215D01*
X90299499Y-56220943D01*
X90299499Y-56220945D01*
X90299499Y-56389046D01*
X90299500Y-56389059D01*
X90299500Y-76841331D01*
X90279815Y-76908370D01*
X90227011Y-76954125D01*
X90157853Y-76964069D01*
X90113500Y-76948718D01*
X89929159Y-76842288D01*
X89929148Y-76842283D01*
X89699049Y-76746973D01*
X89458463Y-76682508D01*
X89211534Y-76650000D01*
X88962466Y-76650000D01*
X88715536Y-76682508D01*
X88474950Y-76746973D01*
X88244851Y-76842283D01*
X88244847Y-76842285D01*
X88029143Y-76966823D01*
X87931953Y-77041399D01*
X87931953Y-77041400D01*
X88650075Y-77759522D01*
X88513283Y-77850924D01*
X88387924Y-77976283D01*
X88296522Y-78113075D01*
X87578400Y-77394953D01*
X87578399Y-77394953D01*
X87503823Y-77492143D01*
X87379285Y-77707847D01*
X87379283Y-77707851D01*
X87283973Y-77937950D01*
X87219508Y-78178536D01*
X87187000Y-78425466D01*
X87187000Y-78674533D01*
X87219508Y-78921463D01*
X87283973Y-79162049D01*
X87379283Y-79392148D01*
X87379288Y-79392159D01*
X87503813Y-79607841D01*
X87503819Y-79607849D01*
X87578400Y-79705045D01*
X88296521Y-78986923D01*
X88387924Y-79123717D01*
X88513283Y-79249076D01*
X88650074Y-79340476D01*
X87931953Y-80058597D01*
X87931953Y-80058598D01*
X88029150Y-80133180D01*
X88029158Y-80133186D01*
X88244840Y-80257711D01*
X88244851Y-80257716D01*
X88474950Y-80353026D01*
X88715536Y-80417491D01*
X88962466Y-80450000D01*
X89211534Y-80450000D01*
X89458463Y-80417491D01*
X89699049Y-80353026D01*
X89929148Y-80257716D01*
X89929152Y-80257714D01*
X90113498Y-80151281D01*
X90118336Y-80150107D01*
X90122041Y-80146783D01*
X90151946Y-80141953D01*
X90181398Y-80134808D01*
X90186103Y-80136436D01*
X90191017Y-80135643D01*
X90218791Y-80147749D01*
X90247425Y-80157660D01*
X90250501Y-80161572D01*
X90255066Y-80163562D01*
X90271888Y-80188767D01*
X90290616Y-80212581D01*
X90291843Y-80218666D01*
X90293853Y-80221677D01*
X90298211Y-80250230D01*
X90299480Y-80256520D01*
X90299499Y-80257638D01*
X90299499Y-80316050D01*
X90299500Y-80316053D01*
X90299500Y-80316054D01*
X90300580Y-80320088D01*
X90300581Y-80320090D01*
X90340423Y-80468782D01*
X90340426Y-80468787D01*
X90419475Y-80605706D01*
X90419479Y-80605711D01*
X90419480Y-80605713D01*
X90531284Y-80717517D01*
X90619470Y-80805705D01*
X90619476Y-80805711D01*
X90651262Y-80837497D01*
X90738348Y-80924584D01*
X90738355Y-80924590D01*
X92151098Y-82337334D01*
X92184583Y-82398657D01*
X92179599Y-82468349D01*
X92177978Y-82472467D01*
X92109498Y-82637792D01*
X92045017Y-82878438D01*
X92012501Y-83125424D01*
X92012500Y-83125441D01*
X92012500Y-83374558D01*
X92012501Y-83374575D01*
X92045017Y-83621561D01*
X92109498Y-83862207D01*
X92204830Y-84092361D01*
X92204837Y-84092376D01*
X92245901Y-84163500D01*
X92262374Y-84231400D01*
X92239521Y-84297427D01*
X92184600Y-84340618D01*
X92138514Y-84349500D01*
X91087097Y-84349500D01*
X91057656Y-84340855D01*
X91027670Y-84334332D01*
X91022654Y-84330577D01*
X91020058Y-84329815D01*
X90999416Y-84313181D01*
X90848901Y-84162666D01*
X90815416Y-84101343D01*
X90820400Y-84031651D01*
X90822000Y-84027583D01*
X90890502Y-83862207D01*
X90954982Y-83621565D01*
X90987500Y-83374565D01*
X90987500Y-83125435D01*
X90954982Y-82878435D01*
X90890502Y-82637793D01*
X90795164Y-82407627D01*
X90670599Y-82191873D01*
X90627271Y-82135407D01*
X90518939Y-81994225D01*
X90518933Y-81994218D01*
X90342781Y-81818066D01*
X90342774Y-81818060D01*
X90145126Y-81666400D01*
X89929376Y-81541837D01*
X89929361Y-81541830D01*
X89699207Y-81446498D01*
X89458561Y-81382017D01*
X89211575Y-81349501D01*
X89211570Y-81349500D01*
X89211565Y-81349500D01*
X88962435Y-81349500D01*
X88962429Y-81349500D01*
X88962424Y-81349501D01*
X88715438Y-81382017D01*
X88474792Y-81446498D01*
X88244638Y-81541830D01*
X88244623Y-81541837D01*
X88028873Y-81666400D01*
X87831225Y-81818060D01*
X87831218Y-81818066D01*
X87655066Y-81994218D01*
X87655060Y-81994225D01*
X87503400Y-82191873D01*
X87378837Y-82407623D01*
X87378830Y-82407638D01*
X87283498Y-82637792D01*
X87219017Y-82878438D01*
X87186501Y-83125424D01*
X87186500Y-83125441D01*
X87186500Y-83374558D01*
X87186501Y-83374575D01*
X87219017Y-83621561D01*
X87283498Y-83862207D01*
X87378830Y-84092361D01*
X87378837Y-84092376D01*
X87503400Y-84308126D01*
X87655060Y-84505774D01*
X87655066Y-84505781D01*
X87687104Y-84537819D01*
X87720589Y-84599142D01*
X87715605Y-84668834D01*
X87673733Y-84724767D01*
X87608269Y-84749184D01*
X87599423Y-84749500D01*
X84320985Y-84749500D01*
X84320969Y-84749499D01*
X84313373Y-84749499D01*
X84155258Y-84749499D01*
X84093472Y-84766055D01*
X84002529Y-84790423D01*
X84002524Y-84790426D01*
X83865605Y-84869475D01*
X83865597Y-84869481D01*
X83371898Y-85363181D01*
X83310575Y-85396666D01*
X83284217Y-85399500D01*
X81611836Y-85399500D01*
X81544797Y-85379815D01*
X81501352Y-85331796D01*
X81467814Y-85265976D01*
X81338247Y-85087641D01*
X81338243Y-85087636D01*
X81182363Y-84931756D01*
X81182358Y-84931752D01*
X81004025Y-84802187D01*
X81004024Y-84802186D01*
X81004022Y-84802185D01*
X80933112Y-84766054D01*
X80807606Y-84702104D01*
X80807603Y-84702103D01*
X80597952Y-84633985D01*
X80489086Y-84616742D01*
X80380222Y-84599500D01*
X80159778Y-84599500D01*
X80087201Y-84610995D01*
X79942047Y-84633985D01*
X79732396Y-84702103D01*
X79732393Y-84702104D01*
X79535974Y-84802187D01*
X79357641Y-84931752D01*
X79357636Y-84931756D01*
X79307075Y-84982317D01*
X79245752Y-85015801D01*
X79176060Y-85010816D01*
X79120127Y-84968945D01*
X79103213Y-84937968D01*
X79073354Y-84857913D01*
X79073350Y-84857906D01*
X78987190Y-84742812D01*
X78987187Y-84742809D01*
X78872093Y-84656649D01*
X78872086Y-84656645D01*
X78737379Y-84606403D01*
X78737372Y-84606401D01*
X78677844Y-84600000D01*
X77980000Y-84600000D01*
X77980000Y-85624722D01*
X77903694Y-85580667D01*
X77789244Y-85550000D01*
X77670756Y-85550000D01*
X77556306Y-85580667D01*
X77480000Y-85624722D01*
X77480000Y-84600000D01*
X76782155Y-84600000D01*
X76722627Y-84606401D01*
X76722620Y-84606403D01*
X76587913Y-84656645D01*
X76587906Y-84656649D01*
X76472812Y-84742809D01*
X76472809Y-84742812D01*
X76386649Y-84857906D01*
X76386645Y-84857913D01*
X76336403Y-84992620D01*
X76336401Y-84992627D01*
X76330000Y-85052155D01*
X76330000Y-85750000D01*
X77354722Y-85750000D01*
X77310667Y-85826306D01*
X77280000Y-85940756D01*
X77280000Y-86059244D01*
X77310667Y-86173694D01*
X77354722Y-86250000D01*
X76330000Y-86250000D01*
X76330000Y-86947844D01*
X76336401Y-87007372D01*
X76336403Y-87007379D01*
X76386645Y-87142086D01*
X76386649Y-87142093D01*
X76472809Y-87257187D01*
X76472812Y-87257190D01*
X76587906Y-87343350D01*
X76587913Y-87343354D01*
X76722620Y-87393596D01*
X76722627Y-87393598D01*
X76782155Y-87399999D01*
X76782172Y-87400000D01*
X77480000Y-87400000D01*
X77480000Y-86375277D01*
X77556306Y-86419333D01*
X77670756Y-86450000D01*
X77789244Y-86450000D01*
X77903694Y-86419333D01*
X77980000Y-86375277D01*
X77980000Y-87400000D01*
X78677828Y-87400000D01*
X78677844Y-87399999D01*
X78737372Y-87393598D01*
X78737379Y-87393596D01*
X78872086Y-87343354D01*
X78872093Y-87343350D01*
X78987187Y-87257190D01*
X78987190Y-87257187D01*
X79073350Y-87142093D01*
X79073354Y-87142086D01*
X79103213Y-87062031D01*
X79145084Y-87006097D01*
X79210548Y-86981680D01*
X79278821Y-86996531D01*
X79307076Y-87017683D01*
X79357636Y-87068243D01*
X79357641Y-87068247D01*
X79513192Y-87181260D01*
X79535978Y-87197815D01*
X79652501Y-87257187D01*
X79732393Y-87297895D01*
X79732396Y-87297896D01*
X79799525Y-87319707D01*
X79942049Y-87366015D01*
X80159778Y-87400500D01*
X80159779Y-87400500D01*
X80380221Y-87400500D01*
X80380222Y-87400500D01*
X80597951Y-87366015D01*
X80807606Y-87297895D01*
X81004022Y-87197815D01*
X81182365Y-87068242D01*
X81338242Y-86912365D01*
X81467815Y-86734022D01*
X81488093Y-86694225D01*
X81501352Y-86668204D01*
X81549326Y-86617409D01*
X81611836Y-86600500D01*
X82400903Y-86600500D01*
X82467942Y-86620185D01*
X82513697Y-86672989D01*
X82523641Y-86742147D01*
X82494616Y-86805703D01*
X82488584Y-86812181D01*
X81637584Y-87663181D01*
X81576261Y-87696666D01*
X81549903Y-87699500D01*
X74870097Y-87699500D01*
X74803058Y-87679815D01*
X74782416Y-87663181D01*
X73643438Y-86524203D01*
X73639198Y-86516439D01*
X73632099Y-86511161D01*
X73622712Y-86486246D01*
X73609953Y-86462880D01*
X73609935Y-86452335D01*
X73607465Y-86445778D01*
X73609891Y-86425610D01*
X73609866Y-86410566D01*
X73611206Y-86404302D01*
X73636015Y-86327951D01*
X73670500Y-86110222D01*
X73670500Y-85889778D01*
X73636015Y-85672049D01*
X73601955Y-85567221D01*
X73567896Y-85462396D01*
X73567895Y-85462393D01*
X73467815Y-85265978D01*
X73363018Y-85121736D01*
X73363017Y-85121735D01*
X73338243Y-85087636D01*
X73182363Y-84931756D01*
X73182358Y-84931752D01*
X73004025Y-84802187D01*
X73004024Y-84802186D01*
X73004022Y-84802185D01*
X72933112Y-84766054D01*
X72807606Y-84702104D01*
X72807603Y-84702103D01*
X72597952Y-84633985D01*
X72489086Y-84616742D01*
X72380222Y-84599500D01*
X72159778Y-84599500D01*
X72087201Y-84610995D01*
X71942047Y-84633985D01*
X71732396Y-84702103D01*
X71732393Y-84702104D01*
X71535974Y-84802187D01*
X71357641Y-84931752D01*
X71357636Y-84931756D01*
X71307075Y-84982317D01*
X71245752Y-85015801D01*
X71176060Y-85010816D01*
X71120127Y-84968945D01*
X71103213Y-84937968D01*
X71073354Y-84857913D01*
X71073350Y-84857906D01*
X70987190Y-84742812D01*
X70987187Y-84742809D01*
X70872093Y-84656649D01*
X70872086Y-84656645D01*
X70737379Y-84606403D01*
X70737372Y-84606401D01*
X70677844Y-84600000D01*
X69980000Y-84600000D01*
X69980000Y-85624722D01*
X69903694Y-85580667D01*
X69789244Y-85550000D01*
X69670756Y-85550000D01*
X69556306Y-85580667D01*
X69480000Y-85624722D01*
X69480000Y-84600000D01*
X68782155Y-84600000D01*
X68722627Y-84606401D01*
X68722620Y-84606403D01*
X68587913Y-84656645D01*
X68587906Y-84656649D01*
X68472812Y-84742809D01*
X68472809Y-84742812D01*
X68386649Y-84857906D01*
X68386645Y-84857913D01*
X68336403Y-84992620D01*
X68336401Y-84992627D01*
X68330000Y-85052155D01*
X66362766Y-85052155D01*
X66453751Y-84961170D01*
X73081195Y-78333727D01*
X74765422Y-76649500D01*
X77980520Y-73434402D01*
X78059577Y-73297470D01*
X78100501Y-73144743D01*
X78100501Y-72986628D01*
X78100501Y-72979033D01*
X78100500Y-72979015D01*
X78100500Y-72341835D01*
X78120185Y-72274796D01*
X78168206Y-72231350D01*
X78168547Y-72231175D01*
X78234022Y-72197815D01*
X78412365Y-72068242D01*
X78568242Y-71912365D01*
X78697815Y-71734022D01*
X78797895Y-71537606D01*
X78866015Y-71327951D01*
X78900500Y-71110222D01*
X78900500Y-70889778D01*
X78866015Y-70672049D01*
X78843188Y-70601794D01*
X78841193Y-70531953D01*
X78873436Y-70475797D01*
X82858506Y-66490728D01*
X82858511Y-66490724D01*
X82868714Y-66480520D01*
X82868716Y-66480520D01*
X82980520Y-66368716D01*
X83017532Y-66304608D01*
X83054543Y-66240504D01*
X83055442Y-66238945D01*
X83059577Y-66231785D01*
X83100501Y-66079057D01*
X83100501Y-65920943D01*
X83100501Y-65913348D01*
X83100500Y-65913330D01*
X83100500Y-58029059D01*
X83100501Y-58029046D01*
X83100501Y-57860945D01*
X83100501Y-57860943D01*
X83059577Y-57708215D01*
X83030639Y-57658095D01*
X82980520Y-57571284D01*
X82868716Y-57459480D01*
X82868715Y-57459479D01*
X82864385Y-57455149D01*
X82864374Y-57455139D01*
X80104077Y-54694842D01*
X80070592Y-54633519D01*
X80073828Y-54568841D01*
X80078477Y-54554534D01*
X80110500Y-54352352D01*
X80110500Y-54147648D01*
X80078477Y-53945466D01*
X80071811Y-53924951D01*
X80021296Y-53769481D01*
X80015220Y-53750781D01*
X80015218Y-53750778D01*
X80015218Y-53750776D01*
X79981503Y-53684607D01*
X79922287Y-53568390D01*
X79914556Y-53557749D01*
X79801971Y-53402786D01*
X79657213Y-53258028D01*
X79491613Y-53137715D01*
X79491612Y-53137714D01*
X79491610Y-53137713D01*
X79434653Y-53108691D01*
X79309223Y-53044781D01*
X79114534Y-52981522D01*
X78939995Y-52953878D01*
X78912352Y-52949500D01*
X78707648Y-52949500D01*
X78683329Y-52953351D01*
X78505465Y-52981522D01*
X78310773Y-53044782D01*
X78280794Y-53060058D01*
X78212124Y-53072954D01*
X78147384Y-53046677D01*
X78107128Y-52989570D01*
X78100500Y-52949573D01*
X78100500Y-50860096D01*
X78120185Y-50793057D01*
X78136815Y-50772419D01*
X78365157Y-50544076D01*
X78426480Y-50510592D01*
X78491154Y-50513826D01*
X78505466Y-50518477D01*
X78707648Y-50550500D01*
X78707649Y-50550500D01*
X78912351Y-50550500D01*
X78912352Y-50550500D01*
X79114534Y-50518477D01*
X79309219Y-50455220D01*
X79491610Y-50362287D01*
X79584590Y-50294732D01*
X79657213Y-50241971D01*
X79657215Y-50241968D01*
X79657219Y-50241966D01*
X79801966Y-50097219D01*
X79801968Y-50097215D01*
X79801971Y-50097213D01*
X79854732Y-50024590D01*
X79922287Y-49931610D01*
X80015220Y-49749219D01*
X80078477Y-49554534D01*
X80110500Y-49352352D01*
X80110500Y-49147648D01*
X80093849Y-49042517D01*
X80078477Y-48945465D01*
X80049127Y-48855137D01*
X80015220Y-48750781D01*
X80015218Y-48750778D01*
X80015218Y-48750776D01*
X79966880Y-48655909D01*
X79922287Y-48568390D01*
X79914556Y-48557749D01*
X79801971Y-48402786D01*
X79657213Y-48258028D01*
X79491613Y-48137715D01*
X79491612Y-48137714D01*
X79491610Y-48137713D01*
X79434653Y-48108691D01*
X79309223Y-48044781D01*
X79114534Y-47981522D01*
X78939995Y-47953878D01*
X78912352Y-47949500D01*
X78707648Y-47949500D01*
X78683329Y-47953351D01*
X78505465Y-47981522D01*
X78310776Y-48044781D01*
X78128386Y-48137715D01*
X77962786Y-48258028D01*
X77818028Y-48402786D01*
X77697715Y-48568386D01*
X77604781Y-48750776D01*
X77541522Y-48945465D01*
X77509500Y-49147648D01*
X77509500Y-49352351D01*
X77541522Y-49554534D01*
X77546173Y-49568848D01*
X77548165Y-49638690D01*
X77515921Y-49694842D01*
X77134326Y-50076437D01*
X77134319Y-50076444D01*
X77131286Y-50079478D01*
X77131284Y-50079480D01*
X77019480Y-50191284D01*
X76996097Y-50231785D01*
X76940423Y-50328215D01*
X76899499Y-50480943D01*
X76899499Y-50480945D01*
X76899499Y-50649046D01*
X76899500Y-50649059D01*
X76899500Y-67158164D01*
X76879815Y-67225203D01*
X76831796Y-67268648D01*
X76765976Y-67302185D01*
X76587641Y-67431752D01*
X76587636Y-67431756D01*
X76431756Y-67587636D01*
X76431752Y-67587641D01*
X76350318Y-67699727D01*
X76294989Y-67742393D01*
X76225375Y-67748372D01*
X76163580Y-67715767D01*
X76149682Y-67699727D01*
X76068247Y-67587641D01*
X76068243Y-67587636D01*
X75912363Y-67431756D01*
X75912358Y-67431752D01*
X75734023Y-67302185D01*
X75668204Y-67268648D01*
X75617409Y-67220674D01*
X75600500Y-67158164D01*
X75600500Y-53149060D01*
X75600501Y-53149047D01*
X75600501Y-52980944D01*
X75600501Y-52980943D01*
X75559577Y-52828216D01*
X75559573Y-52828209D01*
X75480524Y-52691290D01*
X75480518Y-52691282D01*
X73996423Y-51207187D01*
X72484076Y-49694841D01*
X72450592Y-49633519D01*
X72453828Y-49568841D01*
X72458477Y-49554534D01*
X72490500Y-49352352D01*
X72490500Y-49147648D01*
X72473849Y-49042517D01*
X72458477Y-48945465D01*
X72429127Y-48855137D01*
X72395220Y-48750781D01*
X72395218Y-48750778D01*
X72395218Y-48750776D01*
X72346880Y-48655909D01*
X72302287Y-48568390D01*
X72294556Y-48557749D01*
X72181971Y-48402786D01*
X72037213Y-48258028D01*
X71871613Y-48137715D01*
X71871612Y-48137714D01*
X71871610Y-48137713D01*
X71814653Y-48108691D01*
X71689223Y-48044781D01*
X71494534Y-47981522D01*
X71319995Y-47953878D01*
X71292352Y-47949500D01*
X71087648Y-47949500D01*
X71063329Y-47953351D01*
X70885465Y-47981522D01*
X70690776Y-48044781D01*
X70508386Y-48137715D01*
X70342786Y-48258028D01*
X70198028Y-48402786D01*
X70077715Y-48568385D01*
X70070883Y-48581795D01*
X70022909Y-48632591D01*
X69960398Y-48649500D01*
X58500943Y-48649500D01*
X58348213Y-48690423D01*
X58320882Y-48706204D01*
X58320881Y-48706204D01*
X58211287Y-48769477D01*
X58211282Y-48769481D01*
X54312181Y-52668583D01*
X54250858Y-52702068D01*
X54181166Y-52697084D01*
X54125233Y-52655212D01*
X54100816Y-52589748D01*
X54100500Y-52580902D01*
X54100500Y-52433713D01*
X54067246Y-52223760D01*
X54067246Y-52223757D01*
X54001557Y-52021588D01*
X53905051Y-51832184D01*
X53905049Y-51832181D01*
X53905048Y-51832179D01*
X53780109Y-51660213D01*
X53666181Y-51546285D01*
X53632696Y-51484962D01*
X53637680Y-51415270D01*
X53679552Y-51359337D01*
X53710529Y-51342422D01*
X53842086Y-51293354D01*
X53842093Y-51293350D01*
X53957187Y-51207190D01*
X53957190Y-51207187D01*
X54043350Y-51092093D01*
X54043354Y-51092086D01*
X54093596Y-50957379D01*
X54093598Y-50957372D01*
X54099999Y-50897844D01*
X54100000Y-50897827D01*
X54100000Y-50250000D01*
X53183012Y-50250000D01*
X53215925Y-50192993D01*
X53250000Y-50065826D01*
X53250000Y-49934174D01*
X53215925Y-49807007D01*
X53183012Y-49750000D01*
X54100000Y-49750000D01*
X54100000Y-49102172D01*
X54099999Y-49102155D01*
X54093598Y-49042627D01*
X54093596Y-49042620D01*
X54043354Y-48907913D01*
X54043350Y-48907906D01*
X53957190Y-48792812D01*
X53957187Y-48792809D01*
X53842093Y-48706649D01*
X53842086Y-48706645D01*
X53707379Y-48656403D01*
X53707372Y-48656401D01*
X53647844Y-48650000D01*
X53000000Y-48650000D01*
X53000000Y-49566988D01*
X52942993Y-49534075D01*
X52815826Y-49500000D01*
X52684174Y-49500000D01*
X52557007Y-49534075D01*
X52500000Y-49566988D01*
X52500000Y-48650000D01*
X51852155Y-48650000D01*
X51792627Y-48656401D01*
X51792620Y-48656403D01*
X51657913Y-48706645D01*
X51657906Y-48706649D01*
X51542812Y-48792809D01*
X51542809Y-48792812D01*
X51456649Y-48907906D01*
X51456645Y-48907913D01*
X51406403Y-49042620D01*
X51406401Y-49042627D01*
X51400000Y-49102155D01*
X51400000Y-49750000D01*
X52316988Y-49750000D01*
X52284075Y-49807007D01*
X52250000Y-49934174D01*
X52250000Y-50065826D01*
X52284075Y-50192993D01*
X52316988Y-50250000D01*
X51400000Y-50250000D01*
X51400000Y-50897844D01*
X51406401Y-50957372D01*
X51406403Y-50957379D01*
X51456645Y-51092086D01*
X51456649Y-51092093D01*
X51542809Y-51207187D01*
X51542812Y-51207190D01*
X51657906Y-51293350D01*
X51657913Y-51293354D01*
X51789470Y-51342422D01*
X51845404Y-51384293D01*
X51869821Y-51449758D01*
X51854969Y-51518031D01*
X51833819Y-51546285D01*
X51719889Y-51660215D01*
X51594951Y-51832179D01*
X51498444Y-52021585D01*
X51432753Y-52223760D01*
X51399500Y-52433713D01*
X51399500Y-52646286D01*
X51428314Y-52828214D01*
X51432754Y-52856243D01*
X51494014Y-53044782D01*
X51498444Y-53058414D01*
X51594951Y-53247820D01*
X51719890Y-53419786D01*
X51870213Y-53570109D01*
X52042182Y-53695050D01*
X52050946Y-53699516D01*
X52101742Y-53747491D01*
X52118536Y-53815312D01*
X52095998Y-53881447D01*
X52050946Y-53920484D01*
X52042182Y-53924949D01*
X51870213Y-54049890D01*
X51719890Y-54200213D01*
X51594951Y-54372179D01*
X51498444Y-54561585D01*
X51432753Y-54763760D01*
X51406168Y-54931614D01*
X51399500Y-54973713D01*
X51399500Y-55186287D01*
X51432754Y-55396243D01*
X51487431Y-55564522D01*
X51498444Y-55598414D01*
X51594951Y-55787820D01*
X51719890Y-55959786D01*
X51870213Y-56110109D01*
X52042182Y-56235050D01*
X52050946Y-56239516D01*
X52101742Y-56287491D01*
X52118536Y-56355312D01*
X52095998Y-56421447D01*
X52050946Y-56460484D01*
X52042182Y-56464949D01*
X51870213Y-56589890D01*
X51719890Y-56740213D01*
X51594951Y-56912179D01*
X51498444Y-57101585D01*
X51432753Y-57303760D01*
X51399500Y-57513713D01*
X51399500Y-57726286D01*
X51420827Y-57860943D01*
X51432754Y-57936243D01*
X51487431Y-58104522D01*
X51498444Y-58138414D01*
X51594951Y-58327820D01*
X51719890Y-58499786D01*
X51870213Y-58650109D01*
X52042182Y-58775050D01*
X52050946Y-58779516D01*
X52101742Y-58827491D01*
X52118536Y-58895312D01*
X52095998Y-58961447D01*
X52050946Y-59000484D01*
X52042182Y-59004949D01*
X51870213Y-59129890D01*
X51719890Y-59280213D01*
X51594951Y-59452179D01*
X51498444Y-59641585D01*
X51432753Y-59843760D01*
X51399500Y-60053713D01*
X51399500Y-60266286D01*
X51432753Y-60476239D01*
X51432753Y-60476241D01*
X51432754Y-60476243D01*
X51478829Y-60618048D01*
X51498444Y-60678414D01*
X51594951Y-60867820D01*
X51719890Y-61039786D01*
X51870213Y-61190109D01*
X52042182Y-61315050D01*
X52050946Y-61319516D01*
X52101742Y-61367491D01*
X52118536Y-61435312D01*
X52095998Y-61501447D01*
X52050946Y-61540484D01*
X52042182Y-61544949D01*
X51870213Y-61669890D01*
X51719890Y-61820213D01*
X51594951Y-61992179D01*
X51498444Y-62181585D01*
X51432753Y-62383760D01*
X51409302Y-62531827D01*
X51399500Y-62593713D01*
X51399500Y-62806287D01*
X51400131Y-62810268D01*
X51432753Y-63016239D01*
X51432753Y-63016241D01*
X51432754Y-63016243D01*
X51487431Y-63184522D01*
X51498444Y-63218414D01*
X51594951Y-63407820D01*
X51719890Y-63579786D01*
X51870213Y-63730109D01*
X52042179Y-63855048D01*
X52042181Y-63855049D01*
X52042184Y-63855051D01*
X52051493Y-63859794D01*
X52102290Y-63907766D01*
X52119087Y-63975587D01*
X52096552Y-64041722D01*
X52051505Y-64080760D01*
X52042446Y-64085376D01*
X52042440Y-64085380D01*
X51988282Y-64124727D01*
X51988282Y-64124728D01*
X52620591Y-64757037D01*
X52557007Y-64774075D01*
X52442993Y-64839901D01*
X52349901Y-64932993D01*
X52284075Y-65047007D01*
X52267037Y-65110591D01*
X51634728Y-64478282D01*
X51634727Y-64478282D01*
X51595380Y-64532439D01*
X51498904Y-64721782D01*
X51433242Y-64923869D01*
X51433242Y-64923872D01*
X51400000Y-65133753D01*
X51400000Y-65346246D01*
X51433242Y-65556127D01*
X51433242Y-65556130D01*
X51498904Y-65758217D01*
X51595375Y-65947550D01*
X51634728Y-66001716D01*
X52267037Y-65369408D01*
X52284075Y-65432993D01*
X52349901Y-65547007D01*
X52442993Y-65640099D01*
X52557007Y-65705925D01*
X52620590Y-65722962D01*
X51988282Y-66355269D01*
X51988282Y-66355270D01*
X52042452Y-66394626D01*
X52052048Y-66399516D01*
X52102844Y-66447491D01*
X52119638Y-66515312D01*
X52097100Y-66581447D01*
X52052051Y-66620483D01*
X52042440Y-66625380D01*
X51988282Y-66664727D01*
X51988282Y-66664728D01*
X52620591Y-67297037D01*
X52557007Y-67314075D01*
X52442993Y-67379901D01*
X52349901Y-67472993D01*
X52284075Y-67587007D01*
X52267037Y-67650591D01*
X51634728Y-67018282D01*
X51634727Y-67018282D01*
X51595380Y-67072439D01*
X51498904Y-67261782D01*
X51433242Y-67463869D01*
X51433242Y-67463872D01*
X51400000Y-67673753D01*
X51400000Y-67886246D01*
X51433242Y-68096127D01*
X51433242Y-68096130D01*
X51498904Y-68298217D01*
X51595375Y-68487550D01*
X51634728Y-68541716D01*
X52267037Y-67909408D01*
X52284075Y-67972993D01*
X52349901Y-68087007D01*
X52442993Y-68180099D01*
X52557007Y-68245925D01*
X52620590Y-68262962D01*
X51988282Y-68895269D01*
X51988282Y-68895270D01*
X52042449Y-68934624D01*
X52231782Y-69031095D01*
X52433870Y-69096757D01*
X52643754Y-69130000D01*
X52856246Y-69130000D01*
X53066127Y-69096757D01*
X53066130Y-69096757D01*
X53268217Y-69031095D01*
X53457554Y-68934622D01*
X53511716Y-68895270D01*
X53511717Y-68895270D01*
X52879408Y-68262962D01*
X52942993Y-68245925D01*
X53057007Y-68180099D01*
X53150099Y-68087007D01*
X53215925Y-67972993D01*
X53232962Y-67909408D01*
X53865270Y-68541717D01*
X53865270Y-68541716D01*
X53904622Y-68487554D01*
X54001095Y-68298217D01*
X54066757Y-68096130D01*
X54066757Y-68096127D01*
X54100000Y-67886246D01*
X54100000Y-67673753D01*
X54066757Y-67463872D01*
X54066757Y-67463869D01*
X54001095Y-67261782D01*
X53904624Y-67072449D01*
X53865270Y-67018282D01*
X53865269Y-67018282D01*
X53232962Y-67650590D01*
X53215925Y-67587007D01*
X53150099Y-67472993D01*
X53057007Y-67379901D01*
X52942993Y-67314075D01*
X52879409Y-67297037D01*
X53511716Y-66664728D01*
X53457550Y-66625375D01*
X53447954Y-66620486D01*
X53397157Y-66572512D01*
X53380361Y-66504692D01*
X53402897Y-66438556D01*
X53447954Y-66399514D01*
X53457554Y-66394622D01*
X53511716Y-66355270D01*
X53511717Y-66355270D01*
X52879408Y-65722962D01*
X52942993Y-65705925D01*
X53057007Y-65640099D01*
X53150099Y-65547007D01*
X53215925Y-65432993D01*
X53232962Y-65369408D01*
X53865270Y-66001717D01*
X53865270Y-66001716D01*
X53904622Y-65947554D01*
X54001095Y-65758217D01*
X54066757Y-65556130D01*
X54066757Y-65556127D01*
X54100000Y-65346246D01*
X54100000Y-65198597D01*
X54119685Y-65131558D01*
X54172489Y-65085803D01*
X54241647Y-65075859D01*
X54305203Y-65104884D01*
X54311681Y-65110916D01*
X64064181Y-74863416D01*
X64097666Y-74924739D01*
X64100500Y-74951097D01*
X64100500Y-114976000D01*
X64080815Y-115043039D01*
X64028011Y-115088794D01*
X63976500Y-115100000D01*
X63750000Y-115100000D01*
X63750000Y-116066988D01*
X63692993Y-116034075D01*
X63565826Y-116000000D01*
X63434174Y-116000000D01*
X63307007Y-116034075D01*
X63250000Y-116066988D01*
X63250000Y-115100000D01*
X62552155Y-115100000D01*
X62492627Y-115106401D01*
X62492620Y-115106403D01*
X62357913Y-115156645D01*
X62357906Y-115156649D01*
X62242812Y-115242809D01*
X62242809Y-115242812D01*
X62156649Y-115357906D01*
X62156645Y-115357913D01*
X62106403Y-115492620D01*
X62106401Y-115492627D01*
X62100000Y-115552155D01*
X62100000Y-116250000D01*
X63066988Y-116250000D01*
X63034075Y-116307007D01*
X63000000Y-116434174D01*
X63000000Y-116565826D01*
X63034075Y-116692993D01*
X63066988Y-116750000D01*
X62100000Y-116750000D01*
X62100000Y-117447844D01*
X62106401Y-117507372D01*
X62106403Y-117507379D01*
X62156645Y-117642086D01*
X62156649Y-117642093D01*
X62242809Y-117757187D01*
X62242812Y-117757190D01*
X62357906Y-117843350D01*
X62357913Y-117843354D01*
X62492620Y-117893596D01*
X62492627Y-117893598D01*
X62552155Y-117899999D01*
X62552172Y-117900000D01*
X63250000Y-117900000D01*
X63250000Y-116933012D01*
X63307007Y-116965925D01*
X63434174Y-117000000D01*
X63565826Y-117000000D01*
X63692993Y-116965925D01*
X63750000Y-116933012D01*
X63750000Y-117900000D01*
X63976500Y-117900000D01*
X63985185Y-117902550D01*
X63994147Y-117901262D01*
X64018187Y-117912240D01*
X64043539Y-117919685D01*
X64049466Y-117926525D01*
X64057703Y-117930287D01*
X64071992Y-117952521D01*
X64089294Y-117972489D01*
X64091581Y-117983003D01*
X64095477Y-117989065D01*
X64100500Y-118024000D01*
X64100500Y-118114330D01*
X64100499Y-118114348D01*
X64100499Y-118280054D01*
X64100498Y-118280054D01*
X64141423Y-118432785D01*
X64170358Y-118482900D01*
X64170359Y-118482904D01*
X64170360Y-118482904D01*
X64220479Y-118569714D01*
X64220481Y-118569717D01*
X64339349Y-118688585D01*
X64339355Y-118688590D01*
X73860181Y-128209416D01*
X73893666Y-128270739D01*
X73896500Y-128297097D01*
X73896500Y-134697902D01*
X73876815Y-134764941D01*
X73824011Y-134810696D01*
X73754853Y-134820640D01*
X73691297Y-134791615D01*
X73684819Y-134785583D01*
X64703614Y-125804378D01*
X54083756Y-115184521D01*
X54050272Y-115123199D01*
X54053507Y-115058523D01*
X54067246Y-115016243D01*
X54100500Y-114806287D01*
X54100500Y-114593713D01*
X54067246Y-114383757D01*
X54001557Y-114181588D01*
X53905051Y-113992184D01*
X53905049Y-113992181D01*
X53905048Y-113992179D01*
X53780109Y-113820213D01*
X53629786Y-113669890D01*
X53457820Y-113544951D01*
X53457115Y-113544591D01*
X53449054Y-113540485D01*
X53398259Y-113492512D01*
X53381463Y-113424692D01*
X53403999Y-113358556D01*
X53449054Y-113319515D01*
X53457816Y-113315051D01*
X53479789Y-113299086D01*
X53629786Y-113190109D01*
X53629788Y-113190106D01*
X53629792Y-113190104D01*
X53780104Y-113039792D01*
X53780106Y-113039788D01*
X53780109Y-113039786D01*
X53889086Y-112889789D01*
X53905051Y-112867816D01*
X54001557Y-112678412D01*
X54067246Y-112476243D01*
X54100500Y-112266287D01*
X54100500Y-112053713D01*
X54067246Y-111843757D01*
X54001557Y-111641588D01*
X53905051Y-111452184D01*
X53905049Y-111452181D01*
X53905048Y-111452179D01*
X53780109Y-111280213D01*
X53629786Y-111129890D01*
X53457820Y-111004951D01*
X53457115Y-111004591D01*
X53449054Y-111000485D01*
X53398259Y-110952512D01*
X53381463Y-110884692D01*
X53403999Y-110818556D01*
X53449054Y-110779515D01*
X53457816Y-110775051D01*
X53559383Y-110701259D01*
X53629786Y-110650109D01*
X53629788Y-110650106D01*
X53629792Y-110650104D01*
X53780104Y-110499792D01*
X53780106Y-110499788D01*
X53780109Y-110499786D01*
X53905048Y-110327820D01*
X53905047Y-110327820D01*
X53905051Y-110327816D01*
X54001557Y-110138412D01*
X54067246Y-109936243D01*
X54100500Y-109726287D01*
X54100500Y-109513713D01*
X54067246Y-109303757D01*
X54001557Y-109101588D01*
X53905051Y-108912184D01*
X53905049Y-108912181D01*
X53905048Y-108912179D01*
X53780109Y-108740213D01*
X53657944Y-108618048D01*
X59339500Y-108618048D01*
X59339500Y-109381951D01*
X59366013Y-109583333D01*
X59371334Y-109623744D01*
X59432727Y-109852869D01*
X59434456Y-109859320D01*
X59434459Y-109859330D01*
X59527786Y-110084640D01*
X59527791Y-110084651D01*
X59649727Y-110295848D01*
X59649738Y-110295864D01*
X59798199Y-110489343D01*
X59798205Y-110489350D01*
X59970649Y-110661794D01*
X59970656Y-110661800D01*
X60031079Y-110708164D01*
X60164144Y-110810268D01*
X60164151Y-110810272D01*
X60375348Y-110932208D01*
X60375353Y-110932210D01*
X60375356Y-110932212D01*
X60600679Y-111025544D01*
X60836256Y-111088666D01*
X61078056Y-111120500D01*
X61078063Y-111120500D01*
X61321937Y-111120500D01*
X61321944Y-111120500D01*
X61563744Y-111088666D01*
X61799321Y-111025544D01*
X62024644Y-110932212D01*
X62235856Y-110810268D01*
X62429345Y-110661799D01*
X62601799Y-110489345D01*
X62750268Y-110295856D01*
X62872212Y-110084644D01*
X62965544Y-109859321D01*
X63028666Y-109623744D01*
X63060500Y-109381944D01*
X63060500Y-108618056D01*
X63028666Y-108376256D01*
X62965544Y-108140679D01*
X62965537Y-108140663D01*
X62890618Y-107959792D01*
X62872212Y-107915356D01*
X62872210Y-107915353D01*
X62872208Y-107915348D01*
X62750272Y-107704151D01*
X62750268Y-107704144D01*
X62601799Y-107510655D01*
X62601794Y-107510649D01*
X62429350Y-107338205D01*
X62429343Y-107338199D01*
X62235864Y-107189738D01*
X62235862Y-107189736D01*
X62235856Y-107189732D01*
X62235851Y-107189729D01*
X62235848Y-107189727D01*
X62024651Y-107067791D01*
X62024640Y-107067786D01*
X61799330Y-106974459D01*
X61799323Y-106974457D01*
X61799321Y-106974456D01*
X61563744Y-106911334D01*
X61523333Y-106906013D01*
X61321951Y-106879500D01*
X61321944Y-106879500D01*
X61078056Y-106879500D01*
X61078048Y-106879500D01*
X60847896Y-106909801D01*
X60836256Y-106911334D01*
X60603452Y-106973713D01*
X60600679Y-106974456D01*
X60600669Y-106974459D01*
X60375359Y-107067786D01*
X60375348Y-107067791D01*
X60164151Y-107189727D01*
X60164135Y-107189738D01*
X59970656Y-107338199D01*
X59970649Y-107338205D01*
X59798205Y-107510649D01*
X59798199Y-107510656D01*
X59649738Y-107704135D01*
X59649727Y-107704151D01*
X59527791Y-107915348D01*
X59527786Y-107915359D01*
X59434459Y-108140669D01*
X59434456Y-108140679D01*
X59373428Y-108368443D01*
X59371335Y-108376253D01*
X59371333Y-108376264D01*
X59339500Y-108618048D01*
X53657944Y-108618048D01*
X53629786Y-108589890D01*
X53457820Y-108464951D01*
X53452805Y-108462396D01*
X53449054Y-108460485D01*
X53398259Y-108412512D01*
X53381463Y-108344692D01*
X53403999Y-108278556D01*
X53449054Y-108239515D01*
X53457816Y-108235051D01*
X53564382Y-108157627D01*
X53629786Y-108110109D01*
X53629788Y-108110106D01*
X53629792Y-108110104D01*
X53780104Y-107959792D01*
X53780106Y-107959788D01*
X53780109Y-107959786D01*
X53854128Y-107857906D01*
X53905051Y-107787816D01*
X53905349Y-107787230D01*
X53925235Y-107748205D01*
X53973209Y-107697409D01*
X54035719Y-107680500D01*
X57323331Y-107680500D01*
X57323347Y-107680501D01*
X57330943Y-107680501D01*
X57489054Y-107680501D01*
X57489057Y-107680501D01*
X57641785Y-107639577D01*
X57711200Y-107599500D01*
X57778716Y-107560520D01*
X57890520Y-107448716D01*
X57890520Y-107448714D01*
X57900724Y-107438511D01*
X57900728Y-107438506D01*
X61745158Y-103594075D01*
X61806479Y-103560592D01*
X61871151Y-103563825D01*
X61885466Y-103568477D01*
X62087648Y-103600500D01*
X62087649Y-103600500D01*
X62292351Y-103600500D01*
X62292352Y-103600500D01*
X62494534Y-103568477D01*
X62689219Y-103505220D01*
X62871610Y-103412287D01*
X63035309Y-103293354D01*
X63037213Y-103291971D01*
X63037215Y-103291968D01*
X63037219Y-103291966D01*
X63181966Y-103147219D01*
X63181968Y-103147215D01*
X63181971Y-103147213D01*
X63234732Y-103074590D01*
X63302287Y-102981610D01*
X63395220Y-102799219D01*
X63458477Y-102604534D01*
X63490500Y-102402352D01*
X63490500Y-102197648D01*
X63458477Y-101995466D01*
X63395220Y-101800781D01*
X63395218Y-101800778D01*
X63395218Y-101800776D01*
X63340299Y-101692993D01*
X63302287Y-101618390D01*
X63288854Y-101599901D01*
X63181971Y-101452786D01*
X63037213Y-101308028D01*
X62871613Y-101187715D01*
X62871612Y-101187714D01*
X62871610Y-101187713D01*
X62814653Y-101158691D01*
X62689223Y-101094781D01*
X62494534Y-101031522D01*
X62319995Y-101003878D01*
X62292352Y-100999500D01*
X62087648Y-100999500D01*
X62063329Y-101003351D01*
X61885465Y-101031522D01*
X61690776Y-101094781D01*
X61508386Y-101187715D01*
X61342786Y-101308028D01*
X61198028Y-101452786D01*
X61077715Y-101618386D01*
X60984781Y-101800776D01*
X60921522Y-101995465D01*
X60889500Y-102197648D01*
X60889500Y-102402351D01*
X60921522Y-102604534D01*
X60926173Y-102618848D01*
X60928165Y-102688690D01*
X60895921Y-102744842D01*
X57197584Y-106443181D01*
X57136261Y-106476666D01*
X57109903Y-106479500D01*
X54035719Y-106479500D01*
X53968680Y-106459815D01*
X53925235Y-106411795D01*
X53905052Y-106372185D01*
X53905051Y-106372184D01*
X53780109Y-106200213D01*
X53629786Y-106049890D01*
X53457820Y-105924951D01*
X53457115Y-105924591D01*
X53449054Y-105920485D01*
X53398259Y-105872512D01*
X53381463Y-105804692D01*
X53403999Y-105738556D01*
X53449054Y-105699515D01*
X53457816Y-105695051D01*
X53479789Y-105679086D01*
X53629786Y-105570109D01*
X53629788Y-105570106D01*
X53629792Y-105570104D01*
X53780104Y-105419792D01*
X53780106Y-105419788D01*
X53780109Y-105419786D01*
X53905048Y-105247820D01*
X53905047Y-105247820D01*
X53905051Y-105247816D01*
X54001557Y-105058412D01*
X54067246Y-104856243D01*
X54100500Y-104646287D01*
X54100500Y-104433713D01*
X54067246Y-104223757D01*
X54001557Y-104021588D01*
X53905051Y-103832184D01*
X53905049Y-103832181D01*
X53905048Y-103832179D01*
X53780109Y-103660213D01*
X53666181Y-103546285D01*
X53632696Y-103484962D01*
X53637680Y-103415270D01*
X53679552Y-103359337D01*
X53710529Y-103342422D01*
X53842086Y-103293354D01*
X53842093Y-103293350D01*
X53957187Y-103207190D01*
X53957190Y-103207187D01*
X54043350Y-103092093D01*
X54043354Y-103092086D01*
X54093596Y-102957379D01*
X54093598Y-102957372D01*
X54099999Y-102897844D01*
X54100000Y-102897827D01*
X54100000Y-102250000D01*
X53183012Y-102250000D01*
X53215925Y-102192993D01*
X53250000Y-102065826D01*
X53250000Y-101934174D01*
X53215925Y-101807007D01*
X53183012Y-101750000D01*
X54100000Y-101750000D01*
X54100000Y-101102172D01*
X54099999Y-101102155D01*
X54093598Y-101042627D01*
X54093596Y-101042620D01*
X54043354Y-100907913D01*
X54043350Y-100907906D01*
X53957190Y-100792812D01*
X53957187Y-100792809D01*
X53842093Y-100706649D01*
X53842086Y-100706645D01*
X53707379Y-100656403D01*
X53707372Y-100656401D01*
X53647844Y-100650000D01*
X53000000Y-100650000D01*
X53000000Y-101566988D01*
X52942993Y-101534075D01*
X52815826Y-101500000D01*
X52684174Y-101500000D01*
X52557007Y-101534075D01*
X52500000Y-101566988D01*
X52500000Y-100650000D01*
X51852155Y-100650000D01*
X51792627Y-100656401D01*
X51792620Y-100656403D01*
X51657913Y-100706645D01*
X51657906Y-100706649D01*
X51542812Y-100792809D01*
X51542809Y-100792812D01*
X51456649Y-100907906D01*
X51456645Y-100907913D01*
X51406403Y-101042620D01*
X51406401Y-101042627D01*
X51400000Y-101102155D01*
X51400000Y-101750000D01*
X52316988Y-101750000D01*
X52284075Y-101807007D01*
X52250000Y-101934174D01*
X52250000Y-102065826D01*
X52284075Y-102192993D01*
X52316988Y-102250000D01*
X51400000Y-102250000D01*
X51400000Y-102897844D01*
X51406401Y-102957372D01*
X51406403Y-102957379D01*
X51456645Y-103092086D01*
X51456649Y-103092093D01*
X51542809Y-103207187D01*
X51542812Y-103207190D01*
X51657906Y-103293350D01*
X51657913Y-103293354D01*
X51789470Y-103342422D01*
X51845404Y-103384293D01*
X51869821Y-103449758D01*
X51854969Y-103518031D01*
X51833819Y-103546285D01*
X51719889Y-103660215D01*
X51594951Y-103832179D01*
X51498444Y-104021585D01*
X51432753Y-104223760D01*
X51400954Y-104424533D01*
X51399500Y-104433713D01*
X51399500Y-104646287D01*
X51432754Y-104856243D01*
X51479163Y-104999076D01*
X51498444Y-105058414D01*
X51594951Y-105247820D01*
X51719890Y-105419786D01*
X51870213Y-105570109D01*
X52042182Y-105695050D01*
X52050946Y-105699516D01*
X52101742Y-105747491D01*
X52118536Y-105815312D01*
X52095998Y-105881447D01*
X52050946Y-105920484D01*
X52042182Y-105924949D01*
X51870213Y-106049890D01*
X51719890Y-106200213D01*
X51594951Y-106372179D01*
X51498444Y-106561585D01*
X51432753Y-106763760D01*
X51399500Y-106973713D01*
X51399500Y-107186286D01*
X51423561Y-107338205D01*
X51432754Y-107396243D01*
X51486130Y-107560518D01*
X51498444Y-107598414D01*
X51594951Y-107787820D01*
X51719890Y-107959786D01*
X51870213Y-108110109D01*
X52042182Y-108235050D01*
X52050946Y-108239516D01*
X52101742Y-108287491D01*
X52118536Y-108355312D01*
X52095998Y-108421447D01*
X52050946Y-108460484D01*
X52042182Y-108464949D01*
X51870213Y-108589890D01*
X51719890Y-108740213D01*
X51594951Y-108912179D01*
X51498444Y-109101585D01*
X51432753Y-109303760D01*
X51399500Y-109513713D01*
X51399500Y-109726286D01*
X51429019Y-109912666D01*
X51432754Y-109936243D01*
X51480971Y-110084640D01*
X51498444Y-110138414D01*
X51594951Y-110327820D01*
X51719890Y-110499786D01*
X51870213Y-110650109D01*
X52042182Y-110775050D01*
X52050946Y-110779516D01*
X52101742Y-110827491D01*
X52118536Y-110895312D01*
X52095998Y-110961447D01*
X52050946Y-111000484D01*
X52042182Y-111004949D01*
X51870213Y-111129890D01*
X51719890Y-111280213D01*
X51594951Y-111452179D01*
X51498444Y-111641585D01*
X51432753Y-111843760D01*
X51399500Y-112053713D01*
X51399500Y-112266286D01*
X51432753Y-112476239D01*
X51498444Y-112678414D01*
X51594951Y-112867820D01*
X51719890Y-113039786D01*
X51870213Y-113190109D01*
X52042182Y-113315050D01*
X52050946Y-113319516D01*
X52101742Y-113367491D01*
X52118536Y-113435312D01*
X52095998Y-113501447D01*
X52050946Y-113540484D01*
X52042182Y-113544949D01*
X51870213Y-113669890D01*
X51719890Y-113820213D01*
X51594951Y-113992179D01*
X51498444Y-114181585D01*
X51432753Y-114383760D01*
X51399500Y-114593713D01*
X51399500Y-114806286D01*
X51432753Y-115016239D01*
X51432753Y-115016241D01*
X51432754Y-115016243D01*
X51487431Y-115184522D01*
X51498444Y-115218414D01*
X51594951Y-115407820D01*
X51719890Y-115579786D01*
X51870213Y-115730109D01*
X52042179Y-115855048D01*
X52042181Y-115855049D01*
X52042184Y-115855051D01*
X52051493Y-115859794D01*
X52102290Y-115907766D01*
X52119087Y-115975587D01*
X52096552Y-116041722D01*
X52051505Y-116080760D01*
X52042446Y-116085376D01*
X52042440Y-116085380D01*
X51988282Y-116124727D01*
X51988282Y-116124728D01*
X52620591Y-116757037D01*
X52557007Y-116774075D01*
X52442993Y-116839901D01*
X52349901Y-116932993D01*
X52284075Y-117047007D01*
X52267037Y-117110591D01*
X51634728Y-116478282D01*
X51634727Y-116478282D01*
X51595380Y-116532439D01*
X51498904Y-116721782D01*
X51433242Y-116923869D01*
X51433242Y-116923872D01*
X51400000Y-117133753D01*
X51400000Y-117346246D01*
X51433242Y-117556127D01*
X51433242Y-117556130D01*
X51498904Y-117758217D01*
X51595375Y-117947550D01*
X51634728Y-118001716D01*
X52267037Y-117369408D01*
X52284075Y-117432993D01*
X52349901Y-117547007D01*
X52442993Y-117640099D01*
X52557007Y-117705925D01*
X52620590Y-117722962D01*
X51988282Y-118355269D01*
X51988282Y-118355270D01*
X52042452Y-118394626D01*
X52052048Y-118399516D01*
X52102844Y-118447491D01*
X52119638Y-118515312D01*
X52097100Y-118581447D01*
X52052051Y-118620483D01*
X52042440Y-118625380D01*
X51988282Y-118664727D01*
X51988282Y-118664728D01*
X52620591Y-119297037D01*
X52557007Y-119314075D01*
X52442993Y-119379901D01*
X52349901Y-119472993D01*
X52284075Y-119587007D01*
X52267037Y-119650591D01*
X51634728Y-119018282D01*
X51634727Y-119018282D01*
X51595380Y-119072439D01*
X51498904Y-119261782D01*
X51433242Y-119463869D01*
X51433242Y-119463872D01*
X51400000Y-119673753D01*
X51400000Y-119886246D01*
X51433242Y-120096127D01*
X51433242Y-120096130D01*
X51498904Y-120298217D01*
X51595375Y-120487550D01*
X51634728Y-120541716D01*
X52267037Y-119909408D01*
X52284075Y-119972993D01*
X52349901Y-120087007D01*
X52442993Y-120180099D01*
X52557007Y-120245925D01*
X52620590Y-120262962D01*
X51988282Y-120895269D01*
X51988282Y-120895270D01*
X52042449Y-120934624D01*
X52231782Y-121031095D01*
X52433870Y-121096757D01*
X52643754Y-121130000D01*
X52856246Y-121130000D01*
X53066127Y-121096757D01*
X53066130Y-121096757D01*
X53268217Y-121031095D01*
X53457554Y-120934622D01*
X53511716Y-120895270D01*
X53511717Y-120895270D01*
X52879408Y-120262962D01*
X52942993Y-120245925D01*
X53057007Y-120180099D01*
X53150099Y-120087007D01*
X53215925Y-119972993D01*
X53232962Y-119909408D01*
X53865270Y-120541717D01*
X53865270Y-120541716D01*
X53904622Y-120487554D01*
X54001095Y-120298217D01*
X54066757Y-120096130D01*
X54066757Y-120096127D01*
X54100000Y-119886246D01*
X54100000Y-119673753D01*
X54066757Y-119463872D01*
X54066757Y-119463869D01*
X54001095Y-119261782D01*
X53904624Y-119072449D01*
X53865270Y-119018282D01*
X53865269Y-119018282D01*
X53232962Y-119650590D01*
X53215925Y-119587007D01*
X53150099Y-119472993D01*
X53057007Y-119379901D01*
X52942993Y-119314075D01*
X52879409Y-119297037D01*
X53511716Y-118664728D01*
X53457550Y-118625375D01*
X53447954Y-118620486D01*
X53397157Y-118572512D01*
X53380361Y-118504692D01*
X53402897Y-118438556D01*
X53447954Y-118399514D01*
X53457554Y-118394622D01*
X53511716Y-118355270D01*
X53511717Y-118355270D01*
X52879408Y-117722962D01*
X52942993Y-117705925D01*
X53057007Y-117640099D01*
X53150099Y-117547007D01*
X53215925Y-117432993D01*
X53232962Y-117369408D01*
X53865270Y-118001717D01*
X53865270Y-118001716D01*
X53904622Y-117947554D01*
X54001095Y-117758217D01*
X54066757Y-117556130D01*
X54066757Y-117556127D01*
X54100000Y-117346246D01*
X54100000Y-117198597D01*
X54119685Y-117131558D01*
X54172489Y-117085803D01*
X54241647Y-117075859D01*
X54305203Y-117104884D01*
X54311680Y-117110915D01*
X62486929Y-125286165D01*
X70609457Y-133408693D01*
X70642942Y-133470016D01*
X70637958Y-133539708D01*
X70596086Y-133595641D01*
X70530622Y-133620058D01*
X70502379Y-133618847D01*
X70380222Y-133599500D01*
X70159778Y-133599500D01*
X70100934Y-133608820D01*
X69942047Y-133633985D01*
X69732396Y-133702103D01*
X69732393Y-133702104D01*
X69535974Y-133802187D01*
X69357641Y-133931752D01*
X69357636Y-133931756D01*
X69307075Y-133982317D01*
X69245752Y-134015801D01*
X69176060Y-134010816D01*
X69120127Y-133968945D01*
X69103213Y-133937968D01*
X69073354Y-133857913D01*
X69073350Y-133857906D01*
X68987190Y-133742812D01*
X68987187Y-133742809D01*
X68872093Y-133656649D01*
X68872086Y-133656645D01*
X68737379Y-133606403D01*
X68737372Y-133606401D01*
X68677844Y-133600000D01*
X67980000Y-133600000D01*
X67980000Y-134624722D01*
X67903694Y-134580667D01*
X67789244Y-134550000D01*
X67670756Y-134550000D01*
X67556306Y-134580667D01*
X67480000Y-134624722D01*
X67480000Y-133600000D01*
X66782155Y-133600000D01*
X66722627Y-133606401D01*
X66722620Y-133606403D01*
X66587913Y-133656645D01*
X66587906Y-133656649D01*
X66472812Y-133742809D01*
X66472809Y-133742812D01*
X66386649Y-133857906D01*
X66386645Y-133857913D01*
X66336403Y-133992620D01*
X66336401Y-133992627D01*
X66330000Y-134052155D01*
X66330000Y-134750000D01*
X67354722Y-134750000D01*
X67310667Y-134826306D01*
X67280000Y-134940756D01*
X67280000Y-135059244D01*
X67310667Y-135173694D01*
X67354722Y-135250000D01*
X66330000Y-135250000D01*
X66330000Y-135947844D01*
X66336401Y-136007372D01*
X66336403Y-136007379D01*
X66386645Y-136142086D01*
X66386649Y-136142093D01*
X66472809Y-136257187D01*
X66472812Y-136257190D01*
X66587906Y-136343350D01*
X66587913Y-136343354D01*
X66722620Y-136393596D01*
X66722627Y-136393598D01*
X66782155Y-136399999D01*
X66782172Y-136400000D01*
X67480000Y-136400000D01*
X67480000Y-135375277D01*
X67556306Y-135419333D01*
X67670756Y-135450000D01*
X67789244Y-135450000D01*
X67903694Y-135419333D01*
X67980000Y-135375277D01*
X67980000Y-136400000D01*
X68677828Y-136400000D01*
X68677844Y-136399999D01*
X68737372Y-136393598D01*
X68737379Y-136393596D01*
X68872086Y-136343354D01*
X68872093Y-136343350D01*
X68987187Y-136257190D01*
X68987190Y-136257187D01*
X69073350Y-136142093D01*
X69073354Y-136142086D01*
X69103213Y-136062031D01*
X69145084Y-136006097D01*
X69210548Y-135981680D01*
X69278821Y-135996531D01*
X69307076Y-136017683D01*
X69357636Y-136068243D01*
X69357641Y-136068247D01*
X69513192Y-136181260D01*
X69535978Y-136197815D01*
X69652501Y-136257187D01*
X69732393Y-136297895D01*
X69732396Y-136297896D01*
X69799624Y-136319739D01*
X69942049Y-136366015D01*
X70159778Y-136400500D01*
X70159779Y-136400500D01*
X70380221Y-136400500D01*
X70380222Y-136400500D01*
X70597951Y-136366015D01*
X70807606Y-136297895D01*
X71004022Y-136197815D01*
X71182365Y-136068242D01*
X71338242Y-135912365D01*
X71467815Y-135734022D01*
X71567895Y-135537606D01*
X71636015Y-135327951D01*
X71670500Y-135110222D01*
X71670500Y-134889778D01*
X71651152Y-134767619D01*
X71660107Y-134698326D01*
X71705103Y-134644874D01*
X71771854Y-134624235D01*
X71839168Y-134642960D01*
X71861302Y-134660537D01*
X72504522Y-135303757D01*
X73459181Y-136258416D01*
X73492666Y-136319739D01*
X73495500Y-136346097D01*
X73495500Y-145816939D01*
X73495499Y-145816943D01*
X73495499Y-145975057D01*
X73496434Y-145978546D01*
X73496498Y-145990103D01*
X73496463Y-145990224D01*
X73496500Y-145990786D01*
X73496500Y-146476016D01*
X73496499Y-146476034D01*
X73496499Y-146642210D01*
X73497500Y-146657472D01*
X73497500Y-146742229D01*
X73497478Y-146742567D01*
X73497500Y-146831549D01*
X73497500Y-146908428D01*
X73497607Y-146909274D01*
X73497606Y-146909276D01*
X73498480Y-146916180D01*
X73497613Y-146916289D01*
X73497614Y-146916290D01*
X73497610Y-146916290D01*
X73497518Y-146916301D01*
X73499500Y-146931895D01*
X73499500Y-147276075D01*
X73499499Y-147276093D01*
X73499499Y-147441799D01*
X73499500Y-147441801D01*
X73540423Y-147594528D01*
X73540424Y-147594531D01*
X73561983Y-147631872D01*
X73619477Y-147731456D01*
X73619481Y-147731461D01*
X73738349Y-147850329D01*
X73738355Y-147850334D01*
X74808207Y-148920185D01*
X75675843Y-149787819D01*
X75709328Y-149849142D01*
X75704344Y-149918833D01*
X75662473Y-149974767D01*
X75597008Y-149999184D01*
X75588162Y-149999500D01*
X51124500Y-149999500D01*
X51057461Y-149979815D01*
X51011706Y-149927011D01*
X51000500Y-149875500D01*
X51000500Y-139575441D01*
X56599500Y-139575441D01*
X56599500Y-139824558D01*
X56599501Y-139824575D01*
X56632017Y-140071561D01*
X56696498Y-140312207D01*
X56791830Y-140542361D01*
X56791837Y-140542376D01*
X56916400Y-140758126D01*
X57068060Y-140955774D01*
X57068066Y-140955781D01*
X57244218Y-141131933D01*
X57244225Y-141131939D01*
X57441873Y-141283599D01*
X57657623Y-141408162D01*
X57657638Y-141408169D01*
X57734027Y-141439810D01*
X57887793Y-141503502D01*
X58128435Y-141567982D01*
X58375435Y-141600500D01*
X58375442Y-141600500D01*
X58624558Y-141600500D01*
X58624565Y-141600500D01*
X58871565Y-141567982D01*
X59112207Y-141503502D01*
X59335781Y-141410894D01*
X59342361Y-141408169D01*
X59342361Y-141408168D01*
X59342373Y-141408164D01*
X59558127Y-141283599D01*
X59755776Y-141131938D01*
X59931938Y-140955776D01*
X60083599Y-140758127D01*
X60208164Y-140542373D01*
X60303502Y-140312207D01*
X60367982Y-140071565D01*
X60400500Y-139824565D01*
X60400500Y-139575435D01*
X60367982Y-139328435D01*
X60303502Y-139087793D01*
X60212386Y-138867820D01*
X60208169Y-138857638D01*
X60208162Y-138857623D01*
X60083599Y-138641873D01*
X59931939Y-138444225D01*
X59931933Y-138444218D01*
X59755781Y-138268066D01*
X59755774Y-138268060D01*
X59558126Y-138116400D01*
X59342376Y-137991837D01*
X59342361Y-137991830D01*
X59112207Y-137896498D01*
X58871565Y-137832018D01*
X58871564Y-137832017D01*
X58871561Y-137832017D01*
X58624575Y-137799501D01*
X58624570Y-137799500D01*
X58624565Y-137799500D01*
X58375435Y-137799500D01*
X58375429Y-137799500D01*
X58375424Y-137799501D01*
X58128438Y-137832017D01*
X57887792Y-137896498D01*
X57657638Y-137991830D01*
X57657623Y-137991837D01*
X57441873Y-138116400D01*
X57244225Y-138268060D01*
X57244218Y-138268066D01*
X57068066Y-138444218D01*
X57068060Y-138444225D01*
X56916400Y-138641873D01*
X56791837Y-138857623D01*
X56791830Y-138857638D01*
X56696498Y-139087792D01*
X56632017Y-139328438D01*
X56599501Y-139575424D01*
X56599500Y-139575441D01*
X51000500Y-139575441D01*
X51000500Y-134875441D01*
X56599500Y-134875441D01*
X56599500Y-135124558D01*
X56599501Y-135124575D01*
X56632017Y-135371561D01*
X56696498Y-135612207D01*
X56791830Y-135842361D01*
X56791837Y-135842376D01*
X56916400Y-136058126D01*
X57068060Y-136255774D01*
X57068066Y-136255781D01*
X57244218Y-136431933D01*
X57244225Y-136431939D01*
X57441873Y-136583599D01*
X57657623Y-136708162D01*
X57657638Y-136708169D01*
X57756825Y-136749253D01*
X57887793Y-136803502D01*
X58128435Y-136867982D01*
X58375435Y-136900500D01*
X58375442Y-136900500D01*
X58624558Y-136900500D01*
X58624565Y-136900500D01*
X58871565Y-136867982D01*
X59112207Y-136803502D01*
X59342373Y-136708164D01*
X59558127Y-136583599D01*
X59755776Y-136431938D01*
X59931938Y-136255776D01*
X60083599Y-136058127D01*
X60208164Y-135842373D01*
X60303502Y-135612207D01*
X60367982Y-135371565D01*
X60400500Y-135124565D01*
X60400500Y-134875435D01*
X60367982Y-134628435D01*
X60303502Y-134387793D01*
X60208164Y-134157627D01*
X60198373Y-134140669D01*
X60181158Y-134110851D01*
X60083599Y-133941873D01*
X59931939Y-133744225D01*
X59931933Y-133744218D01*
X59755781Y-133568066D01*
X59755774Y-133568060D01*
X59558126Y-133416400D01*
X59342376Y-133291837D01*
X59342361Y-133291830D01*
X59112207Y-133196498D01*
X58871561Y-133132017D01*
X58624575Y-133099501D01*
X58624570Y-133099500D01*
X58624565Y-133099500D01*
X58375435Y-133099500D01*
X58375429Y-133099500D01*
X58375424Y-133099501D01*
X58128438Y-133132017D01*
X57887792Y-133196498D01*
X57657638Y-133291830D01*
X57657623Y-133291837D01*
X57441873Y-133416400D01*
X57244225Y-133568060D01*
X57244218Y-133568066D01*
X57068066Y-133744218D01*
X57068060Y-133744225D01*
X56916400Y-133941873D01*
X56791837Y-134157623D01*
X56791830Y-134157638D01*
X56696498Y-134387792D01*
X56632017Y-134628438D01*
X56599501Y-134875424D01*
X56599500Y-134875441D01*
X51000500Y-134875441D01*
X51000500Y-130175441D01*
X56599500Y-130175441D01*
X56599500Y-130424558D01*
X56599501Y-130424575D01*
X56632017Y-130671561D01*
X56696498Y-130912207D01*
X56791830Y-131142361D01*
X56791837Y-131142376D01*
X56916400Y-131358126D01*
X57068060Y-131555774D01*
X57068066Y-131555781D01*
X57244218Y-131731933D01*
X57244225Y-131731939D01*
X57441873Y-131883599D01*
X57657623Y-132008162D01*
X57657638Y-132008169D01*
X57756825Y-132049253D01*
X57887793Y-132103502D01*
X58128435Y-132167982D01*
X58375435Y-132200500D01*
X58375442Y-132200500D01*
X58624558Y-132200500D01*
X58624565Y-132200500D01*
X58871565Y-132167982D01*
X59112207Y-132103502D01*
X59342373Y-132008164D01*
X59558127Y-131883599D01*
X59755776Y-131731938D01*
X59931938Y-131555776D01*
X60083599Y-131358127D01*
X60208164Y-131142373D01*
X60303502Y-130912207D01*
X60367982Y-130671565D01*
X60400500Y-130424565D01*
X60400500Y-130175435D01*
X60367982Y-129928435D01*
X60303502Y-129687793D01*
X60227877Y-129505218D01*
X60208169Y-129457638D01*
X60208162Y-129457623D01*
X60083599Y-129241873D01*
X59931939Y-129044225D01*
X59931933Y-129044218D01*
X59755781Y-128868066D01*
X59755774Y-128868060D01*
X59558126Y-128716400D01*
X59342376Y-128591837D01*
X59342361Y-128591830D01*
X59112207Y-128496498D01*
X58871561Y-128432017D01*
X58624575Y-128399501D01*
X58624570Y-128399500D01*
X58624565Y-128399500D01*
X58375435Y-128399500D01*
X58375429Y-128399500D01*
X58375424Y-128399501D01*
X58128438Y-128432017D01*
X57887792Y-128496498D01*
X57657638Y-128591830D01*
X57657623Y-128591837D01*
X57441873Y-128716400D01*
X57244225Y-128868060D01*
X57244218Y-128868066D01*
X57068066Y-129044218D01*
X57068060Y-129044225D01*
X56916400Y-129241873D01*
X56791837Y-129457623D01*
X56791830Y-129457638D01*
X56696498Y-129687792D01*
X56632017Y-129928438D01*
X56599501Y-130175424D01*
X56599500Y-130175441D01*
X51000500Y-130175441D01*
X51000500Y-87825441D01*
X56599500Y-87825441D01*
X56599500Y-88074558D01*
X56599501Y-88074575D01*
X56632017Y-88321561D01*
X56696498Y-88562207D01*
X56791830Y-88792361D01*
X56791837Y-88792376D01*
X56916400Y-89008126D01*
X57068060Y-89205774D01*
X57068066Y-89205781D01*
X57244218Y-89381933D01*
X57244225Y-89381939D01*
X57441873Y-89533599D01*
X57657623Y-89658162D01*
X57657638Y-89658169D01*
X57756825Y-89699253D01*
X57887793Y-89753502D01*
X58128435Y-89817982D01*
X58375435Y-89850500D01*
X58375442Y-89850500D01*
X58624558Y-89850500D01*
X58624565Y-89850500D01*
X58871565Y-89817982D01*
X59112207Y-89753502D01*
X59342373Y-89658164D01*
X59558127Y-89533599D01*
X59755776Y-89381938D01*
X59931938Y-89205776D01*
X60083599Y-89008127D01*
X60208164Y-88792373D01*
X60303502Y-88562207D01*
X60367982Y-88321565D01*
X60400500Y-88074565D01*
X60400500Y-87825435D01*
X60367982Y-87578435D01*
X60303502Y-87337793D01*
X60245520Y-87197812D01*
X60208169Y-87107638D01*
X60208162Y-87107623D01*
X60083599Y-86891873D01*
X59931939Y-86694225D01*
X59931933Y-86694218D01*
X59755781Y-86518066D01*
X59755774Y-86518060D01*
X59558126Y-86366400D01*
X59342376Y-86241837D01*
X59342361Y-86241830D01*
X59112207Y-86146498D01*
X58970438Y-86108511D01*
X58871565Y-86082018D01*
X58871564Y-86082017D01*
X58871561Y-86082017D01*
X58624575Y-86049501D01*
X58624570Y-86049500D01*
X58624565Y-86049500D01*
X58375435Y-86049500D01*
X58375429Y-86049500D01*
X58375424Y-86049501D01*
X58128438Y-86082017D01*
X57887792Y-86146498D01*
X57657638Y-86241830D01*
X57657623Y-86241837D01*
X57441873Y-86366400D01*
X57244225Y-86518060D01*
X57244218Y-86518066D01*
X57068066Y-86694218D01*
X57068060Y-86694225D01*
X56916400Y-86891873D01*
X56791837Y-87107623D01*
X56791830Y-87107638D01*
X56696498Y-87337792D01*
X56632017Y-87578438D01*
X56599501Y-87825424D01*
X56599500Y-87825441D01*
X51000500Y-87825441D01*
X51000500Y-83125441D01*
X56599500Y-83125441D01*
X56599500Y-83374558D01*
X56599501Y-83374575D01*
X56632017Y-83621561D01*
X56696498Y-83862207D01*
X56791830Y-84092361D01*
X56791837Y-84092376D01*
X56916400Y-84308126D01*
X57068060Y-84505774D01*
X57068066Y-84505781D01*
X57244218Y-84681933D01*
X57244225Y-84681939D01*
X57441873Y-84833599D01*
X57657623Y-84958162D01*
X57657638Y-84958169D01*
X57713448Y-84981286D01*
X57887793Y-85053502D01*
X58128435Y-85117982D01*
X58375435Y-85150500D01*
X58375442Y-85150500D01*
X58624558Y-85150500D01*
X58624565Y-85150500D01*
X58871565Y-85117982D01*
X59112207Y-85053502D01*
X59342373Y-84958164D01*
X59558127Y-84833599D01*
X59755776Y-84681938D01*
X59931938Y-84505776D01*
X60083599Y-84308127D01*
X60208164Y-84092373D01*
X60303502Y-83862207D01*
X60367982Y-83621565D01*
X60400500Y-83374565D01*
X60400500Y-83125435D01*
X60367982Y-82878435D01*
X60303502Y-82637793D01*
X60208164Y-82407627D01*
X60083599Y-82191873D01*
X60040271Y-82135407D01*
X59931939Y-81994225D01*
X59931933Y-81994218D01*
X59755781Y-81818066D01*
X59755774Y-81818060D01*
X59558126Y-81666400D01*
X59342376Y-81541837D01*
X59342361Y-81541830D01*
X59112207Y-81446498D01*
X58871561Y-81382017D01*
X58624575Y-81349501D01*
X58624570Y-81349500D01*
X58624565Y-81349500D01*
X58375435Y-81349500D01*
X58375429Y-81349500D01*
X58375424Y-81349501D01*
X58128438Y-81382017D01*
X57887792Y-81446498D01*
X57657638Y-81541830D01*
X57657623Y-81541837D01*
X57441873Y-81666400D01*
X57244225Y-81818060D01*
X57244218Y-81818066D01*
X57068066Y-81994218D01*
X57068060Y-81994225D01*
X56916400Y-82191873D01*
X56791837Y-82407623D01*
X56791830Y-82407638D01*
X56696498Y-82637792D01*
X56632017Y-82878438D01*
X56599501Y-83125424D01*
X56599500Y-83125441D01*
X51000500Y-83125441D01*
X51000500Y-78425441D01*
X56599500Y-78425441D01*
X56599500Y-78674558D01*
X56599501Y-78674575D01*
X56632017Y-78921561D01*
X56696498Y-79162207D01*
X56791830Y-79392361D01*
X56791837Y-79392376D01*
X56916400Y-79608126D01*
X57068060Y-79805774D01*
X57068066Y-79805781D01*
X57244218Y-79981933D01*
X57244225Y-79981939D01*
X57441873Y-80133599D01*
X57657623Y-80258162D01*
X57657638Y-80258169D01*
X57756825Y-80299253D01*
X57887793Y-80353502D01*
X58128435Y-80417982D01*
X58375435Y-80450500D01*
X58375442Y-80450500D01*
X58624558Y-80450500D01*
X58624565Y-80450500D01*
X58871565Y-80417982D01*
X59112207Y-80353502D01*
X59342373Y-80258164D01*
X59558127Y-80133599D01*
X59755776Y-79981938D01*
X59931938Y-79805776D01*
X60083599Y-79608127D01*
X60208164Y-79392373D01*
X60303502Y-79162207D01*
X60367982Y-78921565D01*
X60400500Y-78674565D01*
X60400500Y-78425435D01*
X60367982Y-78178435D01*
X60303502Y-77937793D01*
X60208257Y-77707851D01*
X60208169Y-77707638D01*
X60208162Y-77707623D01*
X60083599Y-77491873D01*
X59931939Y-77294225D01*
X59931933Y-77294218D01*
X59755781Y-77118066D01*
X59755774Y-77118060D01*
X59558126Y-76966400D01*
X59342376Y-76841837D01*
X59342361Y-76841830D01*
X59112207Y-76746498D01*
X58871565Y-76682018D01*
X58871564Y-76682017D01*
X58871561Y-76682017D01*
X58624575Y-76649501D01*
X58624570Y-76649500D01*
X58624565Y-76649500D01*
X58375435Y-76649500D01*
X58375429Y-76649500D01*
X58375424Y-76649501D01*
X58128438Y-76682017D01*
X57887792Y-76746498D01*
X57657638Y-76841830D01*
X57657623Y-76841837D01*
X57441873Y-76966400D01*
X57244225Y-77118060D01*
X57244218Y-77118066D01*
X57068066Y-77294218D01*
X57068060Y-77294225D01*
X56916400Y-77491873D01*
X56791837Y-77707623D01*
X56791830Y-77707638D01*
X56696498Y-77937792D01*
X56632017Y-78178438D01*
X56599501Y-78425424D01*
X56599500Y-78425441D01*
X51000500Y-78425441D01*
X51000500Y-43124500D01*
X51020185Y-43057461D01*
X51072989Y-43011706D01*
X51124500Y-43000500D01*
X98875500Y-43000500D01*
X98942539Y-43020185D01*
G37*
%TD.AperFunction*%
%TA.AperFunction,Conductor*%
G36*
X69975000Y-54854787D02*
G01*
X69990206Y-54854136D01*
X70007843Y-54864431D01*
X70027437Y-54870185D01*
X70038335Y-54882230D01*
X70050547Y-54889359D01*
X70070883Y-54918205D01*
X70077715Y-54931614D01*
X70198028Y-55097213D01*
X70342786Y-55241971D01*
X70480499Y-55342023D01*
X70508390Y-55362287D01*
X70624607Y-55421503D01*
X70690776Y-55455218D01*
X70690778Y-55455218D01*
X70690781Y-55455220D01*
X70777470Y-55483387D01*
X70885465Y-55518477D01*
X70986557Y-55534488D01*
X71087648Y-55550500D01*
X71087649Y-55550500D01*
X71292351Y-55550500D01*
X71292352Y-55550500D01*
X71494534Y-55518477D01*
X71508842Y-55513827D01*
X71578682Y-55511831D01*
X71634842Y-55544077D01*
X73163181Y-57072416D01*
X73196666Y-57133739D01*
X73199500Y-57160097D01*
X73199500Y-66976000D01*
X73179815Y-67043039D01*
X73127011Y-67088794D01*
X73075500Y-67100000D01*
X72750000Y-67100000D01*
X72750000Y-68066988D01*
X72692993Y-68034075D01*
X72565826Y-68000000D01*
X72434174Y-68000000D01*
X72307007Y-68034075D01*
X72250000Y-68066988D01*
X72250000Y-67100000D01*
X71552155Y-67100000D01*
X71492627Y-67106401D01*
X71492620Y-67106403D01*
X71357913Y-67156645D01*
X71357906Y-67156649D01*
X71242812Y-67242809D01*
X71242809Y-67242812D01*
X71156649Y-67357906D01*
X71156645Y-67357913D01*
X71106403Y-67492620D01*
X71106401Y-67492627D01*
X71100000Y-67552155D01*
X71100000Y-68250000D01*
X72066988Y-68250000D01*
X72034075Y-68307007D01*
X72000000Y-68434174D01*
X72000000Y-68565826D01*
X72034075Y-68692993D01*
X72066988Y-68750000D01*
X71100000Y-68750000D01*
X71100000Y-69447844D01*
X71106401Y-69507372D01*
X71106403Y-69507379D01*
X71156645Y-69642086D01*
X71156649Y-69642093D01*
X71242809Y-69757187D01*
X71242812Y-69757190D01*
X71357906Y-69843350D01*
X71357913Y-69843354D01*
X71456229Y-69880023D01*
X71507222Y-69829031D01*
X71568545Y-69795546D01*
X71638237Y-69800530D01*
X71682584Y-69829031D01*
X72370591Y-70517037D01*
X72307007Y-70534075D01*
X72192993Y-70599901D01*
X72099901Y-70692993D01*
X72034075Y-70807007D01*
X72017037Y-70870590D01*
X71348932Y-70202485D01*
X71348931Y-70202485D01*
X71302616Y-70266233D01*
X71202567Y-70462589D01*
X71134473Y-70672164D01*
X71100000Y-70889818D01*
X71100000Y-71110181D01*
X71134473Y-71327835D01*
X71202567Y-71537410D01*
X71302611Y-71733756D01*
X71348932Y-71797513D01*
X72017037Y-71129408D01*
X72034075Y-71192993D01*
X72099901Y-71307007D01*
X72192993Y-71400099D01*
X72307007Y-71465925D01*
X72370590Y-71482962D01*
X71702485Y-72151065D01*
X71702485Y-72151066D01*
X71766243Y-72197388D01*
X71962589Y-72297432D01*
X72172164Y-72365526D01*
X72389819Y-72400000D01*
X72610181Y-72400000D01*
X72827835Y-72365526D01*
X73037410Y-72297432D01*
X73233760Y-72197386D01*
X73297513Y-72151066D01*
X73297514Y-72151066D01*
X72629409Y-71482962D01*
X72692993Y-71465925D01*
X72807007Y-71400099D01*
X72900099Y-71307007D01*
X72965925Y-71192993D01*
X72982962Y-71129409D01*
X73651066Y-71797514D01*
X73652547Y-71797397D01*
X73704700Y-71757180D01*
X73774314Y-71751200D01*
X73836109Y-71783806D01*
X73850008Y-71799846D01*
X73931752Y-71912359D01*
X74087636Y-72068243D01*
X74087641Y-72068247D01*
X74201632Y-72151065D01*
X74265978Y-72197815D01*
X74394375Y-72263237D01*
X74462393Y-72297895D01*
X74462396Y-72297896D01*
X74567221Y-72331955D01*
X74672049Y-72366015D01*
X74889778Y-72400500D01*
X74889779Y-72400500D01*
X75110221Y-72400500D01*
X75110222Y-72400500D01*
X75327951Y-72366015D01*
X75482959Y-72315650D01*
X75537182Y-72298033D01*
X75607024Y-72296038D01*
X75666856Y-72332119D01*
X75697684Y-72394820D01*
X75699500Y-72415964D01*
X75699500Y-73399902D01*
X75679815Y-73466941D01*
X75663181Y-73487583D01*
X65513181Y-83637583D01*
X65451858Y-83671068D01*
X65382166Y-83666084D01*
X65326233Y-83624212D01*
X65301816Y-83558748D01*
X65301500Y-83549902D01*
X65301500Y-74571945D01*
X65301500Y-74571943D01*
X65260577Y-74419216D01*
X65260577Y-74419215D01*
X65260577Y-74419214D01*
X65231639Y-74369095D01*
X65231637Y-74369092D01*
X65181520Y-74282284D01*
X65069716Y-74170480D01*
X65069715Y-74170479D01*
X65065385Y-74166149D01*
X65065374Y-74166139D01*
X54083757Y-63184522D01*
X54050272Y-63123199D01*
X54053507Y-63058523D01*
X54067246Y-63016243D01*
X54100500Y-62806287D01*
X54100500Y-62593713D01*
X54067246Y-62383757D01*
X54001557Y-62181588D01*
X53905051Y-61992184D01*
X53905049Y-61992181D01*
X53905048Y-61992179D01*
X53780109Y-61820213D01*
X53629786Y-61669890D01*
X53457820Y-61544951D01*
X53457115Y-61544591D01*
X53449054Y-61540485D01*
X53398259Y-61492512D01*
X53381463Y-61424692D01*
X53403999Y-61358556D01*
X53449054Y-61319515D01*
X53457816Y-61315051D01*
X53479789Y-61299086D01*
X53629786Y-61190109D01*
X53629788Y-61190106D01*
X53629792Y-61190104D01*
X53780104Y-61039792D01*
X53780106Y-61039788D01*
X53780109Y-61039786D01*
X53905048Y-60867820D01*
X53905047Y-60867820D01*
X53905051Y-60867816D01*
X54001557Y-60678412D01*
X54021171Y-60618048D01*
X68389500Y-60618048D01*
X68389500Y-61381951D01*
X68416013Y-61583333D01*
X68421334Y-61623744D01*
X68473976Y-61820208D01*
X68484456Y-61859320D01*
X68484459Y-61859330D01*
X68577786Y-62084640D01*
X68577791Y-62084651D01*
X68699727Y-62295848D01*
X68699738Y-62295864D01*
X68848199Y-62489343D01*
X68848205Y-62489350D01*
X69020649Y-62661794D01*
X69020655Y-62661799D01*
X69214144Y-62810268D01*
X69214151Y-62810272D01*
X69425348Y-62932208D01*
X69425353Y-62932210D01*
X69425356Y-62932212D01*
X69650679Y-63025544D01*
X69886256Y-63088666D01*
X70128056Y-63120500D01*
X70128063Y-63120500D01*
X70371937Y-63120500D01*
X70371944Y-63120500D01*
X70613744Y-63088666D01*
X70849321Y-63025544D01*
X71074644Y-62932212D01*
X71285856Y-62810268D01*
X71479345Y-62661799D01*
X71651799Y-62489345D01*
X71800268Y-62295856D01*
X71922212Y-62084644D01*
X72015544Y-61859321D01*
X72078666Y-61623744D01*
X72110500Y-61381944D01*
X72110500Y-60618056D01*
X72078666Y-60376256D01*
X72015544Y-60140679D01*
X71922212Y-59915356D01*
X71922210Y-59915353D01*
X71922208Y-59915348D01*
X71800272Y-59704151D01*
X71800268Y-59704144D01*
X71677124Y-59543659D01*
X71651800Y-59510656D01*
X71651794Y-59510649D01*
X71479350Y-59338205D01*
X71479343Y-59338199D01*
X71285864Y-59189738D01*
X71285862Y-59189736D01*
X71285856Y-59189732D01*
X71285851Y-59189729D01*
X71285848Y-59189727D01*
X71074651Y-59067791D01*
X71074640Y-59067786D01*
X70849330Y-58974459D01*
X70849323Y-58974457D01*
X70849321Y-58974456D01*
X70613744Y-58911334D01*
X70573333Y-58906013D01*
X70371951Y-58879500D01*
X70371944Y-58879500D01*
X70128056Y-58879500D01*
X70128048Y-58879500D01*
X69908215Y-58908443D01*
X69886256Y-58911334D01*
X69732576Y-58952512D01*
X69650679Y-58974456D01*
X69650669Y-58974459D01*
X69425359Y-59067786D01*
X69425348Y-59067791D01*
X69214151Y-59189727D01*
X69214135Y-59189738D01*
X69020656Y-59338199D01*
X69020649Y-59338205D01*
X68848205Y-59510649D01*
X68848199Y-59510656D01*
X68699738Y-59704135D01*
X68699727Y-59704151D01*
X68577791Y-59915348D01*
X68577786Y-59915359D01*
X68484459Y-60140669D01*
X68484456Y-60140679D01*
X68421335Y-60376253D01*
X68421333Y-60376264D01*
X68389500Y-60618048D01*
X54021171Y-60618048D01*
X54067246Y-60476243D01*
X54100500Y-60266287D01*
X54100500Y-60053713D01*
X54067246Y-59843757D01*
X54001557Y-59641588D01*
X53905051Y-59452184D01*
X53905049Y-59452181D01*
X53905048Y-59452179D01*
X53780109Y-59280213D01*
X53629786Y-59129890D01*
X53457820Y-59004951D01*
X53457115Y-59004591D01*
X53449054Y-59000485D01*
X53398259Y-58952512D01*
X53381463Y-58884692D01*
X53403999Y-58818556D01*
X53449054Y-58779515D01*
X53457816Y-58775051D01*
X53598200Y-58673057D01*
X53629786Y-58650109D01*
X53629788Y-58650106D01*
X53629792Y-58650104D01*
X53780104Y-58499792D01*
X53780106Y-58499788D01*
X53780109Y-58499786D01*
X53905048Y-58327820D01*
X53905047Y-58327820D01*
X53905051Y-58327816D01*
X54001557Y-58138412D01*
X54067246Y-57936243D01*
X54100500Y-57726287D01*
X54100500Y-57513713D01*
X54067246Y-57303757D01*
X54053506Y-57261473D01*
X54051512Y-57191635D01*
X54083755Y-57135478D01*
X56332417Y-54886819D01*
X56393740Y-54853334D01*
X56420098Y-54850500D01*
X69960398Y-54850500D01*
X69975000Y-54854787D01*
G37*
%TD.AperFunction*%
%TD*%
M02*
