%TF.GenerationSoftware,KiCad,Pcbnew,10.0.1*%
%TF.CreationDate,2026-06-25T20:54:48+02:00*%
%TF.ProjectId,DMH_Slew_Mk2_PCB_Controls,444d485f-536c-4657-975f-4d6b325f5043,1*%
%TF.SameCoordinates,Original*%
%TF.FileFunction,Drillmap*%
%TF.FilePolarity,Positive*%
%FSLAX45Y45*%
G04 Gerber Fmt 4.5, Leading zero omitted, Abs format (unit mm)*
G04 Created by KiCad (PCBNEW 10.0.1) date 2026-06-25 20:54:48*
%MOMM*%
%LPD*%
G01*
G04 APERTURE LIST*
%ADD10C,0.050000*%
%ADD11C,0.200000*%
%ADD12C,0.100000*%
%ADD13C,0.110000*%
%ADD14C,0.180000*%
G04 APERTURE END LIST*
D10*
X5100000Y-4250000D02*
X5100000Y-18350000D01*
X5100000Y-18350000D02*
X6600000Y-18350000D01*
X6600000Y-15050000D02*
X9900000Y-15050000D01*
X6600000Y-18350000D02*
X6600000Y-15050000D01*
X9900000Y-4250000D02*
X5100000Y-4250000D01*
X9900000Y-15050000D02*
X9900000Y-4250000D01*
D11*
D12*
X6179000Y-10190000D02*
X6259000Y-10270000D01*
X6259000Y-10190000D02*
X6179000Y-10270000D01*
X6941000Y-10190000D02*
X7021000Y-10270000D01*
X7021000Y-10190000D02*
X6941000Y-10270000D01*
X7079000Y-4885000D02*
X7159000Y-4965000D01*
X7159000Y-4885000D02*
X7079000Y-4965000D01*
X7079000Y-5385000D02*
X7159000Y-5465000D01*
X7159000Y-5385000D02*
X7079000Y-5465000D01*
X7841000Y-4885000D02*
X7921000Y-4965000D01*
X7921000Y-4885000D02*
X7841000Y-4965000D01*
X7841000Y-5385000D02*
X7921000Y-5465000D01*
X7921000Y-5385000D02*
X7841000Y-5465000D01*
X7979000Y-12790000D02*
X8059000Y-12870000D01*
X8059000Y-12790000D02*
X7979000Y-12870000D01*
X8741000Y-12790000D02*
X8821000Y-12870000D01*
X8821000Y-12790000D02*
X8741000Y-12870000D01*
X6818000Y-13500000D02*
G75*
G02*
X6728000Y-13500000I-45000J0D01*
G01*
X6728000Y-13500000D02*
G75*
G02*
X6818000Y-13500000I45000J0D01*
G01*
X7018000Y-8600000D02*
G75*
G02*
X6928000Y-8600000I-45000J0D01*
G01*
X6928000Y-8600000D02*
G75*
G02*
X7018000Y-8600000I45000J0D01*
G01*
X7072000Y-13500000D02*
G75*
G02*
X6982000Y-13500000I-45000J0D01*
G01*
X6982000Y-13500000D02*
G75*
G02*
X7072000Y-13500000I45000J0D01*
G01*
X7272000Y-8600000D02*
G75*
G02*
X7182000Y-8600000I-45000J0D01*
G01*
X7182000Y-8600000D02*
G75*
G02*
X7272000Y-8600000I45000J0D01*
G01*
X7818000Y-8600000D02*
G75*
G02*
X7728000Y-8600000I-45000J0D01*
G01*
X7728000Y-8600000D02*
G75*
G02*
X7818000Y-8600000I45000J0D01*
G01*
X8018000Y-10900000D02*
G75*
G02*
X7928000Y-10900000I-45000J0D01*
G01*
X7928000Y-10900000D02*
G75*
G02*
X8018000Y-10900000I45000J0D01*
G01*
X8072000Y-8600000D02*
G75*
G02*
X7982000Y-8600000I-45000J0D01*
G01*
X7982000Y-8600000D02*
G75*
G02*
X8072000Y-8600000I45000J0D01*
G01*
X8272000Y-10900000D02*
G75*
G02*
X8182000Y-10900000I-45000J0D01*
G01*
X8182000Y-10900000D02*
G75*
G02*
X8272000Y-10900000I45000J0D01*
G01*
X5275000Y-4950000D02*
X5275000Y-5050000D01*
X5225000Y-5000000D02*
X5325000Y-5000000D01*
X5275000Y-5204000D02*
X5275000Y-5304000D01*
X5225000Y-5254000D02*
X5325000Y-5254000D01*
X5275000Y-5458000D02*
X5275000Y-5558000D01*
X5225000Y-5508000D02*
X5325000Y-5508000D01*
X5275000Y-5712000D02*
X5275000Y-5812000D01*
X5225000Y-5762000D02*
X5325000Y-5762000D01*
X5275000Y-5966000D02*
X5275000Y-6066000D01*
X5225000Y-6016000D02*
X5325000Y-6016000D01*
X5275000Y-6220000D02*
X5275000Y-6320000D01*
X5225000Y-6270000D02*
X5325000Y-6270000D01*
X5275000Y-6474000D02*
X5275000Y-6574000D01*
X5225000Y-6524000D02*
X5325000Y-6524000D01*
X5275000Y-6728000D02*
X5275000Y-6828000D01*
X5225000Y-6778000D02*
X5325000Y-6778000D01*
X5275000Y-10150000D02*
X5275000Y-10250000D01*
X5225000Y-10200000D02*
X5325000Y-10200000D01*
X5275000Y-10404000D02*
X5275000Y-10504000D01*
X5225000Y-10454000D02*
X5325000Y-10454000D01*
X5275000Y-10658000D02*
X5275000Y-10758000D01*
X5225000Y-10708000D02*
X5325000Y-10708000D01*
X5275000Y-10912000D02*
X5275000Y-11012000D01*
X5225000Y-10962000D02*
X5325000Y-10962000D01*
X5275000Y-11166000D02*
X5275000Y-11266000D01*
X5225000Y-11216000D02*
X5325000Y-11216000D01*
X5275000Y-11420000D02*
X5275000Y-11520000D01*
X5225000Y-11470000D02*
X5325000Y-11470000D01*
X5275000Y-11674000D02*
X5275000Y-11774000D01*
X5225000Y-11724000D02*
X5325000Y-11724000D01*
X5275000Y-11928000D02*
X5275000Y-12028000D01*
X5225000Y-11978000D02*
X5325000Y-11978000D01*
X6350000Y-11600000D02*
X6350000Y-11700000D01*
X6300000Y-11650000D02*
X6400000Y-11650000D01*
X6600000Y-11600000D02*
X6600000Y-11700000D01*
X6550000Y-11650000D02*
X6650000Y-11650000D01*
X6850000Y-11600000D02*
X6850000Y-11700000D01*
X6800000Y-11650000D02*
X6900000Y-11650000D01*
X7250000Y-6800000D02*
X7250000Y-6900000D01*
X7200000Y-6850000D02*
X7300000Y-6850000D01*
X7250000Y-7050000D02*
X7250000Y-7150000D01*
X7200000Y-7100000D02*
X7300000Y-7100000D01*
X7500000Y-6800000D02*
X7500000Y-6900000D01*
X7450000Y-6850000D02*
X7550000Y-6850000D01*
X7500000Y-7050000D02*
X7500000Y-7150000D01*
X7450000Y-7100000D02*
X7550000Y-7100000D01*
X7750000Y-6800000D02*
X7750000Y-6900000D01*
X7700000Y-6850000D02*
X7800000Y-6850000D01*
X7750000Y-7050000D02*
X7750000Y-7150000D01*
X7700000Y-7100000D02*
X7800000Y-7100000D01*
X8150000Y-14200000D02*
X8150000Y-14300000D01*
X8100000Y-14250000D02*
X8200000Y-14250000D01*
X8400000Y-14200000D02*
X8400000Y-14300000D01*
X8350000Y-14250000D02*
X8450000Y-14250000D01*
X8650000Y-14200000D02*
X8650000Y-14300000D01*
X8600000Y-14250000D02*
X8700000Y-14250000D01*
X9720000Y-4950000D02*
X9720000Y-5050000D01*
X9670000Y-5000000D02*
X9770000Y-5000000D01*
X9720000Y-5204000D02*
X9720000Y-5304000D01*
X9670000Y-5254000D02*
X9770000Y-5254000D01*
X9720000Y-5458000D02*
X9720000Y-5558000D01*
X9670000Y-5508000D02*
X9770000Y-5508000D01*
X9720000Y-5712000D02*
X9720000Y-5812000D01*
X9670000Y-5762000D02*
X9770000Y-5762000D01*
X9720000Y-5966000D02*
X9720000Y-6066000D01*
X9670000Y-6016000D02*
X9770000Y-6016000D01*
X9720000Y-6220000D02*
X9720000Y-6320000D01*
X9670000Y-6270000D02*
X9770000Y-6270000D01*
X9720000Y-6474000D02*
X9720000Y-6574000D01*
X9670000Y-6524000D02*
X9770000Y-6524000D01*
X9720000Y-6728000D02*
X9720000Y-6828000D01*
X9670000Y-6778000D02*
X9770000Y-6778000D01*
X9720000Y-12750000D02*
X9720000Y-12850000D01*
X9670000Y-12800000D02*
X9770000Y-12800000D01*
X9720000Y-13004000D02*
X9720000Y-13104000D01*
X9670000Y-13054000D02*
X9770000Y-13054000D01*
X9720000Y-13258000D02*
X9720000Y-13358000D01*
X9670000Y-13308000D02*
X9770000Y-13308000D01*
X9720000Y-13512000D02*
X9720000Y-13612000D01*
X9670000Y-13562000D02*
X9770000Y-13562000D01*
X9720000Y-13766000D02*
X9720000Y-13866000D01*
X9670000Y-13816000D02*
X9770000Y-13816000D01*
X9720000Y-14020000D02*
X9720000Y-14120000D01*
X9670000Y-14070000D02*
X9770000Y-14070000D01*
X9720000Y-14274000D02*
X9720000Y-14374000D01*
X9670000Y-14324000D02*
X9770000Y-14324000D01*
X9720000Y-14528000D02*
X9720000Y-14628000D01*
X9670000Y-14578000D02*
X9770000Y-14578000D01*
D13*
X6158891Y-10938891D02*
X6158891Y-10861109D01*
X6081109Y-10861109D01*
X6081109Y-10938891D01*
X6158891Y-10938891D01*
D12*
X6175000Y-10935000D02*
X6175000Y-10865000D01*
X6065000Y-10865000D02*
G75*
G02*
X6175000Y-10865000I55000J0D01*
G01*
X6065000Y-10865000D02*
X6065000Y-10935000D01*
X6065000Y-10935000D02*
G75*
G03*
X6175000Y-10935000I55000J0D01*
G01*
D13*
X7063891Y-6138891D02*
X7063891Y-6061109D01*
X6986109Y-6061109D01*
X6986109Y-6138891D01*
X7063891Y-6138891D01*
D12*
X7080000Y-6135000D02*
X7080000Y-6065000D01*
X6970000Y-6065000D02*
G75*
G02*
X7080000Y-6065000I55000J0D01*
G01*
X6970000Y-6065000D02*
X6970000Y-6135000D01*
X6970000Y-6135000D02*
G75*
G03*
X7080000Y-6135000I55000J0D01*
G01*
D13*
X7118891Y-10938891D02*
X7118891Y-10861109D01*
X7041109Y-10861109D01*
X7041109Y-10938891D01*
X7118891Y-10938891D01*
D12*
X7135000Y-10935000D02*
X7135000Y-10865000D01*
X7025000Y-10865000D02*
G75*
G02*
X7135000Y-10865000I55000J0D01*
G01*
X7025000Y-10865000D02*
X7025000Y-10935000D01*
X7025000Y-10935000D02*
G75*
G03*
X7135000Y-10935000I55000J0D01*
G01*
D13*
X7958891Y-13538891D02*
X7958891Y-13461109D01*
X7881109Y-13461109D01*
X7881109Y-13538891D01*
X7958891Y-13538891D01*
D12*
X7975000Y-13535000D02*
X7975000Y-13465000D01*
X7865000Y-13465000D02*
G75*
G02*
X7975000Y-13465000I55000J0D01*
G01*
X7865000Y-13465000D02*
X7865000Y-13535000D01*
X7865000Y-13535000D02*
G75*
G03*
X7975000Y-13535000I55000J0D01*
G01*
D13*
X8013891Y-6138891D02*
X8013891Y-6061109D01*
X7936109Y-6061109D01*
X7936109Y-6138891D01*
X8013891Y-6138891D01*
D12*
X8030000Y-6135000D02*
X8030000Y-6065000D01*
X7920000Y-6065000D02*
G75*
G02*
X8030000Y-6065000I55000J0D01*
G01*
X7920000Y-6065000D02*
X7920000Y-6135000D01*
X7920000Y-6135000D02*
G75*
G03*
X8030000Y-6135000I55000J0D01*
G01*
D13*
X8918891Y-13538891D02*
X8918891Y-13461109D01*
X8841109Y-13461109D01*
X8841109Y-13538891D01*
X8918891Y-13538891D01*
D12*
X8935000Y-13535000D02*
X8935000Y-13465000D01*
X8825000Y-13465000D02*
G75*
G02*
X8935000Y-13465000I55000J0D01*
G01*
X8825000Y-13465000D02*
X8825000Y-13535000D01*
X8825000Y-13535000D02*
G75*
G03*
X8935000Y-13535000I55000J0D01*
G01*
D14*
X5608700Y-15545000D02*
X5698700Y-15455000D01*
X5608700Y-15365000D01*
X5518700Y-15455000D01*
X5608700Y-15545000D01*
X5608700Y-16015000D02*
X5698700Y-15925000D01*
X5608700Y-15835000D01*
X5518700Y-15925000D01*
X5608700Y-16015000D01*
X5608700Y-16485000D02*
X5698700Y-16395000D01*
X5608700Y-16305000D01*
X5518700Y-16395000D01*
X5608700Y-16485000D01*
X5608700Y-17195000D02*
X5698700Y-17105000D01*
X5608700Y-17015000D01*
X5518700Y-17105000D01*
X5608700Y-17195000D01*
X5608700Y-17665000D02*
X5698700Y-17575000D01*
X5608700Y-17485000D01*
X5518700Y-17575000D01*
X5608700Y-17665000D01*
X5608700Y-18135000D02*
X5698700Y-18045000D01*
X5608700Y-17955000D01*
X5518700Y-18045000D01*
X5608700Y-18135000D01*
X5850000Y-7945000D02*
X5940000Y-7855000D01*
X5850000Y-7765000D01*
X5760000Y-7855000D01*
X5850000Y-7945000D01*
X5850000Y-8415000D02*
X5940000Y-8325000D01*
X5850000Y-8235000D01*
X5760000Y-8325000D01*
X5850000Y-8415000D01*
X5850000Y-8885000D02*
X5940000Y-8795000D01*
X5850000Y-8705000D01*
X5760000Y-8795000D01*
X5850000Y-8885000D01*
X5850000Y-13120000D02*
X5940000Y-13030000D01*
X5850000Y-12940000D01*
X5760000Y-13030000D01*
X5850000Y-13120000D01*
X5850000Y-13590000D02*
X5940000Y-13500000D01*
X5850000Y-13410000D01*
X5760000Y-13500000D01*
X5850000Y-13590000D01*
X5850000Y-14060000D02*
X5940000Y-13970000D01*
X5850000Y-13880000D01*
X5760000Y-13970000D01*
X5850000Y-14060000D01*
X6091300Y-15545000D02*
X6181300Y-15455000D01*
X6091300Y-15365000D01*
X6001300Y-15455000D01*
X6091300Y-15545000D01*
X6091300Y-16015000D02*
X6181300Y-15925000D01*
X6091300Y-15835000D01*
X6001300Y-15925000D01*
X6091300Y-16015000D01*
X6091300Y-16485000D02*
X6181300Y-16395000D01*
X6091300Y-16305000D01*
X6001300Y-16395000D01*
X6091300Y-16485000D01*
X6091300Y-17195000D02*
X6181300Y-17105000D01*
X6091300Y-17015000D01*
X6001300Y-17105000D01*
X6091300Y-17195000D01*
X6091300Y-17665000D02*
X6181300Y-17575000D01*
X6091300Y-17485000D01*
X6001300Y-17575000D01*
X6091300Y-17665000D01*
X6091300Y-18135000D02*
X6181300Y-18045000D01*
X6091300Y-17955000D01*
X6001300Y-18045000D01*
X6091300Y-18135000D01*
X8908700Y-7945000D02*
X8998700Y-7855000D01*
X8908700Y-7765000D01*
X8818700Y-7855000D01*
X8908700Y-7945000D01*
X8908700Y-8415000D02*
X8998700Y-8325000D01*
X8908700Y-8235000D01*
X8818700Y-8325000D01*
X8908700Y-8415000D01*
X8908700Y-8885000D02*
X8998700Y-8795000D01*
X8908700Y-8705000D01*
X8818700Y-8795000D01*
X8908700Y-8885000D01*
X8908700Y-10520000D02*
X8998700Y-10430000D01*
X8908700Y-10340000D01*
X8818700Y-10430000D01*
X8908700Y-10520000D01*
X8908700Y-10990000D02*
X8998700Y-10900000D01*
X8908700Y-10810000D01*
X8818700Y-10900000D01*
X8908700Y-10990000D01*
X8908700Y-11460000D02*
X8998700Y-11370000D01*
X8908700Y-11280000D01*
X8818700Y-11370000D01*
X8908700Y-11460000D01*
X9391300Y-7945000D02*
X9481300Y-7855000D01*
X9391300Y-7765000D01*
X9301300Y-7855000D01*
X9391300Y-7945000D01*
X9391300Y-8415000D02*
X9481300Y-8325000D01*
X9391300Y-8235000D01*
X9301300Y-8325000D01*
X9391300Y-8415000D01*
X9391300Y-8885000D02*
X9481300Y-8795000D01*
X9391300Y-8705000D01*
X9301300Y-8795000D01*
X9391300Y-8885000D01*
X9391300Y-10520000D02*
X9481300Y-10430000D01*
X9391300Y-10340000D01*
X9301300Y-10430000D01*
X9391300Y-10520000D01*
X9391300Y-10990000D02*
X9481300Y-10900000D01*
X9391300Y-10810000D01*
X9301300Y-10900000D01*
X9391300Y-10990000D01*
X9391300Y-11460000D02*
X9481300Y-11370000D01*
X9391300Y-11280000D01*
X9301300Y-11370000D01*
X9391300Y-11460000D01*
D11*
X5358277Y-18663984D02*
X5358277Y-18463984D01*
X5358277Y-18463984D02*
X5405896Y-18463984D01*
X5405896Y-18463984D02*
X5434467Y-18473508D01*
X5434467Y-18473508D02*
X5453515Y-18492555D01*
X5453515Y-18492555D02*
X5463039Y-18511603D01*
X5463039Y-18511603D02*
X5472563Y-18549698D01*
X5472563Y-18549698D02*
X5472563Y-18578270D01*
X5472563Y-18578270D02*
X5463039Y-18616365D01*
X5463039Y-18616365D02*
X5453515Y-18635412D01*
X5453515Y-18635412D02*
X5434467Y-18654460D01*
X5434467Y-18654460D02*
X5405896Y-18663984D01*
X5405896Y-18663984D02*
X5358277Y-18663984D01*
X5558277Y-18663984D02*
X5558277Y-18530650D01*
X5558277Y-18568746D02*
X5567801Y-18549698D01*
X5567801Y-18549698D02*
X5577324Y-18540174D01*
X5577324Y-18540174D02*
X5596372Y-18530650D01*
X5596372Y-18530650D02*
X5615420Y-18530650D01*
X5682086Y-18663984D02*
X5682086Y-18530650D01*
X5682086Y-18463984D02*
X5672562Y-18473508D01*
X5672562Y-18473508D02*
X5682086Y-18483031D01*
X5682086Y-18483031D02*
X5691610Y-18473508D01*
X5691610Y-18473508D02*
X5682086Y-18463984D01*
X5682086Y-18463984D02*
X5682086Y-18483031D01*
X5805896Y-18663984D02*
X5786848Y-18654460D01*
X5786848Y-18654460D02*
X5777324Y-18635412D01*
X5777324Y-18635412D02*
X5777324Y-18463984D01*
X5910658Y-18663984D02*
X5891610Y-18654460D01*
X5891610Y-18654460D02*
X5882086Y-18635412D01*
X5882086Y-18635412D02*
X5882086Y-18463984D01*
X6139229Y-18663984D02*
X6139229Y-18463984D01*
X6139229Y-18463984D02*
X6205896Y-18606841D01*
X6205896Y-18606841D02*
X6272562Y-18463984D01*
X6272562Y-18463984D02*
X6272562Y-18663984D01*
X6453515Y-18663984D02*
X6453515Y-18559222D01*
X6453515Y-18559222D02*
X6443991Y-18540174D01*
X6443991Y-18540174D02*
X6424943Y-18530650D01*
X6424943Y-18530650D02*
X6386848Y-18530650D01*
X6386848Y-18530650D02*
X6367801Y-18540174D01*
X6453515Y-18654460D02*
X6434467Y-18663984D01*
X6434467Y-18663984D02*
X6386848Y-18663984D01*
X6386848Y-18663984D02*
X6367801Y-18654460D01*
X6367801Y-18654460D02*
X6358277Y-18635412D01*
X6358277Y-18635412D02*
X6358277Y-18616365D01*
X6358277Y-18616365D02*
X6367801Y-18597317D01*
X6367801Y-18597317D02*
X6386848Y-18587793D01*
X6386848Y-18587793D02*
X6434467Y-18587793D01*
X6434467Y-18587793D02*
X6453515Y-18578270D01*
X6548753Y-18530650D02*
X6548753Y-18730650D01*
X6548753Y-18540174D02*
X6567801Y-18530650D01*
X6567801Y-18530650D02*
X6605896Y-18530650D01*
X6605896Y-18530650D02*
X6624943Y-18540174D01*
X6624943Y-18540174D02*
X6634467Y-18549698D01*
X6634467Y-18549698D02*
X6643991Y-18568746D01*
X6643991Y-18568746D02*
X6643991Y-18625889D01*
X6643991Y-18625889D02*
X6634467Y-18644936D01*
X6634467Y-18644936D02*
X6624943Y-18654460D01*
X6624943Y-18654460D02*
X6605896Y-18663984D01*
X6605896Y-18663984D02*
X6567801Y-18663984D01*
X6567801Y-18663984D02*
X6548753Y-18654460D01*
X6729705Y-18644936D02*
X6739229Y-18654460D01*
X6739229Y-18654460D02*
X6729705Y-18663984D01*
X6729705Y-18663984D02*
X6720182Y-18654460D01*
X6720182Y-18654460D02*
X6729705Y-18644936D01*
X6729705Y-18644936D02*
X6729705Y-18663984D01*
X6729705Y-18540174D02*
X6739229Y-18549698D01*
X6739229Y-18549698D02*
X6729705Y-18559222D01*
X6729705Y-18559222D02*
X6720182Y-18549698D01*
X6720182Y-18549698D02*
X6729705Y-18540174D01*
X6729705Y-18540174D02*
X6729705Y-18559222D01*
D12*
X5017500Y-18952500D02*
X5097500Y-19032500D01*
X5097500Y-18952500D02*
X5017500Y-19032500D01*
D11*
X5396372Y-18883984D02*
X5415420Y-18883984D01*
X5415420Y-18883984D02*
X5434467Y-18893508D01*
X5434467Y-18893508D02*
X5443991Y-18903031D01*
X5443991Y-18903031D02*
X5453515Y-18922079D01*
X5453515Y-18922079D02*
X5463039Y-18960174D01*
X5463039Y-18960174D02*
X5463039Y-19007793D01*
X5463039Y-19007793D02*
X5453515Y-19045889D01*
X5453515Y-19045889D02*
X5443991Y-19064936D01*
X5443991Y-19064936D02*
X5434467Y-19074460D01*
X5434467Y-19074460D02*
X5415420Y-19083984D01*
X5415420Y-19083984D02*
X5396372Y-19083984D01*
X5396372Y-19083984D02*
X5377324Y-19074460D01*
X5377324Y-19074460D02*
X5367801Y-19064936D01*
X5367801Y-19064936D02*
X5358277Y-19045889D01*
X5358277Y-19045889D02*
X5348753Y-19007793D01*
X5348753Y-19007793D02*
X5348753Y-18960174D01*
X5348753Y-18960174D02*
X5358277Y-18922079D01*
X5358277Y-18922079D02*
X5367801Y-18903031D01*
X5367801Y-18903031D02*
X5377324Y-18893508D01*
X5377324Y-18893508D02*
X5396372Y-18883984D01*
X5558277Y-19074460D02*
X5558277Y-19083984D01*
X5558277Y-19083984D02*
X5548753Y-19103031D01*
X5548753Y-19103031D02*
X5539229Y-19112555D01*
X5672562Y-18969698D02*
X5653515Y-18960174D01*
X5653515Y-18960174D02*
X5643991Y-18950650D01*
X5643991Y-18950650D02*
X5634467Y-18931603D01*
X5634467Y-18931603D02*
X5634467Y-18922079D01*
X5634467Y-18922079D02*
X5643991Y-18903031D01*
X5643991Y-18903031D02*
X5653515Y-18893508D01*
X5653515Y-18893508D02*
X5672562Y-18883984D01*
X5672562Y-18883984D02*
X5710658Y-18883984D01*
X5710658Y-18883984D02*
X5729705Y-18893508D01*
X5729705Y-18893508D02*
X5739229Y-18903031D01*
X5739229Y-18903031D02*
X5748753Y-18922079D01*
X5748753Y-18922079D02*
X5748753Y-18931603D01*
X5748753Y-18931603D02*
X5739229Y-18950650D01*
X5739229Y-18950650D02*
X5729705Y-18960174D01*
X5729705Y-18960174D02*
X5710658Y-18969698D01*
X5710658Y-18969698D02*
X5672562Y-18969698D01*
X5672562Y-18969698D02*
X5653515Y-18979222D01*
X5653515Y-18979222D02*
X5643991Y-18988746D01*
X5643991Y-18988746D02*
X5634467Y-19007793D01*
X5634467Y-19007793D02*
X5634467Y-19045889D01*
X5634467Y-19045889D02*
X5643991Y-19064936D01*
X5643991Y-19064936D02*
X5653515Y-19074460D01*
X5653515Y-19074460D02*
X5672562Y-19083984D01*
X5672562Y-19083984D02*
X5710658Y-19083984D01*
X5710658Y-19083984D02*
X5729705Y-19074460D01*
X5729705Y-19074460D02*
X5739229Y-19064936D01*
X5739229Y-19064936D02*
X5748753Y-19045889D01*
X5748753Y-19045889D02*
X5748753Y-19007793D01*
X5748753Y-19007793D02*
X5739229Y-18988746D01*
X5739229Y-18988746D02*
X5729705Y-18979222D01*
X5729705Y-18979222D02*
X5710658Y-18969698D01*
X5872562Y-18883984D02*
X5891610Y-18883984D01*
X5891610Y-18883984D02*
X5910658Y-18893508D01*
X5910658Y-18893508D02*
X5920182Y-18903031D01*
X5920182Y-18903031D02*
X5929705Y-18922079D01*
X5929705Y-18922079D02*
X5939229Y-18960174D01*
X5939229Y-18960174D02*
X5939229Y-19007793D01*
X5939229Y-19007793D02*
X5929705Y-19045889D01*
X5929705Y-19045889D02*
X5920182Y-19064936D01*
X5920182Y-19064936D02*
X5910658Y-19074460D01*
X5910658Y-19074460D02*
X5891610Y-19083984D01*
X5891610Y-19083984D02*
X5872562Y-19083984D01*
X5872562Y-19083984D02*
X5853515Y-19074460D01*
X5853515Y-19074460D02*
X5843991Y-19064936D01*
X5843991Y-19064936D02*
X5834467Y-19045889D01*
X5834467Y-19045889D02*
X5824943Y-19007793D01*
X5824943Y-19007793D02*
X5824943Y-18960174D01*
X5824943Y-18960174D02*
X5834467Y-18922079D01*
X5834467Y-18922079D02*
X5843991Y-18903031D01*
X5843991Y-18903031D02*
X5853515Y-18893508D01*
X5853515Y-18893508D02*
X5872562Y-18883984D01*
X6063039Y-18883984D02*
X6082086Y-18883984D01*
X6082086Y-18883984D02*
X6101134Y-18893508D01*
X6101134Y-18893508D02*
X6110658Y-18903031D01*
X6110658Y-18903031D02*
X6120182Y-18922079D01*
X6120182Y-18922079D02*
X6129705Y-18960174D01*
X6129705Y-18960174D02*
X6129705Y-19007793D01*
X6129705Y-19007793D02*
X6120182Y-19045889D01*
X6120182Y-19045889D02*
X6110658Y-19064936D01*
X6110658Y-19064936D02*
X6101134Y-19074460D01*
X6101134Y-19074460D02*
X6082086Y-19083984D01*
X6082086Y-19083984D02*
X6063039Y-19083984D01*
X6063039Y-19083984D02*
X6043991Y-19074460D01*
X6043991Y-19074460D02*
X6034467Y-19064936D01*
X6034467Y-19064936D02*
X6024943Y-19045889D01*
X6024943Y-19045889D02*
X6015420Y-19007793D01*
X6015420Y-19007793D02*
X6015420Y-18960174D01*
X6015420Y-18960174D02*
X6024943Y-18922079D01*
X6024943Y-18922079D02*
X6034467Y-18903031D01*
X6034467Y-18903031D02*
X6043991Y-18893508D01*
X6043991Y-18893508D02*
X6063039Y-18883984D01*
X6215420Y-19083984D02*
X6215420Y-18950650D01*
X6215420Y-18969698D02*
X6224943Y-18960174D01*
X6224943Y-18960174D02*
X6243991Y-18950650D01*
X6243991Y-18950650D02*
X6272563Y-18950650D01*
X6272563Y-18950650D02*
X6291610Y-18960174D01*
X6291610Y-18960174D02*
X6301134Y-18979222D01*
X6301134Y-18979222D02*
X6301134Y-19083984D01*
X6301134Y-18979222D02*
X6310658Y-18960174D01*
X6310658Y-18960174D02*
X6329705Y-18950650D01*
X6329705Y-18950650D02*
X6358277Y-18950650D01*
X6358277Y-18950650D02*
X6377324Y-18960174D01*
X6377324Y-18960174D02*
X6386848Y-18979222D01*
X6386848Y-18979222D02*
X6386848Y-19083984D01*
X6482086Y-19083984D02*
X6482086Y-18950650D01*
X6482086Y-18969698D02*
X6491610Y-18960174D01*
X6491610Y-18960174D02*
X6510658Y-18950650D01*
X6510658Y-18950650D02*
X6539229Y-18950650D01*
X6539229Y-18950650D02*
X6558277Y-18960174D01*
X6558277Y-18960174D02*
X6567801Y-18979222D01*
X6567801Y-18979222D02*
X6567801Y-19083984D01*
X6567801Y-18979222D02*
X6577324Y-18960174D01*
X6577324Y-18960174D02*
X6596372Y-18950650D01*
X6596372Y-18950650D02*
X6624943Y-18950650D01*
X6624943Y-18950650D02*
X6643991Y-18960174D01*
X6643991Y-18960174D02*
X6653515Y-18979222D01*
X6653515Y-18979222D02*
X6653515Y-19083984D01*
X7043991Y-18874460D02*
X6872563Y-19131603D01*
X7301134Y-18883984D02*
X7320182Y-18883984D01*
X7320182Y-18883984D02*
X7339229Y-18893508D01*
X7339229Y-18893508D02*
X7348753Y-18903031D01*
X7348753Y-18903031D02*
X7358277Y-18922079D01*
X7358277Y-18922079D02*
X7367801Y-18960174D01*
X7367801Y-18960174D02*
X7367801Y-19007793D01*
X7367801Y-19007793D02*
X7358277Y-19045889D01*
X7358277Y-19045889D02*
X7348753Y-19064936D01*
X7348753Y-19064936D02*
X7339229Y-19074460D01*
X7339229Y-19074460D02*
X7320182Y-19083984D01*
X7320182Y-19083984D02*
X7301134Y-19083984D01*
X7301134Y-19083984D02*
X7282086Y-19074460D01*
X7282086Y-19074460D02*
X7272563Y-19064936D01*
X7272563Y-19064936D02*
X7263039Y-19045889D01*
X7263039Y-19045889D02*
X7253515Y-19007793D01*
X7253515Y-19007793D02*
X7253515Y-18960174D01*
X7253515Y-18960174D02*
X7263039Y-18922079D01*
X7263039Y-18922079D02*
X7272563Y-18903031D01*
X7272563Y-18903031D02*
X7282086Y-18893508D01*
X7282086Y-18893508D02*
X7301134Y-18883984D01*
X7463039Y-19074460D02*
X7463039Y-19083984D01*
X7463039Y-19083984D02*
X7453515Y-19103031D01*
X7453515Y-19103031D02*
X7443991Y-19112555D01*
X7586848Y-18883984D02*
X7605896Y-18883984D01*
X7605896Y-18883984D02*
X7624944Y-18893508D01*
X7624944Y-18893508D02*
X7634467Y-18903031D01*
X7634467Y-18903031D02*
X7643991Y-18922079D01*
X7643991Y-18922079D02*
X7653515Y-18960174D01*
X7653515Y-18960174D02*
X7653515Y-19007793D01*
X7653515Y-19007793D02*
X7643991Y-19045889D01*
X7643991Y-19045889D02*
X7634467Y-19064936D01*
X7634467Y-19064936D02*
X7624944Y-19074460D01*
X7624944Y-19074460D02*
X7605896Y-19083984D01*
X7605896Y-19083984D02*
X7586848Y-19083984D01*
X7586848Y-19083984D02*
X7567801Y-19074460D01*
X7567801Y-19074460D02*
X7558277Y-19064936D01*
X7558277Y-19064936D02*
X7548753Y-19045889D01*
X7548753Y-19045889D02*
X7539229Y-19007793D01*
X7539229Y-19007793D02*
X7539229Y-18960174D01*
X7539229Y-18960174D02*
X7548753Y-18922079D01*
X7548753Y-18922079D02*
X7558277Y-18903031D01*
X7558277Y-18903031D02*
X7567801Y-18893508D01*
X7567801Y-18893508D02*
X7586848Y-18883984D01*
X7720182Y-18883984D02*
X7843991Y-18883984D01*
X7843991Y-18883984D02*
X7777325Y-18960174D01*
X7777325Y-18960174D02*
X7805896Y-18960174D01*
X7805896Y-18960174D02*
X7824944Y-18969698D01*
X7824944Y-18969698D02*
X7834467Y-18979222D01*
X7834467Y-18979222D02*
X7843991Y-18998270D01*
X7843991Y-18998270D02*
X7843991Y-19045889D01*
X7843991Y-19045889D02*
X7834467Y-19064936D01*
X7834467Y-19064936D02*
X7824944Y-19074460D01*
X7824944Y-19074460D02*
X7805896Y-19083984D01*
X7805896Y-19083984D02*
X7748753Y-19083984D01*
X7748753Y-19083984D02*
X7729706Y-19074460D01*
X7729706Y-19074460D02*
X7720182Y-19064936D01*
X8034467Y-19083984D02*
X7920182Y-19083984D01*
X7977325Y-19083984D02*
X7977325Y-18883984D01*
X7977325Y-18883984D02*
X7958277Y-18912555D01*
X7958277Y-18912555D02*
X7939229Y-18931603D01*
X7939229Y-18931603D02*
X7920182Y-18941127D01*
X8215420Y-18883984D02*
X8120182Y-18883984D01*
X8120182Y-18883984D02*
X8110658Y-18979222D01*
X8110658Y-18979222D02*
X8120182Y-18969698D01*
X8120182Y-18969698D02*
X8139229Y-18960174D01*
X8139229Y-18960174D02*
X8186848Y-18960174D01*
X8186848Y-18960174D02*
X8205896Y-18969698D01*
X8205896Y-18969698D02*
X8215420Y-18979222D01*
X8215420Y-18979222D02*
X8224944Y-18998270D01*
X8224944Y-18998270D02*
X8224944Y-19045889D01*
X8224944Y-19045889D02*
X8215420Y-19064936D01*
X8215420Y-19064936D02*
X8205896Y-19074460D01*
X8205896Y-19074460D02*
X8186848Y-19083984D01*
X8186848Y-19083984D02*
X8139229Y-19083984D01*
X8139229Y-19083984D02*
X8120182Y-19074460D01*
X8120182Y-19074460D02*
X8110658Y-19064936D01*
X8301134Y-18883984D02*
X8301134Y-18922079D01*
X8377325Y-18883984D02*
X8377325Y-18922079D01*
X8672563Y-19160174D02*
X8663039Y-19150650D01*
X8663039Y-19150650D02*
X8643991Y-19122079D01*
X8643991Y-19122079D02*
X8634468Y-19103031D01*
X8634468Y-19103031D02*
X8624944Y-19074460D01*
X8624944Y-19074460D02*
X8615420Y-19026841D01*
X8615420Y-19026841D02*
X8615420Y-18988746D01*
X8615420Y-18988746D02*
X8624944Y-18941127D01*
X8624944Y-18941127D02*
X8634468Y-18912555D01*
X8634468Y-18912555D02*
X8643991Y-18893508D01*
X8643991Y-18893508D02*
X8663039Y-18864936D01*
X8663039Y-18864936D02*
X8672563Y-18855412D01*
X8777325Y-18969698D02*
X8758277Y-18960174D01*
X8758277Y-18960174D02*
X8748753Y-18950650D01*
X8748753Y-18950650D02*
X8739230Y-18931603D01*
X8739230Y-18931603D02*
X8739230Y-18922079D01*
X8739230Y-18922079D02*
X8748753Y-18903031D01*
X8748753Y-18903031D02*
X8758277Y-18893508D01*
X8758277Y-18893508D02*
X8777325Y-18883984D01*
X8777325Y-18883984D02*
X8815420Y-18883984D01*
X8815420Y-18883984D02*
X8834468Y-18893508D01*
X8834468Y-18893508D02*
X8843991Y-18903031D01*
X8843991Y-18903031D02*
X8853515Y-18922079D01*
X8853515Y-18922079D02*
X8853515Y-18931603D01*
X8853515Y-18931603D02*
X8843991Y-18950650D01*
X8843991Y-18950650D02*
X8834468Y-18960174D01*
X8834468Y-18960174D02*
X8815420Y-18969698D01*
X8815420Y-18969698D02*
X8777325Y-18969698D01*
X8777325Y-18969698D02*
X8758277Y-18979222D01*
X8758277Y-18979222D02*
X8748753Y-18988746D01*
X8748753Y-18988746D02*
X8739230Y-19007793D01*
X8739230Y-19007793D02*
X8739230Y-19045889D01*
X8739230Y-19045889D02*
X8748753Y-19064936D01*
X8748753Y-19064936D02*
X8758277Y-19074460D01*
X8758277Y-19074460D02*
X8777325Y-19083984D01*
X8777325Y-19083984D02*
X8815420Y-19083984D01*
X8815420Y-19083984D02*
X8834468Y-19074460D01*
X8834468Y-19074460D02*
X8843991Y-19064936D01*
X8843991Y-19064936D02*
X8853515Y-19045889D01*
X8853515Y-19045889D02*
X8853515Y-19007793D01*
X8853515Y-19007793D02*
X8843991Y-18988746D01*
X8843991Y-18988746D02*
X8834468Y-18979222D01*
X8834468Y-18979222D02*
X8815420Y-18969698D01*
X9091611Y-19083984D02*
X9091611Y-18883984D01*
X9177325Y-19083984D02*
X9177325Y-18979222D01*
X9177325Y-18979222D02*
X9167801Y-18960174D01*
X9167801Y-18960174D02*
X9148753Y-18950650D01*
X9148753Y-18950650D02*
X9120182Y-18950650D01*
X9120182Y-18950650D02*
X9101134Y-18960174D01*
X9101134Y-18960174D02*
X9091611Y-18969698D01*
X9301134Y-19083984D02*
X9282087Y-19074460D01*
X9282087Y-19074460D02*
X9272563Y-19064936D01*
X9272563Y-19064936D02*
X9263039Y-19045889D01*
X9263039Y-19045889D02*
X9263039Y-18988746D01*
X9263039Y-18988746D02*
X9272563Y-18969698D01*
X9272563Y-18969698D02*
X9282087Y-18960174D01*
X9282087Y-18960174D02*
X9301134Y-18950650D01*
X9301134Y-18950650D02*
X9329706Y-18950650D01*
X9329706Y-18950650D02*
X9348753Y-18960174D01*
X9348753Y-18960174D02*
X9358277Y-18969698D01*
X9358277Y-18969698D02*
X9367801Y-18988746D01*
X9367801Y-18988746D02*
X9367801Y-19045889D01*
X9367801Y-19045889D02*
X9358277Y-19064936D01*
X9358277Y-19064936D02*
X9348753Y-19074460D01*
X9348753Y-19074460D02*
X9329706Y-19083984D01*
X9329706Y-19083984D02*
X9301134Y-19083984D01*
X9482087Y-19083984D02*
X9463039Y-19074460D01*
X9463039Y-19074460D02*
X9453515Y-19055412D01*
X9453515Y-19055412D02*
X9453515Y-18883984D01*
X9634468Y-19074460D02*
X9615420Y-19083984D01*
X9615420Y-19083984D02*
X9577325Y-19083984D01*
X9577325Y-19083984D02*
X9558277Y-19074460D01*
X9558277Y-19074460D02*
X9548753Y-19055412D01*
X9548753Y-19055412D02*
X9548753Y-18979222D01*
X9548753Y-18979222D02*
X9558277Y-18960174D01*
X9558277Y-18960174D02*
X9577325Y-18950650D01*
X9577325Y-18950650D02*
X9615420Y-18950650D01*
X9615420Y-18950650D02*
X9634468Y-18960174D01*
X9634468Y-18960174D02*
X9643992Y-18979222D01*
X9643992Y-18979222D02*
X9643992Y-18998270D01*
X9643992Y-18998270D02*
X9548753Y-19017317D01*
X9720182Y-19074460D02*
X9739230Y-19083984D01*
X9739230Y-19083984D02*
X9777325Y-19083984D01*
X9777325Y-19083984D02*
X9796373Y-19074460D01*
X9796373Y-19074460D02*
X9805896Y-19055412D01*
X9805896Y-19055412D02*
X9805896Y-19045889D01*
X9805896Y-19045889D02*
X9796373Y-19026841D01*
X9796373Y-19026841D02*
X9777325Y-19017317D01*
X9777325Y-19017317D02*
X9748753Y-19017317D01*
X9748753Y-19017317D02*
X9729706Y-19007793D01*
X9729706Y-19007793D02*
X9720182Y-18988746D01*
X9720182Y-18988746D02*
X9720182Y-18979222D01*
X9720182Y-18979222D02*
X9729706Y-18960174D01*
X9729706Y-18960174D02*
X9748753Y-18950650D01*
X9748753Y-18950650D02*
X9777325Y-18950650D01*
X9777325Y-18950650D02*
X9796373Y-18960174D01*
X9872563Y-19160174D02*
X9882087Y-19150650D01*
X9882087Y-19150650D02*
X9901134Y-19122079D01*
X9901134Y-19122079D02*
X9910658Y-19103031D01*
X9910658Y-19103031D02*
X9920182Y-19074460D01*
X9920182Y-19074460D02*
X9929706Y-19026841D01*
X9929706Y-19026841D02*
X9929706Y-18988746D01*
X9929706Y-18988746D02*
X9920182Y-18941127D01*
X9920182Y-18941127D02*
X9910658Y-18912555D01*
X9910658Y-18912555D02*
X9901134Y-18893508D01*
X9901134Y-18893508D02*
X9882087Y-18864936D01*
X9882087Y-18864936D02*
X9872563Y-18855412D01*
D12*
X5097500Y-19256500D02*
G75*
G02*
X5007500Y-19256500I-45000J0D01*
G01*
X5007500Y-19256500D02*
G75*
G02*
X5097500Y-19256500I45000J0D01*
G01*
D11*
X5396372Y-19147984D02*
X5415420Y-19147984D01*
X5415420Y-19147984D02*
X5434467Y-19157508D01*
X5434467Y-19157508D02*
X5443991Y-19167031D01*
X5443991Y-19167031D02*
X5453515Y-19186079D01*
X5453515Y-19186079D02*
X5463039Y-19224174D01*
X5463039Y-19224174D02*
X5463039Y-19271793D01*
X5463039Y-19271793D02*
X5453515Y-19309889D01*
X5453515Y-19309889D02*
X5443991Y-19328936D01*
X5443991Y-19328936D02*
X5434467Y-19338460D01*
X5434467Y-19338460D02*
X5415420Y-19347984D01*
X5415420Y-19347984D02*
X5396372Y-19347984D01*
X5396372Y-19347984D02*
X5377324Y-19338460D01*
X5377324Y-19338460D02*
X5367801Y-19328936D01*
X5367801Y-19328936D02*
X5358277Y-19309889D01*
X5358277Y-19309889D02*
X5348753Y-19271793D01*
X5348753Y-19271793D02*
X5348753Y-19224174D01*
X5348753Y-19224174D02*
X5358277Y-19186079D01*
X5358277Y-19186079D02*
X5367801Y-19167031D01*
X5367801Y-19167031D02*
X5377324Y-19157508D01*
X5377324Y-19157508D02*
X5396372Y-19147984D01*
X5558277Y-19338460D02*
X5558277Y-19347984D01*
X5558277Y-19347984D02*
X5548753Y-19367031D01*
X5548753Y-19367031D02*
X5539229Y-19376555D01*
X5653515Y-19347984D02*
X5691610Y-19347984D01*
X5691610Y-19347984D02*
X5710658Y-19338460D01*
X5710658Y-19338460D02*
X5720182Y-19328936D01*
X5720182Y-19328936D02*
X5739229Y-19300365D01*
X5739229Y-19300365D02*
X5748753Y-19262270D01*
X5748753Y-19262270D02*
X5748753Y-19186079D01*
X5748753Y-19186079D02*
X5739229Y-19167031D01*
X5739229Y-19167031D02*
X5729705Y-19157508D01*
X5729705Y-19157508D02*
X5710658Y-19147984D01*
X5710658Y-19147984D02*
X5672562Y-19147984D01*
X5672562Y-19147984D02*
X5653515Y-19157508D01*
X5653515Y-19157508D02*
X5643991Y-19167031D01*
X5643991Y-19167031D02*
X5634467Y-19186079D01*
X5634467Y-19186079D02*
X5634467Y-19233698D01*
X5634467Y-19233698D02*
X5643991Y-19252746D01*
X5643991Y-19252746D02*
X5653515Y-19262270D01*
X5653515Y-19262270D02*
X5672562Y-19271793D01*
X5672562Y-19271793D02*
X5710658Y-19271793D01*
X5710658Y-19271793D02*
X5729705Y-19262270D01*
X5729705Y-19262270D02*
X5739229Y-19252746D01*
X5739229Y-19252746D02*
X5748753Y-19233698D01*
X5872562Y-19147984D02*
X5891610Y-19147984D01*
X5891610Y-19147984D02*
X5910658Y-19157508D01*
X5910658Y-19157508D02*
X5920182Y-19167031D01*
X5920182Y-19167031D02*
X5929705Y-19186079D01*
X5929705Y-19186079D02*
X5939229Y-19224174D01*
X5939229Y-19224174D02*
X5939229Y-19271793D01*
X5939229Y-19271793D02*
X5929705Y-19309889D01*
X5929705Y-19309889D02*
X5920182Y-19328936D01*
X5920182Y-19328936D02*
X5910658Y-19338460D01*
X5910658Y-19338460D02*
X5891610Y-19347984D01*
X5891610Y-19347984D02*
X5872562Y-19347984D01*
X5872562Y-19347984D02*
X5853515Y-19338460D01*
X5853515Y-19338460D02*
X5843991Y-19328936D01*
X5843991Y-19328936D02*
X5834467Y-19309889D01*
X5834467Y-19309889D02*
X5824943Y-19271793D01*
X5824943Y-19271793D02*
X5824943Y-19224174D01*
X5824943Y-19224174D02*
X5834467Y-19186079D01*
X5834467Y-19186079D02*
X5843991Y-19167031D01*
X5843991Y-19167031D02*
X5853515Y-19157508D01*
X5853515Y-19157508D02*
X5872562Y-19147984D01*
X6063039Y-19147984D02*
X6082086Y-19147984D01*
X6082086Y-19147984D02*
X6101134Y-19157508D01*
X6101134Y-19157508D02*
X6110658Y-19167031D01*
X6110658Y-19167031D02*
X6120182Y-19186079D01*
X6120182Y-19186079D02*
X6129705Y-19224174D01*
X6129705Y-19224174D02*
X6129705Y-19271793D01*
X6129705Y-19271793D02*
X6120182Y-19309889D01*
X6120182Y-19309889D02*
X6110658Y-19328936D01*
X6110658Y-19328936D02*
X6101134Y-19338460D01*
X6101134Y-19338460D02*
X6082086Y-19347984D01*
X6082086Y-19347984D02*
X6063039Y-19347984D01*
X6063039Y-19347984D02*
X6043991Y-19338460D01*
X6043991Y-19338460D02*
X6034467Y-19328936D01*
X6034467Y-19328936D02*
X6024943Y-19309889D01*
X6024943Y-19309889D02*
X6015420Y-19271793D01*
X6015420Y-19271793D02*
X6015420Y-19224174D01*
X6015420Y-19224174D02*
X6024943Y-19186079D01*
X6024943Y-19186079D02*
X6034467Y-19167031D01*
X6034467Y-19167031D02*
X6043991Y-19157508D01*
X6043991Y-19157508D02*
X6063039Y-19147984D01*
X6215420Y-19347984D02*
X6215420Y-19214650D01*
X6215420Y-19233698D02*
X6224943Y-19224174D01*
X6224943Y-19224174D02*
X6243991Y-19214650D01*
X6243991Y-19214650D02*
X6272563Y-19214650D01*
X6272563Y-19214650D02*
X6291610Y-19224174D01*
X6291610Y-19224174D02*
X6301134Y-19243222D01*
X6301134Y-19243222D02*
X6301134Y-19347984D01*
X6301134Y-19243222D02*
X6310658Y-19224174D01*
X6310658Y-19224174D02*
X6329705Y-19214650D01*
X6329705Y-19214650D02*
X6358277Y-19214650D01*
X6358277Y-19214650D02*
X6377324Y-19224174D01*
X6377324Y-19224174D02*
X6386848Y-19243222D01*
X6386848Y-19243222D02*
X6386848Y-19347984D01*
X6482086Y-19347984D02*
X6482086Y-19214650D01*
X6482086Y-19233698D02*
X6491610Y-19224174D01*
X6491610Y-19224174D02*
X6510658Y-19214650D01*
X6510658Y-19214650D02*
X6539229Y-19214650D01*
X6539229Y-19214650D02*
X6558277Y-19224174D01*
X6558277Y-19224174D02*
X6567801Y-19243222D01*
X6567801Y-19243222D02*
X6567801Y-19347984D01*
X6567801Y-19243222D02*
X6577324Y-19224174D01*
X6577324Y-19224174D02*
X6596372Y-19214650D01*
X6596372Y-19214650D02*
X6624943Y-19214650D01*
X6624943Y-19214650D02*
X6643991Y-19224174D01*
X6643991Y-19224174D02*
X6653515Y-19243222D01*
X6653515Y-19243222D02*
X6653515Y-19347984D01*
X7043991Y-19138460D02*
X6872563Y-19395603D01*
X7301134Y-19147984D02*
X7320182Y-19147984D01*
X7320182Y-19147984D02*
X7339229Y-19157508D01*
X7339229Y-19157508D02*
X7348753Y-19167031D01*
X7348753Y-19167031D02*
X7358277Y-19186079D01*
X7358277Y-19186079D02*
X7367801Y-19224174D01*
X7367801Y-19224174D02*
X7367801Y-19271793D01*
X7367801Y-19271793D02*
X7358277Y-19309889D01*
X7358277Y-19309889D02*
X7348753Y-19328936D01*
X7348753Y-19328936D02*
X7339229Y-19338460D01*
X7339229Y-19338460D02*
X7320182Y-19347984D01*
X7320182Y-19347984D02*
X7301134Y-19347984D01*
X7301134Y-19347984D02*
X7282086Y-19338460D01*
X7282086Y-19338460D02*
X7272563Y-19328936D01*
X7272563Y-19328936D02*
X7263039Y-19309889D01*
X7263039Y-19309889D02*
X7253515Y-19271793D01*
X7253515Y-19271793D02*
X7253515Y-19224174D01*
X7253515Y-19224174D02*
X7263039Y-19186079D01*
X7263039Y-19186079D02*
X7272563Y-19167031D01*
X7272563Y-19167031D02*
X7282086Y-19157508D01*
X7282086Y-19157508D02*
X7301134Y-19147984D01*
X7463039Y-19338460D02*
X7463039Y-19347984D01*
X7463039Y-19347984D02*
X7453515Y-19367031D01*
X7453515Y-19367031D02*
X7443991Y-19376555D01*
X7586848Y-19147984D02*
X7605896Y-19147984D01*
X7605896Y-19147984D02*
X7624944Y-19157508D01*
X7624944Y-19157508D02*
X7634467Y-19167031D01*
X7634467Y-19167031D02*
X7643991Y-19186079D01*
X7643991Y-19186079D02*
X7653515Y-19224174D01*
X7653515Y-19224174D02*
X7653515Y-19271793D01*
X7653515Y-19271793D02*
X7643991Y-19309889D01*
X7643991Y-19309889D02*
X7634467Y-19328936D01*
X7634467Y-19328936D02*
X7624944Y-19338460D01*
X7624944Y-19338460D02*
X7605896Y-19347984D01*
X7605896Y-19347984D02*
X7586848Y-19347984D01*
X7586848Y-19347984D02*
X7567801Y-19338460D01*
X7567801Y-19338460D02*
X7558277Y-19328936D01*
X7558277Y-19328936D02*
X7548753Y-19309889D01*
X7548753Y-19309889D02*
X7539229Y-19271793D01*
X7539229Y-19271793D02*
X7539229Y-19224174D01*
X7539229Y-19224174D02*
X7548753Y-19186079D01*
X7548753Y-19186079D02*
X7558277Y-19167031D01*
X7558277Y-19167031D02*
X7567801Y-19157508D01*
X7567801Y-19157508D02*
X7586848Y-19147984D01*
X7720182Y-19147984D02*
X7843991Y-19147984D01*
X7843991Y-19147984D02*
X7777325Y-19224174D01*
X7777325Y-19224174D02*
X7805896Y-19224174D01*
X7805896Y-19224174D02*
X7824944Y-19233698D01*
X7824944Y-19233698D02*
X7834467Y-19243222D01*
X7834467Y-19243222D02*
X7843991Y-19262270D01*
X7843991Y-19262270D02*
X7843991Y-19309889D01*
X7843991Y-19309889D02*
X7834467Y-19328936D01*
X7834467Y-19328936D02*
X7824944Y-19338460D01*
X7824944Y-19338460D02*
X7805896Y-19347984D01*
X7805896Y-19347984D02*
X7748753Y-19347984D01*
X7748753Y-19347984D02*
X7729706Y-19338460D01*
X7729706Y-19338460D02*
X7720182Y-19328936D01*
X8024944Y-19147984D02*
X7929706Y-19147984D01*
X7929706Y-19147984D02*
X7920182Y-19243222D01*
X7920182Y-19243222D02*
X7929706Y-19233698D01*
X7929706Y-19233698D02*
X7948753Y-19224174D01*
X7948753Y-19224174D02*
X7996372Y-19224174D01*
X7996372Y-19224174D02*
X8015420Y-19233698D01*
X8015420Y-19233698D02*
X8024944Y-19243222D01*
X8024944Y-19243222D02*
X8034467Y-19262270D01*
X8034467Y-19262270D02*
X8034467Y-19309889D01*
X8034467Y-19309889D02*
X8024944Y-19328936D01*
X8024944Y-19328936D02*
X8015420Y-19338460D01*
X8015420Y-19338460D02*
X7996372Y-19347984D01*
X7996372Y-19347984D02*
X7948753Y-19347984D01*
X7948753Y-19347984D02*
X7929706Y-19338460D01*
X7929706Y-19338460D02*
X7920182Y-19328936D01*
X8205896Y-19214650D02*
X8205896Y-19347984D01*
X8158277Y-19138460D02*
X8110658Y-19281317D01*
X8110658Y-19281317D02*
X8234467Y-19281317D01*
X8301134Y-19147984D02*
X8301134Y-19186079D01*
X8377325Y-19147984D02*
X8377325Y-19186079D01*
X8672563Y-19424174D02*
X8663039Y-19414650D01*
X8663039Y-19414650D02*
X8643991Y-19386079D01*
X8643991Y-19386079D02*
X8634468Y-19367031D01*
X8634468Y-19367031D02*
X8624944Y-19338460D01*
X8624944Y-19338460D02*
X8615420Y-19290841D01*
X8615420Y-19290841D02*
X8615420Y-19252746D01*
X8615420Y-19252746D02*
X8624944Y-19205127D01*
X8624944Y-19205127D02*
X8634468Y-19176555D01*
X8634468Y-19176555D02*
X8643991Y-19157508D01*
X8643991Y-19157508D02*
X8663039Y-19128936D01*
X8663039Y-19128936D02*
X8672563Y-19119412D01*
X8777325Y-19233698D02*
X8758277Y-19224174D01*
X8758277Y-19224174D02*
X8748753Y-19214650D01*
X8748753Y-19214650D02*
X8739230Y-19195603D01*
X8739230Y-19195603D02*
X8739230Y-19186079D01*
X8739230Y-19186079D02*
X8748753Y-19167031D01*
X8748753Y-19167031D02*
X8758277Y-19157508D01*
X8758277Y-19157508D02*
X8777325Y-19147984D01*
X8777325Y-19147984D02*
X8815420Y-19147984D01*
X8815420Y-19147984D02*
X8834468Y-19157508D01*
X8834468Y-19157508D02*
X8843991Y-19167031D01*
X8843991Y-19167031D02*
X8853515Y-19186079D01*
X8853515Y-19186079D02*
X8853515Y-19195603D01*
X8853515Y-19195603D02*
X8843991Y-19214650D01*
X8843991Y-19214650D02*
X8834468Y-19224174D01*
X8834468Y-19224174D02*
X8815420Y-19233698D01*
X8815420Y-19233698D02*
X8777325Y-19233698D01*
X8777325Y-19233698D02*
X8758277Y-19243222D01*
X8758277Y-19243222D02*
X8748753Y-19252746D01*
X8748753Y-19252746D02*
X8739230Y-19271793D01*
X8739230Y-19271793D02*
X8739230Y-19309889D01*
X8739230Y-19309889D02*
X8748753Y-19328936D01*
X8748753Y-19328936D02*
X8758277Y-19338460D01*
X8758277Y-19338460D02*
X8777325Y-19347984D01*
X8777325Y-19347984D02*
X8815420Y-19347984D01*
X8815420Y-19347984D02*
X8834468Y-19338460D01*
X8834468Y-19338460D02*
X8843991Y-19328936D01*
X8843991Y-19328936D02*
X8853515Y-19309889D01*
X8853515Y-19309889D02*
X8853515Y-19271793D01*
X8853515Y-19271793D02*
X8843991Y-19252746D01*
X8843991Y-19252746D02*
X8834468Y-19243222D01*
X8834468Y-19243222D02*
X8815420Y-19233698D01*
X9091611Y-19347984D02*
X9091611Y-19147984D01*
X9177325Y-19347984D02*
X9177325Y-19243222D01*
X9177325Y-19243222D02*
X9167801Y-19224174D01*
X9167801Y-19224174D02*
X9148753Y-19214650D01*
X9148753Y-19214650D02*
X9120182Y-19214650D01*
X9120182Y-19214650D02*
X9101134Y-19224174D01*
X9101134Y-19224174D02*
X9091611Y-19233698D01*
X9301134Y-19347984D02*
X9282087Y-19338460D01*
X9282087Y-19338460D02*
X9272563Y-19328936D01*
X9272563Y-19328936D02*
X9263039Y-19309889D01*
X9263039Y-19309889D02*
X9263039Y-19252746D01*
X9263039Y-19252746D02*
X9272563Y-19233698D01*
X9272563Y-19233698D02*
X9282087Y-19224174D01*
X9282087Y-19224174D02*
X9301134Y-19214650D01*
X9301134Y-19214650D02*
X9329706Y-19214650D01*
X9329706Y-19214650D02*
X9348753Y-19224174D01*
X9348753Y-19224174D02*
X9358277Y-19233698D01*
X9358277Y-19233698D02*
X9367801Y-19252746D01*
X9367801Y-19252746D02*
X9367801Y-19309889D01*
X9367801Y-19309889D02*
X9358277Y-19328936D01*
X9358277Y-19328936D02*
X9348753Y-19338460D01*
X9348753Y-19338460D02*
X9329706Y-19347984D01*
X9329706Y-19347984D02*
X9301134Y-19347984D01*
X9482087Y-19347984D02*
X9463039Y-19338460D01*
X9463039Y-19338460D02*
X9453515Y-19319412D01*
X9453515Y-19319412D02*
X9453515Y-19147984D01*
X9634468Y-19338460D02*
X9615420Y-19347984D01*
X9615420Y-19347984D02*
X9577325Y-19347984D01*
X9577325Y-19347984D02*
X9558277Y-19338460D01*
X9558277Y-19338460D02*
X9548753Y-19319412D01*
X9548753Y-19319412D02*
X9548753Y-19243222D01*
X9548753Y-19243222D02*
X9558277Y-19224174D01*
X9558277Y-19224174D02*
X9577325Y-19214650D01*
X9577325Y-19214650D02*
X9615420Y-19214650D01*
X9615420Y-19214650D02*
X9634468Y-19224174D01*
X9634468Y-19224174D02*
X9643992Y-19243222D01*
X9643992Y-19243222D02*
X9643992Y-19262270D01*
X9643992Y-19262270D02*
X9548753Y-19281317D01*
X9720182Y-19338460D02*
X9739230Y-19347984D01*
X9739230Y-19347984D02*
X9777325Y-19347984D01*
X9777325Y-19347984D02*
X9796373Y-19338460D01*
X9796373Y-19338460D02*
X9805896Y-19319412D01*
X9805896Y-19319412D02*
X9805896Y-19309889D01*
X9805896Y-19309889D02*
X9796373Y-19290841D01*
X9796373Y-19290841D02*
X9777325Y-19281317D01*
X9777325Y-19281317D02*
X9748753Y-19281317D01*
X9748753Y-19281317D02*
X9729706Y-19271793D01*
X9729706Y-19271793D02*
X9720182Y-19252746D01*
X9720182Y-19252746D02*
X9720182Y-19243222D01*
X9720182Y-19243222D02*
X9729706Y-19224174D01*
X9729706Y-19224174D02*
X9748753Y-19214650D01*
X9748753Y-19214650D02*
X9777325Y-19214650D01*
X9777325Y-19214650D02*
X9796373Y-19224174D01*
X9872563Y-19424174D02*
X9882087Y-19414650D01*
X9882087Y-19414650D02*
X9901134Y-19386079D01*
X9901134Y-19386079D02*
X9910658Y-19367031D01*
X9910658Y-19367031D02*
X9920182Y-19338460D01*
X9920182Y-19338460D02*
X9929706Y-19290841D01*
X9929706Y-19290841D02*
X9929706Y-19252746D01*
X9929706Y-19252746D02*
X9920182Y-19205127D01*
X9920182Y-19205127D02*
X9910658Y-19176555D01*
X9910658Y-19176555D02*
X9901134Y-19157508D01*
X9901134Y-19157508D02*
X9882087Y-19128936D01*
X9882087Y-19128936D02*
X9872563Y-19119412D01*
D12*
X5047500Y-19470500D02*
X5047500Y-19570500D01*
X4997500Y-19520500D02*
X5097500Y-19520500D01*
D11*
X5463039Y-19611984D02*
X5348753Y-19611984D01*
X5405896Y-19611984D02*
X5405896Y-19411984D01*
X5405896Y-19411984D02*
X5386848Y-19440555D01*
X5386848Y-19440555D02*
X5367801Y-19459603D01*
X5367801Y-19459603D02*
X5348753Y-19469127D01*
X5558277Y-19602460D02*
X5558277Y-19611984D01*
X5558277Y-19611984D02*
X5548753Y-19631031D01*
X5548753Y-19631031D02*
X5539229Y-19640555D01*
X5682086Y-19411984D02*
X5701134Y-19411984D01*
X5701134Y-19411984D02*
X5720182Y-19421508D01*
X5720182Y-19421508D02*
X5729705Y-19431031D01*
X5729705Y-19431031D02*
X5739229Y-19450079D01*
X5739229Y-19450079D02*
X5748753Y-19488174D01*
X5748753Y-19488174D02*
X5748753Y-19535793D01*
X5748753Y-19535793D02*
X5739229Y-19573889D01*
X5739229Y-19573889D02*
X5729705Y-19592936D01*
X5729705Y-19592936D02*
X5720182Y-19602460D01*
X5720182Y-19602460D02*
X5701134Y-19611984D01*
X5701134Y-19611984D02*
X5682086Y-19611984D01*
X5682086Y-19611984D02*
X5663039Y-19602460D01*
X5663039Y-19602460D02*
X5653515Y-19592936D01*
X5653515Y-19592936D02*
X5643991Y-19573889D01*
X5643991Y-19573889D02*
X5634467Y-19535793D01*
X5634467Y-19535793D02*
X5634467Y-19488174D01*
X5634467Y-19488174D02*
X5643991Y-19450079D01*
X5643991Y-19450079D02*
X5653515Y-19431031D01*
X5653515Y-19431031D02*
X5663039Y-19421508D01*
X5663039Y-19421508D02*
X5682086Y-19411984D01*
X5872562Y-19411984D02*
X5891610Y-19411984D01*
X5891610Y-19411984D02*
X5910658Y-19421508D01*
X5910658Y-19421508D02*
X5920182Y-19431031D01*
X5920182Y-19431031D02*
X5929705Y-19450079D01*
X5929705Y-19450079D02*
X5939229Y-19488174D01*
X5939229Y-19488174D02*
X5939229Y-19535793D01*
X5939229Y-19535793D02*
X5929705Y-19573889D01*
X5929705Y-19573889D02*
X5920182Y-19592936D01*
X5920182Y-19592936D02*
X5910658Y-19602460D01*
X5910658Y-19602460D02*
X5891610Y-19611984D01*
X5891610Y-19611984D02*
X5872562Y-19611984D01*
X5872562Y-19611984D02*
X5853515Y-19602460D01*
X5853515Y-19602460D02*
X5843991Y-19592936D01*
X5843991Y-19592936D02*
X5834467Y-19573889D01*
X5834467Y-19573889D02*
X5824943Y-19535793D01*
X5824943Y-19535793D02*
X5824943Y-19488174D01*
X5824943Y-19488174D02*
X5834467Y-19450079D01*
X5834467Y-19450079D02*
X5843991Y-19431031D01*
X5843991Y-19431031D02*
X5853515Y-19421508D01*
X5853515Y-19421508D02*
X5872562Y-19411984D01*
X6063039Y-19411984D02*
X6082086Y-19411984D01*
X6082086Y-19411984D02*
X6101134Y-19421508D01*
X6101134Y-19421508D02*
X6110658Y-19431031D01*
X6110658Y-19431031D02*
X6120182Y-19450079D01*
X6120182Y-19450079D02*
X6129705Y-19488174D01*
X6129705Y-19488174D02*
X6129705Y-19535793D01*
X6129705Y-19535793D02*
X6120182Y-19573889D01*
X6120182Y-19573889D02*
X6110658Y-19592936D01*
X6110658Y-19592936D02*
X6101134Y-19602460D01*
X6101134Y-19602460D02*
X6082086Y-19611984D01*
X6082086Y-19611984D02*
X6063039Y-19611984D01*
X6063039Y-19611984D02*
X6043991Y-19602460D01*
X6043991Y-19602460D02*
X6034467Y-19592936D01*
X6034467Y-19592936D02*
X6024943Y-19573889D01*
X6024943Y-19573889D02*
X6015420Y-19535793D01*
X6015420Y-19535793D02*
X6015420Y-19488174D01*
X6015420Y-19488174D02*
X6024943Y-19450079D01*
X6024943Y-19450079D02*
X6034467Y-19431031D01*
X6034467Y-19431031D02*
X6043991Y-19421508D01*
X6043991Y-19421508D02*
X6063039Y-19411984D01*
X6215420Y-19611984D02*
X6215420Y-19478650D01*
X6215420Y-19497698D02*
X6224943Y-19488174D01*
X6224943Y-19488174D02*
X6243991Y-19478650D01*
X6243991Y-19478650D02*
X6272563Y-19478650D01*
X6272563Y-19478650D02*
X6291610Y-19488174D01*
X6291610Y-19488174D02*
X6301134Y-19507222D01*
X6301134Y-19507222D02*
X6301134Y-19611984D01*
X6301134Y-19507222D02*
X6310658Y-19488174D01*
X6310658Y-19488174D02*
X6329705Y-19478650D01*
X6329705Y-19478650D02*
X6358277Y-19478650D01*
X6358277Y-19478650D02*
X6377324Y-19488174D01*
X6377324Y-19488174D02*
X6386848Y-19507222D01*
X6386848Y-19507222D02*
X6386848Y-19611984D01*
X6482086Y-19611984D02*
X6482086Y-19478650D01*
X6482086Y-19497698D02*
X6491610Y-19488174D01*
X6491610Y-19488174D02*
X6510658Y-19478650D01*
X6510658Y-19478650D02*
X6539229Y-19478650D01*
X6539229Y-19478650D02*
X6558277Y-19488174D01*
X6558277Y-19488174D02*
X6567801Y-19507222D01*
X6567801Y-19507222D02*
X6567801Y-19611984D01*
X6567801Y-19507222D02*
X6577324Y-19488174D01*
X6577324Y-19488174D02*
X6596372Y-19478650D01*
X6596372Y-19478650D02*
X6624943Y-19478650D01*
X6624943Y-19478650D02*
X6643991Y-19488174D01*
X6643991Y-19488174D02*
X6653515Y-19507222D01*
X6653515Y-19507222D02*
X6653515Y-19611984D01*
X7043991Y-19402460D02*
X6872563Y-19659603D01*
X7301134Y-19411984D02*
X7320182Y-19411984D01*
X7320182Y-19411984D02*
X7339229Y-19421508D01*
X7339229Y-19421508D02*
X7348753Y-19431031D01*
X7348753Y-19431031D02*
X7358277Y-19450079D01*
X7358277Y-19450079D02*
X7367801Y-19488174D01*
X7367801Y-19488174D02*
X7367801Y-19535793D01*
X7367801Y-19535793D02*
X7358277Y-19573889D01*
X7358277Y-19573889D02*
X7348753Y-19592936D01*
X7348753Y-19592936D02*
X7339229Y-19602460D01*
X7339229Y-19602460D02*
X7320182Y-19611984D01*
X7320182Y-19611984D02*
X7301134Y-19611984D01*
X7301134Y-19611984D02*
X7282086Y-19602460D01*
X7282086Y-19602460D02*
X7272563Y-19592936D01*
X7272563Y-19592936D02*
X7263039Y-19573889D01*
X7263039Y-19573889D02*
X7253515Y-19535793D01*
X7253515Y-19535793D02*
X7253515Y-19488174D01*
X7253515Y-19488174D02*
X7263039Y-19450079D01*
X7263039Y-19450079D02*
X7272563Y-19431031D01*
X7272563Y-19431031D02*
X7282086Y-19421508D01*
X7282086Y-19421508D02*
X7301134Y-19411984D01*
X7463039Y-19602460D02*
X7463039Y-19611984D01*
X7463039Y-19611984D02*
X7453515Y-19631031D01*
X7453515Y-19631031D02*
X7443991Y-19640555D01*
X7586848Y-19411984D02*
X7605896Y-19411984D01*
X7605896Y-19411984D02*
X7624944Y-19421508D01*
X7624944Y-19421508D02*
X7634467Y-19431031D01*
X7634467Y-19431031D02*
X7643991Y-19450079D01*
X7643991Y-19450079D02*
X7653515Y-19488174D01*
X7653515Y-19488174D02*
X7653515Y-19535793D01*
X7653515Y-19535793D02*
X7643991Y-19573889D01*
X7643991Y-19573889D02*
X7634467Y-19592936D01*
X7634467Y-19592936D02*
X7624944Y-19602460D01*
X7624944Y-19602460D02*
X7605896Y-19611984D01*
X7605896Y-19611984D02*
X7586848Y-19611984D01*
X7586848Y-19611984D02*
X7567801Y-19602460D01*
X7567801Y-19602460D02*
X7558277Y-19592936D01*
X7558277Y-19592936D02*
X7548753Y-19573889D01*
X7548753Y-19573889D02*
X7539229Y-19535793D01*
X7539229Y-19535793D02*
X7539229Y-19488174D01*
X7539229Y-19488174D02*
X7548753Y-19450079D01*
X7548753Y-19450079D02*
X7558277Y-19431031D01*
X7558277Y-19431031D02*
X7567801Y-19421508D01*
X7567801Y-19421508D02*
X7586848Y-19411984D01*
X7720182Y-19411984D02*
X7843991Y-19411984D01*
X7843991Y-19411984D02*
X7777325Y-19488174D01*
X7777325Y-19488174D02*
X7805896Y-19488174D01*
X7805896Y-19488174D02*
X7824944Y-19497698D01*
X7824944Y-19497698D02*
X7834467Y-19507222D01*
X7834467Y-19507222D02*
X7843991Y-19526270D01*
X7843991Y-19526270D02*
X7843991Y-19573889D01*
X7843991Y-19573889D02*
X7834467Y-19592936D01*
X7834467Y-19592936D02*
X7824944Y-19602460D01*
X7824944Y-19602460D02*
X7805896Y-19611984D01*
X7805896Y-19611984D02*
X7748753Y-19611984D01*
X7748753Y-19611984D02*
X7729706Y-19602460D01*
X7729706Y-19602460D02*
X7720182Y-19592936D01*
X7939229Y-19611984D02*
X7977325Y-19611984D01*
X7977325Y-19611984D02*
X7996372Y-19602460D01*
X7996372Y-19602460D02*
X8005896Y-19592936D01*
X8005896Y-19592936D02*
X8024944Y-19564365D01*
X8024944Y-19564365D02*
X8034467Y-19526270D01*
X8034467Y-19526270D02*
X8034467Y-19450079D01*
X8034467Y-19450079D02*
X8024944Y-19431031D01*
X8024944Y-19431031D02*
X8015420Y-19421508D01*
X8015420Y-19421508D02*
X7996372Y-19411984D01*
X7996372Y-19411984D02*
X7958277Y-19411984D01*
X7958277Y-19411984D02*
X7939229Y-19421508D01*
X7939229Y-19421508D02*
X7929706Y-19431031D01*
X7929706Y-19431031D02*
X7920182Y-19450079D01*
X7920182Y-19450079D02*
X7920182Y-19497698D01*
X7920182Y-19497698D02*
X7929706Y-19516746D01*
X7929706Y-19516746D02*
X7939229Y-19526270D01*
X7939229Y-19526270D02*
X7958277Y-19535793D01*
X7958277Y-19535793D02*
X7996372Y-19535793D01*
X7996372Y-19535793D02*
X8015420Y-19526270D01*
X8015420Y-19526270D02*
X8024944Y-19516746D01*
X8024944Y-19516746D02*
X8034467Y-19497698D01*
X8205896Y-19478650D02*
X8205896Y-19611984D01*
X8158277Y-19402460D02*
X8110658Y-19545317D01*
X8110658Y-19545317D02*
X8234467Y-19545317D01*
X8301134Y-19411984D02*
X8301134Y-19450079D01*
X8377325Y-19411984D02*
X8377325Y-19450079D01*
X8672563Y-19688174D02*
X8663039Y-19678650D01*
X8663039Y-19678650D02*
X8643991Y-19650079D01*
X8643991Y-19650079D02*
X8634468Y-19631031D01*
X8634468Y-19631031D02*
X8624944Y-19602460D01*
X8624944Y-19602460D02*
X8615420Y-19554841D01*
X8615420Y-19554841D02*
X8615420Y-19516746D01*
X8615420Y-19516746D02*
X8624944Y-19469127D01*
X8624944Y-19469127D02*
X8634468Y-19440555D01*
X8634468Y-19440555D02*
X8643991Y-19421508D01*
X8643991Y-19421508D02*
X8663039Y-19392936D01*
X8663039Y-19392936D02*
X8672563Y-19383412D01*
X8834468Y-19478650D02*
X8834468Y-19611984D01*
X8786849Y-19402460D02*
X8739230Y-19545317D01*
X8739230Y-19545317D02*
X8863039Y-19545317D01*
X9024944Y-19478650D02*
X9024944Y-19611984D01*
X8977325Y-19402460D02*
X8929706Y-19545317D01*
X8929706Y-19545317D02*
X9053515Y-19545317D01*
X9282087Y-19611984D02*
X9282087Y-19411984D01*
X9367801Y-19611984D02*
X9367801Y-19507222D01*
X9367801Y-19507222D02*
X9358277Y-19488174D01*
X9358277Y-19488174D02*
X9339230Y-19478650D01*
X9339230Y-19478650D02*
X9310658Y-19478650D01*
X9310658Y-19478650D02*
X9291611Y-19488174D01*
X9291611Y-19488174D02*
X9282087Y-19497698D01*
X9491611Y-19611984D02*
X9472563Y-19602460D01*
X9472563Y-19602460D02*
X9463039Y-19592936D01*
X9463039Y-19592936D02*
X9453515Y-19573889D01*
X9453515Y-19573889D02*
X9453515Y-19516746D01*
X9453515Y-19516746D02*
X9463039Y-19497698D01*
X9463039Y-19497698D02*
X9472563Y-19488174D01*
X9472563Y-19488174D02*
X9491611Y-19478650D01*
X9491611Y-19478650D02*
X9520182Y-19478650D01*
X9520182Y-19478650D02*
X9539230Y-19488174D01*
X9539230Y-19488174D02*
X9548753Y-19497698D01*
X9548753Y-19497698D02*
X9558277Y-19516746D01*
X9558277Y-19516746D02*
X9558277Y-19573889D01*
X9558277Y-19573889D02*
X9548753Y-19592936D01*
X9548753Y-19592936D02*
X9539230Y-19602460D01*
X9539230Y-19602460D02*
X9520182Y-19611984D01*
X9520182Y-19611984D02*
X9491611Y-19611984D01*
X9672563Y-19611984D02*
X9653515Y-19602460D01*
X9653515Y-19602460D02*
X9643992Y-19583412D01*
X9643992Y-19583412D02*
X9643992Y-19411984D01*
X9824944Y-19602460D02*
X9805896Y-19611984D01*
X9805896Y-19611984D02*
X9767801Y-19611984D01*
X9767801Y-19611984D02*
X9748753Y-19602460D01*
X9748753Y-19602460D02*
X9739230Y-19583412D01*
X9739230Y-19583412D02*
X9739230Y-19507222D01*
X9739230Y-19507222D02*
X9748753Y-19488174D01*
X9748753Y-19488174D02*
X9767801Y-19478650D01*
X9767801Y-19478650D02*
X9805896Y-19478650D01*
X9805896Y-19478650D02*
X9824944Y-19488174D01*
X9824944Y-19488174D02*
X9834468Y-19507222D01*
X9834468Y-19507222D02*
X9834468Y-19526270D01*
X9834468Y-19526270D02*
X9739230Y-19545317D01*
X9910658Y-19602460D02*
X9929706Y-19611984D01*
X9929706Y-19611984D02*
X9967801Y-19611984D01*
X9967801Y-19611984D02*
X9986849Y-19602460D01*
X9986849Y-19602460D02*
X9996373Y-19583412D01*
X9996373Y-19583412D02*
X9996373Y-19573889D01*
X9996373Y-19573889D02*
X9986849Y-19554841D01*
X9986849Y-19554841D02*
X9967801Y-19545317D01*
X9967801Y-19545317D02*
X9939230Y-19545317D01*
X9939230Y-19545317D02*
X9920182Y-19535793D01*
X9920182Y-19535793D02*
X9910658Y-19516746D01*
X9910658Y-19516746D02*
X9910658Y-19507222D01*
X9910658Y-19507222D02*
X9920182Y-19488174D01*
X9920182Y-19488174D02*
X9939230Y-19478650D01*
X9939230Y-19478650D02*
X9967801Y-19478650D01*
X9967801Y-19478650D02*
X9986849Y-19488174D01*
X10063039Y-19688174D02*
X10072563Y-19678650D01*
X10072563Y-19678650D02*
X10091611Y-19650079D01*
X10091611Y-19650079D02*
X10101134Y-19631031D01*
X10101134Y-19631031D02*
X10110658Y-19602460D01*
X10110658Y-19602460D02*
X10120182Y-19554841D01*
X10120182Y-19554841D02*
X10120182Y-19516746D01*
X10120182Y-19516746D02*
X10110658Y-19469127D01*
X10110658Y-19469127D02*
X10101134Y-19440555D01*
X10101134Y-19440555D02*
X10091611Y-19421508D01*
X10091611Y-19421508D02*
X10072563Y-19392936D01*
X10072563Y-19392936D02*
X10063039Y-19383412D01*
D13*
X5081391Y-19823391D02*
X5081391Y-19745609D01*
X5003609Y-19745609D01*
X5003609Y-19823391D01*
X5081391Y-19823391D01*
D11*
X5463039Y-19875984D02*
X5348753Y-19875984D01*
X5405896Y-19875984D02*
X5405896Y-19675984D01*
X5405896Y-19675984D02*
X5386848Y-19704555D01*
X5386848Y-19704555D02*
X5367801Y-19723603D01*
X5367801Y-19723603D02*
X5348753Y-19733127D01*
X5558277Y-19866460D02*
X5558277Y-19875984D01*
X5558277Y-19875984D02*
X5548753Y-19895031D01*
X5548753Y-19895031D02*
X5539229Y-19904555D01*
X5748753Y-19875984D02*
X5634467Y-19875984D01*
X5691610Y-19875984D02*
X5691610Y-19675984D01*
X5691610Y-19675984D02*
X5672562Y-19704555D01*
X5672562Y-19704555D02*
X5653515Y-19723603D01*
X5653515Y-19723603D02*
X5634467Y-19733127D01*
X5872562Y-19675984D02*
X5891610Y-19675984D01*
X5891610Y-19675984D02*
X5910658Y-19685508D01*
X5910658Y-19685508D02*
X5920182Y-19695031D01*
X5920182Y-19695031D02*
X5929705Y-19714079D01*
X5929705Y-19714079D02*
X5939229Y-19752174D01*
X5939229Y-19752174D02*
X5939229Y-19799793D01*
X5939229Y-19799793D02*
X5929705Y-19837889D01*
X5929705Y-19837889D02*
X5920182Y-19856936D01*
X5920182Y-19856936D02*
X5910658Y-19866460D01*
X5910658Y-19866460D02*
X5891610Y-19875984D01*
X5891610Y-19875984D02*
X5872562Y-19875984D01*
X5872562Y-19875984D02*
X5853515Y-19866460D01*
X5853515Y-19866460D02*
X5843991Y-19856936D01*
X5843991Y-19856936D02*
X5834467Y-19837889D01*
X5834467Y-19837889D02*
X5824943Y-19799793D01*
X5824943Y-19799793D02*
X5824943Y-19752174D01*
X5824943Y-19752174D02*
X5834467Y-19714079D01*
X5834467Y-19714079D02*
X5843991Y-19695031D01*
X5843991Y-19695031D02*
X5853515Y-19685508D01*
X5853515Y-19685508D02*
X5872562Y-19675984D01*
X6063039Y-19675984D02*
X6082086Y-19675984D01*
X6082086Y-19675984D02*
X6101134Y-19685508D01*
X6101134Y-19685508D02*
X6110658Y-19695031D01*
X6110658Y-19695031D02*
X6120182Y-19714079D01*
X6120182Y-19714079D02*
X6129705Y-19752174D01*
X6129705Y-19752174D02*
X6129705Y-19799793D01*
X6129705Y-19799793D02*
X6120182Y-19837889D01*
X6120182Y-19837889D02*
X6110658Y-19856936D01*
X6110658Y-19856936D02*
X6101134Y-19866460D01*
X6101134Y-19866460D02*
X6082086Y-19875984D01*
X6082086Y-19875984D02*
X6063039Y-19875984D01*
X6063039Y-19875984D02*
X6043991Y-19866460D01*
X6043991Y-19866460D02*
X6034467Y-19856936D01*
X6034467Y-19856936D02*
X6024943Y-19837889D01*
X6024943Y-19837889D02*
X6015420Y-19799793D01*
X6015420Y-19799793D02*
X6015420Y-19752174D01*
X6015420Y-19752174D02*
X6024943Y-19714079D01*
X6024943Y-19714079D02*
X6034467Y-19695031D01*
X6034467Y-19695031D02*
X6043991Y-19685508D01*
X6043991Y-19685508D02*
X6063039Y-19675984D01*
X6215420Y-19875984D02*
X6215420Y-19742650D01*
X6215420Y-19761698D02*
X6224943Y-19752174D01*
X6224943Y-19752174D02*
X6243991Y-19742650D01*
X6243991Y-19742650D02*
X6272563Y-19742650D01*
X6272563Y-19742650D02*
X6291610Y-19752174D01*
X6291610Y-19752174D02*
X6301134Y-19771222D01*
X6301134Y-19771222D02*
X6301134Y-19875984D01*
X6301134Y-19771222D02*
X6310658Y-19752174D01*
X6310658Y-19752174D02*
X6329705Y-19742650D01*
X6329705Y-19742650D02*
X6358277Y-19742650D01*
X6358277Y-19742650D02*
X6377324Y-19752174D01*
X6377324Y-19752174D02*
X6386848Y-19771222D01*
X6386848Y-19771222D02*
X6386848Y-19875984D01*
X6482086Y-19875984D02*
X6482086Y-19742650D01*
X6482086Y-19761698D02*
X6491610Y-19752174D01*
X6491610Y-19752174D02*
X6510658Y-19742650D01*
X6510658Y-19742650D02*
X6539229Y-19742650D01*
X6539229Y-19742650D02*
X6558277Y-19752174D01*
X6558277Y-19752174D02*
X6567801Y-19771222D01*
X6567801Y-19771222D02*
X6567801Y-19875984D01*
X6567801Y-19771222D02*
X6577324Y-19752174D01*
X6577324Y-19752174D02*
X6596372Y-19742650D01*
X6596372Y-19742650D02*
X6624943Y-19742650D01*
X6624943Y-19742650D02*
X6643991Y-19752174D01*
X6643991Y-19752174D02*
X6653515Y-19771222D01*
X6653515Y-19771222D02*
X6653515Y-19875984D01*
X7043991Y-19666460D02*
X6872563Y-19923603D01*
X7301134Y-19675984D02*
X7320182Y-19675984D01*
X7320182Y-19675984D02*
X7339229Y-19685508D01*
X7339229Y-19685508D02*
X7348753Y-19695031D01*
X7348753Y-19695031D02*
X7358277Y-19714079D01*
X7358277Y-19714079D02*
X7367801Y-19752174D01*
X7367801Y-19752174D02*
X7367801Y-19799793D01*
X7367801Y-19799793D02*
X7358277Y-19837889D01*
X7358277Y-19837889D02*
X7348753Y-19856936D01*
X7348753Y-19856936D02*
X7339229Y-19866460D01*
X7339229Y-19866460D02*
X7320182Y-19875984D01*
X7320182Y-19875984D02*
X7301134Y-19875984D01*
X7301134Y-19875984D02*
X7282086Y-19866460D01*
X7282086Y-19866460D02*
X7272563Y-19856936D01*
X7272563Y-19856936D02*
X7263039Y-19837889D01*
X7263039Y-19837889D02*
X7253515Y-19799793D01*
X7253515Y-19799793D02*
X7253515Y-19752174D01*
X7253515Y-19752174D02*
X7263039Y-19714079D01*
X7263039Y-19714079D02*
X7272563Y-19695031D01*
X7272563Y-19695031D02*
X7282086Y-19685508D01*
X7282086Y-19685508D02*
X7301134Y-19675984D01*
X7463039Y-19866460D02*
X7463039Y-19875984D01*
X7463039Y-19875984D02*
X7453515Y-19895031D01*
X7453515Y-19895031D02*
X7443991Y-19904555D01*
X7586848Y-19675984D02*
X7605896Y-19675984D01*
X7605896Y-19675984D02*
X7624944Y-19685508D01*
X7624944Y-19685508D02*
X7634467Y-19695031D01*
X7634467Y-19695031D02*
X7643991Y-19714079D01*
X7643991Y-19714079D02*
X7653515Y-19752174D01*
X7653515Y-19752174D02*
X7653515Y-19799793D01*
X7653515Y-19799793D02*
X7643991Y-19837889D01*
X7643991Y-19837889D02*
X7634467Y-19856936D01*
X7634467Y-19856936D02*
X7624944Y-19866460D01*
X7624944Y-19866460D02*
X7605896Y-19875984D01*
X7605896Y-19875984D02*
X7586848Y-19875984D01*
X7586848Y-19875984D02*
X7567801Y-19866460D01*
X7567801Y-19866460D02*
X7558277Y-19856936D01*
X7558277Y-19856936D02*
X7548753Y-19837889D01*
X7548753Y-19837889D02*
X7539229Y-19799793D01*
X7539229Y-19799793D02*
X7539229Y-19752174D01*
X7539229Y-19752174D02*
X7548753Y-19714079D01*
X7548753Y-19714079D02*
X7558277Y-19695031D01*
X7558277Y-19695031D02*
X7567801Y-19685508D01*
X7567801Y-19685508D02*
X7586848Y-19675984D01*
X7824944Y-19742650D02*
X7824944Y-19875984D01*
X7777325Y-19666460D02*
X7729706Y-19809317D01*
X7729706Y-19809317D02*
X7853515Y-19809317D01*
X7910658Y-19675984D02*
X8034467Y-19675984D01*
X8034467Y-19675984D02*
X7967801Y-19752174D01*
X7967801Y-19752174D02*
X7996372Y-19752174D01*
X7996372Y-19752174D02*
X8015420Y-19761698D01*
X8015420Y-19761698D02*
X8024944Y-19771222D01*
X8024944Y-19771222D02*
X8034467Y-19790270D01*
X8034467Y-19790270D02*
X8034467Y-19837889D01*
X8034467Y-19837889D02*
X8024944Y-19856936D01*
X8024944Y-19856936D02*
X8015420Y-19866460D01*
X8015420Y-19866460D02*
X7996372Y-19875984D01*
X7996372Y-19875984D02*
X7939229Y-19875984D01*
X7939229Y-19875984D02*
X7920182Y-19866460D01*
X7920182Y-19866460D02*
X7910658Y-19856936D01*
X8101134Y-19675984D02*
X8224944Y-19675984D01*
X8224944Y-19675984D02*
X8158277Y-19752174D01*
X8158277Y-19752174D02*
X8186848Y-19752174D01*
X8186848Y-19752174D02*
X8205896Y-19761698D01*
X8205896Y-19761698D02*
X8215420Y-19771222D01*
X8215420Y-19771222D02*
X8224944Y-19790270D01*
X8224944Y-19790270D02*
X8224944Y-19837889D01*
X8224944Y-19837889D02*
X8215420Y-19856936D01*
X8215420Y-19856936D02*
X8205896Y-19866460D01*
X8205896Y-19866460D02*
X8186848Y-19875984D01*
X8186848Y-19875984D02*
X8129706Y-19875984D01*
X8129706Y-19875984D02*
X8110658Y-19866460D01*
X8110658Y-19866460D02*
X8101134Y-19856936D01*
X8301134Y-19675984D02*
X8301134Y-19714079D01*
X8377325Y-19675984D02*
X8377325Y-19714079D01*
X8672563Y-19952174D02*
X8663039Y-19942650D01*
X8663039Y-19942650D02*
X8643991Y-19914079D01*
X8643991Y-19914079D02*
X8634468Y-19895031D01*
X8634468Y-19895031D02*
X8624944Y-19866460D01*
X8624944Y-19866460D02*
X8615420Y-19818841D01*
X8615420Y-19818841D02*
X8615420Y-19780746D01*
X8615420Y-19780746D02*
X8624944Y-19733127D01*
X8624944Y-19733127D02*
X8634468Y-19704555D01*
X8634468Y-19704555D02*
X8643991Y-19685508D01*
X8643991Y-19685508D02*
X8663039Y-19656936D01*
X8663039Y-19656936D02*
X8672563Y-19647412D01*
X8786849Y-19675984D02*
X8805896Y-19675984D01*
X8805896Y-19675984D02*
X8824944Y-19685508D01*
X8824944Y-19685508D02*
X8834468Y-19695031D01*
X8834468Y-19695031D02*
X8843991Y-19714079D01*
X8843991Y-19714079D02*
X8853515Y-19752174D01*
X8853515Y-19752174D02*
X8853515Y-19799793D01*
X8853515Y-19799793D02*
X8843991Y-19837889D01*
X8843991Y-19837889D02*
X8834468Y-19856936D01*
X8834468Y-19856936D02*
X8824944Y-19866460D01*
X8824944Y-19866460D02*
X8805896Y-19875984D01*
X8805896Y-19875984D02*
X8786849Y-19875984D01*
X8786849Y-19875984D02*
X8767801Y-19866460D01*
X8767801Y-19866460D02*
X8758277Y-19856936D01*
X8758277Y-19856936D02*
X8748753Y-19837889D01*
X8748753Y-19837889D02*
X8739230Y-19799793D01*
X8739230Y-19799793D02*
X8739230Y-19752174D01*
X8739230Y-19752174D02*
X8748753Y-19714079D01*
X8748753Y-19714079D02*
X8758277Y-19695031D01*
X8758277Y-19695031D02*
X8767801Y-19685508D01*
X8767801Y-19685508D02*
X8786849Y-19675984D01*
X9091611Y-19875984D02*
X9091611Y-19675984D01*
X9177325Y-19875984D02*
X9177325Y-19771222D01*
X9177325Y-19771222D02*
X9167801Y-19752174D01*
X9167801Y-19752174D02*
X9148753Y-19742650D01*
X9148753Y-19742650D02*
X9120182Y-19742650D01*
X9120182Y-19742650D02*
X9101134Y-19752174D01*
X9101134Y-19752174D02*
X9091611Y-19761698D01*
X9301134Y-19875984D02*
X9282087Y-19866460D01*
X9282087Y-19866460D02*
X9272563Y-19856936D01*
X9272563Y-19856936D02*
X9263039Y-19837889D01*
X9263039Y-19837889D02*
X9263039Y-19780746D01*
X9263039Y-19780746D02*
X9272563Y-19761698D01*
X9272563Y-19761698D02*
X9282087Y-19752174D01*
X9282087Y-19752174D02*
X9301134Y-19742650D01*
X9301134Y-19742650D02*
X9329706Y-19742650D01*
X9329706Y-19742650D02*
X9348753Y-19752174D01*
X9348753Y-19752174D02*
X9358277Y-19761698D01*
X9358277Y-19761698D02*
X9367801Y-19780746D01*
X9367801Y-19780746D02*
X9367801Y-19837889D01*
X9367801Y-19837889D02*
X9358277Y-19856936D01*
X9358277Y-19856936D02*
X9348753Y-19866460D01*
X9348753Y-19866460D02*
X9329706Y-19875984D01*
X9329706Y-19875984D02*
X9301134Y-19875984D01*
X9482087Y-19875984D02*
X9463039Y-19866460D01*
X9463039Y-19866460D02*
X9453515Y-19847412D01*
X9453515Y-19847412D02*
X9453515Y-19675984D01*
X9634468Y-19866460D02*
X9615420Y-19875984D01*
X9615420Y-19875984D02*
X9577325Y-19875984D01*
X9577325Y-19875984D02*
X9558277Y-19866460D01*
X9558277Y-19866460D02*
X9548753Y-19847412D01*
X9548753Y-19847412D02*
X9548753Y-19771222D01*
X9548753Y-19771222D02*
X9558277Y-19752174D01*
X9558277Y-19752174D02*
X9577325Y-19742650D01*
X9577325Y-19742650D02*
X9615420Y-19742650D01*
X9615420Y-19742650D02*
X9634468Y-19752174D01*
X9634468Y-19752174D02*
X9643992Y-19771222D01*
X9643992Y-19771222D02*
X9643992Y-19790270D01*
X9643992Y-19790270D02*
X9548753Y-19809317D01*
X9720182Y-19866460D02*
X9739230Y-19875984D01*
X9739230Y-19875984D02*
X9777325Y-19875984D01*
X9777325Y-19875984D02*
X9796373Y-19866460D01*
X9796373Y-19866460D02*
X9805896Y-19847412D01*
X9805896Y-19847412D02*
X9805896Y-19837889D01*
X9805896Y-19837889D02*
X9796373Y-19818841D01*
X9796373Y-19818841D02*
X9777325Y-19809317D01*
X9777325Y-19809317D02*
X9748753Y-19809317D01*
X9748753Y-19809317D02*
X9729706Y-19799793D01*
X9729706Y-19799793D02*
X9720182Y-19780746D01*
X9720182Y-19780746D02*
X9720182Y-19771222D01*
X9720182Y-19771222D02*
X9729706Y-19752174D01*
X9729706Y-19752174D02*
X9748753Y-19742650D01*
X9748753Y-19742650D02*
X9777325Y-19742650D01*
X9777325Y-19742650D02*
X9796373Y-19752174D01*
X10043992Y-19799793D02*
X10196373Y-19799793D01*
X10120182Y-19875984D02*
X10120182Y-19723603D01*
X10529706Y-19675984D02*
X10491611Y-19675984D01*
X10491611Y-19675984D02*
X10472563Y-19685508D01*
X10472563Y-19685508D02*
X10463039Y-19695031D01*
X10463039Y-19695031D02*
X10443992Y-19723603D01*
X10443992Y-19723603D02*
X10434468Y-19761698D01*
X10434468Y-19761698D02*
X10434468Y-19837889D01*
X10434468Y-19837889D02*
X10443992Y-19856936D01*
X10443992Y-19856936D02*
X10453515Y-19866460D01*
X10453515Y-19866460D02*
X10472563Y-19875984D01*
X10472563Y-19875984D02*
X10510658Y-19875984D01*
X10510658Y-19875984D02*
X10529706Y-19866460D01*
X10529706Y-19866460D02*
X10539230Y-19856936D01*
X10539230Y-19856936D02*
X10548754Y-19837889D01*
X10548754Y-19837889D02*
X10548754Y-19790270D01*
X10548754Y-19790270D02*
X10539230Y-19771222D01*
X10539230Y-19771222D02*
X10529706Y-19761698D01*
X10529706Y-19761698D02*
X10510658Y-19752174D01*
X10510658Y-19752174D02*
X10472563Y-19752174D01*
X10472563Y-19752174D02*
X10453515Y-19761698D01*
X10453515Y-19761698D02*
X10443992Y-19771222D01*
X10443992Y-19771222D02*
X10434468Y-19790270D01*
X10777325Y-19866460D02*
X10796373Y-19875984D01*
X10796373Y-19875984D02*
X10834468Y-19875984D01*
X10834468Y-19875984D02*
X10853516Y-19866460D01*
X10853516Y-19866460D02*
X10863039Y-19847412D01*
X10863039Y-19847412D02*
X10863039Y-19837889D01*
X10863039Y-19837889D02*
X10853516Y-19818841D01*
X10853516Y-19818841D02*
X10834468Y-19809317D01*
X10834468Y-19809317D02*
X10805896Y-19809317D01*
X10805896Y-19809317D02*
X10786849Y-19799793D01*
X10786849Y-19799793D02*
X10777325Y-19780746D01*
X10777325Y-19780746D02*
X10777325Y-19771222D01*
X10777325Y-19771222D02*
X10786849Y-19752174D01*
X10786849Y-19752174D02*
X10805896Y-19742650D01*
X10805896Y-19742650D02*
X10834468Y-19742650D01*
X10834468Y-19742650D02*
X10853516Y-19752174D01*
X10977325Y-19875984D02*
X10958277Y-19866460D01*
X10958277Y-19866460D02*
X10948754Y-19847412D01*
X10948754Y-19847412D02*
X10948754Y-19675984D01*
X11082087Y-19875984D02*
X11063039Y-19866460D01*
X11063039Y-19866460D02*
X11053516Y-19856936D01*
X11053516Y-19856936D02*
X11043992Y-19837889D01*
X11043992Y-19837889D02*
X11043992Y-19780746D01*
X11043992Y-19780746D02*
X11053516Y-19761698D01*
X11053516Y-19761698D02*
X11063039Y-19752174D01*
X11063039Y-19752174D02*
X11082087Y-19742650D01*
X11082087Y-19742650D02*
X11110658Y-19742650D01*
X11110658Y-19742650D02*
X11129706Y-19752174D01*
X11129706Y-19752174D02*
X11139230Y-19761698D01*
X11139230Y-19761698D02*
X11148754Y-19780746D01*
X11148754Y-19780746D02*
X11148754Y-19837889D01*
X11148754Y-19837889D02*
X11139230Y-19856936D01*
X11139230Y-19856936D02*
X11129706Y-19866460D01*
X11129706Y-19866460D02*
X11110658Y-19875984D01*
X11110658Y-19875984D02*
X11082087Y-19875984D01*
X11205896Y-19742650D02*
X11282087Y-19742650D01*
X11234468Y-19675984D02*
X11234468Y-19847412D01*
X11234468Y-19847412D02*
X11243992Y-19866460D01*
X11243992Y-19866460D02*
X11263039Y-19875984D01*
X11263039Y-19875984D02*
X11282087Y-19875984D01*
X11339230Y-19866460D02*
X11358277Y-19875984D01*
X11358277Y-19875984D02*
X11396373Y-19875984D01*
X11396373Y-19875984D02*
X11415420Y-19866460D01*
X11415420Y-19866460D02*
X11424944Y-19847412D01*
X11424944Y-19847412D02*
X11424944Y-19837889D01*
X11424944Y-19837889D02*
X11415420Y-19818841D01*
X11415420Y-19818841D02*
X11396373Y-19809317D01*
X11396373Y-19809317D02*
X11367801Y-19809317D01*
X11367801Y-19809317D02*
X11348754Y-19799793D01*
X11348754Y-19799793D02*
X11339230Y-19780746D01*
X11339230Y-19780746D02*
X11339230Y-19771222D01*
X11339230Y-19771222D02*
X11348754Y-19752174D01*
X11348754Y-19752174D02*
X11367801Y-19742650D01*
X11367801Y-19742650D02*
X11396373Y-19742650D01*
X11396373Y-19742650D02*
X11415420Y-19752174D01*
X11491611Y-19952174D02*
X11501135Y-19942650D01*
X11501135Y-19942650D02*
X11520182Y-19914079D01*
X11520182Y-19914079D02*
X11529706Y-19895031D01*
X11529706Y-19895031D02*
X11539230Y-19866460D01*
X11539230Y-19866460D02*
X11548754Y-19818841D01*
X11548754Y-19818841D02*
X11548754Y-19780746D01*
X11548754Y-19780746D02*
X11539230Y-19733127D01*
X11539230Y-19733127D02*
X11529706Y-19704555D01*
X11529706Y-19704555D02*
X11520182Y-19685508D01*
X11520182Y-19685508D02*
X11501135Y-19656936D01*
X11501135Y-19656936D02*
X11491611Y-19647412D01*
D14*
X5007500Y-20138500D02*
X5097500Y-20048500D01*
X5007500Y-19958500D01*
X4917500Y-20048500D01*
X5007500Y-20138500D01*
D11*
X5463039Y-20139984D02*
X5348753Y-20139984D01*
X5405896Y-20139984D02*
X5405896Y-19939984D01*
X5405896Y-19939984D02*
X5386848Y-19968555D01*
X5386848Y-19968555D02*
X5367801Y-19987603D01*
X5367801Y-19987603D02*
X5348753Y-19997127D01*
X5558277Y-20130460D02*
X5558277Y-20139984D01*
X5558277Y-20139984D02*
X5548753Y-20159031D01*
X5548753Y-20159031D02*
X5539229Y-20168555D01*
X5672562Y-20025698D02*
X5653515Y-20016174D01*
X5653515Y-20016174D02*
X5643991Y-20006650D01*
X5643991Y-20006650D02*
X5634467Y-19987603D01*
X5634467Y-19987603D02*
X5634467Y-19978079D01*
X5634467Y-19978079D02*
X5643991Y-19959031D01*
X5643991Y-19959031D02*
X5653515Y-19949508D01*
X5653515Y-19949508D02*
X5672562Y-19939984D01*
X5672562Y-19939984D02*
X5710658Y-19939984D01*
X5710658Y-19939984D02*
X5729705Y-19949508D01*
X5729705Y-19949508D02*
X5739229Y-19959031D01*
X5739229Y-19959031D02*
X5748753Y-19978079D01*
X5748753Y-19978079D02*
X5748753Y-19987603D01*
X5748753Y-19987603D02*
X5739229Y-20006650D01*
X5739229Y-20006650D02*
X5729705Y-20016174D01*
X5729705Y-20016174D02*
X5710658Y-20025698D01*
X5710658Y-20025698D02*
X5672562Y-20025698D01*
X5672562Y-20025698D02*
X5653515Y-20035222D01*
X5653515Y-20035222D02*
X5643991Y-20044746D01*
X5643991Y-20044746D02*
X5634467Y-20063793D01*
X5634467Y-20063793D02*
X5634467Y-20101889D01*
X5634467Y-20101889D02*
X5643991Y-20120936D01*
X5643991Y-20120936D02*
X5653515Y-20130460D01*
X5653515Y-20130460D02*
X5672562Y-20139984D01*
X5672562Y-20139984D02*
X5710658Y-20139984D01*
X5710658Y-20139984D02*
X5729705Y-20130460D01*
X5729705Y-20130460D02*
X5739229Y-20120936D01*
X5739229Y-20120936D02*
X5748753Y-20101889D01*
X5748753Y-20101889D02*
X5748753Y-20063793D01*
X5748753Y-20063793D02*
X5739229Y-20044746D01*
X5739229Y-20044746D02*
X5729705Y-20035222D01*
X5729705Y-20035222D02*
X5710658Y-20025698D01*
X5872562Y-19939984D02*
X5891610Y-19939984D01*
X5891610Y-19939984D02*
X5910658Y-19949508D01*
X5910658Y-19949508D02*
X5920182Y-19959031D01*
X5920182Y-19959031D02*
X5929705Y-19978079D01*
X5929705Y-19978079D02*
X5939229Y-20016174D01*
X5939229Y-20016174D02*
X5939229Y-20063793D01*
X5939229Y-20063793D02*
X5929705Y-20101889D01*
X5929705Y-20101889D02*
X5920182Y-20120936D01*
X5920182Y-20120936D02*
X5910658Y-20130460D01*
X5910658Y-20130460D02*
X5891610Y-20139984D01*
X5891610Y-20139984D02*
X5872562Y-20139984D01*
X5872562Y-20139984D02*
X5853515Y-20130460D01*
X5853515Y-20130460D02*
X5843991Y-20120936D01*
X5843991Y-20120936D02*
X5834467Y-20101889D01*
X5834467Y-20101889D02*
X5824943Y-20063793D01*
X5824943Y-20063793D02*
X5824943Y-20016174D01*
X5824943Y-20016174D02*
X5834467Y-19978079D01*
X5834467Y-19978079D02*
X5843991Y-19959031D01*
X5843991Y-19959031D02*
X5853515Y-19949508D01*
X5853515Y-19949508D02*
X5872562Y-19939984D01*
X6063039Y-19939984D02*
X6082086Y-19939984D01*
X6082086Y-19939984D02*
X6101134Y-19949508D01*
X6101134Y-19949508D02*
X6110658Y-19959031D01*
X6110658Y-19959031D02*
X6120182Y-19978079D01*
X6120182Y-19978079D02*
X6129705Y-20016174D01*
X6129705Y-20016174D02*
X6129705Y-20063793D01*
X6129705Y-20063793D02*
X6120182Y-20101889D01*
X6120182Y-20101889D02*
X6110658Y-20120936D01*
X6110658Y-20120936D02*
X6101134Y-20130460D01*
X6101134Y-20130460D02*
X6082086Y-20139984D01*
X6082086Y-20139984D02*
X6063039Y-20139984D01*
X6063039Y-20139984D02*
X6043991Y-20130460D01*
X6043991Y-20130460D02*
X6034467Y-20120936D01*
X6034467Y-20120936D02*
X6024943Y-20101889D01*
X6024943Y-20101889D02*
X6015420Y-20063793D01*
X6015420Y-20063793D02*
X6015420Y-20016174D01*
X6015420Y-20016174D02*
X6024943Y-19978079D01*
X6024943Y-19978079D02*
X6034467Y-19959031D01*
X6034467Y-19959031D02*
X6043991Y-19949508D01*
X6043991Y-19949508D02*
X6063039Y-19939984D01*
X6215420Y-20139984D02*
X6215420Y-20006650D01*
X6215420Y-20025698D02*
X6224943Y-20016174D01*
X6224943Y-20016174D02*
X6243991Y-20006650D01*
X6243991Y-20006650D02*
X6272563Y-20006650D01*
X6272563Y-20006650D02*
X6291610Y-20016174D01*
X6291610Y-20016174D02*
X6301134Y-20035222D01*
X6301134Y-20035222D02*
X6301134Y-20139984D01*
X6301134Y-20035222D02*
X6310658Y-20016174D01*
X6310658Y-20016174D02*
X6329705Y-20006650D01*
X6329705Y-20006650D02*
X6358277Y-20006650D01*
X6358277Y-20006650D02*
X6377324Y-20016174D01*
X6377324Y-20016174D02*
X6386848Y-20035222D01*
X6386848Y-20035222D02*
X6386848Y-20139984D01*
X6482086Y-20139984D02*
X6482086Y-20006650D01*
X6482086Y-20025698D02*
X6491610Y-20016174D01*
X6491610Y-20016174D02*
X6510658Y-20006650D01*
X6510658Y-20006650D02*
X6539229Y-20006650D01*
X6539229Y-20006650D02*
X6558277Y-20016174D01*
X6558277Y-20016174D02*
X6567801Y-20035222D01*
X6567801Y-20035222D02*
X6567801Y-20139984D01*
X6567801Y-20035222D02*
X6577324Y-20016174D01*
X6577324Y-20016174D02*
X6596372Y-20006650D01*
X6596372Y-20006650D02*
X6624943Y-20006650D01*
X6624943Y-20006650D02*
X6643991Y-20016174D01*
X6643991Y-20016174D02*
X6653515Y-20035222D01*
X6653515Y-20035222D02*
X6653515Y-20139984D01*
X7043991Y-19930460D02*
X6872563Y-20187603D01*
X7301134Y-19939984D02*
X7320182Y-19939984D01*
X7320182Y-19939984D02*
X7339229Y-19949508D01*
X7339229Y-19949508D02*
X7348753Y-19959031D01*
X7348753Y-19959031D02*
X7358277Y-19978079D01*
X7358277Y-19978079D02*
X7367801Y-20016174D01*
X7367801Y-20016174D02*
X7367801Y-20063793D01*
X7367801Y-20063793D02*
X7358277Y-20101889D01*
X7358277Y-20101889D02*
X7348753Y-20120936D01*
X7348753Y-20120936D02*
X7339229Y-20130460D01*
X7339229Y-20130460D02*
X7320182Y-20139984D01*
X7320182Y-20139984D02*
X7301134Y-20139984D01*
X7301134Y-20139984D02*
X7282086Y-20130460D01*
X7282086Y-20130460D02*
X7272563Y-20120936D01*
X7272563Y-20120936D02*
X7263039Y-20101889D01*
X7263039Y-20101889D02*
X7253515Y-20063793D01*
X7253515Y-20063793D02*
X7253515Y-20016174D01*
X7253515Y-20016174D02*
X7263039Y-19978079D01*
X7263039Y-19978079D02*
X7272563Y-19959031D01*
X7272563Y-19959031D02*
X7282086Y-19949508D01*
X7282086Y-19949508D02*
X7301134Y-19939984D01*
X7463039Y-20130460D02*
X7463039Y-20139984D01*
X7463039Y-20139984D02*
X7453515Y-20159031D01*
X7453515Y-20159031D02*
X7443991Y-20168555D01*
X7586848Y-19939984D02*
X7605896Y-19939984D01*
X7605896Y-19939984D02*
X7624944Y-19949508D01*
X7624944Y-19949508D02*
X7634467Y-19959031D01*
X7634467Y-19959031D02*
X7643991Y-19978079D01*
X7643991Y-19978079D02*
X7653515Y-20016174D01*
X7653515Y-20016174D02*
X7653515Y-20063793D01*
X7653515Y-20063793D02*
X7643991Y-20101889D01*
X7643991Y-20101889D02*
X7634467Y-20120936D01*
X7634467Y-20120936D02*
X7624944Y-20130460D01*
X7624944Y-20130460D02*
X7605896Y-20139984D01*
X7605896Y-20139984D02*
X7586848Y-20139984D01*
X7586848Y-20139984D02*
X7567801Y-20130460D01*
X7567801Y-20130460D02*
X7558277Y-20120936D01*
X7558277Y-20120936D02*
X7548753Y-20101889D01*
X7548753Y-20101889D02*
X7539229Y-20063793D01*
X7539229Y-20063793D02*
X7539229Y-20016174D01*
X7539229Y-20016174D02*
X7548753Y-19978079D01*
X7548753Y-19978079D02*
X7558277Y-19959031D01*
X7558277Y-19959031D02*
X7567801Y-19949508D01*
X7567801Y-19949508D02*
X7586848Y-19939984D01*
X7720182Y-19939984D02*
X7853515Y-19939984D01*
X7853515Y-19939984D02*
X7767801Y-20139984D01*
X7967801Y-19939984D02*
X7986848Y-19939984D01*
X7986848Y-19939984D02*
X8005896Y-19949508D01*
X8005896Y-19949508D02*
X8015420Y-19959031D01*
X8015420Y-19959031D02*
X8024944Y-19978079D01*
X8024944Y-19978079D02*
X8034467Y-20016174D01*
X8034467Y-20016174D02*
X8034467Y-20063793D01*
X8034467Y-20063793D02*
X8024944Y-20101889D01*
X8024944Y-20101889D02*
X8015420Y-20120936D01*
X8015420Y-20120936D02*
X8005896Y-20130460D01*
X8005896Y-20130460D02*
X7986848Y-20139984D01*
X7986848Y-20139984D02*
X7967801Y-20139984D01*
X7967801Y-20139984D02*
X7948753Y-20130460D01*
X7948753Y-20130460D02*
X7939229Y-20120936D01*
X7939229Y-20120936D02*
X7929706Y-20101889D01*
X7929706Y-20101889D02*
X7920182Y-20063793D01*
X7920182Y-20063793D02*
X7920182Y-20016174D01*
X7920182Y-20016174D02*
X7929706Y-19978079D01*
X7929706Y-19978079D02*
X7939229Y-19959031D01*
X7939229Y-19959031D02*
X7948753Y-19949508D01*
X7948753Y-19949508D02*
X7967801Y-19939984D01*
X8129706Y-20139984D02*
X8167801Y-20139984D01*
X8167801Y-20139984D02*
X8186848Y-20130460D01*
X8186848Y-20130460D02*
X8196372Y-20120936D01*
X8196372Y-20120936D02*
X8215420Y-20092365D01*
X8215420Y-20092365D02*
X8224944Y-20054270D01*
X8224944Y-20054270D02*
X8224944Y-19978079D01*
X8224944Y-19978079D02*
X8215420Y-19959031D01*
X8215420Y-19959031D02*
X8205896Y-19949508D01*
X8205896Y-19949508D02*
X8186848Y-19939984D01*
X8186848Y-19939984D02*
X8148753Y-19939984D01*
X8148753Y-19939984D02*
X8129706Y-19949508D01*
X8129706Y-19949508D02*
X8120182Y-19959031D01*
X8120182Y-19959031D02*
X8110658Y-19978079D01*
X8110658Y-19978079D02*
X8110658Y-20025698D01*
X8110658Y-20025698D02*
X8120182Y-20044746D01*
X8120182Y-20044746D02*
X8129706Y-20054270D01*
X8129706Y-20054270D02*
X8148753Y-20063793D01*
X8148753Y-20063793D02*
X8186848Y-20063793D01*
X8186848Y-20063793D02*
X8205896Y-20054270D01*
X8205896Y-20054270D02*
X8215420Y-20044746D01*
X8215420Y-20044746D02*
X8224944Y-20025698D01*
X8301134Y-19939984D02*
X8301134Y-19978079D01*
X8377325Y-19939984D02*
X8377325Y-19978079D01*
X8672563Y-20216174D02*
X8663039Y-20206650D01*
X8663039Y-20206650D02*
X8643991Y-20178079D01*
X8643991Y-20178079D02*
X8634468Y-20159031D01*
X8634468Y-20159031D02*
X8624944Y-20130460D01*
X8624944Y-20130460D02*
X8615420Y-20082841D01*
X8615420Y-20082841D02*
X8615420Y-20044746D01*
X8615420Y-20044746D02*
X8624944Y-19997127D01*
X8624944Y-19997127D02*
X8634468Y-19968555D01*
X8634468Y-19968555D02*
X8643991Y-19949508D01*
X8643991Y-19949508D02*
X8663039Y-19920936D01*
X8663039Y-19920936D02*
X8672563Y-19911412D01*
X8729706Y-19939984D02*
X8853515Y-19939984D01*
X8853515Y-19939984D02*
X8786849Y-20016174D01*
X8786849Y-20016174D02*
X8815420Y-20016174D01*
X8815420Y-20016174D02*
X8834468Y-20025698D01*
X8834468Y-20025698D02*
X8843991Y-20035222D01*
X8843991Y-20035222D02*
X8853515Y-20054270D01*
X8853515Y-20054270D02*
X8853515Y-20101889D01*
X8853515Y-20101889D02*
X8843991Y-20120936D01*
X8843991Y-20120936D02*
X8834468Y-20130460D01*
X8834468Y-20130460D02*
X8815420Y-20139984D01*
X8815420Y-20139984D02*
X8758277Y-20139984D01*
X8758277Y-20139984D02*
X8739230Y-20130460D01*
X8739230Y-20130460D02*
X8729706Y-20120936D01*
X8977325Y-19939984D02*
X8996372Y-19939984D01*
X8996372Y-19939984D02*
X9015420Y-19949508D01*
X9015420Y-19949508D02*
X9024944Y-19959031D01*
X9024944Y-19959031D02*
X9034468Y-19978079D01*
X9034468Y-19978079D02*
X9043991Y-20016174D01*
X9043991Y-20016174D02*
X9043991Y-20063793D01*
X9043991Y-20063793D02*
X9034468Y-20101889D01*
X9034468Y-20101889D02*
X9024944Y-20120936D01*
X9024944Y-20120936D02*
X9015420Y-20130460D01*
X9015420Y-20130460D02*
X8996372Y-20139984D01*
X8996372Y-20139984D02*
X8977325Y-20139984D01*
X8977325Y-20139984D02*
X8958277Y-20130460D01*
X8958277Y-20130460D02*
X8948753Y-20120936D01*
X8948753Y-20120936D02*
X8939230Y-20101889D01*
X8939230Y-20101889D02*
X8929706Y-20063793D01*
X8929706Y-20063793D02*
X8929706Y-20016174D01*
X8929706Y-20016174D02*
X8939230Y-19978079D01*
X8939230Y-19978079D02*
X8948753Y-19959031D01*
X8948753Y-19959031D02*
X8958277Y-19949508D01*
X8958277Y-19949508D02*
X8977325Y-19939984D01*
X9282087Y-20139984D02*
X9282087Y-19939984D01*
X9367801Y-20139984D02*
X9367801Y-20035222D01*
X9367801Y-20035222D02*
X9358277Y-20016174D01*
X9358277Y-20016174D02*
X9339230Y-20006650D01*
X9339230Y-20006650D02*
X9310658Y-20006650D01*
X9310658Y-20006650D02*
X9291611Y-20016174D01*
X9291611Y-20016174D02*
X9282087Y-20025698D01*
X9491611Y-20139984D02*
X9472563Y-20130460D01*
X9472563Y-20130460D02*
X9463039Y-20120936D01*
X9463039Y-20120936D02*
X9453515Y-20101889D01*
X9453515Y-20101889D02*
X9453515Y-20044746D01*
X9453515Y-20044746D02*
X9463039Y-20025698D01*
X9463039Y-20025698D02*
X9472563Y-20016174D01*
X9472563Y-20016174D02*
X9491611Y-20006650D01*
X9491611Y-20006650D02*
X9520182Y-20006650D01*
X9520182Y-20006650D02*
X9539230Y-20016174D01*
X9539230Y-20016174D02*
X9548753Y-20025698D01*
X9548753Y-20025698D02*
X9558277Y-20044746D01*
X9558277Y-20044746D02*
X9558277Y-20101889D01*
X9558277Y-20101889D02*
X9548753Y-20120936D01*
X9548753Y-20120936D02*
X9539230Y-20130460D01*
X9539230Y-20130460D02*
X9520182Y-20139984D01*
X9520182Y-20139984D02*
X9491611Y-20139984D01*
X9672563Y-20139984D02*
X9653515Y-20130460D01*
X9653515Y-20130460D02*
X9643992Y-20111412D01*
X9643992Y-20111412D02*
X9643992Y-19939984D01*
X9824944Y-20130460D02*
X9805896Y-20139984D01*
X9805896Y-20139984D02*
X9767801Y-20139984D01*
X9767801Y-20139984D02*
X9748753Y-20130460D01*
X9748753Y-20130460D02*
X9739230Y-20111412D01*
X9739230Y-20111412D02*
X9739230Y-20035222D01*
X9739230Y-20035222D02*
X9748753Y-20016174D01*
X9748753Y-20016174D02*
X9767801Y-20006650D01*
X9767801Y-20006650D02*
X9805896Y-20006650D01*
X9805896Y-20006650D02*
X9824944Y-20016174D01*
X9824944Y-20016174D02*
X9834468Y-20035222D01*
X9834468Y-20035222D02*
X9834468Y-20054270D01*
X9834468Y-20054270D02*
X9739230Y-20073317D01*
X9910658Y-20130460D02*
X9929706Y-20139984D01*
X9929706Y-20139984D02*
X9967801Y-20139984D01*
X9967801Y-20139984D02*
X9986849Y-20130460D01*
X9986849Y-20130460D02*
X9996373Y-20111412D01*
X9996373Y-20111412D02*
X9996373Y-20101889D01*
X9996373Y-20101889D02*
X9986849Y-20082841D01*
X9986849Y-20082841D02*
X9967801Y-20073317D01*
X9967801Y-20073317D02*
X9939230Y-20073317D01*
X9939230Y-20073317D02*
X9920182Y-20063793D01*
X9920182Y-20063793D02*
X9910658Y-20044746D01*
X9910658Y-20044746D02*
X9910658Y-20035222D01*
X9910658Y-20035222D02*
X9920182Y-20016174D01*
X9920182Y-20016174D02*
X9939230Y-20006650D01*
X9939230Y-20006650D02*
X9967801Y-20006650D01*
X9967801Y-20006650D02*
X9986849Y-20016174D01*
X10063039Y-20216174D02*
X10072563Y-20206650D01*
X10072563Y-20206650D02*
X10091611Y-20178079D01*
X10091611Y-20178079D02*
X10101134Y-20159031D01*
X10101134Y-20159031D02*
X10110658Y-20130460D01*
X10110658Y-20130460D02*
X10120182Y-20082841D01*
X10120182Y-20082841D02*
X10120182Y-20044746D01*
X10120182Y-20044746D02*
X10110658Y-19997127D01*
X10110658Y-19997127D02*
X10101134Y-19968555D01*
X10101134Y-19968555D02*
X10091611Y-19949508D01*
X10091611Y-19949508D02*
X10072563Y-19920936D01*
X10072563Y-19920936D02*
X10063039Y-19911412D01*
M02*
