M48
; DRILL file KiCad 10.0.1 date 2026-07-10T21:31:33
; FORMAT={-:-/ absolute / metric / decimal}
; #@! TF.CreationDate,2026-07-10T21:31:33+02:00
; #@! TF.GenerationSoftware,Kicad,Pcbnew,10.0.1
; #@! TF.FileFunction,Plated,1,2,PTH
FMAT,2
METRIC
; #@! TA.AperFunction,Plated,PTH,ComponentDrill
T1C0.800
; #@! TA.AperFunction,Plated,PTH,ComponentDrill
T2C0.900
; #@! TA.AperFunction,Plated,PTH,ComponentDrill
T3C1.000
; #@! TA.AperFunction,Plated,PTH,ComponentDrill
T4C1.100
; #@! TA.AperFunction,Plated,PTH,ComponentDrill
T5C1.800
%
G90
G05
T1
X62.19Y-102.3
X69.81Y-102.3
X71.19Y-49.25
X71.19Y-54.25
X78.81Y-49.25
X78.81Y-54.25
X80.19Y-128.3
X87.81Y-128.3
T2
X67.73Y-135.0
X69.73Y-86.0
X70.27Y-135.0
X72.27Y-86.0
X77.73Y-86.0
X79.73Y-109.0
X80.27Y-86.0
X82.27Y-109.0
T3
X52.75Y-50.0
X52.75Y-52.54
X52.75Y-55.08
X52.75Y-57.62
X52.75Y-60.16
X52.75Y-62.7
X52.75Y-65.24
X52.75Y-67.78
X52.75Y-102.0
X52.75Y-104.54
X52.75Y-107.08
X52.75Y-109.62
X52.75Y-112.16
X52.75Y-114.7
X52.75Y-117.24
X52.75Y-119.78
X63.5Y-116.5
X66.0Y-116.5
X68.5Y-116.5
X72.5Y-68.5
X72.5Y-71.0
X75.0Y-68.5
X75.0Y-71.0
X77.5Y-68.5
X77.5Y-71.0
X81.5Y-142.5
X84.0Y-142.5
X86.5Y-142.5
X97.2Y-50.0
X97.2Y-52.54
X97.2Y-55.08
X97.2Y-57.62
X97.2Y-60.16
X97.2Y-62.7
X97.2Y-65.24
X97.2Y-67.78
X97.2Y-128.0
X97.2Y-130.54
X97.2Y-133.08
X97.2Y-135.62
X97.2Y-138.16
X97.2Y-140.7
X97.2Y-143.24
X97.2Y-145.78
T5
X58.5Y-78.55
X58.5Y-83.25
X58.5Y-87.95
X58.5Y-130.3
X58.5Y-135.0
X58.5Y-139.7
X89.087Y-78.55
X89.087Y-83.25
X89.087Y-87.95
X89.087Y-104.3
X89.087Y-109.0
X89.087Y-113.7
X89.087Y-154.55
X89.087Y-159.25
X89.087Y-163.95
X89.087Y-171.05
X89.087Y-175.75
X89.087Y-180.45
X93.913Y-78.55
X93.913Y-83.25
X93.913Y-87.95
X93.913Y-104.3
X93.913Y-109.0
X93.913Y-113.7
X93.913Y-154.55
X93.913Y-159.25
X93.913Y-163.95
X93.913Y-171.05
X93.913Y-175.75
X93.913Y-180.45
T4
G00X61.2Y-109.35
M15
G01X61.2Y-108.65
M16
G05
G00X70.25Y-61.35
M15
G01X70.25Y-60.65
M16
G05
G00X70.8Y-109.35
M15
G01X70.8Y-108.65
M16
G05
G00X79.2Y-135.35
M15
G01X79.2Y-134.65
M16
G05
G00X79.75Y-61.35
M15
G01X79.75Y-60.65
M16
G05
G00X88.8Y-135.35
M15
G01X88.8Y-134.65
M16
G05
M30
