%TF.GenerationSoftware,KiCad,Pcbnew,10.0.1*%
%TF.CreationDate,2026-06-25T20:54:48+02:00*%
%TF.ProjectId,DMH_Slew_Mk2_PCB_Controls,444d485f-536c-4657-975f-4d6b325f5043,1*%
%TF.SameCoordinates,Original*%
%TF.FileFunction,Drillmap*%
%TF.FilePolarity,Positive*%
%FSLAX45Y45*%
G04 Gerber Fmt 4.5, Leading zero omitted, Abs format (unit mm)*
G04 Created by KiCad (PCBNEW 10.0.1) date 2026-06-25 20:54:48*
%MOMM*%
%LPD*%
G01*
G04 APERTURE LIST*
%ADD10C,0.050000*%
%ADD11C,0.200000*%
G04 APERTURE END LIST*
D10*
X5100000Y-4250000D02*
X5100000Y-18350000D01*
X5100000Y-18350000D02*
X6600000Y-18350000D01*
X6600000Y-15050000D02*
X9900000Y-15050000D01*
X6600000Y-18350000D02*
X6600000Y-15050000D01*
X9900000Y-4250000D02*
X5100000Y-4250000D01*
X9900000Y-15050000D02*
X9900000Y-4250000D01*
D11*
X5358277Y-18663984D02*
X5358277Y-18463984D01*
X5358277Y-18463984D02*
X5405896Y-18463984D01*
X5405896Y-18463984D02*
X5434467Y-18473508D01*
X5434467Y-18473508D02*
X5453515Y-18492555D01*
X5453515Y-18492555D02*
X5463039Y-18511603D01*
X5463039Y-18511603D02*
X5472563Y-18549698D01*
X5472563Y-18549698D02*
X5472563Y-18578270D01*
X5472563Y-18578270D02*
X5463039Y-18616365D01*
X5463039Y-18616365D02*
X5453515Y-18635412D01*
X5453515Y-18635412D02*
X5434467Y-18654460D01*
X5434467Y-18654460D02*
X5405896Y-18663984D01*
X5405896Y-18663984D02*
X5358277Y-18663984D01*
X5558277Y-18663984D02*
X5558277Y-18530650D01*
X5558277Y-18568746D02*
X5567801Y-18549698D01*
X5567801Y-18549698D02*
X5577324Y-18540174D01*
X5577324Y-18540174D02*
X5596372Y-18530650D01*
X5596372Y-18530650D02*
X5615420Y-18530650D01*
X5682086Y-18663984D02*
X5682086Y-18530650D01*
X5682086Y-18463984D02*
X5672562Y-18473508D01*
X5672562Y-18473508D02*
X5682086Y-18483031D01*
X5682086Y-18483031D02*
X5691610Y-18473508D01*
X5691610Y-18473508D02*
X5682086Y-18463984D01*
X5682086Y-18463984D02*
X5682086Y-18483031D01*
X5805896Y-18663984D02*
X5786848Y-18654460D01*
X5786848Y-18654460D02*
X5777324Y-18635412D01*
X5777324Y-18635412D02*
X5777324Y-18463984D01*
X5910658Y-18663984D02*
X5891610Y-18654460D01*
X5891610Y-18654460D02*
X5882086Y-18635412D01*
X5882086Y-18635412D02*
X5882086Y-18463984D01*
X6139229Y-18663984D02*
X6139229Y-18463984D01*
X6139229Y-18463984D02*
X6205896Y-18606841D01*
X6205896Y-18606841D02*
X6272562Y-18463984D01*
X6272562Y-18463984D02*
X6272562Y-18663984D01*
X6453515Y-18663984D02*
X6453515Y-18559222D01*
X6453515Y-18559222D02*
X6443991Y-18540174D01*
X6443991Y-18540174D02*
X6424943Y-18530650D01*
X6424943Y-18530650D02*
X6386848Y-18530650D01*
X6386848Y-18530650D02*
X6367801Y-18540174D01*
X6453515Y-18654460D02*
X6434467Y-18663984D01*
X6434467Y-18663984D02*
X6386848Y-18663984D01*
X6386848Y-18663984D02*
X6367801Y-18654460D01*
X6367801Y-18654460D02*
X6358277Y-18635412D01*
X6358277Y-18635412D02*
X6358277Y-18616365D01*
X6358277Y-18616365D02*
X6367801Y-18597317D01*
X6367801Y-18597317D02*
X6386848Y-18587793D01*
X6386848Y-18587793D02*
X6434467Y-18587793D01*
X6434467Y-18587793D02*
X6453515Y-18578270D01*
X6548753Y-18530650D02*
X6548753Y-18730650D01*
X6548753Y-18540174D02*
X6567801Y-18530650D01*
X6567801Y-18530650D02*
X6605896Y-18530650D01*
X6605896Y-18530650D02*
X6624943Y-18540174D01*
X6624943Y-18540174D02*
X6634467Y-18549698D01*
X6634467Y-18549698D02*
X6643991Y-18568746D01*
X6643991Y-18568746D02*
X6643991Y-18625889D01*
X6643991Y-18625889D02*
X6634467Y-18644936D01*
X6634467Y-18644936D02*
X6624943Y-18654460D01*
X6624943Y-18654460D02*
X6605896Y-18663984D01*
X6605896Y-18663984D02*
X6567801Y-18663984D01*
X6567801Y-18663984D02*
X6548753Y-18654460D01*
X6729705Y-18644936D02*
X6739229Y-18654460D01*
X6739229Y-18654460D02*
X6729705Y-18663984D01*
X6729705Y-18663984D02*
X6720182Y-18654460D01*
X6720182Y-18654460D02*
X6729705Y-18644936D01*
X6729705Y-18644936D02*
X6729705Y-18663984D01*
X6729705Y-18540174D02*
X6739229Y-18549698D01*
X6739229Y-18549698D02*
X6729705Y-18559222D01*
X6729705Y-18559222D02*
X6720182Y-18549698D01*
X6720182Y-18549698D02*
X6729705Y-18540174D01*
X6729705Y-18540174D02*
X6729705Y-18559222D01*
M02*
