%TF.GenerationSoftware,KiCad,Pcbnew,10.0.1*%
%TF.CreationDate,2026-06-25T20:44:09+02:00*%
%TF.ProjectId,DMH_Slew_Mk2_PANEL,444d485f-536c-4657-975f-4d6b325f5041,rev?*%
%TF.SameCoordinates,Original*%
%TF.FileFunction,Copper,L2,Bot*%
%TF.FilePolarity,Positive*%
%FSLAX46Y46*%
G04 Gerber Fmt 4.6, Leading zero omitted, Abs format (unit mm)*
G04 Created by KiCad (PCBNEW 10.0.1) date 2026-06-25 20:44:09*
%MOMM*%
%LPD*%
G01*
G04 APERTURE LIST*
%TA.AperFunction,ConnectorPad*%
%ADD10C,12.000000*%
%TD*%
%TA.AperFunction,ComponentPad*%
%ADD11O,2.500000X1.500000*%
%TD*%
%TA.AperFunction,ComponentPad*%
%ADD12C,4.000000*%
%TD*%
%TA.AperFunction,ComponentPad*%
%ADD13C,2.900000*%
%TD*%
%TA.AperFunction,ComponentPad*%
%ADD14C,13.000000*%
%TD*%
%TA.AperFunction,ComponentPad*%
%ADD15C,0.500000*%
%TD*%
G04 APERTURE END LIST*
D10*
%TO.P,H20,1,1_1*%
%TO.N,GND*%
X84000000Y-135000000D03*
D11*
X84000000Y-141000000D03*
%TD*%
D12*
%TO.P,H3,1,1_1*%
%TO.N,GND*%
X53500000Y-226500000D03*
%TD*%
D13*
%TO.P,H26,1,1_1*%
%TO.N,GND*%
X58500000Y-77150000D03*
D14*
X58500000Y-83250000D03*
%TD*%
D10*
%TO.P,H19,1,1_1*%
%TO.N,GND*%
X66000000Y-109000000D03*
D11*
X66000000Y-115000000D03*
%TD*%
D13*
%TO.P,H25,1,1_1*%
%TO.N,GND*%
X58500000Y-128900000D03*
D14*
X58500000Y-135000000D03*
%TD*%
D15*
%TO.P,H7,1,1_1*%
%TO.N,GND*%
X85800000Y-192250000D03*
X87460000Y-188220000D03*
X87470000Y-196290000D03*
X91500000Y-186550000D03*
D10*
X91500000Y-192250000D03*
D15*
X91500000Y-197950000D03*
X95530000Y-196290000D03*
X95540000Y-188220000D03*
X97200000Y-192250000D03*
%TD*%
D13*
%TO.P,H22,1,1_1*%
%TO.N,GND*%
X91500000Y-102900000D03*
D14*
X91500000Y-109000000D03*
%TD*%
D15*
%TO.P,H5,1,1_1*%
%TO.N,GND*%
X52800000Y-192250000D03*
X54460000Y-188220000D03*
X54470000Y-196290000D03*
X58500000Y-186550000D03*
D10*
X58500000Y-192250000D03*
D15*
X58500000Y-197950000D03*
X62530000Y-196290000D03*
X62540000Y-188220000D03*
X64200000Y-192250000D03*
%TD*%
%TO.P,H13,1,1_1*%
%TO.N,GND*%
X52800000Y-159250000D03*
X54460000Y-155220000D03*
X54470000Y-163290000D03*
X58500000Y-153550000D03*
D10*
X58500000Y-159250000D03*
D15*
X58500000Y-164950000D03*
X62530000Y-163290000D03*
X62540000Y-155220000D03*
X64200000Y-159250000D03*
%TD*%
%TO.P,H9,1,1_1*%
%TO.N,GND*%
X69300000Y-208750000D03*
X70960000Y-204720000D03*
X70970000Y-212790000D03*
X75000000Y-203050000D03*
D10*
X75000000Y-208750000D03*
D15*
X75000000Y-214450000D03*
X79030000Y-212790000D03*
X79040000Y-204720000D03*
X80700000Y-208750000D03*
%TD*%
D13*
%TO.P,H21,1,1_1*%
%TO.N,GND*%
X91500000Y-77150000D03*
D14*
X91500000Y-83250000D03*
%TD*%
D15*
%TO.P,H10,1,1_1*%
%TO.N,GND*%
X85800000Y-208750000D03*
X87460000Y-204720000D03*
X87470000Y-212790000D03*
X91500000Y-203050000D03*
D10*
X91500000Y-208750000D03*
D15*
X91500000Y-214450000D03*
X95530000Y-212790000D03*
X95540000Y-204720000D03*
X97200000Y-208750000D03*
%TD*%
%TO.P,H14,1,1_1*%
%TO.N,GND*%
X69300000Y-159250000D03*
X70960000Y-155220000D03*
X70970000Y-163290000D03*
X75000000Y-153550000D03*
D10*
X75000000Y-159250000D03*
D15*
X75000000Y-164950000D03*
X79030000Y-163290000D03*
X79040000Y-155220000D03*
X80700000Y-159250000D03*
%TD*%
%TO.P,H16,1,1_1*%
%TO.N,GND*%
X69300000Y-175750000D03*
X70960000Y-171720000D03*
X70970000Y-179790000D03*
X75000000Y-170050000D03*
D10*
X75000000Y-175750000D03*
D15*
X75000000Y-181450000D03*
X79030000Y-179790000D03*
X79040000Y-171720000D03*
X80700000Y-175750000D03*
%TD*%
%TO.P,H6,1,1_1*%
%TO.N,GND*%
X69300000Y-192250000D03*
X70960000Y-188220000D03*
X70970000Y-196290000D03*
X75000000Y-186550000D03*
D10*
X75000000Y-192250000D03*
D15*
X75000000Y-197950000D03*
X79030000Y-196290000D03*
X79040000Y-188220000D03*
X80700000Y-192250000D03*
%TD*%
D12*
%TO.P,H2,1,1_1*%
%TO.N,GND*%
X96500000Y-33500000D03*
%TD*%
%TO.P,H4,1,1_1*%
%TO.N,GND*%
X96500000Y-226500000D03*
%TD*%
D13*
%TO.P,H18,1,1_1*%
%TO.N,GND*%
X91500000Y-169650000D03*
D14*
X91500000Y-175750000D03*
%TD*%
D12*
%TO.P,H1,1,1_1*%
%TO.N,GND*%
X53500000Y-33500000D03*
%TD*%
D13*
%TO.P,H24,1,1_1*%
%TO.N,GND*%
X91500000Y-153150000D03*
D14*
X91500000Y-159250000D03*
%TD*%
D10*
%TO.P,H17,1,1_1*%
%TO.N,GND*%
X75000000Y-61000000D03*
D11*
X75000000Y-67000000D03*
%TD*%
D15*
%TO.P,H8,1,1_1*%
%TO.N,GND*%
X52800000Y-208750000D03*
X54460000Y-204720000D03*
X54470000Y-212790000D03*
X58500000Y-203050000D03*
D10*
X58500000Y-208750000D03*
D15*
X58500000Y-214450000D03*
X62530000Y-212790000D03*
X62540000Y-204720000D03*
X64200000Y-208750000D03*
%TD*%
%TO.P,H15,1,1_1*%
%TO.N,GND*%
X52800000Y-175750000D03*
X54460000Y-171720000D03*
X54470000Y-179790000D03*
X58500000Y-170050000D03*
D10*
X58500000Y-175750000D03*
D15*
X58500000Y-181450000D03*
X62530000Y-179790000D03*
X62540000Y-171720000D03*
X64200000Y-175750000D03*
%TD*%
%TA.AperFunction,Conductor*%
%TO.N,GND*%
G36*
X99442539Y-30520185D02*
G01*
X99488294Y-30572989D01*
X99499500Y-30624500D01*
X99499500Y-229375500D01*
X99479815Y-229442539D01*
X99427011Y-229488294D01*
X99375500Y-229499500D01*
X50624500Y-229499500D01*
X50557461Y-229479815D01*
X50511706Y-229427011D01*
X50500500Y-229375500D01*
X50500500Y-208537814D01*
X53099500Y-208537814D01*
X53099500Y-208558097D01*
X53099500Y-208962186D01*
X53132796Y-209385250D01*
X53199182Y-209804398D01*
X53298250Y-210217045D01*
X53298254Y-210217056D01*
X53429385Y-210620641D01*
X53496000Y-210781463D01*
X53591789Y-211012716D01*
X53784450Y-211390835D01*
X53784457Y-211390848D01*
X53784460Y-211390853D01*
X53807375Y-211428246D01*
X54006184Y-211752672D01*
X54006192Y-211752683D01*
X54006198Y-211752692D01*
X54255617Y-212095989D01*
X54255627Y-212096003D01*
X54378919Y-212240358D01*
X54531231Y-212418692D01*
X54831308Y-212718769D01*
X54831314Y-212718774D01*
X55153996Y-212994372D01*
X55154010Y-212994382D01*
X55361749Y-213145313D01*
X55497328Y-213243816D01*
X55625685Y-213322473D01*
X55859146Y-213465539D01*
X55859151Y-213465542D01*
X55859156Y-213465544D01*
X55859165Y-213465550D01*
X56237284Y-213658211D01*
X56629353Y-213820612D01*
X56629358Y-213820614D01*
X56731979Y-213853957D01*
X57032955Y-213951750D01*
X57445602Y-214050818D01*
X57864750Y-214117204D01*
X58287814Y-214150500D01*
X58287822Y-214150500D01*
X58712178Y-214150500D01*
X58712186Y-214150500D01*
X59135250Y-214117204D01*
X59554398Y-214050818D01*
X59967045Y-213951750D01*
X60370647Y-213820612D01*
X60762716Y-213658211D01*
X61140835Y-213465550D01*
X61502672Y-213243816D01*
X61845997Y-212994377D01*
X62168692Y-212718769D01*
X62468769Y-212418692D01*
X62744377Y-212095997D01*
X62993816Y-211752672D01*
X63215550Y-211390835D01*
X63408211Y-211012716D01*
X63570612Y-210620647D01*
X63701750Y-210217045D01*
X63800818Y-209804398D01*
X63867204Y-209385250D01*
X63900500Y-208962186D01*
X63900500Y-208537814D01*
X69599500Y-208537814D01*
X69599500Y-208558097D01*
X69599500Y-208962186D01*
X69632796Y-209385250D01*
X69699182Y-209804398D01*
X69798250Y-210217045D01*
X69798254Y-210217056D01*
X69929385Y-210620641D01*
X69996000Y-210781463D01*
X70091789Y-211012716D01*
X70284450Y-211390835D01*
X70284457Y-211390848D01*
X70284460Y-211390853D01*
X70307375Y-211428246D01*
X70506184Y-211752672D01*
X70506192Y-211752683D01*
X70506198Y-211752692D01*
X70755617Y-212095989D01*
X70755627Y-212096003D01*
X70878919Y-212240358D01*
X71031231Y-212418692D01*
X71331308Y-212718769D01*
X71331314Y-212718774D01*
X71653996Y-212994372D01*
X71654010Y-212994382D01*
X71861749Y-213145313D01*
X71997328Y-213243816D01*
X72125685Y-213322473D01*
X72359146Y-213465539D01*
X72359151Y-213465542D01*
X72359156Y-213465544D01*
X72359165Y-213465550D01*
X72737284Y-213658211D01*
X73129353Y-213820612D01*
X73129358Y-213820614D01*
X73231979Y-213853957D01*
X73532955Y-213951750D01*
X73945602Y-214050818D01*
X74364750Y-214117204D01*
X74787814Y-214150500D01*
X74787822Y-214150500D01*
X75212178Y-214150500D01*
X75212186Y-214150500D01*
X75635250Y-214117204D01*
X76054398Y-214050818D01*
X76467045Y-213951750D01*
X76870647Y-213820612D01*
X77262716Y-213658211D01*
X77640835Y-213465550D01*
X78002672Y-213243816D01*
X78345997Y-212994377D01*
X78668692Y-212718769D01*
X78968769Y-212418692D01*
X79244377Y-212095997D01*
X79493816Y-211752672D01*
X79715550Y-211390835D01*
X79908211Y-211012716D01*
X80070612Y-210620647D01*
X80201750Y-210217045D01*
X80300818Y-209804398D01*
X80367204Y-209385250D01*
X80400500Y-208962186D01*
X80400500Y-208537814D01*
X86099500Y-208537814D01*
X86099500Y-208558097D01*
X86099500Y-208962186D01*
X86132796Y-209385250D01*
X86199182Y-209804398D01*
X86298250Y-210217045D01*
X86298254Y-210217056D01*
X86429385Y-210620641D01*
X86496000Y-210781463D01*
X86591789Y-211012716D01*
X86784450Y-211390835D01*
X86784457Y-211390848D01*
X86784460Y-211390853D01*
X86807375Y-211428246D01*
X87006184Y-211752672D01*
X87006192Y-211752683D01*
X87006198Y-211752692D01*
X87255617Y-212095989D01*
X87255627Y-212096003D01*
X87378919Y-212240358D01*
X87531231Y-212418692D01*
X87831308Y-212718769D01*
X87831314Y-212718774D01*
X88153996Y-212994372D01*
X88154010Y-212994382D01*
X88361749Y-213145313D01*
X88497328Y-213243816D01*
X88625685Y-213322473D01*
X88859146Y-213465539D01*
X88859151Y-213465542D01*
X88859156Y-213465544D01*
X88859165Y-213465550D01*
X89237284Y-213658211D01*
X89629353Y-213820612D01*
X89629358Y-213820614D01*
X89731979Y-213853957D01*
X90032955Y-213951750D01*
X90445602Y-214050818D01*
X90864750Y-214117204D01*
X91287814Y-214150500D01*
X91287822Y-214150500D01*
X91712178Y-214150500D01*
X91712186Y-214150500D01*
X92135250Y-214117204D01*
X92554398Y-214050818D01*
X92967045Y-213951750D01*
X93370647Y-213820612D01*
X93762716Y-213658211D01*
X94140835Y-213465550D01*
X94502672Y-213243816D01*
X94845997Y-212994377D01*
X95168692Y-212718769D01*
X95468769Y-212418692D01*
X95744377Y-212095997D01*
X95993816Y-211752672D01*
X96215550Y-211390835D01*
X96408211Y-211012716D01*
X96570612Y-210620647D01*
X96701750Y-210217045D01*
X96800818Y-209804398D01*
X96867204Y-209385250D01*
X96900500Y-208962186D01*
X96900500Y-208537814D01*
X96867204Y-208114750D01*
X96800818Y-207695602D01*
X96701750Y-207282955D01*
X96570612Y-206879353D01*
X96408211Y-206487284D01*
X96215550Y-206109165D01*
X96215544Y-206109156D01*
X96215542Y-206109151D01*
X96215539Y-206109146D01*
X95993823Y-205747340D01*
X95993816Y-205747328D01*
X95744377Y-205404003D01*
X95744372Y-205403996D01*
X95468774Y-205081314D01*
X95468769Y-205081308D01*
X95168692Y-204781231D01*
X95168685Y-204781225D01*
X94846003Y-204505627D01*
X94845989Y-204505617D01*
X94502692Y-204256198D01*
X94502683Y-204256192D01*
X94502672Y-204256184D01*
X94502659Y-204256176D01*
X94140853Y-204034460D01*
X94140848Y-204034457D01*
X94140838Y-204034452D01*
X94140835Y-204034450D01*
X93762716Y-203841789D01*
X93762702Y-203841783D01*
X93370641Y-203679385D01*
X93083478Y-203586081D01*
X92967045Y-203548250D01*
X92554398Y-203449182D01*
X92135250Y-203382796D01*
X91712191Y-203349500D01*
X91712186Y-203349500D01*
X91287814Y-203349500D01*
X91287808Y-203349500D01*
X90864749Y-203382796D01*
X90864748Y-203382796D01*
X90445607Y-203449181D01*
X90445604Y-203449181D01*
X90445602Y-203449182D01*
X90297817Y-203484661D01*
X90032966Y-203548247D01*
X90032960Y-203548248D01*
X90032955Y-203548250D01*
X90032943Y-203548254D01*
X89629358Y-203679385D01*
X89237297Y-203841783D01*
X89237284Y-203841789D01*
X88859151Y-204034457D01*
X88859146Y-204034460D01*
X88497340Y-204256176D01*
X88497307Y-204256198D01*
X88154010Y-204505617D01*
X88153996Y-204505627D01*
X87831314Y-204781225D01*
X87831300Y-204781238D01*
X87531238Y-205081300D01*
X87531225Y-205081314D01*
X87255627Y-205403996D01*
X87255617Y-205404010D01*
X87006198Y-205747307D01*
X87006176Y-205747340D01*
X86784460Y-206109146D01*
X86784457Y-206109151D01*
X86591789Y-206487284D01*
X86591783Y-206487297D01*
X86429385Y-206879358D01*
X86298254Y-207282943D01*
X86298247Y-207282966D01*
X86199181Y-207695607D01*
X86183000Y-207797774D01*
X86132796Y-208114750D01*
X86099500Y-208537814D01*
X80400500Y-208537814D01*
X80367204Y-208114750D01*
X80300818Y-207695602D01*
X80201750Y-207282955D01*
X80070612Y-206879353D01*
X79908211Y-206487284D01*
X79715550Y-206109165D01*
X79715544Y-206109156D01*
X79715542Y-206109151D01*
X79715539Y-206109146D01*
X79493823Y-205747340D01*
X79493816Y-205747328D01*
X79244377Y-205404003D01*
X79244372Y-205403996D01*
X78968774Y-205081314D01*
X78968769Y-205081308D01*
X78668692Y-204781231D01*
X78668685Y-204781225D01*
X78346003Y-204505627D01*
X78345989Y-204505617D01*
X78002692Y-204256198D01*
X78002683Y-204256192D01*
X78002672Y-204256184D01*
X78002659Y-204256176D01*
X77640853Y-204034460D01*
X77640848Y-204034457D01*
X77640838Y-204034452D01*
X77640835Y-204034450D01*
X77262716Y-203841789D01*
X77262702Y-203841783D01*
X76870641Y-203679385D01*
X76583478Y-203586081D01*
X76467045Y-203548250D01*
X76054398Y-203449182D01*
X75635250Y-203382796D01*
X75212191Y-203349500D01*
X75212186Y-203349500D01*
X74787814Y-203349500D01*
X74787808Y-203349500D01*
X74364749Y-203382796D01*
X74364748Y-203382796D01*
X73945607Y-203449181D01*
X73945604Y-203449181D01*
X73945602Y-203449182D01*
X73797817Y-203484661D01*
X73532966Y-203548247D01*
X73532960Y-203548248D01*
X73532955Y-203548250D01*
X73532943Y-203548254D01*
X73129358Y-203679385D01*
X72737297Y-203841783D01*
X72737284Y-203841789D01*
X72359151Y-204034457D01*
X72359146Y-204034460D01*
X71997340Y-204256176D01*
X71997307Y-204256198D01*
X71654010Y-204505617D01*
X71653996Y-204505627D01*
X71331314Y-204781225D01*
X71331300Y-204781238D01*
X71031238Y-205081300D01*
X71031225Y-205081314D01*
X70755627Y-205403996D01*
X70755617Y-205404010D01*
X70506198Y-205747307D01*
X70506176Y-205747340D01*
X70284460Y-206109146D01*
X70284457Y-206109151D01*
X70091789Y-206487284D01*
X70091783Y-206487297D01*
X69929385Y-206879358D01*
X69798254Y-207282943D01*
X69798247Y-207282966D01*
X69699181Y-207695607D01*
X69683000Y-207797774D01*
X69632796Y-208114750D01*
X69599500Y-208537814D01*
X63900500Y-208537814D01*
X63867204Y-208114750D01*
X63800818Y-207695602D01*
X63701750Y-207282955D01*
X63570612Y-206879353D01*
X63408211Y-206487284D01*
X63215550Y-206109165D01*
X63215544Y-206109156D01*
X63215542Y-206109151D01*
X63215539Y-206109146D01*
X62993823Y-205747340D01*
X62993816Y-205747328D01*
X62744377Y-205404003D01*
X62744372Y-205403996D01*
X62468774Y-205081314D01*
X62468769Y-205081308D01*
X62168692Y-204781231D01*
X62168685Y-204781225D01*
X61846003Y-204505627D01*
X61845989Y-204505617D01*
X61502692Y-204256198D01*
X61502683Y-204256192D01*
X61502672Y-204256184D01*
X61502659Y-204256176D01*
X61140853Y-204034460D01*
X61140848Y-204034457D01*
X61140838Y-204034452D01*
X61140835Y-204034450D01*
X60762716Y-203841789D01*
X60762702Y-203841783D01*
X60370641Y-203679385D01*
X60083478Y-203586081D01*
X59967045Y-203548250D01*
X59554398Y-203449182D01*
X59135250Y-203382796D01*
X58712191Y-203349500D01*
X58712186Y-203349500D01*
X58287814Y-203349500D01*
X58287808Y-203349500D01*
X57864749Y-203382796D01*
X57864748Y-203382796D01*
X57445607Y-203449181D01*
X57445604Y-203449181D01*
X57445602Y-203449182D01*
X57297817Y-203484661D01*
X57032966Y-203548247D01*
X57032960Y-203548248D01*
X57032955Y-203548250D01*
X57032943Y-203548254D01*
X56629358Y-203679385D01*
X56237297Y-203841783D01*
X56237284Y-203841789D01*
X55859151Y-204034457D01*
X55859146Y-204034460D01*
X55497340Y-204256176D01*
X55497307Y-204256198D01*
X55154010Y-204505617D01*
X55153996Y-204505627D01*
X54831314Y-204781225D01*
X54831300Y-204781238D01*
X54531238Y-205081300D01*
X54531225Y-205081314D01*
X54255627Y-205403996D01*
X54255617Y-205404010D01*
X54006198Y-205747307D01*
X54006176Y-205747340D01*
X53784460Y-206109146D01*
X53784457Y-206109151D01*
X53591789Y-206487284D01*
X53591783Y-206487297D01*
X53429385Y-206879358D01*
X53298254Y-207282943D01*
X53298247Y-207282966D01*
X53199181Y-207695607D01*
X53183000Y-207797774D01*
X53132796Y-208114750D01*
X53099500Y-208537814D01*
X50500500Y-208537814D01*
X50500500Y-192037814D01*
X53099500Y-192037814D01*
X53099500Y-192058097D01*
X53099500Y-192462186D01*
X53132796Y-192885250D01*
X53199182Y-193304398D01*
X53298250Y-193717045D01*
X53298254Y-193717056D01*
X53429385Y-194120641D01*
X53496000Y-194281463D01*
X53591789Y-194512716D01*
X53784450Y-194890835D01*
X53784457Y-194890848D01*
X53784460Y-194890853D01*
X53807375Y-194928246D01*
X54006184Y-195252672D01*
X54006192Y-195252683D01*
X54006198Y-195252692D01*
X54255617Y-195595989D01*
X54255627Y-195596003D01*
X54378919Y-195740358D01*
X54531231Y-195918692D01*
X54831308Y-196218769D01*
X54831314Y-196218774D01*
X55153996Y-196494372D01*
X55154010Y-196494382D01*
X55361749Y-196645313D01*
X55497328Y-196743816D01*
X55625685Y-196822473D01*
X55859146Y-196965539D01*
X55859151Y-196965542D01*
X55859156Y-196965544D01*
X55859165Y-196965550D01*
X56237284Y-197158211D01*
X56629353Y-197320612D01*
X56629358Y-197320614D01*
X56731979Y-197353957D01*
X57032955Y-197451750D01*
X57445602Y-197550818D01*
X57864750Y-197617204D01*
X58287814Y-197650500D01*
X58287822Y-197650500D01*
X58712178Y-197650500D01*
X58712186Y-197650500D01*
X59135250Y-197617204D01*
X59554398Y-197550818D01*
X59967045Y-197451750D01*
X60370647Y-197320612D01*
X60762716Y-197158211D01*
X61140835Y-196965550D01*
X61502672Y-196743816D01*
X61845997Y-196494377D01*
X62168692Y-196218769D01*
X62468769Y-195918692D01*
X62744377Y-195595997D01*
X62993816Y-195252672D01*
X63215550Y-194890835D01*
X63408211Y-194512716D01*
X63570612Y-194120647D01*
X63701750Y-193717045D01*
X63800818Y-193304398D01*
X63867204Y-192885250D01*
X63900500Y-192462186D01*
X63900500Y-192037814D01*
X69599500Y-192037814D01*
X69599500Y-192058097D01*
X69599500Y-192462186D01*
X69632796Y-192885250D01*
X69699182Y-193304398D01*
X69798250Y-193717045D01*
X69798254Y-193717056D01*
X69929385Y-194120641D01*
X69996000Y-194281463D01*
X70091789Y-194512716D01*
X70284450Y-194890835D01*
X70284457Y-194890848D01*
X70284460Y-194890853D01*
X70307375Y-194928246D01*
X70506184Y-195252672D01*
X70506192Y-195252683D01*
X70506198Y-195252692D01*
X70755617Y-195595989D01*
X70755627Y-195596003D01*
X70878919Y-195740358D01*
X71031231Y-195918692D01*
X71331308Y-196218769D01*
X71331314Y-196218774D01*
X71653996Y-196494372D01*
X71654010Y-196494382D01*
X71861749Y-196645313D01*
X71997328Y-196743816D01*
X72125685Y-196822473D01*
X72359146Y-196965539D01*
X72359151Y-196965542D01*
X72359156Y-196965544D01*
X72359165Y-196965550D01*
X72737284Y-197158211D01*
X73129353Y-197320612D01*
X73129358Y-197320614D01*
X73231979Y-197353957D01*
X73532955Y-197451750D01*
X73945602Y-197550818D01*
X74364750Y-197617204D01*
X74787814Y-197650500D01*
X74787822Y-197650500D01*
X75212178Y-197650500D01*
X75212186Y-197650500D01*
X75635250Y-197617204D01*
X76054398Y-197550818D01*
X76467045Y-197451750D01*
X76870647Y-197320612D01*
X77262716Y-197158211D01*
X77640835Y-196965550D01*
X78002672Y-196743816D01*
X78345997Y-196494377D01*
X78668692Y-196218769D01*
X78968769Y-195918692D01*
X79244377Y-195595997D01*
X79493816Y-195252672D01*
X79715550Y-194890835D01*
X79908211Y-194512716D01*
X80070612Y-194120647D01*
X80201750Y-193717045D01*
X80300818Y-193304398D01*
X80367204Y-192885250D01*
X80400500Y-192462186D01*
X80400500Y-192037814D01*
X86099500Y-192037814D01*
X86099500Y-192058097D01*
X86099500Y-192462186D01*
X86132796Y-192885250D01*
X86199182Y-193304398D01*
X86298250Y-193717045D01*
X86298254Y-193717056D01*
X86429385Y-194120641D01*
X86496000Y-194281463D01*
X86591789Y-194512716D01*
X86784450Y-194890835D01*
X86784457Y-194890848D01*
X86784460Y-194890853D01*
X86807375Y-194928246D01*
X87006184Y-195252672D01*
X87006192Y-195252683D01*
X87006198Y-195252692D01*
X87255617Y-195595989D01*
X87255627Y-195596003D01*
X87378919Y-195740358D01*
X87531231Y-195918692D01*
X87831308Y-196218769D01*
X87831314Y-196218774D01*
X88153996Y-196494372D01*
X88154010Y-196494382D01*
X88361749Y-196645313D01*
X88497328Y-196743816D01*
X88625685Y-196822473D01*
X88859146Y-196965539D01*
X88859151Y-196965542D01*
X88859156Y-196965544D01*
X88859165Y-196965550D01*
X89237284Y-197158211D01*
X89629353Y-197320612D01*
X89629358Y-197320614D01*
X89731979Y-197353957D01*
X90032955Y-197451750D01*
X90445602Y-197550818D01*
X90864750Y-197617204D01*
X91287814Y-197650500D01*
X91287822Y-197650500D01*
X91712178Y-197650500D01*
X91712186Y-197650500D01*
X92135250Y-197617204D01*
X92554398Y-197550818D01*
X92967045Y-197451750D01*
X93370647Y-197320612D01*
X93762716Y-197158211D01*
X94140835Y-196965550D01*
X94502672Y-196743816D01*
X94845997Y-196494377D01*
X95168692Y-196218769D01*
X95468769Y-195918692D01*
X95744377Y-195595997D01*
X95993816Y-195252672D01*
X96215550Y-194890835D01*
X96408211Y-194512716D01*
X96570612Y-194120647D01*
X96701750Y-193717045D01*
X96800818Y-193304398D01*
X96867204Y-192885250D01*
X96900500Y-192462186D01*
X96900500Y-192037814D01*
X96867204Y-191614750D01*
X96800818Y-191195602D01*
X96701750Y-190782955D01*
X96570612Y-190379353D01*
X96408211Y-189987284D01*
X96215550Y-189609165D01*
X96215544Y-189609156D01*
X96215542Y-189609151D01*
X96215539Y-189609146D01*
X95993823Y-189247340D01*
X95993816Y-189247328D01*
X95744377Y-188904003D01*
X95744372Y-188903996D01*
X95468774Y-188581314D01*
X95468769Y-188581308D01*
X95168692Y-188281231D01*
X95168685Y-188281225D01*
X94846003Y-188005627D01*
X94845989Y-188005617D01*
X94502692Y-187756198D01*
X94502683Y-187756192D01*
X94502672Y-187756184D01*
X94502659Y-187756176D01*
X94140853Y-187534460D01*
X94140848Y-187534457D01*
X94140838Y-187534452D01*
X94140835Y-187534450D01*
X93762716Y-187341789D01*
X93762702Y-187341783D01*
X93370641Y-187179385D01*
X93083478Y-187086081D01*
X92967045Y-187048250D01*
X92554398Y-186949182D01*
X92135250Y-186882796D01*
X91712191Y-186849500D01*
X91712186Y-186849500D01*
X91287814Y-186849500D01*
X91287808Y-186849500D01*
X90864749Y-186882796D01*
X90864748Y-186882796D01*
X90445607Y-186949181D01*
X90445604Y-186949181D01*
X90445602Y-186949182D01*
X90297817Y-186984661D01*
X90032966Y-187048247D01*
X90032960Y-187048248D01*
X90032955Y-187048250D01*
X90032943Y-187048254D01*
X89629358Y-187179385D01*
X89237297Y-187341783D01*
X89237284Y-187341789D01*
X88859151Y-187534457D01*
X88859146Y-187534460D01*
X88497340Y-187756176D01*
X88497307Y-187756198D01*
X88154010Y-188005617D01*
X88153996Y-188005627D01*
X87831314Y-188281225D01*
X87831300Y-188281238D01*
X87531238Y-188581300D01*
X87531225Y-188581314D01*
X87255627Y-188903996D01*
X87255617Y-188904010D01*
X87006198Y-189247307D01*
X87006176Y-189247340D01*
X86784460Y-189609146D01*
X86784457Y-189609151D01*
X86591789Y-189987284D01*
X86591783Y-189987297D01*
X86429385Y-190379358D01*
X86298254Y-190782943D01*
X86298247Y-190782966D01*
X86199181Y-191195607D01*
X86183000Y-191297774D01*
X86132796Y-191614750D01*
X86099500Y-192037814D01*
X80400500Y-192037814D01*
X80367204Y-191614750D01*
X80300818Y-191195602D01*
X80201750Y-190782955D01*
X80070612Y-190379353D01*
X79908211Y-189987284D01*
X79715550Y-189609165D01*
X79715544Y-189609156D01*
X79715542Y-189609151D01*
X79715539Y-189609146D01*
X79493823Y-189247340D01*
X79493816Y-189247328D01*
X79244377Y-188904003D01*
X79244372Y-188903996D01*
X78968774Y-188581314D01*
X78968769Y-188581308D01*
X78668692Y-188281231D01*
X78668685Y-188281225D01*
X78346003Y-188005627D01*
X78345989Y-188005617D01*
X78002692Y-187756198D01*
X78002683Y-187756192D01*
X78002672Y-187756184D01*
X78002659Y-187756176D01*
X77640853Y-187534460D01*
X77640848Y-187534457D01*
X77640838Y-187534452D01*
X77640835Y-187534450D01*
X77262716Y-187341789D01*
X77262702Y-187341783D01*
X76870641Y-187179385D01*
X76583478Y-187086081D01*
X76467045Y-187048250D01*
X76054398Y-186949182D01*
X75635250Y-186882796D01*
X75212191Y-186849500D01*
X75212186Y-186849500D01*
X74787814Y-186849500D01*
X74787808Y-186849500D01*
X74364749Y-186882796D01*
X74364748Y-186882796D01*
X73945607Y-186949181D01*
X73945604Y-186949181D01*
X73945602Y-186949182D01*
X73797817Y-186984661D01*
X73532966Y-187048247D01*
X73532960Y-187048248D01*
X73532955Y-187048250D01*
X73532943Y-187048254D01*
X73129358Y-187179385D01*
X72737297Y-187341783D01*
X72737284Y-187341789D01*
X72359151Y-187534457D01*
X72359146Y-187534460D01*
X71997340Y-187756176D01*
X71997307Y-187756198D01*
X71654010Y-188005617D01*
X71653996Y-188005627D01*
X71331314Y-188281225D01*
X71331300Y-188281238D01*
X71031238Y-188581300D01*
X71031225Y-188581314D01*
X70755627Y-188903996D01*
X70755617Y-188904010D01*
X70506198Y-189247307D01*
X70506176Y-189247340D01*
X70284460Y-189609146D01*
X70284457Y-189609151D01*
X70091789Y-189987284D01*
X70091783Y-189987297D01*
X69929385Y-190379358D01*
X69798254Y-190782943D01*
X69798247Y-190782966D01*
X69699181Y-191195607D01*
X69683000Y-191297774D01*
X69632796Y-191614750D01*
X69599500Y-192037814D01*
X63900500Y-192037814D01*
X63867204Y-191614750D01*
X63800818Y-191195602D01*
X63701750Y-190782955D01*
X63570612Y-190379353D01*
X63408211Y-189987284D01*
X63215550Y-189609165D01*
X63215544Y-189609156D01*
X63215542Y-189609151D01*
X63215539Y-189609146D01*
X62993823Y-189247340D01*
X62993816Y-189247328D01*
X62744377Y-188904003D01*
X62744372Y-188903996D01*
X62468774Y-188581314D01*
X62468769Y-188581308D01*
X62168692Y-188281231D01*
X62168685Y-188281225D01*
X61846003Y-188005627D01*
X61845989Y-188005617D01*
X61502692Y-187756198D01*
X61502683Y-187756192D01*
X61502672Y-187756184D01*
X61502659Y-187756176D01*
X61140853Y-187534460D01*
X61140848Y-187534457D01*
X61140838Y-187534452D01*
X61140835Y-187534450D01*
X60762716Y-187341789D01*
X60762702Y-187341783D01*
X60370641Y-187179385D01*
X60083478Y-187086081D01*
X59967045Y-187048250D01*
X59554398Y-186949182D01*
X59135250Y-186882796D01*
X58712191Y-186849500D01*
X58712186Y-186849500D01*
X58287814Y-186849500D01*
X58287808Y-186849500D01*
X57864749Y-186882796D01*
X57864748Y-186882796D01*
X57445607Y-186949181D01*
X57445604Y-186949181D01*
X57445602Y-186949182D01*
X57297817Y-186984661D01*
X57032966Y-187048247D01*
X57032960Y-187048248D01*
X57032955Y-187048250D01*
X57032943Y-187048254D01*
X56629358Y-187179385D01*
X56237297Y-187341783D01*
X56237284Y-187341789D01*
X55859151Y-187534457D01*
X55859146Y-187534460D01*
X55497340Y-187756176D01*
X55497307Y-187756198D01*
X55154010Y-188005617D01*
X55153996Y-188005627D01*
X54831314Y-188281225D01*
X54831300Y-188281238D01*
X54531238Y-188581300D01*
X54531225Y-188581314D01*
X54255627Y-188903996D01*
X54255617Y-188904010D01*
X54006198Y-189247307D01*
X54006176Y-189247340D01*
X53784460Y-189609146D01*
X53784457Y-189609151D01*
X53591789Y-189987284D01*
X53591783Y-189987297D01*
X53429385Y-190379358D01*
X53298254Y-190782943D01*
X53298247Y-190782966D01*
X53199181Y-191195607D01*
X53183000Y-191297774D01*
X53132796Y-191614750D01*
X53099500Y-192037814D01*
X50500500Y-192037814D01*
X50500500Y-175537814D01*
X53099500Y-175537814D01*
X53099500Y-175558097D01*
X53099500Y-175962186D01*
X53132796Y-176385250D01*
X53199182Y-176804398D01*
X53298250Y-177217045D01*
X53298254Y-177217056D01*
X53429385Y-177620641D01*
X53496000Y-177781463D01*
X53591789Y-178012716D01*
X53784450Y-178390835D01*
X53784457Y-178390848D01*
X53784460Y-178390853D01*
X53807375Y-178428246D01*
X54006184Y-178752672D01*
X54006192Y-178752683D01*
X54006198Y-178752692D01*
X54255617Y-179095989D01*
X54255627Y-179096003D01*
X54378919Y-179240358D01*
X54531231Y-179418692D01*
X54831308Y-179718769D01*
X54831314Y-179718774D01*
X55153996Y-179994372D01*
X55154010Y-179994382D01*
X55361749Y-180145313D01*
X55497328Y-180243816D01*
X55625685Y-180322473D01*
X55859146Y-180465539D01*
X55859151Y-180465542D01*
X55859156Y-180465544D01*
X55859165Y-180465550D01*
X56237284Y-180658211D01*
X56629353Y-180820612D01*
X56629358Y-180820614D01*
X56731979Y-180853957D01*
X57032955Y-180951750D01*
X57445602Y-181050818D01*
X57864750Y-181117204D01*
X58287814Y-181150500D01*
X58287822Y-181150500D01*
X58712178Y-181150500D01*
X58712186Y-181150500D01*
X59135250Y-181117204D01*
X59554398Y-181050818D01*
X59967045Y-180951750D01*
X60370647Y-180820612D01*
X60762716Y-180658211D01*
X61140835Y-180465550D01*
X61502672Y-180243816D01*
X61845997Y-179994377D01*
X62168692Y-179718769D01*
X62468769Y-179418692D01*
X62744377Y-179095997D01*
X62993816Y-178752672D01*
X63215550Y-178390835D01*
X63408211Y-178012716D01*
X63570612Y-177620647D01*
X63701750Y-177217045D01*
X63800818Y-176804398D01*
X63867204Y-176385250D01*
X63900500Y-175962186D01*
X63900500Y-175537814D01*
X69599500Y-175537814D01*
X69599500Y-175558097D01*
X69599500Y-175962186D01*
X69632796Y-176385250D01*
X69699182Y-176804398D01*
X69798250Y-177217045D01*
X69798254Y-177217056D01*
X69929385Y-177620641D01*
X69996000Y-177781463D01*
X70091789Y-178012716D01*
X70284450Y-178390835D01*
X70284457Y-178390848D01*
X70284460Y-178390853D01*
X70307375Y-178428246D01*
X70506184Y-178752672D01*
X70506192Y-178752683D01*
X70506198Y-178752692D01*
X70755617Y-179095989D01*
X70755627Y-179096003D01*
X70878919Y-179240358D01*
X71031231Y-179418692D01*
X71331308Y-179718769D01*
X71331314Y-179718774D01*
X71653996Y-179994372D01*
X71654010Y-179994382D01*
X71861749Y-180145313D01*
X71997328Y-180243816D01*
X72125685Y-180322473D01*
X72359146Y-180465539D01*
X72359151Y-180465542D01*
X72359156Y-180465544D01*
X72359165Y-180465550D01*
X72737284Y-180658211D01*
X73129353Y-180820612D01*
X73129358Y-180820614D01*
X73231979Y-180853957D01*
X73532955Y-180951750D01*
X73945602Y-181050818D01*
X74364750Y-181117204D01*
X74787814Y-181150500D01*
X74787822Y-181150500D01*
X75212178Y-181150500D01*
X75212186Y-181150500D01*
X75635250Y-181117204D01*
X76054398Y-181050818D01*
X76467045Y-180951750D01*
X76870647Y-180820612D01*
X77262716Y-180658211D01*
X77640835Y-180465550D01*
X78002672Y-180243816D01*
X78345997Y-179994377D01*
X78668692Y-179718769D01*
X78968769Y-179418692D01*
X79244377Y-179095997D01*
X79493816Y-178752672D01*
X79715550Y-178390835D01*
X79908211Y-178012716D01*
X80070612Y-177620647D01*
X80201750Y-177217045D01*
X80300818Y-176804398D01*
X80367204Y-176385250D01*
X80400500Y-175962186D01*
X80400500Y-175537814D01*
X80367204Y-175114750D01*
X80300818Y-174695602D01*
X80201750Y-174282955D01*
X80070612Y-173879353D01*
X79908211Y-173487284D01*
X79715550Y-173109165D01*
X79715544Y-173109156D01*
X79715542Y-173109151D01*
X79715539Y-173109146D01*
X79493823Y-172747340D01*
X79493816Y-172747328D01*
X79244377Y-172404003D01*
X79244372Y-172403996D01*
X78968774Y-172081314D01*
X78968769Y-172081308D01*
X78668692Y-171781231D01*
X78668685Y-171781225D01*
X78346003Y-171505627D01*
X78345989Y-171505617D01*
X78002692Y-171256198D01*
X78002683Y-171256192D01*
X78002672Y-171256184D01*
X78002659Y-171256176D01*
X77640853Y-171034460D01*
X77640848Y-171034457D01*
X77640838Y-171034452D01*
X77640835Y-171034450D01*
X77262716Y-170841789D01*
X77262702Y-170841783D01*
X76870641Y-170679385D01*
X76583478Y-170586081D01*
X76467045Y-170548250D01*
X76054398Y-170449182D01*
X75635250Y-170382796D01*
X75212191Y-170349500D01*
X75212186Y-170349500D01*
X74787814Y-170349500D01*
X74787808Y-170349500D01*
X74364749Y-170382796D01*
X74364748Y-170382796D01*
X73945607Y-170449181D01*
X73945604Y-170449181D01*
X73945602Y-170449182D01*
X73797817Y-170484661D01*
X73532966Y-170548247D01*
X73532960Y-170548248D01*
X73532955Y-170548250D01*
X73532943Y-170548254D01*
X73129358Y-170679385D01*
X72737297Y-170841783D01*
X72737284Y-170841789D01*
X72359151Y-171034457D01*
X72359146Y-171034460D01*
X71997340Y-171256176D01*
X71997307Y-171256198D01*
X71654010Y-171505617D01*
X71653996Y-171505627D01*
X71331314Y-171781225D01*
X71331300Y-171781238D01*
X71031238Y-172081300D01*
X71031225Y-172081314D01*
X70755627Y-172403996D01*
X70755617Y-172404010D01*
X70506198Y-172747307D01*
X70506176Y-172747340D01*
X70284460Y-173109146D01*
X70284457Y-173109151D01*
X70091789Y-173487284D01*
X70091783Y-173487297D01*
X69929385Y-173879358D01*
X69798254Y-174282943D01*
X69798247Y-174282966D01*
X69699181Y-174695607D01*
X69683000Y-174797774D01*
X69632796Y-175114750D01*
X69599500Y-175537814D01*
X63900500Y-175537814D01*
X63867204Y-175114750D01*
X63800818Y-174695602D01*
X63701750Y-174282955D01*
X63570612Y-173879353D01*
X63408211Y-173487284D01*
X63215550Y-173109165D01*
X63215544Y-173109156D01*
X63215542Y-173109151D01*
X63215539Y-173109146D01*
X62993823Y-172747340D01*
X62993816Y-172747328D01*
X62744377Y-172404003D01*
X62744372Y-172403996D01*
X62468774Y-172081314D01*
X62468769Y-172081308D01*
X62168692Y-171781231D01*
X62168685Y-171781225D01*
X61846003Y-171505627D01*
X61845989Y-171505617D01*
X61502692Y-171256198D01*
X61502683Y-171256192D01*
X61502672Y-171256184D01*
X61502659Y-171256176D01*
X61140853Y-171034460D01*
X61140848Y-171034457D01*
X61140838Y-171034452D01*
X61140835Y-171034450D01*
X60762716Y-170841789D01*
X60762702Y-170841783D01*
X60370641Y-170679385D01*
X60083478Y-170586081D01*
X59967045Y-170548250D01*
X59554398Y-170449182D01*
X59135250Y-170382796D01*
X58712191Y-170349500D01*
X58712186Y-170349500D01*
X58287814Y-170349500D01*
X58287808Y-170349500D01*
X57864749Y-170382796D01*
X57864748Y-170382796D01*
X57445607Y-170449181D01*
X57445604Y-170449181D01*
X57445602Y-170449182D01*
X57297817Y-170484661D01*
X57032966Y-170548247D01*
X57032960Y-170548248D01*
X57032955Y-170548250D01*
X57032943Y-170548254D01*
X56629358Y-170679385D01*
X56237297Y-170841783D01*
X56237284Y-170841789D01*
X55859151Y-171034457D01*
X55859146Y-171034460D01*
X55497340Y-171256176D01*
X55497307Y-171256198D01*
X55154010Y-171505617D01*
X55153996Y-171505627D01*
X54831314Y-171781225D01*
X54831300Y-171781238D01*
X54531238Y-172081300D01*
X54531225Y-172081314D01*
X54255627Y-172403996D01*
X54255617Y-172404010D01*
X54006198Y-172747307D01*
X54006176Y-172747340D01*
X53784460Y-173109146D01*
X53784457Y-173109151D01*
X53591789Y-173487284D01*
X53591783Y-173487297D01*
X53429385Y-173879358D01*
X53298254Y-174282943D01*
X53298247Y-174282966D01*
X53199181Y-174695607D01*
X53183000Y-174797774D01*
X53132796Y-175114750D01*
X53099500Y-175537814D01*
X50500500Y-175537814D01*
X50500500Y-159037814D01*
X53099500Y-159037814D01*
X53099500Y-159058097D01*
X53099500Y-159462186D01*
X53132796Y-159885250D01*
X53199182Y-160304398D01*
X53298250Y-160717045D01*
X53298254Y-160717056D01*
X53429385Y-161120641D01*
X53496000Y-161281463D01*
X53591789Y-161512716D01*
X53784450Y-161890835D01*
X53784457Y-161890848D01*
X53784460Y-161890853D01*
X53807375Y-161928246D01*
X54006184Y-162252672D01*
X54006192Y-162252683D01*
X54006198Y-162252692D01*
X54255617Y-162595989D01*
X54255627Y-162596003D01*
X54378919Y-162740358D01*
X54531231Y-162918692D01*
X54831308Y-163218769D01*
X54831314Y-163218774D01*
X55153996Y-163494372D01*
X55154010Y-163494382D01*
X55361749Y-163645313D01*
X55497328Y-163743816D01*
X55625685Y-163822473D01*
X55859146Y-163965539D01*
X55859151Y-163965542D01*
X55859156Y-163965544D01*
X55859165Y-163965550D01*
X56237284Y-164158211D01*
X56629353Y-164320612D01*
X56629358Y-164320614D01*
X56731979Y-164353957D01*
X57032955Y-164451750D01*
X57445602Y-164550818D01*
X57864750Y-164617204D01*
X58287814Y-164650500D01*
X58287822Y-164650500D01*
X58712178Y-164650500D01*
X58712186Y-164650500D01*
X59135250Y-164617204D01*
X59554398Y-164550818D01*
X59967045Y-164451750D01*
X60370647Y-164320612D01*
X60762716Y-164158211D01*
X61140835Y-163965550D01*
X61502672Y-163743816D01*
X61845997Y-163494377D01*
X62168692Y-163218769D01*
X62468769Y-162918692D01*
X62744377Y-162595997D01*
X62993816Y-162252672D01*
X63215550Y-161890835D01*
X63408211Y-161512716D01*
X63570612Y-161120647D01*
X63701750Y-160717045D01*
X63800818Y-160304398D01*
X63867204Y-159885250D01*
X63900500Y-159462186D01*
X63900500Y-159037814D01*
X69599500Y-159037814D01*
X69599500Y-159058097D01*
X69599500Y-159462186D01*
X69632796Y-159885250D01*
X69699182Y-160304398D01*
X69798250Y-160717045D01*
X69798254Y-160717056D01*
X69929385Y-161120641D01*
X69996000Y-161281463D01*
X70091789Y-161512716D01*
X70284450Y-161890835D01*
X70284457Y-161890848D01*
X70284460Y-161890853D01*
X70307375Y-161928246D01*
X70506184Y-162252672D01*
X70506192Y-162252683D01*
X70506198Y-162252692D01*
X70755617Y-162595989D01*
X70755627Y-162596003D01*
X70878919Y-162740358D01*
X71031231Y-162918692D01*
X71331308Y-163218769D01*
X71331314Y-163218774D01*
X71653996Y-163494372D01*
X71654010Y-163494382D01*
X71861749Y-163645313D01*
X71997328Y-163743816D01*
X72125685Y-163822473D01*
X72359146Y-163965539D01*
X72359151Y-163965542D01*
X72359156Y-163965544D01*
X72359165Y-163965550D01*
X72737284Y-164158211D01*
X73129353Y-164320612D01*
X73129358Y-164320614D01*
X73231979Y-164353957D01*
X73532955Y-164451750D01*
X73945602Y-164550818D01*
X74364750Y-164617204D01*
X74787814Y-164650500D01*
X74787822Y-164650500D01*
X75212178Y-164650500D01*
X75212186Y-164650500D01*
X75635250Y-164617204D01*
X76054398Y-164550818D01*
X76467045Y-164451750D01*
X76870647Y-164320612D01*
X77262716Y-164158211D01*
X77640835Y-163965550D01*
X78002672Y-163743816D01*
X78345997Y-163494377D01*
X78668692Y-163218769D01*
X78968769Y-162918692D01*
X79244377Y-162595997D01*
X79493816Y-162252672D01*
X79715550Y-161890835D01*
X79908211Y-161512716D01*
X80070612Y-161120647D01*
X80201750Y-160717045D01*
X80300818Y-160304398D01*
X80367204Y-159885250D01*
X80400500Y-159462186D01*
X80400500Y-159037814D01*
X80367204Y-158614750D01*
X80300818Y-158195602D01*
X80201750Y-157782955D01*
X80070612Y-157379353D01*
X79908211Y-156987284D01*
X79715550Y-156609165D01*
X79715544Y-156609156D01*
X79715542Y-156609151D01*
X79715539Y-156609146D01*
X79493823Y-156247340D01*
X79493816Y-156247328D01*
X79244377Y-155904003D01*
X79244372Y-155903996D01*
X78968774Y-155581314D01*
X78968769Y-155581308D01*
X78668692Y-155281231D01*
X78668685Y-155281225D01*
X78346003Y-155005627D01*
X78345989Y-155005617D01*
X78002692Y-154756198D01*
X78002683Y-154756192D01*
X78002672Y-154756184D01*
X78002659Y-154756176D01*
X77640853Y-154534460D01*
X77640848Y-154534457D01*
X77640838Y-154534452D01*
X77640835Y-154534450D01*
X77262716Y-154341789D01*
X77262702Y-154341783D01*
X76870641Y-154179385D01*
X76583478Y-154086081D01*
X76467045Y-154048250D01*
X76054398Y-153949182D01*
X75635250Y-153882796D01*
X75212191Y-153849500D01*
X75212186Y-153849500D01*
X74787814Y-153849500D01*
X74787808Y-153849500D01*
X74364749Y-153882796D01*
X74364748Y-153882796D01*
X73945607Y-153949181D01*
X73945604Y-153949181D01*
X73945602Y-153949182D01*
X73797817Y-153984661D01*
X73532966Y-154048247D01*
X73532960Y-154048248D01*
X73532955Y-154048250D01*
X73532943Y-154048254D01*
X73129358Y-154179385D01*
X72737297Y-154341783D01*
X72737284Y-154341789D01*
X72359151Y-154534457D01*
X72359146Y-154534460D01*
X71997340Y-154756176D01*
X71997307Y-154756198D01*
X71654010Y-155005617D01*
X71653996Y-155005627D01*
X71331314Y-155281225D01*
X71331300Y-155281238D01*
X71031238Y-155581300D01*
X71031225Y-155581314D01*
X70755627Y-155903996D01*
X70755617Y-155904010D01*
X70506198Y-156247307D01*
X70506176Y-156247340D01*
X70284460Y-156609146D01*
X70284457Y-156609151D01*
X70091789Y-156987284D01*
X70091783Y-156987297D01*
X69929385Y-157379358D01*
X69798254Y-157782943D01*
X69798247Y-157782966D01*
X69699181Y-158195607D01*
X69683000Y-158297774D01*
X69632796Y-158614750D01*
X69599500Y-159037814D01*
X63900500Y-159037814D01*
X63867204Y-158614750D01*
X63800818Y-158195602D01*
X63701750Y-157782955D01*
X63570612Y-157379353D01*
X63408211Y-156987284D01*
X63215550Y-156609165D01*
X63215544Y-156609156D01*
X63215542Y-156609151D01*
X63215539Y-156609146D01*
X62993823Y-156247340D01*
X62993816Y-156247328D01*
X62744377Y-155904003D01*
X62744372Y-155903996D01*
X62468774Y-155581314D01*
X62468769Y-155581308D01*
X62168692Y-155281231D01*
X62168685Y-155281225D01*
X61846003Y-155005627D01*
X61845989Y-155005617D01*
X61502692Y-154756198D01*
X61502683Y-154756192D01*
X61502672Y-154756184D01*
X61502659Y-154756176D01*
X61140853Y-154534460D01*
X61140848Y-154534457D01*
X61140838Y-154534452D01*
X61140835Y-154534450D01*
X60762716Y-154341789D01*
X60762702Y-154341783D01*
X60370641Y-154179385D01*
X60083478Y-154086081D01*
X59967045Y-154048250D01*
X59554398Y-153949182D01*
X59135250Y-153882796D01*
X58712191Y-153849500D01*
X58712186Y-153849500D01*
X58287814Y-153849500D01*
X58287808Y-153849500D01*
X57864749Y-153882796D01*
X57864748Y-153882796D01*
X57445607Y-153949181D01*
X57445604Y-153949181D01*
X57445602Y-153949182D01*
X57297817Y-153984661D01*
X57032966Y-154048247D01*
X57032960Y-154048248D01*
X57032955Y-154048250D01*
X57032943Y-154048254D01*
X56629358Y-154179385D01*
X56237297Y-154341783D01*
X56237284Y-154341789D01*
X55859151Y-154534457D01*
X55859146Y-154534460D01*
X55497340Y-154756176D01*
X55497307Y-154756198D01*
X55154010Y-155005617D01*
X55153996Y-155005627D01*
X54831314Y-155281225D01*
X54831300Y-155281238D01*
X54531238Y-155581300D01*
X54531225Y-155581314D01*
X54255627Y-155903996D01*
X54255617Y-155904010D01*
X54006198Y-156247307D01*
X54006176Y-156247340D01*
X53784460Y-156609146D01*
X53784457Y-156609151D01*
X53591789Y-156987284D01*
X53591783Y-156987297D01*
X53429385Y-157379358D01*
X53298254Y-157782943D01*
X53298247Y-157782966D01*
X53199181Y-158195607D01*
X53183000Y-158297774D01*
X53132796Y-158614750D01*
X53099500Y-159037814D01*
X50500500Y-159037814D01*
X50500500Y-134881995D01*
X67199500Y-134881995D01*
X67199500Y-135118004D01*
X67199501Y-135118020D01*
X67230306Y-135352010D01*
X67291394Y-135579993D01*
X67381714Y-135798045D01*
X67381719Y-135798056D01*
X67400375Y-135830368D01*
X67499727Y-136002450D01*
X67499729Y-136002453D01*
X67499730Y-136002454D01*
X67643406Y-136189697D01*
X67643412Y-136189704D01*
X67810295Y-136356587D01*
X67810301Y-136356592D01*
X67997550Y-136500273D01*
X68128918Y-136576118D01*
X68201943Y-136618280D01*
X68201948Y-136618282D01*
X68201951Y-136618284D01*
X68420007Y-136708606D01*
X68647986Y-136769693D01*
X68881989Y-136800500D01*
X68881996Y-136800500D01*
X69118004Y-136800500D01*
X69118011Y-136800500D01*
X69352014Y-136769693D01*
X69579993Y-136708606D01*
X69798049Y-136618284D01*
X70002450Y-136500273D01*
X70189699Y-136356592D01*
X70356592Y-136189699D01*
X70500273Y-136002450D01*
X70618284Y-135798049D01*
X70708606Y-135579993D01*
X70769693Y-135352014D01*
X70800500Y-135118011D01*
X70800500Y-134881989D01*
X70790163Y-134803471D01*
X79999500Y-134803471D01*
X79999500Y-135196528D01*
X80038026Y-135587702D01*
X80114704Y-135973194D01*
X80114707Y-135973205D01*
X80228810Y-136349354D01*
X80379230Y-136712499D01*
X80379232Y-136712504D01*
X80564511Y-137059137D01*
X80564522Y-137059155D01*
X80782887Y-137385960D01*
X80782897Y-137385974D01*
X81032254Y-137689817D01*
X81310182Y-137967745D01*
X81310187Y-137967749D01*
X81310188Y-137967750D01*
X81614031Y-138217107D01*
X81940851Y-138435482D01*
X81940860Y-138435487D01*
X81940862Y-138435488D01*
X82287495Y-138620767D01*
X82287497Y-138620767D01*
X82287503Y-138620771D01*
X82650647Y-138771190D01*
X83026785Y-138885290D01*
X83026791Y-138885291D01*
X83026794Y-138885292D01*
X83026805Y-138885295D01*
X83412297Y-138961973D01*
X83803468Y-139000500D01*
X83803471Y-139000500D01*
X84196529Y-139000500D01*
X84196532Y-139000500D01*
X84587703Y-138961973D01*
X84662748Y-138947045D01*
X84973194Y-138885295D01*
X84973205Y-138885292D01*
X84973205Y-138885291D01*
X84973215Y-138885290D01*
X85349353Y-138771190D01*
X85712497Y-138620771D01*
X86059149Y-138435482D01*
X86385969Y-138217107D01*
X86689812Y-137967750D01*
X86967750Y-137689812D01*
X87217107Y-137385969D01*
X87435482Y-137059149D01*
X87620771Y-136712497D01*
X87771190Y-136349353D01*
X87885290Y-135973215D01*
X87885292Y-135973205D01*
X87885295Y-135973194D01*
X87961973Y-135587702D01*
X87985186Y-135352014D01*
X88000500Y-135196532D01*
X88000500Y-134803468D01*
X87961973Y-134412297D01*
X87885295Y-134026805D01*
X87885292Y-134026794D01*
X87885291Y-134026791D01*
X87885290Y-134026785D01*
X87771190Y-133650647D01*
X87620771Y-133287503D01*
X87608355Y-133264275D01*
X87435488Y-132940862D01*
X87435487Y-132940860D01*
X87435482Y-132940851D01*
X87217107Y-132614031D01*
X86967750Y-132310188D01*
X86967749Y-132310187D01*
X86967745Y-132310182D01*
X86689817Y-132032254D01*
X86385974Y-131782897D01*
X86385973Y-131782896D01*
X86385969Y-131782893D01*
X86059149Y-131564518D01*
X86059144Y-131564515D01*
X86059137Y-131564511D01*
X85712504Y-131379232D01*
X85712499Y-131379230D01*
X85349354Y-131228810D01*
X84973205Y-131114707D01*
X84973194Y-131114704D01*
X84587702Y-131038026D01*
X84293089Y-131009010D01*
X84196532Y-130999500D01*
X83803468Y-130999500D01*
X83714251Y-131008287D01*
X83412297Y-131038026D01*
X83026805Y-131114704D01*
X83026794Y-131114707D01*
X82650645Y-131228810D01*
X82287500Y-131379230D01*
X82287495Y-131379232D01*
X81940862Y-131564511D01*
X81940844Y-131564522D01*
X81614039Y-131782887D01*
X81614025Y-131782897D01*
X81310182Y-132032254D01*
X81032254Y-132310182D01*
X80782897Y-132614025D01*
X80782887Y-132614039D01*
X80564522Y-132940844D01*
X80564511Y-132940862D01*
X80379232Y-133287495D01*
X80379230Y-133287500D01*
X80228810Y-133650645D01*
X80114707Y-134026794D01*
X80114704Y-134026805D01*
X80038026Y-134412297D01*
X79999500Y-134803471D01*
X70790163Y-134803471D01*
X70769693Y-134647986D01*
X70708606Y-134420007D01*
X70618284Y-134201951D01*
X70618282Y-134201948D01*
X70618280Y-134201943D01*
X70517163Y-134026805D01*
X70500273Y-133997550D01*
X70356592Y-133810301D01*
X70356587Y-133810295D01*
X70189704Y-133643412D01*
X70189697Y-133643406D01*
X70002454Y-133499730D01*
X70002453Y-133499729D01*
X70002450Y-133499727D01*
X69920957Y-133452677D01*
X69798056Y-133381719D01*
X69798045Y-133381714D01*
X69579993Y-133291394D01*
X69352010Y-133230306D01*
X69118020Y-133199501D01*
X69118017Y-133199500D01*
X69118011Y-133199500D01*
X68881989Y-133199500D01*
X68881983Y-133199500D01*
X68881979Y-133199501D01*
X68647989Y-133230306D01*
X68420006Y-133291394D01*
X68201954Y-133381714D01*
X68201943Y-133381719D01*
X67997545Y-133499730D01*
X67810302Y-133643406D01*
X67810295Y-133643412D01*
X67643412Y-133810295D01*
X67643406Y-133810302D01*
X67499730Y-133997545D01*
X67381719Y-134201943D01*
X67381714Y-134201954D01*
X67291394Y-134420006D01*
X67230306Y-134647989D01*
X67199501Y-134881979D01*
X67199500Y-134881995D01*
X50500500Y-134881995D01*
X50500500Y-108803471D01*
X61999500Y-108803471D01*
X61999500Y-109196528D01*
X62038026Y-109587702D01*
X62114704Y-109973194D01*
X62114707Y-109973205D01*
X62228810Y-110349354D01*
X62379230Y-110712499D01*
X62379232Y-110712504D01*
X62564511Y-111059137D01*
X62564522Y-111059155D01*
X62782887Y-111385960D01*
X62782897Y-111385974D01*
X63032254Y-111689817D01*
X63310182Y-111967745D01*
X63310187Y-111967749D01*
X63310188Y-111967750D01*
X63614031Y-112217107D01*
X63940851Y-112435482D01*
X63940860Y-112435487D01*
X63940862Y-112435488D01*
X64287495Y-112620767D01*
X64287497Y-112620767D01*
X64287503Y-112620771D01*
X64650647Y-112771190D01*
X65026785Y-112885290D01*
X65026791Y-112885291D01*
X65026794Y-112885292D01*
X65026805Y-112885295D01*
X65412297Y-112961973D01*
X65803468Y-113000500D01*
X65803471Y-113000500D01*
X66196529Y-113000500D01*
X66196532Y-113000500D01*
X66587703Y-112961973D01*
X66662748Y-112947045D01*
X66973194Y-112885295D01*
X66973205Y-112885292D01*
X66973205Y-112885291D01*
X66973215Y-112885290D01*
X67349353Y-112771190D01*
X67712497Y-112620771D01*
X68059149Y-112435482D01*
X68385969Y-112217107D01*
X68689812Y-111967750D01*
X68967750Y-111689812D01*
X69217107Y-111385969D01*
X69435482Y-111059149D01*
X69620771Y-110712497D01*
X69771190Y-110349353D01*
X69885290Y-109973215D01*
X69885292Y-109973205D01*
X69885295Y-109973194D01*
X69961973Y-109587702D01*
X69985186Y-109352014D01*
X70000500Y-109196532D01*
X70000500Y-108881995D01*
X79199500Y-108881995D01*
X79199500Y-109118004D01*
X79199501Y-109118020D01*
X79230306Y-109352010D01*
X79291394Y-109579993D01*
X79381714Y-109798045D01*
X79381719Y-109798056D01*
X79400375Y-109830368D01*
X79499727Y-110002450D01*
X79499729Y-110002453D01*
X79499730Y-110002454D01*
X79643406Y-110189697D01*
X79643412Y-110189704D01*
X79810295Y-110356587D01*
X79810301Y-110356592D01*
X79997550Y-110500273D01*
X80128918Y-110576118D01*
X80201943Y-110618280D01*
X80201948Y-110618282D01*
X80201951Y-110618284D01*
X80420007Y-110708606D01*
X80647986Y-110769693D01*
X80881989Y-110800500D01*
X80881996Y-110800500D01*
X81118004Y-110800500D01*
X81118011Y-110800500D01*
X81352014Y-110769693D01*
X81579993Y-110708606D01*
X81798049Y-110618284D01*
X82002450Y-110500273D01*
X82189699Y-110356592D01*
X82356592Y-110189699D01*
X82500273Y-110002450D01*
X82618284Y-109798049D01*
X82708606Y-109579993D01*
X82769693Y-109352014D01*
X82800500Y-109118011D01*
X82800500Y-108881989D01*
X82769693Y-108647986D01*
X82708606Y-108420007D01*
X82618284Y-108201951D01*
X82618282Y-108201948D01*
X82618280Y-108201943D01*
X82517163Y-108026805D01*
X82500273Y-107997550D01*
X82356592Y-107810301D01*
X82356587Y-107810295D01*
X82189704Y-107643412D01*
X82189697Y-107643406D01*
X82002454Y-107499730D01*
X82002453Y-107499729D01*
X82002450Y-107499727D01*
X81920957Y-107452677D01*
X81798056Y-107381719D01*
X81798045Y-107381714D01*
X81579993Y-107291394D01*
X81352010Y-107230306D01*
X81118020Y-107199501D01*
X81118017Y-107199500D01*
X81118011Y-107199500D01*
X80881989Y-107199500D01*
X80881983Y-107199500D01*
X80881979Y-107199501D01*
X80647989Y-107230306D01*
X80420006Y-107291394D01*
X80201954Y-107381714D01*
X80201943Y-107381719D01*
X79997545Y-107499730D01*
X79810302Y-107643406D01*
X79810295Y-107643412D01*
X79643412Y-107810295D01*
X79643406Y-107810302D01*
X79499730Y-107997545D01*
X79381719Y-108201943D01*
X79381714Y-108201954D01*
X79291394Y-108420006D01*
X79230306Y-108647989D01*
X79199501Y-108881979D01*
X79199500Y-108881995D01*
X70000500Y-108881995D01*
X70000500Y-108803468D01*
X69961973Y-108412297D01*
X69885295Y-108026805D01*
X69885292Y-108026794D01*
X69885291Y-108026791D01*
X69885290Y-108026785D01*
X69771190Y-107650647D01*
X69620771Y-107287503D01*
X69608355Y-107264275D01*
X69435488Y-106940862D01*
X69435487Y-106940860D01*
X69435482Y-106940851D01*
X69217107Y-106614031D01*
X68967750Y-106310188D01*
X68967749Y-106310187D01*
X68967745Y-106310182D01*
X68689817Y-106032254D01*
X68385974Y-105782897D01*
X68385973Y-105782896D01*
X68385969Y-105782893D01*
X68059149Y-105564518D01*
X68059144Y-105564515D01*
X68059137Y-105564511D01*
X67712504Y-105379232D01*
X67712499Y-105379230D01*
X67349354Y-105228810D01*
X66973205Y-105114707D01*
X66973194Y-105114704D01*
X66587702Y-105038026D01*
X66293089Y-105009010D01*
X66196532Y-104999500D01*
X65803468Y-104999500D01*
X65714251Y-105008287D01*
X65412297Y-105038026D01*
X65026805Y-105114704D01*
X65026794Y-105114707D01*
X64650645Y-105228810D01*
X64287500Y-105379230D01*
X64287495Y-105379232D01*
X63940862Y-105564511D01*
X63940844Y-105564522D01*
X63614039Y-105782887D01*
X63614025Y-105782897D01*
X63310182Y-106032254D01*
X63032254Y-106310182D01*
X62782897Y-106614025D01*
X62782887Y-106614039D01*
X62564522Y-106940844D01*
X62564511Y-106940862D01*
X62379232Y-107287495D01*
X62379230Y-107287500D01*
X62228810Y-107650645D01*
X62114707Y-108026794D01*
X62114704Y-108026805D01*
X62038026Y-108412297D01*
X61999500Y-108803471D01*
X50500500Y-108803471D01*
X50500500Y-85881995D01*
X69199500Y-85881995D01*
X69199500Y-86118004D01*
X69199501Y-86118020D01*
X69230306Y-86352010D01*
X69291394Y-86579993D01*
X69381714Y-86798045D01*
X69381719Y-86798056D01*
X69452677Y-86920957D01*
X69499727Y-87002450D01*
X69499729Y-87002453D01*
X69499730Y-87002454D01*
X69643406Y-87189697D01*
X69643412Y-87189704D01*
X69810295Y-87356587D01*
X69810301Y-87356592D01*
X69997550Y-87500273D01*
X70128918Y-87576118D01*
X70201943Y-87618280D01*
X70201948Y-87618282D01*
X70201951Y-87618284D01*
X70420007Y-87708606D01*
X70647986Y-87769693D01*
X70881989Y-87800500D01*
X70881996Y-87800500D01*
X71118004Y-87800500D01*
X71118011Y-87800500D01*
X71352014Y-87769693D01*
X71579993Y-87708606D01*
X71798049Y-87618284D01*
X72002450Y-87500273D01*
X72189699Y-87356592D01*
X72356592Y-87189699D01*
X72500273Y-87002450D01*
X72618284Y-86798049D01*
X72708606Y-86579993D01*
X72769693Y-86352014D01*
X72800500Y-86118011D01*
X72800500Y-85881995D01*
X77199500Y-85881995D01*
X77199500Y-86118004D01*
X77199501Y-86118020D01*
X77230306Y-86352010D01*
X77291394Y-86579993D01*
X77381714Y-86798045D01*
X77381719Y-86798056D01*
X77452677Y-86920957D01*
X77499727Y-87002450D01*
X77499729Y-87002453D01*
X77499730Y-87002454D01*
X77643406Y-87189697D01*
X77643412Y-87189704D01*
X77810295Y-87356587D01*
X77810301Y-87356592D01*
X77997550Y-87500273D01*
X78128918Y-87576118D01*
X78201943Y-87618280D01*
X78201948Y-87618282D01*
X78201951Y-87618284D01*
X78420007Y-87708606D01*
X78647986Y-87769693D01*
X78881989Y-87800500D01*
X78881996Y-87800500D01*
X79118004Y-87800500D01*
X79118011Y-87800500D01*
X79352014Y-87769693D01*
X79579993Y-87708606D01*
X79798049Y-87618284D01*
X80002450Y-87500273D01*
X80189699Y-87356592D01*
X80356592Y-87189699D01*
X80500273Y-87002450D01*
X80618284Y-86798049D01*
X80708606Y-86579993D01*
X80769693Y-86352014D01*
X80800500Y-86118011D01*
X80800500Y-85881989D01*
X80769693Y-85647986D01*
X80708606Y-85420007D01*
X80618284Y-85201951D01*
X80618282Y-85201948D01*
X80618280Y-85201943D01*
X80576118Y-85128918D01*
X80500273Y-84997550D01*
X80356592Y-84810301D01*
X80356587Y-84810295D01*
X80189704Y-84643412D01*
X80189697Y-84643406D01*
X80002454Y-84499730D01*
X80002453Y-84499729D01*
X80002450Y-84499727D01*
X79920957Y-84452677D01*
X79798056Y-84381719D01*
X79798045Y-84381714D01*
X79579993Y-84291394D01*
X79352010Y-84230306D01*
X79118020Y-84199501D01*
X79118017Y-84199500D01*
X79118011Y-84199500D01*
X78881989Y-84199500D01*
X78881983Y-84199500D01*
X78881979Y-84199501D01*
X78647989Y-84230306D01*
X78420006Y-84291394D01*
X78201954Y-84381714D01*
X78201943Y-84381719D01*
X77997545Y-84499730D01*
X77810302Y-84643406D01*
X77810295Y-84643412D01*
X77643412Y-84810295D01*
X77643406Y-84810302D01*
X77499730Y-84997545D01*
X77381719Y-85201943D01*
X77381714Y-85201954D01*
X77291394Y-85420006D01*
X77230306Y-85647989D01*
X77199501Y-85881979D01*
X77199500Y-85881995D01*
X72800500Y-85881995D01*
X72800500Y-85881989D01*
X72769693Y-85647986D01*
X72708606Y-85420007D01*
X72618284Y-85201951D01*
X72618282Y-85201948D01*
X72618280Y-85201943D01*
X72576118Y-85128918D01*
X72500273Y-84997550D01*
X72356592Y-84810301D01*
X72356587Y-84810295D01*
X72189704Y-84643412D01*
X72189697Y-84643406D01*
X72002454Y-84499730D01*
X72002453Y-84499729D01*
X72002450Y-84499727D01*
X71920957Y-84452677D01*
X71798056Y-84381719D01*
X71798045Y-84381714D01*
X71579993Y-84291394D01*
X71352010Y-84230306D01*
X71118020Y-84199501D01*
X71118017Y-84199500D01*
X71118011Y-84199500D01*
X70881989Y-84199500D01*
X70881983Y-84199500D01*
X70881979Y-84199501D01*
X70647989Y-84230306D01*
X70420006Y-84291394D01*
X70201954Y-84381714D01*
X70201943Y-84381719D01*
X69997545Y-84499730D01*
X69810302Y-84643406D01*
X69810295Y-84643412D01*
X69643412Y-84810295D01*
X69643406Y-84810302D01*
X69499730Y-84997545D01*
X69381719Y-85201943D01*
X69381714Y-85201954D01*
X69291394Y-85420006D01*
X69230306Y-85647989D01*
X69199501Y-85881979D01*
X69199500Y-85881995D01*
X50500500Y-85881995D01*
X50500500Y-60803471D01*
X70999500Y-60803471D01*
X70999500Y-61196528D01*
X71038026Y-61587702D01*
X71114704Y-61973194D01*
X71114707Y-61973205D01*
X71228810Y-62349354D01*
X71379230Y-62712499D01*
X71379232Y-62712504D01*
X71564511Y-63059137D01*
X71564522Y-63059155D01*
X71782887Y-63385960D01*
X71782897Y-63385974D01*
X72032254Y-63689817D01*
X72310182Y-63967745D01*
X72310187Y-63967749D01*
X72310188Y-63967750D01*
X72614031Y-64217107D01*
X72940851Y-64435482D01*
X72940860Y-64435487D01*
X72940862Y-64435488D01*
X73287495Y-64620767D01*
X73287497Y-64620767D01*
X73287503Y-64620771D01*
X73650647Y-64771190D01*
X74026785Y-64885290D01*
X74026791Y-64885291D01*
X74026794Y-64885292D01*
X74026805Y-64885295D01*
X74412297Y-64961973D01*
X74803468Y-65000500D01*
X74803471Y-65000500D01*
X75196529Y-65000500D01*
X75196532Y-65000500D01*
X75587703Y-64961973D01*
X75662748Y-64947045D01*
X75973194Y-64885295D01*
X75973205Y-64885292D01*
X75973205Y-64885291D01*
X75973215Y-64885290D01*
X76349353Y-64771190D01*
X76712497Y-64620771D01*
X77059149Y-64435482D01*
X77385969Y-64217107D01*
X77689812Y-63967750D01*
X77967750Y-63689812D01*
X78217107Y-63385969D01*
X78435482Y-63059149D01*
X78620771Y-62712497D01*
X78771190Y-62349353D01*
X78885290Y-61973215D01*
X78885292Y-61973205D01*
X78885295Y-61973194D01*
X78961973Y-61587702D01*
X79000500Y-61196528D01*
X79000500Y-60803471D01*
X78961973Y-60412297D01*
X78885295Y-60026805D01*
X78885292Y-60026794D01*
X78885291Y-60026791D01*
X78885290Y-60026785D01*
X78771190Y-59650647D01*
X78620771Y-59287503D01*
X78608355Y-59264275D01*
X78435488Y-58940862D01*
X78435487Y-58940860D01*
X78435482Y-58940851D01*
X78217107Y-58614031D01*
X77967750Y-58310188D01*
X77967749Y-58310187D01*
X77967745Y-58310182D01*
X77689817Y-58032254D01*
X77385974Y-57782897D01*
X77385973Y-57782896D01*
X77385969Y-57782893D01*
X77059149Y-57564518D01*
X77059144Y-57564515D01*
X77059137Y-57564511D01*
X76712504Y-57379232D01*
X76712499Y-57379230D01*
X76349354Y-57228810D01*
X75973205Y-57114707D01*
X75973194Y-57114704D01*
X75587702Y-57038026D01*
X75293089Y-57009010D01*
X75196532Y-56999500D01*
X74803468Y-56999500D01*
X74714251Y-57008287D01*
X74412297Y-57038026D01*
X74026805Y-57114704D01*
X74026794Y-57114707D01*
X73650645Y-57228810D01*
X73287500Y-57379230D01*
X73287495Y-57379232D01*
X72940862Y-57564511D01*
X72940844Y-57564522D01*
X72614039Y-57782887D01*
X72614025Y-57782897D01*
X72310182Y-58032254D01*
X72032254Y-58310182D01*
X71782897Y-58614025D01*
X71782887Y-58614039D01*
X71564522Y-58940844D01*
X71564511Y-58940862D01*
X71379232Y-59287495D01*
X71379230Y-59287500D01*
X71228810Y-59650645D01*
X71114707Y-60026794D01*
X71114704Y-60026805D01*
X71038026Y-60412297D01*
X70999500Y-60803471D01*
X50500500Y-60803471D01*
X50500500Y-30624500D01*
X50520185Y-30557461D01*
X50572989Y-30511706D01*
X50624500Y-30500500D01*
X99375500Y-30500500D01*
X99442539Y-30520185D01*
G37*
%TD.AperFunction*%
%TD*%
M02*
