%TF.GenerationSoftware,KiCad,Pcbnew,10.0.1*%
%TF.CreationDate,2026-06-25T20:44:09+02:00*%
%TF.ProjectId,DMH_Slew_Mk2_PANEL,444d485f-536c-4657-975f-4d6b325f5041,rev?*%
%TF.SameCoordinates,Original*%
%TF.FileFunction,Soldermask,Bot*%
%TF.FilePolarity,Negative*%
%FSLAX46Y46*%
G04 Gerber Fmt 4.6, Leading zero omitted, Abs format (unit mm)*
G04 Created by KiCad (PCBNEW 10.0.1) date 2026-06-25 20:44:09*
%MOMM*%
%LPD*%
G01*
G04 APERTURE LIST*
%ADD10C,3.100000*%
%ADD11C,12.000000*%
%ADD12O,2.500000X1.500000*%
%ADD13C,4.000000*%
%ADD14C,2.900000*%
%ADD15C,13.000000*%
%ADD16C,0.500000*%
G04 APERTURE END LIST*
D10*
%TO.C,H30*%
X69000000Y-135000000D03*
%TD*%
D11*
%TO.C,H20*%
X84000000Y-135000000D03*
D12*
X84000000Y-141000000D03*
%TD*%
D10*
%TO.C,H29*%
X71000000Y-86000000D03*
%TD*%
D13*
%TO.C,H3*%
X53500000Y-226500000D03*
%TD*%
D14*
%TO.C,H26*%
X58500000Y-77150000D03*
D15*
X58500000Y-83250000D03*
%TD*%
D10*
%TO.C,H27*%
X79000000Y-86000000D03*
%TD*%
D11*
%TO.C,H19*%
X66000000Y-109000000D03*
D12*
X66000000Y-115000000D03*
%TD*%
D14*
%TO.C,H25*%
X58500000Y-128900000D03*
D15*
X58500000Y-135000000D03*
%TD*%
D16*
%TO.C,H7*%
X85800000Y-192250000D03*
X87460000Y-188220000D03*
X87470000Y-196290000D03*
X91500000Y-186550000D03*
D11*
X91500000Y-192250000D03*
D16*
X91500000Y-197950000D03*
X95530000Y-196290000D03*
X95540000Y-188220000D03*
X97200000Y-192250000D03*
%TD*%
D14*
%TO.C,H22*%
X91500000Y-102900000D03*
D15*
X91500000Y-109000000D03*
%TD*%
D16*
%TO.C,H5*%
X52800000Y-192250000D03*
X54460000Y-188220000D03*
X54470000Y-196290000D03*
X58500000Y-186550000D03*
D11*
X58500000Y-192250000D03*
D16*
X58500000Y-197950000D03*
X62530000Y-196290000D03*
X62540000Y-188220000D03*
X64200000Y-192250000D03*
%TD*%
%TO.C,H13*%
X52800000Y-159250000D03*
X54460000Y-155220000D03*
X54470000Y-163290000D03*
X58500000Y-153550000D03*
D11*
X58500000Y-159250000D03*
D16*
X58500000Y-164950000D03*
X62530000Y-163290000D03*
X62540000Y-155220000D03*
X64200000Y-159250000D03*
%TD*%
%TO.C,H9*%
X69300000Y-208750000D03*
X70960000Y-204720000D03*
X70970000Y-212790000D03*
X75000000Y-203050000D03*
D11*
X75000000Y-208750000D03*
D16*
X75000000Y-214450000D03*
X79030000Y-212790000D03*
X79040000Y-204720000D03*
X80700000Y-208750000D03*
%TD*%
D14*
%TO.C,H21*%
X91500000Y-77150000D03*
D15*
X91500000Y-83250000D03*
%TD*%
D16*
%TO.C,H10*%
X85800000Y-208750000D03*
X87460000Y-204720000D03*
X87470000Y-212790000D03*
X91500000Y-203050000D03*
D11*
X91500000Y-208750000D03*
D16*
X91500000Y-214450000D03*
X95530000Y-212790000D03*
X95540000Y-204720000D03*
X97200000Y-208750000D03*
%TD*%
%TO.C,H14*%
X69300000Y-159250000D03*
X70960000Y-155220000D03*
X70970000Y-163290000D03*
X75000000Y-153550000D03*
D11*
X75000000Y-159250000D03*
D16*
X75000000Y-164950000D03*
X79030000Y-163290000D03*
X79040000Y-155220000D03*
X80700000Y-159250000D03*
%TD*%
D10*
%TO.C,H28*%
X81000000Y-109000000D03*
%TD*%
D16*
%TO.C,H16*%
X69300000Y-175750000D03*
X70960000Y-171720000D03*
X70970000Y-179790000D03*
X75000000Y-170050000D03*
D11*
X75000000Y-175750000D03*
D16*
X75000000Y-181450000D03*
X79030000Y-179790000D03*
X79040000Y-171720000D03*
X80700000Y-175750000D03*
%TD*%
%TO.C,H6*%
X69300000Y-192250000D03*
X70960000Y-188220000D03*
X70970000Y-196290000D03*
X75000000Y-186550000D03*
D11*
X75000000Y-192250000D03*
D16*
X75000000Y-197950000D03*
X79030000Y-196290000D03*
X79040000Y-188220000D03*
X80700000Y-192250000D03*
%TD*%
D13*
%TO.C,H2*%
X96500000Y-33500000D03*
%TD*%
%TO.C,H4*%
X96500000Y-226500000D03*
%TD*%
D14*
%TO.C,H18*%
X91500000Y-169650000D03*
D15*
X91500000Y-175750000D03*
%TD*%
D13*
%TO.C,H1*%
X53500000Y-33500000D03*
%TD*%
D14*
%TO.C,H24*%
X91500000Y-153150000D03*
D15*
X91500000Y-159250000D03*
%TD*%
D11*
%TO.C,H17*%
X75000000Y-61000000D03*
D12*
X75000000Y-67000000D03*
%TD*%
D16*
%TO.C,H8*%
X52800000Y-208750000D03*
X54460000Y-204720000D03*
X54470000Y-212790000D03*
X58500000Y-203050000D03*
D11*
X58500000Y-208750000D03*
D16*
X58500000Y-214450000D03*
X62530000Y-212790000D03*
X62540000Y-204720000D03*
X64200000Y-208750000D03*
%TD*%
%TO.C,H15*%
X52800000Y-175750000D03*
X54460000Y-171720000D03*
X54470000Y-179790000D03*
X58500000Y-170050000D03*
D11*
X58500000Y-175750000D03*
D16*
X58500000Y-181450000D03*
X62530000Y-179790000D03*
X62540000Y-171720000D03*
X64200000Y-175750000D03*
%TD*%
M02*
