M48
; DRILL file KiCad 10.0.1 date 2026-06-25T20:44:17
; FORMAT={-:-/ absolute / metric / decimal}
; #@! TF.CreationDate,2026-06-25T20:44:17+02:00
; #@! TF.GenerationSoftware,Kicad,Pcbnew,10.0.1
; #@! TF.FileFunction,Plated,1,2,PTH
FMAT,2
METRIC
; #@! TA.AperFunction,Plated,PTH,ComponentDrill
T1C0.300
; #@! TA.AperFunction,Plated,PTH,ComponentDrill
T2C1.200
; #@! TA.AperFunction,Plated,PTH,ComponentDrill
T3C2.400
; #@! TA.AperFunction,Plated,PTH,ComponentDrill
T4C3.200
; #@! TA.AperFunction,Plated,PTH,ComponentDrill
T5C6.400
%
G90
G05
T1
X52.8Y-159.25
X52.8Y-175.75
X52.8Y-192.25
X52.8Y-208.75
X54.46Y-155.22
X54.46Y-171.72
X54.46Y-188.22
X54.46Y-204.72
X54.47Y-163.29
X54.47Y-179.79
X54.47Y-196.29
X54.47Y-212.79
X58.5Y-153.55
X58.5Y-164.95
X58.5Y-170.05
X58.5Y-181.45
X58.5Y-186.55
X58.5Y-197.95
X58.5Y-203.05
X58.5Y-214.45
X62.53Y-163.29
X62.53Y-179.79
X62.53Y-196.29
X62.53Y-212.79
X62.54Y-155.22
X62.54Y-171.72
X62.54Y-188.22
X62.54Y-204.72
X64.2Y-159.25
X64.2Y-175.75
X64.2Y-192.25
X64.2Y-208.75
X69.3Y-159.25
X69.3Y-175.75
X69.3Y-192.25
X69.3Y-208.75
X70.96Y-155.22
X70.96Y-171.72
X70.96Y-188.22
X70.96Y-204.72
X70.97Y-163.29
X70.97Y-179.79
X70.97Y-196.29
X70.97Y-212.79
X75.0Y-153.55
X75.0Y-164.95
X75.0Y-170.05
X75.0Y-181.45
X75.0Y-186.55
X75.0Y-197.95
X75.0Y-203.05
X75.0Y-214.45
X79.03Y-163.29
X79.03Y-179.79
X79.03Y-196.29
X79.03Y-212.79
X79.04Y-155.22
X79.04Y-171.72
X79.04Y-188.22
X79.04Y-204.72
X80.7Y-159.25
X80.7Y-175.75
X80.7Y-192.25
X80.7Y-208.75
X85.8Y-192.25
X85.8Y-208.75
X87.46Y-188.22
X87.46Y-204.72
X87.47Y-196.29
X87.47Y-212.79
X91.5Y-186.55
X91.5Y-197.95
X91.5Y-203.05
X91.5Y-214.45
X95.53Y-196.29
X95.53Y-212.79
X95.54Y-188.22
X95.54Y-204.72
X97.2Y-192.25
X97.2Y-208.75
T3
X58.5Y-77.15
X58.5Y-128.9
X91.5Y-77.15
X91.5Y-102.9
X91.5Y-153.15
X91.5Y-169.65
T4
X53.5Y-33.5
X53.5Y-226.5
X96.5Y-33.5
X96.5Y-226.5
T5
X58.5Y-83.25
X58.5Y-135.0
X91.5Y-83.25
X91.5Y-109.0
X91.5Y-159.25
X91.5Y-175.75
T2
G00X65.5Y-115.0
M15
G01X66.5Y-115.0
M16
G05
G00X74.5Y-67.0
M15
G01X75.5Y-67.0
M16
G05
G00X83.5Y-141.0
M15
G01X84.5Y-141.0
M16
G05
M30
