%TF.GenerationSoftware,KiCad,Pcbnew,10.0.1*%
%TF.CreationDate,2026-06-25T20:44:09+02:00*%
%TF.ProjectId,DMH_Slew_Mk2_PANEL,444d485f-536c-4657-975f-4d6b325f5041,rev?*%
%TF.SameCoordinates,Original*%
%TF.FileFunction,Profile,NP*%
%FSLAX46Y46*%
G04 Gerber Fmt 4.6, Leading zero omitted, Abs format (unit mm)*
G04 Created by KiCad (PCBNEW 10.0.1) date 2026-06-25 20:44:09*
%MOMM*%
%LPD*%
G01*
G04 APERTURE LIST*
%TA.AperFunction,Profile*%
%ADD10C,0.050000*%
%TD*%
G04 APERTURE END LIST*
D10*
X50000000Y-30000000D02*
X100000000Y-30000000D01*
X100000000Y-230000000D01*
X50000000Y-230000000D01*
X50000000Y-30000000D01*
%TO.C,H20*%
X87500000Y-135000000D02*
G75*
G02*
X80500000Y-135000000I-3500000J0D01*
G01*
X80500000Y-135000000D02*
G75*
G02*
X87500000Y-135000000I3500000J0D01*
G01*
%TO.C,H19*%
X69500000Y-109000000D02*
G75*
G02*
X62500000Y-109000000I-3500000J0D01*
G01*
X62500000Y-109000000D02*
G75*
G02*
X69500000Y-109000000I3500000J0D01*
G01*
%TO.C,H7*%
X96400000Y-192250000D02*
G75*
G02*
X86600000Y-192250000I-4900000J0D01*
G01*
X86600000Y-192250000D02*
G75*
G02*
X96400000Y-192250000I4900000J0D01*
G01*
%TO.C,H5*%
X63400000Y-192250000D02*
G75*
G02*
X53600000Y-192250000I-4900000J0D01*
G01*
X53600000Y-192250000D02*
G75*
G02*
X63400000Y-192250000I4900000J0D01*
G01*
%TO.C,H13*%
X63400000Y-159250000D02*
G75*
G02*
X53600000Y-159250000I-4900000J0D01*
G01*
X53600000Y-159250000D02*
G75*
G02*
X63400000Y-159250000I4900000J0D01*
G01*
%TO.C,H9*%
X79900000Y-208750000D02*
G75*
G02*
X70100000Y-208750000I-4900000J0D01*
G01*
X70100000Y-208750000D02*
G75*
G02*
X79900000Y-208750000I4900000J0D01*
G01*
%TO.C,H10*%
X96400000Y-208750000D02*
G75*
G02*
X86600000Y-208750000I-4900000J0D01*
G01*
X86600000Y-208750000D02*
G75*
G02*
X96400000Y-208750000I4900000J0D01*
G01*
%TO.C,H14*%
X79900000Y-159250000D02*
G75*
G02*
X70100000Y-159250000I-4900000J0D01*
G01*
X70100000Y-159250000D02*
G75*
G02*
X79900000Y-159250000I4900000J0D01*
G01*
%TO.C,H16*%
X79900000Y-175750000D02*
G75*
G02*
X70100000Y-175750000I-4900000J0D01*
G01*
X70100000Y-175750000D02*
G75*
G02*
X79900000Y-175750000I4900000J0D01*
G01*
%TO.C,H6*%
X79900000Y-192250000D02*
G75*
G02*
X70100000Y-192250000I-4900000J0D01*
G01*
X70100000Y-192250000D02*
G75*
G02*
X79900000Y-192250000I4900000J0D01*
G01*
%TO.C,H17*%
X78500000Y-61000000D02*
G75*
G02*
X71500000Y-61000000I-3500000J0D01*
G01*
X71500000Y-61000000D02*
G75*
G02*
X78500000Y-61000000I3500000J0D01*
G01*
%TO.C,H8*%
X63400000Y-208750000D02*
G75*
G02*
X53600000Y-208750000I-4900000J0D01*
G01*
X53600000Y-208750000D02*
G75*
G02*
X63400000Y-208750000I4900000J0D01*
G01*
%TO.C,H15*%
X63400000Y-175750000D02*
G75*
G02*
X53600000Y-175750000I-4900000J0D01*
G01*
X53600000Y-175750000D02*
G75*
G02*
X63400000Y-175750000I4900000J0D01*
G01*
%TD*%
M02*
