%TF.GenerationSoftware,KiCad,Pcbnew,10.0.1*%
%TF.CreationDate,2026-06-25T20:44:09+02:00*%
%TF.ProjectId,DMH_Slew_Mk2_PANEL,444d485f-536c-4657-975f-4d6b325f5041,rev?*%
%TF.SameCoordinates,Original*%
%TF.FileFunction,Legend,Bot*%
%TF.FilePolarity,Positive*%
%FSLAX46Y46*%
G04 Gerber Fmt 4.6, Leading zero omitted, Abs format (unit mm)*
G04 Created by KiCad (PCBNEW 10.0.1) date 2026-06-25 20:44:09*
%MOMM*%
%LPD*%
G01*
G04 APERTURE LIST*
%ADD10C,0.100000*%
%ADD11C,0.300000*%
%ADD12C,3.100000*%
%ADD13C,12.000000*%
%ADD14O,2.500000X1.500000*%
%ADD15C,4.000000*%
%ADD16C,2.900000*%
%ADD17C,13.000000*%
%ADD18C,0.500000*%
G04 APERTURE END LIST*
D10*
X70000000Y-225450000D02*
X80000000Y-225450000D01*
X80000000Y-227450000D01*
X70000000Y-227450000D01*
X70000000Y-225450000D01*
G36*
X70000000Y-225450000D02*
G01*
X80000000Y-225450000D01*
X80000000Y-227450000D01*
X70000000Y-227450000D01*
X70000000Y-225450000D01*
G37*
D11*
X85928570Y-223628328D02*
X85928570Y-222128328D01*
X85928570Y-222128328D02*
X85428570Y-223199757D01*
X85428570Y-223199757D02*
X84928570Y-222128328D01*
X84928570Y-222128328D02*
X84928570Y-223628328D01*
X84214284Y-223628328D02*
X84214284Y-222128328D01*
X84071427Y-223056900D02*
X83642855Y-223628328D01*
X83642855Y-222628328D02*
X84214284Y-223199757D01*
X83071426Y-222271185D02*
X82999998Y-222199757D01*
X82999998Y-222199757D02*
X82857141Y-222128328D01*
X82857141Y-222128328D02*
X82499998Y-222128328D01*
X82499998Y-222128328D02*
X82357141Y-222199757D01*
X82357141Y-222199757D02*
X82285712Y-222271185D01*
X82285712Y-222271185D02*
X82214283Y-222414042D01*
X82214283Y-222414042D02*
X82214283Y-222556900D01*
X82214283Y-222556900D02*
X82285712Y-222771185D01*
X82285712Y-222771185D02*
X83142855Y-223628328D01*
X83142855Y-223628328D02*
X82214283Y-223628328D01*
X81571427Y-223485471D02*
X81499998Y-223556900D01*
X81499998Y-223556900D02*
X81571427Y-223628328D01*
X81571427Y-223628328D02*
X81642855Y-223556900D01*
X81642855Y-223556900D02*
X81571427Y-223485471D01*
X81571427Y-223485471D02*
X81571427Y-223628328D01*
X80571426Y-222128328D02*
X80428569Y-222128328D01*
X80428569Y-222128328D02*
X80285712Y-222199757D01*
X80285712Y-222199757D02*
X80214284Y-222271185D01*
X80214284Y-222271185D02*
X80142855Y-222414042D01*
X80142855Y-222414042D02*
X80071426Y-222699757D01*
X80071426Y-222699757D02*
X80071426Y-223056900D01*
X80071426Y-223056900D02*
X80142855Y-223342614D01*
X80142855Y-223342614D02*
X80214284Y-223485471D01*
X80214284Y-223485471D02*
X80285712Y-223556900D01*
X80285712Y-223556900D02*
X80428569Y-223628328D01*
X80428569Y-223628328D02*
X80571426Y-223628328D01*
X80571426Y-223628328D02*
X80714284Y-223556900D01*
X80714284Y-223556900D02*
X80785712Y-223485471D01*
X80785712Y-223485471D02*
X80857141Y-223342614D01*
X80857141Y-223342614D02*
X80928569Y-223056900D01*
X80928569Y-223056900D02*
X80928569Y-222699757D01*
X80928569Y-222699757D02*
X80857141Y-222414042D01*
X80857141Y-222414042D02*
X80785712Y-222271185D01*
X80785712Y-222271185D02*
X80714284Y-222199757D01*
X80714284Y-222199757D02*
X80571426Y-222128328D01*
X78285713Y-223056900D02*
X77142856Y-223056900D01*
X75357141Y-223199757D02*
X74642856Y-223199757D01*
X75499998Y-223628328D02*
X74999998Y-222128328D01*
X74999998Y-222128328D02*
X74499998Y-223628328D01*
X73999999Y-222628328D02*
X73999999Y-224128328D01*
X73999999Y-222699757D02*
X73857142Y-222628328D01*
X73857142Y-222628328D02*
X73571427Y-222628328D01*
X73571427Y-222628328D02*
X73428570Y-222699757D01*
X73428570Y-222699757D02*
X73357142Y-222771185D01*
X73357142Y-222771185D02*
X73285713Y-222914042D01*
X73285713Y-222914042D02*
X73285713Y-223342614D01*
X73285713Y-223342614D02*
X73357142Y-223485471D01*
X73357142Y-223485471D02*
X73428570Y-223556900D01*
X73428570Y-223556900D02*
X73571427Y-223628328D01*
X73571427Y-223628328D02*
X73857142Y-223628328D01*
X73857142Y-223628328D02*
X73999999Y-223556900D01*
X72642856Y-223628328D02*
X72642856Y-222628328D01*
X72642856Y-222914042D02*
X72571427Y-222771185D01*
X72571427Y-222771185D02*
X72499999Y-222699757D01*
X72499999Y-222699757D02*
X72357141Y-222628328D01*
X72357141Y-222628328D02*
X72214284Y-222628328D01*
X71714285Y-223628328D02*
X71714285Y-222628328D01*
X71714285Y-222128328D02*
X71785713Y-222199757D01*
X71785713Y-222199757D02*
X71714285Y-222271185D01*
X71714285Y-222271185D02*
X71642856Y-222199757D01*
X71642856Y-222199757D02*
X71714285Y-222128328D01*
X71714285Y-222128328D02*
X71714285Y-222271185D01*
X70785713Y-223628328D02*
X70928570Y-223556900D01*
X70928570Y-223556900D02*
X70999999Y-223414042D01*
X70999999Y-223414042D02*
X70999999Y-222128328D01*
X69142856Y-222271185D02*
X69071428Y-222199757D01*
X69071428Y-222199757D02*
X68928571Y-222128328D01*
X68928571Y-222128328D02*
X68571428Y-222128328D01*
X68571428Y-222128328D02*
X68428571Y-222199757D01*
X68428571Y-222199757D02*
X68357142Y-222271185D01*
X68357142Y-222271185D02*
X68285713Y-222414042D01*
X68285713Y-222414042D02*
X68285713Y-222556900D01*
X68285713Y-222556900D02*
X68357142Y-222771185D01*
X68357142Y-222771185D02*
X69214285Y-223628328D01*
X69214285Y-223628328D02*
X68285713Y-223628328D01*
X67357142Y-222128328D02*
X67214285Y-222128328D01*
X67214285Y-222128328D02*
X67071428Y-222199757D01*
X67071428Y-222199757D02*
X67000000Y-222271185D01*
X67000000Y-222271185D02*
X66928571Y-222414042D01*
X66928571Y-222414042D02*
X66857142Y-222699757D01*
X66857142Y-222699757D02*
X66857142Y-223056900D01*
X66857142Y-223056900D02*
X66928571Y-223342614D01*
X66928571Y-223342614D02*
X67000000Y-223485471D01*
X67000000Y-223485471D02*
X67071428Y-223556900D01*
X67071428Y-223556900D02*
X67214285Y-223628328D01*
X67214285Y-223628328D02*
X67357142Y-223628328D01*
X67357142Y-223628328D02*
X67500000Y-223556900D01*
X67500000Y-223556900D02*
X67571428Y-223485471D01*
X67571428Y-223485471D02*
X67642857Y-223342614D01*
X67642857Y-223342614D02*
X67714285Y-223056900D01*
X67714285Y-223056900D02*
X67714285Y-222699757D01*
X67714285Y-222699757D02*
X67642857Y-222414042D01*
X67642857Y-222414042D02*
X67571428Y-222271185D01*
X67571428Y-222271185D02*
X67500000Y-222199757D01*
X67500000Y-222199757D02*
X67357142Y-222128328D01*
X66285714Y-222271185D02*
X66214286Y-222199757D01*
X66214286Y-222199757D02*
X66071429Y-222128328D01*
X66071429Y-222128328D02*
X65714286Y-222128328D01*
X65714286Y-222128328D02*
X65571429Y-222199757D01*
X65571429Y-222199757D02*
X65500000Y-222271185D01*
X65500000Y-222271185D02*
X65428571Y-222414042D01*
X65428571Y-222414042D02*
X65428571Y-222556900D01*
X65428571Y-222556900D02*
X65500000Y-222771185D01*
X65500000Y-222771185D02*
X66357143Y-223628328D01*
X66357143Y-223628328D02*
X65428571Y-223628328D01*
X64142858Y-222128328D02*
X64428572Y-222128328D01*
X64428572Y-222128328D02*
X64571429Y-222199757D01*
X64571429Y-222199757D02*
X64642858Y-222271185D01*
X64642858Y-222271185D02*
X64785715Y-222485471D01*
X64785715Y-222485471D02*
X64857143Y-222771185D01*
X64857143Y-222771185D02*
X64857143Y-223342614D01*
X64857143Y-223342614D02*
X64785715Y-223485471D01*
X64785715Y-223485471D02*
X64714286Y-223556900D01*
X64714286Y-223556900D02*
X64571429Y-223628328D01*
X64571429Y-223628328D02*
X64285715Y-223628328D01*
X64285715Y-223628328D02*
X64142858Y-223556900D01*
X64142858Y-223556900D02*
X64071429Y-223485471D01*
X64071429Y-223485471D02*
X64000000Y-223342614D01*
X64000000Y-223342614D02*
X64000000Y-222985471D01*
X64000000Y-222985471D02*
X64071429Y-222842614D01*
X64071429Y-222842614D02*
X64142858Y-222771185D01*
X64142858Y-222771185D02*
X64285715Y-222699757D01*
X64285715Y-222699757D02*
X64571429Y-222699757D01*
X64571429Y-222699757D02*
X64714286Y-222771185D01*
X64714286Y-222771185D02*
X64785715Y-222842614D01*
X64785715Y-222842614D02*
X64857143Y-222985471D01*
%LPC*%
D12*
%TO.C,H30*%
X69000000Y-135000000D03*
%TD*%
D13*
%TO.C,H20*%
X84000000Y-135000000D03*
D14*
X84000000Y-141000000D03*
%TD*%
D12*
%TO.C,H29*%
X71000000Y-86000000D03*
%TD*%
D15*
%TO.C,H3*%
X53500000Y-226500000D03*
%TD*%
D16*
%TO.C,H26*%
X58500000Y-77150000D03*
D17*
X58500000Y-83250000D03*
%TD*%
D12*
%TO.C,H27*%
X79000000Y-86000000D03*
%TD*%
D13*
%TO.C,H19*%
X66000000Y-109000000D03*
D14*
X66000000Y-115000000D03*
%TD*%
D16*
%TO.C,H25*%
X58500000Y-128900000D03*
D17*
X58500000Y-135000000D03*
%TD*%
D18*
%TO.C,H7*%
X85800000Y-192250000D03*
X87460000Y-188220000D03*
X87470000Y-196290000D03*
X91500000Y-186550000D03*
D13*
X91500000Y-192250000D03*
D18*
X91500000Y-197950000D03*
X95530000Y-196290000D03*
X95540000Y-188220000D03*
X97200000Y-192250000D03*
%TD*%
D16*
%TO.C,H22*%
X91500000Y-102900000D03*
D17*
X91500000Y-109000000D03*
%TD*%
D18*
%TO.C,H5*%
X52800000Y-192250000D03*
X54460000Y-188220000D03*
X54470000Y-196290000D03*
X58500000Y-186550000D03*
D13*
X58500000Y-192250000D03*
D18*
X58500000Y-197950000D03*
X62530000Y-196290000D03*
X62540000Y-188220000D03*
X64200000Y-192250000D03*
%TD*%
%TO.C,H13*%
X52800000Y-159250000D03*
X54460000Y-155220000D03*
X54470000Y-163290000D03*
X58500000Y-153550000D03*
D13*
X58500000Y-159250000D03*
D18*
X58500000Y-164950000D03*
X62530000Y-163290000D03*
X62540000Y-155220000D03*
X64200000Y-159250000D03*
%TD*%
%TO.C,H9*%
X69300000Y-208750000D03*
X70960000Y-204720000D03*
X70970000Y-212790000D03*
X75000000Y-203050000D03*
D13*
X75000000Y-208750000D03*
D18*
X75000000Y-214450000D03*
X79030000Y-212790000D03*
X79040000Y-204720000D03*
X80700000Y-208750000D03*
%TD*%
D16*
%TO.C,H21*%
X91500000Y-77150000D03*
D17*
X91500000Y-83250000D03*
%TD*%
D18*
%TO.C,H10*%
X85800000Y-208750000D03*
X87460000Y-204720000D03*
X87470000Y-212790000D03*
X91500000Y-203050000D03*
D13*
X91500000Y-208750000D03*
D18*
X91500000Y-214450000D03*
X95530000Y-212790000D03*
X95540000Y-204720000D03*
X97200000Y-208750000D03*
%TD*%
%TO.C,H14*%
X69300000Y-159250000D03*
X70960000Y-155220000D03*
X70970000Y-163290000D03*
X75000000Y-153550000D03*
D13*
X75000000Y-159250000D03*
D18*
X75000000Y-164950000D03*
X79030000Y-163290000D03*
X79040000Y-155220000D03*
X80700000Y-159250000D03*
%TD*%
D12*
%TO.C,H28*%
X81000000Y-109000000D03*
%TD*%
D18*
%TO.C,H16*%
X69300000Y-175750000D03*
X70960000Y-171720000D03*
X70970000Y-179790000D03*
X75000000Y-170050000D03*
D13*
X75000000Y-175750000D03*
D18*
X75000000Y-181450000D03*
X79030000Y-179790000D03*
X79040000Y-171720000D03*
X80700000Y-175750000D03*
%TD*%
%TO.C,H6*%
X69300000Y-192250000D03*
X70960000Y-188220000D03*
X70970000Y-196290000D03*
X75000000Y-186550000D03*
D13*
X75000000Y-192250000D03*
D18*
X75000000Y-197950000D03*
X79030000Y-196290000D03*
X79040000Y-188220000D03*
X80700000Y-192250000D03*
%TD*%
D15*
%TO.C,H2*%
X96500000Y-33500000D03*
%TD*%
%TO.C,H4*%
X96500000Y-226500000D03*
%TD*%
D16*
%TO.C,H18*%
X91500000Y-169650000D03*
D17*
X91500000Y-175750000D03*
%TD*%
D15*
%TO.C,H1*%
X53500000Y-33500000D03*
%TD*%
D16*
%TO.C,H24*%
X91500000Y-153150000D03*
D17*
X91500000Y-159250000D03*
%TD*%
D13*
%TO.C,H17*%
X75000000Y-61000000D03*
D14*
X75000000Y-67000000D03*
%TD*%
D18*
%TO.C,H8*%
X52800000Y-208750000D03*
X54460000Y-204720000D03*
X54470000Y-212790000D03*
X58500000Y-203050000D03*
D13*
X58500000Y-208750000D03*
D18*
X58500000Y-214450000D03*
X62530000Y-212790000D03*
X62540000Y-204720000D03*
X64200000Y-208750000D03*
%TD*%
%TO.C,H15*%
X52800000Y-175750000D03*
X54460000Y-171720000D03*
X54470000Y-179790000D03*
X58500000Y-170050000D03*
D13*
X58500000Y-175750000D03*
D18*
X58500000Y-181450000D03*
X62530000Y-179790000D03*
X62540000Y-171720000D03*
X64200000Y-175750000D03*
%TD*%
%LPD*%
M02*
