%TF.GenerationSoftware,KiCad,Pcbnew,10.0.1*%
%TF.CreationDate,2026-07-10T21:02:36+02:00*%
%TF.ProjectId,DMH_Slew_Mk2_PCB_Main,444d485f-536c-4657-975f-4d6b325f5043,1*%
%TF.SameCoordinates,Original*%
%TF.FileFunction,Legend,Bot*%
%TF.FilePolarity,Positive*%
%FSLAX46Y46*%
G04 Gerber Fmt 4.6, Leading zero omitted, Abs format (unit mm)*
G04 Created by KiCad (PCBNEW 10.0.1) date 2026-07-10 21:02:36*
%MOMM*%
%LPD*%
G01*
G04 APERTURE LIST*
G04 Aperture macros list*
%AMRoundRect*
0 Rectangle with rounded corners*
0 $1 Rounding radius*
0 $2 $3 $4 $5 $6 $7 $8 $9 X,Y pos of 4 corners*
0 Add a 4 corners polygon primitive as box body*
4,1,4,$2,$3,$4,$5,$6,$7,$8,$9,$2,$3,0*
0 Add four circle primitives for the rounded corners*
1,1,$1+$1,$2,$3*
1,1,$1+$1,$4,$5*
1,1,$1+$1,$6,$7*
1,1,$1+$1,$8,$9*
0 Add four rect primitives between the rounded corners*
20,1,$1+$1,$2,$3,$4,$5,0*
20,1,$1+$1,$4,$5,$6,$7,0*
20,1,$1+$1,$6,$7,$8,$9,0*
20,1,$1+$1,$8,$9,$2,$3,0*%
%AMHorizOval*
0 Thick line with rounded ends*
0 $1 width*
0 $2 $3 position (X,Y) of the first rounded end (center of the circle)*
0 $4 $5 position (X,Y) of the second rounded end (center of the circle)*
0 Add line between two ends*
20,1,$1,$2,$3,$4,$5,0*
0 Add two circle primitives to create the rounded ends*
1,1,$1,$2,$3*
1,1,$1,$4,$5*%
G04 Aperture macros list end*
%ADD10C,0.300000*%
%ADD11C,0.100000*%
%ADD12C,0.150000*%
%ADD13C,0.250000*%
%ADD14C,0.120000*%
%ADD15C,0.000000*%
%ADD16C,1.700000*%
%ADD17R,1.700000X1.700000*%
%ADD18O,3.220000X1.712000*%
%ADD19O,1.712000X3.220000*%
%ADD20HorizOval,1.712000X-0.533159X-0.533159X0.533159X0.533159X0*%
%ADD21HorizOval,1.712000X0.533159X-0.533159X-0.533159X0.533159X0*%
%ADD22RoundRect,0.249999X-0.850001X-0.850001X0.850001X-0.850001X0.850001X0.850001X-0.850001X0.850001X0*%
%ADD23C,2.200000*%
%ADD24RoundRect,0.250000X0.600000X-0.600000X0.600000X0.600000X-0.600000X0.600000X-0.600000X-0.600000X0*%
%ADD25R,1.050000X1.500000*%
%ADD26O,1.050000X1.500000*%
%ADD27RoundRect,0.250000X-0.600000X-0.600000X0.600000X-0.600000X0.600000X0.600000X-0.600000X0.600000X0*%
%ADD28C,1.600000*%
%ADD29RoundRect,0.250000X0.550000X0.550000X-0.550000X0.550000X-0.550000X-0.550000X0.550000X-0.550000X0*%
G04 APERTURE END LIST*
D10*
X91900000Y-159950000D02*
G75*
G02*
X91600000Y-159950000I-150000J0D01*
G01*
X91600000Y-159950000D02*
G75*
G02*
X91900000Y-159950000I150000J0D01*
G01*
D11*
X91050000Y-160600000D02*
X91750000Y-161300000D01*
X91750000Y-161300000D02*
X92450000Y-160600000D01*
X91750000Y-159250000D02*
X91750000Y-161300000D01*
D12*
X88035714Y-147626037D02*
X87892857Y-147673656D01*
X87892857Y-147673656D02*
X87845238Y-147721275D01*
X87845238Y-147721275D02*
X87797619Y-147816513D01*
X87797619Y-147816513D02*
X87797619Y-147959370D01*
X87797619Y-147959370D02*
X87845238Y-148054608D01*
X87845238Y-148054608D02*
X87892857Y-148102228D01*
X87892857Y-148102228D02*
X87988095Y-148149847D01*
X87988095Y-148149847D02*
X88369047Y-148149847D01*
X88369047Y-148149847D02*
X88369047Y-147149847D01*
X88369047Y-147149847D02*
X88035714Y-147149847D01*
X88035714Y-147149847D02*
X87940476Y-147197466D01*
X87940476Y-147197466D02*
X87892857Y-147245085D01*
X87892857Y-147245085D02*
X87845238Y-147340323D01*
X87845238Y-147340323D02*
X87845238Y-147435561D01*
X87845238Y-147435561D02*
X87892857Y-147530799D01*
X87892857Y-147530799D02*
X87940476Y-147578418D01*
X87940476Y-147578418D02*
X88035714Y-147626037D01*
X88035714Y-147626037D02*
X88369047Y-147626037D01*
X86940476Y-147483180D02*
X86940476Y-148149847D01*
X87369047Y-147483180D02*
X87369047Y-148006989D01*
X87369047Y-148006989D02*
X87321428Y-148102228D01*
X87321428Y-148102228D02*
X87226190Y-148149847D01*
X87226190Y-148149847D02*
X87083333Y-148149847D01*
X87083333Y-148149847D02*
X86988095Y-148102228D01*
X86988095Y-148102228D02*
X86940476Y-148054608D01*
X86511904Y-148102228D02*
X86416666Y-148149847D01*
X86416666Y-148149847D02*
X86226190Y-148149847D01*
X86226190Y-148149847D02*
X86130952Y-148102228D01*
X86130952Y-148102228D02*
X86083333Y-148006989D01*
X86083333Y-148006989D02*
X86083333Y-147959370D01*
X86083333Y-147959370D02*
X86130952Y-147864132D01*
X86130952Y-147864132D02*
X86226190Y-147816513D01*
X86226190Y-147816513D02*
X86369047Y-147816513D01*
X86369047Y-147816513D02*
X86464285Y-147768894D01*
X86464285Y-147768894D02*
X86511904Y-147673656D01*
X86511904Y-147673656D02*
X86511904Y-147626037D01*
X86511904Y-147626037D02*
X86464285Y-147530799D01*
X86464285Y-147530799D02*
X86369047Y-147483180D01*
X86369047Y-147483180D02*
X86226190Y-147483180D01*
X86226190Y-147483180D02*
X86130952Y-147530799D01*
X87369047Y-149664552D02*
X87416666Y-149712172D01*
X87416666Y-149712172D02*
X87559523Y-149759791D01*
X87559523Y-149759791D02*
X87654761Y-149759791D01*
X87654761Y-149759791D02*
X87797618Y-149712172D01*
X87797618Y-149712172D02*
X87892856Y-149616933D01*
X87892856Y-149616933D02*
X87940475Y-149521695D01*
X87940475Y-149521695D02*
X87988094Y-149331219D01*
X87988094Y-149331219D02*
X87988094Y-149188362D01*
X87988094Y-149188362D02*
X87940475Y-148997886D01*
X87940475Y-148997886D02*
X87892856Y-148902648D01*
X87892856Y-148902648D02*
X87797618Y-148807410D01*
X87797618Y-148807410D02*
X87654761Y-148759791D01*
X87654761Y-148759791D02*
X87559523Y-148759791D01*
X87559523Y-148759791D02*
X87416666Y-148807410D01*
X87416666Y-148807410D02*
X87369047Y-148855029D01*
X87083332Y-148759791D02*
X86749999Y-149759791D01*
X86749999Y-149759791D02*
X86416666Y-148759791D01*
X92392857Y-148954819D02*
X92869047Y-148954819D01*
X92869047Y-148954819D02*
X92869047Y-147954819D01*
X91726190Y-148431009D02*
X92059523Y-148431009D01*
X92059523Y-148954819D02*
X92059523Y-147954819D01*
X92059523Y-147954819D02*
X91583333Y-147954819D01*
X91011904Y-147954819D02*
X90821428Y-147954819D01*
X90821428Y-147954819D02*
X90726190Y-148002438D01*
X90726190Y-148002438D02*
X90630952Y-148097676D01*
X90630952Y-148097676D02*
X90583333Y-148288152D01*
X90583333Y-148288152D02*
X90583333Y-148621485D01*
X90583333Y-148621485D02*
X90630952Y-148811961D01*
X90630952Y-148811961D02*
X90726190Y-148907200D01*
X90726190Y-148907200D02*
X90821428Y-148954819D01*
X90821428Y-148954819D02*
X91011904Y-148954819D01*
X91011904Y-148954819D02*
X91107142Y-148907200D01*
X91107142Y-148907200D02*
X91202380Y-148811961D01*
X91202380Y-148811961D02*
X91249999Y-148621485D01*
X91249999Y-148621485D02*
X91249999Y-148288152D01*
X91249999Y-148288152D02*
X91202380Y-148097676D01*
X91202380Y-148097676D02*
X91107142Y-148002438D01*
X91107142Y-148002438D02*
X91011904Y-147954819D01*
X96992857Y-148954819D02*
X97469047Y-148954819D01*
X97469047Y-148954819D02*
X97469047Y-147954819D01*
X96326190Y-148431009D02*
X96659523Y-148431009D01*
X96659523Y-148954819D02*
X96659523Y-147954819D01*
X96659523Y-147954819D02*
X96183333Y-147954819D01*
X95611904Y-147954819D02*
X95421428Y-147954819D01*
X95421428Y-147954819D02*
X95326190Y-148002438D01*
X95326190Y-148002438D02*
X95230952Y-148097676D01*
X95230952Y-148097676D02*
X95183333Y-148288152D01*
X95183333Y-148288152D02*
X95183333Y-148621485D01*
X95183333Y-148621485D02*
X95230952Y-148811961D01*
X95230952Y-148811961D02*
X95326190Y-148907200D01*
X95326190Y-148907200D02*
X95421428Y-148954819D01*
X95421428Y-148954819D02*
X95611904Y-148954819D01*
X95611904Y-148954819D02*
X95707142Y-148907200D01*
X95707142Y-148907200D02*
X95802380Y-148811961D01*
X95802380Y-148811961D02*
X95849999Y-148621485D01*
X95849999Y-148621485D02*
X95849999Y-148288152D01*
X95849999Y-148288152D02*
X95802380Y-148097676D01*
X95802380Y-148097676D02*
X95707142Y-148002438D01*
X95707142Y-148002438D02*
X95611904Y-147954819D01*
D11*
X96350000Y-159950000D02*
X96350000Y-158550000D01*
X87150000Y-159950000D02*
X87150000Y-158550000D01*
X91750000Y-158550000D02*
X91750000Y-159250000D01*
X96350000Y-159950000D02*
X87150000Y-159950000D01*
X52800000Y-137500000D02*
X54800000Y-137500000D01*
X54800000Y-147500000D01*
X52800000Y-147500000D01*
X52800000Y-137500000D01*
G36*
X52800000Y-137500000D02*
G01*
X54800000Y-137500000D01*
X54800000Y-147500000D01*
X52800000Y-147500000D01*
X52800000Y-137500000D01*
G37*
D13*
X51350380Y-149321428D02*
X52350380Y-149321428D01*
X52350380Y-149321428D02*
X51636095Y-148988095D01*
X51636095Y-148988095D02*
X52350380Y-148654762D01*
X52350380Y-148654762D02*
X51350380Y-148654762D01*
X51350380Y-148178571D02*
X52350380Y-148178571D01*
X51731333Y-148083333D02*
X51350380Y-147797619D01*
X52017047Y-147797619D02*
X51636095Y-148178571D01*
X52255142Y-147416666D02*
X52302761Y-147369047D01*
X52302761Y-147369047D02*
X52350380Y-147273809D01*
X52350380Y-147273809D02*
X52350380Y-147035714D01*
X52350380Y-147035714D02*
X52302761Y-146940476D01*
X52302761Y-146940476D02*
X52255142Y-146892857D01*
X52255142Y-146892857D02*
X52159904Y-146845238D01*
X52159904Y-146845238D02*
X52064666Y-146845238D01*
X52064666Y-146845238D02*
X51921809Y-146892857D01*
X51921809Y-146892857D02*
X51350380Y-147464285D01*
X51350380Y-147464285D02*
X51350380Y-146845238D01*
X51445619Y-146416666D02*
X51398000Y-146369047D01*
X51398000Y-146369047D02*
X51350380Y-146416666D01*
X51350380Y-146416666D02*
X51398000Y-146464285D01*
X51398000Y-146464285D02*
X51445619Y-146416666D01*
X51445619Y-146416666D02*
X51350380Y-146416666D01*
X51350380Y-145416667D02*
X51350380Y-145988095D01*
X51350380Y-145702381D02*
X52350380Y-145702381D01*
X52350380Y-145702381D02*
X52207523Y-145797619D01*
X52207523Y-145797619D02*
X52112285Y-145892857D01*
X52112285Y-145892857D02*
X52064666Y-145988095D01*
X51731333Y-144226190D02*
X51731333Y-143464286D01*
X52350380Y-141940476D02*
X51636095Y-141940476D01*
X51636095Y-141940476D02*
X51493238Y-141988095D01*
X51493238Y-141988095D02*
X51398000Y-142083333D01*
X51398000Y-142083333D02*
X51350380Y-142226190D01*
X51350380Y-142226190D02*
X51350380Y-142321428D01*
X52017047Y-141035714D02*
X51350380Y-141035714D01*
X52017047Y-141464285D02*
X51493238Y-141464285D01*
X51493238Y-141464285D02*
X51398000Y-141416666D01*
X51398000Y-141416666D02*
X51350380Y-141321428D01*
X51350380Y-141321428D02*
X51350380Y-141178571D01*
X51350380Y-141178571D02*
X51398000Y-141083333D01*
X51398000Y-141083333D02*
X51445619Y-141035714D01*
X51350380Y-140416666D02*
X51398000Y-140511904D01*
X51398000Y-140511904D02*
X51493238Y-140559523D01*
X51493238Y-140559523D02*
X52350380Y-140559523D01*
X52017047Y-140130951D02*
X51350380Y-139892856D01*
X52017047Y-139654761D02*
X51350380Y-139892856D01*
X51350380Y-139892856D02*
X51112285Y-139988094D01*
X51112285Y-139988094D02*
X51064666Y-140035713D01*
X51064666Y-140035713D02*
X51017047Y-140130951D01*
X52255142Y-138559522D02*
X52302761Y-138511903D01*
X52302761Y-138511903D02*
X52350380Y-138416665D01*
X52350380Y-138416665D02*
X52350380Y-138178570D01*
X52350380Y-138178570D02*
X52302761Y-138083332D01*
X52302761Y-138083332D02*
X52255142Y-138035713D01*
X52255142Y-138035713D02*
X52159904Y-137988094D01*
X52159904Y-137988094D02*
X52064666Y-137988094D01*
X52064666Y-137988094D02*
X51921809Y-138035713D01*
X51921809Y-138035713D02*
X51350380Y-138607141D01*
X51350380Y-138607141D02*
X51350380Y-137988094D01*
X52350380Y-137369046D02*
X52350380Y-137273808D01*
X52350380Y-137273808D02*
X52302761Y-137178570D01*
X52302761Y-137178570D02*
X52255142Y-137130951D01*
X52255142Y-137130951D02*
X52159904Y-137083332D01*
X52159904Y-137083332D02*
X51969428Y-137035713D01*
X51969428Y-137035713D02*
X51731333Y-137035713D01*
X51731333Y-137035713D02*
X51540857Y-137083332D01*
X51540857Y-137083332D02*
X51445619Y-137130951D01*
X51445619Y-137130951D02*
X51398000Y-137178570D01*
X51398000Y-137178570D02*
X51350380Y-137273808D01*
X51350380Y-137273808D02*
X51350380Y-137369046D01*
X51350380Y-137369046D02*
X51398000Y-137464284D01*
X51398000Y-137464284D02*
X51445619Y-137511903D01*
X51445619Y-137511903D02*
X51540857Y-137559522D01*
X51540857Y-137559522D02*
X51731333Y-137607141D01*
X51731333Y-137607141D02*
X51969428Y-137607141D01*
X51969428Y-137607141D02*
X52159904Y-137559522D01*
X52159904Y-137559522D02*
X52255142Y-137511903D01*
X52255142Y-137511903D02*
X52302761Y-137464284D01*
X52302761Y-137464284D02*
X52350380Y-137369046D01*
X52255142Y-136654760D02*
X52302761Y-136607141D01*
X52302761Y-136607141D02*
X52350380Y-136511903D01*
X52350380Y-136511903D02*
X52350380Y-136273808D01*
X52350380Y-136273808D02*
X52302761Y-136178570D01*
X52302761Y-136178570D02*
X52255142Y-136130951D01*
X52255142Y-136130951D02*
X52159904Y-136083332D01*
X52159904Y-136083332D02*
X52064666Y-136083332D01*
X52064666Y-136083332D02*
X51921809Y-136130951D01*
X51921809Y-136130951D02*
X51350380Y-136702379D01*
X51350380Y-136702379D02*
X51350380Y-136083332D01*
X52350380Y-135226189D02*
X52350380Y-135416665D01*
X52350380Y-135416665D02*
X52302761Y-135511903D01*
X52302761Y-135511903D02*
X52255142Y-135559522D01*
X52255142Y-135559522D02*
X52112285Y-135654760D01*
X52112285Y-135654760D02*
X51921809Y-135702379D01*
X51921809Y-135702379D02*
X51540857Y-135702379D01*
X51540857Y-135702379D02*
X51445619Y-135654760D01*
X51445619Y-135654760D02*
X51398000Y-135607141D01*
X51398000Y-135607141D02*
X51350380Y-135511903D01*
X51350380Y-135511903D02*
X51350380Y-135321427D01*
X51350380Y-135321427D02*
X51398000Y-135226189D01*
X51398000Y-135226189D02*
X51445619Y-135178570D01*
X51445619Y-135178570D02*
X51540857Y-135130951D01*
X51540857Y-135130951D02*
X51778952Y-135130951D01*
X51778952Y-135130951D02*
X51874190Y-135178570D01*
X51874190Y-135178570D02*
X51921809Y-135226189D01*
X51921809Y-135226189D02*
X51969428Y-135321427D01*
X51969428Y-135321427D02*
X51969428Y-135511903D01*
X51969428Y-135511903D02*
X51921809Y-135607141D01*
X51921809Y-135607141D02*
X51874190Y-135654760D01*
X51874190Y-135654760D02*
X51778952Y-135702379D01*
D10*
X94157142Y-144278328D02*
X94157142Y-145349757D01*
X94157142Y-145349757D02*
X94228571Y-145564042D01*
X94228571Y-145564042D02*
X94371428Y-145706900D01*
X94371428Y-145706900D02*
X94585714Y-145778328D01*
X94585714Y-145778328D02*
X94728571Y-145778328D01*
X92800000Y-144778328D02*
X92800000Y-145778328D01*
X93442857Y-144778328D02*
X93442857Y-145564042D01*
X93442857Y-145564042D02*
X93371428Y-145706900D01*
X93371428Y-145706900D02*
X93228571Y-145778328D01*
X93228571Y-145778328D02*
X93014285Y-145778328D01*
X93014285Y-145778328D02*
X92871428Y-145706900D01*
X92871428Y-145706900D02*
X92800000Y-145635471D01*
X92085714Y-145778328D02*
X92085714Y-144778328D01*
X92085714Y-144921185D02*
X92014285Y-144849757D01*
X92014285Y-144849757D02*
X91871428Y-144778328D01*
X91871428Y-144778328D02*
X91657142Y-144778328D01*
X91657142Y-144778328D02*
X91514285Y-144849757D01*
X91514285Y-144849757D02*
X91442857Y-144992614D01*
X91442857Y-144992614D02*
X91442857Y-145778328D01*
X91442857Y-144992614D02*
X91371428Y-144849757D01*
X91371428Y-144849757D02*
X91228571Y-144778328D01*
X91228571Y-144778328D02*
X91014285Y-144778328D01*
X91014285Y-144778328D02*
X90871428Y-144849757D01*
X90871428Y-144849757D02*
X90799999Y-144992614D01*
X90799999Y-144992614D02*
X90799999Y-145778328D01*
X90085714Y-144778328D02*
X90085714Y-146278328D01*
X90085714Y-144849757D02*
X89942857Y-144778328D01*
X89942857Y-144778328D02*
X89657142Y-144778328D01*
X89657142Y-144778328D02*
X89514285Y-144849757D01*
X89514285Y-144849757D02*
X89442857Y-144921185D01*
X89442857Y-144921185D02*
X89371428Y-145064042D01*
X89371428Y-145064042D02*
X89371428Y-145492614D01*
X89371428Y-145492614D02*
X89442857Y-145635471D01*
X89442857Y-145635471D02*
X89514285Y-145706900D01*
X89514285Y-145706900D02*
X89657142Y-145778328D01*
X89657142Y-145778328D02*
X89942857Y-145778328D01*
X89942857Y-145778328D02*
X90085714Y-145706900D01*
X88157142Y-145706900D02*
X88299999Y-145778328D01*
X88299999Y-145778328D02*
X88585714Y-145778328D01*
X88585714Y-145778328D02*
X88728571Y-145706900D01*
X88728571Y-145706900D02*
X88799999Y-145564042D01*
X88799999Y-145564042D02*
X88799999Y-144992614D01*
X88799999Y-144992614D02*
X88728571Y-144849757D01*
X88728571Y-144849757D02*
X88585714Y-144778328D01*
X88585714Y-144778328D02*
X88299999Y-144778328D01*
X88299999Y-144778328D02*
X88157142Y-144849757D01*
X88157142Y-144849757D02*
X88085714Y-144992614D01*
X88085714Y-144992614D02*
X88085714Y-145135471D01*
X88085714Y-145135471D02*
X88799999Y-145278328D01*
X87442857Y-145778328D02*
X87442857Y-144778328D01*
X87442857Y-145064042D02*
X87371428Y-144921185D01*
X87371428Y-144921185D02*
X87300000Y-144849757D01*
X87300000Y-144849757D02*
X87157142Y-144778328D01*
X87157142Y-144778328D02*
X87014285Y-144778328D01*
X86585714Y-145706900D02*
X86442857Y-145778328D01*
X86442857Y-145778328D02*
X86157143Y-145778328D01*
X86157143Y-145778328D02*
X86014286Y-145706900D01*
X86014286Y-145706900D02*
X85942857Y-145564042D01*
X85942857Y-145564042D02*
X85942857Y-145492614D01*
X85942857Y-145492614D02*
X86014286Y-145349757D01*
X86014286Y-145349757D02*
X86157143Y-145278328D01*
X86157143Y-145278328D02*
X86371429Y-145278328D01*
X86371429Y-145278328D02*
X86514286Y-145206900D01*
X86514286Y-145206900D02*
X86585714Y-145064042D01*
X86585714Y-145064042D02*
X86585714Y-144992614D01*
X86585714Y-144992614D02*
X86514286Y-144849757D01*
X86514286Y-144849757D02*
X86371429Y-144778328D01*
X86371429Y-144778328D02*
X86157143Y-144778328D01*
X86157143Y-144778328D02*
X86014286Y-144849757D01*
D12*
X98598990Y-156476190D02*
X98551371Y-156339285D01*
X98551371Y-156339285D02*
X98503752Y-156297619D01*
X98503752Y-156297619D02*
X98408514Y-156261904D01*
X98408514Y-156261904D02*
X98265657Y-156279762D01*
X98265657Y-156279762D02*
X98170419Y-156339285D01*
X98170419Y-156339285D02*
X98122800Y-156392857D01*
X98122800Y-156392857D02*
X98075180Y-156494047D01*
X98075180Y-156494047D02*
X98075180Y-156875000D01*
X98075180Y-156875000D02*
X99075180Y-156750000D01*
X99075180Y-156750000D02*
X99075180Y-156416666D01*
X99075180Y-156416666D02*
X99027561Y-156327381D01*
X99027561Y-156327381D02*
X98979942Y-156285714D01*
X98979942Y-156285714D02*
X98884704Y-156250000D01*
X98884704Y-156250000D02*
X98789466Y-156261904D01*
X98789466Y-156261904D02*
X98694228Y-156321428D01*
X98694228Y-156321428D02*
X98646609Y-156375000D01*
X98646609Y-156375000D02*
X98598990Y-156476190D01*
X98598990Y-156476190D02*
X98598990Y-156809523D01*
X98075180Y-155113095D02*
X99075180Y-154988095D01*
X98741847Y-154553571D02*
X98075180Y-154636905D01*
X98646609Y-154565476D02*
X98694228Y-154511905D01*
X98694228Y-154511905D02*
X98741847Y-154410714D01*
X98741847Y-154410714D02*
X98741847Y-154267857D01*
X98741847Y-154267857D02*
X98694228Y-154178571D01*
X98694228Y-154178571D02*
X98598990Y-154142857D01*
X98598990Y-154142857D02*
X98075180Y-154208333D01*
X99075180Y-152988095D02*
X99075180Y-152416666D01*
X98075180Y-152827381D02*
X99075180Y-152702381D01*
X98075180Y-152208333D02*
X99075180Y-152083333D01*
X99075180Y-152083333D02*
X98075180Y-151636904D01*
X98075180Y-151636904D02*
X99075180Y-151511904D01*
X89200895Y-157386904D02*
X89200895Y-156910714D01*
X88915180Y-157517857D02*
X89915180Y-157059523D01*
X89915180Y-157059523D02*
X88915180Y-156851190D01*
X89915180Y-155440475D02*
X89915180Y-155249999D01*
X89915180Y-155249999D02*
X89867561Y-155160714D01*
X89867561Y-155160714D02*
X89772323Y-155077380D01*
X89772323Y-155077380D02*
X89581847Y-155053571D01*
X89581847Y-155053571D02*
X89248514Y-155095237D01*
X89248514Y-155095237D02*
X89058038Y-155166666D01*
X89058038Y-155166666D02*
X88962800Y-155273809D01*
X88962800Y-155273809D02*
X88915180Y-155374999D01*
X88915180Y-155374999D02*
X88915180Y-155565475D01*
X88915180Y-155565475D02*
X88962800Y-155654761D01*
X88962800Y-155654761D02*
X89058038Y-155738095D01*
X89058038Y-155738095D02*
X89248514Y-155761904D01*
X89248514Y-155761904D02*
X89581847Y-155720237D01*
X89581847Y-155720237D02*
X89772323Y-155648809D01*
X89772323Y-155648809D02*
X89867561Y-155541666D01*
X89867561Y-155541666D02*
X89915180Y-155440475D01*
X89581847Y-154196428D02*
X88915180Y-154279761D01*
X89581847Y-154624999D02*
X89058038Y-154690476D01*
X89058038Y-154690476D02*
X88962800Y-154654761D01*
X88962800Y-154654761D02*
X88915180Y-154565476D01*
X88915180Y-154565476D02*
X88915180Y-154422618D01*
X88915180Y-154422618D02*
X88962800Y-154321428D01*
X88962800Y-154321428D02*
X89010419Y-154267856D01*
X89581847Y-153863094D02*
X89581847Y-153482142D01*
X89915180Y-153678571D02*
X89058038Y-153785714D01*
X89058038Y-153785714D02*
X88962800Y-153749999D01*
X88962800Y-153749999D02*
X88915180Y-153660714D01*
X88915180Y-153660714D02*
X88915180Y-153565475D01*
X89915180Y-152488094D02*
X89915180Y-151916665D01*
X88915180Y-152327380D02*
X89915180Y-152202380D01*
X88915180Y-151708332D02*
X89915180Y-151583332D01*
X89915180Y-151583332D02*
X88915180Y-151136903D01*
X88915180Y-151136903D02*
X89915180Y-151011903D01*
X93780895Y-156815475D02*
X93780895Y-156339285D01*
X93495180Y-156946428D02*
X94495180Y-156488094D01*
X94495180Y-156488094D02*
X93495180Y-156279761D01*
X93495180Y-155184523D02*
X94495180Y-155059523D01*
X94161847Y-154624999D02*
X93495180Y-154708333D01*
X94066609Y-154636904D02*
X94114228Y-154583333D01*
X94114228Y-154583333D02*
X94161847Y-154482142D01*
X94161847Y-154482142D02*
X94161847Y-154339285D01*
X94161847Y-154339285D02*
X94114228Y-154249999D01*
X94114228Y-154249999D02*
X94018990Y-154214285D01*
X94018990Y-154214285D02*
X93495180Y-154279761D01*
X94495180Y-153059523D02*
X94495180Y-152488094D01*
X93495180Y-152898809D02*
X94495180Y-152773809D01*
X93495180Y-152279761D02*
X94495180Y-152154761D01*
X94495180Y-152154761D02*
X93495180Y-151708332D01*
X93495180Y-151708332D02*
X94495180Y-151583332D01*
X77797619Y-175681009D02*
X78130952Y-175681009D01*
X78196429Y-176204819D02*
X78071429Y-175204819D01*
X78071429Y-175204819D02*
X77595238Y-175204819D01*
X76910714Y-176204819D02*
X76845238Y-175681009D01*
X76845238Y-175681009D02*
X76880952Y-175585771D01*
X76880952Y-175585771D02*
X76970238Y-175538152D01*
X76970238Y-175538152D02*
X77160714Y-175538152D01*
X77160714Y-175538152D02*
X77261905Y-175585771D01*
X76904762Y-176157200D02*
X77005952Y-176204819D01*
X77005952Y-176204819D02*
X77244048Y-176204819D01*
X77244048Y-176204819D02*
X77333333Y-176157200D01*
X77333333Y-176157200D02*
X77369048Y-176061961D01*
X77369048Y-176061961D02*
X77357143Y-175966723D01*
X77357143Y-175966723D02*
X77297619Y-175871485D01*
X77297619Y-175871485D02*
X77196429Y-175823866D01*
X77196429Y-175823866D02*
X76958333Y-175823866D01*
X76958333Y-175823866D02*
X76857143Y-175776247D01*
X76291667Y-176204819D02*
X76380952Y-176157200D01*
X76380952Y-176157200D02*
X76416667Y-176061961D01*
X76416667Y-176061961D02*
X76309524Y-175204819D01*
X75767857Y-176204819D02*
X75857142Y-176157200D01*
X75857142Y-176157200D02*
X75892857Y-176061961D01*
X75892857Y-176061961D02*
X75785714Y-175204819D01*
X75386904Y-176204819D02*
X75303570Y-175538152D01*
X75261904Y-175204819D02*
X75315475Y-175252438D01*
X75315475Y-175252438D02*
X75273808Y-175300057D01*
X75273808Y-175300057D02*
X75220237Y-175252438D01*
X75220237Y-175252438D02*
X75261904Y-175204819D01*
X75261904Y-175204819D02*
X75273808Y-175300057D01*
X74827380Y-175538152D02*
X74910714Y-176204819D01*
X74839285Y-175633390D02*
X74785714Y-175585771D01*
X74785714Y-175585771D02*
X74684523Y-175538152D01*
X74684523Y-175538152D02*
X74541666Y-175538152D01*
X74541666Y-175538152D02*
X74452380Y-175585771D01*
X74452380Y-175585771D02*
X74416666Y-175681009D01*
X74416666Y-175681009D02*
X74482142Y-176204819D01*
X73494047Y-175538152D02*
X73595237Y-176347676D01*
X73595237Y-176347676D02*
X73654761Y-176442914D01*
X73654761Y-176442914D02*
X73708333Y-176490533D01*
X73708333Y-176490533D02*
X73809523Y-176538152D01*
X73809523Y-176538152D02*
X73952380Y-176538152D01*
X73952380Y-176538152D02*
X74041666Y-176490533D01*
X73571428Y-176157200D02*
X73672618Y-176204819D01*
X73672618Y-176204819D02*
X73863095Y-176204819D01*
X73863095Y-176204819D02*
X73952380Y-176157200D01*
X73952380Y-176157200D02*
X73994047Y-176109580D01*
X73994047Y-176109580D02*
X74029761Y-176014342D01*
X74029761Y-176014342D02*
X73994047Y-175728628D01*
X73994047Y-175728628D02*
X73934523Y-175633390D01*
X73934523Y-175633390D02*
X73880952Y-175585771D01*
X73880952Y-175585771D02*
X73779761Y-175538152D01*
X73779761Y-175538152D02*
X73589285Y-175538152D01*
X73589285Y-175538152D02*
X73499999Y-175585771D01*
X71940475Y-175681009D02*
X71803570Y-175728628D01*
X71803570Y-175728628D02*
X71761904Y-175776247D01*
X71761904Y-175776247D02*
X71726189Y-175871485D01*
X71726189Y-175871485D02*
X71744047Y-176014342D01*
X71744047Y-176014342D02*
X71803570Y-176109580D01*
X71803570Y-176109580D02*
X71857142Y-176157200D01*
X71857142Y-176157200D02*
X71958332Y-176204819D01*
X71958332Y-176204819D02*
X72339285Y-176204819D01*
X72339285Y-176204819D02*
X72214285Y-175204819D01*
X72214285Y-175204819D02*
X71880951Y-175204819D01*
X71880951Y-175204819D02*
X71791666Y-175252438D01*
X71791666Y-175252438D02*
X71749999Y-175300057D01*
X71749999Y-175300057D02*
X71714285Y-175395295D01*
X71714285Y-175395295D02*
X71726189Y-175490533D01*
X71726189Y-175490533D02*
X71785713Y-175585771D01*
X71785713Y-175585771D02*
X71839285Y-175633390D01*
X71839285Y-175633390D02*
X71940475Y-175681009D01*
X71940475Y-175681009D02*
X72273808Y-175681009D01*
X58954819Y-173386905D02*
X58478628Y-173113095D01*
X58954819Y-172815476D02*
X57954819Y-172940476D01*
X57954819Y-172940476D02*
X57954819Y-173321429D01*
X57954819Y-173321429D02*
X58002438Y-173410714D01*
X58002438Y-173410714D02*
X58050057Y-173452381D01*
X58050057Y-173452381D02*
X58145295Y-173488095D01*
X58145295Y-173488095D02*
X58288152Y-173470238D01*
X58288152Y-173470238D02*
X58383390Y-173410714D01*
X58383390Y-173410714D02*
X58431009Y-173357143D01*
X58431009Y-173357143D02*
X58478628Y-173255953D01*
X58478628Y-173255953D02*
X58478628Y-172875000D01*
X58954819Y-173815476D02*
X58288152Y-173898810D01*
X57954819Y-173940476D02*
X58002438Y-173886905D01*
X58002438Y-173886905D02*
X58050057Y-173928572D01*
X58050057Y-173928572D02*
X58002438Y-173982143D01*
X58002438Y-173982143D02*
X57954819Y-173940476D01*
X57954819Y-173940476D02*
X58050057Y-173928572D01*
X58907200Y-174250000D02*
X58954819Y-174339285D01*
X58954819Y-174339285D02*
X58954819Y-174529762D01*
X58954819Y-174529762D02*
X58907200Y-174630952D01*
X58907200Y-174630952D02*
X58811961Y-174690476D01*
X58811961Y-174690476D02*
X58764342Y-174696428D01*
X58764342Y-174696428D02*
X58669104Y-174660714D01*
X58669104Y-174660714D02*
X58621485Y-174571428D01*
X58621485Y-174571428D02*
X58621485Y-174428571D01*
X58621485Y-174428571D02*
X58573866Y-174339285D01*
X58573866Y-174339285D02*
X58478628Y-174303571D01*
X58478628Y-174303571D02*
X58431009Y-174309524D01*
X58431009Y-174309524D02*
X58335771Y-174369047D01*
X58335771Y-174369047D02*
X58288152Y-174470238D01*
X58288152Y-174470238D02*
X58288152Y-174613095D01*
X58288152Y-174613095D02*
X58335771Y-174702381D01*
X58954819Y-175101190D02*
X58288152Y-175184524D01*
X57954819Y-175226190D02*
X58002438Y-175172619D01*
X58002438Y-175172619D02*
X58050057Y-175214286D01*
X58050057Y-175214286D02*
X58002438Y-175267857D01*
X58002438Y-175267857D02*
X57954819Y-175226190D01*
X57954819Y-175226190D02*
X58050057Y-175214286D01*
X58288152Y-175660714D02*
X58954819Y-175577380D01*
X58383390Y-175648809D02*
X58335771Y-175702380D01*
X58335771Y-175702380D02*
X58288152Y-175803571D01*
X58288152Y-175803571D02*
X58288152Y-175946428D01*
X58288152Y-175946428D02*
X58335771Y-176035714D01*
X58335771Y-176035714D02*
X58431009Y-176071428D01*
X58431009Y-176071428D02*
X58954819Y-176005952D01*
X58288152Y-176994047D02*
X59097676Y-176892857D01*
X59097676Y-176892857D02*
X59192914Y-176833333D01*
X59192914Y-176833333D02*
X59240533Y-176779761D01*
X59240533Y-176779761D02*
X59288152Y-176678571D01*
X59288152Y-176678571D02*
X59288152Y-176535714D01*
X59288152Y-176535714D02*
X59240533Y-176446428D01*
X58907200Y-176916666D02*
X58954819Y-176815476D01*
X58954819Y-176815476D02*
X58954819Y-176625000D01*
X58954819Y-176625000D02*
X58907200Y-176535714D01*
X58907200Y-176535714D02*
X58859580Y-176494047D01*
X58859580Y-176494047D02*
X58764342Y-176458333D01*
X58764342Y-176458333D02*
X58478628Y-176494047D01*
X58478628Y-176494047D02*
X58383390Y-176553571D01*
X58383390Y-176553571D02*
X58335771Y-176607142D01*
X58335771Y-176607142D02*
X58288152Y-176708333D01*
X58288152Y-176708333D02*
X58288152Y-176898809D01*
X58288152Y-176898809D02*
X58335771Y-176988095D01*
X58431009Y-178547619D02*
X58478628Y-178684524D01*
X58478628Y-178684524D02*
X58526247Y-178726190D01*
X58526247Y-178726190D02*
X58621485Y-178761905D01*
X58621485Y-178761905D02*
X58764342Y-178744047D01*
X58764342Y-178744047D02*
X58859580Y-178684524D01*
X58859580Y-178684524D02*
X58907200Y-178630952D01*
X58907200Y-178630952D02*
X58954819Y-178529762D01*
X58954819Y-178529762D02*
X58954819Y-178148809D01*
X58954819Y-178148809D02*
X57954819Y-178273809D01*
X57954819Y-178273809D02*
X57954819Y-178607143D01*
X57954819Y-178607143D02*
X58002438Y-178696428D01*
X58002438Y-178696428D02*
X58050057Y-178738095D01*
X58050057Y-178738095D02*
X58145295Y-178773809D01*
X58145295Y-178773809D02*
X58240533Y-178761905D01*
X58240533Y-178761905D02*
X58335771Y-178702381D01*
X58335771Y-178702381D02*
X58383390Y-178648809D01*
X58383390Y-178648809D02*
X58431009Y-178547619D01*
X58431009Y-178547619D02*
X58431009Y-178214286D01*
X94285714Y-208204819D02*
X94095238Y-208204819D01*
X94095238Y-208204819D02*
X94005953Y-208252438D01*
X94005953Y-208252438D02*
X93922619Y-208347676D01*
X93922619Y-208347676D02*
X93898810Y-208538152D01*
X93898810Y-208538152D02*
X93940476Y-208871485D01*
X93940476Y-208871485D02*
X94011905Y-209061961D01*
X94011905Y-209061961D02*
X94119048Y-209157200D01*
X94119048Y-209157200D02*
X94220238Y-209204819D01*
X94220238Y-209204819D02*
X94410714Y-209204819D01*
X94410714Y-209204819D02*
X94500000Y-209157200D01*
X94500000Y-209157200D02*
X94583334Y-209061961D01*
X94583334Y-209061961D02*
X94607143Y-208871485D01*
X94607143Y-208871485D02*
X94565476Y-208538152D01*
X94565476Y-208538152D02*
X94494048Y-208347676D01*
X94494048Y-208347676D02*
X94386905Y-208252438D01*
X94386905Y-208252438D02*
X94285714Y-208204819D01*
X93041667Y-208538152D02*
X93125000Y-209204819D01*
X93470238Y-208538152D02*
X93535715Y-209061961D01*
X93535715Y-209061961D02*
X93500000Y-209157200D01*
X93500000Y-209157200D02*
X93410715Y-209204819D01*
X93410715Y-209204819D02*
X93267857Y-209204819D01*
X93267857Y-209204819D02*
X93166667Y-209157200D01*
X93166667Y-209157200D02*
X93113095Y-209109580D01*
X92708333Y-208538152D02*
X92327381Y-208538152D01*
X92523810Y-208204819D02*
X92630953Y-209061961D01*
X92630953Y-209061961D02*
X92595238Y-209157200D01*
X92595238Y-209157200D02*
X92505953Y-209204819D01*
X92505953Y-209204819D02*
X92410714Y-209204819D01*
X91994047Y-208538152D02*
X92119047Y-209538152D01*
X92000000Y-208585771D02*
X91898809Y-208538152D01*
X91898809Y-208538152D02*
X91708333Y-208538152D01*
X91708333Y-208538152D02*
X91619047Y-208585771D01*
X91619047Y-208585771D02*
X91577381Y-208633390D01*
X91577381Y-208633390D02*
X91541666Y-208728628D01*
X91541666Y-208728628D02*
X91577381Y-209014342D01*
X91577381Y-209014342D02*
X91636904Y-209109580D01*
X91636904Y-209109580D02*
X91690476Y-209157200D01*
X91690476Y-209157200D02*
X91791666Y-209204819D01*
X91791666Y-209204819D02*
X91982143Y-209204819D01*
X91982143Y-209204819D02*
X92071428Y-209157200D01*
X90660714Y-208538152D02*
X90744047Y-209204819D01*
X91089285Y-208538152D02*
X91154762Y-209061961D01*
X91154762Y-209061961D02*
X91119047Y-209157200D01*
X91119047Y-209157200D02*
X91029762Y-209204819D01*
X91029762Y-209204819D02*
X90886904Y-209204819D01*
X90886904Y-209204819D02*
X90785714Y-209157200D01*
X90785714Y-209157200D02*
X90732142Y-209109580D01*
X90327380Y-208538152D02*
X89946428Y-208538152D01*
X90142857Y-208204819D02*
X90250000Y-209061961D01*
X90250000Y-209061961D02*
X90214285Y-209157200D01*
X90214285Y-209157200D02*
X90125000Y-209204819D01*
X90125000Y-209204819D02*
X90029761Y-209204819D01*
X88535713Y-208681009D02*
X88398808Y-208728628D01*
X88398808Y-208728628D02*
X88357142Y-208776247D01*
X88357142Y-208776247D02*
X88321427Y-208871485D01*
X88321427Y-208871485D02*
X88339285Y-209014342D01*
X88339285Y-209014342D02*
X88398808Y-209109580D01*
X88398808Y-209109580D02*
X88452380Y-209157200D01*
X88452380Y-209157200D02*
X88553570Y-209204819D01*
X88553570Y-209204819D02*
X88934523Y-209204819D01*
X88934523Y-209204819D02*
X88809523Y-208204819D01*
X88809523Y-208204819D02*
X88476189Y-208204819D01*
X88476189Y-208204819D02*
X88386904Y-208252438D01*
X88386904Y-208252438D02*
X88345237Y-208300057D01*
X88345237Y-208300057D02*
X88309523Y-208395295D01*
X88309523Y-208395295D02*
X88321427Y-208490533D01*
X88321427Y-208490533D02*
X88380951Y-208585771D01*
X88380951Y-208585771D02*
X88434523Y-208633390D01*
X88434523Y-208633390D02*
X88535713Y-208681009D01*
X88535713Y-208681009D02*
X88869046Y-208681009D01*
X77065475Y-209109580D02*
X77119047Y-209157200D01*
X77119047Y-209157200D02*
X77267856Y-209204819D01*
X77267856Y-209204819D02*
X77363094Y-209204819D01*
X77363094Y-209204819D02*
X77499999Y-209157200D01*
X77499999Y-209157200D02*
X77583332Y-209061961D01*
X77583332Y-209061961D02*
X77619047Y-208966723D01*
X77619047Y-208966723D02*
X77642856Y-208776247D01*
X77642856Y-208776247D02*
X77624999Y-208633390D01*
X77624999Y-208633390D02*
X77553571Y-208442914D01*
X77553571Y-208442914D02*
X77494047Y-208347676D01*
X77494047Y-208347676D02*
X77386904Y-208252438D01*
X77386904Y-208252438D02*
X77238094Y-208204819D01*
X77238094Y-208204819D02*
X77142856Y-208204819D01*
X77142856Y-208204819D02*
X77005952Y-208252438D01*
X77005952Y-208252438D02*
X76964285Y-208300057D01*
X76666666Y-208204819D02*
X76458332Y-209204819D01*
X76458332Y-209204819D02*
X75999999Y-208204819D01*
X74630951Y-208681009D02*
X74494046Y-208728628D01*
X74494046Y-208728628D02*
X74452380Y-208776247D01*
X74452380Y-208776247D02*
X74416665Y-208871485D01*
X74416665Y-208871485D02*
X74434523Y-209014342D01*
X74434523Y-209014342D02*
X74494046Y-209109580D01*
X74494046Y-209109580D02*
X74547618Y-209157200D01*
X74547618Y-209157200D02*
X74648808Y-209204819D01*
X74648808Y-209204819D02*
X75029761Y-209204819D01*
X75029761Y-209204819D02*
X74904761Y-208204819D01*
X74904761Y-208204819D02*
X74571427Y-208204819D01*
X74571427Y-208204819D02*
X74482142Y-208252438D01*
X74482142Y-208252438D02*
X74440475Y-208300057D01*
X74440475Y-208300057D02*
X74404761Y-208395295D01*
X74404761Y-208395295D02*
X74416665Y-208490533D01*
X74416665Y-208490533D02*
X74476189Y-208585771D01*
X74476189Y-208585771D02*
X74529761Y-208633390D01*
X74529761Y-208633390D02*
X74630951Y-208681009D01*
X74630951Y-208681009D02*
X74964284Y-208681009D01*
X73267856Y-209204819D02*
X73142856Y-208204819D01*
X72708332Y-208538152D02*
X72791666Y-209204819D01*
X72720237Y-208633390D02*
X72666666Y-208585771D01*
X72666666Y-208585771D02*
X72565475Y-208538152D01*
X72565475Y-208538152D02*
X72422618Y-208538152D01*
X72422618Y-208538152D02*
X72333332Y-208585771D01*
X72333332Y-208585771D02*
X72297618Y-208681009D01*
X72297618Y-208681009D02*
X72363094Y-209204819D01*
X58954819Y-206220237D02*
X57954819Y-206345237D01*
X58288152Y-206779761D02*
X58954819Y-206696427D01*
X58383390Y-206767856D02*
X58335771Y-206821427D01*
X58335771Y-206821427D02*
X58288152Y-206922618D01*
X58288152Y-206922618D02*
X58288152Y-207065475D01*
X58288152Y-207065475D02*
X58335771Y-207154761D01*
X58335771Y-207154761D02*
X58431009Y-207190475D01*
X58431009Y-207190475D02*
X58954819Y-207124999D01*
X58288152Y-207684523D02*
X59288152Y-207559523D01*
X58335771Y-207678570D02*
X58288152Y-207779761D01*
X58288152Y-207779761D02*
X58288152Y-207970237D01*
X58288152Y-207970237D02*
X58335771Y-208059523D01*
X58335771Y-208059523D02*
X58383390Y-208101189D01*
X58383390Y-208101189D02*
X58478628Y-208136904D01*
X58478628Y-208136904D02*
X58764342Y-208101189D01*
X58764342Y-208101189D02*
X58859580Y-208041666D01*
X58859580Y-208041666D02*
X58907200Y-207988094D01*
X58907200Y-207988094D02*
X58954819Y-207886904D01*
X58954819Y-207886904D02*
X58954819Y-207696427D01*
X58954819Y-207696427D02*
X58907200Y-207607142D01*
X58288152Y-209017856D02*
X58954819Y-208934523D01*
X58288152Y-208589285D02*
X58811961Y-208523809D01*
X58811961Y-208523809D02*
X58907200Y-208559523D01*
X58907200Y-208559523D02*
X58954819Y-208648809D01*
X58954819Y-208648809D02*
X58954819Y-208791666D01*
X58954819Y-208791666D02*
X58907200Y-208892856D01*
X58907200Y-208892856D02*
X58859580Y-208946428D01*
X58288152Y-209351190D02*
X58288152Y-209732142D01*
X57954819Y-209535713D02*
X58811961Y-209428571D01*
X58811961Y-209428571D02*
X58907200Y-209464285D01*
X58907200Y-209464285D02*
X58954819Y-209553571D01*
X58954819Y-209553571D02*
X58954819Y-209648809D01*
X58431009Y-211142857D02*
X58478628Y-211279762D01*
X58478628Y-211279762D02*
X58526247Y-211321428D01*
X58526247Y-211321428D02*
X58621485Y-211357143D01*
X58621485Y-211357143D02*
X58764342Y-211339285D01*
X58764342Y-211339285D02*
X58859580Y-211279762D01*
X58859580Y-211279762D02*
X58907200Y-211226190D01*
X58907200Y-211226190D02*
X58954819Y-211125000D01*
X58954819Y-211125000D02*
X58954819Y-210744047D01*
X58954819Y-210744047D02*
X57954819Y-210869047D01*
X57954819Y-210869047D02*
X57954819Y-211202381D01*
X57954819Y-211202381D02*
X58002438Y-211291666D01*
X58002438Y-211291666D02*
X58050057Y-211333333D01*
X58050057Y-211333333D02*
X58145295Y-211369047D01*
X58145295Y-211369047D02*
X58240533Y-211357143D01*
X58240533Y-211357143D02*
X58335771Y-211297619D01*
X58335771Y-211297619D02*
X58383390Y-211244047D01*
X58383390Y-211244047D02*
X58431009Y-211142857D01*
X58431009Y-211142857D02*
X58431009Y-210809524D01*
X77726190Y-159181009D02*
X78059523Y-159181009D01*
X78125000Y-159704819D02*
X78000000Y-158704819D01*
X78000000Y-158704819D02*
X77523809Y-158704819D01*
X76839285Y-159704819D02*
X76773809Y-159181009D01*
X76773809Y-159181009D02*
X76809523Y-159085771D01*
X76809523Y-159085771D02*
X76898809Y-159038152D01*
X76898809Y-159038152D02*
X77089285Y-159038152D01*
X77089285Y-159038152D02*
X77190476Y-159085771D01*
X76833333Y-159657200D02*
X76934523Y-159704819D01*
X76934523Y-159704819D02*
X77172619Y-159704819D01*
X77172619Y-159704819D02*
X77261904Y-159657200D01*
X77261904Y-159657200D02*
X77297619Y-159561961D01*
X77297619Y-159561961D02*
X77285714Y-159466723D01*
X77285714Y-159466723D02*
X77226190Y-159371485D01*
X77226190Y-159371485D02*
X77125000Y-159323866D01*
X77125000Y-159323866D02*
X76886904Y-159323866D01*
X76886904Y-159323866D02*
X76785714Y-159276247D01*
X76220238Y-159704819D02*
X76309523Y-159657200D01*
X76309523Y-159657200D02*
X76345238Y-159561961D01*
X76345238Y-159561961D02*
X76238095Y-158704819D01*
X75696428Y-159704819D02*
X75785713Y-159657200D01*
X75785713Y-159657200D02*
X75821428Y-159561961D01*
X75821428Y-159561961D02*
X75714285Y-158704819D01*
X75315475Y-159704819D02*
X75232141Y-159038152D01*
X75190475Y-158704819D02*
X75244046Y-158752438D01*
X75244046Y-158752438D02*
X75202379Y-158800057D01*
X75202379Y-158800057D02*
X75148808Y-158752438D01*
X75148808Y-158752438D02*
X75190475Y-158704819D01*
X75190475Y-158704819D02*
X75202379Y-158800057D01*
X74755951Y-159038152D02*
X74839285Y-159704819D01*
X74767856Y-159133390D02*
X74714285Y-159085771D01*
X74714285Y-159085771D02*
X74613094Y-159038152D01*
X74613094Y-159038152D02*
X74470237Y-159038152D01*
X74470237Y-159038152D02*
X74380951Y-159085771D01*
X74380951Y-159085771D02*
X74345237Y-159181009D01*
X74345237Y-159181009D02*
X74410713Y-159704819D01*
X73422618Y-159038152D02*
X73523808Y-159847676D01*
X73523808Y-159847676D02*
X73583332Y-159942914D01*
X73583332Y-159942914D02*
X73636904Y-159990533D01*
X73636904Y-159990533D02*
X73738094Y-160038152D01*
X73738094Y-160038152D02*
X73880951Y-160038152D01*
X73880951Y-160038152D02*
X73970237Y-159990533D01*
X73499999Y-159657200D02*
X73601189Y-159704819D01*
X73601189Y-159704819D02*
X73791666Y-159704819D01*
X73791666Y-159704819D02*
X73880951Y-159657200D01*
X73880951Y-159657200D02*
X73922618Y-159609580D01*
X73922618Y-159609580D02*
X73958332Y-159514342D01*
X73958332Y-159514342D02*
X73922618Y-159228628D01*
X73922618Y-159228628D02*
X73863094Y-159133390D01*
X73863094Y-159133390D02*
X73809523Y-159085771D01*
X73809523Y-159085771D02*
X73708332Y-159038152D01*
X73708332Y-159038152D02*
X73517856Y-159038152D01*
X73517856Y-159038152D02*
X73428570Y-159085771D01*
X72279760Y-159419104D02*
X71803570Y-159419104D01*
X72410713Y-159704819D02*
X71952379Y-158704819D01*
X71952379Y-158704819D02*
X71744046Y-159704819D01*
X58954819Y-156958333D02*
X58478628Y-156684523D01*
X58954819Y-156386904D02*
X57954819Y-156511904D01*
X57954819Y-156511904D02*
X57954819Y-156892857D01*
X57954819Y-156892857D02*
X58002438Y-156982142D01*
X58002438Y-156982142D02*
X58050057Y-157023809D01*
X58050057Y-157023809D02*
X58145295Y-157059523D01*
X58145295Y-157059523D02*
X58288152Y-157041666D01*
X58288152Y-157041666D02*
X58383390Y-156982142D01*
X58383390Y-156982142D02*
X58431009Y-156928571D01*
X58431009Y-156928571D02*
X58478628Y-156827381D01*
X58478628Y-156827381D02*
X58478628Y-156446428D01*
X58954819Y-157386904D02*
X58288152Y-157470238D01*
X57954819Y-157511904D02*
X58002438Y-157458333D01*
X58002438Y-157458333D02*
X58050057Y-157500000D01*
X58050057Y-157500000D02*
X58002438Y-157553571D01*
X58002438Y-157553571D02*
X57954819Y-157511904D01*
X57954819Y-157511904D02*
X58050057Y-157500000D01*
X58907200Y-157821428D02*
X58954819Y-157910713D01*
X58954819Y-157910713D02*
X58954819Y-158101190D01*
X58954819Y-158101190D02*
X58907200Y-158202380D01*
X58907200Y-158202380D02*
X58811961Y-158261904D01*
X58811961Y-158261904D02*
X58764342Y-158267856D01*
X58764342Y-158267856D02*
X58669104Y-158232142D01*
X58669104Y-158232142D02*
X58621485Y-158142856D01*
X58621485Y-158142856D02*
X58621485Y-157999999D01*
X58621485Y-157999999D02*
X58573866Y-157910713D01*
X58573866Y-157910713D02*
X58478628Y-157874999D01*
X58478628Y-157874999D02*
X58431009Y-157880952D01*
X58431009Y-157880952D02*
X58335771Y-157940475D01*
X58335771Y-157940475D02*
X58288152Y-158041666D01*
X58288152Y-158041666D02*
X58288152Y-158184523D01*
X58288152Y-158184523D02*
X58335771Y-158273809D01*
X58954819Y-158672618D02*
X58288152Y-158755952D01*
X57954819Y-158797618D02*
X58002438Y-158744047D01*
X58002438Y-158744047D02*
X58050057Y-158785714D01*
X58050057Y-158785714D02*
X58002438Y-158839285D01*
X58002438Y-158839285D02*
X57954819Y-158797618D01*
X57954819Y-158797618D02*
X58050057Y-158785714D01*
X58288152Y-159232142D02*
X58954819Y-159148808D01*
X58383390Y-159220237D02*
X58335771Y-159273808D01*
X58335771Y-159273808D02*
X58288152Y-159374999D01*
X58288152Y-159374999D02*
X58288152Y-159517856D01*
X58288152Y-159517856D02*
X58335771Y-159607142D01*
X58335771Y-159607142D02*
X58431009Y-159642856D01*
X58431009Y-159642856D02*
X58954819Y-159577380D01*
X58288152Y-160565475D02*
X59097676Y-160464285D01*
X59097676Y-160464285D02*
X59192914Y-160404761D01*
X59192914Y-160404761D02*
X59240533Y-160351189D01*
X59240533Y-160351189D02*
X59288152Y-160249999D01*
X59288152Y-160249999D02*
X59288152Y-160107142D01*
X59288152Y-160107142D02*
X59240533Y-160017856D01*
X58907200Y-160488094D02*
X58954819Y-160386904D01*
X58954819Y-160386904D02*
X58954819Y-160196428D01*
X58954819Y-160196428D02*
X58907200Y-160107142D01*
X58907200Y-160107142D02*
X58859580Y-160065475D01*
X58859580Y-160065475D02*
X58764342Y-160029761D01*
X58764342Y-160029761D02*
X58478628Y-160065475D01*
X58478628Y-160065475D02*
X58383390Y-160124999D01*
X58383390Y-160124999D02*
X58335771Y-160178570D01*
X58335771Y-160178570D02*
X58288152Y-160279761D01*
X58288152Y-160279761D02*
X58288152Y-160470237D01*
X58288152Y-160470237D02*
X58335771Y-160559523D01*
X58669104Y-161708333D02*
X58669104Y-162184523D01*
X58954819Y-161577380D02*
X57954819Y-162035714D01*
X57954819Y-162035714D02*
X58954819Y-162244047D01*
X94214285Y-191704819D02*
X94023809Y-191704819D01*
X94023809Y-191704819D02*
X93934524Y-191752438D01*
X93934524Y-191752438D02*
X93851190Y-191847676D01*
X93851190Y-191847676D02*
X93827381Y-192038152D01*
X93827381Y-192038152D02*
X93869047Y-192371485D01*
X93869047Y-192371485D02*
X93940476Y-192561961D01*
X93940476Y-192561961D02*
X94047619Y-192657200D01*
X94047619Y-192657200D02*
X94148809Y-192704819D01*
X94148809Y-192704819D02*
X94339285Y-192704819D01*
X94339285Y-192704819D02*
X94428571Y-192657200D01*
X94428571Y-192657200D02*
X94511905Y-192561961D01*
X94511905Y-192561961D02*
X94535714Y-192371485D01*
X94535714Y-192371485D02*
X94494047Y-192038152D01*
X94494047Y-192038152D02*
X94422619Y-191847676D01*
X94422619Y-191847676D02*
X94315476Y-191752438D01*
X94315476Y-191752438D02*
X94214285Y-191704819D01*
X92970238Y-192038152D02*
X93053571Y-192704819D01*
X93398809Y-192038152D02*
X93464286Y-192561961D01*
X93464286Y-192561961D02*
X93428571Y-192657200D01*
X93428571Y-192657200D02*
X93339286Y-192704819D01*
X93339286Y-192704819D02*
X93196428Y-192704819D01*
X93196428Y-192704819D02*
X93095238Y-192657200D01*
X93095238Y-192657200D02*
X93041666Y-192609580D01*
X92636904Y-192038152D02*
X92255952Y-192038152D01*
X92452381Y-191704819D02*
X92559524Y-192561961D01*
X92559524Y-192561961D02*
X92523809Y-192657200D01*
X92523809Y-192657200D02*
X92434524Y-192704819D01*
X92434524Y-192704819D02*
X92339285Y-192704819D01*
X91922618Y-192038152D02*
X92047618Y-193038152D01*
X91928571Y-192085771D02*
X91827380Y-192038152D01*
X91827380Y-192038152D02*
X91636904Y-192038152D01*
X91636904Y-192038152D02*
X91547618Y-192085771D01*
X91547618Y-192085771D02*
X91505952Y-192133390D01*
X91505952Y-192133390D02*
X91470237Y-192228628D01*
X91470237Y-192228628D02*
X91505952Y-192514342D01*
X91505952Y-192514342D02*
X91565475Y-192609580D01*
X91565475Y-192609580D02*
X91619047Y-192657200D01*
X91619047Y-192657200D02*
X91720237Y-192704819D01*
X91720237Y-192704819D02*
X91910714Y-192704819D01*
X91910714Y-192704819D02*
X91999999Y-192657200D01*
X90589285Y-192038152D02*
X90672618Y-192704819D01*
X91017856Y-192038152D02*
X91083333Y-192561961D01*
X91083333Y-192561961D02*
X91047618Y-192657200D01*
X91047618Y-192657200D02*
X90958333Y-192704819D01*
X90958333Y-192704819D02*
X90815475Y-192704819D01*
X90815475Y-192704819D02*
X90714285Y-192657200D01*
X90714285Y-192657200D02*
X90660713Y-192609580D01*
X90255951Y-192038152D02*
X89874999Y-192038152D01*
X90071428Y-191704819D02*
X90178571Y-192561961D01*
X90178571Y-192561961D02*
X90142856Y-192657200D01*
X90142856Y-192657200D02*
X90053571Y-192704819D01*
X90053571Y-192704819D02*
X89958332Y-192704819D01*
X88874998Y-192419104D02*
X88398808Y-192419104D01*
X89005951Y-192704819D02*
X88547617Y-191704819D01*
X88547617Y-191704819D02*
X88339284Y-192704819D01*
X76994047Y-192609580D02*
X77047619Y-192657200D01*
X77047619Y-192657200D02*
X77196428Y-192704819D01*
X77196428Y-192704819D02*
X77291666Y-192704819D01*
X77291666Y-192704819D02*
X77428571Y-192657200D01*
X77428571Y-192657200D02*
X77511904Y-192561961D01*
X77511904Y-192561961D02*
X77547619Y-192466723D01*
X77547619Y-192466723D02*
X77571428Y-192276247D01*
X77571428Y-192276247D02*
X77553571Y-192133390D01*
X77553571Y-192133390D02*
X77482143Y-191942914D01*
X77482143Y-191942914D02*
X77422619Y-191847676D01*
X77422619Y-191847676D02*
X77315476Y-191752438D01*
X77315476Y-191752438D02*
X77166666Y-191704819D01*
X77166666Y-191704819D02*
X77071428Y-191704819D01*
X77071428Y-191704819D02*
X76934524Y-191752438D01*
X76934524Y-191752438D02*
X76892857Y-191800057D01*
X76595238Y-191704819D02*
X76386904Y-192704819D01*
X76386904Y-192704819D02*
X75928571Y-191704819D01*
X74970237Y-192419104D02*
X74494047Y-192419104D01*
X75101190Y-192704819D02*
X74642856Y-191704819D01*
X74642856Y-191704819D02*
X74434523Y-192704819D01*
X73339285Y-192704819D02*
X73214285Y-191704819D01*
X72779761Y-192038152D02*
X72863095Y-192704819D01*
X72791666Y-192133390D02*
X72738095Y-192085771D01*
X72738095Y-192085771D02*
X72636904Y-192038152D01*
X72636904Y-192038152D02*
X72494047Y-192038152D01*
X72494047Y-192038152D02*
X72404761Y-192085771D01*
X72404761Y-192085771D02*
X72369047Y-192181009D01*
X72369047Y-192181009D02*
X72434523Y-192704819D01*
X58954819Y-189791666D02*
X57954819Y-189916666D01*
X58288152Y-190351190D02*
X58954819Y-190267856D01*
X58383390Y-190339285D02*
X58335771Y-190392856D01*
X58335771Y-190392856D02*
X58288152Y-190494047D01*
X58288152Y-190494047D02*
X58288152Y-190636904D01*
X58288152Y-190636904D02*
X58335771Y-190726190D01*
X58335771Y-190726190D02*
X58431009Y-190761904D01*
X58431009Y-190761904D02*
X58954819Y-190696428D01*
X58288152Y-191255952D02*
X59288152Y-191130952D01*
X58335771Y-191249999D02*
X58288152Y-191351190D01*
X58288152Y-191351190D02*
X58288152Y-191541666D01*
X58288152Y-191541666D02*
X58335771Y-191630952D01*
X58335771Y-191630952D02*
X58383390Y-191672618D01*
X58383390Y-191672618D02*
X58478628Y-191708333D01*
X58478628Y-191708333D02*
X58764342Y-191672618D01*
X58764342Y-191672618D02*
X58859580Y-191613095D01*
X58859580Y-191613095D02*
X58907200Y-191559523D01*
X58907200Y-191559523D02*
X58954819Y-191458333D01*
X58954819Y-191458333D02*
X58954819Y-191267856D01*
X58954819Y-191267856D02*
X58907200Y-191178571D01*
X58288152Y-192589285D02*
X58954819Y-192505952D01*
X58288152Y-192160714D02*
X58811961Y-192095238D01*
X58811961Y-192095238D02*
X58907200Y-192130952D01*
X58907200Y-192130952D02*
X58954819Y-192220238D01*
X58954819Y-192220238D02*
X58954819Y-192363095D01*
X58954819Y-192363095D02*
X58907200Y-192464285D01*
X58907200Y-192464285D02*
X58859580Y-192517857D01*
X58288152Y-192922619D02*
X58288152Y-193303571D01*
X57954819Y-193107142D02*
X58811961Y-193000000D01*
X58811961Y-193000000D02*
X58907200Y-193035714D01*
X58907200Y-193035714D02*
X58954819Y-193125000D01*
X58954819Y-193125000D02*
X58954819Y-193220238D01*
X58669104Y-194303572D02*
X58669104Y-194779762D01*
X58954819Y-194172619D02*
X57954819Y-194630953D01*
X57954819Y-194630953D02*
X58954819Y-194839286D01*
X84228094Y-55954819D02*
X84228094Y-54954819D01*
X84228094Y-54954819D02*
X83989999Y-54954819D01*
X83989999Y-54954819D02*
X83847142Y-55002438D01*
X83847142Y-55002438D02*
X83751904Y-55097676D01*
X83751904Y-55097676D02*
X83704285Y-55192914D01*
X83704285Y-55192914D02*
X83656666Y-55383390D01*
X83656666Y-55383390D02*
X83656666Y-55526247D01*
X83656666Y-55526247D02*
X83704285Y-55716723D01*
X83704285Y-55716723D02*
X83751904Y-55811961D01*
X83751904Y-55811961D02*
X83847142Y-55907200D01*
X83847142Y-55907200D02*
X83989999Y-55954819D01*
X83989999Y-55954819D02*
X84228094Y-55954819D01*
X83323332Y-54954819D02*
X82704285Y-54954819D01*
X82704285Y-54954819D02*
X83037618Y-55335771D01*
X83037618Y-55335771D02*
X82894761Y-55335771D01*
X82894761Y-55335771D02*
X82799523Y-55383390D01*
X82799523Y-55383390D02*
X82751904Y-55431009D01*
X82751904Y-55431009D02*
X82704285Y-55526247D01*
X82704285Y-55526247D02*
X82704285Y-55764342D01*
X82704285Y-55764342D02*
X82751904Y-55859580D01*
X82751904Y-55859580D02*
X82799523Y-55907200D01*
X82799523Y-55907200D02*
X82894761Y-55954819D01*
X82894761Y-55954819D02*
X83180475Y-55954819D01*
X83180475Y-55954819D02*
X83275713Y-55907200D01*
X83275713Y-55907200D02*
X83323332Y-55859580D01*
X85079523Y-126684819D02*
X85079523Y-127399104D01*
X85079523Y-127399104D02*
X85127142Y-127541961D01*
X85127142Y-127541961D02*
X85222380Y-127637200D01*
X85222380Y-127637200D02*
X85365237Y-127684819D01*
X85365237Y-127684819D02*
X85460475Y-127684819D01*
X84650951Y-126780057D02*
X84603332Y-126732438D01*
X84603332Y-126732438D02*
X84508094Y-126684819D01*
X84508094Y-126684819D02*
X84269999Y-126684819D01*
X84269999Y-126684819D02*
X84174761Y-126732438D01*
X84174761Y-126732438D02*
X84127142Y-126780057D01*
X84127142Y-126780057D02*
X84079523Y-126875295D01*
X84079523Y-126875295D02*
X84079523Y-126970533D01*
X84079523Y-126970533D02*
X84127142Y-127113390D01*
X84127142Y-127113390D02*
X84698570Y-127684819D01*
X84698570Y-127684819D02*
X84079523Y-127684819D01*
X83222380Y-126684819D02*
X83412856Y-126684819D01*
X83412856Y-126684819D02*
X83508094Y-126732438D01*
X83508094Y-126732438D02*
X83555713Y-126780057D01*
X83555713Y-126780057D02*
X83650951Y-126922914D01*
X83650951Y-126922914D02*
X83698570Y-127113390D01*
X83698570Y-127113390D02*
X83698570Y-127494342D01*
X83698570Y-127494342D02*
X83650951Y-127589580D01*
X83650951Y-127589580D02*
X83603332Y-127637200D01*
X83603332Y-127637200D02*
X83508094Y-127684819D01*
X83508094Y-127684819D02*
X83317618Y-127684819D01*
X83317618Y-127684819D02*
X83222380Y-127637200D01*
X83222380Y-127637200D02*
X83174761Y-127589580D01*
X83174761Y-127589580D02*
X83127142Y-127494342D01*
X83127142Y-127494342D02*
X83127142Y-127256247D01*
X83127142Y-127256247D02*
X83174761Y-127161009D01*
X83174761Y-127161009D02*
X83222380Y-127113390D01*
X83222380Y-127113390D02*
X83317618Y-127065771D01*
X83317618Y-127065771D02*
X83508094Y-127065771D01*
X83508094Y-127065771D02*
X83603332Y-127113390D01*
X83603332Y-127113390D02*
X83650951Y-127161009D01*
X83650951Y-127161009D02*
X83698570Y-127256247D01*
X76285714Y-52554819D02*
X76285714Y-53269104D01*
X76285714Y-53269104D02*
X76333333Y-53411961D01*
X76333333Y-53411961D02*
X76428571Y-53507200D01*
X76428571Y-53507200D02*
X76571428Y-53554819D01*
X76571428Y-53554819D02*
X76666666Y-53554819D01*
X75285714Y-53554819D02*
X75857142Y-53554819D01*
X75571428Y-53554819D02*
X75571428Y-52554819D01*
X75571428Y-52554819D02*
X75666666Y-52697676D01*
X75666666Y-52697676D02*
X75761904Y-52792914D01*
X75761904Y-52792914D02*
X75857142Y-52840533D01*
X74666666Y-52554819D02*
X74571428Y-52554819D01*
X74571428Y-52554819D02*
X74476190Y-52602438D01*
X74476190Y-52602438D02*
X74428571Y-52650057D01*
X74428571Y-52650057D02*
X74380952Y-52745295D01*
X74380952Y-52745295D02*
X74333333Y-52935771D01*
X74333333Y-52935771D02*
X74333333Y-53173866D01*
X74333333Y-53173866D02*
X74380952Y-53364342D01*
X74380952Y-53364342D02*
X74428571Y-53459580D01*
X74428571Y-53459580D02*
X74476190Y-53507200D01*
X74476190Y-53507200D02*
X74571428Y-53554819D01*
X74571428Y-53554819D02*
X74666666Y-53554819D01*
X74666666Y-53554819D02*
X74761904Y-53507200D01*
X74761904Y-53507200D02*
X74809523Y-53459580D01*
X74809523Y-53459580D02*
X74857142Y-53364342D01*
X74857142Y-53364342D02*
X74904761Y-53173866D01*
X74904761Y-53173866D02*
X74904761Y-52935771D01*
X74904761Y-52935771D02*
X74857142Y-52745295D01*
X74857142Y-52745295D02*
X74809523Y-52650057D01*
X74809523Y-52650057D02*
X74761904Y-52602438D01*
X74761904Y-52602438D02*
X74666666Y-52554819D01*
X73714285Y-52554819D02*
X73619047Y-52554819D01*
X73619047Y-52554819D02*
X73523809Y-52602438D01*
X73523809Y-52602438D02*
X73476190Y-52650057D01*
X73476190Y-52650057D02*
X73428571Y-52745295D01*
X73428571Y-52745295D02*
X73380952Y-52935771D01*
X73380952Y-52935771D02*
X73380952Y-53173866D01*
X73380952Y-53173866D02*
X73428571Y-53364342D01*
X73428571Y-53364342D02*
X73476190Y-53459580D01*
X73476190Y-53459580D02*
X73523809Y-53507200D01*
X73523809Y-53507200D02*
X73619047Y-53554819D01*
X73619047Y-53554819D02*
X73714285Y-53554819D01*
X73714285Y-53554819D02*
X73809523Y-53507200D01*
X73809523Y-53507200D02*
X73857142Y-53459580D01*
X73857142Y-53459580D02*
X73904761Y-53364342D01*
X73904761Y-53364342D02*
X73952380Y-53173866D01*
X73952380Y-53173866D02*
X73952380Y-52935771D01*
X73952380Y-52935771D02*
X73904761Y-52745295D01*
X73904761Y-52745295D02*
X73857142Y-52650057D01*
X73857142Y-52650057D02*
X73809523Y-52602438D01*
X73809523Y-52602438D02*
X73714285Y-52554819D01*
X76238094Y-56054819D02*
X76238094Y-56864342D01*
X76238094Y-56864342D02*
X76190475Y-56959580D01*
X76190475Y-56959580D02*
X76142856Y-57007200D01*
X76142856Y-57007200D02*
X76047618Y-57054819D01*
X76047618Y-57054819D02*
X75857142Y-57054819D01*
X75857142Y-57054819D02*
X75761904Y-57007200D01*
X75761904Y-57007200D02*
X75714285Y-56959580D01*
X75714285Y-56959580D02*
X75666666Y-56864342D01*
X75666666Y-56864342D02*
X75666666Y-56054819D01*
X74666666Y-57054819D02*
X75238094Y-57054819D01*
X74952380Y-57054819D02*
X74952380Y-56054819D01*
X74952380Y-56054819D02*
X75047618Y-56197676D01*
X75047618Y-56197676D02*
X75142856Y-56292914D01*
X75142856Y-56292914D02*
X75238094Y-56340533D01*
X74047618Y-56054819D02*
X73952380Y-56054819D01*
X73952380Y-56054819D02*
X73857142Y-56102438D01*
X73857142Y-56102438D02*
X73809523Y-56150057D01*
X73809523Y-56150057D02*
X73761904Y-56245295D01*
X73761904Y-56245295D02*
X73714285Y-56435771D01*
X73714285Y-56435771D02*
X73714285Y-56673866D01*
X73714285Y-56673866D02*
X73761904Y-56864342D01*
X73761904Y-56864342D02*
X73809523Y-56959580D01*
X73809523Y-56959580D02*
X73857142Y-57007200D01*
X73857142Y-57007200D02*
X73952380Y-57054819D01*
X73952380Y-57054819D02*
X74047618Y-57054819D01*
X74047618Y-57054819D02*
X74142856Y-57007200D01*
X74142856Y-57007200D02*
X74190475Y-56959580D01*
X74190475Y-56959580D02*
X74238094Y-56864342D01*
X74238094Y-56864342D02*
X74285713Y-56673866D01*
X74285713Y-56673866D02*
X74285713Y-56435771D01*
X74285713Y-56435771D02*
X74238094Y-56245295D01*
X74238094Y-56245295D02*
X74190475Y-56150057D01*
X74190475Y-56150057D02*
X74142856Y-56102438D01*
X74142856Y-56102438D02*
X74047618Y-56054819D01*
X79642857Y-63304819D02*
X80119047Y-63304819D01*
X80119047Y-63304819D02*
X80119047Y-62304819D01*
X79309523Y-63304819D02*
X79309523Y-62304819D01*
X79309523Y-62304819D02*
X78976190Y-63019104D01*
X78976190Y-63019104D02*
X78642857Y-62304819D01*
X78642857Y-62304819D02*
X78642857Y-63304819D01*
X77738095Y-62638152D02*
X77738095Y-63304819D01*
X77976190Y-62257200D02*
X78214285Y-62971485D01*
X78214285Y-62971485D02*
X77595238Y-62971485D01*
X77023809Y-62304819D02*
X76928571Y-62304819D01*
X76928571Y-62304819D02*
X76833333Y-62352438D01*
X76833333Y-62352438D02*
X76785714Y-62400057D01*
X76785714Y-62400057D02*
X76738095Y-62495295D01*
X76738095Y-62495295D02*
X76690476Y-62685771D01*
X76690476Y-62685771D02*
X76690476Y-62923866D01*
X76690476Y-62923866D02*
X76738095Y-63114342D01*
X76738095Y-63114342D02*
X76785714Y-63209580D01*
X76785714Y-63209580D02*
X76833333Y-63257200D01*
X76833333Y-63257200D02*
X76928571Y-63304819D01*
X76928571Y-63304819D02*
X77023809Y-63304819D01*
X77023809Y-63304819D02*
X77119047Y-63257200D01*
X77119047Y-63257200D02*
X77166666Y-63209580D01*
X77166666Y-63209580D02*
X77214285Y-63114342D01*
X77214285Y-63114342D02*
X77261904Y-62923866D01*
X77261904Y-62923866D02*
X77261904Y-62685771D01*
X77261904Y-62685771D02*
X77214285Y-62495295D01*
X77214285Y-62495295D02*
X77166666Y-62400057D01*
X77166666Y-62400057D02*
X77119047Y-62352438D01*
X77119047Y-62352438D02*
X77023809Y-62304819D01*
X75833333Y-62638152D02*
X75833333Y-63304819D01*
X76071428Y-62257200D02*
X76309523Y-62971485D01*
X76309523Y-62971485D02*
X75690476Y-62971485D01*
X75119047Y-62304819D02*
X75023809Y-62304819D01*
X75023809Y-62304819D02*
X74928571Y-62352438D01*
X74928571Y-62352438D02*
X74880952Y-62400057D01*
X74880952Y-62400057D02*
X74833333Y-62495295D01*
X74833333Y-62495295D02*
X74785714Y-62685771D01*
X74785714Y-62685771D02*
X74785714Y-62923866D01*
X74785714Y-62923866D02*
X74833333Y-63114342D01*
X74833333Y-63114342D02*
X74880952Y-63209580D01*
X74880952Y-63209580D02*
X74928571Y-63257200D01*
X74928571Y-63257200D02*
X75023809Y-63304819D01*
X75023809Y-63304819D02*
X75119047Y-63304819D01*
X75119047Y-63304819D02*
X75214285Y-63257200D01*
X75214285Y-63257200D02*
X75261904Y-63209580D01*
X75261904Y-63209580D02*
X75309523Y-63114342D01*
X75309523Y-63114342D02*
X75357142Y-62923866D01*
X75357142Y-62923866D02*
X75357142Y-62685771D01*
X75357142Y-62685771D02*
X75309523Y-62495295D01*
X75309523Y-62495295D02*
X75261904Y-62400057D01*
X75261904Y-62400057D02*
X75214285Y-62352438D01*
X75214285Y-62352438D02*
X75119047Y-62304819D01*
X73880952Y-63304819D02*
X74357142Y-63304819D01*
X74357142Y-63304819D02*
X74357142Y-62304819D01*
X73547618Y-63304819D02*
X73547618Y-62304819D01*
X73547618Y-62304819D02*
X73166666Y-62304819D01*
X73166666Y-62304819D02*
X73071428Y-62352438D01*
X73071428Y-62352438D02*
X73023809Y-62400057D01*
X73023809Y-62400057D02*
X72976190Y-62495295D01*
X72976190Y-62495295D02*
X72976190Y-62638152D01*
X72976190Y-62638152D02*
X73023809Y-62733390D01*
X73023809Y-62733390D02*
X73071428Y-62781009D01*
X73071428Y-62781009D02*
X73166666Y-62828628D01*
X73166666Y-62828628D02*
X73547618Y-62828628D01*
X72547618Y-62923866D02*
X71785714Y-62923866D01*
X70785714Y-63304819D02*
X71357142Y-63304819D01*
X71071428Y-63304819D02*
X71071428Y-62304819D01*
X71071428Y-62304819D02*
X71166666Y-62447676D01*
X71166666Y-62447676D02*
X71261904Y-62542914D01*
X71261904Y-62542914D02*
X71357142Y-62590533D01*
X70166666Y-62304819D02*
X70071428Y-62304819D01*
X70071428Y-62304819D02*
X69976190Y-62352438D01*
X69976190Y-62352438D02*
X69928571Y-62400057D01*
X69928571Y-62400057D02*
X69880952Y-62495295D01*
X69880952Y-62495295D02*
X69833333Y-62685771D01*
X69833333Y-62685771D02*
X69833333Y-62923866D01*
X69833333Y-62923866D02*
X69880952Y-63114342D01*
X69880952Y-63114342D02*
X69928571Y-63209580D01*
X69928571Y-63209580D02*
X69976190Y-63257200D01*
X69976190Y-63257200D02*
X70071428Y-63304819D01*
X70071428Y-63304819D02*
X70166666Y-63304819D01*
X70166666Y-63304819D02*
X70261904Y-63257200D01*
X70261904Y-63257200D02*
X70309523Y-63209580D01*
X70309523Y-63209580D02*
X70357142Y-63114342D01*
X70357142Y-63114342D02*
X70404761Y-62923866D01*
X70404761Y-62923866D02*
X70404761Y-62685771D01*
X70404761Y-62685771D02*
X70357142Y-62495295D01*
X70357142Y-62495295D02*
X70309523Y-62400057D01*
X70309523Y-62400057D02*
X70261904Y-62352438D01*
X70261904Y-62352438D02*
X70166666Y-62304819D01*
X66079523Y-80684819D02*
X66079523Y-81399104D01*
X66079523Y-81399104D02*
X66127142Y-81541961D01*
X66127142Y-81541961D02*
X66222380Y-81637200D01*
X66222380Y-81637200D02*
X66365237Y-81684819D01*
X66365237Y-81684819D02*
X66460475Y-81684819D01*
X65079523Y-81684819D02*
X65650951Y-81684819D01*
X65365237Y-81684819D02*
X65365237Y-80684819D01*
X65365237Y-80684819D02*
X65460475Y-80827676D01*
X65460475Y-80827676D02*
X65555713Y-80922914D01*
X65555713Y-80922914D02*
X65650951Y-80970533D01*
X64222380Y-81018152D02*
X64222380Y-81684819D01*
X64460475Y-80637200D02*
X64698570Y-81351485D01*
X64698570Y-81351485D02*
X64079523Y-81351485D01*
X93053214Y-182384819D02*
X93053214Y-183099104D01*
X93053214Y-183099104D02*
X93100833Y-183241961D01*
X93100833Y-183241961D02*
X93196071Y-183337200D01*
X93196071Y-183337200D02*
X93338928Y-183384819D01*
X93338928Y-183384819D02*
X93434166Y-183384819D01*
X92624642Y-182480057D02*
X92577023Y-182432438D01*
X92577023Y-182432438D02*
X92481785Y-182384819D01*
X92481785Y-182384819D02*
X92243690Y-182384819D01*
X92243690Y-182384819D02*
X92148452Y-182432438D01*
X92148452Y-182432438D02*
X92100833Y-182480057D01*
X92100833Y-182480057D02*
X92053214Y-182575295D01*
X92053214Y-182575295D02*
X92053214Y-182670533D01*
X92053214Y-182670533D02*
X92100833Y-182813390D01*
X92100833Y-182813390D02*
X92672261Y-183384819D01*
X92672261Y-183384819D02*
X92053214Y-183384819D01*
X91434166Y-182384819D02*
X91338928Y-182384819D01*
X91338928Y-182384819D02*
X91243690Y-182432438D01*
X91243690Y-182432438D02*
X91196071Y-182480057D01*
X91196071Y-182480057D02*
X91148452Y-182575295D01*
X91148452Y-182575295D02*
X91100833Y-182765771D01*
X91100833Y-182765771D02*
X91100833Y-183003866D01*
X91100833Y-183003866D02*
X91148452Y-183194342D01*
X91148452Y-183194342D02*
X91196071Y-183289580D01*
X91196071Y-183289580D02*
X91243690Y-183337200D01*
X91243690Y-183337200D02*
X91338928Y-183384819D01*
X91338928Y-183384819D02*
X91434166Y-183384819D01*
X91434166Y-183384819D02*
X91529404Y-183337200D01*
X91529404Y-183337200D02*
X91577023Y-183289580D01*
X91577023Y-183289580D02*
X91624642Y-183194342D01*
X91624642Y-183194342D02*
X91672261Y-183003866D01*
X91672261Y-183003866D02*
X91672261Y-182765771D01*
X91672261Y-182765771D02*
X91624642Y-182575295D01*
X91624642Y-182575295D02*
X91577023Y-182480057D01*
X91577023Y-182480057D02*
X91529404Y-182432438D01*
X91529404Y-182432438D02*
X91434166Y-182384819D01*
X90481785Y-182384819D02*
X90386547Y-182384819D01*
X90386547Y-182384819D02*
X90291309Y-182432438D01*
X90291309Y-182432438D02*
X90243690Y-182480057D01*
X90243690Y-182480057D02*
X90196071Y-182575295D01*
X90196071Y-182575295D02*
X90148452Y-182765771D01*
X90148452Y-182765771D02*
X90148452Y-183003866D01*
X90148452Y-183003866D02*
X90196071Y-183194342D01*
X90196071Y-183194342D02*
X90243690Y-183289580D01*
X90243690Y-183289580D02*
X90291309Y-183337200D01*
X90291309Y-183337200D02*
X90386547Y-183384819D01*
X90386547Y-183384819D02*
X90481785Y-183384819D01*
X90481785Y-183384819D02*
X90577023Y-183337200D01*
X90577023Y-183337200D02*
X90624642Y-183289580D01*
X90624642Y-183289580D02*
X90672261Y-183194342D01*
X90672261Y-183194342D02*
X90719880Y-183003866D01*
X90719880Y-183003866D02*
X90719880Y-182765771D01*
X90719880Y-182765771D02*
X90672261Y-182575295D01*
X90672261Y-182575295D02*
X90624642Y-182480057D01*
X90624642Y-182480057D02*
X90577023Y-182432438D01*
X90577023Y-182432438D02*
X90481785Y-182384819D01*
X65466666Y-63409580D02*
X65514285Y-63457200D01*
X65514285Y-63457200D02*
X65657142Y-63504819D01*
X65657142Y-63504819D02*
X65752380Y-63504819D01*
X65752380Y-63504819D02*
X65895237Y-63457200D01*
X65895237Y-63457200D02*
X65990475Y-63361961D01*
X65990475Y-63361961D02*
X66038094Y-63266723D01*
X66038094Y-63266723D02*
X66085713Y-63076247D01*
X66085713Y-63076247D02*
X66085713Y-62933390D01*
X66085713Y-62933390D02*
X66038094Y-62742914D01*
X66038094Y-62742914D02*
X65990475Y-62647676D01*
X65990475Y-62647676D02*
X65895237Y-62552438D01*
X65895237Y-62552438D02*
X65752380Y-62504819D01*
X65752380Y-62504819D02*
X65657142Y-62504819D01*
X65657142Y-62504819D02*
X65514285Y-62552438D01*
X65514285Y-62552438D02*
X65466666Y-62600057D01*
X64561904Y-62504819D02*
X65038094Y-62504819D01*
X65038094Y-62504819D02*
X65085713Y-62981009D01*
X65085713Y-62981009D02*
X65038094Y-62933390D01*
X65038094Y-62933390D02*
X64942856Y-62885771D01*
X64942856Y-62885771D02*
X64704761Y-62885771D01*
X64704761Y-62885771D02*
X64609523Y-62933390D01*
X64609523Y-62933390D02*
X64561904Y-62981009D01*
X64561904Y-62981009D02*
X64514285Y-63076247D01*
X64514285Y-63076247D02*
X64514285Y-63314342D01*
X64514285Y-63314342D02*
X64561904Y-63409580D01*
X64561904Y-63409580D02*
X64609523Y-63457200D01*
X64609523Y-63457200D02*
X64704761Y-63504819D01*
X64704761Y-63504819D02*
X64942856Y-63504819D01*
X64942856Y-63504819D02*
X65038094Y-63457200D01*
X65038094Y-63457200D02*
X65085713Y-63409580D01*
X66347619Y-65554819D02*
X66919047Y-65554819D01*
X66633333Y-65554819D02*
X66633333Y-64554819D01*
X66633333Y-64554819D02*
X66728571Y-64697676D01*
X66728571Y-64697676D02*
X66823809Y-64792914D01*
X66823809Y-64792914D02*
X66919047Y-64840533D01*
X65728571Y-64554819D02*
X65633333Y-64554819D01*
X65633333Y-64554819D02*
X65538095Y-64602438D01*
X65538095Y-64602438D02*
X65490476Y-64650057D01*
X65490476Y-64650057D02*
X65442857Y-64745295D01*
X65442857Y-64745295D02*
X65395238Y-64935771D01*
X65395238Y-64935771D02*
X65395238Y-65173866D01*
X65395238Y-65173866D02*
X65442857Y-65364342D01*
X65442857Y-65364342D02*
X65490476Y-65459580D01*
X65490476Y-65459580D02*
X65538095Y-65507200D01*
X65538095Y-65507200D02*
X65633333Y-65554819D01*
X65633333Y-65554819D02*
X65728571Y-65554819D01*
X65728571Y-65554819D02*
X65823809Y-65507200D01*
X65823809Y-65507200D02*
X65871428Y-65459580D01*
X65871428Y-65459580D02*
X65919047Y-65364342D01*
X65919047Y-65364342D02*
X65966666Y-65173866D01*
X65966666Y-65173866D02*
X65966666Y-64935771D01*
X65966666Y-64935771D02*
X65919047Y-64745295D01*
X65919047Y-64745295D02*
X65871428Y-64650057D01*
X65871428Y-64650057D02*
X65823809Y-64602438D01*
X65823809Y-64602438D02*
X65728571Y-64554819D01*
X64776190Y-64554819D02*
X64680952Y-64554819D01*
X64680952Y-64554819D02*
X64585714Y-64602438D01*
X64585714Y-64602438D02*
X64538095Y-64650057D01*
X64538095Y-64650057D02*
X64490476Y-64745295D01*
X64490476Y-64745295D02*
X64442857Y-64935771D01*
X64442857Y-64935771D02*
X64442857Y-65173866D01*
X64442857Y-65173866D02*
X64490476Y-65364342D01*
X64490476Y-65364342D02*
X64538095Y-65459580D01*
X64538095Y-65459580D02*
X64585714Y-65507200D01*
X64585714Y-65507200D02*
X64680952Y-65554819D01*
X64680952Y-65554819D02*
X64776190Y-65554819D01*
X64776190Y-65554819D02*
X64871428Y-65507200D01*
X64871428Y-65507200D02*
X64919047Y-65459580D01*
X64919047Y-65459580D02*
X64966666Y-65364342D01*
X64966666Y-65364342D02*
X65014285Y-65173866D01*
X65014285Y-65173866D02*
X65014285Y-64935771D01*
X65014285Y-64935771D02*
X64966666Y-64745295D01*
X64966666Y-64745295D02*
X64919047Y-64650057D01*
X64919047Y-64650057D02*
X64871428Y-64602438D01*
X64871428Y-64602438D02*
X64776190Y-64554819D01*
X64014285Y-64888152D02*
X64014285Y-65554819D01*
X64014285Y-64983390D02*
X63966666Y-64935771D01*
X63966666Y-64935771D02*
X63871428Y-64888152D01*
X63871428Y-64888152D02*
X63728571Y-64888152D01*
X63728571Y-64888152D02*
X63633333Y-64935771D01*
X63633333Y-64935771D02*
X63585714Y-65031009D01*
X63585714Y-65031009D02*
X63585714Y-65554819D01*
X62776190Y-65031009D02*
X63109523Y-65031009D01*
X63109523Y-65554819D02*
X63109523Y-64554819D01*
X63109523Y-64554819D02*
X62633333Y-64554819D01*
X66079523Y-96684819D02*
X66079523Y-97399104D01*
X66079523Y-97399104D02*
X66127142Y-97541961D01*
X66127142Y-97541961D02*
X66222380Y-97637200D01*
X66222380Y-97637200D02*
X66365237Y-97684819D01*
X66365237Y-97684819D02*
X66460475Y-97684819D01*
X65079523Y-97684819D02*
X65650951Y-97684819D01*
X65365237Y-97684819D02*
X65365237Y-96684819D01*
X65365237Y-96684819D02*
X65460475Y-96827676D01*
X65460475Y-96827676D02*
X65555713Y-96922914D01*
X65555713Y-96922914D02*
X65650951Y-96970533D01*
X64174761Y-96684819D02*
X64650951Y-96684819D01*
X64650951Y-96684819D02*
X64698570Y-97161009D01*
X64698570Y-97161009D02*
X64650951Y-97113390D01*
X64650951Y-97113390D02*
X64555713Y-97065771D01*
X64555713Y-97065771D02*
X64317618Y-97065771D01*
X64317618Y-97065771D02*
X64222380Y-97113390D01*
X64222380Y-97113390D02*
X64174761Y-97161009D01*
X64174761Y-97161009D02*
X64127142Y-97256247D01*
X64127142Y-97256247D02*
X64127142Y-97494342D01*
X64127142Y-97494342D02*
X64174761Y-97589580D01*
X64174761Y-97589580D02*
X64222380Y-97637200D01*
X64222380Y-97637200D02*
X64317618Y-97684819D01*
X64317618Y-97684819D02*
X64555713Y-97684819D01*
X64555713Y-97684819D02*
X64650951Y-97637200D01*
X64650951Y-97637200D02*
X64698570Y-97589580D01*
X92621779Y-44109580D02*
X92669398Y-44157200D01*
X92669398Y-44157200D02*
X92812255Y-44204819D01*
X92812255Y-44204819D02*
X92907493Y-44204819D01*
X92907493Y-44204819D02*
X93050350Y-44157200D01*
X93050350Y-44157200D02*
X93145588Y-44061961D01*
X93145588Y-44061961D02*
X93193207Y-43966723D01*
X93193207Y-43966723D02*
X93240826Y-43776247D01*
X93240826Y-43776247D02*
X93240826Y-43633390D01*
X93240826Y-43633390D02*
X93193207Y-43442914D01*
X93193207Y-43442914D02*
X93145588Y-43347676D01*
X93145588Y-43347676D02*
X93050350Y-43252438D01*
X93050350Y-43252438D02*
X92907493Y-43204819D01*
X92907493Y-43204819D02*
X92812255Y-43204819D01*
X92812255Y-43204819D02*
X92669398Y-43252438D01*
X92669398Y-43252438D02*
X92621779Y-43300057D01*
X92240826Y-43300057D02*
X92193207Y-43252438D01*
X92193207Y-43252438D02*
X92097969Y-43204819D01*
X92097969Y-43204819D02*
X91859874Y-43204819D01*
X91859874Y-43204819D02*
X91764636Y-43252438D01*
X91764636Y-43252438D02*
X91717017Y-43300057D01*
X91717017Y-43300057D02*
X91669398Y-43395295D01*
X91669398Y-43395295D02*
X91669398Y-43490533D01*
X91669398Y-43490533D02*
X91717017Y-43633390D01*
X91717017Y-43633390D02*
X92288445Y-44204819D01*
X92288445Y-44204819D02*
X91669398Y-44204819D01*
X85079523Y-80684819D02*
X85079523Y-81399104D01*
X85079523Y-81399104D02*
X85127142Y-81541961D01*
X85127142Y-81541961D02*
X85222380Y-81637200D01*
X85222380Y-81637200D02*
X85365237Y-81684819D01*
X85365237Y-81684819D02*
X85460475Y-81684819D01*
X84650951Y-80780057D02*
X84603332Y-80732438D01*
X84603332Y-80732438D02*
X84508094Y-80684819D01*
X84508094Y-80684819D02*
X84269999Y-80684819D01*
X84269999Y-80684819D02*
X84174761Y-80732438D01*
X84174761Y-80732438D02*
X84127142Y-80780057D01*
X84127142Y-80780057D02*
X84079523Y-80875295D01*
X84079523Y-80875295D02*
X84079523Y-80970533D01*
X84079523Y-80970533D02*
X84127142Y-81113390D01*
X84127142Y-81113390D02*
X84698570Y-81684819D01*
X84698570Y-81684819D02*
X84079523Y-81684819D01*
X83222380Y-81018152D02*
X83222380Y-81684819D01*
X83460475Y-80637200D02*
X83698570Y-81351485D01*
X83698570Y-81351485D02*
X83079523Y-81351485D01*
X66079523Y-126684819D02*
X66079523Y-127399104D01*
X66079523Y-127399104D02*
X66127142Y-127541961D01*
X66127142Y-127541961D02*
X66222380Y-127637200D01*
X66222380Y-127637200D02*
X66365237Y-127684819D01*
X66365237Y-127684819D02*
X66460475Y-127684819D01*
X65079523Y-127684819D02*
X65650951Y-127684819D01*
X65365237Y-127684819D02*
X65365237Y-126684819D01*
X65365237Y-126684819D02*
X65460475Y-126827676D01*
X65460475Y-126827676D02*
X65555713Y-126922914D01*
X65555713Y-126922914D02*
X65650951Y-126970533D01*
X64222380Y-126684819D02*
X64412856Y-126684819D01*
X64412856Y-126684819D02*
X64508094Y-126732438D01*
X64508094Y-126732438D02*
X64555713Y-126780057D01*
X64555713Y-126780057D02*
X64650951Y-126922914D01*
X64650951Y-126922914D02*
X64698570Y-127113390D01*
X64698570Y-127113390D02*
X64698570Y-127494342D01*
X64698570Y-127494342D02*
X64650951Y-127589580D01*
X64650951Y-127589580D02*
X64603332Y-127637200D01*
X64603332Y-127637200D02*
X64508094Y-127684819D01*
X64508094Y-127684819D02*
X64317618Y-127684819D01*
X64317618Y-127684819D02*
X64222380Y-127637200D01*
X64222380Y-127637200D02*
X64174761Y-127589580D01*
X64174761Y-127589580D02*
X64127142Y-127494342D01*
X64127142Y-127494342D02*
X64127142Y-127256247D01*
X64127142Y-127256247D02*
X64174761Y-127161009D01*
X64174761Y-127161009D02*
X64222380Y-127113390D01*
X64222380Y-127113390D02*
X64317618Y-127065771D01*
X64317618Y-127065771D02*
X64508094Y-127065771D01*
X64508094Y-127065771D02*
X64603332Y-127113390D01*
X64603332Y-127113390D02*
X64650951Y-127161009D01*
X64650951Y-127161009D02*
X64698570Y-127256247D01*
X57666666Y-44109580D02*
X57714285Y-44157200D01*
X57714285Y-44157200D02*
X57857142Y-44204819D01*
X57857142Y-44204819D02*
X57952380Y-44204819D01*
X57952380Y-44204819D02*
X58095237Y-44157200D01*
X58095237Y-44157200D02*
X58190475Y-44061961D01*
X58190475Y-44061961D02*
X58238094Y-43966723D01*
X58238094Y-43966723D02*
X58285713Y-43776247D01*
X58285713Y-43776247D02*
X58285713Y-43633390D01*
X58285713Y-43633390D02*
X58238094Y-43442914D01*
X58238094Y-43442914D02*
X58190475Y-43347676D01*
X58190475Y-43347676D02*
X58095237Y-43252438D01*
X58095237Y-43252438D02*
X57952380Y-43204819D01*
X57952380Y-43204819D02*
X57857142Y-43204819D01*
X57857142Y-43204819D02*
X57714285Y-43252438D01*
X57714285Y-43252438D02*
X57666666Y-43300057D01*
X56714285Y-44204819D02*
X57285713Y-44204819D01*
X56999999Y-44204819D02*
X56999999Y-43204819D01*
X56999999Y-43204819D02*
X57095237Y-43347676D01*
X57095237Y-43347676D02*
X57190475Y-43442914D01*
X57190475Y-43442914D02*
X57285713Y-43490533D01*
X85079523Y-96684819D02*
X85079523Y-97399104D01*
X85079523Y-97399104D02*
X85127142Y-97541961D01*
X85127142Y-97541961D02*
X85222380Y-97637200D01*
X85222380Y-97637200D02*
X85365237Y-97684819D01*
X85365237Y-97684819D02*
X85460475Y-97684819D01*
X84650951Y-96780057D02*
X84603332Y-96732438D01*
X84603332Y-96732438D02*
X84508094Y-96684819D01*
X84508094Y-96684819D02*
X84269999Y-96684819D01*
X84269999Y-96684819D02*
X84174761Y-96732438D01*
X84174761Y-96732438D02*
X84127142Y-96780057D01*
X84127142Y-96780057D02*
X84079523Y-96875295D01*
X84079523Y-96875295D02*
X84079523Y-96970533D01*
X84079523Y-96970533D02*
X84127142Y-97113390D01*
X84127142Y-97113390D02*
X84698570Y-97684819D01*
X84698570Y-97684819D02*
X84079523Y-97684819D01*
X83174761Y-96684819D02*
X83650951Y-96684819D01*
X83650951Y-96684819D02*
X83698570Y-97161009D01*
X83698570Y-97161009D02*
X83650951Y-97113390D01*
X83650951Y-97113390D02*
X83555713Y-97065771D01*
X83555713Y-97065771D02*
X83317618Y-97065771D01*
X83317618Y-97065771D02*
X83222380Y-97113390D01*
X83222380Y-97113390D02*
X83174761Y-97161009D01*
X83174761Y-97161009D02*
X83127142Y-97256247D01*
X83127142Y-97256247D02*
X83127142Y-97494342D01*
X83127142Y-97494342D02*
X83174761Y-97589580D01*
X83174761Y-97589580D02*
X83222380Y-97637200D01*
X83222380Y-97637200D02*
X83317618Y-97684819D01*
X83317618Y-97684819D02*
X83555713Y-97684819D01*
X83555713Y-97684819D02*
X83650951Y-97637200D01*
X83650951Y-97637200D02*
X83698570Y-97589580D01*
X65942857Y-58584819D02*
X66276190Y-58108628D01*
X66514285Y-58584819D02*
X66514285Y-57584819D01*
X66514285Y-57584819D02*
X66133333Y-57584819D01*
X66133333Y-57584819D02*
X66038095Y-57632438D01*
X66038095Y-57632438D02*
X65990476Y-57680057D01*
X65990476Y-57680057D02*
X65942857Y-57775295D01*
X65942857Y-57775295D02*
X65942857Y-57918152D01*
X65942857Y-57918152D02*
X65990476Y-58013390D01*
X65990476Y-58013390D02*
X66038095Y-58061009D01*
X66038095Y-58061009D02*
X66133333Y-58108628D01*
X66133333Y-58108628D02*
X66514285Y-58108628D01*
X65085714Y-57918152D02*
X65085714Y-58584819D01*
X65323809Y-57537200D02*
X65561904Y-58251485D01*
X65561904Y-58251485D02*
X64942857Y-58251485D01*
X64514285Y-58584819D02*
X64323809Y-58584819D01*
X64323809Y-58584819D02*
X64228571Y-58537200D01*
X64228571Y-58537200D02*
X64180952Y-58489580D01*
X64180952Y-58489580D02*
X64085714Y-58346723D01*
X64085714Y-58346723D02*
X64038095Y-58156247D01*
X64038095Y-58156247D02*
X64038095Y-57775295D01*
X64038095Y-57775295D02*
X64085714Y-57680057D01*
X64085714Y-57680057D02*
X64133333Y-57632438D01*
X64133333Y-57632438D02*
X64228571Y-57584819D01*
X64228571Y-57584819D02*
X64419047Y-57584819D01*
X64419047Y-57584819D02*
X64514285Y-57632438D01*
X64514285Y-57632438D02*
X64561904Y-57680057D01*
X64561904Y-57680057D02*
X64609523Y-57775295D01*
X64609523Y-57775295D02*
X64609523Y-58013390D01*
X64609523Y-58013390D02*
X64561904Y-58108628D01*
X64561904Y-58108628D02*
X64514285Y-58156247D01*
X64514285Y-58156247D02*
X64419047Y-58203866D01*
X64419047Y-58203866D02*
X64228571Y-58203866D01*
X64228571Y-58203866D02*
X64133333Y-58156247D01*
X64133333Y-58156247D02*
X64085714Y-58108628D01*
X64085714Y-58108628D02*
X64038095Y-58013390D01*
X66561904Y-60288152D02*
X66561904Y-60954819D01*
X66799999Y-59907200D02*
X67038094Y-60621485D01*
X67038094Y-60621485D02*
X66419047Y-60621485D01*
X66133332Y-59954819D02*
X65466666Y-59954819D01*
X65466666Y-59954819D02*
X65895237Y-60954819D01*
X64895237Y-59954819D02*
X64799999Y-59954819D01*
X64799999Y-59954819D02*
X64704761Y-60002438D01*
X64704761Y-60002438D02*
X64657142Y-60050057D01*
X64657142Y-60050057D02*
X64609523Y-60145295D01*
X64609523Y-60145295D02*
X64561904Y-60335771D01*
X64561904Y-60335771D02*
X64561904Y-60573866D01*
X64561904Y-60573866D02*
X64609523Y-60764342D01*
X64609523Y-60764342D02*
X64657142Y-60859580D01*
X64657142Y-60859580D02*
X64704761Y-60907200D01*
X64704761Y-60907200D02*
X64799999Y-60954819D01*
X64799999Y-60954819D02*
X64895237Y-60954819D01*
X64895237Y-60954819D02*
X64990475Y-60907200D01*
X64990475Y-60907200D02*
X65038094Y-60859580D01*
X65038094Y-60859580D02*
X65085713Y-60764342D01*
X65085713Y-60764342D02*
X65133332Y-60573866D01*
X65133332Y-60573866D02*
X65133332Y-60335771D01*
X65133332Y-60335771D02*
X65085713Y-60145295D01*
X65085713Y-60145295D02*
X65038094Y-60050057D01*
X65038094Y-60050057D02*
X64990475Y-60002438D01*
X64990475Y-60002438D02*
X64895237Y-59954819D01*
X63561904Y-60954819D02*
X63895237Y-60478628D01*
X64133332Y-60954819D02*
X64133332Y-59954819D01*
X64133332Y-59954819D02*
X63752380Y-59954819D01*
X63752380Y-59954819D02*
X63657142Y-60002438D01*
X63657142Y-60002438D02*
X63609523Y-60050057D01*
X63609523Y-60050057D02*
X63561904Y-60145295D01*
X63561904Y-60145295D02*
X63561904Y-60288152D01*
X63561904Y-60288152D02*
X63609523Y-60383390D01*
X63609523Y-60383390D02*
X63657142Y-60431009D01*
X63657142Y-60431009D02*
X63752380Y-60478628D01*
X63752380Y-60478628D02*
X64133332Y-60478628D01*
X54061904Y-127802438D02*
X54157142Y-127754819D01*
X54157142Y-127754819D02*
X54299999Y-127754819D01*
X54299999Y-127754819D02*
X54442856Y-127802438D01*
X54442856Y-127802438D02*
X54538094Y-127897676D01*
X54538094Y-127897676D02*
X54585713Y-127992914D01*
X54585713Y-127992914D02*
X54633332Y-128183390D01*
X54633332Y-128183390D02*
X54633332Y-128326247D01*
X54633332Y-128326247D02*
X54585713Y-128516723D01*
X54585713Y-128516723D02*
X54538094Y-128611961D01*
X54538094Y-128611961D02*
X54442856Y-128707200D01*
X54442856Y-128707200D02*
X54299999Y-128754819D01*
X54299999Y-128754819D02*
X54204761Y-128754819D01*
X54204761Y-128754819D02*
X54061904Y-128707200D01*
X54061904Y-128707200D02*
X54014285Y-128659580D01*
X54014285Y-128659580D02*
X54014285Y-128326247D01*
X54014285Y-128326247D02*
X54204761Y-128326247D01*
X53585713Y-128754819D02*
X53585713Y-127754819D01*
X53585713Y-127754819D02*
X53014285Y-128754819D01*
X53014285Y-128754819D02*
X53014285Y-127754819D01*
X52538094Y-128754819D02*
X52538094Y-127754819D01*
X52538094Y-127754819D02*
X52299999Y-127754819D01*
X52299999Y-127754819D02*
X52157142Y-127802438D01*
X52157142Y-127802438D02*
X52061904Y-127897676D01*
X52061904Y-127897676D02*
X52014285Y-127992914D01*
X52014285Y-127992914D02*
X51966666Y-128183390D01*
X51966666Y-128183390D02*
X51966666Y-128326247D01*
X51966666Y-128326247D02*
X52014285Y-128516723D01*
X52014285Y-128516723D02*
X52061904Y-128611961D01*
X52061904Y-128611961D02*
X52157142Y-128707200D01*
X52157142Y-128707200D02*
X52299999Y-128754819D01*
X52299999Y-128754819D02*
X52538094Y-128754819D01*
X68028094Y-55954819D02*
X68028094Y-54954819D01*
X68028094Y-54954819D02*
X67789999Y-54954819D01*
X67789999Y-54954819D02*
X67647142Y-55002438D01*
X67647142Y-55002438D02*
X67551904Y-55097676D01*
X67551904Y-55097676D02*
X67504285Y-55192914D01*
X67504285Y-55192914D02*
X67456666Y-55383390D01*
X67456666Y-55383390D02*
X67456666Y-55526247D01*
X67456666Y-55526247D02*
X67504285Y-55716723D01*
X67504285Y-55716723D02*
X67551904Y-55811961D01*
X67551904Y-55811961D02*
X67647142Y-55907200D01*
X67647142Y-55907200D02*
X67789999Y-55954819D01*
X67789999Y-55954819D02*
X68028094Y-55954819D01*
X66599523Y-55288152D02*
X66599523Y-55954819D01*
X66837618Y-54907200D02*
X67075713Y-55621485D01*
X67075713Y-55621485D02*
X66456666Y-55621485D01*
%TO.C,JP3*%
D14*
X97720000Y-158170000D02*
X94960000Y-158170000D01*
X97720000Y-152980000D02*
X97720000Y-158170000D01*
X97720000Y-152980000D02*
X94960000Y-152980000D01*
X97720000Y-151710000D02*
X97720000Y-150330000D01*
X97720000Y-150330000D02*
X96340000Y-150330000D01*
X94960000Y-152980000D02*
X94960000Y-158170000D01*
%TO.C,JP1*%
X88540000Y-158170000D02*
X85780000Y-158170000D01*
X88540000Y-152980000D02*
X88540000Y-158170000D01*
X88540000Y-152980000D02*
X85780000Y-152980000D01*
X88540000Y-151710000D02*
X88540000Y-150330000D01*
X88540000Y-150330000D02*
X87160000Y-150330000D01*
X85780000Y-152980000D02*
X85780000Y-158170000D01*
%TO.C,JP2*%
X93130000Y-158170000D02*
X90370000Y-158170000D01*
X93130000Y-152980000D02*
X93130000Y-158170000D01*
X93130000Y-152980000D02*
X90370000Y-152980000D01*
X93130000Y-151710000D02*
X93130000Y-150330000D01*
X93130000Y-150330000D02*
X91750000Y-150330000D01*
X90370000Y-152980000D02*
X90370000Y-158170000D01*
%TO.C,J10*%
D12*
X75000000Y-171550000D02*
X72650000Y-171550000D01*
X75000000Y-171550000D02*
X77350000Y-171550000D01*
X75000000Y-179950000D02*
X72650000Y-179950000D01*
X75000000Y-179950000D02*
X77350000Y-179950000D01*
X75000003Y-171550000D02*
X72650003Y-171550000D01*
X75000003Y-171550000D02*
X72650003Y-171550000D01*
X75000003Y-171550000D02*
X77350003Y-171550000D01*
X75000003Y-171550000D02*
X77350003Y-171550000D01*
X75000003Y-179950000D02*
X72650003Y-179950000D01*
X75000003Y-179950000D02*
X72650003Y-179950000D01*
X75000003Y-179950000D02*
X77350003Y-179950000D01*
X75000003Y-179950000D02*
X77350003Y-179950000D01*
X70200000Y-175750000D02*
G75*
G02*
X72656222Y-171561121I4800000J0D01*
G01*
X70200003Y-175750000D02*
G75*
G02*
X72656223Y-171561118I4800007J0D01*
G01*
X70200003Y-175750000D02*
G75*
G02*
X72656223Y-171561118I4800007J0D01*
G01*
X72656222Y-179938879D02*
G75*
G02*
X70200000Y-175750000I2343778J4188879D01*
G01*
X72656225Y-179938879D02*
G75*
G02*
X70200006Y-175750000I2343785J4188879D01*
G01*
X72656225Y-179938879D02*
G75*
G02*
X70200006Y-175750000I2343785J4188879D01*
G01*
X77343778Y-171561121D02*
G75*
G02*
X79800000Y-175750000I-2343781J-4188881D01*
G01*
X77343781Y-171561121D02*
G75*
G02*
X79800003Y-175750000I-2343781J-4188881D01*
G01*
X77343781Y-171561121D02*
G75*
G02*
X79800003Y-175750000I-2343781J-4188881D01*
G01*
X79800000Y-175750000D02*
G75*
G02*
X77343778Y-179938879I-4800003J2D01*
G01*
X79800003Y-175750000D02*
G75*
G02*
X77343781Y-179938879I-4800003J2D01*
G01*
X79800003Y-175750000D02*
G75*
G02*
X77343781Y-179938879I-4800003J2D01*
G01*
%TO.C,J9*%
X54300000Y-175750000D02*
X54300000Y-178100000D01*
X54300000Y-175750000D02*
X54300000Y-173400000D01*
X62700000Y-175750000D02*
X62700000Y-178100000D01*
X62700000Y-175750000D02*
X62700000Y-173400000D01*
X54300000Y-175749997D02*
X54300000Y-178099997D01*
X54300000Y-175749997D02*
X54300000Y-178099997D01*
X54300000Y-175749997D02*
X54300000Y-173399997D01*
X54300000Y-175749997D02*
X54300000Y-173399997D01*
X62700000Y-175749997D02*
X62700000Y-178099997D01*
X62700000Y-175749997D02*
X62700000Y-178099997D01*
X62700000Y-175749997D02*
X62700000Y-173399997D01*
X62700000Y-175749997D02*
X62700000Y-173399997D01*
X58500000Y-180550000D02*
G75*
G02*
X54311121Y-178093778I0J4800000D01*
G01*
X58500000Y-180549997D02*
G75*
G02*
X54311118Y-178093777I0J4800007D01*
G01*
X58500000Y-180549997D02*
G75*
G02*
X54311118Y-178093777I0J4800007D01*
G01*
X62688879Y-178093778D02*
G75*
G02*
X58500000Y-180550000I-4188879J2343778D01*
G01*
X62688879Y-178093775D02*
G75*
G02*
X58500000Y-180549994I-4188879J2343785D01*
G01*
X62688879Y-178093775D02*
G75*
G02*
X58500000Y-180549994I-4188879J2343785D01*
G01*
X54311121Y-173406222D02*
G75*
G02*
X58500000Y-170950000I4188881J-2343781D01*
G01*
X54311121Y-173406219D02*
G75*
G02*
X58500000Y-170949997I4188881J-2343781D01*
G01*
X54311121Y-173406219D02*
G75*
G02*
X58500000Y-170949997I4188881J-2343781D01*
G01*
X58500000Y-170950000D02*
G75*
G02*
X62688879Y-173406222I-2J-4800003D01*
G01*
X58500000Y-170949997D02*
G75*
G02*
X62688879Y-173406219I-2J-4800003D01*
G01*
X58500000Y-170949997D02*
G75*
G02*
X62688879Y-173406219I-2J-4800003D01*
G01*
%TO.C,J8*%
X91500000Y-204550000D02*
X89150000Y-204550000D01*
X91500000Y-204550000D02*
X93850000Y-204550000D01*
X91500000Y-212950000D02*
X89150000Y-212950000D01*
X91500000Y-212950000D02*
X93850000Y-212950000D01*
X91500003Y-204550000D02*
X89150003Y-204550000D01*
X91500003Y-204550000D02*
X89150003Y-204550000D01*
X91500003Y-204550000D02*
X93850003Y-204550000D01*
X91500003Y-204550000D02*
X93850003Y-204550000D01*
X91500003Y-212950000D02*
X89150003Y-212950000D01*
X91500003Y-212950000D02*
X89150003Y-212950000D01*
X91500003Y-212950000D02*
X93850003Y-212950000D01*
X91500003Y-212950000D02*
X93850003Y-212950000D01*
X86700000Y-208750000D02*
G75*
G02*
X89156222Y-204561121I4800000J0D01*
G01*
X86700003Y-208750000D02*
G75*
G02*
X89156223Y-204561118I4800007J0D01*
G01*
X86700003Y-208750000D02*
G75*
G02*
X89156223Y-204561118I4800007J0D01*
G01*
X89156222Y-212938879D02*
G75*
G02*
X86700000Y-208750000I2343778J4188879D01*
G01*
X89156225Y-212938879D02*
G75*
G02*
X86700006Y-208750000I2343785J4188879D01*
G01*
X89156225Y-212938879D02*
G75*
G02*
X86700006Y-208750000I2343785J4188879D01*
G01*
X93843778Y-204561121D02*
G75*
G02*
X96300000Y-208750000I-2343781J-4188881D01*
G01*
X93843781Y-204561121D02*
G75*
G02*
X96300003Y-208750000I-2343781J-4188881D01*
G01*
X93843781Y-204561121D02*
G75*
G02*
X96300003Y-208750000I-2343781J-4188881D01*
G01*
X96300000Y-208750000D02*
G75*
G02*
X93843778Y-212938879I-4800003J2D01*
G01*
X96300003Y-208750000D02*
G75*
G02*
X93843781Y-212938879I-4800003J2D01*
G01*
X96300003Y-208750000D02*
G75*
G02*
X93843781Y-212938879I-4800003J2D01*
G01*
%TO.C,J7*%
X75000000Y-204550000D02*
X72650000Y-204550000D01*
X75000000Y-204550000D02*
X77350000Y-204550000D01*
X75000000Y-212950000D02*
X72650000Y-212950000D01*
X75000000Y-212950000D02*
X77350000Y-212950000D01*
X75000003Y-204550000D02*
X72650003Y-204550000D01*
X75000003Y-204550000D02*
X72650003Y-204550000D01*
X75000003Y-204550000D02*
X77350003Y-204550000D01*
X75000003Y-204550000D02*
X77350003Y-204550000D01*
X75000003Y-212950000D02*
X72650003Y-212950000D01*
X75000003Y-212950000D02*
X72650003Y-212950000D01*
X75000003Y-212950000D02*
X77350003Y-212950000D01*
X75000003Y-212950000D02*
X77350003Y-212950000D01*
X70200000Y-208750000D02*
G75*
G02*
X72656222Y-204561121I4800000J0D01*
G01*
X70200003Y-208750000D02*
G75*
G02*
X72656223Y-204561118I4800007J0D01*
G01*
X70200003Y-208750000D02*
G75*
G02*
X72656223Y-204561118I4800007J0D01*
G01*
X72656222Y-212938879D02*
G75*
G02*
X70200000Y-208750000I2343778J4188879D01*
G01*
X72656225Y-212938879D02*
G75*
G02*
X70200006Y-208750000I2343785J4188879D01*
G01*
X72656225Y-212938879D02*
G75*
G02*
X70200006Y-208750000I2343785J4188879D01*
G01*
X77343778Y-204561121D02*
G75*
G02*
X79800000Y-208750000I-2343781J-4188881D01*
G01*
X77343781Y-204561121D02*
G75*
G02*
X79800003Y-208750000I-2343781J-4188881D01*
G01*
X77343781Y-204561121D02*
G75*
G02*
X79800003Y-208750000I-2343781J-4188881D01*
G01*
X79800000Y-208750000D02*
G75*
G02*
X77343778Y-212938879I-4800003J2D01*
G01*
X79800003Y-208750000D02*
G75*
G02*
X77343781Y-212938879I-4800003J2D01*
G01*
X79800003Y-208750000D02*
G75*
G02*
X77343781Y-212938879I-4800003J2D01*
G01*
%TO.C,J6*%
X54300000Y-208750000D02*
X54300000Y-211100000D01*
X54300000Y-208750000D02*
X54300000Y-206400000D01*
X62700000Y-208750000D02*
X62700000Y-211100000D01*
X62700000Y-208750000D02*
X62700000Y-206400000D01*
X54300000Y-208749997D02*
X54300000Y-211099997D01*
X54300000Y-208749997D02*
X54300000Y-211099997D01*
X54300000Y-208749997D02*
X54300000Y-206399997D01*
X54300000Y-208749997D02*
X54300000Y-206399997D01*
X62700000Y-208749997D02*
X62700000Y-211099997D01*
X62700000Y-208749997D02*
X62700000Y-211099997D01*
X62700000Y-208749997D02*
X62700000Y-206399997D01*
X62700000Y-208749997D02*
X62700000Y-206399997D01*
X58500000Y-213550000D02*
G75*
G02*
X54311121Y-211093778I0J4800000D01*
G01*
X58500000Y-213549997D02*
G75*
G02*
X54311118Y-211093777I0J4800007D01*
G01*
X58500000Y-213549997D02*
G75*
G02*
X54311118Y-211093777I0J4800007D01*
G01*
X62688879Y-211093778D02*
G75*
G02*
X58500000Y-213550000I-4188879J2343778D01*
G01*
X62688879Y-211093775D02*
G75*
G02*
X58500000Y-213549994I-4188879J2343785D01*
G01*
X62688879Y-211093775D02*
G75*
G02*
X58500000Y-213549994I-4188879J2343785D01*
G01*
X54311121Y-206406222D02*
G75*
G02*
X58500000Y-203950000I4188881J-2343781D01*
G01*
X54311121Y-206406219D02*
G75*
G02*
X58500000Y-203949997I4188881J-2343781D01*
G01*
X54311121Y-206406219D02*
G75*
G02*
X58500000Y-203949997I4188881J-2343781D01*
G01*
X58500000Y-203950000D02*
G75*
G02*
X62688879Y-206406222I-2J-4800003D01*
G01*
X58500000Y-203949997D02*
G75*
G02*
X62688879Y-206406219I-2J-4800003D01*
G01*
X58500000Y-203949997D02*
G75*
G02*
X62688879Y-206406219I-2J-4800003D01*
G01*
%TO.C,J5*%
X75000000Y-155050000D02*
X72650000Y-155050000D01*
X75000000Y-155050000D02*
X77350000Y-155050000D01*
X75000000Y-163450000D02*
X72650000Y-163450000D01*
X75000000Y-163450000D02*
X77350000Y-163450000D01*
X75000003Y-155050000D02*
X72650003Y-155050000D01*
X75000003Y-155050000D02*
X72650003Y-155050000D01*
X75000003Y-155050000D02*
X77350003Y-155050000D01*
X75000003Y-155050000D02*
X77350003Y-155050000D01*
X75000003Y-163450000D02*
X72650003Y-163450000D01*
X75000003Y-163450000D02*
X72650003Y-163450000D01*
X75000003Y-163450000D02*
X77350003Y-163450000D01*
X75000003Y-163450000D02*
X77350003Y-163450000D01*
X70200000Y-159250000D02*
G75*
G02*
X72656222Y-155061121I4800000J0D01*
G01*
X70200003Y-159250000D02*
G75*
G02*
X72656223Y-155061118I4800007J0D01*
G01*
X70200003Y-159250000D02*
G75*
G02*
X72656223Y-155061118I4800007J0D01*
G01*
X72656222Y-163438879D02*
G75*
G02*
X70200000Y-159250000I2343778J4188879D01*
G01*
X72656225Y-163438879D02*
G75*
G02*
X70200006Y-159250000I2343785J4188879D01*
G01*
X72656225Y-163438879D02*
G75*
G02*
X70200006Y-159250000I2343785J4188879D01*
G01*
X77343778Y-155061121D02*
G75*
G02*
X79800000Y-159250000I-2343781J-4188881D01*
G01*
X77343781Y-155061121D02*
G75*
G02*
X79800003Y-159250000I-2343781J-4188881D01*
G01*
X77343781Y-155061121D02*
G75*
G02*
X79800003Y-159250000I-2343781J-4188881D01*
G01*
X79800000Y-159250000D02*
G75*
G02*
X77343778Y-163438879I-4800003J2D01*
G01*
X79800003Y-159250000D02*
G75*
G02*
X77343781Y-163438879I-4800003J2D01*
G01*
X79800003Y-159250000D02*
G75*
G02*
X77343781Y-163438879I-4800003J2D01*
G01*
%TO.C,J4*%
X54300000Y-159250000D02*
X54300000Y-161600000D01*
X54300000Y-159250000D02*
X54300000Y-156900000D01*
X62700000Y-159250000D02*
X62700000Y-161600000D01*
X62700000Y-159250000D02*
X62700000Y-156900000D01*
X54300000Y-159249997D02*
X54300000Y-161599997D01*
X54300000Y-159249997D02*
X54300000Y-161599997D01*
X54300000Y-159249997D02*
X54300000Y-156899997D01*
X54300000Y-159249997D02*
X54300000Y-156899997D01*
X62700000Y-159249997D02*
X62700000Y-161599997D01*
X62700000Y-159249997D02*
X62700000Y-161599997D01*
X62700000Y-159249997D02*
X62700000Y-156899997D01*
X62700000Y-159249997D02*
X62700000Y-156899997D01*
X58500000Y-164050000D02*
G75*
G02*
X54311121Y-161593778I0J4800000D01*
G01*
X58500000Y-164049997D02*
G75*
G02*
X54311118Y-161593777I0J4800007D01*
G01*
X58500000Y-164049997D02*
G75*
G02*
X54311118Y-161593777I0J4800007D01*
G01*
X62688879Y-161593778D02*
G75*
G02*
X58500000Y-164050000I-4188879J2343778D01*
G01*
X62688879Y-161593775D02*
G75*
G02*
X58500000Y-164049994I-4188879J2343785D01*
G01*
X62688879Y-161593775D02*
G75*
G02*
X58500000Y-164049994I-4188879J2343785D01*
G01*
X54311121Y-156906222D02*
G75*
G02*
X58500000Y-154450000I4188881J-2343781D01*
G01*
X54311121Y-156906219D02*
G75*
G02*
X58500000Y-154449997I4188881J-2343781D01*
G01*
X54311121Y-156906219D02*
G75*
G02*
X58500000Y-154449997I4188881J-2343781D01*
G01*
X58500000Y-154450000D02*
G75*
G02*
X62688879Y-156906222I-2J-4800003D01*
G01*
X58500000Y-154449997D02*
G75*
G02*
X62688879Y-156906219I-2J-4800003D01*
G01*
X58500000Y-154449997D02*
G75*
G02*
X62688879Y-156906219I-2J-4800003D01*
G01*
%TO.C,J3*%
X91500000Y-188050000D02*
X89150000Y-188050000D01*
X91500000Y-188050000D02*
X93850000Y-188050000D01*
X91500000Y-196450000D02*
X89150000Y-196450000D01*
X91500000Y-196450000D02*
X93850000Y-196450000D01*
X91500003Y-188050000D02*
X89150003Y-188050000D01*
X91500003Y-188050000D02*
X89150003Y-188050000D01*
X91500003Y-188050000D02*
X93850003Y-188050000D01*
X91500003Y-188050000D02*
X93850003Y-188050000D01*
X91500003Y-196450000D02*
X89150003Y-196450000D01*
X91500003Y-196450000D02*
X89150003Y-196450000D01*
X91500003Y-196450000D02*
X93850003Y-196450000D01*
X91500003Y-196450000D02*
X93850003Y-196450000D01*
X86700000Y-192250000D02*
G75*
G02*
X89156222Y-188061121I4800000J0D01*
G01*
X86700003Y-192250000D02*
G75*
G02*
X89156223Y-188061118I4800007J0D01*
G01*
X86700003Y-192250000D02*
G75*
G02*
X89156223Y-188061118I4800007J0D01*
G01*
X89156222Y-196438879D02*
G75*
G02*
X86700000Y-192250000I2343778J4188879D01*
G01*
X89156225Y-196438879D02*
G75*
G02*
X86700006Y-192250000I2343785J4188879D01*
G01*
X89156225Y-196438879D02*
G75*
G02*
X86700006Y-192250000I2343785J4188879D01*
G01*
X93843778Y-188061121D02*
G75*
G02*
X96300000Y-192250000I-2343781J-4188881D01*
G01*
X93843781Y-188061121D02*
G75*
G02*
X96300003Y-192250000I-2343781J-4188881D01*
G01*
X93843781Y-188061121D02*
G75*
G02*
X96300003Y-192250000I-2343781J-4188881D01*
G01*
X96300000Y-192250000D02*
G75*
G02*
X93843778Y-196438879I-4800003J2D01*
G01*
X96300003Y-192250000D02*
G75*
G02*
X93843781Y-196438879I-4800003J2D01*
G01*
X96300003Y-192250000D02*
G75*
G02*
X93843781Y-196438879I-4800003J2D01*
G01*
%TO.C,J2*%
X75000000Y-188050000D02*
X72650000Y-188050000D01*
X75000000Y-188050000D02*
X77350000Y-188050000D01*
X75000000Y-196450000D02*
X72650000Y-196450000D01*
X75000000Y-196450000D02*
X77350000Y-196450000D01*
X75000003Y-188050000D02*
X72650003Y-188050000D01*
X75000003Y-188050000D02*
X72650003Y-188050000D01*
X75000003Y-188050000D02*
X77350003Y-188050000D01*
X75000003Y-188050000D02*
X77350003Y-188050000D01*
X75000003Y-196450000D02*
X72650003Y-196450000D01*
X75000003Y-196450000D02*
X72650003Y-196450000D01*
X75000003Y-196450000D02*
X77350003Y-196450000D01*
X75000003Y-196450000D02*
X77350003Y-196450000D01*
X70200000Y-192250000D02*
G75*
G02*
X72656222Y-188061121I4800000J0D01*
G01*
X70200003Y-192250000D02*
G75*
G02*
X72656223Y-188061118I4800007J0D01*
G01*
X70200003Y-192250000D02*
G75*
G02*
X72656223Y-188061118I4800007J0D01*
G01*
X72656222Y-196438879D02*
G75*
G02*
X70200000Y-192250000I2343778J4188879D01*
G01*
X72656225Y-196438879D02*
G75*
G02*
X70200006Y-192250000I2343785J4188879D01*
G01*
X72656225Y-196438879D02*
G75*
G02*
X70200006Y-192250000I2343785J4188879D01*
G01*
X77343778Y-188061121D02*
G75*
G02*
X79800000Y-192250000I-2343781J-4188881D01*
G01*
X77343781Y-188061121D02*
G75*
G02*
X79800003Y-192250000I-2343781J-4188881D01*
G01*
X77343781Y-188061121D02*
G75*
G02*
X79800003Y-192250000I-2343781J-4188881D01*
G01*
X79800000Y-192250000D02*
G75*
G02*
X77343778Y-196438879I-4800003J2D01*
G01*
X79800003Y-192250000D02*
G75*
G02*
X77343781Y-196438879I-4800003J2D01*
G01*
X79800003Y-192250000D02*
G75*
G02*
X77343781Y-196438879I-4800003J2D01*
G01*
%TO.C,J1*%
X54300000Y-192250000D02*
X54300000Y-194600000D01*
X54300000Y-192250000D02*
X54300000Y-189900000D01*
X62700000Y-192250000D02*
X62700000Y-194600000D01*
X62700000Y-192250000D02*
X62700000Y-189900000D01*
X54300000Y-192249997D02*
X54300000Y-194599997D01*
X54300000Y-192249997D02*
X54300000Y-194599997D01*
X54300000Y-192249997D02*
X54300000Y-189899997D01*
X54300000Y-192249997D02*
X54300000Y-189899997D01*
X62700000Y-192249997D02*
X62700000Y-194599997D01*
X62700000Y-192249997D02*
X62700000Y-194599997D01*
X62700000Y-192249997D02*
X62700000Y-189899997D01*
X62700000Y-192249997D02*
X62700000Y-189899997D01*
X58500000Y-197050000D02*
G75*
G02*
X54311121Y-194593778I0J4800000D01*
G01*
X58500000Y-197049997D02*
G75*
G02*
X54311118Y-194593777I0J4800007D01*
G01*
X58500000Y-197049997D02*
G75*
G02*
X54311118Y-194593777I0J4800007D01*
G01*
X62688879Y-194593778D02*
G75*
G02*
X58500000Y-197050000I-4188879J2343778D01*
G01*
X62688879Y-194593775D02*
G75*
G02*
X58500000Y-197049994I-4188879J2343785D01*
G01*
X62688879Y-194593775D02*
G75*
G02*
X58500000Y-197049994I-4188879J2343785D01*
G01*
X54311121Y-189906222D02*
G75*
G02*
X58500000Y-187450000I4188881J-2343781D01*
G01*
X54311121Y-189906219D02*
G75*
G02*
X58500000Y-187449997I4188881J-2343781D01*
G01*
X54311121Y-189906219D02*
G75*
G02*
X58500000Y-187449997I4188881J-2343781D01*
G01*
X58500000Y-187450000D02*
G75*
G02*
X62688879Y-189906222I-2J-4800003D01*
G01*
X58500000Y-187449997D02*
G75*
G02*
X62688879Y-189906219I-2J-4800003D01*
G01*
X58500000Y-187449997D02*
G75*
G02*
X62688879Y-189906219I-2J-4800003D01*
G01*
%TO.C,D3*%
D14*
X79360000Y-55500000D02*
X80380000Y-55500000D01*
X81160000Y-56970000D02*
X81160000Y-54030000D01*
X81280000Y-56970000D02*
X81280000Y-54030000D01*
X81400000Y-56970000D02*
X81400000Y-54030000D01*
X86840000Y-55500000D02*
X85820000Y-55500000D01*
X80380000Y-54030000D02*
X85820000Y-54030000D01*
X85820000Y-56970000D01*
X80380000Y-56970000D01*
X80380000Y-54030000D01*
%TO.C,J26*%
X81670000Y-128670000D02*
X81670000Y-130000000D01*
X81670000Y-131270000D02*
X81670000Y-136410000D01*
X83000000Y-128670000D02*
X81670000Y-128670000D01*
X84270000Y-128670000D02*
X84270000Y-131270000D01*
X84270000Y-131270000D02*
X81670000Y-131270000D01*
X86870000Y-128670000D02*
X84270000Y-128670000D01*
X86870000Y-128670000D02*
X86870000Y-136410000D01*
X86870000Y-136410000D02*
X81670000Y-136410000D01*
%TO.C,J100*%
X60900000Y-42970000D02*
X60900000Y-52090000D01*
X60900000Y-52090000D02*
X89100000Y-52090000D01*
X62200000Y-44280000D02*
X62200000Y-50780000D01*
X62200000Y-50780000D02*
X72950000Y-50780000D01*
D15*
X72950000Y-50780000D02*
X72949999Y-50780000D01*
X72949999Y-50780000D01*
X72949999Y-50780000D01*
X72949999Y-50780000D01*
X72949999Y-50780000D01*
X72949999Y-50780000D01*
X72949999Y-50780000D01*
X72949999Y-50779999D01*
X72949999Y-50779999D01*
X72949999Y-50779999D01*
X72949999Y-50779999D01*
X72949999Y-50779999D01*
X72950000Y-50779999D01*
X72950000Y-50779999D01*
X72950000Y-50779999D01*
X72950000Y-50779999D01*
X72950000Y-50779999D01*
X72950000Y-50779999D01*
X72950000Y-50779999D01*
X72950000Y-50779999D01*
X72950000Y-50779999D01*
X72950000Y-50779999D01*
X72950000Y-50779999D01*
X72950000Y-50779999D01*
X72950001Y-50779999D01*
X72950001Y-50779999D01*
X72950001Y-50779999D01*
X72950001Y-50779999D01*
X72950001Y-50779999D01*
X72950001Y-50779999D01*
X72950001Y-50780000D01*
X72950001Y-50780000D01*
X72950001Y-50780000D01*
X72950001Y-50780000D01*
X72950001Y-50780000D01*
X72950001Y-50780000D01*
X72950001Y-50780000D01*
X72950000Y-50780000D01*
X72950000Y-50780000D02*
X72950001Y-50780000D01*
X72950001Y-50780000D01*
X72950001Y-50780000D01*
X72950001Y-50780000D01*
X72950001Y-50780000D01*
X72950001Y-50780000D01*
X72950001Y-50780001D01*
X72950001Y-50780001D01*
X72950001Y-50780001D01*
X72950001Y-50780001D01*
X72950001Y-50780001D01*
X72950001Y-50780001D01*
X72950001Y-50780001D01*
X72950000Y-50780001D01*
X72950000Y-50780001D01*
X72950000Y-50780001D01*
X72950000Y-50780001D01*
X72950000Y-50780001D01*
X72950000Y-50780001D01*
X72950000Y-50780001D01*
X72950000Y-50780001D01*
X72950000Y-50780001D01*
X72950000Y-50780001D01*
X72950000Y-50780001D01*
X72950000Y-50780001D01*
X72949999Y-50780001D01*
X72949999Y-50780001D01*
X72949999Y-50780001D01*
X72949999Y-50780001D01*
X72949999Y-50780001D01*
X72949999Y-50780001D01*
X72949999Y-50780000D01*
X72949999Y-50780000D01*
X72949999Y-50780000D01*
X72949999Y-50780000D01*
X72949999Y-50780000D01*
X72949999Y-50780000D01*
X72950000Y-50780000D01*
D14*
X72950000Y-50780000D02*
X72950000Y-52090000D01*
X77050000Y-50780000D02*
X87800000Y-50780000D01*
X77050000Y-52090000D02*
X77050000Y-50780000D01*
X83390000Y-53480000D02*
X83890000Y-52480000D01*
X83890000Y-52480000D02*
X84390000Y-53480000D01*
X84390000Y-53480000D02*
X83390000Y-53480000D01*
X87800000Y-44280000D02*
X62200000Y-44280000D01*
X87800000Y-50780000D02*
X87800000Y-44280000D01*
X89100000Y-42970000D02*
X60900000Y-42970000D01*
X89100000Y-52090000D02*
X89100000Y-42970000D01*
%TO.C,U10*%
X76800000Y-61910000D02*
X73200000Y-61910000D01*
X73161522Y-61898478D02*
G75*
G02*
X75000000Y-57459999I1838478J1838478D01*
G01*
X75000000Y-57460000D02*
G75*
G02*
X76838478Y-61898478I0J-2600000D01*
G01*
%TO.C,J14*%
X62670000Y-82670000D02*
X62670000Y-84000000D01*
X62670000Y-85270000D02*
X62670000Y-90410000D01*
X64000000Y-82670000D02*
X62670000Y-82670000D01*
X65270000Y-82670000D02*
X65270000Y-85270000D01*
X65270000Y-85270000D02*
X62670000Y-85270000D01*
X67870000Y-82670000D02*
X65270000Y-82670000D01*
X67870000Y-82670000D02*
X67870000Y-90410000D01*
X67870000Y-90410000D02*
X62670000Y-90410000D01*
%TO.C,J200*%
X85817500Y-176330000D02*
X86817500Y-176830000D01*
X85817500Y-177330000D02*
X85817500Y-176330000D01*
X86817500Y-176830000D02*
X85817500Y-177330000D01*
X87207500Y-161460000D02*
X87207500Y-182040000D01*
X87207500Y-173800000D02*
X88517500Y-173800000D01*
X87207500Y-182040000D02*
X96327500Y-182040000D01*
X88517500Y-162760000D02*
X88517500Y-169700000D01*
X88517500Y-169700000D02*
X87207500Y-169700000D01*
D15*
X88517500Y-169700000D02*
X88517499Y-169700000D01*
X88517499Y-169700000D01*
X88517499Y-169700000D01*
X88517499Y-169700000D01*
X88517499Y-169700000D01*
X88517499Y-169700000D01*
X88517499Y-169700000D01*
X88517499Y-169699999D01*
X88517499Y-169699999D01*
X88517499Y-169699999D01*
X88517499Y-169699999D01*
X88517499Y-169699999D01*
X88517500Y-169699999D01*
X88517500Y-169699999D01*
X88517500Y-169699999D01*
X88517500Y-169699999D01*
X88517500Y-169699999D01*
X88517500Y-169699999D01*
X88517500Y-169699999D01*
X88517500Y-169699999D01*
X88517500Y-169699999D01*
X88517500Y-169699999D01*
X88517500Y-169699999D01*
X88517500Y-169699999D01*
X88517501Y-169699999D01*
X88517501Y-169699999D01*
X88517501Y-169699999D01*
X88517501Y-169699999D01*
X88517501Y-169699999D01*
X88517501Y-169699999D01*
X88517501Y-169700000D01*
X88517501Y-169700000D01*
X88517501Y-169700000D01*
X88517501Y-169700000D01*
X88517501Y-169700000D01*
X88517501Y-169700000D01*
X88517501Y-169700000D01*
X88517500Y-169700000D01*
X88517500Y-169700000D02*
X88517501Y-169700000D01*
X88517501Y-169700000D01*
X88517501Y-169700000D01*
X88517501Y-169700000D01*
X88517501Y-169700000D01*
X88517501Y-169700000D01*
X88517501Y-169700001D01*
X88517501Y-169700001D01*
X88517501Y-169700001D01*
X88517501Y-169700001D01*
X88517501Y-169700001D01*
X88517501Y-169700001D01*
X88517501Y-169700001D01*
X88517500Y-169700001D01*
X88517500Y-169700001D01*
X88517500Y-169700001D01*
X88517500Y-169700001D01*
X88517500Y-169700001D01*
X88517500Y-169700001D01*
X88517500Y-169700001D01*
X88517500Y-169700001D01*
X88517500Y-169700001D01*
X88517500Y-169700001D01*
X88517500Y-169700001D01*
X88517500Y-169700001D01*
X88517499Y-169700001D01*
X88517499Y-169700001D01*
X88517499Y-169700001D01*
X88517499Y-169700001D01*
X88517499Y-169700001D01*
X88517499Y-169700001D01*
X88517499Y-169700000D01*
X88517499Y-169700000D01*
X88517499Y-169700000D01*
X88517499Y-169700000D01*
X88517499Y-169700000D01*
X88517499Y-169700000D01*
X88517500Y-169700000D01*
D14*
X88517500Y-173800000D02*
X88517500Y-180740000D01*
X88517500Y-180740000D02*
X95017500Y-180740000D01*
X95017500Y-162760000D02*
X88517500Y-162760000D01*
X95017500Y-180740000D02*
X95017500Y-162760000D01*
X96327500Y-161460000D02*
X87207500Y-161460000D01*
X96327500Y-182040000D02*
X96327500Y-161460000D01*
%TO.C,C5*%
X63030000Y-66114000D02*
X63030000Y-66170000D01*
X63030000Y-66170000D02*
X67570000Y-66170000D01*
X67570000Y-64030000D02*
X63030000Y-64030000D01*
X67570000Y-64086000D02*
X67570000Y-64030000D01*
%TO.C,J15*%
X62670000Y-98670000D02*
X62670000Y-100000000D01*
X62670000Y-101270000D02*
X62670000Y-114030000D01*
X64000000Y-98670000D02*
X62670000Y-98670000D01*
X65270000Y-98670000D02*
X65270000Y-101270000D01*
X65270000Y-101270000D02*
X62670000Y-101270000D01*
X67870000Y-98670000D02*
X65270000Y-98670000D01*
X67870000Y-98670000D02*
X67870000Y-114030000D01*
X67870000Y-114030000D02*
X62670000Y-114030000D01*
%TO.C,C2*%
X89855113Y-47217000D02*
X89855113Y-47783000D01*
X89895113Y-46983000D02*
X89895113Y-48017000D01*
X89935113Y-46823000D02*
X89935113Y-48177000D01*
X89975113Y-46695000D02*
X89975113Y-48305000D01*
X90015113Y-46586000D02*
X90015113Y-48414000D01*
X90055113Y-46489000D02*
X90055113Y-48511000D01*
X90095113Y-46402000D02*
X90095113Y-48598000D01*
X90135113Y-46323000D02*
X90135113Y-48677000D01*
X90175113Y-46249000D02*
X90175113Y-48751000D01*
X90215113Y-46181000D02*
X90215113Y-48819000D01*
X90255113Y-46117000D02*
X90255113Y-48883000D01*
X90295113Y-46057000D02*
X90295113Y-48943000D01*
X90335113Y-46001000D02*
X90335113Y-48999000D01*
X90375113Y-45947000D02*
X90375113Y-49053000D01*
X90415113Y-45896000D02*
X90415113Y-49104000D01*
X90455113Y-45848000D02*
X90455113Y-46460000D01*
X90455113Y-48540000D02*
X90455113Y-49152000D01*
X90495113Y-45801000D02*
X90495113Y-46460000D01*
X90495113Y-48540000D02*
X90495113Y-49199000D01*
X90535113Y-45757000D02*
X90535113Y-46460000D01*
X90535113Y-48540000D02*
X90535113Y-49243000D01*
X90575113Y-45715000D02*
X90575113Y-46460000D01*
X90575113Y-48540000D02*
X90575113Y-49285000D01*
X90615113Y-45675000D02*
X90615113Y-46460000D01*
X90615113Y-48540000D02*
X90615113Y-49325000D01*
X90655113Y-45636000D02*
X90655113Y-46460000D01*
X90655113Y-48540000D02*
X90655113Y-49364000D01*
X90695113Y-45599000D02*
X90695113Y-46460000D01*
X90695113Y-48540000D02*
X90695113Y-49401000D01*
X90735113Y-45564000D02*
X90735113Y-46460000D01*
X90735113Y-48540000D02*
X90735113Y-49436000D01*
X90775113Y-45530000D02*
X90775113Y-46460000D01*
X90775113Y-48540000D02*
X90775113Y-49470000D01*
X90815113Y-45497000D02*
X90815113Y-46460000D01*
X90815113Y-48540000D02*
X90815113Y-49503000D01*
X90855113Y-45465000D02*
X90855113Y-46460000D01*
X90855113Y-48540000D02*
X90855113Y-49535000D01*
X90895113Y-45435000D02*
X90895113Y-46460000D01*
X90895113Y-48540000D02*
X90895113Y-49565000D01*
X90935113Y-45406000D02*
X90935113Y-46460000D01*
X90935113Y-48540000D02*
X90935113Y-49594000D01*
X90975113Y-45378000D02*
X90975113Y-46460000D01*
X90975113Y-48540000D02*
X90975113Y-49622000D01*
X91015113Y-45351000D02*
X91015113Y-46460000D01*
X91015113Y-48540000D02*
X91015113Y-49649000D01*
X91055113Y-45325000D02*
X91055113Y-46460000D01*
X91055113Y-48540000D02*
X91055113Y-49675000D01*
X91095113Y-45301000D02*
X91095113Y-46460000D01*
X91095113Y-48540000D02*
X91095113Y-49699000D01*
X91135113Y-45277000D02*
X91135113Y-46460000D01*
X91135113Y-48540000D02*
X91135113Y-49723000D01*
X91175113Y-45254000D02*
X91175113Y-46460000D01*
X91175113Y-48540000D02*
X91175113Y-49746000D01*
X91215113Y-45232000D02*
X91215113Y-46460000D01*
X91215113Y-48540000D02*
X91215113Y-49768000D01*
X91255113Y-45211000D02*
X91255113Y-46460000D01*
X91255113Y-48540000D02*
X91255113Y-49789000D01*
X91295113Y-45191000D02*
X91295113Y-46460000D01*
X91295113Y-48540000D02*
X91295113Y-49809000D01*
X91335113Y-45171000D02*
X91335113Y-46460000D01*
X91335113Y-48540000D02*
X91335113Y-49829000D01*
X91375113Y-45153000D02*
X91375113Y-46460000D01*
X91375113Y-48540000D02*
X91375113Y-49847000D01*
X91415113Y-45135000D02*
X91415113Y-46460000D01*
X91415113Y-48540000D02*
X91415113Y-49865000D01*
X91455113Y-45118000D02*
X91455113Y-46460000D01*
X91455113Y-48540000D02*
X91455113Y-49882000D01*
X91495113Y-45102000D02*
X91495113Y-46460000D01*
X91495113Y-48540000D02*
X91495113Y-49898000D01*
X91535113Y-45087000D02*
X91535113Y-46460000D01*
X91535113Y-48540000D02*
X91535113Y-49913000D01*
X91575113Y-45072000D02*
X91575113Y-46460000D01*
X91575113Y-48540000D02*
X91575113Y-49928000D01*
X91615113Y-45058000D02*
X91615113Y-46460000D01*
X91615113Y-48540000D02*
X91615113Y-49942000D01*
X91655113Y-45045000D02*
X91655113Y-46460000D01*
X91655113Y-48540000D02*
X91655113Y-49955000D01*
X91695113Y-45033000D02*
X91695113Y-46460000D01*
X91695113Y-48540000D02*
X91695113Y-49967000D01*
X91735113Y-45021000D02*
X91735113Y-46460000D01*
X91735113Y-48540000D02*
X91735113Y-49979000D01*
X91775113Y-45010000D02*
X91775113Y-46460000D01*
X91775113Y-48540000D02*
X91775113Y-49990000D01*
X91815113Y-44999000D02*
X91815113Y-46460000D01*
X91815113Y-48540000D02*
X91815113Y-50001000D01*
X91855113Y-44990000D02*
X91855113Y-46460000D01*
X91855113Y-48540000D02*
X91855113Y-50010000D01*
X91895113Y-44981000D02*
X91895113Y-46460000D01*
X91895113Y-48540000D02*
X91895113Y-50019000D01*
X91935113Y-44972000D02*
X91935113Y-46460000D01*
X91935113Y-48540000D02*
X91935113Y-50028000D01*
X91975113Y-44964000D02*
X91975113Y-46460000D01*
X91975113Y-48540000D02*
X91975113Y-50036000D01*
X92015113Y-44957000D02*
X92015113Y-46460000D01*
X92015113Y-48540000D02*
X92015113Y-50043000D01*
X92055113Y-44951000D02*
X92055113Y-46460000D01*
X92055113Y-48540000D02*
X92055113Y-50049000D01*
X92095113Y-44945000D02*
X92095113Y-46460000D01*
X92095113Y-48540000D02*
X92095113Y-50055000D01*
X92135113Y-44940000D02*
X92135113Y-46460000D01*
X92135113Y-48540000D02*
X92135113Y-50060000D01*
X92175113Y-44935000D02*
X92175113Y-46460000D01*
X92175113Y-48540000D02*
X92175113Y-50065000D01*
X92215113Y-44931000D02*
X92215113Y-46460000D01*
X92215113Y-48540000D02*
X92215113Y-50069000D01*
X92255113Y-44928000D02*
X92255113Y-46460000D01*
X92255113Y-48540000D02*
X92255113Y-50072000D01*
X92295113Y-44925000D02*
X92295113Y-46460000D01*
X92295113Y-48540000D02*
X92295113Y-50075000D01*
X92335113Y-44923000D02*
X92335113Y-46460000D01*
X92335113Y-48540000D02*
X92335113Y-50077000D01*
X92375113Y-44921000D02*
X92375113Y-46460000D01*
X92375113Y-48540000D02*
X92375113Y-50079000D01*
X92415113Y-44920000D02*
X92415113Y-46460000D01*
X92415113Y-48540000D02*
X92415113Y-50080000D01*
X92455113Y-44920000D02*
X92455113Y-46460000D01*
X92455113Y-48540000D02*
X92455113Y-50080000D01*
X95009888Y-45775000D02*
X95009888Y-46275000D01*
X95259888Y-46025000D02*
X94759888Y-46025000D01*
X95075113Y-47500000D02*
G75*
G02*
X89835113Y-47500000I-2620000J0D01*
G01*
X89835113Y-47500000D02*
G75*
G02*
X95075113Y-47500000I2620000J0D01*
G01*
%TO.C,J24*%
X81670000Y-82670000D02*
X81670000Y-84000000D01*
X81670000Y-85270000D02*
X81670000Y-90410000D01*
X83000000Y-82670000D02*
X81670000Y-82670000D01*
X84270000Y-82670000D02*
X84270000Y-85270000D01*
X84270000Y-85270000D02*
X81670000Y-85270000D01*
X86870000Y-82670000D02*
X84270000Y-82670000D01*
X86870000Y-82670000D02*
X86870000Y-90410000D01*
X86870000Y-90410000D02*
X81670000Y-90410000D01*
%TO.C,J16*%
X62670000Y-128670000D02*
X62670000Y-130000000D01*
X62670000Y-131270000D02*
X62670000Y-136410000D01*
X64000000Y-128670000D02*
X62670000Y-128670000D01*
X65270000Y-128670000D02*
X65270000Y-131270000D01*
X65270000Y-131270000D02*
X62670000Y-131270000D01*
X67870000Y-128670000D02*
X65270000Y-128670000D01*
X67870000Y-128670000D02*
X67870000Y-136410000D01*
X67870000Y-136410000D02*
X62670000Y-136410000D01*
%TO.C,C1*%
X54900000Y-47217000D02*
X54900000Y-47783000D01*
X54940000Y-46983000D02*
X54940000Y-48017000D01*
X54980000Y-46823000D02*
X54980000Y-48177000D01*
X55020000Y-46695000D02*
X55020000Y-48305000D01*
X55060000Y-46586000D02*
X55060000Y-48414000D01*
X55100000Y-46489000D02*
X55100000Y-48511000D01*
X55140000Y-46402000D02*
X55140000Y-48598000D01*
X55180000Y-46323000D02*
X55180000Y-48677000D01*
X55220000Y-46249000D02*
X55220000Y-48751000D01*
X55260000Y-46181000D02*
X55260000Y-48819000D01*
X55300000Y-46117000D02*
X55300000Y-48883000D01*
X55340000Y-46057000D02*
X55340000Y-48943000D01*
X55380000Y-46001000D02*
X55380000Y-48999000D01*
X55420000Y-45947000D02*
X55420000Y-49053000D01*
X55460000Y-45896000D02*
X55460000Y-49104000D01*
X55500000Y-45848000D02*
X55500000Y-46460000D01*
X55500000Y-48540000D02*
X55500000Y-49152000D01*
X55540000Y-45801000D02*
X55540000Y-46460000D01*
X55540000Y-48540000D02*
X55540000Y-49199000D01*
X55580000Y-45757000D02*
X55580000Y-46460000D01*
X55580000Y-48540000D02*
X55580000Y-49243000D01*
X55620000Y-45715000D02*
X55620000Y-46460000D01*
X55620000Y-48540000D02*
X55620000Y-49285000D01*
X55660000Y-45675000D02*
X55660000Y-46460000D01*
X55660000Y-48540000D02*
X55660000Y-49325000D01*
X55700000Y-45636000D02*
X55700000Y-46460000D01*
X55700000Y-48540000D02*
X55700000Y-49364000D01*
X55740000Y-45599000D02*
X55740000Y-46460000D01*
X55740000Y-48540000D02*
X55740000Y-49401000D01*
X55780000Y-45564000D02*
X55780000Y-46460000D01*
X55780000Y-48540000D02*
X55780000Y-49436000D01*
X55820000Y-45530000D02*
X55820000Y-46460000D01*
X55820000Y-48540000D02*
X55820000Y-49470000D01*
X55860000Y-45497000D02*
X55860000Y-46460000D01*
X55860000Y-48540000D02*
X55860000Y-49503000D01*
X55900000Y-45465000D02*
X55900000Y-46460000D01*
X55900000Y-48540000D02*
X55900000Y-49535000D01*
X55940000Y-45435000D02*
X55940000Y-46460000D01*
X55940000Y-48540000D02*
X55940000Y-49565000D01*
X55980000Y-45406000D02*
X55980000Y-46460000D01*
X55980000Y-48540000D02*
X55980000Y-49594000D01*
X56020000Y-45378000D02*
X56020000Y-46460000D01*
X56020000Y-48540000D02*
X56020000Y-49622000D01*
X56060000Y-45351000D02*
X56060000Y-46460000D01*
X56060000Y-48540000D02*
X56060000Y-49649000D01*
X56100000Y-45325000D02*
X56100000Y-46460000D01*
X56100000Y-48540000D02*
X56100000Y-49675000D01*
X56140000Y-45301000D02*
X56140000Y-46460000D01*
X56140000Y-48540000D02*
X56140000Y-49699000D01*
X56180000Y-45277000D02*
X56180000Y-46460000D01*
X56180000Y-48540000D02*
X56180000Y-49723000D01*
X56220000Y-45254000D02*
X56220000Y-46460000D01*
X56220000Y-48540000D02*
X56220000Y-49746000D01*
X56260000Y-45232000D02*
X56260000Y-46460000D01*
X56260000Y-48540000D02*
X56260000Y-49768000D01*
X56300000Y-45211000D02*
X56300000Y-46460000D01*
X56300000Y-48540000D02*
X56300000Y-49789000D01*
X56340000Y-45191000D02*
X56340000Y-46460000D01*
X56340000Y-48540000D02*
X56340000Y-49809000D01*
X56380000Y-45171000D02*
X56380000Y-46460000D01*
X56380000Y-48540000D02*
X56380000Y-49829000D01*
X56420000Y-45153000D02*
X56420000Y-46460000D01*
X56420000Y-48540000D02*
X56420000Y-49847000D01*
X56460000Y-45135000D02*
X56460000Y-46460000D01*
X56460000Y-48540000D02*
X56460000Y-49865000D01*
X56500000Y-45118000D02*
X56500000Y-46460000D01*
X56500000Y-48540000D02*
X56500000Y-49882000D01*
X56540000Y-45102000D02*
X56540000Y-46460000D01*
X56540000Y-48540000D02*
X56540000Y-49898000D01*
X56580000Y-45087000D02*
X56580000Y-46460000D01*
X56580000Y-48540000D02*
X56580000Y-49913000D01*
X56620000Y-45072000D02*
X56620000Y-46460000D01*
X56620000Y-48540000D02*
X56620000Y-49928000D01*
X56660000Y-45058000D02*
X56660000Y-46460000D01*
X56660000Y-48540000D02*
X56660000Y-49942000D01*
X56700000Y-45045000D02*
X56700000Y-46460000D01*
X56700000Y-48540000D02*
X56700000Y-49955000D01*
X56740000Y-45033000D02*
X56740000Y-46460000D01*
X56740000Y-48540000D02*
X56740000Y-49967000D01*
X56780000Y-45021000D02*
X56780000Y-46460000D01*
X56780000Y-48540000D02*
X56780000Y-49979000D01*
X56820000Y-45010000D02*
X56820000Y-46460000D01*
X56820000Y-48540000D02*
X56820000Y-49990000D01*
X56860000Y-44999000D02*
X56860000Y-46460000D01*
X56860000Y-48540000D02*
X56860000Y-50001000D01*
X56900000Y-44990000D02*
X56900000Y-46460000D01*
X56900000Y-48540000D02*
X56900000Y-50010000D01*
X56940000Y-44981000D02*
X56940000Y-46460000D01*
X56940000Y-48540000D02*
X56940000Y-50019000D01*
X56980000Y-44972000D02*
X56980000Y-46460000D01*
X56980000Y-48540000D02*
X56980000Y-50028000D01*
X57020000Y-44964000D02*
X57020000Y-46460000D01*
X57020000Y-48540000D02*
X57020000Y-50036000D01*
X57060000Y-44957000D02*
X57060000Y-46460000D01*
X57060000Y-48540000D02*
X57060000Y-50043000D01*
X57100000Y-44951000D02*
X57100000Y-46460000D01*
X57100000Y-48540000D02*
X57100000Y-50049000D01*
X57140000Y-44945000D02*
X57140000Y-46460000D01*
X57140000Y-48540000D02*
X57140000Y-50055000D01*
X57180000Y-44940000D02*
X57180000Y-46460000D01*
X57180000Y-48540000D02*
X57180000Y-50060000D01*
X57220000Y-44935000D02*
X57220000Y-46460000D01*
X57220000Y-48540000D02*
X57220000Y-50065000D01*
X57260000Y-44931000D02*
X57260000Y-46460000D01*
X57260000Y-48540000D02*
X57260000Y-50069000D01*
X57300000Y-44928000D02*
X57300000Y-46460000D01*
X57300000Y-48540000D02*
X57300000Y-50072000D01*
X57340000Y-44925000D02*
X57340000Y-46460000D01*
X57340000Y-48540000D02*
X57340000Y-50075000D01*
X57380000Y-44923000D02*
X57380000Y-46460000D01*
X57380000Y-48540000D02*
X57380000Y-50077000D01*
X57420000Y-44921000D02*
X57420000Y-46460000D01*
X57420000Y-48540000D02*
X57420000Y-50079000D01*
X57460000Y-44920000D02*
X57460000Y-46460000D01*
X57460000Y-48540000D02*
X57460000Y-50080000D01*
X57500000Y-44920000D02*
X57500000Y-46460000D01*
X57500000Y-48540000D02*
X57500000Y-50080000D01*
X60054775Y-45775000D02*
X60054775Y-46275000D01*
X60304775Y-46025000D02*
X59804775Y-46025000D01*
X60120000Y-47500000D02*
G75*
G02*
X54880000Y-47500000I-2620000J0D01*
G01*
X54880000Y-47500000D02*
G75*
G02*
X60120000Y-47500000I2620000J0D01*
G01*
%TO.C,J25*%
X81670000Y-98670000D02*
X81670000Y-100000000D01*
X81670000Y-101270000D02*
X81670000Y-114030000D01*
X83000000Y-98670000D02*
X81670000Y-98670000D01*
X84270000Y-98670000D02*
X84270000Y-101270000D01*
X84270000Y-101270000D02*
X81670000Y-101270000D01*
X86870000Y-98670000D02*
X84270000Y-98670000D01*
X86870000Y-98670000D02*
X86870000Y-114030000D01*
X86870000Y-114030000D02*
X81670000Y-114030000D01*
%TO.C,R49*%
X62030000Y-59130000D02*
X62030000Y-59460000D01*
X62030000Y-61870000D02*
X62030000Y-61540000D01*
X68570000Y-59130000D02*
X62030000Y-59130000D01*
X68570000Y-59460000D02*
X68570000Y-59130000D01*
X68570000Y-61540000D02*
X68570000Y-61870000D01*
X68570000Y-61870000D02*
X62030000Y-61870000D01*
%TO.C,J0*%
X51920000Y-127170000D02*
X51920000Y-127280000D01*
X54680000Y-124520000D02*
X53300000Y-124520000D01*
X54680000Y-125900000D02*
X54680000Y-124520000D01*
X54680000Y-127170000D02*
X51920000Y-127170000D01*
X54680000Y-127170000D02*
X54680000Y-127280000D01*
X54680000Y-127280000D02*
X51920000Y-127280000D01*
%TO.C,D4*%
X63160000Y-55500000D02*
X64180000Y-55500000D01*
X64960000Y-56970000D02*
X64960000Y-54030000D01*
X65080000Y-56970000D02*
X65080000Y-54030000D01*
X65200000Y-56970000D02*
X65200000Y-54030000D01*
X70640000Y-55500000D02*
X69620000Y-55500000D01*
X64180000Y-54030000D02*
X69620000Y-54030000D01*
X69620000Y-56970000D01*
X64180000Y-56970000D01*
X64180000Y-54030000D01*
%TD*%
%LPC*%
D16*
%TO.C,JP3*%
X96340000Y-156790000D03*
X96340000Y-154250000D03*
D17*
X96340000Y-151710000D03*
%TD*%
D16*
%TO.C,JP1*%
X87160000Y-156790000D03*
X87160000Y-154250000D03*
D17*
X87160000Y-151710000D03*
%TD*%
D16*
%TO.C,JP2*%
X91750000Y-156790000D03*
X91750000Y-154250000D03*
D17*
X91750000Y-151710000D03*
%TD*%
D18*
%TO.C,J10*%
X75500000Y-169250000D03*
D19*
X81500000Y-173250000D03*
D20*
X79596000Y-180346000D03*
D19*
X68500000Y-176250000D03*
D18*
X72500000Y-182250000D03*
%TD*%
D19*
%TO.C,J9*%
X52000000Y-175250000D03*
D18*
X56000000Y-169250000D03*
D21*
X63096000Y-171154000D03*
D18*
X59000000Y-182250000D03*
D19*
X65000000Y-178250000D03*
%TD*%
D18*
%TO.C,J8*%
X92000000Y-202250000D03*
D19*
X98000000Y-206250000D03*
D20*
X96096000Y-213346000D03*
D19*
X85000000Y-209250000D03*
D18*
X89000000Y-215250000D03*
%TD*%
%TO.C,J7*%
X75500000Y-202250000D03*
D19*
X81500000Y-206250000D03*
D20*
X79596000Y-213346000D03*
D19*
X68500000Y-209250000D03*
D18*
X72500000Y-215250000D03*
%TD*%
D19*
%TO.C,J6*%
X52000000Y-208250000D03*
D18*
X56000000Y-202250000D03*
D21*
X63096000Y-204154000D03*
D18*
X59000000Y-215250000D03*
D19*
X65000000Y-211250000D03*
%TD*%
D18*
%TO.C,J5*%
X75500000Y-152750000D03*
D19*
X81500000Y-156750000D03*
D20*
X79596000Y-163846000D03*
D19*
X68500000Y-159750000D03*
D18*
X72500000Y-165750000D03*
%TD*%
D19*
%TO.C,J4*%
X52000000Y-158750000D03*
D18*
X56000000Y-152750000D03*
D21*
X63096000Y-154654000D03*
D18*
X59000000Y-165750000D03*
D19*
X65000000Y-161750000D03*
%TD*%
D18*
%TO.C,J3*%
X92000000Y-185750000D03*
D19*
X98000000Y-189750000D03*
D20*
X96096000Y-196846000D03*
D19*
X85000000Y-192750000D03*
D18*
X89000000Y-198750000D03*
%TD*%
%TO.C,J2*%
X75500000Y-185750000D03*
D19*
X81500000Y-189750000D03*
D20*
X79596000Y-196846000D03*
D19*
X68500000Y-192750000D03*
D18*
X72500000Y-198750000D03*
%TD*%
D19*
%TO.C,J1*%
X52000000Y-191750000D03*
D18*
X56000000Y-185750000D03*
D21*
X63096000Y-187654000D03*
D18*
X59000000Y-198750000D03*
D19*
X65000000Y-194750000D03*
%TD*%
D17*
%TO.C,J27*%
X52750000Y-102000000D03*
D16*
X52750000Y-104540000D03*
X52750000Y-107080000D03*
X52750000Y-109620000D03*
X52750000Y-112160000D03*
X52750000Y-114700000D03*
X52750000Y-117240000D03*
X52750000Y-119780000D03*
%TD*%
D17*
%TO.C,J17*%
X52750000Y-50000000D03*
D16*
X52750000Y-52540000D03*
X52750000Y-55080000D03*
X52750000Y-57620000D03*
X52750000Y-60160000D03*
X52750000Y-62700000D03*
X52750000Y-65240000D03*
X52750000Y-67780000D03*
%TD*%
D17*
%TO.C,J28*%
X97200000Y-128000000D03*
D16*
X97200000Y-130540000D03*
X97200000Y-133080000D03*
X97200000Y-135620000D03*
X97200000Y-138160000D03*
X97200000Y-140700000D03*
X97200000Y-143240000D03*
X97200000Y-145780000D03*
%TD*%
D17*
%TO.C,J18*%
X97200000Y-50000000D03*
D16*
X97200000Y-52540000D03*
X97200000Y-55080000D03*
X97200000Y-57620000D03*
X97200000Y-60160000D03*
X97200000Y-62700000D03*
X97200000Y-65240000D03*
X97200000Y-67780000D03*
%TD*%
D22*
%TO.C,D3*%
X78020000Y-55500000D03*
D23*
X88180000Y-55500000D03*
%TD*%
D17*
%TO.C,J26*%
X83000000Y-130000000D03*
D16*
X85540000Y-130000000D03*
X83000000Y-132540000D03*
X85540000Y-132540000D03*
X83000000Y-135080000D03*
X85540000Y-135080000D03*
%TD*%
D24*
%TO.C,J100*%
X83890000Y-48800000D03*
D16*
X83890000Y-46260000D03*
X81350000Y-48800000D03*
X81350000Y-46260000D03*
X78810000Y-48800000D03*
X78810000Y-46260000D03*
X76270000Y-48800000D03*
X76270000Y-46260000D03*
X73730000Y-48800000D03*
X73730000Y-46260000D03*
X71190000Y-48800000D03*
X71190000Y-46260000D03*
X68650000Y-48800000D03*
X68650000Y-46260000D03*
X66110000Y-48800000D03*
X66110000Y-46260000D03*
%TD*%
D25*
%TO.C,U10*%
X76270000Y-60060000D03*
D26*
X75000000Y-60060000D03*
X73730000Y-60060000D03*
%TD*%
D17*
%TO.C,J14*%
X64000000Y-84000000D03*
D16*
X66540000Y-84000000D03*
X64000000Y-86540000D03*
X66540000Y-86540000D03*
X64000000Y-89080000D03*
X66540000Y-89080000D03*
%TD*%
D27*
%TO.C,J200*%
X90497500Y-176830000D03*
D16*
X90497500Y-174290000D03*
X90497500Y-171750000D03*
X90497500Y-169210000D03*
X90497500Y-166670000D03*
X93037500Y-176830000D03*
X93037500Y-174290000D03*
X93037500Y-171750000D03*
X93037500Y-169210000D03*
X93037500Y-166670000D03*
%TD*%
D28*
%TO.C,C5*%
X62800000Y-65100000D03*
X67800000Y-65100000D03*
%TD*%
D17*
%TO.C,J15*%
X64000000Y-100000000D03*
D16*
X66540000Y-100000000D03*
X64000000Y-102540000D03*
X66540000Y-102540000D03*
X64000000Y-105080000D03*
X66540000Y-105080000D03*
X64000000Y-107620000D03*
X66540000Y-107620000D03*
X64000000Y-110160000D03*
X66540000Y-110160000D03*
X64000000Y-112700000D03*
X66540000Y-112700000D03*
%TD*%
D29*
%TO.C,C2*%
X93455113Y-47500000D03*
D28*
X91455113Y-47500000D03*
%TD*%
D17*
%TO.C,J24*%
X83000000Y-84000000D03*
D16*
X85540000Y-84000000D03*
X83000000Y-86540000D03*
X85540000Y-86540000D03*
X83000000Y-89080000D03*
X85540000Y-89080000D03*
%TD*%
D17*
%TO.C,J16*%
X64000000Y-130000000D03*
D16*
X66540000Y-130000000D03*
X64000000Y-132540000D03*
X66540000Y-132540000D03*
X64000000Y-135080000D03*
X66540000Y-135080000D03*
%TD*%
D29*
%TO.C,C1*%
X58500000Y-47500000D03*
D28*
X56500000Y-47500000D03*
%TD*%
D17*
%TO.C,J25*%
X83000000Y-100000000D03*
D16*
X85540000Y-100000000D03*
X83000000Y-102540000D03*
X85540000Y-102540000D03*
X83000000Y-105080000D03*
X85540000Y-105080000D03*
X83000000Y-107620000D03*
X85540000Y-107620000D03*
X83000000Y-110160000D03*
X85540000Y-110160000D03*
X83000000Y-112700000D03*
X85540000Y-112700000D03*
%TD*%
D28*
%TO.C,R49*%
X69110000Y-60500000D03*
X61490000Y-60500000D03*
%TD*%
D17*
%TO.C,J0*%
X53300000Y-125900000D03*
%TD*%
D22*
%TO.C,D4*%
X61820000Y-55500000D03*
D23*
X71980000Y-55500000D03*
%TD*%
%LPD*%
M02*
