M48
; DRILL file KiCad 10.0.1 date 2026-07-10T21:02:39
; FORMAT={-:-/ absolute / metric / decimal}
; #@! TF.CreationDate,2026-07-10T21:02:39+02:00
; #@! TF.GenerationSoftware,Kicad,Pcbnew,10.0.1
; #@! TF.FileFunction,Plated,1,2,PTH
FMAT,2
METRIC
; #@! TA.AperFunction,Plated,PTH,ComponentDrill
T1C0.750
; #@! TA.AperFunction,Plated,PTH,ComponentDrill
T2C0.800
; #@! TA.AperFunction,Plated,PTH,ComponentDrill
T3C1.000
; #@! TA.AperFunction,Plated,PTH,ComponentDrill
T4C1.100
%
G90
G05
T1
X73.73Y-60.06
X75.0Y-60.06
X76.27Y-60.06
T2
X56.5Y-47.5
X58.5Y-47.5
X61.49Y-60.5
X62.8Y-65.1
X67.8Y-65.1
X69.11Y-60.5
X91.455Y-47.5
X93.455Y-47.5
T3
X52.75Y-50.0
X52.75Y-52.54
X52.75Y-55.08
X52.75Y-57.62
X52.75Y-60.16
X52.75Y-62.7
X52.75Y-65.24
X52.75Y-67.78
X52.75Y-102.0
X52.75Y-104.54
X52.75Y-107.08
X52.75Y-109.62
X52.75Y-112.16
X52.75Y-114.7
X52.75Y-117.24
X52.75Y-119.78
X53.3Y-125.9
X64.0Y-84.0
X64.0Y-86.54
X64.0Y-89.08
X64.0Y-100.0
X64.0Y-102.54
X64.0Y-105.08
X64.0Y-107.62
X64.0Y-110.16
X64.0Y-112.7
X64.0Y-130.0
X64.0Y-132.54
X64.0Y-135.08
X66.11Y-46.26
X66.11Y-48.8
X66.54Y-84.0
X66.54Y-86.54
X66.54Y-89.08
X66.54Y-100.0
X66.54Y-102.54
X66.54Y-105.08
X66.54Y-107.62
X66.54Y-110.16
X66.54Y-112.7
X66.54Y-130.0
X66.54Y-132.54
X66.54Y-135.08
X68.65Y-46.26
X68.65Y-48.8
X71.19Y-46.26
X71.19Y-48.8
X73.73Y-46.26
X73.73Y-48.8
X76.27Y-46.26
X76.27Y-48.8
X78.81Y-46.26
X78.81Y-48.8
X81.35Y-46.26
X81.35Y-48.8
X83.0Y-84.0
X83.0Y-86.54
X83.0Y-89.08
X83.0Y-100.0
X83.0Y-102.54
X83.0Y-105.08
X83.0Y-107.62
X83.0Y-110.16
X83.0Y-112.7
X83.0Y-130.0
X83.0Y-132.54
X83.0Y-135.08
X83.89Y-46.26
X83.89Y-48.8
X85.54Y-84.0
X85.54Y-86.54
X85.54Y-89.08
X85.54Y-100.0
X85.54Y-102.54
X85.54Y-105.08
X85.54Y-107.62
X85.54Y-110.16
X85.54Y-112.7
X85.54Y-130.0
X85.54Y-132.54
X85.54Y-135.08
X87.16Y-151.71
X87.16Y-154.25
X87.16Y-156.79
X90.498Y-166.67
X90.498Y-169.21
X90.498Y-171.75
X90.498Y-174.29
X90.498Y-176.83
X91.75Y-151.71
X91.75Y-154.25
X91.75Y-156.79
X93.037Y-166.67
X93.037Y-169.21
X93.037Y-171.75
X93.037Y-174.29
X93.037Y-176.83
X96.34Y-151.71
X96.34Y-154.25
X96.34Y-156.79
X97.2Y-50.0
X97.2Y-52.54
X97.2Y-55.08
X97.2Y-57.62
X97.2Y-60.16
X97.2Y-62.7
X97.2Y-65.24
X97.2Y-67.78
X97.2Y-128.0
X97.2Y-130.54
X97.2Y-133.08
X97.2Y-135.62
X97.2Y-138.16
X97.2Y-140.7
X97.2Y-143.24
X97.2Y-145.78
T4
X61.82Y-55.5
X71.98Y-55.5
X78.02Y-55.5
X88.18Y-55.5
T3
G00X52.0Y-159.5
M15
G01X52.0Y-158.0
M16
G05
G00X52.0Y-176.0
M15
G01X52.0Y-174.5
M16
G05
G00X52.0Y-192.5
M15
G01X52.0Y-191.0
M16
G05
G00X52.0Y-209.0
M15
G01X52.0Y-207.5
M16
G05
G00X55.25Y-152.75
M15
G01X56.75Y-152.75
M16
G05
G00X55.25Y-169.25
M15
G01X56.75Y-169.25
M16
G05
G00X55.25Y-185.75
M15
G01X56.75Y-185.75
M16
G05
G00X55.25Y-202.25
M15
G01X56.75Y-202.25
M16
G05
G00X58.25Y-165.75
M15
G01X59.75Y-165.75
M16
G05
G00X58.25Y-182.25
M15
G01X59.75Y-182.25
M16
G05
G00X58.25Y-198.75
M15
G01X59.75Y-198.75
M16
G05
G00X58.25Y-215.25
M15
G01X59.75Y-215.25
M16
G05
G00X62.566Y-154.124
M15
G01X63.626Y-155.184
M16
G05
G00X62.566Y-170.624
M15
G01X63.626Y-171.684
M16
G05
G00X62.566Y-187.124
M15
G01X63.626Y-188.184
M16
G05
G00X62.566Y-203.624
M15
G01X63.626Y-204.684
M16
G05
G00X65.0Y-162.5
M15
G01X65.0Y-161.0
M16
G05
G00X65.0Y-179.0
M15
G01X65.0Y-177.5
M16
G05
G00X65.0Y-195.5
M15
G01X65.0Y-194.0
M16
G05
G00X65.0Y-212.0
M15
G01X65.0Y-210.5
M16
G05
G00X68.5Y-159.0
M15
G01X68.5Y-160.5
M16
G05
G00X68.5Y-175.5
M15
G01X68.5Y-177.0
M16
G05
G00X68.5Y-192.0
M15
G01X68.5Y-193.5
M16
G05
G00X68.5Y-208.5
M15
G01X68.5Y-210.0
M16
G05
G00X71.75Y-165.75
M15
G01X73.25Y-165.75
M16
G05
G00X71.75Y-182.25
M15
G01X73.25Y-182.25
M16
G05
G00X71.75Y-198.75
M15
G01X73.25Y-198.75
M16
G05
G00X71.75Y-215.25
M15
G01X73.25Y-215.25
M16
G05
G00X74.75Y-152.75
M15
G01X76.25Y-152.75
M16
G05
G00X74.75Y-169.25
M15
G01X76.25Y-169.25
M16
G05
G00X74.75Y-185.75
M15
G01X76.25Y-185.75
M16
G05
G00X74.75Y-202.25
M15
G01X76.25Y-202.25
M16
G05
G00X80.126Y-163.316
M15
G01X79.066Y-164.376
M16
G05
G00X80.126Y-179.816
M15
G01X79.066Y-180.876
M16
G05
G00X80.126Y-196.316
M15
G01X79.066Y-197.376
M16
G05
G00X80.126Y-212.816
M15
G01X79.066Y-213.876
M16
G05
G00X81.5Y-156.0
M15
G01X81.5Y-157.5
M16
G05
G00X81.5Y-172.5
M15
G01X81.5Y-174.0
M16
G05
G00X81.5Y-189.0
M15
G01X81.5Y-190.5
M16
G05
G00X81.5Y-205.5
M15
G01X81.5Y-207.0
M16
G05
G00X85.0Y-192.0
M15
G01X85.0Y-193.5
M16
G05
G00X85.0Y-208.5
M15
G01X85.0Y-210.0
M16
G05
G00X88.25Y-198.75
M15
G01X89.75Y-198.75
M16
G05
G00X88.25Y-215.25
M15
G01X89.75Y-215.25
M16
G05
G00X91.25Y-185.75
M15
G01X92.75Y-185.75
M16
G05
G00X91.25Y-202.25
M15
G01X92.75Y-202.25
M16
G05
G00X96.626Y-196.316
M15
G01X95.566Y-197.376
M16
G05
G00X96.626Y-212.816
M15
G01X95.566Y-213.876
M16
G05
G00X98.0Y-189.0
M15
G01X98.0Y-190.5
M16
G05
G00X98.0Y-205.5
M15
G01X98.0Y-207.0
M16
G05
M30
