%TF.GenerationSoftware,KiCad,Pcbnew,10.0.1*%
%TF.CreationDate,2026-06-25T20:58:30+02:00*%
%TF.ProjectId,DMH_Slew_Mk2_PCB_Main,444d485f-536c-4657-975f-4d6b325f5043,1*%
%TF.SameCoordinates,Original*%
%TF.FileFunction,Legend,Top*%
%TF.FilePolarity,Positive*%
%FSLAX46Y46*%
G04 Gerber Fmt 4.6, Leading zero omitted, Abs format (unit mm)*
G04 Created by KiCad (PCBNEW 10.0.1) date 2026-06-25 20:58:30*
%MOMM*%
%LPD*%
G01*
G04 APERTURE LIST*
G04 Aperture macros list*
%AMRoundRect*
0 Rectangle with rounded corners*
0 $1 Rounding radius*
0 $2 $3 $4 $5 $6 $7 $8 $9 X,Y pos of 4 corners*
0 Add a 4 corners polygon primitive as box body*
4,1,4,$2,$3,$4,$5,$6,$7,$8,$9,$2,$3,0*
0 Add four circle primitives for the rounded corners*
1,1,$1+$1,$2,$3*
1,1,$1+$1,$4,$5*
1,1,$1+$1,$6,$7*
1,1,$1+$1,$8,$9*
0 Add four rect primitives between the rounded corners*
20,1,$1+$1,$2,$3,$4,$5,0*
20,1,$1+$1,$4,$5,$6,$7,0*
20,1,$1+$1,$6,$7,$8,$9,0*
20,1,$1+$1,$8,$9,$2,$3,0*%
%AMHorizOval*
0 Thick line with rounded ends*
0 $1 width*
0 $2 $3 position (X,Y) of the first rounded end (center of the circle)*
0 $4 $5 position (X,Y) of the second rounded end (center of the circle)*
0 Add line between two ends*
20,1,$1,$2,$3,$4,$5,0*
0 Add two circle primitives to create the rounded ends*
1,1,$1,$2,$3*
1,1,$1,$4,$5*%
G04 Aperture macros list end*
%ADD10C,0.150000*%
%ADD11C,0.120000*%
%ADD12HorizOval,1.712000X-0.533159X0.533159X0.533159X-0.533159X0*%
%ADD13O,3.220000X1.712000*%
%ADD14O,1.712000X3.220000*%
%ADD15HorizOval,1.712000X-0.533159X-0.533159X0.533159X0.533159X0*%
%ADD16R,1.700000X1.700000*%
%ADD17C,1.700000*%
%ADD18RoundRect,0.249999X-0.850001X-0.850001X0.850001X-0.850001X0.850001X0.850001X-0.850001X0.850001X0*%
%ADD19C,2.200000*%
%ADD20RoundRect,0.250000X0.600000X-0.600000X0.600000X0.600000X-0.600000X0.600000X-0.600000X-0.600000X0*%
%ADD21R,1.050000X1.500000*%
%ADD22O,1.050000X1.500000*%
%ADD23RoundRect,0.250000X-0.600000X-0.600000X0.600000X-0.600000X0.600000X0.600000X-0.600000X0.600000X0*%
%ADD24C,1.600000*%
%ADD25RoundRect,0.250000X0.550000X0.550000X-0.550000X0.550000X-0.550000X-0.550000X0.550000X-0.550000X0*%
G04 APERTURE END LIST*
D10*
X83954819Y-180634523D02*
X84669104Y-180634523D01*
X84669104Y-180634523D02*
X84811961Y-180682142D01*
X84811961Y-180682142D02*
X84907200Y-180777380D01*
X84907200Y-180777380D02*
X84954819Y-180920237D01*
X84954819Y-180920237D02*
X84954819Y-181015475D01*
X84954819Y-179634523D02*
X84954819Y-180205951D01*
X84954819Y-179920237D02*
X83954819Y-179920237D01*
X83954819Y-179920237D02*
X84097676Y-180015475D01*
X84097676Y-180015475D02*
X84192914Y-180110713D01*
X84192914Y-180110713D02*
X84240533Y-180205951D01*
X83954819Y-179015475D02*
X83954819Y-178920237D01*
X83954819Y-178920237D02*
X84002438Y-178824999D01*
X84002438Y-178824999D02*
X84050057Y-178777380D01*
X84050057Y-178777380D02*
X84145295Y-178729761D01*
X84145295Y-178729761D02*
X84335771Y-178682142D01*
X84335771Y-178682142D02*
X84573866Y-178682142D01*
X84573866Y-178682142D02*
X84764342Y-178729761D01*
X84764342Y-178729761D02*
X84859580Y-178777380D01*
X84859580Y-178777380D02*
X84907200Y-178824999D01*
X84907200Y-178824999D02*
X84954819Y-178920237D01*
X84954819Y-178920237D02*
X84954819Y-179015475D01*
X84954819Y-179015475D02*
X84907200Y-179110713D01*
X84907200Y-179110713D02*
X84859580Y-179158332D01*
X84859580Y-179158332D02*
X84764342Y-179205951D01*
X84764342Y-179205951D02*
X84573866Y-179253570D01*
X84573866Y-179253570D02*
X84335771Y-179253570D01*
X84335771Y-179253570D02*
X84145295Y-179205951D01*
X84145295Y-179205951D02*
X84050057Y-179158332D01*
X84050057Y-179158332D02*
X84002438Y-179110713D01*
X84002438Y-179110713D02*
X83954819Y-179015475D01*
X70591666Y-151704819D02*
X70591666Y-152419104D01*
X70591666Y-152419104D02*
X70544047Y-152561961D01*
X70544047Y-152561961D02*
X70448809Y-152657200D01*
X70448809Y-152657200D02*
X70305952Y-152704819D01*
X70305952Y-152704819D02*
X70210714Y-152704819D01*
X71496428Y-152038152D02*
X71496428Y-152704819D01*
X71258333Y-151657200D02*
X71020238Y-152371485D01*
X71020238Y-152371485D02*
X71639285Y-152371485D01*
X51940476Y-99074819D02*
X51940476Y-99789104D01*
X51940476Y-99789104D02*
X51892857Y-99931961D01*
X51892857Y-99931961D02*
X51797619Y-100027200D01*
X51797619Y-100027200D02*
X51654762Y-100074819D01*
X51654762Y-100074819D02*
X51559524Y-100074819D01*
X52369048Y-99170057D02*
X52416667Y-99122438D01*
X52416667Y-99122438D02*
X52511905Y-99074819D01*
X52511905Y-99074819D02*
X52750000Y-99074819D01*
X52750000Y-99074819D02*
X52845238Y-99122438D01*
X52845238Y-99122438D02*
X52892857Y-99170057D01*
X52892857Y-99170057D02*
X52940476Y-99265295D01*
X52940476Y-99265295D02*
X52940476Y-99360533D01*
X52940476Y-99360533D02*
X52892857Y-99503390D01*
X52892857Y-99503390D02*
X52321429Y-100074819D01*
X52321429Y-100074819D02*
X52940476Y-100074819D01*
X53273810Y-99074819D02*
X53940476Y-99074819D01*
X53940476Y-99074819D02*
X53511905Y-100074819D01*
X54091666Y-201204819D02*
X54091666Y-201919104D01*
X54091666Y-201919104D02*
X54044047Y-202061961D01*
X54044047Y-202061961D02*
X53948809Y-202157200D01*
X53948809Y-202157200D02*
X53805952Y-202204819D01*
X53805952Y-202204819D02*
X53710714Y-202204819D01*
X54996428Y-201204819D02*
X54805952Y-201204819D01*
X54805952Y-201204819D02*
X54710714Y-201252438D01*
X54710714Y-201252438D02*
X54663095Y-201300057D01*
X54663095Y-201300057D02*
X54567857Y-201442914D01*
X54567857Y-201442914D02*
X54520238Y-201633390D01*
X54520238Y-201633390D02*
X54520238Y-202014342D01*
X54520238Y-202014342D02*
X54567857Y-202109580D01*
X54567857Y-202109580D02*
X54615476Y-202157200D01*
X54615476Y-202157200D02*
X54710714Y-202204819D01*
X54710714Y-202204819D02*
X54901190Y-202204819D01*
X54901190Y-202204819D02*
X54996428Y-202157200D01*
X54996428Y-202157200D02*
X55044047Y-202109580D01*
X55044047Y-202109580D02*
X55091666Y-202014342D01*
X55091666Y-202014342D02*
X55091666Y-201776247D01*
X55091666Y-201776247D02*
X55044047Y-201681009D01*
X55044047Y-201681009D02*
X54996428Y-201633390D01*
X54996428Y-201633390D02*
X54901190Y-201585771D01*
X54901190Y-201585771D02*
X54710714Y-201585771D01*
X54710714Y-201585771D02*
X54615476Y-201633390D01*
X54615476Y-201633390D02*
X54567857Y-201681009D01*
X54567857Y-201681009D02*
X54520238Y-201776247D01*
X70591666Y-184704819D02*
X70591666Y-185419104D01*
X70591666Y-185419104D02*
X70544047Y-185561961D01*
X70544047Y-185561961D02*
X70448809Y-185657200D01*
X70448809Y-185657200D02*
X70305952Y-185704819D01*
X70305952Y-185704819D02*
X70210714Y-185704819D01*
X71020238Y-184800057D02*
X71067857Y-184752438D01*
X71067857Y-184752438D02*
X71163095Y-184704819D01*
X71163095Y-184704819D02*
X71401190Y-184704819D01*
X71401190Y-184704819D02*
X71496428Y-184752438D01*
X71496428Y-184752438D02*
X71544047Y-184800057D01*
X71544047Y-184800057D02*
X71591666Y-184895295D01*
X71591666Y-184895295D02*
X71591666Y-184990533D01*
X71591666Y-184990533D02*
X71544047Y-185133390D01*
X71544047Y-185133390D02*
X70972619Y-185704819D01*
X70972619Y-185704819D02*
X71591666Y-185704819D01*
X51940476Y-47074819D02*
X51940476Y-47789104D01*
X51940476Y-47789104D02*
X51892857Y-47931961D01*
X51892857Y-47931961D02*
X51797619Y-48027200D01*
X51797619Y-48027200D02*
X51654762Y-48074819D01*
X51654762Y-48074819D02*
X51559524Y-48074819D01*
X52940476Y-48074819D02*
X52369048Y-48074819D01*
X52654762Y-48074819D02*
X52654762Y-47074819D01*
X52654762Y-47074819D02*
X52559524Y-47217676D01*
X52559524Y-47217676D02*
X52464286Y-47312914D01*
X52464286Y-47312914D02*
X52369048Y-47360533D01*
X53273810Y-47074819D02*
X53940476Y-47074819D01*
X53940476Y-47074819D02*
X53511905Y-48074819D01*
X83954819Y-196658333D02*
X84669104Y-196658333D01*
X84669104Y-196658333D02*
X84811961Y-196705952D01*
X84811961Y-196705952D02*
X84907200Y-196801190D01*
X84907200Y-196801190D02*
X84954819Y-196944047D01*
X84954819Y-196944047D02*
X84954819Y-197039285D01*
X83954819Y-196277380D02*
X83954819Y-195658333D01*
X83954819Y-195658333D02*
X84335771Y-195991666D01*
X84335771Y-195991666D02*
X84335771Y-195848809D01*
X84335771Y-195848809D02*
X84383390Y-195753571D01*
X84383390Y-195753571D02*
X84431009Y-195705952D01*
X84431009Y-195705952D02*
X84526247Y-195658333D01*
X84526247Y-195658333D02*
X84764342Y-195658333D01*
X84764342Y-195658333D02*
X84859580Y-195705952D01*
X84859580Y-195705952D02*
X84907200Y-195753571D01*
X84907200Y-195753571D02*
X84954819Y-195848809D01*
X84954819Y-195848809D02*
X84954819Y-196134523D01*
X84954819Y-196134523D02*
X84907200Y-196229761D01*
X84907200Y-196229761D02*
X84859580Y-196277380D01*
X96390476Y-125074819D02*
X96390476Y-125789104D01*
X96390476Y-125789104D02*
X96342857Y-125931961D01*
X96342857Y-125931961D02*
X96247619Y-126027200D01*
X96247619Y-126027200D02*
X96104762Y-126074819D01*
X96104762Y-126074819D02*
X96009524Y-126074819D01*
X96819048Y-125170057D02*
X96866667Y-125122438D01*
X96866667Y-125122438D02*
X96961905Y-125074819D01*
X96961905Y-125074819D02*
X97200000Y-125074819D01*
X97200000Y-125074819D02*
X97295238Y-125122438D01*
X97295238Y-125122438D02*
X97342857Y-125170057D01*
X97342857Y-125170057D02*
X97390476Y-125265295D01*
X97390476Y-125265295D02*
X97390476Y-125360533D01*
X97390476Y-125360533D02*
X97342857Y-125503390D01*
X97342857Y-125503390D02*
X96771429Y-126074819D01*
X96771429Y-126074819D02*
X97390476Y-126074819D01*
X97961905Y-125503390D02*
X97866667Y-125455771D01*
X97866667Y-125455771D02*
X97819048Y-125408152D01*
X97819048Y-125408152D02*
X97771429Y-125312914D01*
X97771429Y-125312914D02*
X97771429Y-125265295D01*
X97771429Y-125265295D02*
X97819048Y-125170057D01*
X97819048Y-125170057D02*
X97866667Y-125122438D01*
X97866667Y-125122438D02*
X97961905Y-125074819D01*
X97961905Y-125074819D02*
X98152381Y-125074819D01*
X98152381Y-125074819D02*
X98247619Y-125122438D01*
X98247619Y-125122438D02*
X98295238Y-125170057D01*
X98295238Y-125170057D02*
X98342857Y-125265295D01*
X98342857Y-125265295D02*
X98342857Y-125312914D01*
X98342857Y-125312914D02*
X98295238Y-125408152D01*
X98295238Y-125408152D02*
X98247619Y-125455771D01*
X98247619Y-125455771D02*
X98152381Y-125503390D01*
X98152381Y-125503390D02*
X97961905Y-125503390D01*
X97961905Y-125503390D02*
X97866667Y-125551009D01*
X97866667Y-125551009D02*
X97819048Y-125598628D01*
X97819048Y-125598628D02*
X97771429Y-125693866D01*
X97771429Y-125693866D02*
X97771429Y-125884342D01*
X97771429Y-125884342D02*
X97819048Y-125979580D01*
X97819048Y-125979580D02*
X97866667Y-126027200D01*
X97866667Y-126027200D02*
X97961905Y-126074819D01*
X97961905Y-126074819D02*
X98152381Y-126074819D01*
X98152381Y-126074819D02*
X98247619Y-126027200D01*
X98247619Y-126027200D02*
X98295238Y-125979580D01*
X98295238Y-125979580D02*
X98342857Y-125884342D01*
X98342857Y-125884342D02*
X98342857Y-125693866D01*
X98342857Y-125693866D02*
X98295238Y-125598628D01*
X98295238Y-125598628D02*
X98247619Y-125551009D01*
X98247619Y-125551009D02*
X98152381Y-125503390D01*
X70591666Y-201204819D02*
X70591666Y-201919104D01*
X70591666Y-201919104D02*
X70544047Y-202061961D01*
X70544047Y-202061961D02*
X70448809Y-202157200D01*
X70448809Y-202157200D02*
X70305952Y-202204819D01*
X70305952Y-202204819D02*
X70210714Y-202204819D01*
X70972619Y-201204819D02*
X71639285Y-201204819D01*
X71639285Y-201204819D02*
X71210714Y-202204819D01*
X54091666Y-184704819D02*
X54091666Y-185419104D01*
X54091666Y-185419104D02*
X54044047Y-185561961D01*
X54044047Y-185561961D02*
X53948809Y-185657200D01*
X53948809Y-185657200D02*
X53805952Y-185704819D01*
X53805952Y-185704819D02*
X53710714Y-185704819D01*
X55091666Y-185704819D02*
X54520238Y-185704819D01*
X54805952Y-185704819D02*
X54805952Y-184704819D01*
X54805952Y-184704819D02*
X54710714Y-184847676D01*
X54710714Y-184847676D02*
X54615476Y-184942914D01*
X54615476Y-184942914D02*
X54520238Y-184990533D01*
X70591666Y-168204819D02*
X70591666Y-168919104D01*
X70591666Y-168919104D02*
X70544047Y-169061961D01*
X70544047Y-169061961D02*
X70448809Y-169157200D01*
X70448809Y-169157200D02*
X70305952Y-169204819D01*
X70305952Y-169204819D02*
X70210714Y-169204819D01*
X71115476Y-169204819D02*
X71305952Y-169204819D01*
X71305952Y-169204819D02*
X71401190Y-169157200D01*
X71401190Y-169157200D02*
X71448809Y-169109580D01*
X71448809Y-169109580D02*
X71544047Y-168966723D01*
X71544047Y-168966723D02*
X71591666Y-168776247D01*
X71591666Y-168776247D02*
X71591666Y-168395295D01*
X71591666Y-168395295D02*
X71544047Y-168300057D01*
X71544047Y-168300057D02*
X71496428Y-168252438D01*
X71496428Y-168252438D02*
X71401190Y-168204819D01*
X71401190Y-168204819D02*
X71210714Y-168204819D01*
X71210714Y-168204819D02*
X71115476Y-168252438D01*
X71115476Y-168252438D02*
X71067857Y-168300057D01*
X71067857Y-168300057D02*
X71020238Y-168395295D01*
X71020238Y-168395295D02*
X71020238Y-168633390D01*
X71020238Y-168633390D02*
X71067857Y-168728628D01*
X71067857Y-168728628D02*
X71115476Y-168776247D01*
X71115476Y-168776247D02*
X71210714Y-168823866D01*
X71210714Y-168823866D02*
X71401190Y-168823866D01*
X71401190Y-168823866D02*
X71496428Y-168776247D01*
X71496428Y-168776247D02*
X71544047Y-168728628D01*
X71544047Y-168728628D02*
X71591666Y-168633390D01*
X83954819Y-163658333D02*
X84669104Y-163658333D01*
X84669104Y-163658333D02*
X84811961Y-163705952D01*
X84811961Y-163705952D02*
X84907200Y-163801190D01*
X84907200Y-163801190D02*
X84954819Y-163944047D01*
X84954819Y-163944047D02*
X84954819Y-164039285D01*
X83954819Y-162705952D02*
X83954819Y-163182142D01*
X83954819Y-163182142D02*
X84431009Y-163229761D01*
X84431009Y-163229761D02*
X84383390Y-163182142D01*
X84383390Y-163182142D02*
X84335771Y-163086904D01*
X84335771Y-163086904D02*
X84335771Y-162848809D01*
X84335771Y-162848809D02*
X84383390Y-162753571D01*
X84383390Y-162753571D02*
X84431009Y-162705952D01*
X84431009Y-162705952D02*
X84526247Y-162658333D01*
X84526247Y-162658333D02*
X84764342Y-162658333D01*
X84764342Y-162658333D02*
X84859580Y-162705952D01*
X84859580Y-162705952D02*
X84907200Y-162753571D01*
X84907200Y-162753571D02*
X84954819Y-162848809D01*
X84954819Y-162848809D02*
X84954819Y-163086904D01*
X84954819Y-163086904D02*
X84907200Y-163182142D01*
X84907200Y-163182142D02*
X84859580Y-163229761D01*
X96390476Y-47074819D02*
X96390476Y-47789104D01*
X96390476Y-47789104D02*
X96342857Y-47931961D01*
X96342857Y-47931961D02*
X96247619Y-48027200D01*
X96247619Y-48027200D02*
X96104762Y-48074819D01*
X96104762Y-48074819D02*
X96009524Y-48074819D01*
X97390476Y-48074819D02*
X96819048Y-48074819D01*
X97104762Y-48074819D02*
X97104762Y-47074819D01*
X97104762Y-47074819D02*
X97009524Y-47217676D01*
X97009524Y-47217676D02*
X96914286Y-47312914D01*
X96914286Y-47312914D02*
X96819048Y-47360533D01*
X97961905Y-47503390D02*
X97866667Y-47455771D01*
X97866667Y-47455771D02*
X97819048Y-47408152D01*
X97819048Y-47408152D02*
X97771429Y-47312914D01*
X97771429Y-47312914D02*
X97771429Y-47265295D01*
X97771429Y-47265295D02*
X97819048Y-47170057D01*
X97819048Y-47170057D02*
X97866667Y-47122438D01*
X97866667Y-47122438D02*
X97961905Y-47074819D01*
X97961905Y-47074819D02*
X98152381Y-47074819D01*
X98152381Y-47074819D02*
X98247619Y-47122438D01*
X98247619Y-47122438D02*
X98295238Y-47170057D01*
X98295238Y-47170057D02*
X98342857Y-47265295D01*
X98342857Y-47265295D02*
X98342857Y-47312914D01*
X98342857Y-47312914D02*
X98295238Y-47408152D01*
X98295238Y-47408152D02*
X98247619Y-47455771D01*
X98247619Y-47455771D02*
X98152381Y-47503390D01*
X98152381Y-47503390D02*
X97961905Y-47503390D01*
X97961905Y-47503390D02*
X97866667Y-47551009D01*
X97866667Y-47551009D02*
X97819048Y-47598628D01*
X97819048Y-47598628D02*
X97771429Y-47693866D01*
X97771429Y-47693866D02*
X97771429Y-47884342D01*
X97771429Y-47884342D02*
X97819048Y-47979580D01*
X97819048Y-47979580D02*
X97866667Y-48027200D01*
X97866667Y-48027200D02*
X97961905Y-48074819D01*
X97961905Y-48074819D02*
X98152381Y-48074819D01*
X98152381Y-48074819D02*
X98247619Y-48027200D01*
X98247619Y-48027200D02*
X98295238Y-47979580D01*
X98295238Y-47979580D02*
X98342857Y-47884342D01*
X98342857Y-47884342D02*
X98342857Y-47693866D01*
X98342857Y-47693866D02*
X98295238Y-47598628D01*
X98295238Y-47598628D02*
X98247619Y-47551009D01*
X98247619Y-47551009D02*
X98152381Y-47503390D01*
X83954819Y-213158333D02*
X84669104Y-213158333D01*
X84669104Y-213158333D02*
X84811961Y-213205952D01*
X84811961Y-213205952D02*
X84907200Y-213301190D01*
X84907200Y-213301190D02*
X84954819Y-213444047D01*
X84954819Y-213444047D02*
X84954819Y-213539285D01*
X84383390Y-212539285D02*
X84335771Y-212634523D01*
X84335771Y-212634523D02*
X84288152Y-212682142D01*
X84288152Y-212682142D02*
X84192914Y-212729761D01*
X84192914Y-212729761D02*
X84145295Y-212729761D01*
X84145295Y-212729761D02*
X84050057Y-212682142D01*
X84050057Y-212682142D02*
X84002438Y-212634523D01*
X84002438Y-212634523D02*
X83954819Y-212539285D01*
X83954819Y-212539285D02*
X83954819Y-212348809D01*
X83954819Y-212348809D02*
X84002438Y-212253571D01*
X84002438Y-212253571D02*
X84050057Y-212205952D01*
X84050057Y-212205952D02*
X84145295Y-212158333D01*
X84145295Y-212158333D02*
X84192914Y-212158333D01*
X84192914Y-212158333D02*
X84288152Y-212205952D01*
X84288152Y-212205952D02*
X84335771Y-212253571D01*
X84335771Y-212253571D02*
X84383390Y-212348809D01*
X84383390Y-212348809D02*
X84383390Y-212539285D01*
X84383390Y-212539285D02*
X84431009Y-212634523D01*
X84431009Y-212634523D02*
X84478628Y-212682142D01*
X84478628Y-212682142D02*
X84573866Y-212729761D01*
X84573866Y-212729761D02*
X84764342Y-212729761D01*
X84764342Y-212729761D02*
X84859580Y-212682142D01*
X84859580Y-212682142D02*
X84907200Y-212634523D01*
X84907200Y-212634523D02*
X84954819Y-212539285D01*
X84954819Y-212539285D02*
X84954819Y-212348809D01*
X84954819Y-212348809D02*
X84907200Y-212253571D01*
X84907200Y-212253571D02*
X84859580Y-212205952D01*
X84859580Y-212205952D02*
X84764342Y-212158333D01*
X84764342Y-212158333D02*
X84573866Y-212158333D01*
X84573866Y-212158333D02*
X84478628Y-212205952D01*
X84478628Y-212205952D02*
X84431009Y-212253571D01*
X84431009Y-212253571D02*
X84383390Y-212348809D01*
%TO.C,J10*%
X87300000Y-175750000D02*
X87300000Y-173400000D01*
X87300000Y-175750000D02*
X87300000Y-178100000D01*
X95700000Y-175750000D02*
X95700000Y-173400000D01*
X95700000Y-175750000D02*
X95700000Y-178100000D01*
X87311121Y-173406222D02*
G75*
G02*
X91500000Y-170950000I4188881J-2343781D01*
G01*
X91500000Y-170950000D02*
G75*
G02*
X95688879Y-173406222I-2J-4800003D01*
G01*
X91500000Y-180550000D02*
G75*
G02*
X87311121Y-178093778I0J4800000D01*
G01*
X95688879Y-178093778D02*
G75*
G02*
X91500000Y-180550000I-4188879J2343778D01*
G01*
%TO.C,J4*%
X75000000Y-155050000D02*
X72650000Y-155050000D01*
X75000000Y-155050000D02*
X77350000Y-155050000D01*
X75000000Y-163450000D02*
X72650000Y-163450000D01*
X75000000Y-163450000D02*
X77350000Y-163450000D01*
X70200000Y-159250000D02*
G75*
G02*
X72656222Y-155061121I4800000J0D01*
G01*
X72656222Y-163438879D02*
G75*
G02*
X70200000Y-159250000I2343778J4188879D01*
G01*
X77343778Y-155061121D02*
G75*
G02*
X79800000Y-159250000I-2343781J-4188881D01*
G01*
X79800000Y-159250000D02*
G75*
G02*
X77343778Y-163438879I-4800003J2D01*
G01*
%TO.C,J27*%
D11*
X51370000Y-100620000D02*
X52750000Y-100620000D01*
X51370000Y-102000000D02*
X51370000Y-100620000D01*
X51370000Y-103270000D02*
X51370000Y-121160000D01*
X51370000Y-103270000D02*
X54130000Y-103270000D01*
X51370000Y-121160000D02*
X54130000Y-121160000D01*
X54130000Y-103270000D02*
X54130000Y-121160000D01*
%TO.C,J6*%
D10*
X58500000Y-204550000D02*
X56150000Y-204550000D01*
X58500000Y-204550000D02*
X60850000Y-204550000D01*
X58500000Y-212950000D02*
X56150000Y-212950000D01*
X58500000Y-212950000D02*
X60850000Y-212950000D01*
X53700000Y-208750000D02*
G75*
G02*
X56156222Y-204561121I4800000J0D01*
G01*
X56156222Y-212938879D02*
G75*
G02*
X53700000Y-208750000I2343778J4188879D01*
G01*
X60843778Y-204561121D02*
G75*
G02*
X63300000Y-208750000I-2343781J-4188881D01*
G01*
X63300000Y-208750000D02*
G75*
G02*
X60843778Y-212938879I-4800003J2D01*
G01*
%TO.C,J2*%
X75000000Y-188050000D02*
X72650000Y-188050000D01*
X75000000Y-188050000D02*
X77350000Y-188050000D01*
X75000000Y-196450000D02*
X72650000Y-196450000D01*
X75000000Y-196450000D02*
X77350000Y-196450000D01*
X70200000Y-192250000D02*
G75*
G02*
X72656222Y-188061121I4800000J0D01*
G01*
X72656222Y-196438879D02*
G75*
G02*
X70200000Y-192250000I2343778J4188879D01*
G01*
X77343778Y-188061121D02*
G75*
G02*
X79800000Y-192250000I-2343781J-4188881D01*
G01*
X79800000Y-192250000D02*
G75*
G02*
X77343778Y-196438879I-4800003J2D01*
G01*
%TO.C,J17*%
D11*
X51370000Y-48620000D02*
X52750000Y-48620000D01*
X51370000Y-50000000D02*
X51370000Y-48620000D01*
X51370000Y-51270000D02*
X51370000Y-69160000D01*
X51370000Y-51270000D02*
X54130000Y-51270000D01*
X51370000Y-69160000D02*
X54130000Y-69160000D01*
X54130000Y-51270000D02*
X54130000Y-69160000D01*
%TO.C,J3*%
D10*
X87300000Y-192250000D02*
X87300000Y-189900000D01*
X87300000Y-192250000D02*
X87300000Y-194600000D01*
X95700000Y-192250000D02*
X95700000Y-189900000D01*
X95700000Y-192250000D02*
X95700000Y-194600000D01*
X87311121Y-189906222D02*
G75*
G02*
X91500000Y-187450000I4188881J-2343781D01*
G01*
X91500000Y-187450000D02*
G75*
G02*
X95688879Y-189906222I-2J-4800003D01*
G01*
X91500000Y-197050000D02*
G75*
G02*
X87311121Y-194593778I0J4800000D01*
G01*
X95688879Y-194593778D02*
G75*
G02*
X91500000Y-197050000I-4188879J2343778D01*
G01*
%TO.C,J28*%
D11*
X95820000Y-126620000D02*
X97200000Y-126620000D01*
X95820000Y-128000000D02*
X95820000Y-126620000D01*
X95820000Y-129270000D02*
X95820000Y-147160000D01*
X95820000Y-129270000D02*
X98580000Y-129270000D01*
X95820000Y-147160000D02*
X98580000Y-147160000D01*
X98580000Y-129270000D02*
X98580000Y-147160000D01*
%TO.C,J7*%
D10*
X75000000Y-204550000D02*
X72650000Y-204550000D01*
X75000000Y-204550000D02*
X77350000Y-204550000D01*
X75000000Y-212950000D02*
X72650000Y-212950000D01*
X75000000Y-212950000D02*
X77350000Y-212950000D01*
X70200000Y-208750000D02*
G75*
G02*
X72656222Y-204561121I4800000J0D01*
G01*
X72656222Y-212938879D02*
G75*
G02*
X70200000Y-208750000I2343778J4188879D01*
G01*
X77343778Y-204561121D02*
G75*
G02*
X79800000Y-208750000I-2343781J-4188881D01*
G01*
X79800000Y-208750000D02*
G75*
G02*
X77343778Y-212938879I-4800003J2D01*
G01*
%TO.C,J1*%
X58500000Y-188050000D02*
X56150000Y-188050000D01*
X58500000Y-188050000D02*
X60850000Y-188050000D01*
X58500000Y-196450000D02*
X56150000Y-196450000D01*
X58500000Y-196450000D02*
X60850000Y-196450000D01*
X53700000Y-192250000D02*
G75*
G02*
X56156222Y-188061121I4800000J0D01*
G01*
X56156222Y-196438879D02*
G75*
G02*
X53700000Y-192250000I2343778J4188879D01*
G01*
X60843778Y-188061121D02*
G75*
G02*
X63300000Y-192250000I-2343781J-4188881D01*
G01*
X63300000Y-192250000D02*
G75*
G02*
X60843778Y-196438879I-4800003J2D01*
G01*
%TO.C,J9*%
X75000000Y-171550000D02*
X72650000Y-171550000D01*
X75000000Y-171550000D02*
X77350000Y-171550000D01*
X75000000Y-179950000D02*
X72650000Y-179950000D01*
X75000000Y-179950000D02*
X77350000Y-179950000D01*
X70200000Y-175750000D02*
G75*
G02*
X72656222Y-171561121I4800000J0D01*
G01*
X72656222Y-179938879D02*
G75*
G02*
X70200000Y-175750000I2343778J4188879D01*
G01*
X77343778Y-171561121D02*
G75*
G02*
X79800000Y-175750000I-2343781J-4188881D01*
G01*
X79800000Y-175750000D02*
G75*
G02*
X77343778Y-179938879I-4800003J2D01*
G01*
%TO.C,J5*%
X87300000Y-159250000D02*
X87300000Y-156900000D01*
X87300000Y-159250000D02*
X87300000Y-161600000D01*
X95700000Y-159250000D02*
X95700000Y-156900000D01*
X95700000Y-159250000D02*
X95700000Y-161600000D01*
X87311121Y-156906222D02*
G75*
G02*
X91500000Y-154450000I4188881J-2343781D01*
G01*
X91500000Y-154450000D02*
G75*
G02*
X95688879Y-156906222I-2J-4800003D01*
G01*
X91500000Y-164050000D02*
G75*
G02*
X87311121Y-161593778I0J4800000D01*
G01*
X95688879Y-161593778D02*
G75*
G02*
X91500000Y-164050000I-4188879J2343778D01*
G01*
%TO.C,J18*%
D11*
X95820000Y-48620000D02*
X97200000Y-48620000D01*
X95820000Y-50000000D02*
X95820000Y-48620000D01*
X95820000Y-51270000D02*
X95820000Y-69160000D01*
X95820000Y-51270000D02*
X98580000Y-51270000D01*
X95820000Y-69160000D02*
X98580000Y-69160000D01*
X98580000Y-51270000D02*
X98580000Y-69160000D01*
%TO.C,J8*%
D10*
X87300000Y-208750000D02*
X87300000Y-206400000D01*
X87300000Y-208750000D02*
X87300000Y-211100000D01*
X95700000Y-208750000D02*
X95700000Y-206400000D01*
X95700000Y-208750000D02*
X95700000Y-211100000D01*
X87311121Y-206406222D02*
G75*
G02*
X91500000Y-203950000I4188881J-2343781D01*
G01*
X91500000Y-203950000D02*
G75*
G02*
X95688879Y-206406222I-2J-4800003D01*
G01*
X91500000Y-213550000D02*
G75*
G02*
X87311121Y-211093778I0J4800000D01*
G01*
X95688879Y-211093778D02*
G75*
G02*
X91500000Y-213550000I-4188879J2343778D01*
G01*
%TD*%
%LPC*%
D12*
%TO.C,J10*%
X86903810Y-180346190D03*
D13*
X91000000Y-169250000D03*
D14*
X85000000Y-173250000D03*
%TD*%
D15*
%TO.C,J4*%
X70403810Y-154653810D03*
D14*
X81500000Y-158750000D03*
D13*
X77500000Y-152750000D03*
%TD*%
D16*
%TO.C,J27*%
X52750000Y-102000000D03*
D17*
X52750000Y-104540000D03*
X52750000Y-107080000D03*
X52750000Y-109620000D03*
X52750000Y-112160000D03*
X52750000Y-114700000D03*
X52750000Y-117240000D03*
X52750000Y-119780000D03*
%TD*%
D15*
%TO.C,J6*%
X53903810Y-204153810D03*
D14*
X65000000Y-208250000D03*
D13*
X61000000Y-202250000D03*
%TD*%
D15*
%TO.C,J2*%
X70403810Y-187653810D03*
D14*
X81500000Y-191750000D03*
D13*
X77500000Y-185750000D03*
%TD*%
D16*
%TO.C,J17*%
X52750000Y-50000000D03*
D17*
X52750000Y-52540000D03*
X52750000Y-55080000D03*
X52750000Y-57620000D03*
X52750000Y-60160000D03*
X52750000Y-62700000D03*
X52750000Y-65240000D03*
X52750000Y-67780000D03*
%TD*%
D12*
%TO.C,J3*%
X86903810Y-196846190D03*
D13*
X91000000Y-185750000D03*
D14*
X85000000Y-189750000D03*
%TD*%
D16*
%TO.C,J28*%
X97200000Y-128000000D03*
D17*
X97200000Y-130540000D03*
X97200000Y-133080000D03*
X97200000Y-135620000D03*
X97200000Y-138160000D03*
X97200000Y-140700000D03*
X97200000Y-143240000D03*
X97200000Y-145780000D03*
%TD*%
D15*
%TO.C,J7*%
X70403810Y-204153810D03*
D14*
X81500000Y-208250000D03*
D13*
X77500000Y-202250000D03*
%TD*%
D15*
%TO.C,J1*%
X53903810Y-187653810D03*
D14*
X65000000Y-191750000D03*
D13*
X61000000Y-185750000D03*
%TD*%
D15*
%TO.C,J9*%
X70403810Y-171153810D03*
D14*
X81500000Y-175250000D03*
D13*
X77500000Y-169250000D03*
%TD*%
D12*
%TO.C,J5*%
X86903810Y-163846190D03*
D13*
X91000000Y-152750000D03*
D14*
X85000000Y-156750000D03*
%TD*%
D16*
%TO.C,J18*%
X97200000Y-50000000D03*
D17*
X97200000Y-52540000D03*
X97200000Y-55080000D03*
X97200000Y-57620000D03*
X97200000Y-60160000D03*
X97200000Y-62700000D03*
X97200000Y-65240000D03*
X97200000Y-67780000D03*
%TD*%
D12*
%TO.C,J8*%
X86903810Y-213346190D03*
D13*
X91000000Y-202250000D03*
D14*
X85000000Y-206250000D03*
%TD*%
D18*
%TO.C,D3*%
X78020000Y-55500000D03*
D19*
X88180000Y-55500000D03*
%TD*%
D16*
%TO.C,J26*%
X83000000Y-130000000D03*
D17*
X85540000Y-130000000D03*
X83000000Y-132540000D03*
X85540000Y-132540000D03*
X83000000Y-135080000D03*
X85540000Y-135080000D03*
%TD*%
D16*
%TO.C,JP3*%
X63590000Y-145460000D03*
D17*
X63590000Y-148000000D03*
X63590000Y-150540000D03*
%TD*%
D20*
%TO.C,J100*%
X83890000Y-48800000D03*
D17*
X83890000Y-46260000D03*
X81350000Y-48800000D03*
X81350000Y-46260000D03*
X78810000Y-48800000D03*
X78810000Y-46260000D03*
X76270000Y-48800000D03*
X76270000Y-46260000D03*
X73730000Y-48800000D03*
X73730000Y-46260000D03*
X71190000Y-48800000D03*
X71190000Y-46260000D03*
X68650000Y-48800000D03*
X68650000Y-46260000D03*
X66110000Y-48800000D03*
X66110000Y-46260000D03*
%TD*%
D21*
%TO.C,U10*%
X76270000Y-60060000D03*
D22*
X75000000Y-60060000D03*
X73730000Y-60060000D03*
%TD*%
D16*
%TO.C,J14*%
X64000000Y-84000000D03*
D17*
X66540000Y-84000000D03*
X64000000Y-86540000D03*
X66540000Y-86540000D03*
X64000000Y-89080000D03*
X66540000Y-89080000D03*
%TD*%
D23*
%TO.C,J200*%
X57447500Y-177180000D03*
D17*
X57447500Y-174640000D03*
X57447500Y-172100000D03*
X57447500Y-169560000D03*
X57447500Y-167020000D03*
X59987500Y-177180000D03*
X59987500Y-174640000D03*
X59987500Y-172100000D03*
X59987500Y-169560000D03*
X59987500Y-167020000D03*
%TD*%
D24*
%TO.C,C5*%
X62800000Y-65100000D03*
X67800000Y-65100000D03*
%TD*%
D16*
%TO.C,J15*%
X64000000Y-100000000D03*
D17*
X66540000Y-100000000D03*
X64000000Y-102540000D03*
X66540000Y-102540000D03*
X64000000Y-105080000D03*
X66540000Y-105080000D03*
X64000000Y-107620000D03*
X66540000Y-107620000D03*
X64000000Y-110160000D03*
X66540000Y-110160000D03*
X64000000Y-112700000D03*
X66540000Y-112700000D03*
%TD*%
D25*
%TO.C,C2*%
X93455113Y-47500000D03*
D24*
X91455113Y-47500000D03*
%TD*%
D16*
%TO.C,J24*%
X83000000Y-84000000D03*
D17*
X85540000Y-84000000D03*
X83000000Y-86540000D03*
X85540000Y-86540000D03*
X83000000Y-89080000D03*
X85540000Y-89080000D03*
%TD*%
D16*
%TO.C,JP1*%
X54410000Y-145460000D03*
D17*
X54410000Y-148000000D03*
X54410000Y-150540000D03*
%TD*%
D16*
%TO.C,J16*%
X64000000Y-130000000D03*
D17*
X66540000Y-130000000D03*
X64000000Y-132540000D03*
X66540000Y-132540000D03*
X64000000Y-135080000D03*
X66540000Y-135080000D03*
%TD*%
D25*
%TO.C,C1*%
X58500000Y-47500000D03*
D24*
X56500000Y-47500000D03*
%TD*%
D16*
%TO.C,J25*%
X83000000Y-100000000D03*
D17*
X85540000Y-100000000D03*
X83000000Y-102540000D03*
X85540000Y-102540000D03*
X83000000Y-105080000D03*
X85540000Y-105080000D03*
X83000000Y-107620000D03*
X85540000Y-107620000D03*
X83000000Y-110160000D03*
X85540000Y-110160000D03*
X83000000Y-112700000D03*
X85540000Y-112700000D03*
%TD*%
D16*
%TO.C,JP2*%
X59000000Y-145460000D03*
D17*
X59000000Y-148000000D03*
X59000000Y-150540000D03*
%TD*%
D24*
%TO.C,R49*%
X69110000Y-60500000D03*
X61490000Y-60500000D03*
%TD*%
D16*
%TO.C,J0*%
X53300000Y-125900000D03*
%TD*%
D18*
%TO.C,D4*%
X61820000Y-55500000D03*
D19*
X71980000Y-55500000D03*
%TD*%
%LPD*%
M02*
