%TF.GenerationSoftware,KiCad,Pcbnew,10.0.1*%
%TF.CreationDate,2026-06-25T20:58:30+02:00*%
%TF.ProjectId,DMH_Slew_Mk2_PCB_Main,444d485f-536c-4657-975f-4d6b325f5043,1*%
%TF.SameCoordinates,Original*%
%TF.FileFunction,Legend,Bot*%
%TF.FilePolarity,Positive*%
%FSLAX46Y46*%
G04 Gerber Fmt 4.6, Leading zero omitted, Abs format (unit mm)*
G04 Created by KiCad (PCBNEW 10.0.1) date 2026-06-25 20:58:30*
%MOMM*%
%LPD*%
G01*
G04 APERTURE LIST*
G04 Aperture macros list*
%AMRoundRect*
0 Rectangle with rounded corners*
0 $1 Rounding radius*
0 $2 $3 $4 $5 $6 $7 $8 $9 X,Y pos of 4 corners*
0 Add a 4 corners polygon primitive as box body*
4,1,4,$2,$3,$4,$5,$6,$7,$8,$9,$2,$3,0*
0 Add four circle primitives for the rounded corners*
1,1,$1+$1,$2,$3*
1,1,$1+$1,$4,$5*
1,1,$1+$1,$6,$7*
1,1,$1+$1,$8,$9*
0 Add four rect primitives between the rounded corners*
20,1,$1+$1,$2,$3,$4,$5,0*
20,1,$1+$1,$4,$5,$6,$7,0*
20,1,$1+$1,$6,$7,$8,$9,0*
20,1,$1+$1,$8,$9,$2,$3,0*%
%AMHorizOval*
0 Thick line with rounded ends*
0 $1 width*
0 $2 $3 position (X,Y) of the first rounded end (center of the circle)*
0 $4 $5 position (X,Y) of the second rounded end (center of the circle)*
0 Add line between two ends*
20,1,$1,$2,$3,$4,$5,0*
0 Add two circle primitives to create the rounded ends*
1,1,$1,$2,$3*
1,1,$1,$4,$5*%
G04 Aperture macros list end*
%ADD10C,0.100000*%
%ADD11C,0.150000*%
%ADD12C,0.250000*%
%ADD13C,0.300000*%
%ADD14C,0.120000*%
%ADD15C,0.000000*%
%ADD16HorizOval,1.712000X-0.533159X0.533159X0.533159X-0.533159X0*%
%ADD17O,3.220000X1.712000*%
%ADD18O,1.712000X3.220000*%
%ADD19HorizOval,1.712000X-0.533159X-0.533159X0.533159X0.533159X0*%
%ADD20R,1.700000X1.700000*%
%ADD21C,1.700000*%
%ADD22RoundRect,0.249999X-0.850001X-0.850001X0.850001X-0.850001X0.850001X0.850001X-0.850001X0.850001X0*%
%ADD23C,2.200000*%
%ADD24RoundRect,0.250000X0.600000X-0.600000X0.600000X0.600000X-0.600000X0.600000X-0.600000X-0.600000X0*%
%ADD25R,1.050000X1.500000*%
%ADD26O,1.050000X1.500000*%
%ADD27RoundRect,0.250000X-0.600000X-0.600000X0.600000X-0.600000X0.600000X0.600000X-0.600000X0.600000X0*%
%ADD28C,1.600000*%
%ADD29RoundRect,0.250000X0.550000X0.550000X-0.550000X0.550000X-0.550000X-0.550000X0.550000X-0.550000X0*%
G04 APERTURE END LIST*
D10*
X54400000Y-153700000D02*
X54400000Y-152300000D01*
X58300000Y-159900000D02*
X59000000Y-160600000D01*
X59000000Y-152300000D02*
X59000000Y-153000000D01*
X59000000Y-153000000D02*
X59000000Y-160600000D01*
X59000000Y-160600000D02*
X58300000Y-159900000D01*
X59000000Y-160600000D02*
X59700000Y-159900000D01*
X63600000Y-153700000D02*
X54400000Y-153700000D01*
X63600000Y-153700000D02*
X63600000Y-152300000D01*
X70000000Y-213250000D02*
X80000000Y-213250000D01*
X80000000Y-215250000D01*
X70000000Y-215250000D01*
X70000000Y-213250000D01*
G36*
X70000000Y-213250000D02*
G01*
X80000000Y-213250000D01*
X80000000Y-215250000D01*
X70000000Y-215250000D01*
X70000000Y-213250000D01*
G37*
D11*
X55285714Y-141376037D02*
X55142857Y-141423656D01*
X55142857Y-141423656D02*
X55095238Y-141471275D01*
X55095238Y-141471275D02*
X55047619Y-141566513D01*
X55047619Y-141566513D02*
X55047619Y-141709370D01*
X55047619Y-141709370D02*
X55095238Y-141804608D01*
X55095238Y-141804608D02*
X55142857Y-141852228D01*
X55142857Y-141852228D02*
X55238095Y-141899847D01*
X55238095Y-141899847D02*
X55619047Y-141899847D01*
X55619047Y-141899847D02*
X55619047Y-140899847D01*
X55619047Y-140899847D02*
X55285714Y-140899847D01*
X55285714Y-140899847D02*
X55190476Y-140947466D01*
X55190476Y-140947466D02*
X55142857Y-140995085D01*
X55142857Y-140995085D02*
X55095238Y-141090323D01*
X55095238Y-141090323D02*
X55095238Y-141185561D01*
X55095238Y-141185561D02*
X55142857Y-141280799D01*
X55142857Y-141280799D02*
X55190476Y-141328418D01*
X55190476Y-141328418D02*
X55285714Y-141376037D01*
X55285714Y-141376037D02*
X55619047Y-141376037D01*
X54190476Y-141233180D02*
X54190476Y-141899847D01*
X54619047Y-141233180D02*
X54619047Y-141756989D01*
X54619047Y-141756989D02*
X54571428Y-141852228D01*
X54571428Y-141852228D02*
X54476190Y-141899847D01*
X54476190Y-141899847D02*
X54333333Y-141899847D01*
X54333333Y-141899847D02*
X54238095Y-141852228D01*
X54238095Y-141852228D02*
X54190476Y-141804608D01*
X53761904Y-141852228D02*
X53666666Y-141899847D01*
X53666666Y-141899847D02*
X53476190Y-141899847D01*
X53476190Y-141899847D02*
X53380952Y-141852228D01*
X53380952Y-141852228D02*
X53333333Y-141756989D01*
X53333333Y-141756989D02*
X53333333Y-141709370D01*
X53333333Y-141709370D02*
X53380952Y-141614132D01*
X53380952Y-141614132D02*
X53476190Y-141566513D01*
X53476190Y-141566513D02*
X53619047Y-141566513D01*
X53619047Y-141566513D02*
X53714285Y-141518894D01*
X53714285Y-141518894D02*
X53761904Y-141423656D01*
X53761904Y-141423656D02*
X53761904Y-141376037D01*
X53761904Y-141376037D02*
X53714285Y-141280799D01*
X53714285Y-141280799D02*
X53619047Y-141233180D01*
X53619047Y-141233180D02*
X53476190Y-141233180D01*
X53476190Y-141233180D02*
X53380952Y-141280799D01*
X54619047Y-143414552D02*
X54666666Y-143462172D01*
X54666666Y-143462172D02*
X54809523Y-143509791D01*
X54809523Y-143509791D02*
X54904761Y-143509791D01*
X54904761Y-143509791D02*
X55047618Y-143462172D01*
X55047618Y-143462172D02*
X55142856Y-143366933D01*
X55142856Y-143366933D02*
X55190475Y-143271695D01*
X55190475Y-143271695D02*
X55238094Y-143081219D01*
X55238094Y-143081219D02*
X55238094Y-142938362D01*
X55238094Y-142938362D02*
X55190475Y-142747886D01*
X55190475Y-142747886D02*
X55142856Y-142652648D01*
X55142856Y-142652648D02*
X55047618Y-142557410D01*
X55047618Y-142557410D02*
X54904761Y-142509791D01*
X54904761Y-142509791D02*
X54809523Y-142509791D01*
X54809523Y-142509791D02*
X54666666Y-142557410D01*
X54666666Y-142557410D02*
X54619047Y-142605029D01*
X54333332Y-142509791D02*
X53999999Y-143509791D01*
X53999999Y-143509791D02*
X53666666Y-142509791D01*
X59642857Y-142704819D02*
X60119047Y-142704819D01*
X60119047Y-142704819D02*
X60119047Y-141704819D01*
X58976190Y-142181009D02*
X59309523Y-142181009D01*
X59309523Y-142704819D02*
X59309523Y-141704819D01*
X59309523Y-141704819D02*
X58833333Y-141704819D01*
X58261904Y-141704819D02*
X58071428Y-141704819D01*
X58071428Y-141704819D02*
X57976190Y-141752438D01*
X57976190Y-141752438D02*
X57880952Y-141847676D01*
X57880952Y-141847676D02*
X57833333Y-142038152D01*
X57833333Y-142038152D02*
X57833333Y-142371485D01*
X57833333Y-142371485D02*
X57880952Y-142561961D01*
X57880952Y-142561961D02*
X57976190Y-142657200D01*
X57976190Y-142657200D02*
X58071428Y-142704819D01*
X58071428Y-142704819D02*
X58261904Y-142704819D01*
X58261904Y-142704819D02*
X58357142Y-142657200D01*
X58357142Y-142657200D02*
X58452380Y-142561961D01*
X58452380Y-142561961D02*
X58499999Y-142371485D01*
X58499999Y-142371485D02*
X58499999Y-142038152D01*
X58499999Y-142038152D02*
X58452380Y-141847676D01*
X58452380Y-141847676D02*
X58357142Y-141752438D01*
X58357142Y-141752438D02*
X58261904Y-141704819D01*
X64242857Y-142704819D02*
X64719047Y-142704819D01*
X64719047Y-142704819D02*
X64719047Y-141704819D01*
X63576190Y-142181009D02*
X63909523Y-142181009D01*
X63909523Y-142704819D02*
X63909523Y-141704819D01*
X63909523Y-141704819D02*
X63433333Y-141704819D01*
X62861904Y-141704819D02*
X62671428Y-141704819D01*
X62671428Y-141704819D02*
X62576190Y-141752438D01*
X62576190Y-141752438D02*
X62480952Y-141847676D01*
X62480952Y-141847676D02*
X62433333Y-142038152D01*
X62433333Y-142038152D02*
X62433333Y-142371485D01*
X62433333Y-142371485D02*
X62480952Y-142561961D01*
X62480952Y-142561961D02*
X62576190Y-142657200D01*
X62576190Y-142657200D02*
X62671428Y-142704819D01*
X62671428Y-142704819D02*
X62861904Y-142704819D01*
X62861904Y-142704819D02*
X62957142Y-142657200D01*
X62957142Y-142657200D02*
X63052380Y-142561961D01*
X63052380Y-142561961D02*
X63099999Y-142371485D01*
X63099999Y-142371485D02*
X63099999Y-142038152D01*
X63099999Y-142038152D02*
X63052380Y-141847676D01*
X63052380Y-141847676D02*
X62957142Y-141752438D01*
X62957142Y-141752438D02*
X62861904Y-141704819D01*
D12*
X82035714Y-216699619D02*
X82035714Y-215699619D01*
X82035714Y-215699619D02*
X81702381Y-216413904D01*
X81702381Y-216413904D02*
X81369048Y-215699619D01*
X81369048Y-215699619D02*
X81369048Y-216699619D01*
X80892857Y-216699619D02*
X80892857Y-215699619D01*
X80797619Y-216318666D02*
X80511905Y-216699619D01*
X80511905Y-216032952D02*
X80892857Y-216413904D01*
X80130952Y-215794857D02*
X80083333Y-215747238D01*
X80083333Y-215747238D02*
X79988095Y-215699619D01*
X79988095Y-215699619D02*
X79750000Y-215699619D01*
X79750000Y-215699619D02*
X79654762Y-215747238D01*
X79654762Y-215747238D02*
X79607143Y-215794857D01*
X79607143Y-215794857D02*
X79559524Y-215890095D01*
X79559524Y-215890095D02*
X79559524Y-215985333D01*
X79559524Y-215985333D02*
X79607143Y-216128190D01*
X79607143Y-216128190D02*
X80178571Y-216699619D01*
X80178571Y-216699619D02*
X79559524Y-216699619D01*
X79130952Y-216604380D02*
X79083333Y-216652000D01*
X79083333Y-216652000D02*
X79130952Y-216699619D01*
X79130952Y-216699619D02*
X79178571Y-216652000D01*
X79178571Y-216652000D02*
X79130952Y-216604380D01*
X79130952Y-216604380D02*
X79130952Y-216699619D01*
X78464286Y-215699619D02*
X78369048Y-215699619D01*
X78369048Y-215699619D02*
X78273810Y-215747238D01*
X78273810Y-215747238D02*
X78226191Y-215794857D01*
X78226191Y-215794857D02*
X78178572Y-215890095D01*
X78178572Y-215890095D02*
X78130953Y-216080571D01*
X78130953Y-216080571D02*
X78130953Y-216318666D01*
X78130953Y-216318666D02*
X78178572Y-216509142D01*
X78178572Y-216509142D02*
X78226191Y-216604380D01*
X78226191Y-216604380D02*
X78273810Y-216652000D01*
X78273810Y-216652000D02*
X78369048Y-216699619D01*
X78369048Y-216699619D02*
X78464286Y-216699619D01*
X78464286Y-216699619D02*
X78559524Y-216652000D01*
X78559524Y-216652000D02*
X78607143Y-216604380D01*
X78607143Y-216604380D02*
X78654762Y-216509142D01*
X78654762Y-216509142D02*
X78702381Y-216318666D01*
X78702381Y-216318666D02*
X78702381Y-216080571D01*
X78702381Y-216080571D02*
X78654762Y-215890095D01*
X78654762Y-215890095D02*
X78607143Y-215794857D01*
X78607143Y-215794857D02*
X78559524Y-215747238D01*
X78559524Y-215747238D02*
X78464286Y-215699619D01*
X76940476Y-216318666D02*
X76178572Y-216318666D01*
X74988095Y-216413904D02*
X74511905Y-216413904D01*
X75083333Y-216699619D02*
X74750000Y-215699619D01*
X74750000Y-215699619D02*
X74416667Y-216699619D01*
X74083333Y-216032952D02*
X74083333Y-217032952D01*
X74083333Y-216080571D02*
X73988095Y-216032952D01*
X73988095Y-216032952D02*
X73797619Y-216032952D01*
X73797619Y-216032952D02*
X73702381Y-216080571D01*
X73702381Y-216080571D02*
X73654762Y-216128190D01*
X73654762Y-216128190D02*
X73607143Y-216223428D01*
X73607143Y-216223428D02*
X73607143Y-216509142D01*
X73607143Y-216509142D02*
X73654762Y-216604380D01*
X73654762Y-216604380D02*
X73702381Y-216652000D01*
X73702381Y-216652000D02*
X73797619Y-216699619D01*
X73797619Y-216699619D02*
X73988095Y-216699619D01*
X73988095Y-216699619D02*
X74083333Y-216652000D01*
X73178571Y-216699619D02*
X73178571Y-216032952D01*
X73178571Y-216223428D02*
X73130952Y-216128190D01*
X73130952Y-216128190D02*
X73083333Y-216080571D01*
X73083333Y-216080571D02*
X72988095Y-216032952D01*
X72988095Y-216032952D02*
X72892857Y-216032952D01*
X72559523Y-216699619D02*
X72559523Y-216032952D01*
X72559523Y-215699619D02*
X72607142Y-215747238D01*
X72607142Y-215747238D02*
X72559523Y-215794857D01*
X72559523Y-215794857D02*
X72511904Y-215747238D01*
X72511904Y-215747238D02*
X72559523Y-215699619D01*
X72559523Y-215699619D02*
X72559523Y-215794857D01*
X71940476Y-216699619D02*
X72035714Y-216652000D01*
X72035714Y-216652000D02*
X72083333Y-216556761D01*
X72083333Y-216556761D02*
X72083333Y-215699619D01*
X70845237Y-215794857D02*
X70797618Y-215747238D01*
X70797618Y-215747238D02*
X70702380Y-215699619D01*
X70702380Y-215699619D02*
X70464285Y-215699619D01*
X70464285Y-215699619D02*
X70369047Y-215747238D01*
X70369047Y-215747238D02*
X70321428Y-215794857D01*
X70321428Y-215794857D02*
X70273809Y-215890095D01*
X70273809Y-215890095D02*
X70273809Y-215985333D01*
X70273809Y-215985333D02*
X70321428Y-216128190D01*
X70321428Y-216128190D02*
X70892856Y-216699619D01*
X70892856Y-216699619D02*
X70273809Y-216699619D01*
X69654761Y-215699619D02*
X69559523Y-215699619D01*
X69559523Y-215699619D02*
X69464285Y-215747238D01*
X69464285Y-215747238D02*
X69416666Y-215794857D01*
X69416666Y-215794857D02*
X69369047Y-215890095D01*
X69369047Y-215890095D02*
X69321428Y-216080571D01*
X69321428Y-216080571D02*
X69321428Y-216318666D01*
X69321428Y-216318666D02*
X69369047Y-216509142D01*
X69369047Y-216509142D02*
X69416666Y-216604380D01*
X69416666Y-216604380D02*
X69464285Y-216652000D01*
X69464285Y-216652000D02*
X69559523Y-216699619D01*
X69559523Y-216699619D02*
X69654761Y-216699619D01*
X69654761Y-216699619D02*
X69749999Y-216652000D01*
X69749999Y-216652000D02*
X69797618Y-216604380D01*
X69797618Y-216604380D02*
X69845237Y-216509142D01*
X69845237Y-216509142D02*
X69892856Y-216318666D01*
X69892856Y-216318666D02*
X69892856Y-216080571D01*
X69892856Y-216080571D02*
X69845237Y-215890095D01*
X69845237Y-215890095D02*
X69797618Y-215794857D01*
X69797618Y-215794857D02*
X69749999Y-215747238D01*
X69749999Y-215747238D02*
X69654761Y-215699619D01*
X68940475Y-215794857D02*
X68892856Y-215747238D01*
X68892856Y-215747238D02*
X68797618Y-215699619D01*
X68797618Y-215699619D02*
X68559523Y-215699619D01*
X68559523Y-215699619D02*
X68464285Y-215747238D01*
X68464285Y-215747238D02*
X68416666Y-215794857D01*
X68416666Y-215794857D02*
X68369047Y-215890095D01*
X68369047Y-215890095D02*
X68369047Y-215985333D01*
X68369047Y-215985333D02*
X68416666Y-216128190D01*
X68416666Y-216128190D02*
X68988094Y-216699619D01*
X68988094Y-216699619D02*
X68369047Y-216699619D01*
X67511904Y-215699619D02*
X67702380Y-215699619D01*
X67702380Y-215699619D02*
X67797618Y-215747238D01*
X67797618Y-215747238D02*
X67845237Y-215794857D01*
X67845237Y-215794857D02*
X67940475Y-215937714D01*
X67940475Y-215937714D02*
X67988094Y-216128190D01*
X67988094Y-216128190D02*
X67988094Y-216509142D01*
X67988094Y-216509142D02*
X67940475Y-216604380D01*
X67940475Y-216604380D02*
X67892856Y-216652000D01*
X67892856Y-216652000D02*
X67797618Y-216699619D01*
X67797618Y-216699619D02*
X67607142Y-216699619D01*
X67607142Y-216699619D02*
X67511904Y-216652000D01*
X67511904Y-216652000D02*
X67464285Y-216604380D01*
X67464285Y-216604380D02*
X67416666Y-216509142D01*
X67416666Y-216509142D02*
X67416666Y-216271047D01*
X67416666Y-216271047D02*
X67464285Y-216175809D01*
X67464285Y-216175809D02*
X67511904Y-216128190D01*
X67511904Y-216128190D02*
X67607142Y-216080571D01*
X67607142Y-216080571D02*
X67797618Y-216080571D01*
X67797618Y-216080571D02*
X67892856Y-216128190D01*
X67892856Y-216128190D02*
X67940475Y-216175809D01*
X67940475Y-216175809D02*
X67988094Y-216271047D01*
D13*
X62607142Y-137928328D02*
X62607142Y-138999757D01*
X62607142Y-138999757D02*
X62678571Y-139214042D01*
X62678571Y-139214042D02*
X62821428Y-139356900D01*
X62821428Y-139356900D02*
X63035714Y-139428328D01*
X63035714Y-139428328D02*
X63178571Y-139428328D01*
X61250000Y-138428328D02*
X61250000Y-139428328D01*
X61892857Y-138428328D02*
X61892857Y-139214042D01*
X61892857Y-139214042D02*
X61821428Y-139356900D01*
X61821428Y-139356900D02*
X61678571Y-139428328D01*
X61678571Y-139428328D02*
X61464285Y-139428328D01*
X61464285Y-139428328D02*
X61321428Y-139356900D01*
X61321428Y-139356900D02*
X61250000Y-139285471D01*
X60535714Y-139428328D02*
X60535714Y-138428328D01*
X60535714Y-138571185D02*
X60464285Y-138499757D01*
X60464285Y-138499757D02*
X60321428Y-138428328D01*
X60321428Y-138428328D02*
X60107142Y-138428328D01*
X60107142Y-138428328D02*
X59964285Y-138499757D01*
X59964285Y-138499757D02*
X59892857Y-138642614D01*
X59892857Y-138642614D02*
X59892857Y-139428328D01*
X59892857Y-138642614D02*
X59821428Y-138499757D01*
X59821428Y-138499757D02*
X59678571Y-138428328D01*
X59678571Y-138428328D02*
X59464285Y-138428328D01*
X59464285Y-138428328D02*
X59321428Y-138499757D01*
X59321428Y-138499757D02*
X59249999Y-138642614D01*
X59249999Y-138642614D02*
X59249999Y-139428328D01*
X58535714Y-138428328D02*
X58535714Y-139928328D01*
X58535714Y-138499757D02*
X58392857Y-138428328D01*
X58392857Y-138428328D02*
X58107142Y-138428328D01*
X58107142Y-138428328D02*
X57964285Y-138499757D01*
X57964285Y-138499757D02*
X57892857Y-138571185D01*
X57892857Y-138571185D02*
X57821428Y-138714042D01*
X57821428Y-138714042D02*
X57821428Y-139142614D01*
X57821428Y-139142614D02*
X57892857Y-139285471D01*
X57892857Y-139285471D02*
X57964285Y-139356900D01*
X57964285Y-139356900D02*
X58107142Y-139428328D01*
X58107142Y-139428328D02*
X58392857Y-139428328D01*
X58392857Y-139428328D02*
X58535714Y-139356900D01*
X56607142Y-139356900D02*
X56749999Y-139428328D01*
X56749999Y-139428328D02*
X57035714Y-139428328D01*
X57035714Y-139428328D02*
X57178571Y-139356900D01*
X57178571Y-139356900D02*
X57249999Y-139214042D01*
X57249999Y-139214042D02*
X57249999Y-138642614D01*
X57249999Y-138642614D02*
X57178571Y-138499757D01*
X57178571Y-138499757D02*
X57035714Y-138428328D01*
X57035714Y-138428328D02*
X56749999Y-138428328D01*
X56749999Y-138428328D02*
X56607142Y-138499757D01*
X56607142Y-138499757D02*
X56535714Y-138642614D01*
X56535714Y-138642614D02*
X56535714Y-138785471D01*
X56535714Y-138785471D02*
X57249999Y-138928328D01*
X55892857Y-139428328D02*
X55892857Y-138428328D01*
X55892857Y-138714042D02*
X55821428Y-138571185D01*
X55821428Y-138571185D02*
X55750000Y-138499757D01*
X55750000Y-138499757D02*
X55607142Y-138428328D01*
X55607142Y-138428328D02*
X55464285Y-138428328D01*
X55035714Y-139356900D02*
X54892857Y-139428328D01*
X54892857Y-139428328D02*
X54607143Y-139428328D01*
X54607143Y-139428328D02*
X54464286Y-139356900D01*
X54464286Y-139356900D02*
X54392857Y-139214042D01*
X54392857Y-139214042D02*
X54392857Y-139142614D01*
X54392857Y-139142614D02*
X54464286Y-138999757D01*
X54464286Y-138999757D02*
X54607143Y-138928328D01*
X54607143Y-138928328D02*
X54821429Y-138928328D01*
X54821429Y-138928328D02*
X54964286Y-138856900D01*
X54964286Y-138856900D02*
X55035714Y-138714042D01*
X55035714Y-138714042D02*
X55035714Y-138642614D01*
X55035714Y-138642614D02*
X54964286Y-138499757D01*
X54964286Y-138499757D02*
X54821429Y-138428328D01*
X54821429Y-138428328D02*
X54607143Y-138428328D01*
X54607143Y-138428328D02*
X54464286Y-138499757D01*
D11*
X94297619Y-175681009D02*
X94630952Y-175681009D01*
X94696429Y-176204819D02*
X94571429Y-175204819D01*
X94571429Y-175204819D02*
X94095238Y-175204819D01*
X93410714Y-176204819D02*
X93345238Y-175681009D01*
X93345238Y-175681009D02*
X93380952Y-175585771D01*
X93380952Y-175585771D02*
X93470238Y-175538152D01*
X93470238Y-175538152D02*
X93660714Y-175538152D01*
X93660714Y-175538152D02*
X93761905Y-175585771D01*
X93404762Y-176157200D02*
X93505952Y-176204819D01*
X93505952Y-176204819D02*
X93744048Y-176204819D01*
X93744048Y-176204819D02*
X93833333Y-176157200D01*
X93833333Y-176157200D02*
X93869048Y-176061961D01*
X93869048Y-176061961D02*
X93857143Y-175966723D01*
X93857143Y-175966723D02*
X93797619Y-175871485D01*
X93797619Y-175871485D02*
X93696429Y-175823866D01*
X93696429Y-175823866D02*
X93458333Y-175823866D01*
X93458333Y-175823866D02*
X93357143Y-175776247D01*
X92791667Y-176204819D02*
X92880952Y-176157200D01*
X92880952Y-176157200D02*
X92916667Y-176061961D01*
X92916667Y-176061961D02*
X92809524Y-175204819D01*
X92267857Y-176204819D02*
X92357142Y-176157200D01*
X92357142Y-176157200D02*
X92392857Y-176061961D01*
X92392857Y-176061961D02*
X92285714Y-175204819D01*
X91886904Y-176204819D02*
X91803570Y-175538152D01*
X91761904Y-175204819D02*
X91815475Y-175252438D01*
X91815475Y-175252438D02*
X91773808Y-175300057D01*
X91773808Y-175300057D02*
X91720237Y-175252438D01*
X91720237Y-175252438D02*
X91761904Y-175204819D01*
X91761904Y-175204819D02*
X91773808Y-175300057D01*
X91327380Y-175538152D02*
X91410714Y-176204819D01*
X91339285Y-175633390D02*
X91285714Y-175585771D01*
X91285714Y-175585771D02*
X91184523Y-175538152D01*
X91184523Y-175538152D02*
X91041666Y-175538152D01*
X91041666Y-175538152D02*
X90952380Y-175585771D01*
X90952380Y-175585771D02*
X90916666Y-175681009D01*
X90916666Y-175681009D02*
X90982142Y-176204819D01*
X89994047Y-175538152D02*
X90095237Y-176347676D01*
X90095237Y-176347676D02*
X90154761Y-176442914D01*
X90154761Y-176442914D02*
X90208333Y-176490533D01*
X90208333Y-176490533D02*
X90309523Y-176538152D01*
X90309523Y-176538152D02*
X90452380Y-176538152D01*
X90452380Y-176538152D02*
X90541666Y-176490533D01*
X90071428Y-176157200D02*
X90172618Y-176204819D01*
X90172618Y-176204819D02*
X90363095Y-176204819D01*
X90363095Y-176204819D02*
X90452380Y-176157200D01*
X90452380Y-176157200D02*
X90494047Y-176109580D01*
X90494047Y-176109580D02*
X90529761Y-176014342D01*
X90529761Y-176014342D02*
X90494047Y-175728628D01*
X90494047Y-175728628D02*
X90434523Y-175633390D01*
X90434523Y-175633390D02*
X90380952Y-175585771D01*
X90380952Y-175585771D02*
X90279761Y-175538152D01*
X90279761Y-175538152D02*
X90089285Y-175538152D01*
X90089285Y-175538152D02*
X89999999Y-175585771D01*
X88440475Y-175681009D02*
X88303570Y-175728628D01*
X88303570Y-175728628D02*
X88261904Y-175776247D01*
X88261904Y-175776247D02*
X88226189Y-175871485D01*
X88226189Y-175871485D02*
X88244047Y-176014342D01*
X88244047Y-176014342D02*
X88303570Y-176109580D01*
X88303570Y-176109580D02*
X88357142Y-176157200D01*
X88357142Y-176157200D02*
X88458332Y-176204819D01*
X88458332Y-176204819D02*
X88839285Y-176204819D01*
X88839285Y-176204819D02*
X88714285Y-175204819D01*
X88714285Y-175204819D02*
X88380951Y-175204819D01*
X88380951Y-175204819D02*
X88291666Y-175252438D01*
X88291666Y-175252438D02*
X88249999Y-175300057D01*
X88249999Y-175300057D02*
X88214285Y-175395295D01*
X88214285Y-175395295D02*
X88226189Y-175490533D01*
X88226189Y-175490533D02*
X88285713Y-175585771D01*
X88285713Y-175585771D02*
X88339285Y-175633390D01*
X88339285Y-175633390D02*
X88440475Y-175681009D01*
X88440475Y-175681009D02*
X88773808Y-175681009D01*
X77291666Y-159704819D02*
X77565476Y-159228628D01*
X77863095Y-159704819D02*
X77738095Y-158704819D01*
X77738095Y-158704819D02*
X77357142Y-158704819D01*
X77357142Y-158704819D02*
X77267857Y-158752438D01*
X77267857Y-158752438D02*
X77226190Y-158800057D01*
X77226190Y-158800057D02*
X77190476Y-158895295D01*
X77190476Y-158895295D02*
X77208333Y-159038152D01*
X77208333Y-159038152D02*
X77267857Y-159133390D01*
X77267857Y-159133390D02*
X77321428Y-159181009D01*
X77321428Y-159181009D02*
X77422618Y-159228628D01*
X77422618Y-159228628D02*
X77803571Y-159228628D01*
X76863095Y-159704819D02*
X76779761Y-159038152D01*
X76738095Y-158704819D02*
X76791666Y-158752438D01*
X76791666Y-158752438D02*
X76749999Y-158800057D01*
X76749999Y-158800057D02*
X76696428Y-158752438D01*
X76696428Y-158752438D02*
X76738095Y-158704819D01*
X76738095Y-158704819D02*
X76749999Y-158800057D01*
X76428571Y-159657200D02*
X76339286Y-159704819D01*
X76339286Y-159704819D02*
X76148809Y-159704819D01*
X76148809Y-159704819D02*
X76047619Y-159657200D01*
X76047619Y-159657200D02*
X75988095Y-159561961D01*
X75988095Y-159561961D02*
X75982143Y-159514342D01*
X75982143Y-159514342D02*
X76017857Y-159419104D01*
X76017857Y-159419104D02*
X76107143Y-159371485D01*
X76107143Y-159371485D02*
X76250000Y-159371485D01*
X76250000Y-159371485D02*
X76339286Y-159323866D01*
X76339286Y-159323866D02*
X76375000Y-159228628D01*
X76375000Y-159228628D02*
X76369048Y-159181009D01*
X76369048Y-159181009D02*
X76309524Y-159085771D01*
X76309524Y-159085771D02*
X76208333Y-159038152D01*
X76208333Y-159038152D02*
X76065476Y-159038152D01*
X76065476Y-159038152D02*
X75976190Y-159085771D01*
X75577381Y-159704819D02*
X75494047Y-159038152D01*
X75452381Y-158704819D02*
X75505952Y-158752438D01*
X75505952Y-158752438D02*
X75464285Y-158800057D01*
X75464285Y-158800057D02*
X75410714Y-158752438D01*
X75410714Y-158752438D02*
X75452381Y-158704819D01*
X75452381Y-158704819D02*
X75464285Y-158800057D01*
X75017857Y-159038152D02*
X75101191Y-159704819D01*
X75029762Y-159133390D02*
X74976191Y-159085771D01*
X74976191Y-159085771D02*
X74875000Y-159038152D01*
X74875000Y-159038152D02*
X74732143Y-159038152D01*
X74732143Y-159038152D02*
X74642857Y-159085771D01*
X74642857Y-159085771D02*
X74607143Y-159181009D01*
X74607143Y-159181009D02*
X74672619Y-159704819D01*
X73684524Y-159038152D02*
X73785714Y-159847676D01*
X73785714Y-159847676D02*
X73845238Y-159942914D01*
X73845238Y-159942914D02*
X73898810Y-159990533D01*
X73898810Y-159990533D02*
X74000000Y-160038152D01*
X74000000Y-160038152D02*
X74142857Y-160038152D01*
X74142857Y-160038152D02*
X74232143Y-159990533D01*
X73761905Y-159657200D02*
X73863095Y-159704819D01*
X73863095Y-159704819D02*
X74053572Y-159704819D01*
X74053572Y-159704819D02*
X74142857Y-159657200D01*
X74142857Y-159657200D02*
X74184524Y-159609580D01*
X74184524Y-159609580D02*
X74220238Y-159514342D01*
X74220238Y-159514342D02*
X74184524Y-159228628D01*
X74184524Y-159228628D02*
X74125000Y-159133390D01*
X74125000Y-159133390D02*
X74071429Y-159085771D01*
X74071429Y-159085771D02*
X73970238Y-159038152D01*
X73970238Y-159038152D02*
X73779762Y-159038152D01*
X73779762Y-159038152D02*
X73690476Y-159085771D01*
X72541666Y-159419104D02*
X72065476Y-159419104D01*
X72672619Y-159704819D02*
X72214285Y-158704819D01*
X72214285Y-158704819D02*
X72005952Y-159704819D01*
X61029762Y-209204819D02*
X60904762Y-208204819D01*
X60470238Y-208538152D02*
X60553572Y-209204819D01*
X60482143Y-208633390D02*
X60428572Y-208585771D01*
X60428572Y-208585771D02*
X60327381Y-208538152D01*
X60327381Y-208538152D02*
X60184524Y-208538152D01*
X60184524Y-208538152D02*
X60095238Y-208585771D01*
X60095238Y-208585771D02*
X60059524Y-208681009D01*
X60059524Y-208681009D02*
X60125000Y-209204819D01*
X59565476Y-208538152D02*
X59690476Y-209538152D01*
X59571429Y-208585771D02*
X59470238Y-208538152D01*
X59470238Y-208538152D02*
X59279762Y-208538152D01*
X59279762Y-208538152D02*
X59190476Y-208585771D01*
X59190476Y-208585771D02*
X59148810Y-208633390D01*
X59148810Y-208633390D02*
X59113095Y-208728628D01*
X59113095Y-208728628D02*
X59148810Y-209014342D01*
X59148810Y-209014342D02*
X59208333Y-209109580D01*
X59208333Y-209109580D02*
X59261905Y-209157200D01*
X59261905Y-209157200D02*
X59363095Y-209204819D01*
X59363095Y-209204819D02*
X59553572Y-209204819D01*
X59553572Y-209204819D02*
X59642857Y-209157200D01*
X58232143Y-208538152D02*
X58315476Y-209204819D01*
X58660714Y-208538152D02*
X58726191Y-209061961D01*
X58726191Y-209061961D02*
X58690476Y-209157200D01*
X58690476Y-209157200D02*
X58601191Y-209204819D01*
X58601191Y-209204819D02*
X58458333Y-209204819D01*
X58458333Y-209204819D02*
X58357143Y-209157200D01*
X58357143Y-209157200D02*
X58303571Y-209109580D01*
X57898809Y-208538152D02*
X57517857Y-208538152D01*
X57714286Y-208204819D02*
X57821429Y-209061961D01*
X57821429Y-209061961D02*
X57785714Y-209157200D01*
X57785714Y-209157200D02*
X57696429Y-209204819D01*
X57696429Y-209204819D02*
X57601190Y-209204819D01*
X56107142Y-208681009D02*
X55970237Y-208728628D01*
X55970237Y-208728628D02*
X55928571Y-208776247D01*
X55928571Y-208776247D02*
X55892856Y-208871485D01*
X55892856Y-208871485D02*
X55910714Y-209014342D01*
X55910714Y-209014342D02*
X55970237Y-209109580D01*
X55970237Y-209109580D02*
X56023809Y-209157200D01*
X56023809Y-209157200D02*
X56124999Y-209204819D01*
X56124999Y-209204819D02*
X56505952Y-209204819D01*
X56505952Y-209204819D02*
X56380952Y-208204819D01*
X56380952Y-208204819D02*
X56047618Y-208204819D01*
X56047618Y-208204819D02*
X55958333Y-208252438D01*
X55958333Y-208252438D02*
X55916666Y-208300057D01*
X55916666Y-208300057D02*
X55880952Y-208395295D01*
X55880952Y-208395295D02*
X55892856Y-208490533D01*
X55892856Y-208490533D02*
X55952380Y-208585771D01*
X55952380Y-208585771D02*
X56005952Y-208633390D01*
X56005952Y-208633390D02*
X56107142Y-208681009D01*
X56107142Y-208681009D02*
X56440475Y-208681009D01*
X76994047Y-192609580D02*
X77047619Y-192657200D01*
X77047619Y-192657200D02*
X77196428Y-192704819D01*
X77196428Y-192704819D02*
X77291666Y-192704819D01*
X77291666Y-192704819D02*
X77428571Y-192657200D01*
X77428571Y-192657200D02*
X77511904Y-192561961D01*
X77511904Y-192561961D02*
X77547619Y-192466723D01*
X77547619Y-192466723D02*
X77571428Y-192276247D01*
X77571428Y-192276247D02*
X77553571Y-192133390D01*
X77553571Y-192133390D02*
X77482143Y-191942914D01*
X77482143Y-191942914D02*
X77422619Y-191847676D01*
X77422619Y-191847676D02*
X77315476Y-191752438D01*
X77315476Y-191752438D02*
X77166666Y-191704819D01*
X77166666Y-191704819D02*
X77071428Y-191704819D01*
X77071428Y-191704819D02*
X76934524Y-191752438D01*
X76934524Y-191752438D02*
X76892857Y-191800057D01*
X76595238Y-191704819D02*
X76386904Y-192704819D01*
X76386904Y-192704819D02*
X75928571Y-191704819D01*
X74970237Y-192419104D02*
X74494047Y-192419104D01*
X75101190Y-192704819D02*
X74642856Y-191704819D01*
X74642856Y-191704819D02*
X74434523Y-192704819D01*
X73339285Y-192704819D02*
X73214285Y-191704819D01*
X72779761Y-192038152D02*
X72863095Y-192704819D01*
X72791666Y-192133390D02*
X72738095Y-192085771D01*
X72738095Y-192085771D02*
X72636904Y-192038152D01*
X72636904Y-192038152D02*
X72494047Y-192038152D01*
X72494047Y-192038152D02*
X72404761Y-192085771D01*
X72404761Y-192085771D02*
X72369047Y-192181009D01*
X72369047Y-192181009D02*
X72434523Y-192704819D01*
X94214285Y-191704819D02*
X94023809Y-191704819D01*
X94023809Y-191704819D02*
X93934524Y-191752438D01*
X93934524Y-191752438D02*
X93851190Y-191847676D01*
X93851190Y-191847676D02*
X93827381Y-192038152D01*
X93827381Y-192038152D02*
X93869047Y-192371485D01*
X93869047Y-192371485D02*
X93940476Y-192561961D01*
X93940476Y-192561961D02*
X94047619Y-192657200D01*
X94047619Y-192657200D02*
X94148809Y-192704819D01*
X94148809Y-192704819D02*
X94339285Y-192704819D01*
X94339285Y-192704819D02*
X94428571Y-192657200D01*
X94428571Y-192657200D02*
X94511905Y-192561961D01*
X94511905Y-192561961D02*
X94535714Y-192371485D01*
X94535714Y-192371485D02*
X94494047Y-192038152D01*
X94494047Y-192038152D02*
X94422619Y-191847676D01*
X94422619Y-191847676D02*
X94315476Y-191752438D01*
X94315476Y-191752438D02*
X94214285Y-191704819D01*
X92970238Y-192038152D02*
X93053571Y-192704819D01*
X93398809Y-192038152D02*
X93464286Y-192561961D01*
X93464286Y-192561961D02*
X93428571Y-192657200D01*
X93428571Y-192657200D02*
X93339286Y-192704819D01*
X93339286Y-192704819D02*
X93196428Y-192704819D01*
X93196428Y-192704819D02*
X93095238Y-192657200D01*
X93095238Y-192657200D02*
X93041666Y-192609580D01*
X92636904Y-192038152D02*
X92255952Y-192038152D01*
X92452381Y-191704819D02*
X92559524Y-192561961D01*
X92559524Y-192561961D02*
X92523809Y-192657200D01*
X92523809Y-192657200D02*
X92434524Y-192704819D01*
X92434524Y-192704819D02*
X92339285Y-192704819D01*
X91922618Y-192038152D02*
X92047618Y-193038152D01*
X91928571Y-192085771D02*
X91827380Y-192038152D01*
X91827380Y-192038152D02*
X91636904Y-192038152D01*
X91636904Y-192038152D02*
X91547618Y-192085771D01*
X91547618Y-192085771D02*
X91505952Y-192133390D01*
X91505952Y-192133390D02*
X91470237Y-192228628D01*
X91470237Y-192228628D02*
X91505952Y-192514342D01*
X91505952Y-192514342D02*
X91565475Y-192609580D01*
X91565475Y-192609580D02*
X91619047Y-192657200D01*
X91619047Y-192657200D02*
X91720237Y-192704819D01*
X91720237Y-192704819D02*
X91910714Y-192704819D01*
X91910714Y-192704819D02*
X91999999Y-192657200D01*
X90589285Y-192038152D02*
X90672618Y-192704819D01*
X91017856Y-192038152D02*
X91083333Y-192561961D01*
X91083333Y-192561961D02*
X91047618Y-192657200D01*
X91047618Y-192657200D02*
X90958333Y-192704819D01*
X90958333Y-192704819D02*
X90815475Y-192704819D01*
X90815475Y-192704819D02*
X90714285Y-192657200D01*
X90714285Y-192657200D02*
X90660713Y-192609580D01*
X90255951Y-192038152D02*
X89874999Y-192038152D01*
X90071428Y-191704819D02*
X90178571Y-192561961D01*
X90178571Y-192561961D02*
X90142856Y-192657200D01*
X90142856Y-192657200D02*
X90053571Y-192704819D01*
X90053571Y-192704819D02*
X89958332Y-192704819D01*
X88874998Y-192419104D02*
X88398808Y-192419104D01*
X89005951Y-192704819D02*
X88547617Y-191704819D01*
X88547617Y-191704819D02*
X88339284Y-192704819D01*
X77065475Y-209109580D02*
X77119047Y-209157200D01*
X77119047Y-209157200D02*
X77267856Y-209204819D01*
X77267856Y-209204819D02*
X77363094Y-209204819D01*
X77363094Y-209204819D02*
X77499999Y-209157200D01*
X77499999Y-209157200D02*
X77583332Y-209061961D01*
X77583332Y-209061961D02*
X77619047Y-208966723D01*
X77619047Y-208966723D02*
X77642856Y-208776247D01*
X77642856Y-208776247D02*
X77624999Y-208633390D01*
X77624999Y-208633390D02*
X77553571Y-208442914D01*
X77553571Y-208442914D02*
X77494047Y-208347676D01*
X77494047Y-208347676D02*
X77386904Y-208252438D01*
X77386904Y-208252438D02*
X77238094Y-208204819D01*
X77238094Y-208204819D02*
X77142856Y-208204819D01*
X77142856Y-208204819D02*
X77005952Y-208252438D01*
X77005952Y-208252438D02*
X76964285Y-208300057D01*
X76666666Y-208204819D02*
X76458332Y-209204819D01*
X76458332Y-209204819D02*
X75999999Y-208204819D01*
X74630951Y-208681009D02*
X74494046Y-208728628D01*
X74494046Y-208728628D02*
X74452380Y-208776247D01*
X74452380Y-208776247D02*
X74416665Y-208871485D01*
X74416665Y-208871485D02*
X74434523Y-209014342D01*
X74434523Y-209014342D02*
X74494046Y-209109580D01*
X74494046Y-209109580D02*
X74547618Y-209157200D01*
X74547618Y-209157200D02*
X74648808Y-209204819D01*
X74648808Y-209204819D02*
X75029761Y-209204819D01*
X75029761Y-209204819D02*
X74904761Y-208204819D01*
X74904761Y-208204819D02*
X74571427Y-208204819D01*
X74571427Y-208204819D02*
X74482142Y-208252438D01*
X74482142Y-208252438D02*
X74440475Y-208300057D01*
X74440475Y-208300057D02*
X74404761Y-208395295D01*
X74404761Y-208395295D02*
X74416665Y-208490533D01*
X74416665Y-208490533D02*
X74476189Y-208585771D01*
X74476189Y-208585771D02*
X74529761Y-208633390D01*
X74529761Y-208633390D02*
X74630951Y-208681009D01*
X74630951Y-208681009D02*
X74964284Y-208681009D01*
X73267856Y-209204819D02*
X73142856Y-208204819D01*
X72708332Y-208538152D02*
X72791666Y-209204819D01*
X72720237Y-208633390D02*
X72666666Y-208585771D01*
X72666666Y-208585771D02*
X72565475Y-208538152D01*
X72565475Y-208538152D02*
X72422618Y-208538152D01*
X72422618Y-208538152D02*
X72333332Y-208585771D01*
X72333332Y-208585771D02*
X72297618Y-208681009D01*
X72297618Y-208681009D02*
X72363094Y-209204819D01*
X60958333Y-192704819D02*
X60833333Y-191704819D01*
X60398809Y-192038152D02*
X60482143Y-192704819D01*
X60410714Y-192133390D02*
X60357143Y-192085771D01*
X60357143Y-192085771D02*
X60255952Y-192038152D01*
X60255952Y-192038152D02*
X60113095Y-192038152D01*
X60113095Y-192038152D02*
X60023809Y-192085771D01*
X60023809Y-192085771D02*
X59988095Y-192181009D01*
X59988095Y-192181009D02*
X60053571Y-192704819D01*
X59494047Y-192038152D02*
X59619047Y-193038152D01*
X59500000Y-192085771D02*
X59398809Y-192038152D01*
X59398809Y-192038152D02*
X59208333Y-192038152D01*
X59208333Y-192038152D02*
X59119047Y-192085771D01*
X59119047Y-192085771D02*
X59077381Y-192133390D01*
X59077381Y-192133390D02*
X59041666Y-192228628D01*
X59041666Y-192228628D02*
X59077381Y-192514342D01*
X59077381Y-192514342D02*
X59136904Y-192609580D01*
X59136904Y-192609580D02*
X59190476Y-192657200D01*
X59190476Y-192657200D02*
X59291666Y-192704819D01*
X59291666Y-192704819D02*
X59482143Y-192704819D01*
X59482143Y-192704819D02*
X59571428Y-192657200D01*
X58160714Y-192038152D02*
X58244047Y-192704819D01*
X58589285Y-192038152D02*
X58654762Y-192561961D01*
X58654762Y-192561961D02*
X58619047Y-192657200D01*
X58619047Y-192657200D02*
X58529762Y-192704819D01*
X58529762Y-192704819D02*
X58386904Y-192704819D01*
X58386904Y-192704819D02*
X58285714Y-192657200D01*
X58285714Y-192657200D02*
X58232142Y-192609580D01*
X57827380Y-192038152D02*
X57446428Y-192038152D01*
X57642857Y-191704819D02*
X57750000Y-192561961D01*
X57750000Y-192561961D02*
X57714285Y-192657200D01*
X57714285Y-192657200D02*
X57625000Y-192704819D01*
X57625000Y-192704819D02*
X57529761Y-192704819D01*
X56446427Y-192419104D02*
X55970237Y-192419104D01*
X56577380Y-192704819D02*
X56119046Y-191704819D01*
X56119046Y-191704819D02*
X55910713Y-192704819D01*
X77363094Y-176204819D02*
X77636904Y-175728628D01*
X77934523Y-176204819D02*
X77809523Y-175204819D01*
X77809523Y-175204819D02*
X77428570Y-175204819D01*
X77428570Y-175204819D02*
X77339285Y-175252438D01*
X77339285Y-175252438D02*
X77297618Y-175300057D01*
X77297618Y-175300057D02*
X77261904Y-175395295D01*
X77261904Y-175395295D02*
X77279761Y-175538152D01*
X77279761Y-175538152D02*
X77339285Y-175633390D01*
X77339285Y-175633390D02*
X77392856Y-175681009D01*
X77392856Y-175681009D02*
X77494046Y-175728628D01*
X77494046Y-175728628D02*
X77874999Y-175728628D01*
X76934523Y-176204819D02*
X76851189Y-175538152D01*
X76809523Y-175204819D02*
X76863094Y-175252438D01*
X76863094Y-175252438D02*
X76821427Y-175300057D01*
X76821427Y-175300057D02*
X76767856Y-175252438D01*
X76767856Y-175252438D02*
X76809523Y-175204819D01*
X76809523Y-175204819D02*
X76821427Y-175300057D01*
X76499999Y-176157200D02*
X76410714Y-176204819D01*
X76410714Y-176204819D02*
X76220237Y-176204819D01*
X76220237Y-176204819D02*
X76119047Y-176157200D01*
X76119047Y-176157200D02*
X76059523Y-176061961D01*
X76059523Y-176061961D02*
X76053571Y-176014342D01*
X76053571Y-176014342D02*
X76089285Y-175919104D01*
X76089285Y-175919104D02*
X76178571Y-175871485D01*
X76178571Y-175871485D02*
X76321428Y-175871485D01*
X76321428Y-175871485D02*
X76410714Y-175823866D01*
X76410714Y-175823866D02*
X76446428Y-175728628D01*
X76446428Y-175728628D02*
X76440476Y-175681009D01*
X76440476Y-175681009D02*
X76380952Y-175585771D01*
X76380952Y-175585771D02*
X76279761Y-175538152D01*
X76279761Y-175538152D02*
X76136904Y-175538152D01*
X76136904Y-175538152D02*
X76047618Y-175585771D01*
X75648809Y-176204819D02*
X75565475Y-175538152D01*
X75523809Y-175204819D02*
X75577380Y-175252438D01*
X75577380Y-175252438D02*
X75535713Y-175300057D01*
X75535713Y-175300057D02*
X75482142Y-175252438D01*
X75482142Y-175252438D02*
X75523809Y-175204819D01*
X75523809Y-175204819D02*
X75535713Y-175300057D01*
X75089285Y-175538152D02*
X75172619Y-176204819D01*
X75101190Y-175633390D02*
X75047619Y-175585771D01*
X75047619Y-175585771D02*
X74946428Y-175538152D01*
X74946428Y-175538152D02*
X74803571Y-175538152D01*
X74803571Y-175538152D02*
X74714285Y-175585771D01*
X74714285Y-175585771D02*
X74678571Y-175681009D01*
X74678571Y-175681009D02*
X74744047Y-176204819D01*
X73755952Y-175538152D02*
X73857142Y-176347676D01*
X73857142Y-176347676D02*
X73916666Y-176442914D01*
X73916666Y-176442914D02*
X73970238Y-176490533D01*
X73970238Y-176490533D02*
X74071428Y-176538152D01*
X74071428Y-176538152D02*
X74214285Y-176538152D01*
X74214285Y-176538152D02*
X74303571Y-176490533D01*
X73833333Y-176157200D02*
X73934523Y-176204819D01*
X73934523Y-176204819D02*
X74125000Y-176204819D01*
X74125000Y-176204819D02*
X74214285Y-176157200D01*
X74214285Y-176157200D02*
X74255952Y-176109580D01*
X74255952Y-176109580D02*
X74291666Y-176014342D01*
X74291666Y-176014342D02*
X74255952Y-175728628D01*
X74255952Y-175728628D02*
X74196428Y-175633390D01*
X74196428Y-175633390D02*
X74142857Y-175585771D01*
X74142857Y-175585771D02*
X74041666Y-175538152D01*
X74041666Y-175538152D02*
X73851190Y-175538152D01*
X73851190Y-175538152D02*
X73761904Y-175585771D01*
X72202380Y-175681009D02*
X72065475Y-175728628D01*
X72065475Y-175728628D02*
X72023809Y-175776247D01*
X72023809Y-175776247D02*
X71988094Y-175871485D01*
X71988094Y-175871485D02*
X72005952Y-176014342D01*
X72005952Y-176014342D02*
X72065475Y-176109580D01*
X72065475Y-176109580D02*
X72119047Y-176157200D01*
X72119047Y-176157200D02*
X72220237Y-176204819D01*
X72220237Y-176204819D02*
X72601190Y-176204819D01*
X72601190Y-176204819D02*
X72476190Y-175204819D01*
X72476190Y-175204819D02*
X72142856Y-175204819D01*
X72142856Y-175204819D02*
X72053571Y-175252438D01*
X72053571Y-175252438D02*
X72011904Y-175300057D01*
X72011904Y-175300057D02*
X71976190Y-175395295D01*
X71976190Y-175395295D02*
X71988094Y-175490533D01*
X71988094Y-175490533D02*
X72047618Y-175585771D01*
X72047618Y-175585771D02*
X72101190Y-175633390D01*
X72101190Y-175633390D02*
X72202380Y-175681009D01*
X72202380Y-175681009D02*
X72535713Y-175681009D01*
X94226190Y-159181009D02*
X94559523Y-159181009D01*
X94625000Y-159704819D02*
X94500000Y-158704819D01*
X94500000Y-158704819D02*
X94023809Y-158704819D01*
X93339285Y-159704819D02*
X93273809Y-159181009D01*
X93273809Y-159181009D02*
X93309523Y-159085771D01*
X93309523Y-159085771D02*
X93398809Y-159038152D01*
X93398809Y-159038152D02*
X93589285Y-159038152D01*
X93589285Y-159038152D02*
X93690476Y-159085771D01*
X93333333Y-159657200D02*
X93434523Y-159704819D01*
X93434523Y-159704819D02*
X93672619Y-159704819D01*
X93672619Y-159704819D02*
X93761904Y-159657200D01*
X93761904Y-159657200D02*
X93797619Y-159561961D01*
X93797619Y-159561961D02*
X93785714Y-159466723D01*
X93785714Y-159466723D02*
X93726190Y-159371485D01*
X93726190Y-159371485D02*
X93625000Y-159323866D01*
X93625000Y-159323866D02*
X93386904Y-159323866D01*
X93386904Y-159323866D02*
X93285714Y-159276247D01*
X92720238Y-159704819D02*
X92809523Y-159657200D01*
X92809523Y-159657200D02*
X92845238Y-159561961D01*
X92845238Y-159561961D02*
X92738095Y-158704819D01*
X92196428Y-159704819D02*
X92285713Y-159657200D01*
X92285713Y-159657200D02*
X92321428Y-159561961D01*
X92321428Y-159561961D02*
X92214285Y-158704819D01*
X91815475Y-159704819D02*
X91732141Y-159038152D01*
X91690475Y-158704819D02*
X91744046Y-158752438D01*
X91744046Y-158752438D02*
X91702379Y-158800057D01*
X91702379Y-158800057D02*
X91648808Y-158752438D01*
X91648808Y-158752438D02*
X91690475Y-158704819D01*
X91690475Y-158704819D02*
X91702379Y-158800057D01*
X91255951Y-159038152D02*
X91339285Y-159704819D01*
X91267856Y-159133390D02*
X91214285Y-159085771D01*
X91214285Y-159085771D02*
X91113094Y-159038152D01*
X91113094Y-159038152D02*
X90970237Y-159038152D01*
X90970237Y-159038152D02*
X90880951Y-159085771D01*
X90880951Y-159085771D02*
X90845237Y-159181009D01*
X90845237Y-159181009D02*
X90910713Y-159704819D01*
X89922618Y-159038152D02*
X90023808Y-159847676D01*
X90023808Y-159847676D02*
X90083332Y-159942914D01*
X90083332Y-159942914D02*
X90136904Y-159990533D01*
X90136904Y-159990533D02*
X90238094Y-160038152D01*
X90238094Y-160038152D02*
X90380951Y-160038152D01*
X90380951Y-160038152D02*
X90470237Y-159990533D01*
X89999999Y-159657200D02*
X90101189Y-159704819D01*
X90101189Y-159704819D02*
X90291666Y-159704819D01*
X90291666Y-159704819D02*
X90380951Y-159657200D01*
X90380951Y-159657200D02*
X90422618Y-159609580D01*
X90422618Y-159609580D02*
X90458332Y-159514342D01*
X90458332Y-159514342D02*
X90422618Y-159228628D01*
X90422618Y-159228628D02*
X90363094Y-159133390D01*
X90363094Y-159133390D02*
X90309523Y-159085771D01*
X90309523Y-159085771D02*
X90208332Y-159038152D01*
X90208332Y-159038152D02*
X90017856Y-159038152D01*
X90017856Y-159038152D02*
X89928570Y-159085771D01*
X88779760Y-159419104D02*
X88303570Y-159419104D01*
X88910713Y-159704819D02*
X88452379Y-158704819D01*
X88452379Y-158704819D02*
X88244046Y-159704819D01*
X94285714Y-208204819D02*
X94095238Y-208204819D01*
X94095238Y-208204819D02*
X94005953Y-208252438D01*
X94005953Y-208252438D02*
X93922619Y-208347676D01*
X93922619Y-208347676D02*
X93898810Y-208538152D01*
X93898810Y-208538152D02*
X93940476Y-208871485D01*
X93940476Y-208871485D02*
X94011905Y-209061961D01*
X94011905Y-209061961D02*
X94119048Y-209157200D01*
X94119048Y-209157200D02*
X94220238Y-209204819D01*
X94220238Y-209204819D02*
X94410714Y-209204819D01*
X94410714Y-209204819D02*
X94500000Y-209157200D01*
X94500000Y-209157200D02*
X94583334Y-209061961D01*
X94583334Y-209061961D02*
X94607143Y-208871485D01*
X94607143Y-208871485D02*
X94565476Y-208538152D01*
X94565476Y-208538152D02*
X94494048Y-208347676D01*
X94494048Y-208347676D02*
X94386905Y-208252438D01*
X94386905Y-208252438D02*
X94285714Y-208204819D01*
X93041667Y-208538152D02*
X93125000Y-209204819D01*
X93470238Y-208538152D02*
X93535715Y-209061961D01*
X93535715Y-209061961D02*
X93500000Y-209157200D01*
X93500000Y-209157200D02*
X93410715Y-209204819D01*
X93410715Y-209204819D02*
X93267857Y-209204819D01*
X93267857Y-209204819D02*
X93166667Y-209157200D01*
X93166667Y-209157200D02*
X93113095Y-209109580D01*
X92708333Y-208538152D02*
X92327381Y-208538152D01*
X92523810Y-208204819D02*
X92630953Y-209061961D01*
X92630953Y-209061961D02*
X92595238Y-209157200D01*
X92595238Y-209157200D02*
X92505953Y-209204819D01*
X92505953Y-209204819D02*
X92410714Y-209204819D01*
X91994047Y-208538152D02*
X92119047Y-209538152D01*
X92000000Y-208585771D02*
X91898809Y-208538152D01*
X91898809Y-208538152D02*
X91708333Y-208538152D01*
X91708333Y-208538152D02*
X91619047Y-208585771D01*
X91619047Y-208585771D02*
X91577381Y-208633390D01*
X91577381Y-208633390D02*
X91541666Y-208728628D01*
X91541666Y-208728628D02*
X91577381Y-209014342D01*
X91577381Y-209014342D02*
X91636904Y-209109580D01*
X91636904Y-209109580D02*
X91690476Y-209157200D01*
X91690476Y-209157200D02*
X91791666Y-209204819D01*
X91791666Y-209204819D02*
X91982143Y-209204819D01*
X91982143Y-209204819D02*
X92071428Y-209157200D01*
X90660714Y-208538152D02*
X90744047Y-209204819D01*
X91089285Y-208538152D02*
X91154762Y-209061961D01*
X91154762Y-209061961D02*
X91119047Y-209157200D01*
X91119047Y-209157200D02*
X91029762Y-209204819D01*
X91029762Y-209204819D02*
X90886904Y-209204819D01*
X90886904Y-209204819D02*
X90785714Y-209157200D01*
X90785714Y-209157200D02*
X90732142Y-209109580D01*
X90327380Y-208538152D02*
X89946428Y-208538152D01*
X90142857Y-208204819D02*
X90250000Y-209061961D01*
X90250000Y-209061961D02*
X90214285Y-209157200D01*
X90214285Y-209157200D02*
X90125000Y-209204819D01*
X90125000Y-209204819D02*
X90029761Y-209204819D01*
X88535713Y-208681009D02*
X88398808Y-208728628D01*
X88398808Y-208728628D02*
X88357142Y-208776247D01*
X88357142Y-208776247D02*
X88321427Y-208871485D01*
X88321427Y-208871485D02*
X88339285Y-209014342D01*
X88339285Y-209014342D02*
X88398808Y-209109580D01*
X88398808Y-209109580D02*
X88452380Y-209157200D01*
X88452380Y-209157200D02*
X88553570Y-209204819D01*
X88553570Y-209204819D02*
X88934523Y-209204819D01*
X88934523Y-209204819D02*
X88809523Y-208204819D01*
X88809523Y-208204819D02*
X88476189Y-208204819D01*
X88476189Y-208204819D02*
X88386904Y-208252438D01*
X88386904Y-208252438D02*
X88345237Y-208300057D01*
X88345237Y-208300057D02*
X88309523Y-208395295D01*
X88309523Y-208395295D02*
X88321427Y-208490533D01*
X88321427Y-208490533D02*
X88380951Y-208585771D01*
X88380951Y-208585771D02*
X88434523Y-208633390D01*
X88434523Y-208633390D02*
X88535713Y-208681009D01*
X88535713Y-208681009D02*
X88869046Y-208681009D01*
X84228094Y-55954819D02*
X84228094Y-54954819D01*
X84228094Y-54954819D02*
X83989999Y-54954819D01*
X83989999Y-54954819D02*
X83847142Y-55002438D01*
X83847142Y-55002438D02*
X83751904Y-55097676D01*
X83751904Y-55097676D02*
X83704285Y-55192914D01*
X83704285Y-55192914D02*
X83656666Y-55383390D01*
X83656666Y-55383390D02*
X83656666Y-55526247D01*
X83656666Y-55526247D02*
X83704285Y-55716723D01*
X83704285Y-55716723D02*
X83751904Y-55811961D01*
X83751904Y-55811961D02*
X83847142Y-55907200D01*
X83847142Y-55907200D02*
X83989999Y-55954819D01*
X83989999Y-55954819D02*
X84228094Y-55954819D01*
X83323332Y-54954819D02*
X82704285Y-54954819D01*
X82704285Y-54954819D02*
X83037618Y-55335771D01*
X83037618Y-55335771D02*
X82894761Y-55335771D01*
X82894761Y-55335771D02*
X82799523Y-55383390D01*
X82799523Y-55383390D02*
X82751904Y-55431009D01*
X82751904Y-55431009D02*
X82704285Y-55526247D01*
X82704285Y-55526247D02*
X82704285Y-55764342D01*
X82704285Y-55764342D02*
X82751904Y-55859580D01*
X82751904Y-55859580D02*
X82799523Y-55907200D01*
X82799523Y-55907200D02*
X82894761Y-55954819D01*
X82894761Y-55954819D02*
X83180475Y-55954819D01*
X83180475Y-55954819D02*
X83275713Y-55907200D01*
X83275713Y-55907200D02*
X83323332Y-55859580D01*
X85079523Y-126684819D02*
X85079523Y-127399104D01*
X85079523Y-127399104D02*
X85127142Y-127541961D01*
X85127142Y-127541961D02*
X85222380Y-127637200D01*
X85222380Y-127637200D02*
X85365237Y-127684819D01*
X85365237Y-127684819D02*
X85460475Y-127684819D01*
X84650951Y-126780057D02*
X84603332Y-126732438D01*
X84603332Y-126732438D02*
X84508094Y-126684819D01*
X84508094Y-126684819D02*
X84269999Y-126684819D01*
X84269999Y-126684819D02*
X84174761Y-126732438D01*
X84174761Y-126732438D02*
X84127142Y-126780057D01*
X84127142Y-126780057D02*
X84079523Y-126875295D01*
X84079523Y-126875295D02*
X84079523Y-126970533D01*
X84079523Y-126970533D02*
X84127142Y-127113390D01*
X84127142Y-127113390D02*
X84698570Y-127684819D01*
X84698570Y-127684819D02*
X84079523Y-127684819D01*
X83222380Y-126684819D02*
X83412856Y-126684819D01*
X83412856Y-126684819D02*
X83508094Y-126732438D01*
X83508094Y-126732438D02*
X83555713Y-126780057D01*
X83555713Y-126780057D02*
X83650951Y-126922914D01*
X83650951Y-126922914D02*
X83698570Y-127113390D01*
X83698570Y-127113390D02*
X83698570Y-127494342D01*
X83698570Y-127494342D02*
X83650951Y-127589580D01*
X83650951Y-127589580D02*
X83603332Y-127637200D01*
X83603332Y-127637200D02*
X83508094Y-127684819D01*
X83508094Y-127684819D02*
X83317618Y-127684819D01*
X83317618Y-127684819D02*
X83222380Y-127637200D01*
X83222380Y-127637200D02*
X83174761Y-127589580D01*
X83174761Y-127589580D02*
X83127142Y-127494342D01*
X83127142Y-127494342D02*
X83127142Y-127256247D01*
X83127142Y-127256247D02*
X83174761Y-127161009D01*
X83174761Y-127161009D02*
X83222380Y-127113390D01*
X83222380Y-127113390D02*
X83317618Y-127065771D01*
X83317618Y-127065771D02*
X83508094Y-127065771D01*
X83508094Y-127065771D02*
X83603332Y-127113390D01*
X83603332Y-127113390D02*
X83650951Y-127161009D01*
X83650951Y-127161009D02*
X83698570Y-127256247D01*
X65848990Y-150226190D02*
X65801371Y-150089285D01*
X65801371Y-150089285D02*
X65753752Y-150047619D01*
X65753752Y-150047619D02*
X65658514Y-150011904D01*
X65658514Y-150011904D02*
X65515657Y-150029762D01*
X65515657Y-150029762D02*
X65420419Y-150089285D01*
X65420419Y-150089285D02*
X65372800Y-150142857D01*
X65372800Y-150142857D02*
X65325180Y-150244047D01*
X65325180Y-150244047D02*
X65325180Y-150625000D01*
X65325180Y-150625000D02*
X66325180Y-150500000D01*
X66325180Y-150500000D02*
X66325180Y-150166666D01*
X66325180Y-150166666D02*
X66277561Y-150077381D01*
X66277561Y-150077381D02*
X66229942Y-150035714D01*
X66229942Y-150035714D02*
X66134704Y-150000000D01*
X66134704Y-150000000D02*
X66039466Y-150011904D01*
X66039466Y-150011904D02*
X65944228Y-150071428D01*
X65944228Y-150071428D02*
X65896609Y-150125000D01*
X65896609Y-150125000D02*
X65848990Y-150226190D01*
X65848990Y-150226190D02*
X65848990Y-150559523D01*
X65325180Y-148863095D02*
X66325180Y-148738095D01*
X65991847Y-148303571D02*
X65325180Y-148386905D01*
X65896609Y-148315476D02*
X65944228Y-148261905D01*
X65944228Y-148261905D02*
X65991847Y-148160714D01*
X65991847Y-148160714D02*
X65991847Y-148017857D01*
X65991847Y-148017857D02*
X65944228Y-147928571D01*
X65944228Y-147928571D02*
X65848990Y-147892857D01*
X65848990Y-147892857D02*
X65325180Y-147958333D01*
X66325180Y-146738095D02*
X66325180Y-146166666D01*
X65325180Y-146577381D02*
X66325180Y-146452381D01*
X65325180Y-145958333D02*
X66325180Y-145833333D01*
X66325180Y-145833333D02*
X65325180Y-145386904D01*
X65325180Y-145386904D02*
X66325180Y-145261904D01*
X76285714Y-52554819D02*
X76285714Y-53269104D01*
X76285714Y-53269104D02*
X76333333Y-53411961D01*
X76333333Y-53411961D02*
X76428571Y-53507200D01*
X76428571Y-53507200D02*
X76571428Y-53554819D01*
X76571428Y-53554819D02*
X76666666Y-53554819D01*
X75285714Y-53554819D02*
X75857142Y-53554819D01*
X75571428Y-53554819D02*
X75571428Y-52554819D01*
X75571428Y-52554819D02*
X75666666Y-52697676D01*
X75666666Y-52697676D02*
X75761904Y-52792914D01*
X75761904Y-52792914D02*
X75857142Y-52840533D01*
X74666666Y-52554819D02*
X74571428Y-52554819D01*
X74571428Y-52554819D02*
X74476190Y-52602438D01*
X74476190Y-52602438D02*
X74428571Y-52650057D01*
X74428571Y-52650057D02*
X74380952Y-52745295D01*
X74380952Y-52745295D02*
X74333333Y-52935771D01*
X74333333Y-52935771D02*
X74333333Y-53173866D01*
X74333333Y-53173866D02*
X74380952Y-53364342D01*
X74380952Y-53364342D02*
X74428571Y-53459580D01*
X74428571Y-53459580D02*
X74476190Y-53507200D01*
X74476190Y-53507200D02*
X74571428Y-53554819D01*
X74571428Y-53554819D02*
X74666666Y-53554819D01*
X74666666Y-53554819D02*
X74761904Y-53507200D01*
X74761904Y-53507200D02*
X74809523Y-53459580D01*
X74809523Y-53459580D02*
X74857142Y-53364342D01*
X74857142Y-53364342D02*
X74904761Y-53173866D01*
X74904761Y-53173866D02*
X74904761Y-52935771D01*
X74904761Y-52935771D02*
X74857142Y-52745295D01*
X74857142Y-52745295D02*
X74809523Y-52650057D01*
X74809523Y-52650057D02*
X74761904Y-52602438D01*
X74761904Y-52602438D02*
X74666666Y-52554819D01*
X73714285Y-52554819D02*
X73619047Y-52554819D01*
X73619047Y-52554819D02*
X73523809Y-52602438D01*
X73523809Y-52602438D02*
X73476190Y-52650057D01*
X73476190Y-52650057D02*
X73428571Y-52745295D01*
X73428571Y-52745295D02*
X73380952Y-52935771D01*
X73380952Y-52935771D02*
X73380952Y-53173866D01*
X73380952Y-53173866D02*
X73428571Y-53364342D01*
X73428571Y-53364342D02*
X73476190Y-53459580D01*
X73476190Y-53459580D02*
X73523809Y-53507200D01*
X73523809Y-53507200D02*
X73619047Y-53554819D01*
X73619047Y-53554819D02*
X73714285Y-53554819D01*
X73714285Y-53554819D02*
X73809523Y-53507200D01*
X73809523Y-53507200D02*
X73857142Y-53459580D01*
X73857142Y-53459580D02*
X73904761Y-53364342D01*
X73904761Y-53364342D02*
X73952380Y-53173866D01*
X73952380Y-53173866D02*
X73952380Y-52935771D01*
X73952380Y-52935771D02*
X73904761Y-52745295D01*
X73904761Y-52745295D02*
X73857142Y-52650057D01*
X73857142Y-52650057D02*
X73809523Y-52602438D01*
X73809523Y-52602438D02*
X73714285Y-52554819D01*
X76238094Y-56054819D02*
X76238094Y-56864342D01*
X76238094Y-56864342D02*
X76190475Y-56959580D01*
X76190475Y-56959580D02*
X76142856Y-57007200D01*
X76142856Y-57007200D02*
X76047618Y-57054819D01*
X76047618Y-57054819D02*
X75857142Y-57054819D01*
X75857142Y-57054819D02*
X75761904Y-57007200D01*
X75761904Y-57007200D02*
X75714285Y-56959580D01*
X75714285Y-56959580D02*
X75666666Y-56864342D01*
X75666666Y-56864342D02*
X75666666Y-56054819D01*
X74666666Y-57054819D02*
X75238094Y-57054819D01*
X74952380Y-57054819D02*
X74952380Y-56054819D01*
X74952380Y-56054819D02*
X75047618Y-56197676D01*
X75047618Y-56197676D02*
X75142856Y-56292914D01*
X75142856Y-56292914D02*
X75238094Y-56340533D01*
X74047618Y-56054819D02*
X73952380Y-56054819D01*
X73952380Y-56054819D02*
X73857142Y-56102438D01*
X73857142Y-56102438D02*
X73809523Y-56150057D01*
X73809523Y-56150057D02*
X73761904Y-56245295D01*
X73761904Y-56245295D02*
X73714285Y-56435771D01*
X73714285Y-56435771D02*
X73714285Y-56673866D01*
X73714285Y-56673866D02*
X73761904Y-56864342D01*
X73761904Y-56864342D02*
X73809523Y-56959580D01*
X73809523Y-56959580D02*
X73857142Y-57007200D01*
X73857142Y-57007200D02*
X73952380Y-57054819D01*
X73952380Y-57054819D02*
X74047618Y-57054819D01*
X74047618Y-57054819D02*
X74142856Y-57007200D01*
X74142856Y-57007200D02*
X74190475Y-56959580D01*
X74190475Y-56959580D02*
X74238094Y-56864342D01*
X74238094Y-56864342D02*
X74285713Y-56673866D01*
X74285713Y-56673866D02*
X74285713Y-56435771D01*
X74285713Y-56435771D02*
X74238094Y-56245295D01*
X74238094Y-56245295D02*
X74190475Y-56150057D01*
X74190475Y-56150057D02*
X74142856Y-56102438D01*
X74142856Y-56102438D02*
X74047618Y-56054819D01*
X79642857Y-63304819D02*
X80119047Y-63304819D01*
X80119047Y-63304819D02*
X80119047Y-62304819D01*
X79309523Y-63304819D02*
X79309523Y-62304819D01*
X79309523Y-62304819D02*
X78976190Y-63019104D01*
X78976190Y-63019104D02*
X78642857Y-62304819D01*
X78642857Y-62304819D02*
X78642857Y-63304819D01*
X77738095Y-62638152D02*
X77738095Y-63304819D01*
X77976190Y-62257200D02*
X78214285Y-62971485D01*
X78214285Y-62971485D02*
X77595238Y-62971485D01*
X77023809Y-62304819D02*
X76928571Y-62304819D01*
X76928571Y-62304819D02*
X76833333Y-62352438D01*
X76833333Y-62352438D02*
X76785714Y-62400057D01*
X76785714Y-62400057D02*
X76738095Y-62495295D01*
X76738095Y-62495295D02*
X76690476Y-62685771D01*
X76690476Y-62685771D02*
X76690476Y-62923866D01*
X76690476Y-62923866D02*
X76738095Y-63114342D01*
X76738095Y-63114342D02*
X76785714Y-63209580D01*
X76785714Y-63209580D02*
X76833333Y-63257200D01*
X76833333Y-63257200D02*
X76928571Y-63304819D01*
X76928571Y-63304819D02*
X77023809Y-63304819D01*
X77023809Y-63304819D02*
X77119047Y-63257200D01*
X77119047Y-63257200D02*
X77166666Y-63209580D01*
X77166666Y-63209580D02*
X77214285Y-63114342D01*
X77214285Y-63114342D02*
X77261904Y-62923866D01*
X77261904Y-62923866D02*
X77261904Y-62685771D01*
X77261904Y-62685771D02*
X77214285Y-62495295D01*
X77214285Y-62495295D02*
X77166666Y-62400057D01*
X77166666Y-62400057D02*
X77119047Y-62352438D01*
X77119047Y-62352438D02*
X77023809Y-62304819D01*
X75833333Y-62638152D02*
X75833333Y-63304819D01*
X76071428Y-62257200D02*
X76309523Y-62971485D01*
X76309523Y-62971485D02*
X75690476Y-62971485D01*
X75119047Y-62304819D02*
X75023809Y-62304819D01*
X75023809Y-62304819D02*
X74928571Y-62352438D01*
X74928571Y-62352438D02*
X74880952Y-62400057D01*
X74880952Y-62400057D02*
X74833333Y-62495295D01*
X74833333Y-62495295D02*
X74785714Y-62685771D01*
X74785714Y-62685771D02*
X74785714Y-62923866D01*
X74785714Y-62923866D02*
X74833333Y-63114342D01*
X74833333Y-63114342D02*
X74880952Y-63209580D01*
X74880952Y-63209580D02*
X74928571Y-63257200D01*
X74928571Y-63257200D02*
X75023809Y-63304819D01*
X75023809Y-63304819D02*
X75119047Y-63304819D01*
X75119047Y-63304819D02*
X75214285Y-63257200D01*
X75214285Y-63257200D02*
X75261904Y-63209580D01*
X75261904Y-63209580D02*
X75309523Y-63114342D01*
X75309523Y-63114342D02*
X75357142Y-62923866D01*
X75357142Y-62923866D02*
X75357142Y-62685771D01*
X75357142Y-62685771D02*
X75309523Y-62495295D01*
X75309523Y-62495295D02*
X75261904Y-62400057D01*
X75261904Y-62400057D02*
X75214285Y-62352438D01*
X75214285Y-62352438D02*
X75119047Y-62304819D01*
X73880952Y-63304819D02*
X74357142Y-63304819D01*
X74357142Y-63304819D02*
X74357142Y-62304819D01*
X73547618Y-63304819D02*
X73547618Y-62304819D01*
X73547618Y-62304819D02*
X73166666Y-62304819D01*
X73166666Y-62304819D02*
X73071428Y-62352438D01*
X73071428Y-62352438D02*
X73023809Y-62400057D01*
X73023809Y-62400057D02*
X72976190Y-62495295D01*
X72976190Y-62495295D02*
X72976190Y-62638152D01*
X72976190Y-62638152D02*
X73023809Y-62733390D01*
X73023809Y-62733390D02*
X73071428Y-62781009D01*
X73071428Y-62781009D02*
X73166666Y-62828628D01*
X73166666Y-62828628D02*
X73547618Y-62828628D01*
X72547618Y-62923866D02*
X71785714Y-62923866D01*
X70785714Y-63304819D02*
X71357142Y-63304819D01*
X71071428Y-63304819D02*
X71071428Y-62304819D01*
X71071428Y-62304819D02*
X71166666Y-62447676D01*
X71166666Y-62447676D02*
X71261904Y-62542914D01*
X71261904Y-62542914D02*
X71357142Y-62590533D01*
X70166666Y-62304819D02*
X70071428Y-62304819D01*
X70071428Y-62304819D02*
X69976190Y-62352438D01*
X69976190Y-62352438D02*
X69928571Y-62400057D01*
X69928571Y-62400057D02*
X69880952Y-62495295D01*
X69880952Y-62495295D02*
X69833333Y-62685771D01*
X69833333Y-62685771D02*
X69833333Y-62923866D01*
X69833333Y-62923866D02*
X69880952Y-63114342D01*
X69880952Y-63114342D02*
X69928571Y-63209580D01*
X69928571Y-63209580D02*
X69976190Y-63257200D01*
X69976190Y-63257200D02*
X70071428Y-63304819D01*
X70071428Y-63304819D02*
X70166666Y-63304819D01*
X70166666Y-63304819D02*
X70261904Y-63257200D01*
X70261904Y-63257200D02*
X70309523Y-63209580D01*
X70309523Y-63209580D02*
X70357142Y-63114342D01*
X70357142Y-63114342D02*
X70404761Y-62923866D01*
X70404761Y-62923866D02*
X70404761Y-62685771D01*
X70404761Y-62685771D02*
X70357142Y-62495295D01*
X70357142Y-62495295D02*
X70309523Y-62400057D01*
X70309523Y-62400057D02*
X70261904Y-62352438D01*
X70261904Y-62352438D02*
X70166666Y-62304819D01*
X66079523Y-80684819D02*
X66079523Y-81399104D01*
X66079523Y-81399104D02*
X66127142Y-81541961D01*
X66127142Y-81541961D02*
X66222380Y-81637200D01*
X66222380Y-81637200D02*
X66365237Y-81684819D01*
X66365237Y-81684819D02*
X66460475Y-81684819D01*
X65079523Y-81684819D02*
X65650951Y-81684819D01*
X65365237Y-81684819D02*
X65365237Y-80684819D01*
X65365237Y-80684819D02*
X65460475Y-80827676D01*
X65460475Y-80827676D02*
X65555713Y-80922914D01*
X65555713Y-80922914D02*
X65650951Y-80970533D01*
X64222380Y-81018152D02*
X64222380Y-81684819D01*
X64460475Y-80637200D02*
X64698570Y-81351485D01*
X64698570Y-81351485D02*
X64079523Y-81351485D01*
X60003214Y-182734819D02*
X60003214Y-183449104D01*
X60003214Y-183449104D02*
X60050833Y-183591961D01*
X60050833Y-183591961D02*
X60146071Y-183687200D01*
X60146071Y-183687200D02*
X60288928Y-183734819D01*
X60288928Y-183734819D02*
X60384166Y-183734819D01*
X59574642Y-182830057D02*
X59527023Y-182782438D01*
X59527023Y-182782438D02*
X59431785Y-182734819D01*
X59431785Y-182734819D02*
X59193690Y-182734819D01*
X59193690Y-182734819D02*
X59098452Y-182782438D01*
X59098452Y-182782438D02*
X59050833Y-182830057D01*
X59050833Y-182830057D02*
X59003214Y-182925295D01*
X59003214Y-182925295D02*
X59003214Y-183020533D01*
X59003214Y-183020533D02*
X59050833Y-183163390D01*
X59050833Y-183163390D02*
X59622261Y-183734819D01*
X59622261Y-183734819D02*
X59003214Y-183734819D01*
X58384166Y-182734819D02*
X58288928Y-182734819D01*
X58288928Y-182734819D02*
X58193690Y-182782438D01*
X58193690Y-182782438D02*
X58146071Y-182830057D01*
X58146071Y-182830057D02*
X58098452Y-182925295D01*
X58098452Y-182925295D02*
X58050833Y-183115771D01*
X58050833Y-183115771D02*
X58050833Y-183353866D01*
X58050833Y-183353866D02*
X58098452Y-183544342D01*
X58098452Y-183544342D02*
X58146071Y-183639580D01*
X58146071Y-183639580D02*
X58193690Y-183687200D01*
X58193690Y-183687200D02*
X58288928Y-183734819D01*
X58288928Y-183734819D02*
X58384166Y-183734819D01*
X58384166Y-183734819D02*
X58479404Y-183687200D01*
X58479404Y-183687200D02*
X58527023Y-183639580D01*
X58527023Y-183639580D02*
X58574642Y-183544342D01*
X58574642Y-183544342D02*
X58622261Y-183353866D01*
X58622261Y-183353866D02*
X58622261Y-183115771D01*
X58622261Y-183115771D02*
X58574642Y-182925295D01*
X58574642Y-182925295D02*
X58527023Y-182830057D01*
X58527023Y-182830057D02*
X58479404Y-182782438D01*
X58479404Y-182782438D02*
X58384166Y-182734819D01*
X57431785Y-182734819D02*
X57336547Y-182734819D01*
X57336547Y-182734819D02*
X57241309Y-182782438D01*
X57241309Y-182782438D02*
X57193690Y-182830057D01*
X57193690Y-182830057D02*
X57146071Y-182925295D01*
X57146071Y-182925295D02*
X57098452Y-183115771D01*
X57098452Y-183115771D02*
X57098452Y-183353866D01*
X57098452Y-183353866D02*
X57146071Y-183544342D01*
X57146071Y-183544342D02*
X57193690Y-183639580D01*
X57193690Y-183639580D02*
X57241309Y-183687200D01*
X57241309Y-183687200D02*
X57336547Y-183734819D01*
X57336547Y-183734819D02*
X57431785Y-183734819D01*
X57431785Y-183734819D02*
X57527023Y-183687200D01*
X57527023Y-183687200D02*
X57574642Y-183639580D01*
X57574642Y-183639580D02*
X57622261Y-183544342D01*
X57622261Y-183544342D02*
X57669880Y-183353866D01*
X57669880Y-183353866D02*
X57669880Y-183115771D01*
X57669880Y-183115771D02*
X57622261Y-182925295D01*
X57622261Y-182925295D02*
X57574642Y-182830057D01*
X57574642Y-182830057D02*
X57527023Y-182782438D01*
X57527023Y-182782438D02*
X57431785Y-182734819D01*
X65466666Y-63409580D02*
X65514285Y-63457200D01*
X65514285Y-63457200D02*
X65657142Y-63504819D01*
X65657142Y-63504819D02*
X65752380Y-63504819D01*
X65752380Y-63504819D02*
X65895237Y-63457200D01*
X65895237Y-63457200D02*
X65990475Y-63361961D01*
X65990475Y-63361961D02*
X66038094Y-63266723D01*
X66038094Y-63266723D02*
X66085713Y-63076247D01*
X66085713Y-63076247D02*
X66085713Y-62933390D01*
X66085713Y-62933390D02*
X66038094Y-62742914D01*
X66038094Y-62742914D02*
X65990475Y-62647676D01*
X65990475Y-62647676D02*
X65895237Y-62552438D01*
X65895237Y-62552438D02*
X65752380Y-62504819D01*
X65752380Y-62504819D02*
X65657142Y-62504819D01*
X65657142Y-62504819D02*
X65514285Y-62552438D01*
X65514285Y-62552438D02*
X65466666Y-62600057D01*
X64561904Y-62504819D02*
X65038094Y-62504819D01*
X65038094Y-62504819D02*
X65085713Y-62981009D01*
X65085713Y-62981009D02*
X65038094Y-62933390D01*
X65038094Y-62933390D02*
X64942856Y-62885771D01*
X64942856Y-62885771D02*
X64704761Y-62885771D01*
X64704761Y-62885771D02*
X64609523Y-62933390D01*
X64609523Y-62933390D02*
X64561904Y-62981009D01*
X64561904Y-62981009D02*
X64514285Y-63076247D01*
X64514285Y-63076247D02*
X64514285Y-63314342D01*
X64514285Y-63314342D02*
X64561904Y-63409580D01*
X64561904Y-63409580D02*
X64609523Y-63457200D01*
X64609523Y-63457200D02*
X64704761Y-63504819D01*
X64704761Y-63504819D02*
X64942856Y-63504819D01*
X64942856Y-63504819D02*
X65038094Y-63457200D01*
X65038094Y-63457200D02*
X65085713Y-63409580D01*
X66347619Y-65554819D02*
X66919047Y-65554819D01*
X66633333Y-65554819D02*
X66633333Y-64554819D01*
X66633333Y-64554819D02*
X66728571Y-64697676D01*
X66728571Y-64697676D02*
X66823809Y-64792914D01*
X66823809Y-64792914D02*
X66919047Y-64840533D01*
X65728571Y-64554819D02*
X65633333Y-64554819D01*
X65633333Y-64554819D02*
X65538095Y-64602438D01*
X65538095Y-64602438D02*
X65490476Y-64650057D01*
X65490476Y-64650057D02*
X65442857Y-64745295D01*
X65442857Y-64745295D02*
X65395238Y-64935771D01*
X65395238Y-64935771D02*
X65395238Y-65173866D01*
X65395238Y-65173866D02*
X65442857Y-65364342D01*
X65442857Y-65364342D02*
X65490476Y-65459580D01*
X65490476Y-65459580D02*
X65538095Y-65507200D01*
X65538095Y-65507200D02*
X65633333Y-65554819D01*
X65633333Y-65554819D02*
X65728571Y-65554819D01*
X65728571Y-65554819D02*
X65823809Y-65507200D01*
X65823809Y-65507200D02*
X65871428Y-65459580D01*
X65871428Y-65459580D02*
X65919047Y-65364342D01*
X65919047Y-65364342D02*
X65966666Y-65173866D01*
X65966666Y-65173866D02*
X65966666Y-64935771D01*
X65966666Y-64935771D02*
X65919047Y-64745295D01*
X65919047Y-64745295D02*
X65871428Y-64650057D01*
X65871428Y-64650057D02*
X65823809Y-64602438D01*
X65823809Y-64602438D02*
X65728571Y-64554819D01*
X64776190Y-64554819D02*
X64680952Y-64554819D01*
X64680952Y-64554819D02*
X64585714Y-64602438D01*
X64585714Y-64602438D02*
X64538095Y-64650057D01*
X64538095Y-64650057D02*
X64490476Y-64745295D01*
X64490476Y-64745295D02*
X64442857Y-64935771D01*
X64442857Y-64935771D02*
X64442857Y-65173866D01*
X64442857Y-65173866D02*
X64490476Y-65364342D01*
X64490476Y-65364342D02*
X64538095Y-65459580D01*
X64538095Y-65459580D02*
X64585714Y-65507200D01*
X64585714Y-65507200D02*
X64680952Y-65554819D01*
X64680952Y-65554819D02*
X64776190Y-65554819D01*
X64776190Y-65554819D02*
X64871428Y-65507200D01*
X64871428Y-65507200D02*
X64919047Y-65459580D01*
X64919047Y-65459580D02*
X64966666Y-65364342D01*
X64966666Y-65364342D02*
X65014285Y-65173866D01*
X65014285Y-65173866D02*
X65014285Y-64935771D01*
X65014285Y-64935771D02*
X64966666Y-64745295D01*
X64966666Y-64745295D02*
X64919047Y-64650057D01*
X64919047Y-64650057D02*
X64871428Y-64602438D01*
X64871428Y-64602438D02*
X64776190Y-64554819D01*
X64014285Y-64888152D02*
X64014285Y-65554819D01*
X64014285Y-64983390D02*
X63966666Y-64935771D01*
X63966666Y-64935771D02*
X63871428Y-64888152D01*
X63871428Y-64888152D02*
X63728571Y-64888152D01*
X63728571Y-64888152D02*
X63633333Y-64935771D01*
X63633333Y-64935771D02*
X63585714Y-65031009D01*
X63585714Y-65031009D02*
X63585714Y-65554819D01*
X62776190Y-65031009D02*
X63109523Y-65031009D01*
X63109523Y-65554819D02*
X63109523Y-64554819D01*
X63109523Y-64554819D02*
X62633333Y-64554819D01*
X66079523Y-96684819D02*
X66079523Y-97399104D01*
X66079523Y-97399104D02*
X66127142Y-97541961D01*
X66127142Y-97541961D02*
X66222380Y-97637200D01*
X66222380Y-97637200D02*
X66365237Y-97684819D01*
X66365237Y-97684819D02*
X66460475Y-97684819D01*
X65079523Y-97684819D02*
X65650951Y-97684819D01*
X65365237Y-97684819D02*
X65365237Y-96684819D01*
X65365237Y-96684819D02*
X65460475Y-96827676D01*
X65460475Y-96827676D02*
X65555713Y-96922914D01*
X65555713Y-96922914D02*
X65650951Y-96970533D01*
X64174761Y-96684819D02*
X64650951Y-96684819D01*
X64650951Y-96684819D02*
X64698570Y-97161009D01*
X64698570Y-97161009D02*
X64650951Y-97113390D01*
X64650951Y-97113390D02*
X64555713Y-97065771D01*
X64555713Y-97065771D02*
X64317618Y-97065771D01*
X64317618Y-97065771D02*
X64222380Y-97113390D01*
X64222380Y-97113390D02*
X64174761Y-97161009D01*
X64174761Y-97161009D02*
X64127142Y-97256247D01*
X64127142Y-97256247D02*
X64127142Y-97494342D01*
X64127142Y-97494342D02*
X64174761Y-97589580D01*
X64174761Y-97589580D02*
X64222380Y-97637200D01*
X64222380Y-97637200D02*
X64317618Y-97684819D01*
X64317618Y-97684819D02*
X64555713Y-97684819D01*
X64555713Y-97684819D02*
X64650951Y-97637200D01*
X64650951Y-97637200D02*
X64698570Y-97589580D01*
X92621779Y-44109580D02*
X92669398Y-44157200D01*
X92669398Y-44157200D02*
X92812255Y-44204819D01*
X92812255Y-44204819D02*
X92907493Y-44204819D01*
X92907493Y-44204819D02*
X93050350Y-44157200D01*
X93050350Y-44157200D02*
X93145588Y-44061961D01*
X93145588Y-44061961D02*
X93193207Y-43966723D01*
X93193207Y-43966723D02*
X93240826Y-43776247D01*
X93240826Y-43776247D02*
X93240826Y-43633390D01*
X93240826Y-43633390D02*
X93193207Y-43442914D01*
X93193207Y-43442914D02*
X93145588Y-43347676D01*
X93145588Y-43347676D02*
X93050350Y-43252438D01*
X93050350Y-43252438D02*
X92907493Y-43204819D01*
X92907493Y-43204819D02*
X92812255Y-43204819D01*
X92812255Y-43204819D02*
X92669398Y-43252438D01*
X92669398Y-43252438D02*
X92621779Y-43300057D01*
X92240826Y-43300057D02*
X92193207Y-43252438D01*
X92193207Y-43252438D02*
X92097969Y-43204819D01*
X92097969Y-43204819D02*
X91859874Y-43204819D01*
X91859874Y-43204819D02*
X91764636Y-43252438D01*
X91764636Y-43252438D02*
X91717017Y-43300057D01*
X91717017Y-43300057D02*
X91669398Y-43395295D01*
X91669398Y-43395295D02*
X91669398Y-43490533D01*
X91669398Y-43490533D02*
X91717017Y-43633390D01*
X91717017Y-43633390D02*
X92288445Y-44204819D01*
X92288445Y-44204819D02*
X91669398Y-44204819D01*
X85079523Y-80684819D02*
X85079523Y-81399104D01*
X85079523Y-81399104D02*
X85127142Y-81541961D01*
X85127142Y-81541961D02*
X85222380Y-81637200D01*
X85222380Y-81637200D02*
X85365237Y-81684819D01*
X85365237Y-81684819D02*
X85460475Y-81684819D01*
X84650951Y-80780057D02*
X84603332Y-80732438D01*
X84603332Y-80732438D02*
X84508094Y-80684819D01*
X84508094Y-80684819D02*
X84269999Y-80684819D01*
X84269999Y-80684819D02*
X84174761Y-80732438D01*
X84174761Y-80732438D02*
X84127142Y-80780057D01*
X84127142Y-80780057D02*
X84079523Y-80875295D01*
X84079523Y-80875295D02*
X84079523Y-80970533D01*
X84079523Y-80970533D02*
X84127142Y-81113390D01*
X84127142Y-81113390D02*
X84698570Y-81684819D01*
X84698570Y-81684819D02*
X84079523Y-81684819D01*
X83222380Y-81018152D02*
X83222380Y-81684819D01*
X83460475Y-80637200D02*
X83698570Y-81351485D01*
X83698570Y-81351485D02*
X83079523Y-81351485D01*
X56450895Y-151136904D02*
X56450895Y-150660714D01*
X56165180Y-151267857D02*
X57165180Y-150809523D01*
X57165180Y-150809523D02*
X56165180Y-150601190D01*
X57165180Y-149190475D02*
X57165180Y-148999999D01*
X57165180Y-148999999D02*
X57117561Y-148910714D01*
X57117561Y-148910714D02*
X57022323Y-148827380D01*
X57022323Y-148827380D02*
X56831847Y-148803571D01*
X56831847Y-148803571D02*
X56498514Y-148845237D01*
X56498514Y-148845237D02*
X56308038Y-148916666D01*
X56308038Y-148916666D02*
X56212800Y-149023809D01*
X56212800Y-149023809D02*
X56165180Y-149124999D01*
X56165180Y-149124999D02*
X56165180Y-149315475D01*
X56165180Y-149315475D02*
X56212800Y-149404761D01*
X56212800Y-149404761D02*
X56308038Y-149488095D01*
X56308038Y-149488095D02*
X56498514Y-149511904D01*
X56498514Y-149511904D02*
X56831847Y-149470237D01*
X56831847Y-149470237D02*
X57022323Y-149398809D01*
X57022323Y-149398809D02*
X57117561Y-149291666D01*
X57117561Y-149291666D02*
X57165180Y-149190475D01*
X56831847Y-147946428D02*
X56165180Y-148029761D01*
X56831847Y-148374999D02*
X56308038Y-148440476D01*
X56308038Y-148440476D02*
X56212800Y-148404761D01*
X56212800Y-148404761D02*
X56165180Y-148315476D01*
X56165180Y-148315476D02*
X56165180Y-148172618D01*
X56165180Y-148172618D02*
X56212800Y-148071428D01*
X56212800Y-148071428D02*
X56260419Y-148017856D01*
X56831847Y-147613094D02*
X56831847Y-147232142D01*
X57165180Y-147428571D02*
X56308038Y-147535714D01*
X56308038Y-147535714D02*
X56212800Y-147499999D01*
X56212800Y-147499999D02*
X56165180Y-147410714D01*
X56165180Y-147410714D02*
X56165180Y-147315475D01*
X57165180Y-146238094D02*
X57165180Y-145666665D01*
X56165180Y-146077380D02*
X57165180Y-145952380D01*
X56165180Y-145458332D02*
X57165180Y-145333332D01*
X57165180Y-145333332D02*
X56165180Y-144886903D01*
X56165180Y-144886903D02*
X57165180Y-144761903D01*
X66079523Y-126684819D02*
X66079523Y-127399104D01*
X66079523Y-127399104D02*
X66127142Y-127541961D01*
X66127142Y-127541961D02*
X66222380Y-127637200D01*
X66222380Y-127637200D02*
X66365237Y-127684819D01*
X66365237Y-127684819D02*
X66460475Y-127684819D01*
X65079523Y-127684819D02*
X65650951Y-127684819D01*
X65365237Y-127684819D02*
X65365237Y-126684819D01*
X65365237Y-126684819D02*
X65460475Y-126827676D01*
X65460475Y-126827676D02*
X65555713Y-126922914D01*
X65555713Y-126922914D02*
X65650951Y-126970533D01*
X64222380Y-126684819D02*
X64412856Y-126684819D01*
X64412856Y-126684819D02*
X64508094Y-126732438D01*
X64508094Y-126732438D02*
X64555713Y-126780057D01*
X64555713Y-126780057D02*
X64650951Y-126922914D01*
X64650951Y-126922914D02*
X64698570Y-127113390D01*
X64698570Y-127113390D02*
X64698570Y-127494342D01*
X64698570Y-127494342D02*
X64650951Y-127589580D01*
X64650951Y-127589580D02*
X64603332Y-127637200D01*
X64603332Y-127637200D02*
X64508094Y-127684819D01*
X64508094Y-127684819D02*
X64317618Y-127684819D01*
X64317618Y-127684819D02*
X64222380Y-127637200D01*
X64222380Y-127637200D02*
X64174761Y-127589580D01*
X64174761Y-127589580D02*
X64127142Y-127494342D01*
X64127142Y-127494342D02*
X64127142Y-127256247D01*
X64127142Y-127256247D02*
X64174761Y-127161009D01*
X64174761Y-127161009D02*
X64222380Y-127113390D01*
X64222380Y-127113390D02*
X64317618Y-127065771D01*
X64317618Y-127065771D02*
X64508094Y-127065771D01*
X64508094Y-127065771D02*
X64603332Y-127113390D01*
X64603332Y-127113390D02*
X64650951Y-127161009D01*
X64650951Y-127161009D02*
X64698570Y-127256247D01*
X57666666Y-44109580D02*
X57714285Y-44157200D01*
X57714285Y-44157200D02*
X57857142Y-44204819D01*
X57857142Y-44204819D02*
X57952380Y-44204819D01*
X57952380Y-44204819D02*
X58095237Y-44157200D01*
X58095237Y-44157200D02*
X58190475Y-44061961D01*
X58190475Y-44061961D02*
X58238094Y-43966723D01*
X58238094Y-43966723D02*
X58285713Y-43776247D01*
X58285713Y-43776247D02*
X58285713Y-43633390D01*
X58285713Y-43633390D02*
X58238094Y-43442914D01*
X58238094Y-43442914D02*
X58190475Y-43347676D01*
X58190475Y-43347676D02*
X58095237Y-43252438D01*
X58095237Y-43252438D02*
X57952380Y-43204819D01*
X57952380Y-43204819D02*
X57857142Y-43204819D01*
X57857142Y-43204819D02*
X57714285Y-43252438D01*
X57714285Y-43252438D02*
X57666666Y-43300057D01*
X56714285Y-44204819D02*
X57285713Y-44204819D01*
X56999999Y-44204819D02*
X56999999Y-43204819D01*
X56999999Y-43204819D02*
X57095237Y-43347676D01*
X57095237Y-43347676D02*
X57190475Y-43442914D01*
X57190475Y-43442914D02*
X57285713Y-43490533D01*
X85079523Y-96684819D02*
X85079523Y-97399104D01*
X85079523Y-97399104D02*
X85127142Y-97541961D01*
X85127142Y-97541961D02*
X85222380Y-97637200D01*
X85222380Y-97637200D02*
X85365237Y-97684819D01*
X85365237Y-97684819D02*
X85460475Y-97684819D01*
X84650951Y-96780057D02*
X84603332Y-96732438D01*
X84603332Y-96732438D02*
X84508094Y-96684819D01*
X84508094Y-96684819D02*
X84269999Y-96684819D01*
X84269999Y-96684819D02*
X84174761Y-96732438D01*
X84174761Y-96732438D02*
X84127142Y-96780057D01*
X84127142Y-96780057D02*
X84079523Y-96875295D01*
X84079523Y-96875295D02*
X84079523Y-96970533D01*
X84079523Y-96970533D02*
X84127142Y-97113390D01*
X84127142Y-97113390D02*
X84698570Y-97684819D01*
X84698570Y-97684819D02*
X84079523Y-97684819D01*
X83174761Y-96684819D02*
X83650951Y-96684819D01*
X83650951Y-96684819D02*
X83698570Y-97161009D01*
X83698570Y-97161009D02*
X83650951Y-97113390D01*
X83650951Y-97113390D02*
X83555713Y-97065771D01*
X83555713Y-97065771D02*
X83317618Y-97065771D01*
X83317618Y-97065771D02*
X83222380Y-97113390D01*
X83222380Y-97113390D02*
X83174761Y-97161009D01*
X83174761Y-97161009D02*
X83127142Y-97256247D01*
X83127142Y-97256247D02*
X83127142Y-97494342D01*
X83127142Y-97494342D02*
X83174761Y-97589580D01*
X83174761Y-97589580D02*
X83222380Y-97637200D01*
X83222380Y-97637200D02*
X83317618Y-97684819D01*
X83317618Y-97684819D02*
X83555713Y-97684819D01*
X83555713Y-97684819D02*
X83650951Y-97637200D01*
X83650951Y-97637200D02*
X83698570Y-97589580D01*
X61030895Y-150565475D02*
X61030895Y-150089285D01*
X60745180Y-150696428D02*
X61745180Y-150238094D01*
X61745180Y-150238094D02*
X60745180Y-150029761D01*
X60745180Y-148934523D02*
X61745180Y-148809523D01*
X61411847Y-148374999D02*
X60745180Y-148458333D01*
X61316609Y-148386904D02*
X61364228Y-148333333D01*
X61364228Y-148333333D02*
X61411847Y-148232142D01*
X61411847Y-148232142D02*
X61411847Y-148089285D01*
X61411847Y-148089285D02*
X61364228Y-147999999D01*
X61364228Y-147999999D02*
X61268990Y-147964285D01*
X61268990Y-147964285D02*
X60745180Y-148029761D01*
X61745180Y-146809523D02*
X61745180Y-146238094D01*
X60745180Y-146648809D02*
X61745180Y-146523809D01*
X60745180Y-146029761D02*
X61745180Y-145904761D01*
X61745180Y-145904761D02*
X60745180Y-145458332D01*
X60745180Y-145458332D02*
X61745180Y-145333332D01*
X65942857Y-58584819D02*
X66276190Y-58108628D01*
X66514285Y-58584819D02*
X66514285Y-57584819D01*
X66514285Y-57584819D02*
X66133333Y-57584819D01*
X66133333Y-57584819D02*
X66038095Y-57632438D01*
X66038095Y-57632438D02*
X65990476Y-57680057D01*
X65990476Y-57680057D02*
X65942857Y-57775295D01*
X65942857Y-57775295D02*
X65942857Y-57918152D01*
X65942857Y-57918152D02*
X65990476Y-58013390D01*
X65990476Y-58013390D02*
X66038095Y-58061009D01*
X66038095Y-58061009D02*
X66133333Y-58108628D01*
X66133333Y-58108628D02*
X66514285Y-58108628D01*
X65085714Y-57918152D02*
X65085714Y-58584819D01*
X65323809Y-57537200D02*
X65561904Y-58251485D01*
X65561904Y-58251485D02*
X64942857Y-58251485D01*
X64514285Y-58584819D02*
X64323809Y-58584819D01*
X64323809Y-58584819D02*
X64228571Y-58537200D01*
X64228571Y-58537200D02*
X64180952Y-58489580D01*
X64180952Y-58489580D02*
X64085714Y-58346723D01*
X64085714Y-58346723D02*
X64038095Y-58156247D01*
X64038095Y-58156247D02*
X64038095Y-57775295D01*
X64038095Y-57775295D02*
X64085714Y-57680057D01*
X64085714Y-57680057D02*
X64133333Y-57632438D01*
X64133333Y-57632438D02*
X64228571Y-57584819D01*
X64228571Y-57584819D02*
X64419047Y-57584819D01*
X64419047Y-57584819D02*
X64514285Y-57632438D01*
X64514285Y-57632438D02*
X64561904Y-57680057D01*
X64561904Y-57680057D02*
X64609523Y-57775295D01*
X64609523Y-57775295D02*
X64609523Y-58013390D01*
X64609523Y-58013390D02*
X64561904Y-58108628D01*
X64561904Y-58108628D02*
X64514285Y-58156247D01*
X64514285Y-58156247D02*
X64419047Y-58203866D01*
X64419047Y-58203866D02*
X64228571Y-58203866D01*
X64228571Y-58203866D02*
X64133333Y-58156247D01*
X64133333Y-58156247D02*
X64085714Y-58108628D01*
X64085714Y-58108628D02*
X64038095Y-58013390D01*
X66561904Y-60288152D02*
X66561904Y-60954819D01*
X66799999Y-59907200D02*
X67038094Y-60621485D01*
X67038094Y-60621485D02*
X66419047Y-60621485D01*
X66133332Y-59954819D02*
X65466666Y-59954819D01*
X65466666Y-59954819D02*
X65895237Y-60954819D01*
X64895237Y-59954819D02*
X64799999Y-59954819D01*
X64799999Y-59954819D02*
X64704761Y-60002438D01*
X64704761Y-60002438D02*
X64657142Y-60050057D01*
X64657142Y-60050057D02*
X64609523Y-60145295D01*
X64609523Y-60145295D02*
X64561904Y-60335771D01*
X64561904Y-60335771D02*
X64561904Y-60573866D01*
X64561904Y-60573866D02*
X64609523Y-60764342D01*
X64609523Y-60764342D02*
X64657142Y-60859580D01*
X64657142Y-60859580D02*
X64704761Y-60907200D01*
X64704761Y-60907200D02*
X64799999Y-60954819D01*
X64799999Y-60954819D02*
X64895237Y-60954819D01*
X64895237Y-60954819D02*
X64990475Y-60907200D01*
X64990475Y-60907200D02*
X65038094Y-60859580D01*
X65038094Y-60859580D02*
X65085713Y-60764342D01*
X65085713Y-60764342D02*
X65133332Y-60573866D01*
X65133332Y-60573866D02*
X65133332Y-60335771D01*
X65133332Y-60335771D02*
X65085713Y-60145295D01*
X65085713Y-60145295D02*
X65038094Y-60050057D01*
X65038094Y-60050057D02*
X64990475Y-60002438D01*
X64990475Y-60002438D02*
X64895237Y-59954819D01*
X63561904Y-60954819D02*
X63895237Y-60478628D01*
X64133332Y-60954819D02*
X64133332Y-59954819D01*
X64133332Y-59954819D02*
X63752380Y-59954819D01*
X63752380Y-59954819D02*
X63657142Y-60002438D01*
X63657142Y-60002438D02*
X63609523Y-60050057D01*
X63609523Y-60050057D02*
X63561904Y-60145295D01*
X63561904Y-60145295D02*
X63561904Y-60288152D01*
X63561904Y-60288152D02*
X63609523Y-60383390D01*
X63609523Y-60383390D02*
X63657142Y-60431009D01*
X63657142Y-60431009D02*
X63752380Y-60478628D01*
X63752380Y-60478628D02*
X64133332Y-60478628D01*
X54061904Y-127802438D02*
X54157142Y-127754819D01*
X54157142Y-127754819D02*
X54299999Y-127754819D01*
X54299999Y-127754819D02*
X54442856Y-127802438D01*
X54442856Y-127802438D02*
X54538094Y-127897676D01*
X54538094Y-127897676D02*
X54585713Y-127992914D01*
X54585713Y-127992914D02*
X54633332Y-128183390D01*
X54633332Y-128183390D02*
X54633332Y-128326247D01*
X54633332Y-128326247D02*
X54585713Y-128516723D01*
X54585713Y-128516723D02*
X54538094Y-128611961D01*
X54538094Y-128611961D02*
X54442856Y-128707200D01*
X54442856Y-128707200D02*
X54299999Y-128754819D01*
X54299999Y-128754819D02*
X54204761Y-128754819D01*
X54204761Y-128754819D02*
X54061904Y-128707200D01*
X54061904Y-128707200D02*
X54014285Y-128659580D01*
X54014285Y-128659580D02*
X54014285Y-128326247D01*
X54014285Y-128326247D02*
X54204761Y-128326247D01*
X53585713Y-128754819D02*
X53585713Y-127754819D01*
X53585713Y-127754819D02*
X53014285Y-128754819D01*
X53014285Y-128754819D02*
X53014285Y-127754819D01*
X52538094Y-128754819D02*
X52538094Y-127754819D01*
X52538094Y-127754819D02*
X52299999Y-127754819D01*
X52299999Y-127754819D02*
X52157142Y-127802438D01*
X52157142Y-127802438D02*
X52061904Y-127897676D01*
X52061904Y-127897676D02*
X52014285Y-127992914D01*
X52014285Y-127992914D02*
X51966666Y-128183390D01*
X51966666Y-128183390D02*
X51966666Y-128326247D01*
X51966666Y-128326247D02*
X52014285Y-128516723D01*
X52014285Y-128516723D02*
X52061904Y-128611961D01*
X52061904Y-128611961D02*
X52157142Y-128707200D01*
X52157142Y-128707200D02*
X52299999Y-128754819D01*
X52299999Y-128754819D02*
X52538094Y-128754819D01*
X68028094Y-55954819D02*
X68028094Y-54954819D01*
X68028094Y-54954819D02*
X67789999Y-54954819D01*
X67789999Y-54954819D02*
X67647142Y-55002438D01*
X67647142Y-55002438D02*
X67551904Y-55097676D01*
X67551904Y-55097676D02*
X67504285Y-55192914D01*
X67504285Y-55192914D02*
X67456666Y-55383390D01*
X67456666Y-55383390D02*
X67456666Y-55526247D01*
X67456666Y-55526247D02*
X67504285Y-55716723D01*
X67504285Y-55716723D02*
X67551904Y-55811961D01*
X67551904Y-55811961D02*
X67647142Y-55907200D01*
X67647142Y-55907200D02*
X67789999Y-55954819D01*
X67789999Y-55954819D02*
X68028094Y-55954819D01*
X66599523Y-55288152D02*
X66599523Y-55954819D01*
X66837618Y-54907200D02*
X67075713Y-55621485D01*
X67075713Y-55621485D02*
X66456666Y-55621485D01*
%TO.C,J10*%
X87300000Y-175750000D02*
X87300000Y-173400000D01*
X87300000Y-175750000D02*
X87300000Y-178100000D01*
X95700000Y-175750000D02*
X95700000Y-173400000D01*
X95700000Y-175750000D02*
X95700000Y-178100000D01*
X87311121Y-173406222D02*
G75*
G02*
X91500000Y-170950000I4188881J-2343781D01*
G01*
X91500000Y-170950000D02*
G75*
G02*
X95688879Y-173406222I-2J-4800003D01*
G01*
X91500000Y-180550000D02*
G75*
G02*
X87311121Y-178093778I0J4800000D01*
G01*
X95688879Y-178093778D02*
G75*
G02*
X91500000Y-180550000I-4188879J2343778D01*
G01*
%TO.C,J4*%
X75000000Y-155050000D02*
X72650000Y-155050000D01*
X75000000Y-155050000D02*
X77350000Y-155050000D01*
X75000000Y-163450000D02*
X72650000Y-163450000D01*
X75000000Y-163450000D02*
X77350000Y-163450000D01*
X70200000Y-159250000D02*
G75*
G02*
X72656222Y-155061121I4800000J0D01*
G01*
X72656222Y-163438879D02*
G75*
G02*
X70200000Y-159250000I2343778J4188879D01*
G01*
X77343778Y-155061121D02*
G75*
G02*
X79800000Y-159250000I-2343781J-4188881D01*
G01*
X79800000Y-159250000D02*
G75*
G02*
X77343778Y-163438879I-4800003J2D01*
G01*
%TO.C,J6*%
X58500000Y-204550000D02*
X56150000Y-204550000D01*
X58500000Y-204550000D02*
X60850000Y-204550000D01*
X58500000Y-212950000D02*
X56150000Y-212950000D01*
X58500000Y-212950000D02*
X60850000Y-212950000D01*
X53700000Y-208750000D02*
G75*
G02*
X56156222Y-204561121I4800000J0D01*
G01*
X56156222Y-212938879D02*
G75*
G02*
X53700000Y-208750000I2343778J4188879D01*
G01*
X60843778Y-204561121D02*
G75*
G02*
X63300000Y-208750000I-2343781J-4188881D01*
G01*
X63300000Y-208750000D02*
G75*
G02*
X60843778Y-212938879I-4800003J2D01*
G01*
%TO.C,J2*%
X75000000Y-188050000D02*
X72650000Y-188050000D01*
X75000000Y-188050000D02*
X77350000Y-188050000D01*
X75000000Y-196450000D02*
X72650000Y-196450000D01*
X75000000Y-196450000D02*
X77350000Y-196450000D01*
X70200000Y-192250000D02*
G75*
G02*
X72656222Y-188061121I4800000J0D01*
G01*
X72656222Y-196438879D02*
G75*
G02*
X70200000Y-192250000I2343778J4188879D01*
G01*
X77343778Y-188061121D02*
G75*
G02*
X79800000Y-192250000I-2343781J-4188881D01*
G01*
X79800000Y-192250000D02*
G75*
G02*
X77343778Y-196438879I-4800003J2D01*
G01*
%TO.C,J3*%
X87300000Y-192250000D02*
X87300000Y-189900000D01*
X87300000Y-192250000D02*
X87300000Y-194600000D01*
X95700000Y-192250000D02*
X95700000Y-189900000D01*
X95700000Y-192250000D02*
X95700000Y-194600000D01*
X87311121Y-189906222D02*
G75*
G02*
X91500000Y-187450000I4188881J-2343781D01*
G01*
X91500000Y-187450000D02*
G75*
G02*
X95688879Y-189906222I-2J-4800003D01*
G01*
X91500000Y-197050000D02*
G75*
G02*
X87311121Y-194593778I0J4800000D01*
G01*
X95688879Y-194593778D02*
G75*
G02*
X91500000Y-197050000I-4188879J2343778D01*
G01*
%TO.C,J7*%
X75000000Y-204550000D02*
X72650000Y-204550000D01*
X75000000Y-204550000D02*
X77350000Y-204550000D01*
X75000000Y-212950000D02*
X72650000Y-212950000D01*
X75000000Y-212950000D02*
X77350000Y-212950000D01*
X70200000Y-208750000D02*
G75*
G02*
X72656222Y-204561121I4800000J0D01*
G01*
X72656222Y-212938879D02*
G75*
G02*
X70200000Y-208750000I2343778J4188879D01*
G01*
X77343778Y-204561121D02*
G75*
G02*
X79800000Y-208750000I-2343781J-4188881D01*
G01*
X79800000Y-208750000D02*
G75*
G02*
X77343778Y-212938879I-4800003J2D01*
G01*
%TO.C,J1*%
X58500000Y-188050000D02*
X56150000Y-188050000D01*
X58500000Y-188050000D02*
X60850000Y-188050000D01*
X58500000Y-196450000D02*
X56150000Y-196450000D01*
X58500000Y-196450000D02*
X60850000Y-196450000D01*
X53700000Y-192250000D02*
G75*
G02*
X56156222Y-188061121I4800000J0D01*
G01*
X56156222Y-196438879D02*
G75*
G02*
X53700000Y-192250000I2343778J4188879D01*
G01*
X60843778Y-188061121D02*
G75*
G02*
X63300000Y-192250000I-2343781J-4188881D01*
G01*
X63300000Y-192250000D02*
G75*
G02*
X60843778Y-196438879I-4800003J2D01*
G01*
%TO.C,J9*%
X75000000Y-171550000D02*
X72650000Y-171550000D01*
X75000000Y-171550000D02*
X77350000Y-171550000D01*
X75000000Y-179950000D02*
X72650000Y-179950000D01*
X75000000Y-179950000D02*
X77350000Y-179950000D01*
X70200000Y-175750000D02*
G75*
G02*
X72656222Y-171561121I4800000J0D01*
G01*
X72656222Y-179938879D02*
G75*
G02*
X70200000Y-175750000I2343778J4188879D01*
G01*
X77343778Y-171561121D02*
G75*
G02*
X79800000Y-175750000I-2343781J-4188881D01*
G01*
X79800000Y-175750000D02*
G75*
G02*
X77343778Y-179938879I-4800003J2D01*
G01*
%TO.C,J5*%
X87300000Y-159250000D02*
X87300000Y-156900000D01*
X87300000Y-159250000D02*
X87300000Y-161600000D01*
X95700000Y-159250000D02*
X95700000Y-156900000D01*
X95700000Y-159250000D02*
X95700000Y-161600000D01*
X87311121Y-156906222D02*
G75*
G02*
X91500000Y-154450000I4188881J-2343781D01*
G01*
X91500000Y-154450000D02*
G75*
G02*
X95688879Y-156906222I-2J-4800003D01*
G01*
X91500000Y-164050000D02*
G75*
G02*
X87311121Y-161593778I0J4800000D01*
G01*
X95688879Y-161593778D02*
G75*
G02*
X91500000Y-164050000I-4188879J2343778D01*
G01*
%TO.C,J8*%
X87300000Y-208750000D02*
X87300000Y-206400000D01*
X87300000Y-208750000D02*
X87300000Y-211100000D01*
X95700000Y-208750000D02*
X95700000Y-206400000D01*
X95700000Y-208750000D02*
X95700000Y-211100000D01*
X87311121Y-206406222D02*
G75*
G02*
X91500000Y-203950000I4188881J-2343781D01*
G01*
X91500000Y-203950000D02*
G75*
G02*
X95688879Y-206406222I-2J-4800003D01*
G01*
X91500000Y-213550000D02*
G75*
G02*
X87311121Y-211093778I0J4800000D01*
G01*
X95688879Y-211093778D02*
G75*
G02*
X91500000Y-213550000I-4188879J2343778D01*
G01*
%TO.C,D3*%
D14*
X79360000Y-55500000D02*
X80380000Y-55500000D01*
X81160000Y-56970000D02*
X81160000Y-54030000D01*
X81280000Y-56970000D02*
X81280000Y-54030000D01*
X81400000Y-56970000D02*
X81400000Y-54030000D01*
X86840000Y-55500000D02*
X85820000Y-55500000D01*
X80380000Y-54030000D02*
X85820000Y-54030000D01*
X85820000Y-56970000D01*
X80380000Y-56970000D01*
X80380000Y-54030000D01*
%TO.C,J26*%
X81670000Y-128670000D02*
X81670000Y-130000000D01*
X81670000Y-131270000D02*
X81670000Y-136410000D01*
X83000000Y-128670000D02*
X81670000Y-128670000D01*
X84270000Y-128670000D02*
X84270000Y-131270000D01*
X84270000Y-131270000D02*
X81670000Y-131270000D01*
X86870000Y-128670000D02*
X84270000Y-128670000D01*
X86870000Y-128670000D02*
X86870000Y-136410000D01*
X86870000Y-136410000D02*
X81670000Y-136410000D01*
%TO.C,JP3*%
X62210000Y-146730000D02*
X62210000Y-151920000D01*
X64970000Y-144080000D02*
X63590000Y-144080000D01*
X64970000Y-145460000D02*
X64970000Y-144080000D01*
X64970000Y-146730000D02*
X62210000Y-146730000D01*
X64970000Y-146730000D02*
X64970000Y-151920000D01*
X64970000Y-151920000D02*
X62210000Y-151920000D01*
%TO.C,J100*%
X60900000Y-42970000D02*
X60900000Y-52090000D01*
X60900000Y-52090000D02*
X89100000Y-52090000D01*
X62200000Y-44280000D02*
X62200000Y-50780000D01*
X62200000Y-50780000D02*
X72950000Y-50780000D01*
D15*
X72950000Y-50780000D02*
X72949999Y-50780000D01*
X72949999Y-50780000D01*
X72949999Y-50780000D01*
X72949999Y-50780000D01*
X72949999Y-50780000D01*
X72949999Y-50780000D01*
X72949999Y-50780000D01*
X72949999Y-50779999D01*
X72949999Y-50779999D01*
X72949999Y-50779999D01*
X72949999Y-50779999D01*
X72949999Y-50779999D01*
X72950000Y-50779999D01*
X72950000Y-50779999D01*
X72950000Y-50779999D01*
X72950000Y-50779999D01*
X72950000Y-50779999D01*
X72950000Y-50779999D01*
X72950000Y-50779999D01*
X72950000Y-50779999D01*
X72950000Y-50779999D01*
X72950000Y-50779999D01*
X72950000Y-50779999D01*
X72950000Y-50779999D01*
X72950001Y-50779999D01*
X72950001Y-50779999D01*
X72950001Y-50779999D01*
X72950001Y-50779999D01*
X72950001Y-50779999D01*
X72950001Y-50779999D01*
X72950001Y-50780000D01*
X72950001Y-50780000D01*
X72950001Y-50780000D01*
X72950001Y-50780000D01*
X72950001Y-50780000D01*
X72950001Y-50780000D01*
X72950001Y-50780000D01*
X72950000Y-50780000D01*
X72950000Y-50780000D02*
X72950001Y-50780000D01*
X72950001Y-50780000D01*
X72950001Y-50780000D01*
X72950001Y-50780000D01*
X72950001Y-50780000D01*
X72950001Y-50780000D01*
X72950001Y-50780001D01*
X72950001Y-50780001D01*
X72950001Y-50780001D01*
X72950001Y-50780001D01*
X72950001Y-50780001D01*
X72950001Y-50780001D01*
X72950001Y-50780001D01*
X72950000Y-50780001D01*
X72950000Y-50780001D01*
X72950000Y-50780001D01*
X72950000Y-50780001D01*
X72950000Y-50780001D01*
X72950000Y-50780001D01*
X72950000Y-50780001D01*
X72950000Y-50780001D01*
X72950000Y-50780001D01*
X72950000Y-50780001D01*
X72950000Y-50780001D01*
X72950000Y-50780001D01*
X72949999Y-50780001D01*
X72949999Y-50780001D01*
X72949999Y-50780001D01*
X72949999Y-50780001D01*
X72949999Y-50780001D01*
X72949999Y-50780001D01*
X72949999Y-50780000D01*
X72949999Y-50780000D01*
X72949999Y-50780000D01*
X72949999Y-50780000D01*
X72949999Y-50780000D01*
X72949999Y-50780000D01*
X72950000Y-50780000D01*
D14*
X72950000Y-50780000D02*
X72950000Y-52090000D01*
X77050000Y-50780000D02*
X87800000Y-50780000D01*
X77050000Y-52090000D02*
X77050000Y-50780000D01*
X83390000Y-53480000D02*
X83890000Y-52480000D01*
X83890000Y-52480000D02*
X84390000Y-53480000D01*
X84390000Y-53480000D02*
X83390000Y-53480000D01*
X87800000Y-44280000D02*
X62200000Y-44280000D01*
X87800000Y-50780000D02*
X87800000Y-44280000D01*
X89100000Y-42970000D02*
X60900000Y-42970000D01*
X89100000Y-52090000D02*
X89100000Y-42970000D01*
%TO.C,U10*%
X76800000Y-61910000D02*
X73200000Y-61910000D01*
X73161522Y-61898478D02*
G75*
G02*
X75000000Y-57459999I1838478J1838478D01*
G01*
X75000000Y-57460000D02*
G75*
G02*
X76838478Y-61898478I0J-2600000D01*
G01*
%TO.C,J14*%
X62670000Y-82670000D02*
X62670000Y-84000000D01*
X62670000Y-85270000D02*
X62670000Y-90410000D01*
X64000000Y-82670000D02*
X62670000Y-82670000D01*
X65270000Y-82670000D02*
X65270000Y-85270000D01*
X65270000Y-85270000D02*
X62670000Y-85270000D01*
X67870000Y-82670000D02*
X65270000Y-82670000D01*
X67870000Y-82670000D02*
X67870000Y-90410000D01*
X67870000Y-90410000D02*
X62670000Y-90410000D01*
%TO.C,J200*%
X52767500Y-176680000D02*
X53767500Y-177180000D01*
X52767500Y-177680000D02*
X52767500Y-176680000D01*
X53767500Y-177180000D02*
X52767500Y-177680000D01*
X54157500Y-161810000D02*
X54157500Y-182390000D01*
X54157500Y-174150000D02*
X55467500Y-174150000D01*
X54157500Y-182390000D02*
X63277500Y-182390000D01*
X55467500Y-163110000D02*
X55467500Y-170050000D01*
X55467500Y-170050000D02*
X54157500Y-170050000D01*
D15*
X55467500Y-170050000D02*
X55467499Y-170050000D01*
X55467499Y-170050000D01*
X55467499Y-170050000D01*
X55467499Y-170050000D01*
X55467499Y-170050000D01*
X55467499Y-170050000D01*
X55467499Y-170050000D01*
X55467499Y-170049999D01*
X55467499Y-170049999D01*
X55467499Y-170049999D01*
X55467499Y-170049999D01*
X55467499Y-170049999D01*
X55467500Y-170049999D01*
X55467500Y-170049999D01*
X55467500Y-170049999D01*
X55467500Y-170049999D01*
X55467500Y-170049999D01*
X55467500Y-170049999D01*
X55467500Y-170049999D01*
X55467500Y-170049999D01*
X55467500Y-170049999D01*
X55467500Y-170049999D01*
X55467500Y-170049999D01*
X55467500Y-170049999D01*
X55467501Y-170049999D01*
X55467501Y-170049999D01*
X55467501Y-170049999D01*
X55467501Y-170049999D01*
X55467501Y-170049999D01*
X55467501Y-170049999D01*
X55467501Y-170050000D01*
X55467501Y-170050000D01*
X55467501Y-170050000D01*
X55467501Y-170050000D01*
X55467501Y-170050000D01*
X55467501Y-170050000D01*
X55467501Y-170050000D01*
X55467500Y-170050000D01*
X55467500Y-170050000D02*
X55467501Y-170050000D01*
X55467501Y-170050000D01*
X55467501Y-170050000D01*
X55467501Y-170050000D01*
X55467501Y-170050000D01*
X55467501Y-170050000D01*
X55467501Y-170050001D01*
X55467501Y-170050001D01*
X55467501Y-170050001D01*
X55467501Y-170050001D01*
X55467501Y-170050001D01*
X55467501Y-170050001D01*
X55467501Y-170050001D01*
X55467500Y-170050001D01*
X55467500Y-170050001D01*
X55467500Y-170050001D01*
X55467500Y-170050001D01*
X55467500Y-170050001D01*
X55467500Y-170050001D01*
X55467500Y-170050001D01*
X55467500Y-170050001D01*
X55467500Y-170050001D01*
X55467500Y-170050001D01*
X55467500Y-170050001D01*
X55467500Y-170050001D01*
X55467499Y-170050001D01*
X55467499Y-170050001D01*
X55467499Y-170050001D01*
X55467499Y-170050001D01*
X55467499Y-170050001D01*
X55467499Y-170050001D01*
X55467499Y-170050000D01*
X55467499Y-170050000D01*
X55467499Y-170050000D01*
X55467499Y-170050000D01*
X55467499Y-170050000D01*
X55467499Y-170050000D01*
X55467500Y-170050000D01*
D14*
X55467500Y-174150000D02*
X55467500Y-181090000D01*
X55467500Y-181090000D02*
X61967500Y-181090000D01*
X61967500Y-163110000D02*
X55467500Y-163110000D01*
X61967500Y-181090000D02*
X61967500Y-163110000D01*
X63277500Y-161810000D02*
X54157500Y-161810000D01*
X63277500Y-182390000D02*
X63277500Y-161810000D01*
%TO.C,C5*%
X63030000Y-66114000D02*
X63030000Y-66170000D01*
X63030000Y-66170000D02*
X67570000Y-66170000D01*
X67570000Y-64030000D02*
X63030000Y-64030000D01*
X67570000Y-64086000D02*
X67570000Y-64030000D01*
%TO.C,J15*%
X62670000Y-98670000D02*
X62670000Y-100000000D01*
X62670000Y-101270000D02*
X62670000Y-114030000D01*
X64000000Y-98670000D02*
X62670000Y-98670000D01*
X65270000Y-98670000D02*
X65270000Y-101270000D01*
X65270000Y-101270000D02*
X62670000Y-101270000D01*
X67870000Y-98670000D02*
X65270000Y-98670000D01*
X67870000Y-98670000D02*
X67870000Y-114030000D01*
X67870000Y-114030000D02*
X62670000Y-114030000D01*
%TO.C,C2*%
X89855113Y-47217000D02*
X89855113Y-47783000D01*
X89895113Y-46983000D02*
X89895113Y-48017000D01*
X89935113Y-46823000D02*
X89935113Y-48177000D01*
X89975113Y-46695000D02*
X89975113Y-48305000D01*
X90015113Y-46586000D02*
X90015113Y-48414000D01*
X90055113Y-46489000D02*
X90055113Y-48511000D01*
X90095113Y-46402000D02*
X90095113Y-48598000D01*
X90135113Y-46323000D02*
X90135113Y-48677000D01*
X90175113Y-46249000D02*
X90175113Y-48751000D01*
X90215113Y-46181000D02*
X90215113Y-48819000D01*
X90255113Y-46117000D02*
X90255113Y-48883000D01*
X90295113Y-46057000D02*
X90295113Y-48943000D01*
X90335113Y-46001000D02*
X90335113Y-48999000D01*
X90375113Y-45947000D02*
X90375113Y-49053000D01*
X90415113Y-45896000D02*
X90415113Y-49104000D01*
X90455113Y-45848000D02*
X90455113Y-46460000D01*
X90455113Y-48540000D02*
X90455113Y-49152000D01*
X90495113Y-45801000D02*
X90495113Y-46460000D01*
X90495113Y-48540000D02*
X90495113Y-49199000D01*
X90535113Y-45757000D02*
X90535113Y-46460000D01*
X90535113Y-48540000D02*
X90535113Y-49243000D01*
X90575113Y-45715000D02*
X90575113Y-46460000D01*
X90575113Y-48540000D02*
X90575113Y-49285000D01*
X90615113Y-45675000D02*
X90615113Y-46460000D01*
X90615113Y-48540000D02*
X90615113Y-49325000D01*
X90655113Y-45636000D02*
X90655113Y-46460000D01*
X90655113Y-48540000D02*
X90655113Y-49364000D01*
X90695113Y-45599000D02*
X90695113Y-46460000D01*
X90695113Y-48540000D02*
X90695113Y-49401000D01*
X90735113Y-45564000D02*
X90735113Y-46460000D01*
X90735113Y-48540000D02*
X90735113Y-49436000D01*
X90775113Y-45530000D02*
X90775113Y-46460000D01*
X90775113Y-48540000D02*
X90775113Y-49470000D01*
X90815113Y-45497000D02*
X90815113Y-46460000D01*
X90815113Y-48540000D02*
X90815113Y-49503000D01*
X90855113Y-45465000D02*
X90855113Y-46460000D01*
X90855113Y-48540000D02*
X90855113Y-49535000D01*
X90895113Y-45435000D02*
X90895113Y-46460000D01*
X90895113Y-48540000D02*
X90895113Y-49565000D01*
X90935113Y-45406000D02*
X90935113Y-46460000D01*
X90935113Y-48540000D02*
X90935113Y-49594000D01*
X90975113Y-45378000D02*
X90975113Y-46460000D01*
X90975113Y-48540000D02*
X90975113Y-49622000D01*
X91015113Y-45351000D02*
X91015113Y-46460000D01*
X91015113Y-48540000D02*
X91015113Y-49649000D01*
X91055113Y-45325000D02*
X91055113Y-46460000D01*
X91055113Y-48540000D02*
X91055113Y-49675000D01*
X91095113Y-45301000D02*
X91095113Y-46460000D01*
X91095113Y-48540000D02*
X91095113Y-49699000D01*
X91135113Y-45277000D02*
X91135113Y-46460000D01*
X91135113Y-48540000D02*
X91135113Y-49723000D01*
X91175113Y-45254000D02*
X91175113Y-46460000D01*
X91175113Y-48540000D02*
X91175113Y-49746000D01*
X91215113Y-45232000D02*
X91215113Y-46460000D01*
X91215113Y-48540000D02*
X91215113Y-49768000D01*
X91255113Y-45211000D02*
X91255113Y-46460000D01*
X91255113Y-48540000D02*
X91255113Y-49789000D01*
X91295113Y-45191000D02*
X91295113Y-46460000D01*
X91295113Y-48540000D02*
X91295113Y-49809000D01*
X91335113Y-45171000D02*
X91335113Y-46460000D01*
X91335113Y-48540000D02*
X91335113Y-49829000D01*
X91375113Y-45153000D02*
X91375113Y-46460000D01*
X91375113Y-48540000D02*
X91375113Y-49847000D01*
X91415113Y-45135000D02*
X91415113Y-46460000D01*
X91415113Y-48540000D02*
X91415113Y-49865000D01*
X91455113Y-45118000D02*
X91455113Y-46460000D01*
X91455113Y-48540000D02*
X91455113Y-49882000D01*
X91495113Y-45102000D02*
X91495113Y-46460000D01*
X91495113Y-48540000D02*
X91495113Y-49898000D01*
X91535113Y-45087000D02*
X91535113Y-46460000D01*
X91535113Y-48540000D02*
X91535113Y-49913000D01*
X91575113Y-45072000D02*
X91575113Y-46460000D01*
X91575113Y-48540000D02*
X91575113Y-49928000D01*
X91615113Y-45058000D02*
X91615113Y-46460000D01*
X91615113Y-48540000D02*
X91615113Y-49942000D01*
X91655113Y-45045000D02*
X91655113Y-46460000D01*
X91655113Y-48540000D02*
X91655113Y-49955000D01*
X91695113Y-45033000D02*
X91695113Y-46460000D01*
X91695113Y-48540000D02*
X91695113Y-49967000D01*
X91735113Y-45021000D02*
X91735113Y-46460000D01*
X91735113Y-48540000D02*
X91735113Y-49979000D01*
X91775113Y-45010000D02*
X91775113Y-46460000D01*
X91775113Y-48540000D02*
X91775113Y-49990000D01*
X91815113Y-44999000D02*
X91815113Y-46460000D01*
X91815113Y-48540000D02*
X91815113Y-50001000D01*
X91855113Y-44990000D02*
X91855113Y-46460000D01*
X91855113Y-48540000D02*
X91855113Y-50010000D01*
X91895113Y-44981000D02*
X91895113Y-46460000D01*
X91895113Y-48540000D02*
X91895113Y-50019000D01*
X91935113Y-44972000D02*
X91935113Y-46460000D01*
X91935113Y-48540000D02*
X91935113Y-50028000D01*
X91975113Y-44964000D02*
X91975113Y-46460000D01*
X91975113Y-48540000D02*
X91975113Y-50036000D01*
X92015113Y-44957000D02*
X92015113Y-46460000D01*
X92015113Y-48540000D02*
X92015113Y-50043000D01*
X92055113Y-44951000D02*
X92055113Y-46460000D01*
X92055113Y-48540000D02*
X92055113Y-50049000D01*
X92095113Y-44945000D02*
X92095113Y-46460000D01*
X92095113Y-48540000D02*
X92095113Y-50055000D01*
X92135113Y-44940000D02*
X92135113Y-46460000D01*
X92135113Y-48540000D02*
X92135113Y-50060000D01*
X92175113Y-44935000D02*
X92175113Y-46460000D01*
X92175113Y-48540000D02*
X92175113Y-50065000D01*
X92215113Y-44931000D02*
X92215113Y-46460000D01*
X92215113Y-48540000D02*
X92215113Y-50069000D01*
X92255113Y-44928000D02*
X92255113Y-46460000D01*
X92255113Y-48540000D02*
X92255113Y-50072000D01*
X92295113Y-44925000D02*
X92295113Y-46460000D01*
X92295113Y-48540000D02*
X92295113Y-50075000D01*
X92335113Y-44923000D02*
X92335113Y-46460000D01*
X92335113Y-48540000D02*
X92335113Y-50077000D01*
X92375113Y-44921000D02*
X92375113Y-46460000D01*
X92375113Y-48540000D02*
X92375113Y-50079000D01*
X92415113Y-44920000D02*
X92415113Y-46460000D01*
X92415113Y-48540000D02*
X92415113Y-50080000D01*
X92455113Y-44920000D02*
X92455113Y-46460000D01*
X92455113Y-48540000D02*
X92455113Y-50080000D01*
X95009888Y-45775000D02*
X95009888Y-46275000D01*
X95259888Y-46025000D02*
X94759888Y-46025000D01*
X95075113Y-47500000D02*
G75*
G02*
X89835113Y-47500000I-2620000J0D01*
G01*
X89835113Y-47500000D02*
G75*
G02*
X95075113Y-47500000I2620000J0D01*
G01*
%TO.C,J24*%
X81670000Y-82670000D02*
X81670000Y-84000000D01*
X81670000Y-85270000D02*
X81670000Y-90410000D01*
X83000000Y-82670000D02*
X81670000Y-82670000D01*
X84270000Y-82670000D02*
X84270000Y-85270000D01*
X84270000Y-85270000D02*
X81670000Y-85270000D01*
X86870000Y-82670000D02*
X84270000Y-82670000D01*
X86870000Y-82670000D02*
X86870000Y-90410000D01*
X86870000Y-90410000D02*
X81670000Y-90410000D01*
%TO.C,JP1*%
X53030000Y-146730000D02*
X53030000Y-151920000D01*
X55790000Y-144080000D02*
X54410000Y-144080000D01*
X55790000Y-145460000D02*
X55790000Y-144080000D01*
X55790000Y-146730000D02*
X53030000Y-146730000D01*
X55790000Y-146730000D02*
X55790000Y-151920000D01*
X55790000Y-151920000D02*
X53030000Y-151920000D01*
%TO.C,J16*%
X62670000Y-128670000D02*
X62670000Y-130000000D01*
X62670000Y-131270000D02*
X62670000Y-136410000D01*
X64000000Y-128670000D02*
X62670000Y-128670000D01*
X65270000Y-128670000D02*
X65270000Y-131270000D01*
X65270000Y-131270000D02*
X62670000Y-131270000D01*
X67870000Y-128670000D02*
X65270000Y-128670000D01*
X67870000Y-128670000D02*
X67870000Y-136410000D01*
X67870000Y-136410000D02*
X62670000Y-136410000D01*
%TO.C,C1*%
X54900000Y-47217000D02*
X54900000Y-47783000D01*
X54940000Y-46983000D02*
X54940000Y-48017000D01*
X54980000Y-46823000D02*
X54980000Y-48177000D01*
X55020000Y-46695000D02*
X55020000Y-48305000D01*
X55060000Y-46586000D02*
X55060000Y-48414000D01*
X55100000Y-46489000D02*
X55100000Y-48511000D01*
X55140000Y-46402000D02*
X55140000Y-48598000D01*
X55180000Y-46323000D02*
X55180000Y-48677000D01*
X55220000Y-46249000D02*
X55220000Y-48751000D01*
X55260000Y-46181000D02*
X55260000Y-48819000D01*
X55300000Y-46117000D02*
X55300000Y-48883000D01*
X55340000Y-46057000D02*
X55340000Y-48943000D01*
X55380000Y-46001000D02*
X55380000Y-48999000D01*
X55420000Y-45947000D02*
X55420000Y-49053000D01*
X55460000Y-45896000D02*
X55460000Y-49104000D01*
X55500000Y-45848000D02*
X55500000Y-46460000D01*
X55500000Y-48540000D02*
X55500000Y-49152000D01*
X55540000Y-45801000D02*
X55540000Y-46460000D01*
X55540000Y-48540000D02*
X55540000Y-49199000D01*
X55580000Y-45757000D02*
X55580000Y-46460000D01*
X55580000Y-48540000D02*
X55580000Y-49243000D01*
X55620000Y-45715000D02*
X55620000Y-46460000D01*
X55620000Y-48540000D02*
X55620000Y-49285000D01*
X55660000Y-45675000D02*
X55660000Y-46460000D01*
X55660000Y-48540000D02*
X55660000Y-49325000D01*
X55700000Y-45636000D02*
X55700000Y-46460000D01*
X55700000Y-48540000D02*
X55700000Y-49364000D01*
X55740000Y-45599000D02*
X55740000Y-46460000D01*
X55740000Y-48540000D02*
X55740000Y-49401000D01*
X55780000Y-45564000D02*
X55780000Y-46460000D01*
X55780000Y-48540000D02*
X55780000Y-49436000D01*
X55820000Y-45530000D02*
X55820000Y-46460000D01*
X55820000Y-48540000D02*
X55820000Y-49470000D01*
X55860000Y-45497000D02*
X55860000Y-46460000D01*
X55860000Y-48540000D02*
X55860000Y-49503000D01*
X55900000Y-45465000D02*
X55900000Y-46460000D01*
X55900000Y-48540000D02*
X55900000Y-49535000D01*
X55940000Y-45435000D02*
X55940000Y-46460000D01*
X55940000Y-48540000D02*
X55940000Y-49565000D01*
X55980000Y-45406000D02*
X55980000Y-46460000D01*
X55980000Y-48540000D02*
X55980000Y-49594000D01*
X56020000Y-45378000D02*
X56020000Y-46460000D01*
X56020000Y-48540000D02*
X56020000Y-49622000D01*
X56060000Y-45351000D02*
X56060000Y-46460000D01*
X56060000Y-48540000D02*
X56060000Y-49649000D01*
X56100000Y-45325000D02*
X56100000Y-46460000D01*
X56100000Y-48540000D02*
X56100000Y-49675000D01*
X56140000Y-45301000D02*
X56140000Y-46460000D01*
X56140000Y-48540000D02*
X56140000Y-49699000D01*
X56180000Y-45277000D02*
X56180000Y-46460000D01*
X56180000Y-48540000D02*
X56180000Y-49723000D01*
X56220000Y-45254000D02*
X56220000Y-46460000D01*
X56220000Y-48540000D02*
X56220000Y-49746000D01*
X56260000Y-45232000D02*
X56260000Y-46460000D01*
X56260000Y-48540000D02*
X56260000Y-49768000D01*
X56300000Y-45211000D02*
X56300000Y-46460000D01*
X56300000Y-48540000D02*
X56300000Y-49789000D01*
X56340000Y-45191000D02*
X56340000Y-46460000D01*
X56340000Y-48540000D02*
X56340000Y-49809000D01*
X56380000Y-45171000D02*
X56380000Y-46460000D01*
X56380000Y-48540000D02*
X56380000Y-49829000D01*
X56420000Y-45153000D02*
X56420000Y-46460000D01*
X56420000Y-48540000D02*
X56420000Y-49847000D01*
X56460000Y-45135000D02*
X56460000Y-46460000D01*
X56460000Y-48540000D02*
X56460000Y-49865000D01*
X56500000Y-45118000D02*
X56500000Y-46460000D01*
X56500000Y-48540000D02*
X56500000Y-49882000D01*
X56540000Y-45102000D02*
X56540000Y-46460000D01*
X56540000Y-48540000D02*
X56540000Y-49898000D01*
X56580000Y-45087000D02*
X56580000Y-46460000D01*
X56580000Y-48540000D02*
X56580000Y-49913000D01*
X56620000Y-45072000D02*
X56620000Y-46460000D01*
X56620000Y-48540000D02*
X56620000Y-49928000D01*
X56660000Y-45058000D02*
X56660000Y-46460000D01*
X56660000Y-48540000D02*
X56660000Y-49942000D01*
X56700000Y-45045000D02*
X56700000Y-46460000D01*
X56700000Y-48540000D02*
X56700000Y-49955000D01*
X56740000Y-45033000D02*
X56740000Y-46460000D01*
X56740000Y-48540000D02*
X56740000Y-49967000D01*
X56780000Y-45021000D02*
X56780000Y-46460000D01*
X56780000Y-48540000D02*
X56780000Y-49979000D01*
X56820000Y-45010000D02*
X56820000Y-46460000D01*
X56820000Y-48540000D02*
X56820000Y-49990000D01*
X56860000Y-44999000D02*
X56860000Y-46460000D01*
X56860000Y-48540000D02*
X56860000Y-50001000D01*
X56900000Y-44990000D02*
X56900000Y-46460000D01*
X56900000Y-48540000D02*
X56900000Y-50010000D01*
X56940000Y-44981000D02*
X56940000Y-46460000D01*
X56940000Y-48540000D02*
X56940000Y-50019000D01*
X56980000Y-44972000D02*
X56980000Y-46460000D01*
X56980000Y-48540000D02*
X56980000Y-50028000D01*
X57020000Y-44964000D02*
X57020000Y-46460000D01*
X57020000Y-48540000D02*
X57020000Y-50036000D01*
X57060000Y-44957000D02*
X57060000Y-46460000D01*
X57060000Y-48540000D02*
X57060000Y-50043000D01*
X57100000Y-44951000D02*
X57100000Y-46460000D01*
X57100000Y-48540000D02*
X57100000Y-50049000D01*
X57140000Y-44945000D02*
X57140000Y-46460000D01*
X57140000Y-48540000D02*
X57140000Y-50055000D01*
X57180000Y-44940000D02*
X57180000Y-46460000D01*
X57180000Y-48540000D02*
X57180000Y-50060000D01*
X57220000Y-44935000D02*
X57220000Y-46460000D01*
X57220000Y-48540000D02*
X57220000Y-50065000D01*
X57260000Y-44931000D02*
X57260000Y-46460000D01*
X57260000Y-48540000D02*
X57260000Y-50069000D01*
X57300000Y-44928000D02*
X57300000Y-46460000D01*
X57300000Y-48540000D02*
X57300000Y-50072000D01*
X57340000Y-44925000D02*
X57340000Y-46460000D01*
X57340000Y-48540000D02*
X57340000Y-50075000D01*
X57380000Y-44923000D02*
X57380000Y-46460000D01*
X57380000Y-48540000D02*
X57380000Y-50077000D01*
X57420000Y-44921000D02*
X57420000Y-46460000D01*
X57420000Y-48540000D02*
X57420000Y-50079000D01*
X57460000Y-44920000D02*
X57460000Y-46460000D01*
X57460000Y-48540000D02*
X57460000Y-50080000D01*
X57500000Y-44920000D02*
X57500000Y-46460000D01*
X57500000Y-48540000D02*
X57500000Y-50080000D01*
X60054775Y-45775000D02*
X60054775Y-46275000D01*
X60304775Y-46025000D02*
X59804775Y-46025000D01*
X60120000Y-47500000D02*
G75*
G02*
X54880000Y-47500000I-2620000J0D01*
G01*
X54880000Y-47500000D02*
G75*
G02*
X60120000Y-47500000I2620000J0D01*
G01*
%TO.C,J25*%
X81670000Y-98670000D02*
X81670000Y-100000000D01*
X81670000Y-101270000D02*
X81670000Y-114030000D01*
X83000000Y-98670000D02*
X81670000Y-98670000D01*
X84270000Y-98670000D02*
X84270000Y-101270000D01*
X84270000Y-101270000D02*
X81670000Y-101270000D01*
X86870000Y-98670000D02*
X84270000Y-98670000D01*
X86870000Y-98670000D02*
X86870000Y-114030000D01*
X86870000Y-114030000D02*
X81670000Y-114030000D01*
%TO.C,JP2*%
X57620000Y-146730000D02*
X57620000Y-151920000D01*
X60380000Y-144080000D02*
X59000000Y-144080000D01*
X60380000Y-145460000D02*
X60380000Y-144080000D01*
X60380000Y-146730000D02*
X57620000Y-146730000D01*
X60380000Y-146730000D02*
X60380000Y-151920000D01*
X60380000Y-151920000D02*
X57620000Y-151920000D01*
%TO.C,R49*%
X62030000Y-59130000D02*
X62030000Y-59460000D01*
X62030000Y-61870000D02*
X62030000Y-61540000D01*
X68570000Y-59130000D02*
X62030000Y-59130000D01*
X68570000Y-59460000D02*
X68570000Y-59130000D01*
X68570000Y-61540000D02*
X68570000Y-61870000D01*
X68570000Y-61870000D02*
X62030000Y-61870000D01*
%TO.C,J0*%
X51920000Y-127170000D02*
X51920000Y-127280000D01*
X54680000Y-124520000D02*
X53300000Y-124520000D01*
X54680000Y-125900000D02*
X54680000Y-124520000D01*
X54680000Y-127170000D02*
X51920000Y-127170000D01*
X54680000Y-127170000D02*
X54680000Y-127280000D01*
X54680000Y-127280000D02*
X51920000Y-127280000D01*
%TO.C,D4*%
X63160000Y-55500000D02*
X64180000Y-55500000D01*
X64960000Y-56970000D02*
X64960000Y-54030000D01*
X65080000Y-56970000D02*
X65080000Y-54030000D01*
X65200000Y-56970000D02*
X65200000Y-54030000D01*
X70640000Y-55500000D02*
X69620000Y-55500000D01*
X64180000Y-54030000D02*
X69620000Y-54030000D01*
X69620000Y-56970000D01*
X64180000Y-56970000D01*
X64180000Y-54030000D01*
%TD*%
%LPC*%
D16*
%TO.C,J10*%
X86903810Y-180346190D03*
D17*
X91000000Y-169250000D03*
D18*
X85000000Y-173250000D03*
%TD*%
D19*
%TO.C,J4*%
X70403810Y-154653810D03*
D18*
X81500000Y-158750000D03*
D17*
X77500000Y-152750000D03*
%TD*%
D20*
%TO.C,J27*%
X52750000Y-102000000D03*
D21*
X52750000Y-104540000D03*
X52750000Y-107080000D03*
X52750000Y-109620000D03*
X52750000Y-112160000D03*
X52750000Y-114700000D03*
X52750000Y-117240000D03*
X52750000Y-119780000D03*
%TD*%
D19*
%TO.C,J6*%
X53903810Y-204153810D03*
D18*
X65000000Y-208250000D03*
D17*
X61000000Y-202250000D03*
%TD*%
D19*
%TO.C,J2*%
X70403810Y-187653810D03*
D18*
X81500000Y-191750000D03*
D17*
X77500000Y-185750000D03*
%TD*%
D20*
%TO.C,J17*%
X52750000Y-50000000D03*
D21*
X52750000Y-52540000D03*
X52750000Y-55080000D03*
X52750000Y-57620000D03*
X52750000Y-60160000D03*
X52750000Y-62700000D03*
X52750000Y-65240000D03*
X52750000Y-67780000D03*
%TD*%
D16*
%TO.C,J3*%
X86903810Y-196846190D03*
D17*
X91000000Y-185750000D03*
D18*
X85000000Y-189750000D03*
%TD*%
D20*
%TO.C,J28*%
X97200000Y-128000000D03*
D21*
X97200000Y-130540000D03*
X97200000Y-133080000D03*
X97200000Y-135620000D03*
X97200000Y-138160000D03*
X97200000Y-140700000D03*
X97200000Y-143240000D03*
X97200000Y-145780000D03*
%TD*%
D19*
%TO.C,J7*%
X70403810Y-204153810D03*
D18*
X81500000Y-208250000D03*
D17*
X77500000Y-202250000D03*
%TD*%
D19*
%TO.C,J1*%
X53903810Y-187653810D03*
D18*
X65000000Y-191750000D03*
D17*
X61000000Y-185750000D03*
%TD*%
D19*
%TO.C,J9*%
X70403810Y-171153810D03*
D18*
X81500000Y-175250000D03*
D17*
X77500000Y-169250000D03*
%TD*%
D16*
%TO.C,J5*%
X86903810Y-163846190D03*
D17*
X91000000Y-152750000D03*
D18*
X85000000Y-156750000D03*
%TD*%
D20*
%TO.C,J18*%
X97200000Y-50000000D03*
D21*
X97200000Y-52540000D03*
X97200000Y-55080000D03*
X97200000Y-57620000D03*
X97200000Y-60160000D03*
X97200000Y-62700000D03*
X97200000Y-65240000D03*
X97200000Y-67780000D03*
%TD*%
D16*
%TO.C,J8*%
X86903810Y-213346190D03*
D17*
X91000000Y-202250000D03*
D18*
X85000000Y-206250000D03*
%TD*%
D22*
%TO.C,D3*%
X78020000Y-55500000D03*
D23*
X88180000Y-55500000D03*
%TD*%
D20*
%TO.C,J26*%
X83000000Y-130000000D03*
D21*
X85540000Y-130000000D03*
X83000000Y-132540000D03*
X85540000Y-132540000D03*
X83000000Y-135080000D03*
X85540000Y-135080000D03*
%TD*%
D20*
%TO.C,JP3*%
X63590000Y-145460000D03*
D21*
X63590000Y-148000000D03*
X63590000Y-150540000D03*
%TD*%
D24*
%TO.C,J100*%
X83890000Y-48800000D03*
D21*
X83890000Y-46260000D03*
X81350000Y-48800000D03*
X81350000Y-46260000D03*
X78810000Y-48800000D03*
X78810000Y-46260000D03*
X76270000Y-48800000D03*
X76270000Y-46260000D03*
X73730000Y-48800000D03*
X73730000Y-46260000D03*
X71190000Y-48800000D03*
X71190000Y-46260000D03*
X68650000Y-48800000D03*
X68650000Y-46260000D03*
X66110000Y-48800000D03*
X66110000Y-46260000D03*
%TD*%
D25*
%TO.C,U10*%
X76270000Y-60060000D03*
D26*
X75000000Y-60060000D03*
X73730000Y-60060000D03*
%TD*%
D20*
%TO.C,J14*%
X64000000Y-84000000D03*
D21*
X66540000Y-84000000D03*
X64000000Y-86540000D03*
X66540000Y-86540000D03*
X64000000Y-89080000D03*
X66540000Y-89080000D03*
%TD*%
D27*
%TO.C,J200*%
X57447500Y-177180000D03*
D21*
X57447500Y-174640000D03*
X57447500Y-172100000D03*
X57447500Y-169560000D03*
X57447500Y-167020000D03*
X59987500Y-177180000D03*
X59987500Y-174640000D03*
X59987500Y-172100000D03*
X59987500Y-169560000D03*
X59987500Y-167020000D03*
%TD*%
D28*
%TO.C,C5*%
X62800000Y-65100000D03*
X67800000Y-65100000D03*
%TD*%
D20*
%TO.C,J15*%
X64000000Y-100000000D03*
D21*
X66540000Y-100000000D03*
X64000000Y-102540000D03*
X66540000Y-102540000D03*
X64000000Y-105080000D03*
X66540000Y-105080000D03*
X64000000Y-107620000D03*
X66540000Y-107620000D03*
X64000000Y-110160000D03*
X66540000Y-110160000D03*
X64000000Y-112700000D03*
X66540000Y-112700000D03*
%TD*%
D29*
%TO.C,C2*%
X93455113Y-47500000D03*
D28*
X91455113Y-47500000D03*
%TD*%
D20*
%TO.C,J24*%
X83000000Y-84000000D03*
D21*
X85540000Y-84000000D03*
X83000000Y-86540000D03*
X85540000Y-86540000D03*
X83000000Y-89080000D03*
X85540000Y-89080000D03*
%TD*%
D20*
%TO.C,JP1*%
X54410000Y-145460000D03*
D21*
X54410000Y-148000000D03*
X54410000Y-150540000D03*
%TD*%
D20*
%TO.C,J16*%
X64000000Y-130000000D03*
D21*
X66540000Y-130000000D03*
X64000000Y-132540000D03*
X66540000Y-132540000D03*
X64000000Y-135080000D03*
X66540000Y-135080000D03*
%TD*%
D29*
%TO.C,C1*%
X58500000Y-47500000D03*
D28*
X56500000Y-47500000D03*
%TD*%
D20*
%TO.C,J25*%
X83000000Y-100000000D03*
D21*
X85540000Y-100000000D03*
X83000000Y-102540000D03*
X85540000Y-102540000D03*
X83000000Y-105080000D03*
X85540000Y-105080000D03*
X83000000Y-107620000D03*
X85540000Y-107620000D03*
X83000000Y-110160000D03*
X85540000Y-110160000D03*
X83000000Y-112700000D03*
X85540000Y-112700000D03*
%TD*%
D20*
%TO.C,JP2*%
X59000000Y-145460000D03*
D21*
X59000000Y-148000000D03*
X59000000Y-150540000D03*
%TD*%
D28*
%TO.C,R49*%
X69110000Y-60500000D03*
X61490000Y-60500000D03*
%TD*%
D20*
%TO.C,J0*%
X53300000Y-125900000D03*
%TD*%
D22*
%TO.C,D4*%
X61820000Y-55500000D03*
D23*
X71980000Y-55500000D03*
%TD*%
%LPD*%
M02*
